<svg width="26" height="26" viewBox="0 0 26 26" fill="none" xmlns="http://www.w3.org/2000/svg">
<path d="M9.25 6.51422H14.25C14.913 6.51422 15.5489 6.77761 16.0178 7.24645C16.4866 7.71529 16.75 8.35118 16.75 9.01422V11.5142C16.75 12.1773 16.4866 12.8131 16.0178 13.282C15.5489 13.7508 14.913 14.0142 14.25 14.0142H11.75V16.5142H16.75V19.0142H9.25V14.0142C9.25 13.3512 9.51339 12.7153 9.98223 12.2465C10.4511 11.7776 11.087 11.5142 11.75 11.5142H14.25V9.01422H9.25V6.51422ZM13 0.264221C14.6415 0.264221 16.267 0.587543 17.7835 1.21573C19.3001 1.84391 20.6781 2.76465 21.8388 3.92539C22.9996 5.08612 23.9203 6.46411 24.5485 7.98068C25.1767 9.49725 25.5 11.1227 25.5 12.7642C25.5 16.0794 24.183 19.2589 21.8388 21.6031C19.4946 23.9473 16.3152 25.2642 13 25.2642C11.3585 25.2642 9.73303 24.9409 8.21646 24.3127C6.69989 23.6845 5.3219 22.7638 4.16116 21.6031C1.81696 19.2589 0.5 16.0794 0.5 12.7642C0.5 9.44901 1.81696 6.26959 4.16116 3.92539C6.50537 1.58118 9.68479 0.264221 13 0.264221ZM13 2.76422C10.3478 2.76422 7.8043 3.81779 5.92893 5.69315C4.05357 7.56852 3 10.1121 3 12.7642C3 15.4164 4.05357 17.9599 5.92893 19.8353C7.8043 21.7107 10.3478 22.7642 13 22.7642C15.6522 22.7642 18.1957 21.7107 20.0711 19.8353C21.9464 17.9599 23 15.4164 23 12.7642C23 10.1121 21.9464 7.56852 20.0711 5.69315C18.1957 3.81779 15.6522 2.76422 13 2.76422Z" fill="black"/>
</svg>
