<svg width="30" height="31" viewBox="0 0 30 31" fill="none" xmlns="http://www.w3.org/2000/svg">
<path d="M11.25 9.51416H16.25C16.913 9.51416 17.5489 9.77755 18.0178 10.2464C18.4866 10.7152 18.75 11.3511 18.75 12.0142V14.5142C18.75 15.1772 18.4866 15.8131 18.0178 16.2819C17.5489 16.7508 16.913 17.0142 16.25 17.0142H13.75V19.5142H18.75V22.0142H11.25V17.0142C11.25 16.3511 11.5134 15.7152 11.9822 15.2464C12.4511 14.7776 13.087 14.5142 13.75 14.5142H16.25V12.0142H11.25V9.51416ZM15 3.26416C16.6415 3.26416 18.267 3.58748 19.7835 4.21567C21.3001 4.84385 22.6781 5.76459 23.8388 6.92533C24.9996 8.08606 25.9203 9.46405 26.5485 10.9806C27.1767 12.4972 27.5 14.1226 27.5 15.7642C27.5 19.0794 26.183 22.2588 23.8388 24.603C21.4946 26.9472 18.3152 28.2642 15 28.2642C13.3585 28.2642 11.733 27.9408 10.2165 27.3127C8.69989 26.6845 7.3219 25.7637 6.16116 24.603C3.81696 22.2588 2.5 19.0794 2.5 15.7642C2.5 12.449 3.81696 9.26953 6.16116 6.92533C8.50537 4.58112 11.6848 3.26416 15 3.26416ZM15 5.76416C12.3478 5.76416 9.8043 6.81773 7.92893 8.69309C6.05357 10.5685 5 13.112 5 15.7642C5 18.4163 6.05357 20.9599 7.92893 22.8352C9.8043 24.7106 12.3478 25.7642 15 25.7642C17.6522 25.7642 20.1957 24.7106 22.0711 22.8352C23.9464 20.9599 25 18.4163 25 15.7642C25 13.112 23.9464 10.5685 22.0711 8.69309C20.1957 6.81773 17.6522 5.76416 15 5.76416Z" fill="black"/>
</svg>
