<svg width="35" height="39" viewBox="0 0 35 39" fill="none" xmlns="http://www.w3.org/2000/svg">
<path d="M34.2309 7.97575L17.8847 0.706522C17.7644 0.649941 17.633 0.620605 17.5001 0.620605C17.3671 0.620605 17.2358 0.649941 17.1155 0.706522L0.769306 7.97575C0.600285 8.04949 0.456031 8.17028 0.353741 8.32371C0.251451 8.47715 0.195439 8.65676 0.192383 8.84114V13.995C0.192383 23.4565 5.84623 34.9181 17.1539 38.8796C17.3784 38.9558 17.6218 38.9558 17.8462 38.8796C29.1539 34.9181 34.8078 23.4565 34.8078 13.995V8.84114C34.8047 8.65676 34.7487 8.47715 34.6464 8.32371C34.5441 8.17028 34.3999 8.04949 34.2309 7.97575ZM26.5155 14.3411L16.3616 27.2681C16.214 27.4544 16.0288 27.6076 15.8181 27.7176C15.6074 27.8276 15.3758 27.892 15.1385 27.9065L15.0385 27.9104C14.5914 27.9096 14.1628 27.7319 13.8462 27.4161L8.61546 22.1854C8.30001 21.8692 8.12309 21.4406 8.12363 20.9939C8.12417 20.5472 8.30213 20.1191 8.61835 19.8036C8.93456 19.4882 9.36315 19.3113 9.80981 19.3118C10.2565 19.3124 10.6846 19.4903 11.0001 19.8065L14.8885 23.695L23.8693 12.2623C24.1501 11.9258 24.5509 11.712 24.9867 11.6662C25.4225 11.6204 25.859 11.7462 26.2036 12.017C26.5482 12.2877 26.7737 12.6821 26.8323 13.1164C26.8908 13.5507 26.7779 13.9907 26.5174 14.3431L26.5155 14.3411Z" fill="#2E5077"/>
</svg>
