<svg width="26" height="26" viewBox="0 0 26 26" fill="none" xmlns="http://www.w3.org/2000/svg">
<path d="M16.75 16.5142C16.75 17.1772 16.4866 17.8131 16.0178 18.2819C15.5489 18.7508 14.913 19.0142 14.25 19.0142H9.25V16.5142H14.25V14.0142H11.75V11.5142H14.25V9.01416H9.25V6.51416H14.25C14.913 6.51416 15.5489 6.77755 16.0178 7.24639C16.4866 7.71523 16.75 8.35112 16.75 9.01416V10.8892C16.75 11.3864 16.5525 11.8634 16.2008 12.215C15.8492 12.5666 15.3723 12.7642 14.875 12.7642C15.3723 12.7642 15.8492 12.9617 16.2008 13.3133C16.5525 13.665 16.75 14.1419 16.75 14.6392V16.5142ZM13 0.26416C14.6415 0.26416 16.267 0.587482 17.7835 1.21567C19.3001 1.84385 20.6781 2.76459 21.8388 3.92533C22.9996 5.08606 23.9203 6.46405 24.5485 7.98062C25.1767 9.49719 25.5 11.1226 25.5 12.7642C25.5 16.0794 24.183 19.2588 21.8388 21.603C19.4946 23.9472 16.3152 25.2642 13 25.2642C11.3585 25.2642 9.73303 24.9408 8.21646 24.3127C6.69989 23.6845 5.3219 22.7637 4.16116 21.603C1.81696 19.2588 0.5 16.0794 0.5 12.7642C0.5 9.44895 1.81696 6.26953 4.16116 3.92533C6.50537 1.58112 9.68479 0.26416 13 0.26416ZM13 2.76416C10.3478 2.76416 7.8043 3.81773 5.92893 5.69309C4.05357 7.56846 3 10.112 3 12.7642C3 15.4163 4.05357 17.9599 5.92893 19.8352C7.8043 21.7106 10.3478 22.7642 13 22.7642C15.6522 22.7642 18.1957 21.7106 20.0711 19.8352C21.9464 17.9599 23 15.4163 23 12.7642C23 10.112 21.9464 7.56846 20.0711 5.69309C18.1957 3.81773 15.6522 2.76416 13 2.76416Z" fill="black"/>
</svg>
