<svg width="59" height="78" viewBox="0 0 59 78" fill="none" xmlns="http://www.w3.org/2000/svg">
<path d="M46.4883 63.0669H58.3359V78.0083H46.4883V63.0669Z" fill="black" fill-opacity="0.4"/>
<path d="M47.1914 63.77H57.6328V77.3052H47.1914V63.77Z" fill="#CBC8B8" fill-opacity="0.2"/>
<path d="M30.9961 55.9536H42.8438V78.0083H30.9961V55.9536Z" fill="black" fill-opacity="0.4"/>
<path d="M31.6875 56.6567H42.1289V77.3052H31.6875V56.6567Z" fill="#CBC8B8" fill-opacity="0.2"/>
<path d="M15.4922 47.2817H27.3398V78.0083H15.4922V47.2817Z" fill="black" fill-opacity="0.4"/>
<path d="M16.1953 47.9849H26.6484V77.3169H16.1953V47.9849Z" fill="#CBC8B8" fill-opacity="0.2"/>
<path d="M0 36.0552H11.8477V78.0083H0V36.0552Z" fill="black" fill-opacity="0.4"/>
<path d="M0.703125 36.7466H11.1563V77.3052H0.703125V36.7466Z" fill="#CBC8B8" fill-opacity="0.2"/>
<path d="M52.0433 30.978L48.4586 34.6059L17.7538 4.23571L12.5943 9.45765L43.2992 39.8278L39.6929 43.4706L54.3632 45.6337L52.0433 30.978Z" fill="black" fill-opacity="0.4"/>
<path d="M51.5755 32.4515L48.4675 35.5982L17.7626 5.22804L13.5866 9.4479L44.2915 39.8181L41.1619 42.9797L53.5228 44.7928L51.5755 32.4515Z" fill="#8E8684" fill-opacity="0.2"/>
</svg>
