<svg width="10" height="5" viewBox="0 0 10 5" fill="none" xmlns="http://www.w3.org/2000/svg">
<path d="M1.08058 0.379482C1.19568 0.260246 1.35343 0.191606 1.51913 0.188658C1.68483 0.18571 1.84492 0.248694 1.96419 0.36376L5.11249 3.40198L8.15071 0.253683C8.26654 0.137755 8.42327 0.0719603 8.58714 0.0704686C8.75102 0.0689769 8.90892 0.131908 9.02684 0.245708C9.14477 0.359509 9.21327 0.515073 9.21761 0.678894C9.22195 0.842716 9.16177 1.00169 9.05004 1.12157L5.57787 4.71954C5.46277 4.83877 5.30503 4.90741 5.13933 4.91036C4.97362 4.91331 4.81354 4.85032 4.69426 4.73526L1.0963 1.26309C0.977064 1.14799 0.908425 0.990243 0.905476 0.824542C0.902528 0.658841 0.965512 0.498752 1.08058 0.379482Z" fill="#A6A6A6"/>
</svg>
