<svg width="45" height="45" viewBox="0 0 45 45" fill="none" xmlns="http://www.w3.org/2000/svg">
<g clip-path="url(#clip0_799_1476)">
<path d="M44.25 31.5C44.25 38.5425 38.5425 44.25 31.5 44.25C27.6075 44.25 24.12 42.5025 21.7875 39.75C19.89 37.53 18.75 34.65 18.75 31.5C18.75 24.705 24.06 19.155 30.75 18.7725C30.9975 18.7575 31.2525 18.75 31.5 18.75C34.1325 18.75 36.57 19.545 38.595 20.9025L38.445 21.0525C38.2875 21.2175 38.2125 21.4575 38.265 21.675L38.7525 23.745C38.8125 23.9925 39.0075 24.1875 39.255 24.2475L41.325 24.735C41.5425 24.7875 41.7825 24.7125 41.9475 24.555L42.0975 24.405C43.455 26.43 44.25 28.8675 44.25 31.5Z" fill="#D93625"/>
<path d="M31.5 41.25C36.8848 41.25 41.25 36.8848 41.25 31.5C41.25 26.1152 36.8848 21.75 31.5 21.75C26.1152 21.75 21.75 26.1152 21.75 31.5C21.75 36.8848 26.1152 41.25 31.5 41.25Z" fill="#ECF0F1"/>
<path d="M31.5 38.25C35.2279 38.25 38.25 35.2279 38.25 31.5C38.25 27.7721 35.2279 24.75 31.5 24.75C27.7721 24.75 24.75 27.7721 24.75 31.5C24.75 35.2279 27.7721 38.25 31.5 38.25Z" fill="#D93625"/>
<path d="M44.0552 22.4474L41.9477 24.5549C41.7827 24.7124 41.5427 24.7874 41.3252 24.7349L39.2552 24.2474C39.0077 24.1874 38.8127 23.9924 38.7527 23.7449L38.2652 21.6749C38.2127 21.4574 38.2877 21.2174 38.4452 21.0524L40.5527 18.9449C40.8152 18.6824 41.2352 18.6824 41.4977 18.9449L44.0552 21.5024C44.3177 21.7649 44.3177 22.1849 44.0552 22.4474Z" fill="#ED8B13"/>
<path d="M31.5 35.25C33.5711 35.25 35.25 33.5711 35.25 31.5C35.25 29.4289 33.5711 27.75 31.5 27.75C29.4289 27.75 27.75 29.4289 27.75 31.5C27.75 33.5711 29.4289 35.25 31.5 35.25Z" fill="#ECF0F1"/>
<path d="M30.75 6.75V18.7725C24.06 19.155 18.75 24.705 18.75 31.5C18.75 34.65 19.89 37.53 21.7875 39.75H1.5C1.0875 39.75 0.75 39.4125 0.75 39V1.5C0.75 1.0875 1.0875 0.75 1.5 0.75H24.75V5.25C24.75 6.075 25.425 6.75 26.25 6.75H30.75Z" fill="#ECF0F1"/>
<path d="M30.75 6.75H26.25C25.425 6.75 24.75 6.075 24.75 5.25V0.75L30.75 6.75Z" fill="#88ABAB"/>
<path d="M9.75 9.75H4.5C4.08579 9.75 3.75 10.0858 3.75 10.5V15.75C3.75 16.1642 4.08579 16.5 4.5 16.5H9.75C10.1642 16.5 10.5 16.1642 10.5 15.75V10.5C10.5 10.0858 10.1642 9.75 9.75 9.75Z" fill="#58C758"/>
<path d="M9.75 19.5H4.5C4.08579 19.5 3.75 19.8358 3.75 20.25V25.5C3.75 25.9142 4.08579 26.25 4.5 26.25H9.75C10.1642 26.25 10.5 25.9142 10.5 25.5V20.25C10.5 19.8358 10.1642 19.5 9.75 19.5Z" fill="#58C758"/>
<path d="M9.75 29.25H4.5C4.08579 29.25 3.75 29.5858 3.75 30V35.25C3.75 35.6642 4.08579 36 4.5 36H9.75C10.1642 36 10.5 35.6642 10.5 35.25V30C10.5 29.5858 10.1642 29.25 9.75 29.25Z" fill="#58C758"/>
<path d="M43.6058 20.0068C43.9193 19.6873 44.2328 19.3671 44.547 19.0468C44.9348 18.6531 44.337 18.0733 43.953 18.4528C43.6328 18.7671 43.3118 19.0813 42.9915 19.3956C42.657 19.0798 42.3195 18.7678 41.9715 18.4656C41.5553 18.0756 40.9178 18.0028 40.4325 18.2803C40.0808 18.4581 39.606 19.1848 39.339 19.4361C39.207 19.5973 38.952 19.8951 38.7105 20.1763C36.402 18.6216 33.873 17.9488 31.401 17.9923C31.3125 14.5326 31.2555 9.96657 31.1963 6.74007C31.1948 6.62907 31.1513 6.51807 31.0658 6.43407L30.75 6.12582V6.07857L30.7088 6.08532C29.4218 4.82682 24.9983 0.501568 24.9983 0.501568C17.6063 0.225568 10.0448 0.584068 2.59877 0.431818C2.12477 0.449068 1.72652 0.381568 1.21052 0.465568C0.591773 0.622318 0.358523 1.25232 0.418523 1.82982L0.411773 3.13257C0.379523 10.6236 0.222023 21.6726 0.129773 29.1921C0.103523 31.5643 0.0645233 35.9893 0.0517733 38.3128L0.0472733 38.9646C-0.00672674 39.7236 0.717773 40.4916 1.50902 40.4601C8.23427 40.5133 15 40.5388 21.7193 40.2381C26.187 45.0253 34.0673 46.2846 39.801 41.6038C44.8718 37.5823 46.1978 29.9121 42.843 24.3576C43.167 24.0733 43.5773 23.7103 43.7813 23.5416C43.9785 23.3653 44.3498 23.0578 44.5365 22.8778C45.1283 22.3116 45 21.3381 44.394 20.8296C44.142 20.5431 43.872 20.2768 43.605 20.0061L43.6058 20.0068ZM40.917 19.4241C41.016 19.3333 40.977 19.3836 41.0003 19.3716C41.022 19.3738 41.0483 19.4083 41.0258 19.4203C41.3213 19.7466 41.6273 20.0893 41.9393 20.4283C40.9448 21.4033 39.9473 22.3761 38.9498 23.3481C38.8853 23.0653 38.8545 22.7578 38.769 22.5133L38.658 21.9606C38.6145 21.6853 38.5298 21.5406 38.6453 21.3786C39.2843 20.7861 40.26 20.0106 40.917 19.4241ZM34.578 31.4998C34.6193 35.9953 28.1153 36.0201 28.1093 31.4998C28.3403 28.5853 31.266 27.7701 33.108 28.9566C32.3963 29.6293 31.686 30.3028 30.969 30.9696C30.231 31.6851 31.3223 32.7628 32.0295 32.0301C32.6948 31.3146 33.3668 30.6066 34.0373 29.8963C34.3185 30.3366 34.5203 30.8631 34.578 31.4998ZM34.218 27.9118C31.722 26.1651 27.3653 27.3801 27.3893 31.4998C27.7103 36.8953 35.5793 36.9411 35.9205 31.4998C35.9318 30.3666 35.6145 29.4583 35.1008 28.7668C35.442 28.4083 35.787 28.0536 36.1298 27.6958C37.0058 28.7578 37.5503 30.0951 37.578 31.4998C37.779 37.0431 30.8558 40.0716 26.9378 36.0621C22.9838 32.1133 25.9358 25.2216 31.4993 25.4023C32.9265 25.4166 34.2578 25.9738 35.3085 26.8648C34.9448 27.2136 34.5833 27.5646 34.218 27.9118ZM36.3713 25.8441C35.0333 24.7003 33.3045 24.0141 31.5 24.0988C25.1753 24.1686 21.9923 32.1021 26.5155 36.4843C30.9315 40.9528 38.8305 37.8486 38.9213 31.5006C39.0203 29.6788 38.3205 27.9538 37.1603 26.6248C37.5143 26.2573 37.866 25.8876 38.2208 25.5216C39.6173 27.0643 40.5248 29.1073 40.5788 31.5006C40.7303 39.7386 30.6765 44.0646 24.8168 38.1838C21.1943 34.6768 21.2595 28.3551 24.96 24.9613C28.7385 21.3471 34.1168 21.8241 37.4745 24.7843C37.1078 25.1391 36.738 25.4901 36.3713 25.8441ZM25.311 3.58857C25.3328 3.00957 25.3725 2.43132 25.3365 1.85232C26.3783 2.91732 28.6455 5.23632 29.6415 6.25557C28.3883 6.43557 27.108 6.53382 25.8818 6.38907C24.7313 5.93757 25.338 4.52757 25.3103 3.58932L25.311 3.58857ZM11.3633 39.0193C8.40227 38.9991 5.21177 39.0006 2.24252 39.0343L1.59077 39.0388H1.50902C1.48952 39.0388 1.50152 39.0381 1.49552 39.0388C1.48652 39.0388 1.47977 39.0366 1.47152 39.0298C1.38902 29.5438 1.11752 12.4618 1.08752 3.13182L1.08077 1.82907C1.08752 1.73832 1.05452 1.39182 1.11602 1.32507C1.27652 0.995068 1.56527 1.08732 1.94702 1.07082L2.59877 1.06782C5.02727 1.05132 7.45652 1.05882 9.88577 1.06032C9.71177 1.95507 9.72302 2.85657 9.94277 3.74982C10.5158 4.49382 10.62 2.08932 10.407 1.06032C10.8885 1.06032 11.3708 1.05807 11.8523 1.05882C11.6565 2.03307 11.688 3.02307 11.91 4.00032C12.492 4.79607 12.5873 2.14857 12.3645 1.05882C12.8505 1.06032 13.3373 1.05657 13.8233 1.05882C13.6223 2.11707 13.653 3.19032 13.8773 4.25157C14.4668 5.09607 14.5568 2.21157 14.3273 1.06107C14.817 1.06257 15.3068 1.06482 15.7973 1.06707C15.7125 1.58607 15.66 2.10657 15.6608 2.62707C15.6608 3.25257 15.723 3.87882 15.8453 4.50207C16.0275 4.77582 16.1625 4.67007 16.2548 4.35732C16.347 4.04457 16.3973 3.52482 16.4108 2.97057C16.4235 2.41632 16.3995 1.82682 16.3433 1.37532C16.3298 1.26432 16.3133 1.16157 16.296 1.07007C16.8893 1.07232 17.4818 1.07457 18.075 1.07682C17.9925 1.54332 17.9498 2.04807 17.9475 2.57232C17.9423 3.39582 18.018 4.27857 18.1283 4.75182C18.3173 5.02557 18.4523 4.91382 18.543 4.59057C18.6338 4.26732 18.6803 3.73332 18.6915 3.16032C18.7058 2.38482 18.6653 1.52382 18.5895 1.16682C18.582 1.13307 18.5738 1.10907 18.5663 1.07832C19.1603 1.08057 19.7535 1.08282 20.3468 1.08507C20.2733 1.49307 20.2395 1.99107 20.235 2.51682C20.2238 3.53757 20.3145 4.67832 20.4113 5.00157C20.6063 5.27532 20.742 5.15757 20.8305 4.82457C20.919 4.49157 20.9618 3.94182 20.9715 3.35082C20.985 2.47032 20.9385 1.48557 20.865 1.08732C21.4523 1.08957 22.0395 1.09182 22.6268 1.09407C22.5608 1.44057 22.5285 1.92957 22.521 2.46207C22.5045 3.68082 22.6095 5.07882 22.6928 5.25132C22.8945 5.52432 23.0303 5.40207 23.1173 5.05782C23.2043 4.71432 23.2433 4.14957 23.2515 3.54057C23.2635 2.63082 23.208 1.62057 23.145 1.09557L24.2745 1.10007C24.0848 1.93032 24.1583 2.75982 24.1898 3.59007C24.2775 4.36332 24.2198 5.05632 24.4515 5.83182C24.7478 6.64707 25.677 7.13607 26.493 7.04457C27.7725 7.04982 29.0363 7.12332 30.3015 7.34607C30.2858 10.5621 30.1343 14.8048 30.0893 18.0778C27.9098 18.3396 25.8203 19.1503 24.0173 20.3871C22.4595 20.3653 14.2515 20.2521 14.2515 20.2521C13.2503 20.2573 13.2548 21.7476 14.2515 21.7521L22.4528 21.6381C21.6518 22.3783 20.9355 23.2131 20.3333 24.1333C19.7033 24.1198 14.2508 24.0021 14.2508 24.0021C13.8255 23.9923 13.4745 24.3426 13.4843 24.7686C13.4933 25.1826 13.836 25.5111 14.2508 25.5021L19.614 25.3866C18.8663 26.8663 18.3915 28.5148 18.276 30.2863C17.1045 30.2038 14.2515 30.0021 14.2515 30.0021C13.194 29.9556 13.1955 31.5486 14.2515 31.5021L18.2468 31.2201C18.2483 31.5261 18.258 31.8351 18.282 32.1478C18.318 32.7876 18.4005 33.4078 18.5198 34.0093L14.2515 33.7528C13.2045 33.7168 13.2068 35.2896 14.2515 35.2528L18.7515 34.9821C19.197 36.5683 19.9313 37.9948 20.874 39.2353C17.7045 39.1071 14.535 39.0313 11.3655 39.0216L11.3633 39.0193ZM39.3855 41.0983C31.6215 47.5941 19.5405 42.2428 19.2818 32.0976C18.9345 22.3206 29.727 16.3303 37.932 21.2901C37.9193 21.3463 37.9095 21.4033 37.911 21.4551C37.9155 21.7806 38.0063 21.9156 38.0415 22.1046C38.1765 22.5973 38.31 23.1381 38.4225 23.6398C34.5645 20.3518 28.362 19.9716 24.2505 24.2518C20.4008 28.0978 20.4668 34.8711 24.3938 38.6061C30.753 44.9451 41.7758 40.5456 41.9205 31.5006C41.9745 28.7256 40.9883 26.3736 39.414 24.6088L39.4815 24.6261L40.569 24.9261C40.9335 25.0266 41.3775 25.2118 41.7675 25.1181C45.171 30.0133 44.0835 37.3476 39.3855 41.0983ZM42.9585 22.7203C42.618 23.1096 42.0015 23.8296 41.6618 24.2076C41.568 24.3486 41.442 24.3561 41.289 24.3208L40.7325 24.2263C40.5368 24.1768 40.0605 24.1048 39.6765 24.0261C40.6365 23.0406 41.5973 22.0558 42.5603 21.0733C42.8963 21.4071 43.2383 21.7243 43.5908 21.9823C43.464 22.1661 43.1093 22.5306 42.9585 22.7203Z" fill="#232323"/>
<path d="M11.4696 8.46962L10.5674 9.40637C10.3214 9.22787 10.0244 9.12437 9.72211 9.14912L9.32011 9.16937C8.29036 9.22487 5.56561 9.34487 4.49911 9.39062C3.89986 9.39062 3.38311 9.94337 3.42286 10.5276L3.43336 10.9296C3.45811 12.4859 3.47461 14.2034 3.40636 15.7506C3.36586 16.3521 3.92911 16.9146 4.52686 16.9004L4.92886 16.9191C6.48436 17.0136 8.20261 17.1059 9.74986 17.1726C10.5246 17.2184 11.2446 16.4834 11.2191 15.7236C11.2469 15.0584 11.2664 14.3796 11.2536 13.7151C11.2371 12.7596 11.1966 11.8041 11.1644 10.8494C11.9391 10.1039 12.5504 9.51512 12.5504 9.51212C13.2291 8.80112 12.1514 7.76912 11.4696 8.47112V8.46962ZM9.78061 15.7229C9.79036 15.7881 9.80236 15.7971 9.74986 15.8286C8.19961 15.8991 6.48736 15.9831 4.92886 16.0814C4.60861 16.0941 4.14436 16.1991 4.09261 15.7499C4.02061 14.1996 4.04386 12.4881 4.06561 10.9289C4.06786 10.5869 4.02886 10.1046 4.49986 10.1099C5.75911 10.1691 8.38786 10.2749 9.65986 10.3484L7.48261 12.6081L7.18111 12.3179C6.61486 11.7764 5.77411 12.6141 6.31711 13.1819L7.05286 13.9461C7.29586 14.1996 7.70236 14.1981 7.94536 13.9461C7.94911 13.9409 8.81536 13.1069 9.79561 12.1641C9.76786 12.6831 9.73711 13.2029 9.74536 13.7144C9.73336 14.3796 9.75136 15.0576 9.77986 15.7229H9.78061Z" fill="#232323"/>
<path d="M11.4696 18.2196L10.5674 19.1564C10.3214 18.9779 10.0244 18.8744 9.72211 18.8991L9.32011 18.9194C8.29036 18.9749 5.56561 19.0949 4.49911 19.1406C3.89986 19.1406 3.38311 19.6934 3.42286 20.2776L3.43336 20.6796C3.45811 22.2359 3.47461 23.9534 3.40636 25.5006C3.36586 26.1021 3.92911 26.6646 4.52686 26.6504L4.92886 26.6691C6.48436 26.7636 8.20261 26.8559 9.74986 26.9226C10.5246 26.9684 11.2446 26.2334 11.2191 25.4736C11.2469 24.8084 11.2664 24.1296 11.2536 23.4651C11.2371 22.5096 11.1966 21.5541 11.1644 20.5994C11.9391 19.8539 12.5504 19.2651 12.5504 19.2621C13.2291 18.5511 12.1514 17.5191 11.4696 18.2211V18.2196ZM9.78061 25.4729C9.79036 25.5381 9.80236 25.5471 9.74986 25.5786C8.19961 25.6491 6.48736 25.7331 4.92886 25.8314C4.60861 25.8441 4.14436 25.9491 4.09261 25.4999C4.02061 23.9496 4.04386 22.2381 4.06561 20.6789C4.06786 20.3369 4.02886 19.8546 4.49986 19.8599C5.75911 19.9191 8.38786 20.0249 9.65986 20.0984L7.48261 22.3581L7.18111 22.0679C6.61486 21.5264 5.77411 22.3641 6.31711 22.9319L7.05286 23.6961C7.29586 23.9496 7.70236 23.9481 7.94536 23.6961C7.94911 23.6909 8.81536 22.8569 9.79561 21.9141C9.76786 22.4331 9.73711 22.9529 9.74536 23.4644C9.73336 24.1296 9.75136 24.8076 9.77986 25.4729H9.78061Z" fill="#232323"/>
<path d="M11.4696 27.9696L10.5674 28.9064C10.3214 28.7279 10.0244 28.6244 9.72211 28.6491L9.32011 28.6694C8.29036 28.7249 5.56561 28.8449 4.49911 28.8906C3.89986 28.8906 3.38311 29.4434 3.42286 30.0276L3.43336 30.4296C3.45811 31.9859 3.47461 33.7034 3.40636 35.2506C3.36586 35.8521 3.92911 36.4146 4.52686 36.4004L4.92886 36.4191C6.48436 36.5136 8.20261 36.6059 9.74986 36.6726C10.5246 36.7184 11.2446 35.9834 11.2191 35.2236C11.2469 34.5584 11.2664 33.8796 11.2536 33.2151C11.2371 32.2596 11.1966 31.3041 11.1644 30.3494C11.9391 29.6039 12.5504 29.0151 12.5504 29.0121C13.2291 28.3011 12.1514 27.2691 11.4696 27.9711V27.9696ZM9.78061 35.2229C9.79036 35.2881 9.80236 35.2971 9.74986 35.3286C8.19961 35.3991 6.48736 35.4831 4.92886 35.5814C4.60861 35.5941 4.14436 35.6991 4.09261 35.2499C4.02061 33.6996 4.04386 31.9881 4.06561 30.4289C4.06786 30.0869 4.02886 29.6046 4.49986 29.6099C5.75911 29.6691 8.38786 29.7749 9.65986 29.8484L7.48261 32.1081L7.18111 31.8179C6.61486 31.2764 5.77411 32.1141 6.31711 32.6819L7.05286 33.4461C7.29586 33.6996 7.70236 33.6981 7.94536 33.4461C7.94911 33.4409 8.81536 32.6069 9.79561 31.6641C9.76786 32.1831 9.73711 32.7029 9.74536 33.2144C9.73336 33.8796 9.75136 34.5576 9.77986 35.2229H9.78061Z" fill="#232323"/>
<path d="M14.2499 11.8612C14.2551 11.8597 27.7656 12.003 27.7649 12C28.7534 11.973 28.7316 10.5053 27.7491 10.5L14.2491 10.6388C13.4549 10.65 13.4631 11.8507 14.2499 11.8612Z" fill="#232323"/>
<path d="M24.7499 14.25L14.2499 14.3887C13.4594 14.4015 13.4639 15.5985 14.2499 15.6113L24.7499 15.75C25.7511 15.744 25.7459 14.2545 24.7499 14.25Z" fill="#232323"/>
</g>
<defs>
<clipPath id="clip0_799_1476">
<rect width="45" height="45" fill="white"/>
</clipPath>
</defs>
</svg>
