<svg width="25" height="24" viewBox="0 0 25 24" fill="none" xmlns="http://www.w3.org/2000/svg">
<path fill-rule="evenodd" clip-rule="evenodd" d="M18.9971 10.7498V7.99976H20.4971V10.7498H23.2471V12.2498H20.4971V14.9998H18.9971V12.2498H16.2471V10.7498H18.9971ZM8.07907 12.3498C7.34307 11.4778 6.74707 9.84976 6.74707 8.70976V6.99976C6.74707 5.93889 7.1685 4.92147 7.91864 4.17133C8.66879 3.42118 9.6862 2.99976 10.7471 2.99976C11.8079 2.99976 12.8254 3.42118 13.5755 4.17133C14.3256 4.92147 14.7471 5.93889 14.7471 6.99976V8.70976C14.7471 9.84976 14.1471 11.4828 13.4151 12.3518L13.0541 12.7798C12.4641 13.4788 12.6481 14.3678 13.4731 14.7698L19.1331 17.5318C19.7481 17.8318 20.2471 18.6248 20.2471 19.3148V20.0018C20.2465 20.2668 20.1408 20.5208 19.9531 20.7079C19.7654 20.8951 19.5111 21 19.2461 20.9998H2.24707C1.9822 20.9998 1.72815 20.8947 1.54067 20.7076C1.35319 20.5205 1.2476 20.2666 1.24707 20.0018V19.3148C1.24707 18.6298 1.74507 17.8318 2.36107 17.5308L8.02107 14.7688C8.84207 14.3688 9.03307 13.4808 8.44107 12.7788L8.07907 12.3498Z" fill="#79D7BE"/>
</svg>
