<svg width="25" height="24" viewBox="0 0 25 24" fill="none" xmlns="http://www.w3.org/2000/svg">
<path d="M13.7982 3.14868L22.4322 18.1027C22.5638 18.3307 22.6332 18.5894 22.6332 18.8527C22.6332 19.116 22.5639 19.3746 22.4322 19.6027C22.3006 19.8307 22.1112 20.0201 21.8832 20.1517C21.6552 20.2834 21.3965 20.3527 21.1332 20.3527H3.8652C3.60189 20.3527 3.34323 20.2834 3.11521 20.1517C2.88719 20.0201 2.69783 19.8307 2.56619 19.6027C2.43454 19.3746 2.36523 19.116 2.36523 18.8527C2.36524 18.5894 2.43455 18.3307 2.5662 18.1027L11.2002 3.14868C11.7772 2.14868 13.2202 2.14868 13.7982 3.14868ZM12.4992 15.0007C12.234 15.0007 11.9796 15.106 11.7921 15.2936C11.6046 15.4811 11.4992 15.7355 11.4992 16.0007C11.4992 16.2659 11.6046 16.5203 11.7921 16.7078C11.9796 16.8953 12.234 17.0007 12.4992 17.0007C12.7644 17.0007 13.0188 16.8953 13.2063 16.7078C13.3938 16.5203 13.4992 16.2659 13.4992 16.0007C13.4992 15.7355 13.3938 15.4811 13.2063 15.2936C13.0188 15.106 12.7644 15.0007 12.4992 15.0007ZM12.4992 8.00068C12.2543 8.00071 12.0179 8.09064 11.8348 8.2534C11.6518 8.41616 11.5349 8.64043 11.5062 8.88368L11.4992 9.00068V13.0007C11.4995 13.2556 11.5971 13.5007 11.772 13.6861C11.947 13.8714 12.1861 13.9829 12.4406 13.9979C12.695 14.0128 12.9456 13.93 13.141 13.7664C13.3365 13.6028 13.4621 13.3708 13.4922 13.1177L13.4992 13.0007V9.00068C13.4992 8.73547 13.3938 8.48111 13.2063 8.29358C13.0188 8.10604 12.7644 8.00068 12.4992 8.00068Z" fill="#E00A00"/>
</svg>
