<svg width="25" height="27" viewBox="0 0 25 27" fill="none" xmlns="http://www.w3.org/2000/svg">
<path d="M16.5004 2.47838L17.7913 0.352845C17.8078 0.325609 17.8182 0.295671 17.8221 0.264742C17.8259 0.233813 17.823 0.202497 17.8136 0.172583C17.8042 0.142669 17.7884 0.114743 17.7671 0.0903989C17.7459 0.0660546 17.7196 0.0457692 17.6897 0.0307007C17.6599 0.0156322 17.6271 0.00607577 17.5932 0.0025771C17.5593 -0.000921568 17.525 0.00170605 17.4922 0.0103098C17.4594 0.0189136 17.4288 0.0333251 17.4022 0.0527215C17.3755 0.0721179 17.3533 0.0961194 17.3368 0.123355L16.0324 2.27098C14.919 1.82537 13.7164 1.5953 12.5007 1.5953C11.2849 1.5953 10.0823 1.82537 8.96891 2.27098L7.66459 0.123355C7.63124 0.0680242 7.57518 0.0270483 7.50873 0.00944202C7.44229 -0.00816427 7.3709 -0.000958796 7.31027 0.0294734C7.24964 0.0599056 7.20474 0.111072 7.18545 0.171716C7.16616 0.232359 7.17406 0.297514 7.2074 0.352845L8.49828 2.47838C7.27043 3.03167 6.23305 3.88262 5.49971 4.93806C4.76638 5.9935 4.36537 7.21274 4.34058 8.46229H20.6608C20.6357 7.21248 20.2343 5.99306 19.5005 4.9376C18.7667 3.88214 17.7287 3.03133 16.5004 2.47838ZM4.33923 19.8447C4.3387 20.0817 4.38942 20.3164 4.48849 20.5354C4.58755 20.7544 4.73301 20.9534 4.91652 21.121C5.10003 21.2886 5.31799 21.4215 5.5579 21.512C5.7978 21.6026 6.05493 21.649 6.31455 21.6487H7.6229V25.3304C7.6229 25.7732 7.81565 26.1979 8.15873 26.511C8.50181 26.8241 8.96713 27 9.45232 27C9.93751 27 10.4028 26.8241 10.7459 26.511C11.089 26.1979 11.2817 25.7732 11.2817 25.3304V21.6487H13.721V25.3304C13.721 25.773 13.9136 26.1975 14.2566 26.5105C14.5995 26.8235 15.0647 26.9994 15.5497 26.9994C16.0347 26.9994 16.4999 26.8235 16.8428 26.5105C17.1858 26.1975 17.3784 25.773 17.3784 25.3304V21.6487H18.6881C18.9474 21.6489 19.2042 21.6024 19.4438 21.5119C19.6833 21.4214 19.901 21.2887 20.0843 21.1214C20.2677 20.9541 20.4131 20.7554 20.5122 20.5368C20.6114 20.3181 20.6623 20.0838 20.6621 19.8472V9.05135H4.33789L4.33923 19.8447ZM1.82874 8.76296C1.58848 8.76296 1.35056 8.80617 1.1286 8.89012C0.906642 8.97407 0.704984 9.09712 0.535152 9.25223C0.365319 9.40735 0.230643 9.59148 0.138819 9.79412C0.0469953 9.99675 -0.000176173 10.2139 4.94407e-07 10.4332V17.3903C4.89346e-07 17.6095 0.0473022 17.8265 0.139205 18.029C0.231108 18.2315 0.365812 18.4155 0.535627 18.5705C0.705442 18.7254 0.907041 18.8484 1.12891 18.9323C1.35079 19.0161 1.58859 19.0593 1.82874 19.0593C2.0689 19.0593 2.3067 19.0161 2.52857 18.9323C2.75045 18.8484 2.95205 18.7254 3.12186 18.5705C3.29168 18.4155 3.42638 18.2315 3.51828 18.029C3.61019 17.8265 3.65749 17.6095 3.65749 17.3903V10.4344C3.65749 9.99177 3.46482 9.56725 3.12186 9.25425C2.77891 8.94125 2.31376 8.76541 1.82874 8.76541V8.76296ZM23.1713 8.76296C22.931 8.76296 22.6931 8.80617 22.4711 8.89012C22.2492 8.97407 22.0475 9.09712 21.8777 9.25223C21.7078 9.40735 21.5732 9.59148 21.4813 9.79412C21.3895 9.99675 21.3423 10.2139 21.3425 10.4332V17.3903C21.3425 17.6095 21.3898 17.8265 21.4817 18.029C21.5736 18.2315 21.7083 18.4155 21.8781 18.5705C22.048 18.7254 22.2496 18.8484 22.4714 18.9323C22.6933 19.0161 22.9311 19.0593 23.1713 19.0593C23.4114 19.0593 23.6492 19.0161 23.8711 18.9323C24.093 18.8484 24.2946 18.7254 24.4644 18.5705C24.6342 18.4155 24.7689 18.2315 24.8608 18.029C24.9527 17.8265 25 17.6095 25 17.3903V10.4344C25 9.99177 24.8073 9.56725 24.4644 9.25425C24.1214 8.94125 23.6563 8.76541 23.1713 8.76541V8.76296Z" fill="#98F3DB"/>
</svg>
