<svg width="51" height="50" viewBox="0 0 51 50" fill="none" xmlns="http://www.w3.org/2000/svg">
<g clip-path="url(#clip0_689_823)">
<path d="M29.8968 6.74328C28.5016 6.42365 27.0784 6.26154 25.6668 6.26154C24.2553 6.26154 22.832 6.42355 21.4367 6.74328C21.0786 6.82531 20.8246 7.14406 20.8246 7.51144V10.471C19.5524 10.8904 18.3447 11.4728 17.2212 12.2085L14.9056 10.3619C14.6183 10.1328 14.2108 10.1325 13.9233 10.3615C12.8036 11.2531 11.7895 12.2648 10.9095 13.3684C10.0293 14.4721 9.26865 15.6859 8.64873 16.9759C8.48965 17.3071 8.58047 17.7043 8.86777 17.9334L11.1797 19.7772C10.7143 21.0336 10.4166 22.3416 10.2912 23.6798L7.40586 24.3383C7.04766 24.4201 6.79346 24.7386 6.79316 25.106C6.79199 26.5371 6.95068 27.9608 7.26484 29.3371C7.57881 30.7133 8.05361 32.0648 8.67568 33.3539C8.83545 33.6849 9.20273 33.8613 9.56084 33.7797L12.4459 33.1212C13.1391 34.2676 13.9758 35.3156 14.9418 36.2479L13.6568 38.9159C13.4974 39.247 13.5879 39.6443 13.875 39.8736C14.9933 40.7669 16.2052 41.5305 17.4771 42.143C18.7487 42.7555 20.1014 43.227 21.4973 43.5444C21.5557 43.5576 21.6143 43.5641 21.6722 43.5641C21.9696 43.5641 22.2486 43.3949 22.3819 43.1179L23.6666 40.45C25.0063 40.6253 26.3271 40.6253 27.6668 40.45L28.9515 43.1179C29.1109 43.4489 29.4773 43.6258 29.8363 43.5444C31.2321 43.227 32.5848 42.7556 33.8564 42.1431C35.1286 41.5304 36.3405 40.7669 37.4586 39.8737C37.7457 39.6444 37.8361 39.2471 37.6768 38.916L36.3919 36.2478C37.358 35.3155 38.1946 34.2676 38.8879 33.1212L41.7729 33.7797C42.1311 33.8611 42.4983 33.6849 42.6581 33.3539C43.2802 32.065 43.7548 30.7135 44.069 29.3371C44.3831 27.9611 44.5418 26.5374 44.5406 25.106C44.5403 24.7385 44.2861 24.4201 43.9279 24.3383L41.0427 23.6798C40.9174 22.3417 40.6196 21.0336 40.1542 19.7772L42.4661 17.9334C42.7534 17.7043 42.8442 17.3071 42.6852 16.9759C42.0652 15.6859 41.3046 14.4721 40.4244 13.3684C39.5439 12.2645 38.5299 11.2529 37.4103 10.3615C37.1229 10.1327 36.7154 10.1329 36.4281 10.362L34.1125 12.2086C32.9892 11.473 31.7812 10.8905 30.5091 10.4711V7.51154C30.5088 7.14406 30.2548 6.82541 29.8968 6.74328ZM33.692 13.8296C33.9785 14.0335 34.3652 14.0226 34.64 13.8035L36.9107 11.9928C37.7479 12.7092 38.5134 13.5004 39.1919 14.351C39.8701 15.2015 40.4711 16.1237 40.9834 17.0996L38.7167 18.9072C38.442 19.1264 38.3454 19.5009 38.4802 19.8255C39.0792 21.2687 39.4266 22.7948 39.5129 24.3617C39.5322 24.7127 39.7817 25.0085 40.1244 25.0867L42.9537 25.7325C42.9155 26.8341 42.7743 27.9259 42.5323 28.9862C42.2902 30.0469 41.9438 31.0918 41.5003 32.1007L38.6724 31.4552C38.3304 31.3772 37.9774 31.5349 37.8075 31.8419C37.0503 33.2099 36.0736 34.4333 34.9045 35.4784C34.6426 35.7124 34.5673 36.0915 34.7196 36.4079L35.9794 39.0237C35.0946 39.6806 34.1529 40.2508 33.1728 40.7229C32.1929 41.1947 31.1598 41.5755 30.0943 41.8579L28.835 39.2426C28.6826 38.9264 28.3394 38.7492 27.9937 38.8074C27.2152 38.939 26.4324 39.0057 25.6669 39.0057C24.9014 39.0057 24.1186 38.939 23.3401 38.8074C22.9956 38.7493 22.651 38.9263 22.4988 39.2426L21.2395 41.8579C20.174 41.5756 19.141 41.1948 18.161 40.7229C17.1809 40.2508 16.2394 39.6807 15.3544 39.0237L16.6141 36.4079C16.7664 36.0915 16.691 35.7125 16.4292 35.4784C15.2601 34.4333 14.2833 33.2098 13.5262 31.8419C13.3563 31.5349 13.0034 31.3773 12.6613 31.4552L9.8334 32.1007C9.38984 31.0917 9.04356 30.0468 8.80147 28.9862C8.55947 27.9257 8.41807 26.8338 8.37998 25.7325L11.2094 25.0867C11.5521 25.0085 11.8016 24.7127 11.8209 24.3617C11.9072 22.7948 12.2546 21.2687 12.8536 19.8255C12.9884 19.5009 12.8919 19.1264 12.6171 18.9072L10.3504 17.0996C10.8627 16.1237 11.4637 15.2015 12.1419 14.351C12.82 13.5006 13.5855 12.7094 14.4229 11.9928L16.6936 13.8035C16.9683 14.0226 17.3551 14.0335 17.6416 13.8296C18.9196 12.9209 20.3288 12.2413 21.8305 11.8099C22.1684 11.7128 22.401 11.4039 22.401 11.0525V8.1508C24.5658 7.73498 26.7681 7.73498 28.9328 8.1508V11.0525C28.9328 11.4039 29.1654 11.7128 29.5032 11.8099C31.0049 12.2414 32.4143 12.921 33.692 13.8296ZM16.6038 24.7815C16.6038 29.7787 20.6694 33.8444 25.6667 33.8444C30.664 33.8444 34.7296 29.7787 34.7296 24.7815C34.7296 19.7842 30.6641 15.7185 25.6668 15.7185C20.6695 15.7185 16.6038 19.7841 16.6038 24.7815ZM33.1535 24.7815C33.1535 28.9097 29.7949 32.2682 25.6668 32.2682C21.5387 32.2682 18.1801 28.9097 18.1801 24.7815C18.1801 20.6532 21.5387 17.2947 25.6668 17.2947C29.7949 17.2947 33.1535 20.6532 33.1535 24.7815ZM24.6855 26.6248L29.2533 22.057C29.5611 21.7492 30.0601 21.7492 30.368 22.057C30.6757 22.3647 30.6757 22.8637 30.368 23.1715L25.2455 28.2941C25.0916 28.4479 24.8899 28.5249 24.6882 28.5249C24.4876 28.5249 24.2871 28.4489 24.1335 28.2967L21.3625 25.5511C21.0533 25.2447 21.0511 24.7457 21.3573 24.4365C21.664 24.1273 22.1626 24.1252 22.4719 24.4314L24.6855 26.6248ZM32.2113 2.25451C32.2117 2.24357 32.2125 2.23264 32.2133 2.2217C32.2143 2.20734 32.2154 2.19299 32.2173 2.17853C32.2188 2.16623 32.221 2.15392 32.2231 2.14162C32.2254 2.12883 32.2276 2.11603 32.2306 2.10324C32.2337 2.08937 32.2376 2.0756 32.2415 2.06183C32.2438 2.05373 32.2453 2.04562 32.2479 2.03762C32.249 2.0342 32.2506 2.03098 32.2518 2.02756C32.2563 2.01418 32.2615 2.00099 32.2667 1.98781C32.2714 1.97599 32.2759 1.96418 32.2811 1.95275C32.2824 1.94982 32.2833 1.9468 32.2847 1.94387C32.2885 1.93576 32.2932 1.92814 32.2973 1.92014C32.3039 1.90715 32.3105 1.89416 32.3177 1.88166C32.3228 1.87287 32.3284 1.86447 32.3339 1.85588C32.3425 1.8423 32.3511 1.82883 32.3604 1.81594C32.3657 1.80842 32.3717 1.80139 32.3772 1.79416C32.3874 1.78117 32.3976 1.76818 32.4085 1.75588C32.4147 1.74875 32.4215 1.74211 32.4281 1.73527C32.4391 1.72375 32.45 1.71232 32.4615 1.70158C32.4692 1.69435 32.4774 1.68771 32.4854 1.68078C32.4966 1.67121 32.5076 1.66174 32.5191 1.65285C32.5285 1.64572 32.5383 1.63908 32.5479 1.63234C32.5589 1.62463 32.5698 1.61691 32.5812 1.60978C32.5918 1.60324 32.6027 1.59719 32.6137 1.59113C32.625 1.58478 32.6362 1.57844 32.6479 1.57267C32.659 1.56711 32.6703 1.56223 32.6817 1.55724C32.6939 1.55187 32.7062 1.5465 32.7187 1.54172C32.7225 1.54025 32.7261 1.5384 32.7299 1.53703L36.8394 0.0472839C37.2482 -0.100763 37.7006 0.11037 37.8488 0.519647C37.9972 0.928827 37.7857 1.38078 37.3765 1.52912L35.2911 2.28508C39.3901 4.00353 42.9306 6.77814 45.6173 10.4003C48.8059 14.6989 50.4912 19.808 50.4912 25.1754C50.4912 31.8063 47.909 38.0403 43.2203 42.7289C38.5315 47.4177 32.2977 49.9999 25.6668 49.9999C20.8004 49.9999 16.0882 48.5921 12.0396 45.9286C11.6761 45.6895 11.5753 45.2007 11.8145 44.8371C12.0537 44.4736 12.5424 44.3728 12.906 44.6118C16.6964 47.1057 21.109 48.4237 25.6667 48.4237C38.4858 48.4237 48.915 37.9945 48.915 25.1754C48.915 15.5746 43.111 7.0965 34.3114 3.58683L35.2233 6.10226C35.3717 6.51144 35.1603 6.9634 34.751 7.11174C34.6624 7.14387 34.5716 7.1591 34.4824 7.1591C34.1602 7.1591 33.8577 6.95988 33.7415 6.63937L32.2577 2.54631C32.255 2.53879 32.2532 2.53117 32.2508 2.52365C32.2465 2.51047 32.2422 2.49728 32.2386 2.48391C32.2355 2.47287 32.2331 2.46183 32.2306 2.4508C32.2273 2.43654 32.2243 2.42238 32.2219 2.40793C32.2201 2.39748 32.2188 2.38693 32.2175 2.37639C32.2156 2.36135 32.2139 2.34631 32.2129 2.33107C32.2122 2.32072 32.2119 2.31037 32.2116 2.29992C32.211 2.28498 32.2109 2.26984 32.2113 2.25451ZM7.9002 42.5132C3.39248 37.8926 0.842285 31.6793 0.842285 25.1755C0.842285 18.5446 3.42441 12.3107 8.11318 7.62199C12.8019 2.93322 19.0359 0.350995 25.6668 0.350995C27.0371 0.350995 28.4119 0.463593 29.753 0.685858C30.1823 0.756952 30.4729 1.16271 30.4017 1.59211C30.3304 2.0217 29.9242 2.31203 29.4953 2.24074C28.2393 2.03264 26.9511 1.92717 25.6668 1.92717C12.8477 1.92717 2.41846 12.3563 2.41846 25.1755C2.41846 31.2965 4.83125 37.1421 9.09209 41.4761V38.9669C9.09209 38.5317 9.44492 38.1788 9.88018 38.1788C10.3154 38.1788 10.6683 38.5317 10.6683 38.9669V43.3014C10.6683 43.3048 10.6678 43.3081 10.6678 43.3116C10.6676 43.3268 10.6665 43.3419 10.6655 43.357C10.6647 43.368 10.6643 43.379 10.6631 43.3899C10.6614 43.4044 10.6589 43.419 10.6564 43.4334C10.6546 43.4445 10.653 43.4557 10.6508 43.4666C10.6479 43.4805 10.6439 43.4941 10.6402 43.5077C10.6372 43.5189 10.6346 43.5302 10.6311 43.5411C10.6269 43.5543 10.6217 43.5673 10.6167 43.5803C10.6125 43.5912 10.6087 43.6024 10.6041 43.6131C10.5987 43.6255 10.5924 43.6377 10.5863 43.6499C10.581 43.6608 10.5759 43.6718 10.57 43.6823C10.5639 43.6936 10.5567 43.7044 10.55 43.7153C10.5431 43.7265 10.5363 43.7377 10.5289 43.7485C10.5221 43.7583 10.5146 43.7679 10.5072 43.7775C10.4986 43.7887 10.4901 43.7999 10.4811 43.8107C10.4787 43.8135 10.4768 43.8165 10.4743 43.8193C10.4692 43.825 10.4636 43.83 10.4585 43.8356C10.4476 43.8474 10.4364 43.8591 10.4248 43.8702C10.4157 43.879 10.4063 43.8873 10.3969 43.8956C10.3863 43.9048 10.3755 43.9137 10.3645 43.9224C10.3539 43.9307 10.3432 43.9388 10.3322 43.9465C10.3214 43.9541 10.3102 43.9612 10.2989 43.9683C10.2875 43.9754 10.2762 43.9827 10.2645 43.9892C10.2524 43.9959 10.2399 44.002 10.2275 44.008C10.2162 44.0136 10.205 44.0195 10.1935 44.0244C10.1791 44.0307 10.1644 44.0359 10.1496 44.0412C10.1395 44.0449 10.1295 44.0491 10.1192 44.0524C10.1019 44.0579 10.084 44.0622 10.066 44.0665C10.0579 44.0685 10.0499 44.0711 10.0417 44.0728C10.0231 44.0767 10.0041 44.0791 9.98506 44.0817C9.97715 44.0827 9.96924 44.0845 9.96123 44.0853C9.9543 44.086 9.94727 44.0859 9.94023 44.0863C9.92021 44.0879 9.9001 44.0895 9.87998 44.0895C9.87959 44.0895 9.8792 44.0894 9.87871 44.0894L5.15185 44.0895C4.7166 44.0895 4.36377 43.7366 4.36377 43.3014C4.36377 42.8661 4.7166 42.5133 5.15185 42.5133L7.9002 42.5132Z" fill="url(#paint0_linear_689_823)"/>
</g>
<defs>
<linearGradient id="paint0_linear_689_823" x1="7.41025" y1="8.32492" x2="42.5173" y2="43.432" gradientUnits="userSpaceOnUse">
<stop stop-color="#FFEB00"/>
<stop offset="1" stop-color="#16423C"/>
</linearGradient>
<clipPath id="clip0_689_823">
<rect width="50" height="50" fill="white" transform="translate(0.666504)"/>
</clipPath>
</defs>
</svg>
