<svg width="36" height="41" viewBox="0 0 36 41" fill="none" xmlns="http://www.w3.org/2000/svg">
<path d="M29.3621 39.13C27.1571 41.2675 24.7496 40.93 22.4321 39.9175C19.9796 38.8825 17.7296 38.8375 15.1421 39.9175C11.9021 41.3125 10.1921 40.9075 8.25714 39.13C-2.72286 27.8125 -1.10286 10.5775 11.3621 9.9475C14.3996 10.105 16.5146 11.6125 18.2921 11.7475C20.9471 11.2075 23.4896 9.655 26.3246 9.8575C29.7221 10.1275 32.2871 11.4775 33.9746 13.9075C26.9546 18.115 28.6196 27.3625 35.0546 29.95C33.7721 33.325 32.1071 36.6775 29.3396 39.1525L29.3621 39.13ZM18.0671 9.8125C17.7296 4.795 21.8021 0.655 26.4821 0.25C27.1346 6.055 21.2171 10.375 18.0671 9.8125Z" fill="#FFEB00"/>
</svg>
