<svg width="20" height="26" viewBox="0 0 20 26" fill="none" xmlns="http://www.w3.org/2000/svg">
<path d="M16.6638 24.497C15.3716 25.8162 13.9606 25.6079 12.6024 24.983C11.1651 24.3442 9.84643 24.3164 8.32999 24.983C6.43114 25.844 5.42897 25.5941 4.29493 24.497C-2.14006 17.5117 -1.19063 6.8742 6.11466 6.48536C7.89483 6.58257 9.13436 7.513 10.1761 7.59633C11.7321 7.26303 13.2222 6.30482 14.8837 6.42981C16.8748 6.59645 18.3781 7.42968 19.3671 8.92949C15.2529 11.5264 16.2287 17.234 20 18.831C19.2484 20.9141 18.2726 22.9833 16.6506 24.5109L16.6638 24.497ZM10.0442 6.40203C9.84643 3.3052 12.2332 0.749968 14.976 0.5C15.3584 4.08288 11.8903 6.74921 10.0442 6.40203Z" fill="#FFEB00"/>
</svg>
