<svg width="50" height="50" viewBox="0 0 50 50" fill="none" xmlns="http://www.w3.org/2000/svg">
<path fill-rule="evenodd" clip-rule="evenodd" d="M20.8332 6.25033C20.8332 5.69779 20.6137 5.16789 20.223 4.77719C19.8323 4.38649 19.3024 4.16699 18.7498 4.16699C18.1973 4.16699 17.6674 4.38649 17.2767 4.77719C16.886 5.16789 16.6665 5.69779 16.6665 6.25033V10.417C16.6665 10.9695 16.886 11.4994 17.2767 11.8901C17.6674 12.2808 18.1973 12.5003 18.7498 12.5003C19.3024 12.5003 19.8323 12.2808 20.223 11.8901C20.6137 11.4994 20.8332 10.9695 20.8332 10.417V6.25033ZM11.3832 8.43783C11.191 8.23885 10.9611 8.08013 10.7069 7.97095C10.4528 7.86176 10.1794 7.80429 9.90276 7.80189C9.62613 7.79948 9.3518 7.8522 9.09577 7.95695C8.83973 8.0617 8.60712 8.21639 8.41151 8.412C8.2159 8.60761 8.06121 8.84022 7.95646 9.09625C7.85171 9.35229 7.79899 9.62662 7.8014 9.90324C7.8038 10.1799 7.86127 10.4532 7.97046 10.7074C8.07964 10.9616 8.23836 11.1915 8.43734 11.3837L11.3832 14.3337C11.5769 14.5274 11.8068 14.681 12.0599 14.7858C12.313 14.8907 12.5842 14.9446 12.8582 14.9446C13.1321 14.9446 13.4034 14.8907 13.6564 14.7858C13.9095 14.681 14.1395 14.5274 14.3332 14.3337C14.5269 14.14 14.6805 13.91 14.7853 13.6569C14.8902 13.4038 14.9441 13.1326 14.9441 12.8587C14.9441 12.5847 14.8902 12.3135 14.7853 12.0604C14.6805 11.8073 14.5269 11.5774 14.3332 11.3837L11.3832 8.43783ZM20.3978 17.1045C18.3603 16.4253 16.4248 18.3607 17.1019 20.3962L24.4623 42.4753C25.2061 44.7087 28.2957 44.8878 29.2936 42.7545L33.5748 33.5753L42.754 29.2941C44.8873 28.2982 44.7082 25.2066 42.4748 24.4628L20.3978 17.1045ZM29.0623 8.43783C29.4529 8.82851 29.6723 9.35832 29.6723 9.91074C29.6723 10.4632 29.4529 10.993 29.0623 11.3837L26.1165 14.3337C25.9229 14.5272 25.6931 14.6808 25.4402 14.7855C25.1873 14.8903 24.9163 14.9442 24.6425 14.9442C24.3688 14.9442 24.0977 14.8903 23.8448 14.7855C23.5919 14.6808 23.3622 14.5272 23.1686 14.3337C22.975 14.1401 22.8215 13.9103 22.7167 13.6574C22.612 13.4045 22.5581 13.1334 22.5581 12.8597C22.5581 12.586 22.612 12.3149 22.7167 12.062C22.8215 11.8091 22.975 11.5793 23.1686 11.3857L26.1165 8.43991C26.5072 8.04934 27.037 7.82994 27.5894 7.82994C28.1418 7.82994 28.6717 8.04726 29.0623 8.43783ZM4.1665 18.7503C4.1665 18.1978 4.386 17.6679 4.7767 17.2772C5.1674 16.8865 5.6973 16.667 6.24984 16.667H10.4165C10.969 16.667 11.4989 16.8865 11.8896 17.2772C12.2803 17.6679 12.4998 18.1978 12.4998 18.7503C12.4998 19.3029 12.2803 19.8328 11.8896 20.2235C11.4989 20.6142 10.969 20.8337 10.4165 20.8337H6.24984C5.6973 20.8337 5.1674 20.6142 4.7767 20.2235C4.386 19.8328 4.1665 19.3029 4.1665 18.7503ZM14.3311 26.117C14.5247 25.9234 14.6782 25.6936 14.7829 25.4407C14.8877 25.1878 14.9416 24.9168 14.9416 24.643C14.9416 24.3693 14.8877 24.0982 14.7829 23.8453C14.6782 23.5924 14.5247 23.3626 14.3311 23.1691C14.1375 22.9755 13.9077 22.822 13.6548 22.7172C13.4019 22.6125 13.1309 22.5585 12.8571 22.5585C12.5834 22.5585 12.3123 22.6125 12.0594 22.7172C11.8065 22.822 11.5767 22.9755 11.3832 23.1691L8.43734 26.117C8.23836 26.3092 8.07964 26.5391 7.97046 26.7932C7.86127 27.0474 7.8038 27.3208 7.8014 27.5974C7.79899 27.874 7.85171 28.1484 7.95646 28.4044C8.06121 28.6604 8.2159 28.893 8.41151 29.0886C8.60712 29.2843 8.83973 29.439 9.09577 29.5437C9.3518 29.6485 9.62613 29.7012 9.90276 29.6988C10.1794 29.6964 10.4528 29.6389 10.7069 29.5297C10.9611 29.4205 11.191 29.2618 11.3832 29.0628L14.3311 26.117Z" fill="white"/>
</svg>
