<svg width="13" height="8" viewBox="0 0 13 8" fill="none" xmlns="http://www.w3.org/2000/svg">
<path d="M1.14486 0.630906C1.30895 0.466868 1.53147 0.374718 1.76348 0.374718C1.9955 0.374718 2.21802 0.466868 2.38211 0.630906L6.71336 4.96216L11.0446 0.630906C11.2096 0.471518 11.4307 0.383322 11.6601 0.385316C11.8895 0.38731 12.109 0.479332 12.2712 0.641564C12.4334 0.803796 12.5255 1.02326 12.5274 1.25268C12.5294 1.4821 12.4412 1.70313 12.2819 1.86816L7.33198 6.81803C7.1679 6.98207 6.94538 7.07422 6.71336 7.07422C6.48134 7.07422 6.25882 6.98207 6.09474 6.81803L1.14486 1.86816C0.980823 1.70407 0.888672 1.48155 0.888672 1.24953C0.888672 1.01751 0.980823 0.794992 1.14486 0.630906Z" fill="black"/>
</svg>
