<svg width="13" height="8" viewBox="0 0 13 8" fill="none" xmlns="http://www.w3.org/2000/svg">
<path d="M0.636637 0.730639C0.79778 0.563709 1.01862 0.467614 1.25061 0.463486C1.48259 0.459359 1.70671 0.547536 1.87369 0.708628L6.28131 4.96214L10.5348 0.554521C10.697 0.392223 10.9164 0.300109 11.1458 0.298021C11.3753 0.295933 11.5963 0.384037 11.7614 0.543357C11.9265 0.702677 12.0224 0.920467 12.0285 1.14982C12.0346 1.37917 11.9503 1.60173 11.7939 1.76956L6.93285 6.80672C6.77171 6.97365 6.55087 7.06974 6.31888 7.07387C6.0869 7.078 5.86278 6.98982 5.6958 6.82873L0.658648 1.96769C0.491718 1.80655 0.395623 1.58571 0.391495 1.35372C0.387368 1.12174 0.475545 0.897618 0.636637 0.730639Z" fill="#2E5077"/>
</svg>
