<svg width="10" height="5" viewBox="0 0 10 5" fill="none" xmlns="http://www.w3.org/2000/svg">
<path d="M1.08107 0.379115C1.19617 0.259879 1.35391 0.19124 1.51962 0.188292C1.68532 0.185344 1.84541 0.248328 1.96468 0.363393L5.11297 3.40162L8.1512 0.253317C8.26703 0.137389 8.42376 0.0715941 8.58763 0.0701024C8.75151 0.0686107 8.90941 0.131542 9.02733 0.245342C9.14525 0.359142 9.21376 0.514707 9.2181 0.678528C9.22244 0.84235 9.16226 1.00132 9.05053 1.1212L5.57836 4.71917C5.46326 4.83841 5.30551 4.90704 5.13981 4.90999C4.97411 4.91294 4.81402 4.84996 4.69475 4.73489L1.09679 1.26273C0.977552 1.14762 0.908913 0.989877 0.905965 0.824176C0.903016 0.658475 0.966001 0.498386 1.08107 0.379115Z" fill="black"/>
</svg>
