<svg width="11" height="8" viewBox="0 0 11 8" fill="none" xmlns="http://www.w3.org/2000/svg">
<path d="M1.25029 0.499947H10.2503C10.3414 0.500232 10.4307 0.525364 10.5086 0.572636C10.5865 0.619907 10.6501 0.687529 10.6924 0.768223C10.7347 0.848917 10.7542 0.939627 10.7488 1.03059C10.7434 1.12155 10.7134 1.20932 10.6618 1.28445L6.16179 7.78445C5.97529 8.05395 5.52629 8.05395 5.33929 7.78445L0.839287 1.28445C0.787199 1.20948 0.756654 1.12166 0.750969 1.03055C0.745285 0.939436 0.764679 0.848508 0.807044 0.767643C0.849409 0.686779 0.913125 0.61907 0.991269 0.571875C1.06941 0.52468 1.159 0.499803 1.25029 0.499947Z" fill="#E00A00"/>
</svg>
