<svg width="15" height="15" viewBox="0 0 15 15" fill="none" xmlns="http://www.w3.org/2000/svg">
<path d="M6.65023 1.01076C6.4493 0.771885 6.17683 0.637695 5.89272 0.637695C5.60861 0.637695 5.33613 0.771885 5.13521 1.01076L0.313705 6.74455C0.112841 6.98349 9.53674e-07 7.30752 9.53674e-07 7.64539C9.53674e-07 7.98325 0.112841 8.30729 0.313705 8.54623L5.13521 14.28C5.33728 14.5121 5.60793 14.6405 5.88886 14.6376C6.16979 14.6347 6.43852 14.5007 6.63718 14.2645C6.83583 14.0283 6.94851 13.7087 6.95096 13.3746C6.9534 13.0405 6.8454 12.7186 6.65023 12.4783L3.74983 8.91956H13.9286C14.2127 8.91956 14.4852 8.78532 14.6862 8.54637C14.8871 8.30741 15 7.98332 15 7.64539C15 7.30746 14.8871 6.98336 14.6862 6.74441C14.4852 6.50546 14.2127 6.37121 13.9286 6.37121H3.74983L6.65023 2.81244C6.8511 2.5735 6.96393 2.24946 6.96393 1.9116C6.96393 1.57373 6.8511 1.2497 6.65023 1.01076Z" fill="white"/>
</svg>
