<svg width="15" height="16" viewBox="0 0 15 16" fill="none" xmlns="http://www.w3.org/2000/svg">
<path d="M1.63664 5.73064C1.79778 5.56371 2.01862 5.46761 2.25061 5.46349C2.48259 5.45936 2.70671 5.54754 2.87369 5.70863L7.28131 9.96214L11.5348 5.55452C11.697 5.39222 11.9164 5.30011 12.1458 5.29802C12.3753 5.29593 12.5963 5.38404 12.7614 5.54336C12.9265 5.70268 13.0224 5.92047 13.0285 6.14982C13.0346 6.37917 12.9503 6.60173 12.7939 6.76956L7.93285 11.8067C7.77171 11.9736 7.55087 12.0697 7.31888 12.0739C7.0869 12.078 6.86278 11.9898 6.6958 11.8287L1.65865 6.96769C1.49172 6.80655 1.39562 6.58571 1.3915 6.35372C1.38737 6.12174 1.47555 5.89762 1.63664 5.73064Z" fill="#79D7BE"/>
</svg>
