<svg width="11" height="12" viewBox="0 0 11 12" fill="none" xmlns="http://www.w3.org/2000/svg">
<g clip-path="url(#clip0_256_648)">
<path d="M1.08107 4.37948C1.19617 4.26025 1.35391 4.19161 1.51962 4.18866C1.68532 4.18571 1.84541 4.24869 1.96468 4.36376L5.11297 7.40198L8.1512 4.25368C8.26703 4.13776 8.42376 4.07196 8.58763 4.07047C8.75151 4.06898 8.90941 4.13191 9.02733 4.24571C9.14525 4.35951 9.21376 4.51507 9.2181 4.67889C9.22244 4.84272 9.16226 5.00169 9.05053 5.12157L5.57836 8.71954C5.46326 8.83877 5.30551 8.90741 5.13981 8.91036C4.97411 8.91331 4.81402 8.85032 4.69475 8.73526L1.09679 5.26309C0.977552 5.14799 0.908913 4.99024 0.905965 4.82454C0.903016 4.65884 0.966001 4.49875 1.08107 4.37948Z" fill="#A6A6A6"/>
</g>
<defs>
<clipPath id="clip0_256_648">
<rect width="10" height="10" fill="white" transform="matrix(0.999842 -0.0177901 -0.0177901 -0.999842 0.177734 11.0884)"/>
</clipPath>
</defs>
</svg>
