<svg width="15" height="15" viewBox="0 0 15 15" fill="none" xmlns="http://www.w3.org/2000/svg">
<path d="M8.34977 1.01076C8.5507 0.771885 8.82317 0.637695 9.10728 0.637695C9.39139 0.637695 9.66387 0.771885 9.86479 1.01076L14.6863 6.74455C14.8872 6.98349 15 7.30752 15 7.64539C15 7.98325 14.8872 8.30729 14.6863 8.54623L9.86479 14.28C9.66272 14.5121 9.39207 14.6405 9.11114 14.6376C8.83021 14.6347 8.56148 14.5007 8.36282 14.2645C8.16417 14.0283 8.05149 13.7087 8.04904 13.3746C8.0466 13.0405 8.1546 12.7186 8.34977 12.4783L11.2502 8.91956H1.07144C0.78728 8.91956 0.514754 8.78532 0.313819 8.54637C0.112884 8.30741 0 7.98332 0 7.64539C0 7.30746 0.112884 6.98336 0.313819 6.74441C0.514754 6.50546 0.78728 6.37121 1.07144 6.37121H11.2502L8.34977 2.81244C8.1489 2.5735 8.03607 2.24946 8.03607 1.9116C8.03607 1.57373 8.1489 1.2497 8.34977 1.01076Z" fill="white"/>
</svg>
