<svg width="41" height="46" viewBox="0 0 41 46" fill="none" xmlns="http://www.w3.org/2000/svg">
<path fill-rule="evenodd" clip-rule="evenodd" d="M16.8332 2.25033C16.8332 1.69779 16.6137 1.16789 16.223 0.777186C15.8323 0.386486 15.3024 0.166992 14.7498 0.166992C14.1973 0.166992 13.6674 0.386486 13.2767 0.777186C12.886 1.16789 12.6665 1.69779 12.6665 2.25033V6.41699C12.6665 6.96953 12.886 7.49943 13.2767 7.89013C13.6674 8.28083 14.1973 8.50033 14.7498 8.50033C15.3024 8.50033 15.8323 8.28083 16.223 7.89013C16.6137 7.49943 16.8332 6.96953 16.8332 6.41699V2.25033ZM7.38317 4.43783C7.19099 4.23885 6.9611 4.08013 6.70693 3.97095C6.45275 3.86176 6.17938 3.80429 5.90276 3.80189C5.62613 3.79948 5.3518 3.8522 5.09577 3.95695C4.83973 4.0617 4.60712 4.21639 4.41151 4.412C4.2159 4.60761 4.06121 4.84022 3.95646 5.09625C3.85171 5.35229 3.79899 5.62662 3.8014 5.90324C3.8038 6.17987 3.86127 6.45324 3.97046 6.70742C4.07964 6.96159 4.23836 7.19148 4.43734 7.38366L7.38317 10.3337C7.57687 10.5274 7.80683 10.681 8.05991 10.7858C8.31299 10.8907 8.58424 10.9446 8.85817 10.9446C9.1321 10.9446 9.40335 10.8907 9.65643 10.7858C9.90952 10.681 10.1395 10.5274 10.3332 10.3337C10.5269 10.14 10.6805 9.91 10.7853 9.65692C10.8902 9.40384 10.9441 9.13259 10.9441 8.85866C10.9441 8.58473 10.8902 8.31348 10.7853 8.06039C10.6805 7.80731 10.5269 7.57736 10.3332 7.38366L7.38317 4.43783ZM16.3978 13.1045C14.3603 12.4253 12.4248 14.3607 13.1019 16.3962L20.4623 38.4753C21.2061 40.7087 24.2957 40.8878 25.2936 38.7545L29.5748 29.5753L38.754 25.2941C40.8873 24.2982 40.7082 21.2066 38.4748 20.4628L16.3978 13.1045ZM25.0623 4.43783C25.4529 4.82851 25.6723 5.35832 25.6723 5.91074C25.6723 6.46317 25.4529 6.99298 25.0623 7.38366L22.1165 10.3337C21.9229 10.5272 21.6931 10.6808 21.4402 10.7855C21.1873 10.8903 20.9163 10.9442 20.6425 10.9442C20.3688 10.9442 20.0977 10.8903 19.8448 10.7855C19.5919 10.6808 19.3622 10.5272 19.1686 10.3337C18.975 10.1401 18.8215 9.9103 18.7167 9.6574C18.612 9.4045 18.5581 9.13344 18.5581 8.8597C18.5581 8.58596 18.612 8.3149 18.7167 8.062C18.8215 7.8091 18.975 7.57931 19.1686 7.38574L22.1165 4.43991C22.5072 4.04934 23.037 3.82994 23.5894 3.82994C24.1418 3.82994 24.6717 4.04726 25.0623 4.43783ZM0.166504 14.7503C0.166504 14.1978 0.385997 13.6679 0.776698 13.2772C1.1674 12.8865 1.6973 12.667 2.24984 12.667H6.4165C6.96904 12.667 7.49894 12.8865 7.88964 13.2772C8.28034 13.6679 8.49984 14.1978 8.49984 14.7503C8.49984 15.3029 8.28034 15.8328 7.88964 16.2235C7.49894 16.6142 6.96904 16.8337 6.4165 16.8337H2.24984C1.6973 16.8337 1.1674 16.6142 0.776698 16.2235C0.385997 15.8328 0.166504 15.3029 0.166504 14.7503ZM10.3311 22.117C10.5247 21.9234 10.6782 21.6936 10.7829 21.4407C10.8877 21.1878 10.9416 20.9168 10.9416 20.643C10.9416 20.3693 10.8877 20.0982 10.7829 19.8453C10.6782 19.5924 10.5247 19.3626 10.3311 19.1691C10.1375 18.9755 9.90773 18.822 9.65483 18.7172C9.40193 18.6125 9.13087 18.5585 8.85713 18.5585C8.58339 18.5585 8.31233 18.6125 8.05943 18.7172C7.80653 18.822 7.57673 18.9755 7.38317 19.1691L4.43734 22.117C4.23836 22.3092 4.07964 22.5391 3.97046 22.7932C3.86127 23.0474 3.8038 23.3208 3.8014 23.5974C3.79899 23.874 3.85171 24.1484 3.95646 24.4044C4.06121 24.6604 4.2159 24.893 4.41151 25.0886C4.60712 25.2843 4.83973 25.439 5.09577 25.5437C5.3518 25.6485 5.62613 25.7012 5.90276 25.6988C6.17938 25.6964 6.45275 25.6389 6.70693 25.5297C6.9611 25.4205 7.19099 25.2618 7.38317 25.0628L10.3311 22.117Z" fill="black"/>
</svg>
