<svg width="9" height="5" viewBox="0 0 9 5" fill="none" xmlns="http://www.w3.org/2000/svg">
<path d="M0.71925 4.63858C0.834352 4.75782 0.992098 4.82646 1.1578 4.82941C1.3235 4.83236 1.48359 4.76937 1.60286 4.65431L4.75116 1.61608L7.78938 4.76438C7.90521 4.88031 8.06194 4.94611 8.22582 4.9476C8.38969 4.94909 8.54759 4.88616 8.66551 4.77236C8.78344 4.65856 8.85195 4.50299 8.85628 4.33917C8.86062 4.17535 8.80045 4.01638 8.68871 3.8965L5.21655 0.298531C5.10144 0.179295 4.9437 0.110655 4.778 0.107707C4.6123 0.104759 4.45221 0.167743 4.33294 0.282809L0.734972 3.75497C0.615736 3.87008 0.547097 4.02782 0.544148 4.19352C0.5412 4.35923 0.604184 4.51931 0.71925 4.63858Z" fill="#5BDC7F"/>
</svg>
