<svg width="302" height="415" viewBox="0 0 302 415" fill="none" xmlns="http://www.w3.org/2000/svg">
<path d="M103.057 111.352L104.562 108.214L97.982 104.4C97.2041 103.948 96.3704 103.599 95.5021 103.364C95.1975 103.285 94.8928 103.218 94.5821 103.163C93.0446 102.909 91.4726 102.952 89.9514 103.291C89.3866 103.408 88.8292 103.559 88.282 103.742C87.6962 103.931 87.1206 104.151 86.5576 104.4C85.7974 104.737 85.0569 105.117 84.3398 105.539C83.5432 106.003 82.7723 106.509 82.0306 107.056C81.4578 107.47 80.8973 107.915 80.3367 108.384C72.1721 115.294 65.7745 127.583 64.1172 139.404C64.0014 140.208 63.9161 141.006 63.8491 141.804C63.7516 142.95 63.709 144.083 63.709 145.198C63.709 146.118 63.7516 147.026 63.8187 147.861C63.8796 148.604 63.9649 149.323 64.0685 150.018C64.172 150.712 64.3061 151.37 64.4584 152.016C64.8627 153.787 65.5107 155.493 66.3838 157.086C66.5605 157.402 66.7433 157.695 66.9383 158C67.7168 159.212 68.7026 160.279 69.8507 161.15C70.1954 161.402 70.5534 161.636 70.9231 161.85L77.144 165.439L78.521 162.569C78.8866 162.49 79.2522 162.393 79.6238 162.283C81.1383 161.816 82.5924 161.171 83.9559 160.364C84.8327 159.847 85.6808 159.284 86.4967 158.676C87.5919 157.855 88.6339 156.966 89.6163 156.013C96.4344 149.451 101.802 139.19 103.77 128.973C104.062 127.473 104.277 125.96 104.416 124.439C104.526 123.184 104.587 121.941 104.581 120.717C104.581 118.947 104.436 117.18 104.148 115.434C103.909 114.043 103.544 112.677 103.057 111.352Z" fill="#16423C"/>
<path opacity="0.25" d="M65.6162 132.427L78.9659 140.135L80.7207 135.053L67.3588 127.328C66.6947 128.997 66.1097 130.697 65.6162 132.427Z" fill="white"/>
<path opacity="0.25" d="M97.9816 104.4C97.2037 103.948 96.37 103.599 95.5018 103.364C95.1971 103.285 94.8925 103.218 94.5818 103.163C93.0442 102.909 91.4723 102.952 89.9511 103.291L89.3418 103.437L103.075 111.358C103.075 111.358 103.075 111.358 103.075 111.327L104.58 108.189L97.9816 104.4Z" fill="white"/>
<path opacity="0.25" d="M96.5567 123.897L98.3115 121.783L78.2961 110.273C77.6624 110.903 77.0409 111.565 76.4316 112.26L96.5567 123.897Z" fill="white"/>
<path opacity="0.25" d="M72.1787 117.92L89.5376 127.931L91.4447 122.94L75.2983 113.618C74.182 114.995 73.1406 116.431 72.1787 117.92Z" fill="white"/>
<path opacity="0.4" d="M97.9821 104.4C97.2042 103.948 96.3705 103.599 95.5023 103.364C95.1976 103.285 94.893 103.218 94.5822 103.163C93.0447 102.909 91.4727 102.952 89.9516 103.291C89.3868 103.408 88.8293 103.559 88.2821 103.742C87.6963 103.931 87.1208 104.151 86.5578 104.4C85.7975 104.737 85.057 105.117 84.3399 105.539C83.5433 106.003 82.7724 106.509 82.0307 107.056C81.458 107.47 80.8974 107.915 80.3369 108.384C72.7328 114.806 66.6398 125.908 64.4951 136.948L92.34 153.028C98.0758 146.073 101.989 137.8 103.728 128.954C104.019 127.455 104.235 125.942 104.374 124.421C104.483 123.166 104.544 121.923 104.538 120.698C104.539 118.929 104.394 117.162 104.106 115.416C103.872 114.025 103.513 112.659 103.033 111.333L104.538 108.196L97.9821 104.4Z" fill="white"/>
<path opacity="0.1" d="M77.1257 165.439L78.5027 162.569C78.8683 162.49 79.2339 162.393 79.6056 162.283C81.12 161.816 82.5741 161.172 83.9377 160.364C84.8144 159.847 85.6625 159.284 86.4784 158.676C87.5737 157.856 88.6156 156.966 89.598 156.013C90.5709 155.073 91.4942 154.082 92.3642 153.046L64.5194 136.967C64.3609 137.777 64.2269 138.594 64.1172 139.404C64.0075 140.214 63.9161 141.006 63.8491 141.805C63.7516 142.95 63.709 144.083 63.709 145.198C63.709 146.118 63.7516 147.026 63.8187 147.861C63.8796 148.604 63.9649 149.323 64.0685 150.018C64.172 150.713 64.3061 151.371 64.4584 152.016C64.8627 153.787 65.5107 155.493 66.3838 157.086C66.5605 157.403 66.7433 157.695 66.9383 158C67.7168 159.212 68.7026 160.279 69.8507 161.15C70.1954 161.402 70.5534 161.636 70.9231 161.851L77.1257 165.439Z" fill="black"/>
<path opacity="0.1" d="M66.3843 157.086C66.561 157.402 66.7438 157.695 66.9388 157.999C67.7173 159.212 68.7031 160.279 69.8512 161.15C70.1959 161.402 70.5539 161.636 70.9236 161.85L77.1445 165.439L78.5215 162.569H78.5763L78.6738 161.393L64.8428 153.405C65.2236 154.684 65.7404 155.917 66.3843 157.086Z" fill="black"/>
<path d="M111.161 119.492C110.877 117.687 110.367 115.924 109.644 114.246C108.766 112.156 107.377 110.321 105.604 108.908C104.517 108.072 103.274 107.461 101.948 107.111C101.644 107.032 101.339 106.965 101.022 106.91C99.4848 106.656 97.9128 106.699 96.3917 107.038C95.8272 107.157 95.2699 107.308 94.7222 107.489C94.1368 107.679 93.5613 107.899 92.9979 108.147C92.244 108.481 91.5096 108.857 90.7983 109.274C89.9984 109.735 89.2253 110.242 88.483 110.791C87.9163 111.205 87.3497 111.65 86.7952 112.119C78.6306 119.011 72.1721 131.3 70.5696 143.12C70.46 143.925 70.3686 144.723 70.3076 145.521C70.2102 146.66 70.1614 147.8 70.1675 148.915C70.1675 149.835 70.2041 150.743 70.2772 151.577C70.3381 152.321 70.4173 153.04 70.527 153.734C70.6367 154.429 70.7646 155.087 70.9169 155.733C71.3099 157.504 71.952 159.211 72.824 160.802C73.0028 161.119 73.1856 161.424 73.3724 161.716C74.153 162.929 75.1409 163.995 76.2909 164.866C77.9575 166.115 79.962 166.833 82.0427 166.926C83.6001 166.996 85.1576 166.79 86.6429 166.316C88.158 165.851 89.6122 165.206 90.975 164.397C91.8531 163.883 92.7014 163.319 93.5158 162.709C94.611 161.889 95.653 160.999 96.6354 160.047C103.453 153.491 108.821 143.224 110.789 133.006C111.079 131.507 111.292 129.994 111.429 128.473C111.545 127.254 111.6 125.975 111.6 124.75C111.6 122.988 111.453 121.229 111.161 119.492Z" fill="#16423C"/>
<path opacity="0.05" d="M70.9779 140.677C70.8195 141.494 70.6854 142.316 70.5696 143.114C70.4539 143.912 70.3686 144.717 70.3076 145.515C70.2102 146.654 70.1614 147.794 70.1675 148.909C70.1675 149.829 70.2041 150.737 70.2772 151.571C70.3381 152.315 70.4173 153.034 70.527 153.728C70.6367 154.423 70.7646 155.081 70.9169 155.727C71.3099 157.498 71.952 159.205 72.824 160.796C73.0028 161.113 73.1856 161.418 73.3724 161.71C74.153 162.923 75.1409 163.989 76.2909 164.86C77.9575 166.109 79.962 166.827 82.0427 166.92C83.6001 166.99 85.1576 166.784 86.6429 166.31C88.158 165.845 89.6122 165.2 90.975 164.391C91.7366 163.946 92.4922 163.44 93.2355 162.904L70.9779 140.677Z" fill="black"/>
<path opacity="0.05" d="M71.3008 157.177C71.6761 158.447 72.1868 159.672 72.824 160.833C73.0028 161.149 73.1855 161.454 73.3724 161.747C74.153 162.96 75.1409 164.026 76.2909 164.897C77.658 165.92 79.2574 166.587 80.946 166.84L71.3008 157.177Z" fill="black"/>
<path opacity="0.1" d="M73.8119 131.062C73.1478 132.732 72.5933 134.432 72.0693 136.144L96.3072 160.382L96.6362 160.071C97.6858 159.056 98.6784 157.984 99.6096 156.86L73.8119 131.062Z" fill="white"/>
<path opacity="0.1" d="M81.732 117.347C80.6218 118.723 79.5885 120.159 78.6367 121.649L105.312 148.33C106.177 146.703 106.969 145.015 107.682 143.297L81.732 117.347Z" fill="white"/>
<path opacity="0.1" d="M84.7607 113.996C84.1514 114.605 83.4933 115.3 82.8779 115.994L108.383 141.5C108.741 140.549 109.074 139.586 109.382 138.612L84.7607 113.996Z" fill="white"/>
<path opacity="0.1" d="M111.54 122.928C111.54 122.435 111.473 121.953 111.424 121.478C111.424 121.326 111.424 121.167 111.375 121.009L111.32 120.528C111.272 120.18 111.223 119.833 111.162 119.492C110.878 117.687 110.368 115.924 109.645 114.246C108.767 112.156 107.378 110.321 105.605 108.908C104.518 108.072 103.275 107.461 101.949 107.111C101.645 107.032 101.34 106.965 101.023 106.91C99.4856 106.656 97.9137 106.699 96.3925 107.038L95.7832 107.184L111.54 122.928Z" fill="white"/>
<path d="M106.317 127.943C106.317 138.843 99.9625 151.437 91.9197 156.787C91.5785 157.019 91.2312 157.232 90.8839 157.433C82.3538 162.356 75.4443 157.134 75.4443 145.765C75.4443 134.395 82.3538 121.192 90.8839 116.269C91.2312 116.074 91.5785 115.885 91.9197 115.72C99.9625 111.784 106.317 117.036 106.317 127.943Z" fill="#16423C"/>
<path opacity="0.4" d="M106.317 127.943C106.317 138.843 99.9625 151.437 91.9197 156.787C91.5785 157.019 91.2312 157.232 90.8839 157.433C82.3538 162.356 75.4443 157.134 75.4443 145.765C75.4443 134.395 82.3538 121.192 90.8839 116.269C91.2312 116.074 91.5785 115.885 91.9197 115.72C99.9625 111.784 106.317 117.036 106.317 127.943Z" fill="black"/>
<path d="M105.635 128.339C105.635 128.692 105.635 129.046 105.635 129.399C105.245 139.562 99.3227 150.956 91.8953 155.903L91.6943 156.037C91.4323 156.202 91.1703 156.366 90.9083 156.519C89.4868 157.377 87.912 157.95 86.2715 158.207C82.8107 158.676 79.9165 157.159 78.1252 154.057C76.9559 151.899 76.2933 149.503 76.1876 147.05C76.1511 146.514 76.1328 145.966 76.1328 145.393C76.1328 144.82 76.1328 144.351 76.1816 143.821C76.2459 142.698 76.3699 141.58 76.5532 140.47C77.8571 132.616 82.0369 124.628 87.3744 119.803C88.1115 119.129 88.8954 118.508 89.7201 117.944C90.104 117.682 90.494 117.438 90.8839 117.213C91.2739 116.988 91.548 116.847 91.871 116.683L92.1452 116.555C94.0229 115.597 96.1558 115.257 98.2381 115.586C101.346 116.195 103.722 118.633 104.886 122.611C105.401 124.476 105.653 126.404 105.635 128.339Z" fill="#16423C"/>
<path opacity="0.5" d="M105.635 128.339C105.635 128.692 105.635 129.046 105.635 129.399C105.245 139.562 99.3227 150.956 91.8953 155.903L91.6943 156.037C91.4323 156.202 91.1703 156.366 90.9083 156.519C89.4868 157.377 87.912 157.95 86.2715 158.207C82.8107 158.676 79.9165 157.159 78.1252 154.057C76.9559 151.899 76.2933 149.503 76.1876 147.05C76.1511 146.514 76.1328 145.966 76.1328 145.393C76.1328 144.82 76.1328 144.351 76.1816 143.821C76.2459 142.698 76.3699 141.58 76.5532 140.47C77.8571 132.616 82.0369 124.628 87.3744 119.803C88.1115 119.129 88.8954 118.508 89.7201 117.944C90.104 117.682 90.494 117.438 90.8839 117.213C91.2739 116.988 91.548 116.847 91.871 116.683L92.1452 116.555C94.0229 115.597 96.1558 115.257 98.2381 115.586C101.346 116.195 103.722 118.633 104.886 122.611C105.401 124.476 105.653 126.404 105.635 128.339Z" fill="black"/>
<path d="M103.161 127.98C103.161 127.62 103.161 127.267 103.161 126.913C103.183 124.971 102.933 123.035 102.418 121.162C101.909 119.122 100.821 117.273 99.2862 115.836C98.9523 115.719 98.6102 115.628 98.2625 115.562C96.1802 115.233 94.0473 115.573 92.1696 116.531L91.8954 116.659C91.5724 116.823 91.2373 116.994 90.9083 117.189C90.5793 117.384 90.1284 117.658 89.7446 117.92C88.9198 118.483 88.1359 119.104 87.3988 119.778C82.0674 124.586 77.8815 132.574 76.5776 140.446C76.3944 141.555 76.2703 142.674 76.206 143.797C76.1694 144.327 76.1572 144.851 76.1572 145.369C76.1572 145.887 76.1572 146.49 76.2121 147.026C76.3065 149.485 76.9609 151.89 78.1253 154.058C78.6335 154.956 79.2884 155.763 80.0628 156.446C81.272 156.852 82.5602 156.967 83.8222 156.781C85.4622 156.527 87.037 155.955 88.4589 155.099C88.7209 154.947 88.989 154.783 89.2449 154.612L89.446 154.478C96.849 149.537 102.771 138.143 103.161 127.98Z" fill="#16423C"/>
<path opacity="0.25" d="M103.161 127.98C103.161 127.62 103.161 127.267 103.161 126.913C103.183 124.971 102.933 123.035 102.418 121.162C101.909 119.122 100.821 117.273 99.2862 115.836C98.9523 115.719 98.6102 115.628 98.2625 115.562C96.1802 115.233 94.0473 115.573 92.1696 116.531L91.8954 116.659C91.5724 116.823 91.2373 116.994 90.9083 117.189C90.5793 117.384 90.1284 117.658 89.7446 117.92C88.9198 118.483 88.1359 119.104 87.3988 119.778C82.0674 124.586 77.8815 132.574 76.5776 140.446C76.3944 141.555 76.2703 142.674 76.206 143.797C76.1694 144.327 76.1572 144.851 76.1572 145.369C76.1572 145.887 76.1572 146.49 76.2121 147.026C76.3065 149.485 76.9609 151.89 78.1253 154.058C78.6335 154.956 79.2884 155.763 80.0628 156.446C81.272 156.852 82.5602 156.967 83.8222 156.781C85.4622 156.527 87.037 155.955 88.4589 155.099C88.7209 154.947 88.989 154.783 89.2449 154.612L89.446 154.478C96.849 149.537 102.771 138.143 103.161 127.98Z" fill="black"/>
<path d="M101.035 106.91C92.121 105.905 84.8703 113.289 80.0325 119.925C73.0439 130.228 68.6143 143.273 71.0332 155.745C71.8253 159.212 73.4095 162.697 76.2975 164.885C73.3485 162.722 71.6364 159.243 70.8139 155.745C68.5838 145.533 71.3866 134.804 76.0599 125.67C81.05 116.653 89.5376 105.679 101.035 106.91Z" fill="#F5F5F5"/>
<path opacity="0.35" d="M94.2903 131.075L91.3291 129.363L97.0565 124.476L100.018 126.188L94.2903 131.075Z" fill="black"/>
<path opacity="0.35" d="M96.1123 132.202C94.5951 131.13 91.9691 131.94 89.739 132.641C89.2029 132.823 88.7215 132.982 88.2828 133.116C88.144 133.444 88.0695 133.796 88.0635 134.152C88.0635 135.876 89.5258 135.37 92.7063 134.359C93.7785 133.991 94.8761 133.702 95.9904 133.494C96.0879 134.371 96.6972 135.169 99.0735 133.914L96.1123 132.202Z" fill="black"/>
<path opacity="0.45" d="M88.7766 154.661L85.8154 152.949V149.451L88.7766 151.163V154.661Z" fill="black"/>
<path opacity="0.35" d="M93.8035 141.384C93.8035 142.773 92.7616 144.016 91.214 144.918C88.7768 146.35 87.7836 145.18 87.5582 144.04L87.0342 143.736C87.4606 143.61 87.8699 143.432 88.2528 143.206C89.3248 142.657 90.1749 141.755 90.6595 140.653C92.4752 140.056 93.8035 139.824 93.8035 141.384Z" fill="black"/>
<path opacity="0.35" d="M82.7806 149.957C82.4544 149.766 82.0795 149.675 81.7021 149.695C81.6385 149.513 81.5856 149.328 81.5437 149.141L78.5703 147.428C78.6502 147.944 78.8395 148.436 79.1253 148.872C79.4112 149.308 79.787 149.678 80.2276 149.957L83.1827 151.669C83.3223 151.381 83.3586 151.053 83.2853 150.742C83.2121 150.43 83.0339 150.153 82.7806 149.957Z" fill="black"/>
<path d="M92.706 134.359C89.5255 135.401 88.0632 135.876 88.0632 134.152C88.0692 133.796 88.1437 133.444 88.2825 133.116C86.1134 133.786 85.102 133.871 85.102 132.44C85.102 131.386 85.8149 130.088 87.7768 128.948C89.8667 127.73 91.0365 128.016 91.329 129.363L97.0564 124.488C97.0564 124.415 97.0077 124.348 96.9772 124.275C97.3341 124.197 97.6772 124.066 97.9947 123.885L95.6306 122.472L95.4052 122.337H95.3686C94.6712 121.998 93.89 121.869 93.1203 121.966C92.094 122.077 91.091 122.346 90.147 122.764V122.679L93.1082 120.954L90.147 119.267L88.1424 120.436L85.4249 122.015V125.506C81.4096 128.43 78.9054 132.245 78.9054 136.376C78.9054 138.252 79.4111 139.319 80.2337 139.861H80.2703C80.3407 139.906 80.414 139.947 80.4896 139.983L82.9694 141.378C83.0377 141.009 82.9909 140.629 82.8354 140.287C83.6225 140.187 84.3993 140.018 85.1568 139.782C88.1667 138.874 90.8416 137.442 90.8416 139.672C90.8429 140.008 90.7808 140.34 90.6588 140.653C92.4867 140.044 93.8028 139.824 93.8028 141.384C93.8028 142.773 92.7609 144.016 91.2132 144.918C88.776 146.35 87.7829 145.18 87.5575 144.041L87.0335 143.736L84.5963 142.329L78.5703 147.428L81.5315 149.14C81.6255 149.577 81.7771 149.999 81.9824 150.396C83.3075 150.349 84.6084 150.027 85.8027 149.451V150.865L90.4821 150.225V146.734C94.54 143.742 97.3367 139.715 97.3367 135.504C97.3609 134.787 97.2471 134.071 97.0016 133.396C95.5335 133.526 94.089 133.85 92.706 134.359Z" fill="#16423C"/>
<path opacity="0.15" d="M92.706 134.359C89.5255 135.401 88.0632 135.876 88.0632 134.152C88.0692 133.796 88.1437 133.444 88.2825 133.116C86.1134 133.786 85.102 133.871 85.102 132.44C85.102 131.386 85.8149 130.088 87.7768 128.948C89.8667 127.73 91.0365 128.016 91.329 129.363L97.0564 124.488C97.0564 124.415 97.0077 124.348 96.9772 124.275C97.3341 124.197 97.6772 124.066 97.9947 123.885L95.6306 122.472L95.4052 122.337H95.3686C94.6712 121.998 93.89 121.869 93.1203 121.966C92.094 122.077 91.091 122.346 90.147 122.764V122.679L93.1082 120.954L90.147 119.267L88.1424 120.436L85.4249 122.015V125.506C81.4096 128.43 78.9054 132.245 78.9054 136.376C78.9054 138.252 79.4111 139.319 80.2337 139.861H80.2703C80.3407 139.906 80.414 139.947 80.4896 139.983L82.9694 141.378C83.0377 141.009 82.9909 140.629 82.8354 140.287C83.6225 140.187 84.3993 140.018 85.1568 139.782C88.1667 138.874 90.8416 137.442 90.8416 139.672C90.8429 140.008 90.7808 140.34 90.6588 140.653C92.4867 140.044 93.8028 139.824 93.8028 141.384C93.8028 142.773 92.7609 144.016 91.2132 144.918C88.776 146.35 87.7829 145.18 87.5575 144.041L87.0335 143.736L84.5963 142.329L78.5703 147.428L81.5315 149.14C81.6255 149.577 81.7771 149.999 81.9824 150.396C83.3075 150.349 84.6084 150.027 85.8027 149.451V150.865L90.4821 150.225V146.734C94.54 143.742 97.3367 139.715 97.3367 135.504C97.3609 134.787 97.2471 134.071 97.0016 133.396C95.5335 133.526 94.089 133.85 92.706 134.359Z" fill="black"/>
<g opacity="0.2">
<path d="M85.4371 125.506C83.1821 127.22 81.3516 129.43 80.0875 131.964C79.4948 133.236 79.1495 134.609 79.07 136.01C79.0026 136.706 79.0395 137.409 79.1796 138.094C79.2984 138.792 79.6718 139.422 80.2276 139.861C79.6187 139.463 79.1833 138.849 79.009 138.143C78.8262 137.443 78.7482 136.72 78.7775 135.998C78.8319 134.551 79.1759 133.13 79.7889 131.818C80.4171 130.518 81.2389 129.32 82.2261 128.266C83.1817 127.22 84.2598 126.294 85.4371 125.506Z" fill="black"/>
</g>
<path d="M97.014 133.396C95.5417 133.525 94.0931 133.848 92.7062 134.359C89.5257 135.401 88.0634 135.876 88.0634 134.152C88.0694 133.796 88.1439 133.444 88.2827 133.116C88.8152 132.065 89.669 131.211 90.7199 130.679C92.8098 129.46 93.9797 129.753 94.2721 131.099L99.9995 126.225C99.8173 125.486 99.3895 124.831 98.7862 124.367C98.1828 123.903 97.4398 123.658 96.6789 123.672C95.4419 123.701 94.2243 123.985 93.1023 124.507V120.979L90.1472 122.679L88.3863 123.702V127.194C84.371 130.118 81.8668 133.938 81.8668 138.057C81.8408 138.837 81.9628 139.614 82.2263 140.348C83.1159 142.56 85.5409 142.255 88.0999 141.506C88.9956 141.238 89.8669 140.897 90.6407 140.665C92.4686 140.056 93.7847 139.836 93.7847 141.396C93.7847 142.785 92.7428 144.028 91.1952 144.93C88.758 146.362 87.7648 145.192 87.5394 144.053L81.5195 149.153C81.6135 149.589 81.7652 150.011 81.9704 150.408C82.7564 151.876 84.1578 152.284 85.7907 152.065C86.8147 151.909 87.8116 151.61 88.7519 151.176V154.673L93.4313 151.968V148.452C97.4892 145.466 100.286 141.439 100.286 137.229C100.31 134.188 98.8723 133.354 97.014 133.396Z" fill="#16423C"/>
<g opacity="0.1">
<path d="M97.014 133.396C95.5417 133.525 94.0931 133.848 92.7062 134.359C89.5257 135.401 88.0634 135.876 88.0634 134.152C88.0694 133.796 88.1439 133.444 88.2827 133.116C88.8152 132.065 89.669 131.211 90.7199 130.679C92.8098 129.46 93.9797 129.753 94.2721 131.099L99.9995 126.225C99.8173 125.486 99.3895 124.831 98.7862 124.367C98.1828 123.903 97.4398 123.658 96.6789 123.672C95.4419 123.701 94.2243 123.985 93.1023 124.507V120.979L90.1472 122.679L88.3863 123.702V127.194C84.371 130.118 81.8668 133.938 81.8668 138.057C81.8408 138.837 81.9628 139.614 82.2263 140.348C83.1159 142.56 85.5409 142.255 88.0999 141.506C88.9956 141.238 89.8669 140.897 90.6407 140.665C92.4686 140.056 93.7847 139.836 93.7847 141.396C93.7847 142.785 92.7428 144.028 91.1952 144.93C88.758 146.362 87.7648 145.192 87.5394 144.053L81.5195 149.153C81.6135 149.589 81.7652 150.011 81.9704 150.408C82.7564 151.876 84.1578 152.284 85.7907 152.065C86.8147 151.909 87.8116 151.61 88.7519 151.176V154.673L93.4313 151.968V148.452C97.4892 145.466 100.286 141.439 100.286 137.229C100.31 134.188 98.8723 133.354 97.014 133.396Z" fill="white"/>
</g>
<path opacity="0.1" d="M87.1438 144.394L83.4453 147.52L87.552 151.633C87.9541 151.499 88.3623 151.346 88.7706 151.163V152.851L89.916 153.997L93.45 151.956V150.737L87.1438 144.394Z" fill="white"/>
<path opacity="0.1" d="M97.0142 133.396C95.542 133.525 94.0934 133.848 92.7065 134.359L91.6768 134.694L99.0797 142.091C99.8625 140.584 100.28 138.914 100.298 137.216C100.303 136.738 100.258 136.26 100.164 135.791L97.8185 133.445C97.5524 133.404 97.2832 133.388 97.0142 133.396Z" fill="white"/>
<path opacity="0.1" d="M89.0082 132.019C89.5167 131.476 90.1067 131.016 90.7569 130.654C92.8468 129.436 94.0166 129.728 94.3091 131.075L94.9184 130.539L88.3989 124.013V127.218C87.5959 127.804 86.8345 128.446 86.1201 129.137L89.0082 132.019Z" fill="white"/>
<path opacity="0.1" d="M94.6929 123.928C94.1588 124.078 93.634 124.259 93.1209 124.47V122.356L92.2496 121.46L90.1476 122.679L89.7881 122.886L96.271 129.381L98.367 127.596L94.6929 123.928Z" fill="white"/>
<path opacity="0.1" d="M84.7854 142.036L81.9521 139.209C81.9985 139.598 82.0906 139.981 82.2263 140.348C82.4232 140.862 82.7758 141.3 83.2348 141.603C83.6938 141.906 84.236 142.057 84.7854 142.036Z" fill="white"/>
<path d="M88.3987 127.218L85.4375 125.506V122.014L88.3987 123.726V127.218Z" fill="#16423C"/>
<path opacity="0.35" d="M88.3987 127.218L85.4375 125.506V122.014L88.3987 123.726V127.218Z" fill="black"/>
<path d="M93.4561 148.44C93.4561 148.44 93.6267 148.312 93.913 148.074C94.0931 147.941 94.266 147.799 94.4309 147.648C94.6259 147.477 94.8574 147.294 95.089 147.075C95.3205 146.856 95.5764 146.624 95.8323 146.362L96.2223 145.96C96.3563 145.82 96.4843 145.673 96.6183 145.527C96.7524 145.381 96.8864 145.229 97.0144 145.07C97.1423 144.912 97.2824 144.753 97.4104 144.589C97.6602 144.254 97.9222 143.919 98.1477 143.559C98.3731 143.2 98.5985 142.84 98.8118 142.481C99.0101 142.123 99.1891 141.755 99.348 141.378C99.5186 141.018 99.6343 140.653 99.7684 140.312C99.8171 140.137 99.8659 139.966 99.9146 139.8L99.9877 139.556C99.9877 139.477 100.024 139.398 100.036 139.319C100.103 139.008 100.171 138.709 100.201 138.466C100.231 138.222 100.274 137.984 100.28 137.801C100.28 137.43 100.311 137.192 100.311 137.192C100.311 137.192 100.311 137.405 100.311 137.801C100.305 138.026 100.287 138.249 100.256 138.472C100.228 138.762 100.183 139.051 100.122 139.337C100.122 139.416 100.122 139.495 100.073 139.574C100.024 139.654 100.03 139.739 100.006 139.824C99.9816 139.91 99.9146 140.165 99.8659 140.342C99.7503 140.708 99.6161 141.068 99.4637 141.421C99.3114 141.798 99.1225 142.164 98.9276 142.536C98.7326 142.907 98.5132 143.279 98.2634 143.626C98.0136 143.974 97.7699 144.327 97.514 144.662C97.386 144.827 97.2459 144.985 97.1179 145.143L96.7158 145.6L96.3137 146.033L95.9054 146.429C95.6495 146.685 95.3814 146.91 95.1438 147.124C94.9062 147.337 94.6747 147.52 94.4736 147.684C94.2725 147.849 94.0897 147.983 93.9435 148.092L93.4561 148.44Z" fill="white"/>
<path d="M88.3984 123.727L93.1205 120.979V124.47L92.8037 121.545L88.3984 123.727Z" fill="#FAFAFA"/>
<path d="M88.7764 151.163L89.0262 154.198L93.4558 151.955L88.7764 154.661V151.163Z" fill="#FAFAFA"/>
<path d="M103.191 110.017L103.587 104.82L103.984 110.017L109.181 110.413L103.984 110.81L103.587 116.007L103.191 110.81L97.9941 110.413L103.191 110.017Z" fill="white"/>
<path d="M107.548 114.447L107.737 111.924L107.932 114.447L110.448 114.636L107.932 114.831L107.737 117.347L107.548 114.831L105.025 114.636L107.548 114.447Z" fill="white"/>
<path d="M114.03 10.6188L115.943 6.62911L107.576 1.77954C106.587 1.20493 105.527 0.76218 104.423 0.46256C104.036 0.36185 103.649 0.276636 103.254 0.206913C101.299 -0.115816 99.3001 -0.0605905 97.366 0.369598C96.6479 0.519153 95.9391 0.710569 95.2433 0.942868C94.4985 1.18357 93.7667 1.46284 93.0509 1.77954C92.0843 2.20857 91.1428 2.69224 90.2311 3.22821C89.2182 3.81762 88.2381 4.46156 87.295 5.15719C86.5668 5.68398 85.8541 6.24951 85.1413 6.84602C74.7605 15.631 66.6262 31.2566 64.519 46.2856C64.3719 47.3082 64.2634 48.323 64.1782 49.3379C64.0542 50.7943 64 52.2352 64 53.6529C64 54.8227 64.0542 55.977 64.1394 57.0383C64.2169 57.9834 64.3254 58.8976 64.4571 59.7807C64.5888 60.6639 64.7592 61.5005 64.9529 62.3217C65.4669 64.5731 66.2908 66.7422 67.4009 68.7672C67.6256 69.17 67.858 69.5418 68.1059 69.9292C69.0957 71.4711 70.3492 72.8269 71.8089 73.9343C72.2472 74.2554 72.7023 74.5528 73.1723 74.8252L81.082 79.3882L82.8328 75.7394C83.2976 75.6387 83.7624 75.5147 84.235 75.3753C86.1606 74.7813 88.0094 73.9622 89.743 72.935C90.8577 72.2784 91.9361 71.5621 92.9735 70.7891C94.366 69.7458 95.6908 68.6151 96.9399 67.4037C105.609 59.0603 112.434 46.0144 114.936 33.0229C115.307 31.1167 115.581 29.193 115.757 27.2592C115.897 25.6633 115.974 24.0829 115.966 22.5258C115.967 20.2757 115.783 18.0293 115.416 15.8092C115.112 14.0407 114.648 12.3034 114.03 10.6188Z" fill="#16423C"/>
<path opacity="0.25" d="M66.4248 37.4157L83.3983 47.2155L85.6294 40.7546L68.6404 30.9315C67.796 33.0541 67.0523 35.2155 66.4248 37.4157Z" fill="white"/>
<path opacity="0.25" d="M107.577 1.77966C106.588 1.20505 105.528 0.762302 104.424 0.462682C104.037 0.361972 103.649 0.276758 103.254 0.207035C101.299 -0.115694 99.3006 -0.0604685 97.3665 0.36972L96.5918 0.555644L114.053 10.6266C114.053 10.6266 114.053 10.6266 114.053 10.5879L115.967 6.59824L107.577 1.77966Z" fill="white"/>
<path opacity="0.25" d="M105.764 26.5694L107.995 23.8812L82.5463 9.24728C81.7407 10.0478 80.9505 10.8896 80.1758 11.7728L105.764 26.5694Z" fill="white"/>
<path opacity="0.25" d="M74.7686 18.9699L96.8395 31.6981L99.2643 25.3534L78.735 13.5006C77.3156 15.2512 75.9915 17.0769 74.7686 18.9699Z" fill="white"/>
<path opacity="0.4" d="M107.577 1.77966C106.588 1.20505 105.528 0.762302 104.424 0.462682C104.037 0.361972 103.649 0.276758 103.254 0.207035C101.299 -0.115694 99.3007 -0.0604685 97.3666 0.36972C96.6485 0.519275 95.9397 0.710691 95.244 0.94299C94.4992 1.1837 93.7674 1.46296 93.0516 1.77966C92.0849 2.20869 91.1434 2.69236 90.2317 3.22833C89.2188 3.81774 88.2387 4.46168 87.2956 5.15732C86.5674 5.68411 85.8547 6.24963 85.142 6.84614C75.4738 15.0114 67.7269 29.1263 65 43.1637L100.403 63.6078C107.696 54.7655 112.672 44.2463 114.882 32.9997C115.253 31.0936 115.527 29.1699 115.704 27.236C115.843 25.6402 115.92 24.0598 115.913 22.5027C115.913 20.2525 115.729 18.0061 115.363 15.7861C115.066 14.0183 114.61 12.281 113.999 10.5957L115.913 6.60599L107.577 1.77966Z" fill="white"/>
<path opacity="0.1" d="M81.0587 79.3885L82.8095 75.7398C83.2743 75.639 83.7391 75.5151 84.2117 75.3756C86.1373 74.7817 87.9861 73.9626 89.7198 72.9354C90.8345 72.2788 91.9129 71.5625 92.9502 70.7895C94.3428 69.7462 95.6676 68.6154 96.9167 67.4041C98.1535 66.2082 99.3275 64.9489 100.434 63.6313L65.0303 43.1872C64.8289 44.2175 64.6585 45.2556 64.519 46.286C64.3796 47.3163 64.2634 48.3234 64.1782 49.3383C64.0542 50.7947 64 52.2356 64 53.6533C64 54.8231 64.0542 55.9774 64.1394 57.0387C64.2169 57.9838 64.3254 58.898 64.4571 59.7811C64.5888 60.6642 64.7592 61.5009 64.9529 62.3221C65.4669 64.5734 66.2908 66.7426 67.4009 68.7675C67.6256 69.1704 67.858 69.5422 68.1059 69.9296C69.0957 71.4715 70.3492 72.8272 71.8089 73.9347C72.2472 74.2558 72.7023 74.5532 73.1723 74.8256L81.0587 79.3885Z" fill="black"/>
<path opacity="0.1" d="M67.4014 68.767C67.626 69.1699 67.8584 69.5417 68.1063 69.9291C69.0962 71.471 70.3496 72.8267 71.8094 73.9342C72.2476 74.2553 72.7028 74.5527 73.1728 74.8251L81.0824 79.3881L82.8332 75.7393H82.903L83.0269 74.2441L65.4414 64.0879C65.9256 65.7132 66.5827 67.2818 67.4014 68.767Z" fill="black"/>
<path d="M124.333 20.9686C123.972 18.6733 123.324 16.4324 122.404 14.2985C121.288 11.6417 119.521 9.30804 117.268 7.51222C115.886 6.44903 114.305 5.6721 112.62 5.22687C112.232 5.12616 111.845 5.04095 111.442 4.97122C109.487 4.6485 107.488 4.70372 105.554 5.13391C104.837 5.28542 104.128 5.4768 103.432 5.70718C102.687 5.94919 101.956 6.22843 101.239 6.54385C100.281 6.96838 99.3471 7.44688 98.4427 7.97703C97.4256 8.56362 96.4427 9.20766 95.4988 9.90601C94.7784 10.4328 94.0579 10.9983 93.3529 11.5948C82.9721 20.3566 74.7603 35.9821 72.7229 51.0112C72.5834 52.0338 72.4672 53.0486 72.3898 54.0635C72.2658 55.5121 72.2038 56.9608 72.2116 58.3785C72.2116 59.5483 72.2581 60.7026 72.351 61.7639C72.4285 62.709 72.5292 63.6231 72.6687 64.5063C72.8081 65.3895 72.9708 66.2261 73.1645 67.0473C73.6641 69.2996 74.4805 71.4696 75.5892 73.4927C75.8165 73.8956 76.0489 74.2829 76.2865 74.6548C77.279 76.1971 78.5351 77.5528 79.9972 78.6599C82.1162 80.2481 84.6648 81.1607 87.3103 81.2784C89.2904 81.368 91.2707 81.1057 93.1593 80.5037C95.0856 79.9116 96.9346 79.0924 98.6673 78.0634C99.7837 77.4096 100.862 76.6931 101.898 75.9175C103.29 74.8742 104.615 73.7435 105.864 72.5321C114.533 64.1964 121.358 51.1429 123.86 38.1513C124.228 36.245 124.5 34.3213 124.674 32.3876C124.821 30.8382 124.891 29.2113 124.891 27.6542C124.891 25.4141 124.704 23.1778 124.333 20.9686Z" fill="#16423C"/>
<path opacity="0.05" d="M73.2419 47.9048C73.0405 48.9429 72.8701 49.9888 72.7229 51.0036C72.5757 52.0185 72.4672 53.0411 72.3898 54.0559C72.2658 55.5046 72.2038 56.9532 72.2116 58.3709C72.2116 59.5407 72.2581 60.695 72.351 61.7563C72.4285 62.7015 72.5292 63.6156 72.6687 64.4987C72.8081 65.3819 72.9708 66.2186 73.1645 67.0397C73.6641 69.292 74.4805 71.4621 75.5892 73.4852C75.8165 73.888 76.0489 74.2754 76.2865 74.6472C77.279 76.1895 78.5351 77.5452 79.9972 78.6524C82.1162 80.2406 84.6648 81.1531 87.3103 81.2708C89.2904 81.3604 91.2707 81.0981 93.1593 80.4961C95.0856 79.9041 96.9346 79.0849 98.6673 78.0559C99.6357 77.4903 100.596 76.8473 101.541 76.1656L73.2419 47.9048Z" fill="black"/>
<path opacity="0.05" d="M73.6533 68.8832C74.1305 70.4975 74.7798 72.0558 75.5901 73.5313C75.8173 73.9342 76.0497 74.3215 76.2873 74.6934C77.2798 76.2357 78.5359 77.5914 79.998 78.6985C81.7362 79.9991 83.7698 80.8482 85.9167 81.1698L73.6533 68.8832Z" fill="black"/>
<path opacity="0.1" d="M76.8445 35.6802C76.0001 37.8028 75.2951 39.9642 74.6289 42.1411L105.446 72.9583L105.864 72.5633C107.199 71.2731 108.461 69.9101 109.645 68.4806L76.8445 35.6802Z" fill="white"/>
<path opacity="0.1" d="M86.9159 18.2418C85.5045 19.9911 84.1907 21.817 82.9805 23.7111L116.896 57.6349C117.997 55.5665 119.004 53.4206 119.91 51.236L86.9159 18.2418Z" fill="white"/>
<path opacity="0.1" d="M90.7659 13.9811C89.9912 14.7558 89.1545 15.6389 88.3721 16.5221L120.801 48.9507C121.255 47.7422 121.679 46.5181 122.071 45.2786L90.7659 13.9811Z" fill="white"/>
<path opacity="0.1" d="M124.814 25.3379C124.814 24.7104 124.729 24.0984 124.667 23.4941C124.667 23.3004 124.667 23.099 124.605 22.8976L124.535 22.2856C124.473 21.844 124.411 21.4024 124.334 20.9686C123.972 18.6733 123.324 16.4324 122.405 14.2985C121.288 11.6417 119.522 9.30804 117.268 7.51222C115.886 6.44903 114.306 5.6721 112.62 5.22687C112.233 5.12616 111.845 5.04095 111.443 4.97122C109.488 4.6485 107.489 4.70372 105.555 5.13391L104.78 5.31984L124.814 25.3379Z" fill="white"/>
<path d="M118.175 31.7134C118.175 45.5727 110.094 61.5855 99.8686 68.3873C99.4347 68.6817 98.9932 68.9529 98.5516 69.2085C87.7059 75.468 78.9209 68.8289 78.9209 54.3732C78.9209 39.9174 87.7059 23.1298 98.5516 16.8703C98.9932 16.6224 99.4347 16.3823 99.8686 16.1731C110.094 11.1686 118.175 17.8464 118.175 31.7134Z" fill="#16423C"/>
<path opacity="0.4" d="M118.175 31.7134C118.175 45.5727 110.094 61.5855 99.8686 68.3873C99.4347 68.6817 98.9932 68.9529 98.5516 69.2085C87.7059 75.468 78.9209 68.8289 78.9209 54.3732C78.9209 39.9174 87.7059 23.1298 98.5516 16.8703C98.9932 16.6224 99.4347 16.3823 99.8686 16.1731C110.094 11.1686 118.175 17.8464 118.175 31.7134Z" fill="black"/>
<path d="M117.306 32.2172C117.306 32.6665 117.306 33.1158 117.306 33.5651C116.811 46.487 109.281 60.9737 99.8372 67.2642L99.5815 67.4346C99.2484 67.6438 98.9153 67.853 98.5822 68.0466C96.7749 69.1377 94.7725 69.8665 92.6868 70.1925C88.2865 70.7891 84.6067 68.8601 82.3291 64.9169C80.8424 62.1727 80 59.1261 79.8656 56.0079C79.8191 55.3262 79.7959 54.629 79.7959 53.9008C79.7959 53.1726 79.7959 52.5761 79.8579 51.9021C79.9397 50.4744 80.0974 49.0521 80.3304 47.6413C81.9883 37.6555 87.3027 27.4993 94.089 21.3637C95.0262 20.5068 96.0229 19.7172 97.0715 19.0009C97.5596 18.6678 98.0554 18.3579 98.5512 18.0713C99.047 17.7846 99.3956 17.6065 99.8062 17.3973L100.155 17.2346C102.542 16.0161 105.254 15.5849 107.902 16.0028C111.853 16.7775 114.874 19.8763 116.354 24.935C117.009 27.3062 117.329 29.7573 117.306 32.2172Z" fill="#16423C"/>
<path opacity="0.5" d="M117.306 32.2172C117.306 32.6665 117.306 33.1158 117.306 33.5651C116.811 46.487 109.281 60.9737 99.8372 67.2642L99.5815 67.4346C99.2484 67.6438 98.9153 67.853 98.5822 68.0466C96.7749 69.1377 94.7725 69.8665 92.6868 70.1925C88.2865 70.7891 84.6067 68.8601 82.3291 64.9169C80.8424 62.1727 80 59.1261 79.8656 56.0079C79.8191 55.3262 79.7959 54.629 79.7959 53.9008C79.7959 53.1726 79.7959 52.5761 79.8579 51.9021C79.9397 50.4744 80.0974 49.0521 80.3304 47.6413C81.9883 37.6555 87.3027 27.4993 94.089 21.3637C95.0262 20.5068 96.0229 19.7172 97.0715 19.0009C97.5596 18.6678 98.0554 18.3579 98.5512 18.0713C99.047 17.7846 99.3956 17.6065 99.8062 17.3973L100.155 17.2346C102.542 16.0161 105.254 15.5849 107.902 16.0028C111.853 16.7775 114.874 19.8763 116.354 24.935C117.009 27.3062 117.329 29.7573 117.306 32.2172Z" fill="black"/>
<path d="M114.161 31.7603C114.161 31.3032 114.161 30.8539 114.161 30.4046C114.189 27.9347 113.871 25.4731 113.216 23.0915C112.569 20.4981 111.186 18.1469 109.234 16.3207C108.81 16.1718 108.375 16.0553 107.933 15.9721C105.285 15.5542 102.573 15.9854 100.186 17.2038L99.8374 17.3665C99.4268 17.5757 99.0008 17.7926 98.5824 18.0405C98.1641 18.2884 97.5908 18.637 97.1028 18.9701C96.0541 19.6864 95.0574 20.476 94.1202 21.3329C87.3417 27.4452 82.0195 37.6015 80.3617 47.6105C80.1287 49.0214 79.9709 50.4436 79.8891 51.8713C79.8426 52.5453 79.8271 53.2115 79.8271 53.87C79.8271 54.5285 79.8271 55.2954 79.8969 55.9771C80.017 59.1034 80.8489 62.161 82.3294 64.9171C82.9756 66.0596 83.8082 67.086 84.7929 67.9539C86.3303 68.4707 87.9682 68.6167 89.5728 68.38C91.658 68.0563 93.6603 67.3301 95.4682 66.2418C95.8013 66.0481 96.1422 65.839 96.4675 65.6221L96.7232 65.4516C106.136 59.1689 113.666 44.6821 114.161 31.7603Z" fill="#16423C"/>
<path opacity="0.25" d="M114.161 31.7603C114.161 31.3032 114.161 30.8539 114.161 30.4046C114.189 27.9347 113.871 25.4731 113.216 23.0915C112.569 20.4981 111.186 18.1469 109.234 16.3207C108.81 16.1718 108.375 16.0553 107.933 15.9721C105.285 15.5542 102.573 15.9854 100.186 17.2038L99.8374 17.3665C99.4268 17.5757 99.0008 17.7926 98.5824 18.0405C98.1641 18.2884 97.5908 18.637 97.1028 18.9701C96.0541 19.6864 95.0574 20.476 94.1202 21.3329C87.3417 27.4452 82.0195 37.6015 80.3617 47.6105C80.1287 49.0214 79.9709 50.4436 79.8891 51.8713C79.8426 52.5453 79.8271 53.2115 79.8271 53.87C79.8271 54.5285 79.8271 55.2954 79.8969 55.9771C80.017 59.1034 80.8489 62.161 82.3294 64.9171C82.9756 66.0596 83.8082 67.086 84.7929 67.9539C86.3303 68.4707 87.9682 68.6167 89.5728 68.38C91.658 68.0563 93.6603 67.3301 95.4682 66.2418C95.8013 66.0481 96.1422 65.839 96.4675 65.6221L96.7232 65.4516C106.136 59.1689 113.666 44.6821 114.161 31.7603Z" fill="black"/>
<path d="M111.458 4.97139C100.124 3.69315 90.9055 13.0824 84.7544 21.5188C75.8687 34.6189 70.2367 51.205 73.3122 67.063C74.3193 71.4709 76.3335 75.9022 80.0055 78.6833C76.256 75.9332 74.0791 71.5097 73.0333 67.063C70.1979 54.0791 73.7615 40.4368 79.7034 28.8242C86.0481 17.3587 96.8396 3.40652 111.458 4.97139Z" fill="#F5F5F5"/>
<path opacity="0.35" d="M102.881 35.6957L99.1162 33.5188L106.398 27.3058L110.163 29.4827L102.881 35.6957Z" fill="black"/>
<path opacity="0.35" d="M105.199 37.1293C103.27 35.7658 99.9306 36.7962 97.0952 37.6871C96.4135 37.9195 95.8015 38.1209 95.2437 38.2913C95.0672 38.7084 94.9725 39.1555 94.9648 39.6083C94.9648 41.8007 96.8241 41.1577 100.868 39.8717C102.231 39.4039 103.627 39.0362 105.044 38.7716C105.168 39.8872 105.942 40.902 108.964 39.3062L105.199 37.1293Z" fill="black"/>
<path opacity="0.45" d="M95.8705 65.6842L92.1055 63.5073V59.0606L95.8705 61.2375V65.6842Z" fill="black"/>
<path opacity="0.35" d="M102.262 48.8033C102.262 50.5696 100.937 52.15 98.9697 53.2966C95.8709 55.1171 94.6081 53.6297 94.3215 52.181L93.6553 51.7937C94.1974 51.6334 94.7178 51.4071 95.2047 51.1197C96.5677 50.422 97.6485 49.2755 98.2647 47.8737C100.573 47.1145 102.262 46.8201 102.262 48.8033Z" fill="black"/>
<path opacity="0.35" d="M88.2477 59.7035C87.833 59.4607 87.3563 59.3449 86.8764 59.3704C86.7956 59.1395 86.7283 58.9041 86.675 58.6654L82.8945 56.4885C82.9962 57.1437 83.2368 57.7695 83.6002 58.324C83.9636 58.8785 84.4415 59.3489 85.0017 59.7035L88.7589 61.8804C88.9365 61.514 88.9826 61.0976 88.8895 60.7012C88.7964 60.3049 88.5697 59.9526 88.2477 59.7035Z" fill="black"/>
<path d="M100.867 39.8714C96.8235 41.1961 94.9642 41.8004 94.9642 39.608C94.9719 39.1552 95.0666 38.7081 95.2431 38.291C92.4852 39.1432 91.1992 39.2516 91.1992 37.4311C91.1992 36.0909 92.1056 34.4408 94.6001 32.9921C97.2573 31.4427 98.7447 31.8068 99.1166 33.5189L106.399 27.3214C106.399 27.2284 106.337 27.1432 106.298 27.0502C106.752 26.9512 107.188 26.784 107.592 26.5544L104.586 24.7571L104.299 24.5867H104.253C103.366 24.1551 102.373 23.9909 101.394 24.1141C100.089 24.2555 98.814 24.5978 97.6137 25.129V25.0205L101.379 22.8281L97.6137 20.6823L95.0649 22.1697L91.6098 24.1761V28.6151C86.5046 32.3336 83.3206 37.1832 83.3206 42.4356C83.3206 44.8217 83.9636 46.1774 85.0094 46.8668H85.0559C85.1455 46.9243 85.2387 46.9761 85.3348 47.0218L88.4878 48.7958C88.5746 48.327 88.5151 47.8429 88.3174 47.4091C89.3182 47.2818 90.3059 47.0666 91.2689 46.7661C95.0959 45.6118 98.4968 43.7913 98.4968 46.6267C98.4985 47.0533 98.4196 47.4765 98.2644 47.8739C100.588 47.0992 102.262 46.8204 102.262 48.8036C102.262 50.5699 100.937 52.1502 98.9694 53.2968C95.8706 55.1173 94.6079 53.6299 94.3212 52.1812L93.655 51.7939L90.5562 50.0043L82.8945 56.4885L86.6595 58.6654C86.7791 59.2204 86.9718 59.7571 87.2328 60.2613C88.9176 60.2017 90.5717 59.7928 92.0901 59.0605V60.8578L98.0398 60.0443V55.6054C103.199 51.8016 106.755 46.6809 106.755 41.3278C106.786 40.4153 106.641 39.5053 106.329 38.6474C104.462 38.8121 102.626 39.2237 100.867 39.8714Z" fill="#16423C"/>
<path opacity="0.15" d="M100.867 39.8714C96.8235 41.1961 94.9642 41.8004 94.9642 39.608C94.9719 39.1552 95.0666 38.7081 95.2431 38.291C92.4852 39.1432 91.1992 39.2516 91.1992 37.4311C91.1992 36.0909 92.1056 34.4408 94.6001 32.9921C97.2573 31.4427 98.7447 31.8068 99.1166 33.5189L106.399 27.3214C106.399 27.2284 106.337 27.1432 106.298 27.0502C106.752 26.9512 107.188 26.784 107.592 26.5544L104.586 24.7571L104.299 24.5867H104.253C103.366 24.1551 102.373 23.9909 101.394 24.1141C100.089 24.2555 98.814 24.5978 97.6137 25.129V25.0205L101.379 22.8281L97.6137 20.6823L95.0649 22.1697L91.6098 24.1761V28.6151C86.5046 32.3336 83.3206 37.1832 83.3206 42.4356C83.3206 44.8217 83.9636 46.1774 85.0094 46.8668H85.0559C85.1455 46.9243 85.2387 46.9761 85.3348 47.0218L88.4878 48.7958C88.5746 48.327 88.5151 47.8429 88.3174 47.4091C89.3182 47.2818 90.3059 47.0666 91.2689 46.7661C95.0959 45.6118 98.4968 43.7913 98.4968 46.6267C98.4985 47.0533 98.4196 47.4765 98.2644 47.8739C100.588 47.0992 102.262 46.8204 102.262 48.8036C102.262 50.5699 100.937 52.1502 98.9694 53.2968C95.8706 55.1173 94.6079 53.6299 94.3212 52.1812L93.655 51.7939L90.5562 50.0043L82.8945 56.4885L86.6595 58.6654C86.7791 59.2204 86.9718 59.7571 87.2328 60.2613C88.9176 60.2017 90.5717 59.7928 92.0901 59.0605V60.8578L98.0398 60.0443V55.6054C103.199 51.8016 106.755 46.6809 106.755 41.3278C106.786 40.4153 106.641 39.5053 106.329 38.6474C104.462 38.8121 102.626 39.2237 100.867 39.8714Z" fill="black"/>
<g opacity="0.2">
<path d="M91.6254 28.6154C88.7582 30.7946 86.4309 33.6043 84.8236 36.8271C84.0701 38.4442 83.6311 40.1899 83.5299 41.971C83.4442 42.8562 83.4912 43.7492 83.6693 44.6205C83.8203 45.5084 84.2951 46.3088 85.0018 46.8671C84.2276 46.361 83.674 45.5804 83.4524 44.6825C83.22 43.793 83.1208 42.8741 83.158 41.9556C83.2272 40.116 83.6645 38.3089 84.444 36.6412C85.2427 34.9877 86.2875 33.4649 87.5428 32.1247C88.7577 30.7951 90.1285 29.6168 91.6254 28.6154Z" fill="black"/>
</g>
<path d="M106.345 38.6472C104.473 38.8107 102.631 39.2223 100.868 39.8712C96.824 41.196 94.9647 41.8002 94.9647 39.6079C94.9724 39.155 95.0671 38.7079 95.2436 38.2909C95.9207 36.9547 97.0062 35.8692 98.3424 35.1921C101 33.6427 102.487 34.0146 102.859 35.7266L110.141 29.5291C109.909 28.5896 109.365 27.7567 108.598 27.1669C107.831 26.5772 106.886 26.2655 105.919 26.2831C104.346 26.3201 102.798 26.6814 101.371 27.3445V22.859L97.6142 25.0204L95.3753 26.3219V30.7609C90.2701 34.4794 87.0861 39.3367 87.0861 44.5736C87.0531 45.5647 87.2082 46.5531 87.5432 47.4865C88.6742 50.2986 91.7575 49.9113 95.0112 48.9584C96.15 48.6175 97.2578 48.1837 98.2417 47.8893C100.566 47.1146 102.239 46.8357 102.239 48.8189C102.239 50.5852 100.914 52.1656 98.9466 53.3121C95.8479 55.1327 94.5851 53.6453 94.2985 52.1966L86.6445 58.6808C86.7641 59.2358 86.9569 59.7724 87.2178 60.2766C88.2172 62.1436 89.9989 62.6627 92.0751 62.3838C93.3771 62.1859 94.6446 61.8051 95.8401 61.2527V65.6995L101.79 62.2598V57.7899C106.949 53.9939 110.505 48.8732 110.505 43.52C110.536 39.6543 108.708 38.593 106.345 38.6472Z" fill="#16423C"/>
<g opacity="0.1">
<path d="M106.345 38.6472C104.473 38.8107 102.631 39.2223 100.868 39.8712C96.824 41.196 94.9647 41.8002 94.9647 39.6079C94.9724 39.155 95.0671 38.7079 95.2436 38.2909C95.9207 36.9547 97.0062 35.8692 98.3424 35.1921C101 33.6427 102.487 34.0146 102.859 35.7266L110.141 29.5291C109.909 28.5896 109.365 27.7567 108.598 27.1669C107.831 26.5772 106.886 26.2655 105.919 26.2831C104.346 26.3201 102.798 26.6814 101.371 27.3445V22.859L97.6142 25.0204L95.3753 26.3219V30.7609C90.2701 34.4794 87.0861 39.3367 87.0861 44.5736C87.0531 45.5647 87.2082 46.5531 87.5432 47.4865C88.6742 50.2986 91.7575 49.9113 95.0112 48.9584C96.15 48.6175 97.2578 48.1837 98.2417 47.8893C100.566 47.1146 102.239 46.8357 102.239 48.8189C102.239 50.5852 100.914 52.1656 98.9466 53.3121C95.8479 55.1327 94.5851 53.6453 94.2985 52.1966L86.6445 58.6808C86.7641 59.2358 86.9569 59.7724 87.2178 60.2766C88.2172 62.1436 89.9989 62.6627 92.0751 62.3838C93.3771 62.1859 94.6446 61.8051 95.8401 61.2527V65.6995L101.79 62.2598V57.7899C106.949 53.9939 110.505 48.8732 110.505 43.52C110.536 39.6543 108.708 38.593 106.345 38.6472Z" fill="white"/>
</g>
<path opacity="0.1" d="M93.7942 52.631L89.0918 56.6051L94.3132 61.8343C94.8245 61.6639 95.3436 61.4702 95.8626 61.2378V63.3837L97.319 64.8401L101.812 62.2449V60.6955L93.7942 52.631Z" fill="white"/>
<path opacity="0.1" d="M106.344 38.6474C104.472 38.8108 102.63 39.2225 100.867 39.8714L99.5576 40.2975L108.97 49.7023C109.965 47.7865 110.496 45.6635 110.52 43.5047C110.525 42.8962 110.468 42.2888 110.349 41.692L107.367 38.7094C107.028 38.6577 106.686 38.6369 106.344 38.6474Z" fill="white"/>
<path opacity="0.1" d="M96.1652 36.8969C96.8118 36.2065 97.5619 35.6211 98.3886 35.1616C101.046 33.6122 102.533 33.984 102.905 35.6961L103.68 35.0144L95.3905 26.7174V30.7923C94.3695 31.5378 93.4014 32.3532 92.4932 33.2326L96.1652 36.8969Z" fill="white"/>
<path opacity="0.1" d="M103.393 26.6087C102.713 26.7995 102.046 27.0297 101.394 27.2982V24.61L100.286 23.4712L97.6133 25.0206L97.1562 25.284L105.399 33.5422L108.064 31.2723L103.393 26.6087Z" fill="white"/>
<path opacity="0.1" d="M90.7966 49.6327L87.1943 46.0381C87.2533 46.533 87.3703 47.0193 87.5429 47.4868C87.7932 48.1395 88.2416 48.6974 88.8252 49.0823C89.4087 49.4672 90.0981 49.6596 90.7966 49.6327Z" fill="white"/>
<path d="M95.391 30.7916L91.626 28.6148V24.1758L95.391 26.3527V30.7916Z" fill="#16423C"/>
<path opacity="0.35" d="M95.391 30.7916L91.626 28.6148V24.1758L95.391 26.3527V30.7916Z" fill="black"/>
<path d="M101.82 57.7744C101.82 57.7744 102.037 57.6117 102.401 57.3095C102.63 57.1406 102.85 56.9596 103.06 56.7673C103.308 56.5503 103.602 56.3179 103.896 56.039C104.191 55.7602 104.516 55.4658 104.842 55.1327L105.337 54.6214C105.508 54.4432 105.671 54.2573 105.841 54.0713C106.011 53.8854 106.182 53.6917 106.345 53.4903C106.507 53.2889 106.685 53.0875 106.848 52.8783C107.166 52.4522 107.499 52.0261 107.785 51.5691C108.072 51.112 108.359 50.6549 108.63 50.1979C108.882 49.743 109.11 49.2749 109.312 48.7957C109.529 48.3386 109.676 47.8738 109.846 47.44C109.908 47.2179 109.97 47.001 110.032 46.7892L110.125 46.4793C110.125 46.3786 110.171 46.2779 110.187 46.1772C110.272 45.7821 110.357 45.4025 110.396 45.0927C110.435 44.7828 110.489 44.4806 110.497 44.2482C110.497 43.7757 110.536 43.4735 110.536 43.4735C110.536 43.4735 110.536 43.7447 110.536 44.2482C110.528 44.5334 110.505 44.8179 110.466 45.1004C110.43 45.4701 110.373 45.8374 110.295 46.2005C110.295 46.3012 110.295 46.4019 110.233 46.5026C110.171 46.6033 110.179 46.7118 110.148 46.8202C110.117 46.9287 110.032 47.254 109.97 47.4787C109.823 47.9442 109.653 48.4019 109.459 48.8499C109.265 49.3302 109.025 49.795 108.777 50.2676C108.529 50.7401 108.25 51.2127 107.933 51.6543C107.615 52.0959 107.305 52.5452 106.98 52.9713C106.817 53.1804 106.639 53.3819 106.476 53.5833L105.965 54.1643L105.454 54.7143L104.935 55.2179C104.609 55.5432 104.268 55.8299 103.966 56.101C103.664 56.3722 103.37 56.6046 103.114 56.8137C102.858 57.0229 102.626 57.1933 102.44 57.3328L101.82 57.7744Z" fill="white"/>
<path d="M95.3906 26.3529L101.394 22.859V27.298L100.992 23.5795L95.3906 26.3529Z" fill="#FAFAFA"/>
<path d="M95.8711 61.2378L96.1887 65.0958L101.821 62.2449L95.8711 65.6845V61.2378Z" fill="#FAFAFA"/>
<path d="M114.201 8.9227L114.704 2.31458L115.208 8.9227L121.816 9.42625L115.208 9.9298L114.704 16.5379L114.201 9.9298L107.593 9.42625L114.201 8.9227Z" fill="white"/>
<path d="M119.739 14.5542L119.98 11.3469L120.228 14.5542L123.427 14.7943L120.228 15.0422L119.98 18.2417L119.739 15.0422L116.532 14.7943L119.739 14.5542Z" fill="white"/>
<path d="M41.502 172.262L42.6303 169.909L37.6966 167.049C37.1133 166.711 36.4883 166.449 35.8373 166.273C35.6089 166.213 35.3805 166.163 35.1475 166.122C33.9947 165.932 32.8161 165.964 31.6756 166.218C31.2521 166.306 30.8342 166.419 30.4239 166.556C29.9847 166.698 29.5532 166.863 29.1311 167.049C28.561 167.302 28.0058 167.588 27.4682 167.904C26.8709 168.251 26.293 168.631 25.7368 169.041C25.3074 169.352 24.8871 169.685 24.4668 170.037C18.3453 175.217 13.5486 184.432 12.3061 193.294C12.2193 193.897 12.1553 194.496 12.1051 195.094C12.032 195.953 12 196.803 12 197.639C12 198.328 12.032 199.009 12.0822 199.635C12.1279 200.192 12.1919 200.731 12.2695 201.252C12.3472 201.773 12.4477 202.266 12.5619 202.751C12.865 204.078 13.3508 205.357 14.0055 206.551C14.138 206.789 14.275 207.008 14.4212 207.237C15.0049 208.146 15.744 208.945 16.6048 209.598C16.8633 209.788 17.1317 209.963 17.4088 210.124L22.0731 212.814L23.1055 210.663C23.3796 210.603 23.6537 210.53 23.9324 210.448C25.0679 210.098 26.1581 209.615 27.1804 209.009C27.8377 208.622 28.4736 208.199 29.0854 207.744C29.9065 207.128 30.6878 206.462 31.4243 205.747C36.5363 200.827 40.5609 193.134 42.0365 185.473C42.255 184.349 42.4166 183.215 42.5207 182.074C42.6029 181.133 42.6486 180.201 42.644 179.283C42.6444 177.956 42.536 176.632 42.3197 175.323C42.1403 174.28 41.8666 173.255 41.502 172.262Z" fill="#16423C"/>
<path opacity="0.25" d="M13.4297 188.064L23.4388 193.842L24.7545 190.033L14.7362 184.24C14.2383 185.492 13.7997 186.766 13.4297 188.064Z" fill="white"/>
<path opacity="0.25" d="M37.6966 167.049C37.1133 166.711 36.4883 166.449 35.8373 166.273C35.6089 166.213 35.3805 166.163 35.1475 166.122C33.9947 165.932 32.8161 165.964 31.6756 166.218L31.2188 166.328L41.5157 172.266C41.5157 172.266 41.5157 172.266 41.5157 172.244L42.644 169.891L37.6966 167.049Z" fill="white"/>
<path opacity="0.25" d="M36.6281 181.668L37.9438 180.082L22.937 171.453C22.4619 171.925 21.9959 172.421 21.5391 172.942L36.6281 181.668Z" fill="white"/>
<path opacity="0.25" d="M18.3506 177.186L31.3656 184.692L32.7955 180.951L20.6895 173.961C19.8525 174.993 19.0718 176.07 18.3506 177.186Z" fill="white"/>
<path opacity="0.4" d="M37.6971 167.049C37.1139 166.711 36.4888 166.449 35.8378 166.273C35.6094 166.213 35.381 166.163 35.148 166.122C33.9952 165.932 32.8166 165.964 31.6761 166.218C31.2527 166.306 30.8347 166.419 30.4244 166.556C29.9852 166.698 29.5537 166.863 29.1316 167.049C28.5616 167.302 28.0064 167.588 27.4687 167.904C26.8715 168.251 26.2935 168.631 25.7374 169.041C25.3079 169.352 24.8877 169.685 24.4674 170.037C18.7662 174.852 14.1979 183.175 12.5898 191.453L33.4669 203.509C37.7674 198.295 40.7017 192.092 42.005 185.46C42.2236 184.336 42.3852 183.201 42.4893 182.061C42.5715 181.12 42.6172 180.188 42.6126 179.27C42.613 177.943 42.5045 176.618 42.2883 175.309C42.1133 174.266 41.8442 173.242 41.4842 172.248L42.6126 169.895L37.6971 167.049Z" fill="white"/>
<path opacity="0.1" d="M22.0594 212.815L23.0918 210.663C23.3659 210.604 23.64 210.53 23.9186 210.448C25.0542 210.098 26.1444 209.615 27.1667 209.009C27.824 208.622 28.4599 208.2 29.0717 207.744C29.8928 207.129 30.6741 206.462 31.4106 205.747C32.14 205.042 32.8323 204.3 33.4846 203.523L12.6076 191.467C12.4888 192.075 12.3883 192.687 12.3061 193.294C12.2238 193.902 12.1553 194.496 12.1051 195.094C12.032 195.953 12 196.803 12 197.639C12 198.329 12.032 199.009 12.0822 199.635C12.1279 200.192 12.1919 200.732 12.2695 201.252C12.3472 201.773 12.4477 202.266 12.5619 202.751C12.865 204.078 13.3508 205.357 14.0055 206.552C14.138 206.789 14.275 207.008 14.4212 207.237C15.0049 208.146 15.744 208.945 16.6048 209.599C16.8633 209.788 17.1317 209.963 17.4088 210.124L22.0594 212.815Z" fill="black"/>
<path opacity="0.1" d="M14.0054 206.551C14.1379 206.789 14.2749 207.008 14.4211 207.236C15.0048 208.146 15.7439 208.945 16.6047 209.598C16.8632 209.788 17.1316 209.963 17.4088 210.124L22.073 212.814L23.1054 210.663H23.1465L23.2196 209.781L12.8496 203.792C13.1352 204.75 13.5226 205.675 14.0054 206.551Z" fill="black"/>
<path d="M47.5776 178.365C47.3645 177.011 46.9824 175.69 46.4401 174.432C45.7819 172.865 44.7404 171.489 43.4113 170.43C42.5963 169.803 41.6645 169.345 40.6703 169.082C40.4419 169.023 40.2135 168.973 39.976 168.931C38.8232 168.741 37.6446 168.774 36.5041 169.027C36.0809 169.117 35.663 169.23 35.2524 169.365C34.8134 169.508 34.3819 169.673 33.9595 169.859C33.3943 170.109 32.8437 170.391 32.3104 170.704C31.7106 171.05 31.131 171.43 30.5744 171.841C30.1496 172.152 29.7247 172.486 29.309 172.837C23.1875 178.004 18.3451 187.218 17.1437 196.081C17.0615 196.684 16.9929 197.282 16.9473 197.881C16.8742 198.735 16.8376 199.589 16.8422 200.425C16.8422 201.115 16.8696 201.796 16.9244 202.421C16.9701 202.979 17.0295 203.518 17.1117 204.039C17.1939 204.559 17.2899 205.053 17.4041 205.537C17.6987 206.865 18.1801 208.145 18.8339 209.338C18.968 209.575 19.105 209.804 19.2451 210.023C19.8304 210.933 20.5711 211.732 21.4333 212.385C22.6829 213.321 24.1857 213.86 25.7458 213.929C26.9134 213.982 28.0812 213.827 29.1948 213.472C30.3307 213.123 31.4211 212.64 32.4429 212.033C33.1012 211.648 33.7372 211.225 34.3478 210.768C35.169 210.153 35.9502 209.486 36.6868 208.771C41.7987 203.856 45.8234 196.158 47.2989 188.497C47.516 187.373 47.6761 186.239 47.7786 185.099C47.8654 184.185 47.9065 183.226 47.9065 182.307C47.9065 180.986 47.7965 179.668 47.5776 178.365Z" fill="#16423C"/>
<path opacity="0.05" d="M17.4498 194.249C17.331 194.861 17.2305 195.478 17.1437 196.076C17.0569 196.675 16.9929 197.278 16.9473 197.876C16.8742 198.73 16.8376 199.585 16.8422 200.421C16.8422 201.111 16.8696 201.791 16.9244 202.417C16.9701 202.974 17.0295 203.513 17.1117 204.034C17.1939 204.555 17.2899 205.048 17.4041 205.533C17.6987 206.861 18.1801 208.14 18.834 209.333C18.968 209.571 19.105 209.799 19.2451 210.019C19.8304 210.928 20.5711 211.728 21.4333 212.38C22.6829 213.317 24.1857 213.855 25.7458 213.925C26.9134 213.977 28.0812 213.823 29.1948 213.468C30.3307 213.119 31.4211 212.636 32.4429 212.029C33.0139 211.695 33.5804 211.316 34.1377 210.914L17.4498 194.249Z" fill="black"/>
<path opacity="0.05" d="M17.6924 206.62C17.9738 207.572 18.3567 208.491 18.8345 209.361C18.9685 209.598 19.1055 209.827 19.2456 210.046C19.8309 210.955 20.5716 211.755 21.4338 212.408C22.4588 213.175 23.658 213.675 24.924 213.865L17.6924 206.62Z" fill="black"/>
<path opacity="0.1" d="M19.5751 187.04C19.0771 188.292 18.6614 189.566 18.2686 190.85L36.4412 209.023L36.6879 208.79C37.4748 208.029 38.219 207.225 38.9172 206.382L19.5751 187.04Z" fill="white"/>
<path opacity="0.1" d="M25.5131 176.757C24.6808 177.789 23.906 178.865 23.1924 179.982L43.1923 199.987C43.841 198.767 44.4349 197.502 44.9694 196.213L25.5131 176.757Z" fill="white"/>
<path opacity="0.1" d="M27.7837 174.244C27.3268 174.701 26.8335 175.222 26.3721 175.743L45.4949 194.866C45.7629 194.153 46.0126 193.431 46.2441 192.7L27.7837 174.244Z" fill="white"/>
<path opacity="0.1" d="M47.8614 180.941C47.8614 180.571 47.8112 180.21 47.7746 179.854C47.7746 179.74 47.7746 179.621 47.7381 179.502L47.697 179.142C47.6604 178.881 47.6239 178.621 47.5782 178.365C47.3652 177.011 46.983 175.69 46.4407 174.432C45.7825 172.865 44.741 171.489 43.4119 170.43C42.5969 169.803 41.6651 169.345 40.671 169.082C40.4425 169.023 40.2141 168.973 39.9766 168.931C38.8238 168.741 37.6452 168.774 36.5047 169.027L36.0479 169.137L47.8614 180.941Z" fill="white"/>
<path d="M43.9463 184.701C43.9463 192.874 39.1816 202.316 33.1515 206.327C32.8956 206.501 32.6353 206.661 32.3749 206.812C25.9793 210.503 20.7988 206.588 20.7988 198.063C20.7988 189.539 25.9793 179.639 32.3749 175.948C32.6353 175.802 32.8956 175.66 33.1515 175.537C39.1816 172.586 43.9463 176.524 43.9463 184.701Z" fill="#16423C"/>
<path opacity="0.4" d="M43.9463 184.701C43.9463 192.874 39.1816 202.316 33.1515 206.327C32.8956 206.501 32.6353 206.661 32.3749 206.812C25.9793 210.503 20.7988 206.588 20.7988 198.063C20.7988 189.539 25.9793 179.639 32.3749 175.948C32.6353 175.802 32.8956 175.66 33.1515 175.537C39.1816 172.586 43.9463 176.524 43.9463 184.701Z" fill="black"/>
<path d="M43.4351 184.998C43.4351 185.263 43.4351 185.528 43.4351 185.793C43.1427 193.413 38.7023 201.956 33.1336 205.665L32.9828 205.766C32.7864 205.889 32.59 206.012 32.3935 206.127C31.3278 206.77 30.147 207.2 28.9171 207.392C26.3223 207.744 24.1523 206.606 22.8093 204.281C21.9326 202.663 21.4358 200.866 21.3565 199.027C21.3291 198.625 21.3154 198.214 21.3154 197.785C21.3154 197.355 21.3154 197.004 21.352 196.606C21.4002 195.764 21.4932 194.926 21.6306 194.094C22.6083 188.205 25.7421 182.216 29.7439 178.598C30.2966 178.093 30.8843 177.627 31.5027 177.205C31.7905 177.008 32.0829 176.826 32.3752 176.657C32.6676 176.487 32.8732 176.382 33.1153 176.259L33.3209 176.163C34.7287 175.445 36.3279 175.19 37.8892 175.437C40.219 175.894 42.0006 177.721 42.8732 180.704C43.2595 182.102 43.4486 183.548 43.4351 184.998Z" fill="#16423C"/>
<path opacity="0.5" d="M43.4351 184.998C43.4351 185.263 43.4351 185.528 43.4351 185.793C43.1427 193.413 38.7023 201.956 33.1336 205.665L32.9828 205.766C32.7864 205.889 32.59 206.012 32.3935 206.127C31.3278 206.77 30.147 207.2 28.9171 207.392C26.3223 207.744 24.1523 206.606 22.8093 204.281C21.9326 202.663 21.4358 200.866 21.3565 199.027C21.3291 198.625 21.3154 198.214 21.3154 197.785C21.3154 197.355 21.3154 197.004 21.352 196.606C21.4002 195.764 21.4932 194.926 21.6306 194.094C22.6083 188.205 25.7421 182.216 29.7439 178.598C30.2966 178.093 30.8843 177.627 31.5027 177.205C31.7905 177.008 32.0829 176.826 32.3752 176.657C32.6676 176.487 32.8732 176.382 33.1153 176.259L33.3209 176.163C34.7287 175.445 36.3279 175.19 37.8892 175.437C40.219 175.894 42.0006 177.721 42.8732 180.704C43.2595 182.102 43.4486 183.548 43.4351 184.998Z" fill="black"/>
<path d="M41.5796 184.729C41.5796 184.459 41.5796 184.194 41.5796 183.929C41.5961 182.473 41.4085 181.021 41.0223 179.617C40.6405 178.088 39.8252 176.701 38.6742 175.624C38.4239 175.536 38.1674 175.468 37.9067 175.419C36.3455 175.172 34.7463 175.426 33.3385 176.145L33.1329 176.241C32.8908 176.364 32.6395 176.492 32.3928 176.638C32.1461 176.784 31.8081 176.99 31.5203 177.186C30.9019 177.609 30.3142 178.074 29.7615 178.58C25.7642 182.184 22.6258 188.173 21.6482 194.075C21.5108 194.907 21.4178 195.746 21.3696 196.588C21.3421 196.985 21.333 197.378 21.333 197.767C21.333 198.155 21.333 198.607 21.3741 199.009C21.445 200.853 21.9356 202.656 22.8086 204.281C23.1896 204.955 23.6806 205.56 24.2613 206.072C25.1679 206.376 26.1337 206.463 27.0799 206.323C28.3095 206.132 29.4903 205.704 30.5564 205.062C30.7528 204.948 30.9538 204.825 31.1457 204.697L31.2964 204.596C36.8469 200.891 41.2873 192.349 41.5796 184.729Z" fill="#16423C"/>
<path opacity="0.25" d="M41.5796 184.729C41.5796 184.459 41.5796 184.194 41.5796 183.929C41.5961 182.473 41.4085 181.021 41.0223 179.617C40.6405 178.088 39.8252 176.701 38.6742 175.624C38.4239 175.536 38.1674 175.468 37.9067 175.419C36.3455 175.172 34.7463 175.426 33.3385 176.145L33.1329 176.241C32.8908 176.364 32.6395 176.492 32.3928 176.638C32.1461 176.784 31.8081 176.99 31.5203 177.186C30.9019 177.609 30.3142 178.074 29.7615 178.58C25.7642 182.184 22.6258 188.173 21.6482 194.075C21.5108 194.907 21.4178 195.746 21.3696 196.588C21.3421 196.985 21.333 197.378 21.333 197.767C21.333 198.155 21.333 198.607 21.3741 199.009C21.445 200.853 21.9356 202.656 22.8086 204.281C23.1896 204.955 23.6806 205.56 24.2613 206.072C25.1679 206.376 26.1337 206.463 27.0799 206.323C28.3095 206.132 29.4903 205.704 30.5564 205.062C30.7528 204.948 30.9538 204.825 31.1457 204.697L31.2964 204.596C36.8469 200.891 41.2873 192.349 41.5796 184.729Z" fill="black"/>
<path d="M39.9854 168.932C33.302 168.178 27.8658 173.715 24.2386 178.689C18.9987 186.414 15.6776 196.195 17.4912 205.546C18.0851 208.146 19.2728 210.759 21.4382 212.399C19.2272 210.777 17.9435 208.168 17.3268 205.546C15.6548 197.89 17.7562 189.845 21.26 182.997C25.0015 176.236 31.3651 168.009 39.9854 168.932Z" fill="#F5F5F5"/>
<path opacity="0.35" d="M34.9292 187.049L32.709 185.766L37.0032 182.102L39.2234 183.385L34.9292 187.049Z" fill="black"/>
<path opacity="0.35" d="M36.2954 187.894C35.1579 187.09 33.189 187.698 31.517 188.223C31.115 188.36 30.7541 188.479 30.4252 188.579C30.3211 188.825 30.2653 189.089 30.2607 189.356C30.2607 190.649 31.3571 190.27 33.7418 189.511C34.5457 189.236 35.3686 189.019 36.2041 188.863C36.2772 189.521 36.734 190.119 38.5156 189.178L36.2954 187.894Z" fill="black"/>
<path opacity="0.45" d="M30.7944 204.733L28.5742 203.449V200.827L30.7944 202.111V204.733Z" fill="black"/>
<path opacity="0.35" d="M34.5636 194.779C34.5636 195.82 33.7825 196.752 32.6221 197.428C30.7948 198.502 30.0502 197.625 29.8812 196.77L29.4883 196.542C29.808 196.447 30.1149 196.314 30.4019 196.144C31.2057 195.733 31.8431 195.057 32.2064 194.23C33.5678 193.783 34.5636 193.609 34.5636 194.779Z" fill="black"/>
<path opacity="0.35" d="M26.2993 201.206C26.0548 201.063 25.7736 200.995 25.4907 201.01C25.443 200.874 25.4033 200.735 25.3719 200.594L23.1426 199.31C23.2025 199.697 23.3444 200.066 23.5587 200.393C23.773 200.72 24.0548 200.997 24.3852 201.206L26.6008 202.49C26.7055 202.274 26.7326 202.028 26.6777 201.795C26.6228 201.561 26.4892 201.353 26.2993 201.206Z" fill="black"/>
<path d="M33.741 189.512C31.3563 190.293 30.26 190.649 30.26 189.356C30.2645 189.089 30.3203 188.826 30.4244 188.58C28.7981 189.082 28.0398 189.146 28.0398 188.073C28.0398 187.282 28.5743 186.309 30.0453 185.455C31.6122 184.541 32.4893 184.756 32.7086 185.766L37.0027 182.111C37.0027 182.056 36.9662 182.006 36.9434 181.951C37.211 181.893 37.4682 181.794 37.7063 181.659L35.9338 180.599L35.7647 180.499H35.7373C35.2144 180.244 34.6287 180.147 34.0516 180.22C33.2821 180.303 32.5301 180.505 31.8223 180.818V180.754L34.0425 179.462L31.8223 178.196L30.3194 179.073L28.2819 180.256V182.874C25.2714 185.067 23.3938 187.927 23.3938 191.024C23.3938 192.431 23.773 193.23 24.3897 193.637H24.4171C24.47 193.671 24.5249 193.701 24.5816 193.728L26.4409 194.774C26.492 194.498 26.457 194.212 26.3404 193.957C26.9305 193.882 27.513 193.755 28.0809 193.578C30.3376 192.897 32.3431 191.823 32.3431 193.495C32.3441 193.747 32.2976 193.996 32.206 194.231C33.5765 193.774 34.5633 193.609 34.5633 194.779C34.5633 195.821 33.7821 196.752 32.6218 197.429C30.7945 198.502 30.0498 197.625 29.8808 196.771L29.4879 196.542L27.6606 195.487L23.1426 199.311L25.3628 200.594C25.4333 200.922 25.5469 201.238 25.7008 201.535C26.6943 201.5 27.6697 201.259 28.5651 200.827V201.887L32.0736 201.408V198.79C35.116 196.547 37.2129 193.527 37.2129 190.371C37.231 189.832 37.1457 189.296 36.9616 188.79C35.8609 188.887 34.7779 189.13 33.741 189.512Z" fill="#16423C"/>
<path opacity="0.15" d="M33.741 189.512C31.3563 190.293 30.26 190.649 30.26 189.356C30.2645 189.089 30.3203 188.826 30.4244 188.58C28.7981 189.082 28.0398 189.146 28.0398 188.073C28.0398 187.282 28.5743 186.309 30.0453 185.455C31.6122 184.541 32.4893 184.756 32.7086 185.766L37.0027 182.111C37.0027 182.056 36.9662 182.006 36.9434 181.951C37.211 181.893 37.4682 181.794 37.7063 181.659L35.9338 180.599L35.7647 180.499H35.7373C35.2144 180.244 34.6287 180.147 34.0516 180.22C33.2821 180.303 32.5301 180.505 31.8223 180.818V180.754L34.0425 179.462L31.8223 178.196L30.3194 179.073L28.2819 180.256V182.874C25.2714 185.067 23.3938 187.927 23.3938 191.024C23.3938 192.431 23.773 193.23 24.3897 193.637H24.4171C24.47 193.671 24.5249 193.701 24.5816 193.728L26.4409 194.774C26.492 194.498 26.457 194.212 26.3404 193.957C26.9305 193.882 27.513 193.755 28.0809 193.578C30.3376 192.897 32.3431 191.823 32.3431 193.495C32.3441 193.747 32.2976 193.996 32.206 194.231C33.5765 193.774 34.5633 193.609 34.5633 194.779C34.5633 195.821 33.7821 196.752 32.6218 197.429C30.7945 198.502 30.0498 197.625 29.8808 196.771L29.4879 196.542L27.6606 195.487L23.1426 199.311L25.3628 200.594C25.4333 200.922 25.5469 201.238 25.7008 201.535C26.6943 201.5 27.6697 201.259 28.5651 200.827V201.887L32.0736 201.408V198.79C35.116 196.547 37.2129 193.527 37.2129 190.371C37.231 189.832 37.1457 189.296 36.9616 188.79C35.8609 188.887 34.7779 189.13 33.741 189.512Z" fill="black"/>
<g opacity="0.2">
<path d="M28.2916 182.874C26.6008 184.159 25.2284 185.816 24.2806 187.716C23.8363 188.67 23.5774 189.699 23.5177 190.75C23.4672 191.272 23.4949 191.798 23.6 192.312C23.689 192.835 23.9689 193.307 24.3857 193.637C23.9292 193.338 23.6027 192.878 23.472 192.348C23.335 191.824 23.2765 191.282 23.2984 190.74C23.3393 189.656 23.5971 188.59 24.0568 187.607C24.5278 186.632 25.1439 185.734 25.8841 184.943C26.6005 184.159 27.4088 183.464 28.2916 182.874Z" fill="black"/>
</g>
<path d="M36.9707 188.79C35.8668 188.886 34.7807 189.129 33.7409 189.511C31.3562 190.293 30.2599 190.649 30.2599 189.356C30.2644 189.089 30.3202 188.825 30.4243 188.579C30.8236 187.791 31.4637 187.151 32.2516 186.752C33.8185 185.838 34.6957 186.058 34.9149 187.067L39.2091 183.413C39.0725 182.859 38.7517 182.368 38.2994 182.02C37.847 181.672 37.2899 181.488 36.7194 181.499C35.792 181.52 34.8791 181.733 34.0378 182.124V179.479L31.8222 180.754L30.502 181.521V184.139C27.4915 186.332 25.6139 189.196 25.6139 192.284C25.5944 192.869 25.6859 193.452 25.8834 194.002C26.5504 195.66 28.3686 195.432 30.2873 194.87C30.9588 194.669 31.6121 194.413 32.1922 194.24C33.5627 193.783 34.5495 193.618 34.5495 194.788C34.5495 195.829 33.7683 196.761 32.608 197.437C30.7806 198.511 30.036 197.634 29.867 196.78L25.3535 200.603C25.424 200.93 25.5377 201.247 25.6916 201.544C26.2809 202.645 27.3316 202.951 28.5559 202.787C29.3236 202.67 30.0711 202.446 30.7761 202.12V204.742L34.2845 202.714V200.078C37.327 197.839 39.4238 194.82 39.4238 191.663C39.4421 189.383 38.364 188.758 36.9707 188.79Z" fill="#16423C"/>
<g opacity="0.1">
<path d="M36.9707 188.79C35.8668 188.886 34.7807 189.129 33.7409 189.511C31.3562 190.293 30.2599 190.649 30.2599 189.356C30.2644 189.089 30.3202 188.825 30.4243 188.579C30.8236 187.791 31.4637 187.151 32.2516 186.752C33.8185 185.838 34.6957 186.058 34.9149 187.067L39.2091 183.413C39.0725 182.859 38.7517 182.368 38.2994 182.02C37.847 181.672 37.2899 181.488 36.7194 181.499C35.792 181.52 34.8791 181.733 34.0378 182.124V179.479L31.8222 180.754L30.502 181.521V184.139C27.4915 186.332 25.6139 189.196 25.6139 192.284C25.5944 192.869 25.6859 193.452 25.8834 194.002C26.5504 195.66 28.3686 195.432 30.2873 194.87C30.9588 194.669 31.6121 194.413 32.1922 194.24C33.5627 193.783 34.5495 193.618 34.5495 194.788C34.5495 195.829 33.7683 196.761 32.608 197.437C30.7806 198.511 30.036 197.634 29.867 196.78L25.3535 200.603C25.424 200.93 25.5377 201.247 25.6916 201.544C26.2809 202.645 27.3316 202.951 28.5559 202.787C29.3236 202.67 30.0711 202.446 30.7761 202.12V204.742L34.2845 202.714V200.078C37.327 197.839 39.4238 194.82 39.4238 191.663C39.4421 189.383 38.364 188.758 36.9707 188.79Z" fill="white"/>
</g>
<path opacity="0.1" d="M29.5708 197.036L26.7979 199.379L29.8769 202.463C30.1784 202.362 30.4845 202.248 30.7905 202.111V203.376L31.6494 204.235L34.299 202.705V201.791L29.5708 197.036Z" fill="white"/>
<path opacity="0.1" d="M36.9706 188.789C35.8667 188.886 34.7806 189.129 33.7408 189.511L32.9688 189.763L38.5192 195.308C39.1061 194.179 39.4191 192.927 39.4329 191.654C39.4362 191.295 39.4025 190.937 39.3324 190.585L37.5736 188.826C37.3741 188.796 37.1723 188.783 36.9706 188.789Z" fill="white"/>
<path opacity="0.1" d="M30.9681 187.757C31.3494 187.35 31.7917 187.005 32.2792 186.734C33.8461 185.82 34.7232 186.04 34.9425 187.049L35.3993 186.647L30.5113 181.755V184.158C29.9092 184.597 29.3383 185.078 28.8027 185.597L30.9681 187.757Z" fill="white"/>
<path opacity="0.1" d="M35.2302 181.691C34.8298 181.803 34.4362 181.939 34.0516 182.097V180.512L33.3983 179.841L31.8223 180.754L31.5527 180.91L36.4134 185.779L37.9849 184.441L35.2302 181.691Z" fill="white"/>
<path opacity="0.1" d="M27.803 195.268L25.6787 193.148C25.7135 193.44 25.7825 193.727 25.8843 194.002C26.0319 194.387 26.2963 194.716 26.6404 194.943C26.9845 195.17 27.3911 195.284 27.803 195.268Z" fill="white"/>
<path d="M30.5122 184.157L28.292 182.873V180.256L30.5122 181.539V184.157Z" fill="#16423C"/>
<path opacity="0.35" d="M30.5122 184.157L28.292 182.873V180.256L30.5122 181.539V184.157Z" fill="black"/>
<path d="M34.3027 200.069C34.3027 200.069 34.4306 199.973 34.6454 199.795C34.7804 199.695 34.91 199.588 35.0337 199.475C35.1798 199.347 35.3534 199.21 35.527 199.045C35.7006 198.881 35.8925 198.707 36.0844 198.511L36.3767 198.209C36.4772 198.104 36.5732 197.995 36.6737 197.885C36.7742 197.775 36.8747 197.661 36.9706 197.542C37.0666 197.424 37.1716 197.305 37.2676 197.182C37.4549 196.93 37.6513 196.679 37.8203 196.409C37.9893 196.14 38.1584 195.87 38.3183 195.601C38.4669 195.333 38.6011 195.057 38.7203 194.774C38.8482 194.505 38.935 194.23 39.0355 193.975C39.072 193.844 39.1086 193.716 39.1451 193.591L39.1999 193.408C39.1999 193.349 39.2273 193.289 39.2365 193.23C39.2867 192.997 39.337 192.773 39.3598 192.59C39.3827 192.408 39.4146 192.229 39.4192 192.092C39.4192 191.814 39.4421 191.636 39.4421 191.636C39.4421 191.636 39.4421 191.796 39.4421 192.092C39.4377 192.261 39.424 192.428 39.4009 192.595C39.38 192.813 39.3464 193.03 39.3004 193.244C39.3004 193.303 39.3004 193.362 39.2639 193.422C39.2273 193.481 39.2319 193.545 39.2136 193.609C39.1954 193.673 39.1451 193.865 39.1086 193.997C39.0219 194.272 38.9213 194.542 38.8071 194.806C38.6929 195.089 38.5512 195.363 38.4051 195.642C38.2589 195.921 38.0944 196.199 37.9071 196.46C37.7198 196.72 37.5371 196.985 37.3452 197.236C37.2493 197.36 37.1442 197.478 37.0483 197.597L36.7468 197.94L36.4453 198.264L36.1392 198.561C35.9473 198.753 35.7463 198.922 35.5682 199.082C35.39 199.242 35.2164 199.379 35.0656 199.502C34.9149 199.626 34.7778 199.726 34.6682 199.808L34.3027 200.069Z" fill="white"/>
<path d="M30.5117 181.54L34.0521 179.479V182.097L33.8146 179.904L30.5117 181.54Z" fill="#FAFAFA"/>
<path d="M30.7949 202.111L30.9822 204.386L34.3034 202.705L30.7949 204.733V202.111Z" fill="#FAFAFA"/>
<path d="M41.6028 171.262L41.8997 167.365L42.1967 171.262L46.0934 171.558L42.1967 171.855L41.8997 175.752L41.6028 171.855L37.7061 171.558L41.6028 171.262Z" fill="white"/>
<path d="M44.8698 174.582L45.0114 172.691L45.1576 174.582L47.0443 174.724L45.1576 174.87L45.0114 176.757L44.8698 174.87L42.9785 174.724L44.8698 174.582Z" fill="white"/>
<path d="M39.3484 78.3517L40.8534 75.2138L34.273 71.3996C33.4951 70.9477 32.6614 70.5995 31.7931 70.3638C31.4885 70.2846 31.1838 70.2176 30.8731 70.1627C29.3356 69.9089 27.7636 69.9523 26.2424 70.2907C25.6776 70.4083 25.1202 70.5589 24.573 70.7416C23.9872 70.9309 23.4116 71.1505 22.8487 71.3996C22.0884 71.737 21.3479 72.1175 20.6308 72.539C19.8342 73.0026 19.0633 73.509 18.3216 74.0561C17.7488 74.4705 17.1883 74.9153 16.6277 75.3844C8.46314 82.2939 2.06552 94.5834 0.408228 106.404C0.292462 107.208 0.207159 108.006 0.140136 108.804C0.0426482 109.95 0 111.083 0 112.198C0 113.118 0.042651 114.026 0.109674 114.861C0.170604 115.604 0.255903 116.323 0.359483 117.018C0.463064 117.712 0.597109 118.37 0.749433 119.016C1.15371 120.787 1.80168 122.493 2.67482 124.086C2.85151 124.402 3.0343 124.695 3.22928 125C4.00779 126.212 4.99364 127.279 6.14172 128.15C6.48642 128.402 6.84439 128.636 7.21408 128.85L13.435 132.439L14.812 129.569C15.1776 129.49 15.5432 129.393 15.9149 129.283C17.4293 128.816 18.8834 128.171 20.247 127.364C21.1237 126.847 21.9718 126.284 22.7877 125.676C23.883 124.855 24.9249 123.966 25.9073 123.013C32.7254 116.451 38.0933 106.19 40.0613 95.9726C40.3528 94.4734 40.5684 92.9604 40.7072 91.4394C40.8168 90.1843 40.8778 88.9413 40.8717 87.7166C40.8722 85.9469 40.7275 84.1801 40.4391 82.434C40.1998 81.043 39.8348 79.6767 39.3484 78.3517Z" fill="#16423C"/>
<path opacity="0.25" d="M1.90723 99.4272L15.2569 107.135L17.0117 102.053L3.64982 94.3274C2.98568 95.9968 2.40076 97.6968 1.90723 99.4272Z" fill="white"/>
<path opacity="0.25" d="M34.2736 71.3996C33.4957 70.9477 32.662 70.5995 31.7938 70.3638C31.4891 70.2846 31.1845 70.2176 30.8738 70.1627C29.3362 69.9089 27.7643 69.9523 26.2431 70.2907L25.6338 70.4369L39.3674 78.3578C39.3674 78.3578 39.3674 78.3578 39.3674 78.3273L40.8723 75.1894L34.2736 71.3996Z" fill="white"/>
<path opacity="0.25" d="M32.8468 90.8973L34.6016 88.7831L14.5861 77.2734C13.9525 77.903 13.331 78.5651 12.7217 79.2597L32.8468 90.8973Z" fill="white"/>
<path opacity="0.25" d="M8.46973 84.9198L25.8286 94.9306L27.7357 89.9404L11.5893 80.6182C10.473 81.995 9.43159 83.4309 8.46973 84.9198Z" fill="white"/>
<path opacity="0.4" d="M34.2731 71.3996C33.4952 70.9477 32.6615 70.5995 31.7933 70.3638C31.4886 70.2846 31.184 70.2176 30.8732 70.1627C29.3357 69.9089 27.7638 69.9523 26.2426 70.2907C25.6778 70.4083 25.1203 70.5589 24.5731 70.7416C23.9873 70.9309 23.4118 71.1505 22.8488 71.3996C22.0885 71.737 21.348 72.1175 20.631 72.539C19.8343 73.0026 19.0634 73.509 18.3217 74.0561C17.749 74.4705 17.1884 74.9153 16.6279 75.3844C9.02384 81.8064 2.93086 92.9078 0.786133 103.948L28.631 120.028C34.3668 113.073 38.2805 104.8 40.0188 95.9543C40.3103 94.4551 40.5259 92.9421 40.6647 91.4211C40.7743 90.166 40.8353 88.923 40.8292 87.6983C40.8297 85.9286 40.685 84.1618 40.3966 82.4157C40.1632 81.0253 39.8043 79.659 39.3242 78.3334L40.8292 75.1955L34.2731 71.3996Z" fill="white"/>
<path opacity="0.1" d="M13.4167 132.439L14.7937 129.569C15.1593 129.49 15.5249 129.392 15.8966 129.283C17.4111 128.816 18.8651 128.171 20.2287 127.364C21.1054 126.847 21.9536 126.284 22.7694 125.676C23.8647 124.855 24.9067 123.966 25.8891 123.013C26.8619 122.073 27.7852 121.082 28.6553 120.046L0.810367 103.966C0.651949 104.777 0.517902 105.593 0.408228 106.404C0.298555 107.214 0.207159 108.006 0.140136 108.804C0.0426482 109.95 0 111.083 0 112.198C0 113.118 0.042651 114.026 0.109674 114.861C0.170603 115.604 0.255903 116.323 0.359483 117.018C0.463064 117.712 0.597109 118.37 0.749433 119.016C1.15371 120.787 1.80168 122.493 2.67482 124.085C2.85151 124.402 3.0343 124.695 3.22928 124.999C4.00779 126.212 4.99364 127.278 6.14172 128.15C6.48642 128.402 6.84438 128.636 7.21408 128.85L13.4167 132.439Z" fill="black"/>
<path opacity="0.1" d="M2.67531 124.085C2.85201 124.402 3.0348 124.695 3.22977 124.999C4.00829 126.212 4.99413 127.278 6.14222 128.149C6.48692 128.402 6.84488 128.636 7.21458 128.85L13.4355 132.439L14.8125 129.569H14.8674L14.9648 128.393L1.13379 120.405C1.51465 121.684 2.03144 122.917 2.67531 124.085Z" fill="black"/>
<path d="M47.4521 86.492C47.1679 84.6867 46.6582 82.9243 45.9349 81.246C45.057 79.1563 43.6679 77.3209 41.8953 75.9085C40.8083 75.0723 39.5654 74.4613 38.2395 74.1111C37.9348 74.0319 37.6302 73.9649 37.3133 73.91C35.7758 73.6562 34.2039 73.6996 32.6827 74.038C32.1182 74.1571 31.5609 74.3077 31.0132 74.4889C30.4278 74.6792 29.8523 74.8988 29.2889 75.1469C28.535 75.4808 27.8006 75.8571 27.0893 76.2741C26.2894 76.7355 25.5164 77.242 24.774 77.7912C24.2074 78.2056 23.6407 78.6504 23.0862 79.1195C14.9217 86.0107 8.46311 98.3002 6.86066 110.121C6.75098 110.925 6.65959 111.723 6.59866 112.521C6.50117 113.661 6.45242 114.8 6.45852 115.915C6.45852 116.835 6.49507 117.743 6.56819 118.578C6.62912 119.321 6.70833 120.04 6.818 120.735C6.92768 121.429 7.05563 122.087 7.20795 122.733C7.60091 124.504 8.243 126.211 9.11505 127.802C9.29378 128.119 9.47657 128.424 9.66342 128.716C10.4441 129.929 11.432 130.996 12.582 131.866C14.2486 133.116 16.253 133.833 18.3337 133.926C19.8911 133.996 21.4486 133.79 22.9339 133.317C24.449 132.851 25.9032 132.207 27.266 131.397C28.1441 130.883 28.9924 130.32 29.8068 129.709C30.902 128.889 31.944 128 32.9264 127.047C39.7444 120.491 45.1124 110.224 47.0804 100.006C47.3699 98.5069 47.5834 96.9939 47.7201 95.4731C47.8359 94.2545 47.8908 92.9749 47.8908 91.7503C47.8908 89.9884 47.7441 88.2295 47.4521 86.492Z" fill="#16423C"/>
<path opacity="0.05" d="M7.26888 107.677C7.11047 108.494 6.97642 109.316 6.86066 110.114C6.74489 110.913 6.65959 111.717 6.59866 112.515C6.50117 113.655 6.45242 114.794 6.45852 115.909C6.45852 116.829 6.49507 117.737 6.56819 118.572C6.62912 119.315 6.70833 120.034 6.818 120.728C6.92768 121.423 7.05563 122.081 7.20795 122.727C7.60091 124.498 8.243 126.205 9.11505 127.796C9.29378 128.113 9.47657 128.418 9.66342 128.71C10.4441 129.923 11.432 130.99 12.582 131.86C14.2486 133.109 16.253 133.827 18.3337 133.92C19.8911 133.99 21.4486 133.784 22.9339 133.31C24.449 132.845 25.9032 132.201 27.266 131.391C28.0277 130.946 28.7832 130.441 29.5265 129.904L7.26888 107.677Z" fill="black"/>
<path opacity="0.05" d="M7.5918 124.177C7.96712 125.446 8.4778 126.672 9.11504 127.832C9.29377 128.149 9.47656 128.454 9.66341 128.746C10.444 129.959 11.4319 131.026 12.5819 131.896C13.949 132.919 15.5484 133.587 17.237 133.84L7.5918 124.177Z" fill="black"/>
<path opacity="0.1" d="M10.1029 98.0625C9.43881 99.732 8.88435 101.432 8.36035 103.144L32.5982 127.382L32.9272 127.071C33.9768 126.056 34.9694 124.984 35.9006 123.86L10.1029 98.0625Z" fill="white"/>
<path opacity="0.1" d="M18.0239 84.347C16.9138 85.7228 15.8805 87.1589 14.9287 88.6486L41.6038 115.33C42.469 113.703 43.261 112.015 43.9739 110.297L18.0239 84.347Z" fill="white"/>
<path opacity="0.1" d="M21.0517 80.9961C20.4424 81.6054 19.7843 82.3 19.1689 82.9946L44.6741 108.5C45.0316 107.549 45.3647 106.587 45.6734 105.612L21.0517 80.9961Z" fill="white"/>
<path opacity="0.1" d="M47.8307 89.9282C47.8307 89.4347 47.7636 88.9534 47.7149 88.4781C47.7149 88.3258 47.7149 88.1674 47.6661 88.009L47.6113 87.5276C47.5626 87.1803 47.5138 86.833 47.4529 86.4918C47.1687 84.6865 46.659 82.924 45.9357 81.2458C45.0579 79.1561 43.6687 77.3207 41.8961 75.9083C40.8091 75.0721 39.5663 74.461 38.2403 74.1109C37.9357 74.0317 37.631 73.9646 37.3142 73.9098C35.7766 73.656 34.2047 73.6994 32.6835 74.0378L32.0742 74.184L47.8307 89.9282Z" fill="white"/>
<path d="M42.6084 94.9425C42.6084 105.843 36.2535 118.437 28.2108 123.787C27.8696 124.018 27.5223 124.231 27.175 124.433C18.6448 129.356 11.7354 124.134 11.7354 112.764C11.7354 101.395 18.6448 88.1915 27.175 83.2684C27.5223 83.0734 27.8696 82.8845 28.2108 82.72C36.2535 78.7839 42.6084 84.0361 42.6084 94.9425Z" fill="#16423C"/>
<path opacity="0.4" d="M42.6084 94.9425C42.6084 105.843 36.2535 118.437 28.2108 123.787C27.8696 124.018 27.5223 124.231 27.175 124.433C18.6448 129.356 11.7354 124.134 11.7354 112.764C11.7354 101.395 18.6448 88.1915 27.175 83.2684C27.5223 83.0734 27.8696 82.8845 28.2108 82.72C36.2535 78.7839 42.6084 84.0361 42.6084 94.9425Z" fill="black"/>
<path d="M41.926 95.3389C41.926 95.6923 41.926 96.0457 41.926 96.3991C41.5361 106.562 35.6137 117.956 28.1864 122.904L27.9853 123.038C27.7233 123.202 27.4613 123.367 27.1993 123.519C25.7779 124.377 24.203 124.95 22.5625 125.207C19.1017 125.676 16.2076 124.159 14.4162 121.057C13.2469 118.899 12.5843 116.503 12.4787 114.05C12.4421 113.514 12.4238 112.966 12.4238 112.393C12.4238 111.82 12.4238 111.351 12.4726 110.821C12.5369 109.698 12.661 108.58 12.8442 107.47C14.1481 99.6162 18.3279 91.6283 23.6654 86.8026C24.4025 86.1286 25.1864 85.5076 26.0112 84.9443C26.395 84.6823 26.785 84.4386 27.1749 84.2131C27.5649 83.9877 27.8391 83.8475 28.162 83.683L28.4362 83.5551C30.3139 82.5967 32.4468 82.2576 34.5291 82.5863C37.6366 83.1956 40.0128 85.6328 41.1766 89.6115C41.6918 91.4764 41.9441 93.4042 41.926 95.3389Z" fill="#16423C"/>
<path opacity="0.5" d="M41.926 95.3389C41.926 95.6923 41.926 96.0457 41.926 96.3991C41.5361 106.562 35.6137 117.956 28.1864 122.904L27.9853 123.038C27.7233 123.202 27.4613 123.367 27.1993 123.519C25.7779 124.377 24.203 124.95 22.5625 125.207C19.1017 125.676 16.2076 124.159 14.4162 121.057C13.2469 118.899 12.5843 116.503 12.4787 114.05C12.4421 113.514 12.4238 112.966 12.4238 112.393C12.4238 111.82 12.4238 111.351 12.4726 110.821C12.5369 109.698 12.661 108.58 12.8442 107.47C14.1481 99.6162 18.3279 91.6283 23.6654 86.8026C24.4025 86.1286 25.1864 85.5076 26.0112 84.9443C26.395 84.6823 26.785 84.4386 27.1749 84.2131C27.5649 83.9877 27.8391 83.8475 28.162 83.683L28.4362 83.5551C30.3139 82.5967 32.4468 82.2576 34.5291 82.5863C37.6366 83.1956 40.0128 85.6328 41.1766 89.6115C41.6918 91.4764 41.9441 93.4042 41.926 95.3389Z" fill="black"/>
<path d="M39.4523 94.9797C39.4523 94.6202 39.4523 94.2668 39.4523 93.9134C39.4742 91.9709 39.224 90.0348 38.709 88.1617C38.1998 86.122 37.1123 84.2728 35.5772 82.8364C35.2434 82.7193 34.9012 82.6277 34.5536 82.5622C32.4712 82.2335 30.3383 82.5727 28.4606 83.531L28.1864 83.6589C27.8635 83.8235 27.5284 83.9941 27.1993 84.189C26.8703 84.384 26.4194 84.6582 26.0356 84.9202C25.2108 85.4836 24.4269 86.1046 23.6898 86.7786C18.3584 91.5859 14.1726 99.5738 12.8687 107.446C12.6854 108.556 12.5613 109.674 12.497 110.797C12.4604 111.327 12.4482 111.851 12.4482 112.369C12.4482 112.887 12.4482 113.49 12.5031 114.026C12.5975 116.485 13.2519 118.89 14.4163 121.058C14.9245 121.956 15.5794 122.763 16.3538 123.446C17.563 123.853 18.8512 123.967 20.1132 123.781C21.7532 123.527 23.3281 122.955 24.75 122.1C25.012 121.947 25.2801 121.783 25.536 121.612L25.737 121.478C33.14 116.537 39.0624 105.143 39.4523 94.9797Z" fill="#16423C"/>
<path opacity="0.25" d="M39.4523 94.9797C39.4523 94.6202 39.4523 94.2668 39.4523 93.9134C39.4742 91.9709 39.224 90.0348 38.709 88.1617C38.1998 86.122 37.1123 84.2728 35.5772 82.8364C35.2434 82.7193 34.9012 82.6277 34.5536 82.5622C32.4712 82.2335 30.3383 82.5727 28.4606 83.531L28.1864 83.6589C27.8635 83.8235 27.5284 83.9941 27.1993 84.189C26.8703 84.384 26.4194 84.6582 26.0356 84.9202C25.2108 85.4836 24.4269 86.1046 23.6898 86.7786C18.3584 91.5859 14.1726 99.5738 12.8687 107.446C12.6854 108.556 12.5613 109.674 12.497 110.797C12.4604 111.327 12.4482 111.851 12.4482 112.369C12.4482 112.887 12.4482 113.49 12.5031 114.026C12.5975 116.485 13.2519 118.89 14.4163 121.058C14.9245 121.956 15.5794 122.763 16.3538 123.446C17.563 123.853 18.8512 123.967 20.1132 123.781C21.7532 123.527 23.3281 122.955 24.75 122.1C25.012 121.947 25.2801 121.783 25.536 121.612L25.737 121.478C33.14 116.537 39.0624 105.143 39.4523 94.9797Z" fill="black"/>
<path d="M37.326 73.91C28.412 72.9047 21.1614 80.2893 16.3235 86.9246C9.3349 97.2278 4.9053 110.273 7.32421 122.745C8.1163 126.212 9.70047 129.697 12.5885 131.885C9.63954 129.722 7.92742 126.243 7.10487 122.745C4.87484 112.533 7.67761 101.804 12.3509 92.6703C17.3411 83.6527 25.8286 72.6792 37.326 73.91Z" fill="#F5F5F5"/>
<path opacity="0.35" d="M30.5803 98.0744L27.6191 96.3623L33.3465 91.4757L36.3077 93.1878L30.5803 98.0744Z" fill="black"/>
<path opacity="0.35" d="M32.4023 99.2019C30.8852 98.1296 28.2591 98.9399 26.0291 99.6406C25.4929 99.8234 25.0116 99.9818 24.5729 100.116C24.434 100.444 24.3596 100.796 24.3535 101.152C24.3535 102.876 25.8158 102.37 28.9964 101.359C30.0686 100.991 31.1662 100.702 32.2805 100.494C32.378 101.371 32.9873 102.169 35.3635 100.914L32.4023 99.2019Z" fill="black"/>
<path opacity="0.45" d="M25.0667 121.66L22.1055 119.948V116.45L25.0667 118.163V121.66Z" fill="black"/>
<path opacity="0.35" d="M30.0935 108.383C30.0935 109.772 29.0516 111.015 27.504 111.917C25.0668 113.349 24.0737 112.179 23.8482 111.039L23.3242 110.735C23.7506 110.609 24.1599 110.431 24.5428 110.205C25.6149 109.656 26.4649 108.754 26.9495 107.652C28.7652 107.055 30.0935 106.823 30.0935 108.383Z" fill="black"/>
<path opacity="0.35" d="M19.0706 116.956C18.7445 116.765 18.3695 116.674 17.9921 116.694C17.9285 116.513 17.8756 116.328 17.8337 116.14L14.8604 114.428C14.9403 114.943 15.1295 115.435 15.4154 115.871C15.7012 116.307 16.077 116.677 16.5176 116.956L19.4727 118.668C19.6124 118.38 19.6486 118.053 19.5754 117.741C19.5022 117.429 19.3239 117.152 19.0706 116.956Z" fill="black"/>
<path d="M28.9961 101.359C25.8155 102.401 24.3532 102.876 24.3532 101.152C24.3593 100.796 24.4337 100.444 24.5726 100.116C22.4035 100.786 21.392 100.871 21.392 99.4396C21.392 98.3855 22.1049 97.0877 24.0668 95.9483C26.1567 94.7297 27.3266 95.0161 27.619 96.3627L33.3464 91.4883C33.3464 91.4152 33.2977 91.3481 33.2672 91.275C33.6241 91.1971 33.9672 91.0657 34.2848 90.8851L31.9207 89.4715L31.6952 89.3375H31.6587C30.9612 88.998 30.18 88.8689 29.4104 88.9658C28.384 89.0769 27.381 89.3462 26.437 89.764V89.6787L29.3982 87.9544L26.437 86.2666L24.4324 87.4365L21.7149 89.0145V92.5058C17.6997 95.4304 15.1955 99.2446 15.1955 103.376C15.1955 105.252 15.7012 106.319 16.5237 106.861H16.5603C16.6307 106.906 16.704 106.947 16.7796 106.983L19.2595 108.378C19.3277 108.009 19.2809 107.629 19.1254 107.287C19.9126 107.187 20.6894 107.018 21.4469 106.782C24.4568 105.874 27.1316 104.442 27.1316 106.672C27.1329 107.008 27.0709 107.34 26.9488 107.653C28.7767 107.044 30.0928 106.824 30.0928 108.384C30.0928 109.773 29.0509 111.016 27.5033 111.918C25.0661 113.35 24.0729 112.18 23.8475 111.041L23.3235 110.736L20.8863 109.329L14.8604 114.428L17.8215 116.14C17.9156 116.577 18.0672 116.999 18.2724 117.396C19.5975 117.349 20.8984 117.027 22.0927 116.451V117.865L26.7721 117.225V113.734C30.83 110.742 33.6267 106.715 33.6267 102.504C33.6509 101.787 33.5372 101.071 33.2916 100.396C31.8235 100.526 30.3791 100.85 28.9961 101.359Z" fill="#16423C"/>
<path opacity="0.15" d="M28.9961 101.359C25.8155 102.401 24.3532 102.876 24.3532 101.152C24.3593 100.796 24.4337 100.444 24.5726 100.116C22.4035 100.786 21.392 100.871 21.392 99.4396C21.392 98.3855 22.1049 97.0877 24.0668 95.9483C26.1567 94.7297 27.3266 95.0161 27.619 96.3627L33.3464 91.4883C33.3464 91.4152 33.2977 91.3481 33.2672 91.275C33.6241 91.1971 33.9672 91.0657 34.2848 90.8851L31.9207 89.4715L31.6952 89.3375H31.6587C30.9612 88.998 30.18 88.8689 29.4104 88.9658C28.384 89.0769 27.381 89.3462 26.437 89.764V89.6787L29.3982 87.9544L26.437 86.2666L24.4324 87.4365L21.7149 89.0145V92.5058C17.6997 95.4304 15.1955 99.2446 15.1955 103.376C15.1955 105.252 15.7012 106.319 16.5237 106.861H16.5603C16.6307 106.906 16.704 106.947 16.7796 106.983L19.2595 108.378C19.3277 108.009 19.2809 107.629 19.1254 107.287C19.9126 107.187 20.6894 107.018 21.4469 106.782C24.4568 105.874 27.1316 104.442 27.1316 106.672C27.1329 107.008 27.0709 107.34 26.9488 107.653C28.7767 107.044 30.0928 106.824 30.0928 108.384C30.0928 109.773 29.0509 111.016 27.5033 111.918C25.0661 113.35 24.0729 112.18 23.8475 111.041L23.3235 110.736L20.8863 109.329L14.8604 114.428L17.8215 116.14C17.9156 116.577 18.0672 116.999 18.2724 117.396C19.5975 117.349 20.8984 117.027 22.0927 116.451V117.865L26.7721 117.225V113.734C30.83 110.742 33.6267 106.715 33.6267 102.504C33.6509 101.787 33.5372 101.071 33.2916 100.396C31.8235 100.526 30.3791 100.85 28.9961 101.359Z" fill="black"/>
<g opacity="0.2">
<path d="M21.7271 92.5053C19.4721 94.2193 17.6417 96.4292 16.3775 98.9639C15.7849 100.236 15.4396 101.609 15.36 103.01C15.2926 103.706 15.3296 104.408 15.4697 105.093C15.5884 105.792 15.9618 106.421 16.5177 106.86C15.9088 106.462 15.4733 105.848 15.2991 105.142C15.1163 104.443 15.0382 103.72 15.0675 102.997C15.122 101.551 15.4659 100.129 16.079 98.8177C16.7072 97.5172 17.5289 96.3195 18.5162 95.2655C19.4717 94.2197 20.5498 93.293 21.7271 92.5053Z" fill="black"/>
</g>
<path d="M33.304 100.395C31.8318 100.524 30.3832 100.848 28.9963 101.358C25.8157 102.4 24.3534 102.875 24.3534 101.151C24.3595 100.795 24.4339 100.443 24.5728 100.115C25.1053 99.0641 25.959 98.2104 27.01 97.6779C29.0999 96.4593 30.2697 96.7518 30.5622 98.0983L36.2896 93.2239C36.1074 92.485 35.6795 91.8299 35.0762 91.3661C34.4729 90.9022 33.7298 90.6571 32.9689 90.671C31.732 90.7 30.5143 90.9842 29.3923 91.5057V87.9779L26.4372 89.6778L24.6764 90.7014V94.1927C20.6611 97.1173 18.1569 100.938 18.1569 105.056C18.1309 105.836 18.2529 106.613 18.5164 107.347C19.4059 109.559 21.8309 109.255 24.39 108.505C25.2857 108.237 26.1569 107.896 26.9308 107.664C28.7586 107.055 30.0747 106.836 30.0747 108.395C30.0747 109.785 29.0328 111.028 27.4852 111.929C25.048 113.361 24.0549 112.191 23.8294 111.052L17.8096 116.152C17.9036 116.588 18.0552 117.01 18.2605 117.407C19.0464 118.875 20.4478 119.284 22.0807 119.064C23.1048 118.909 24.1017 118.609 25.0419 118.175V121.672L29.7213 118.967V115.451C33.7793 112.466 36.5759 108.438 36.5759 104.228C36.6003 101.187 35.1624 100.353 33.304 100.395Z" fill="#16423C"/>
<g opacity="0.1">
<path d="M33.304 100.395C31.8318 100.524 30.3832 100.848 28.9963 101.358C25.8157 102.4 24.3534 102.875 24.3534 101.151C24.3595 100.795 24.4339 100.443 24.5728 100.115C25.1053 99.0641 25.959 98.2104 27.01 97.6779C29.0999 96.4593 30.2697 96.7518 30.5622 98.0983L36.2896 93.2239C36.1074 92.485 35.6795 91.8299 35.0762 91.3661C34.4729 90.9022 33.7298 90.6571 32.9689 90.671C31.732 90.7 30.5143 90.9842 29.3923 91.5057V87.9779L26.4372 89.6778L24.6764 90.7014V94.1927C20.6611 97.1173 18.1569 100.938 18.1569 105.056C18.1309 105.836 18.2529 106.613 18.5164 107.347C19.4059 109.559 21.8309 109.255 24.39 108.505C25.2857 108.237 26.1569 107.896 26.9308 107.664C28.7586 107.055 30.0747 106.836 30.0747 108.395C30.0747 109.785 29.0328 111.028 27.4852 111.929C25.048 113.361 24.0549 112.191 23.8294 111.052L17.8096 116.152C17.9036 116.588 18.0552 117.01 18.2605 117.407C19.0464 118.875 20.4478 119.284 22.0807 119.064C23.1048 118.909 24.1017 118.609 25.0419 118.175V121.672L29.7213 118.967V115.451C33.7793 112.466 36.5759 108.438 36.5759 104.228C36.6003 101.187 35.1624 100.353 33.304 100.395Z" fill="white"/>
</g>
<path opacity="0.1" d="M23.4328 111.393L19.7344 114.519L23.841 118.632C24.2432 118.498 24.6514 118.346 25.0596 118.163V119.851L26.2051 120.996L29.739 118.955V117.736L23.4328 111.393Z" fill="white"/>
<path opacity="0.1" d="M33.3042 100.395C31.832 100.524 30.3834 100.848 28.9965 101.358L27.9668 101.693L35.3698 109.09C36.1526 107.583 36.57 105.913 36.5884 104.216C36.5928 103.737 36.5479 103.259 36.4543 102.79L34.1085 100.444C33.8425 100.403 33.5733 100.387 33.3042 100.395Z" fill="white"/>
<path opacity="0.1" d="M25.2973 99.0189C25.8058 98.4759 26.3957 98.0154 27.0459 97.654C29.1358 96.4354 30.3057 96.7279 30.5981 98.0745L31.2074 97.5383L24.688 91.0127V94.2176C23.8849 94.8039 23.1235 95.4452 22.4092 96.1369L25.2973 99.0189Z" fill="white"/>
<path opacity="0.1" d="M30.983 90.9274C30.4489 91.0775 29.924 91.2585 29.411 91.4697V89.3554L28.5397 88.4598L26.4376 89.6784L26.0781 89.8855L32.5611 96.3806L34.657 94.5954L30.983 90.9274Z" fill="white"/>
<path opacity="0.1" d="M21.0754 109.035L18.2422 106.208C18.2886 106.597 18.3806 106.98 18.5164 107.348C18.7132 107.861 19.0659 108.3 19.5248 108.602C19.9838 108.905 20.526 109.057 21.0754 109.035Z" fill="white"/>
<path d="M24.6887 94.2168L21.7275 92.5046V89.0134L24.6887 90.7255V94.2168Z" fill="#16423C"/>
<path opacity="0.35" d="M24.6887 94.2168L21.7275 92.5046V89.0134L24.6887 90.7255V94.2168Z" fill="black"/>
<path d="M29.7461 115.439C29.7461 115.439 29.9167 115.311 30.2031 115.073C30.3832 114.941 30.5561 114.798 30.721 114.647C30.9159 114.476 31.1475 114.293 31.379 114.074C31.6105 113.855 31.8665 113.623 32.1224 113.361L32.5123 112.959C32.6464 112.819 32.7743 112.673 32.9083 112.527C33.0424 112.38 33.1764 112.228 33.3044 112.07C33.4324 111.911 33.5725 111.753 33.7004 111.588C33.9503 111.253 34.2123 110.918 34.4377 110.559C34.6631 110.199 34.8886 109.84 35.1018 109.48C35.3001 109.122 35.4791 108.754 35.638 108.377C35.8086 108.018 35.9244 107.652 36.0584 107.311C36.1072 107.136 36.1559 106.966 36.2047 106.799L36.2778 106.555C36.2778 106.476 36.3143 106.397 36.3265 106.318C36.3935 106.007 36.4606 105.708 36.491 105.465C36.5215 105.221 36.5641 104.983 36.5702 104.801C36.5702 104.429 36.6007 104.191 36.6007 104.191C36.6007 104.191 36.6007 104.405 36.6007 104.801C36.5949 105.025 36.5766 105.249 36.5459 105.471C36.5179 105.762 36.4732 106.051 36.4118 106.336C36.4118 106.415 36.4118 106.494 36.3631 106.574C36.3143 106.653 36.3204 106.738 36.296 106.824C36.2717 106.909 36.2047 107.165 36.1559 107.341C36.0404 107.708 35.9061 108.067 35.7538 108.42C35.6014 108.798 35.4126 109.163 35.2176 109.535C35.0226 109.907 34.8033 110.278 34.5535 110.626C34.3036 110.973 34.0599 111.326 33.804 111.661C33.6761 111.826 33.5359 111.984 33.408 112.143L33.0058 112.6L32.6037 113.032L32.1955 113.428C31.9396 113.684 31.6715 113.91 31.4339 114.123C31.1962 114.336 30.9647 114.519 30.7636 114.683C30.5626 114.848 30.3798 114.982 30.2335 115.092L29.7461 115.439Z" fill="white"/>
<path d="M24.6885 90.7258L29.4105 87.9778V91.4691L29.0937 88.5445L24.6885 90.7258Z" fill="#FAFAFA"/>
<path d="M25.0664 118.163L25.3162 121.198L29.7458 118.955L25.0664 121.661V118.163Z" fill="#FAFAFA"/>
<path d="M39.4825 77.0175L39.8785 71.8202L40.2746 77.0175L45.4719 77.4135L40.2746 77.8096L39.8785 83.0069L39.4825 77.8096L34.2852 77.4135L39.4825 77.0175Z" fill="white"/>
<path d="M43.8399 81.4463L44.0288 78.9238L44.2237 81.4463L46.7401 81.6352L44.2237 81.8302L44.0288 84.3466L43.8399 81.8302L41.3174 81.6352L43.8399 81.4463Z" fill="white"/>
<path d="M86.7822 319.581L139.151 349.872L139.339 349.753L140.803 348.917L142.197 348.108C149.169 344.072 154.097 341.095 153.721 338.822C153.442 337.1 150.326 336.124 147.753 335.818C146.361 335.706 145.006 335.31 143.773 334.653C143.309 334.443 142.912 334.109 142.624 333.689C142.337 333.269 142.17 332.778 142.141 332.269C142.141 331.209 142.922 330.094 144.435 329.216C147.224 327.612 151.406 327.438 153.846 328.839C154.767 329.342 155.481 330.155 155.861 331.133C156.398 332.625 158.092 334.423 161.076 334.577C165.196 334.8 169.811 332.137 177.416 327.731L179.222 326.685L126.937 296.423L86.7822 319.581ZM226.369 353.915C224.724 354.849 223.134 355.735 221.573 356.599C215.299 360.085 210.781 362.58 211.116 364.637C211.229 365.148 211.527 365.6 211.952 365.906C213.11 366.847 215.229 367.419 217.083 367.635C218.475 367.746 219.829 368.14 221.064 368.792C221.528 369.007 221.925 369.343 222.213 369.765C222.501 370.188 222.67 370.68 222.702 371.19C222.677 371.776 222.464 372.338 222.096 372.793C221.626 373.38 221.046 373.868 220.388 374.23C217.599 375.84 213.416 376 210.983 374.613C210.066 374.108 209.355 373.296 208.976 372.319C208.432 370.828 206.745 369.029 203.754 368.869C200.268 368.673 196.678 370.848 191.206 374.16C189.749 375.045 188.096 376.042 186.326 377.109L189.038 378.663L251.975 414.97C268.106 411.402 283.762 405.951 298.62 398.727C299.605 398.262 300.581 397.767 301.548 397.242L226.369 353.915Z" fill="#16423C"/>
<path opacity="0.2" d="M86.7822 319.581L139.151 349.872L139.339 349.753L140.803 348.917L142.197 348.108C149.169 344.072 154.097 341.095 153.721 338.822C153.442 337.1 150.326 336.124 147.753 335.818C146.361 335.706 145.006 335.31 143.773 334.653C143.309 334.443 142.912 334.109 142.624 333.689C142.337 333.269 142.17 332.778 142.141 332.269C142.141 331.209 142.922 330.094 144.435 329.216C147.224 327.612 151.406 327.438 153.846 328.839C154.767 329.342 155.481 330.155 155.861 331.133C156.398 332.625 158.092 334.423 161.076 334.577C165.196 334.8 169.811 332.137 177.416 327.731L179.222 326.685L126.937 296.423L86.7822 319.581ZM226.369 353.915C224.724 354.849 223.134 355.735 221.573 356.599C215.299 360.085 210.781 362.58 211.116 364.637C211.229 365.148 211.527 365.6 211.952 365.906C213.11 366.847 215.229 367.419 217.083 367.635C218.475 367.746 219.829 368.14 221.064 368.792C221.528 369.007 221.925 369.343 222.213 369.765C222.501 370.188 222.67 370.68 222.702 371.19C222.677 371.776 222.464 372.338 222.096 372.793C221.626 373.38 221.046 373.868 220.388 374.23C217.599 375.84 213.416 376 210.983 374.613C210.066 374.108 209.355 373.296 208.976 372.319C208.432 370.828 206.745 369.029 203.754 368.869C200.268 368.673 196.678 370.848 191.206 374.16C189.749 375.045 188.096 376.042 186.326 377.109L189.038 378.663L251.975 414.97C268.106 411.402 283.762 405.951 298.62 398.727C299.605 398.262 300.581 397.767 301.548 397.242L226.369 353.915Z" fill="white"/>
<path d="M140.678 228.536L106.839 194L73 267.61L86.7823 259.656V319.588L126.895 296.423V236.49L140.678 228.536Z" fill="#16423C"/>
</svg>
