<svg width="9" height="5" viewBox="0 0 9 5" fill="none" xmlns="http://www.w3.org/2000/svg">
<path d="M0.394543 0.379237C0.509645 0.260002 0.667391 0.191362 0.833092 0.188414C0.998794 0.185466 1.15888 0.24845 1.27815 0.363515L4.42645 3.40174L7.46467 0.253439C7.58051 0.137511 7.73724 0.0717162 7.90111 0.0702245C8.06498 0.0687328 8.22288 0.131664 8.34081 0.245464C8.45873 0.359265 8.52724 0.514829 8.53158 0.67865C8.53592 0.842472 8.47574 1.00144 8.36401 1.12133L4.89184 4.71929C4.77674 4.83853 4.61899 4.90717 4.45329 4.91012C4.28759 4.91306 4.1275 4.85008 4.00823 4.73501L0.410265 1.26285C0.291029 1.14775 0.22239 0.989999 0.219441 0.824298C0.216493 0.658597 0.279477 0.498508 0.394543 0.379237Z" fill="white"/>
</svg>
