<svg width="11" height="12" viewBox="0 0 11 12" fill="none" xmlns="http://www.w3.org/2000/svg">
<g clip-path="url(#clip0_256_706)">
<path d="M1.08058 4.37948C1.19568 4.26025 1.35343 4.19161 1.51913 4.18866C1.68483 4.18571 1.84492 4.24869 1.96419 4.36376L5.11249 7.40198L8.15071 4.25368C8.26654 4.13776 8.42327 4.07196 8.58714 4.07047C8.75102 4.06898 8.90892 4.13191 9.02684 4.24571C9.14477 4.35951 9.21327 4.51507 9.21761 4.67889C9.22195 4.84272 9.16177 5.00169 9.05004 5.12157L5.57787 8.71954C5.46277 8.83877 5.30503 8.90741 5.13933 8.91036C4.97362 8.91331 4.81354 8.85032 4.69426 8.73526L1.0963 5.26309C0.977064 5.14799 0.908425 4.99024 0.905476 4.82454C0.902528 4.65884 0.965512 4.49875 1.08058 4.37948Z" fill="#A6A6A6"/>
</g>
<defs>
<clipPath id="clip0_256_706">
<rect width="10" height="10" fill="white" transform="matrix(0.999842 -0.0177901 -0.0177901 -0.999842 0.177734 11.0884)"/>
</clipPath>
</defs>
</svg>
