<svg width="51" height="51" viewBox="0 0 51 51" fill="none" xmlns="http://www.w3.org/2000/svg">
<path d="M47.375 1.28125H3.625C2.33281 1.28125 1.28125 2.33281 1.28125 3.625V30.1875C1.28125 31.4797 2.33281 32.5312 3.625 32.5312H16.9062V33.3125C16.9062 33.5875 16.9625 33.8484 17.05 34.0938H6.75C5.45781 34.0938 4.40625 35.1453 4.40625 36.4375V38C4.40625 38.6023 4.64141 39.1469 5.01563 39.5625C4.64141 39.9781 4.40625 40.5227 4.40625 41.125V42.6875C4.40625 43.2898 4.64141 43.8344 5.01563 44.25C4.64141 44.6656 4.40625 45.2102 4.40625 45.8125V47.375C4.40625 48.6672 5.45781 49.7188 6.75 49.7188H19.25H31.75H44.25C45.5422 49.7188 46.5938 48.6672 46.5938 47.375V45.8125C46.5938 45.2102 46.3586 44.6656 45.9844 44.25C46.3594 43.8344 46.5938 43.2898 46.5938 42.6875V41.125C46.5938 39.8328 45.5422 38.7812 44.25 38.7812H33.95C34.0375 38.5359 34.0938 38.275 34.0938 38V36.4375C34.0938 35.8352 33.8586 35.2906 33.4844 34.875C33.8594 34.4594 34.0938 33.9148 34.0938 33.3125V32.5312H47.375C48.6672 32.5312 49.7188 31.4797 49.7188 30.1875V3.625C49.7188 2.33281 48.6672 1.28125 47.375 1.28125ZM18.4688 33.3125V31.75C18.4688 31.3195 18.8188 30.9688 19.25 30.9688H20.0312V32.5312H21.5938V30.9688H23.1562V32.5312H24.7188V30.9688H26.2812V32.5312H27.8438V30.9688H29.4062V32.5312H30.9688V30.9688H31.75C32.1812 30.9688 32.5312 31.3195 32.5312 31.75V33.3125C32.5312 33.743 32.1812 34.0938 31.75 34.0938H19.25C18.8188 34.0938 18.4688 33.743 18.4688 33.3125ZM18.4688 22.375C18.4688 18.4984 21.6227 15.3438 25.5 15.3438C29.3773 15.3438 32.5312 18.4984 32.5312 22.375C32.5312 26.2516 29.3773 29.4062 25.5 29.4062C21.6227 29.4062 18.4688 26.2516 18.4688 22.375ZM34.0938 22.375C34.0938 17.6367 30.2383 13.7812 25.5 13.7812C20.7617 13.7812 16.9062 17.6367 16.9062 22.375C16.9062 24.4508 17.6461 26.357 18.8758 27.8438H5.96875V5.96875H45.0312V27.8438H32.1242C33.3539 26.357 34.0938 24.4508 34.0938 22.375ZM5.96875 36.4375C5.96875 36.007 6.31875 35.6562 6.75 35.6562H7.53125V37.2188H9.09375V35.6562H10.6562V37.2188H12.2188V35.6562H13.7812V37.2188H15.3438V35.6562H17.05C16.9625 35.9016 16.9062 36.1625 16.9062 36.4375V38C16.9062 38.275 16.9625 38.5359 17.05 38.7812H6.75C6.31875 38.7812 5.96875 38.4305 5.96875 38V36.4375ZM21.5938 41.9062V40.3438H23.1562V41.9062H24.7188V40.3438H26.2812V41.9062H27.8438V40.3438H29.55C29.4625 40.5891 29.4062 40.85 29.4062 41.125V42.6875C29.4062 42.9625 29.4625 43.2234 29.55 43.4688H19.25C18.8188 43.4688 18.4688 43.118 18.4688 42.6875V41.125C18.4688 40.6945 18.8188 40.3438 19.25 40.3438H20.0312V41.9062H21.5938ZM6.75 43.4688C6.31875 43.4688 5.96875 43.118 5.96875 42.6875V41.125C5.96875 40.6945 6.31875 40.3438 6.75 40.3438H7.53125V41.9062H9.09375V40.3438H10.6562V41.9062H12.2188V40.3438H13.7812V41.9062H15.3438V40.3438H17.05C16.9625 40.5891 16.9062 40.85 16.9062 41.125V42.6875C16.9062 42.9625 16.9625 43.2234 17.05 43.4688H6.75ZM5.96875 47.375V45.8125C5.96875 45.382 6.31875 45.0312 6.75 45.0312H7.53125V46.5938H9.09375V45.0312H10.6562V46.5938H12.2188V45.0312H13.7812V46.5938H15.3438V45.0312H17.05C16.9625 45.2766 16.9062 45.5375 16.9062 45.8125V47.375C16.9062 47.65 16.9625 47.9109 17.05 48.1562H6.75C6.31875 48.1562 5.96875 47.8055 5.96875 47.375ZM18.4688 47.375V45.8125C18.4688 45.382 18.8188 45.0312 19.25 45.0312H20.0312V46.5938H21.5938V45.0312H23.1562V46.5938H24.7188V45.0312H26.2812V46.5938H27.8438V45.0312H29.55C29.4625 45.2766 29.4062 45.5375 29.4062 45.8125V47.375C29.4062 47.65 29.4625 47.9109 29.55 48.1562H19.25C18.8188 48.1562 18.4688 47.8055 18.4688 47.375ZM45.0312 47.375C45.0312 47.8055 44.6813 48.1562 44.25 48.1562H31.75C31.3188 48.1562 30.9688 47.8055 30.9688 47.375V45.8125C30.9688 45.382 31.3188 45.0312 31.75 45.0312H32.5312V46.5938H34.0938V45.0312H35.6562V46.5938H37.2188V45.0312H38.7812V46.5938H40.3438V45.0312H41.9062V46.5938H43.4688V45.0312H44.25C44.6813 45.0312 45.0312 45.382 45.0312 45.8125V47.375ZM45.0312 41.125V42.6875C45.0312 43.118 44.6813 43.4688 44.25 43.4688H31.75C31.3188 43.4688 30.9688 43.118 30.9688 42.6875V41.125C30.9688 40.6945 31.3188 40.3438 31.75 40.3438H32.5312V41.9062H34.0938V40.3438H35.6562V41.9062H37.2188V40.3438H38.7812V41.9062H40.3438V40.3438H41.9062V41.9062H43.4688V40.3438H44.25C44.6813 40.3438 45.0312 40.6945 45.0312 41.125ZM19.25 38.7812C18.8188 38.7812 18.4688 38.4305 18.4688 38V36.4375C18.4688 36.007 18.8188 35.6562 19.25 35.6562H20.0312V37.2188H21.5938V35.6562H23.1562V37.2188H24.7188V35.6562H26.2812V37.2188H27.8438V35.6562H29.4062V37.2188H30.9688V35.6562H31.75C32.1812 35.6562 32.5312 36.007 32.5312 36.4375V38C32.5312 38.4305 32.1812 38.7812 31.75 38.7812H19.25ZM48.1562 30.1875C48.1562 30.618 47.8063 30.9688 47.375 30.9688H33.95C33.6266 30.0617 32.7672 29.4062 31.75 29.4062H46.5938V4.40625H4.40625V29.4062H19.25C18.2328 29.4062 17.3734 30.0617 17.05 30.9688H3.625C3.19375 30.9688 2.84375 30.618 2.84375 30.1875V3.625C2.84375 3.19453 3.19375 2.84375 3.625 2.84375H47.375C47.8063 2.84375 48.1562 3.19453 48.1562 3.625V30.1875ZM26.3109 16.6914L27.8141 17.1211L24.6891 28.0586L23.1859 27.6289L26.3109 16.6914ZM29.4062 23.1562C29.4062 23.5875 29.0562 23.9375 28.625 23.9375C28.1938 23.9375 27.8438 23.5875 27.8438 23.1562C27.8438 22.725 28.1938 22.375 28.625 22.375C29.0562 22.375 29.4062 22.725 29.4062 23.1562ZM23.1562 21.5938C23.1562 22.025 22.8062 22.375 22.375 22.375C21.9438 22.375 21.5938 22.025 21.5938 21.5938C21.5938 21.1625 21.9438 20.8125 22.375 20.8125C22.8062 20.8125 23.1562 21.1625 23.1562 21.5938ZM7.53125 12.2188H43.4688V7.53125H7.53125V12.2188ZM9.09375 9.09375H41.9062V10.6562H9.09375V9.09375ZM9.09375 15.3438H7.53125V13.7812H9.09375V15.3438ZM10.6562 13.7812H15.3438V15.3438H10.6562V13.7812ZM7.53125 16.9062H15.3438V18.4688H7.53125V16.9062ZM7.53125 20.0312H15.3438V21.5938H7.53125V20.0312ZM13.7812 23.1562H15.3438V24.7188H13.7812V23.1562ZM7.53125 23.1562H12.2188V24.7188H7.53125V23.1562ZM35.6562 18.4688H43.4688V13.7812H35.6562V18.4688ZM37.2188 15.3438H41.9062V16.9062H37.2188V15.3438ZM35.6562 24.7188H43.4688V20.0312H35.6562V24.7188ZM37.2188 21.5938H41.9062V23.1562H37.2188V21.5938Z" fill="url(#paint0_linear_667_4128)"/>
<defs>
<linearGradient id="paint0_linear_667_4128" x1="25.5" y1="49.7188" x2="25.5" y2="1.28125" gradientUnits="userSpaceOnUse">
<stop stop-color="#A59805"/>
<stop offset="1" stop-color="#FAE703"/>
</linearGradient>
</defs>
</svg>
