<svg width="20" height="20" viewBox="0 0 20 20" fill="none" xmlns="http://www.w3.org/2000/svg">
<path d="M2.49983 15.8332H17.4998C17.6517 15.8327 17.8006 15.7908 17.9304 15.712C18.0602 15.6332 18.1661 15.5205 18.2367 15.3861C18.3072 15.2516 18.3397 15.1004 18.3307 14.9488C18.3218 14.7972 18.2716 14.6509 18.1857 14.5257L10.6857 3.69234C10.3748 3.24318 9.62649 3.24318 9.31483 3.69234L1.81483 14.5257C1.72801 14.6506 1.67711 14.797 1.66763 14.9488C1.65816 15.1007 1.69048 15.2522 1.76109 15.387C1.8317 15.5218 1.93789 15.6346 2.06813 15.7133C2.19837 15.792 2.34768 15.8334 2.49983 15.8332Z" fill="#3D984A"/>
</svg>
