<svg width="457" height="254" viewBox="0 0 457 254" fill="none" xmlns="http://www.w3.org/2000/svg">
<g opacity="0.15" clip-path="url(#clip0_735_808)">
<path d="M437.743 232.591H185.991C175.652 232.591 167.234 224.16 167.234 213.805V54.5173C167.234 44.1056 175.652 35.731 185.991 35.731H437.686C448.082 35.731 456.443 44.1622 456.443 54.5173V213.749C456.5 224.16 448.082 232.591 437.743 232.591Z" fill="url(#paint0_linear_735_808)"/>
<path d="M456.5 150.882V173.856C442.941 171.253 429.72 170.121 416.613 171.423C392.941 173.799 370.963 184.89 347.404 206.336C343.619 209.788 339.777 213.352 336.104 216.804C330.455 222.067 324.805 227.386 318.873 232.591H282.263C295.822 223.538 307.969 212.164 320.681 200.281C324.466 196.773 328.308 193.095 332.206 189.587C359.551 164.746 385.652 151.788 414.353 148.902C428.534 147.43 442.884 148.562 456.5 150.882ZM318.138 35.731C316.217 93.8441 268.421 140.47 209.946 140.47C194.805 140.47 180.342 137.358 167.234 131.643V106.349C179.833 113.706 194.41 117.836 209.946 117.836C255.935 117.836 293.562 81.3388 295.483 35.731H318.138Z" fill="url(#paint1_linear_735_808)"/>
<path d="M456.5 205.317V213.805C456.5 224.217 448.082 232.591 437.743 232.591H185.991C175.652 232.591 167.234 224.16 167.234 213.805V205.317H456.5Z" fill="url(#paint2_linear_735_808)"/>
<path d="M435.312 232.591H437.742C448.137 232.591 456.499 224.16 456.499 213.805V54.5173C456.499 44.1056 448.081 35.731 437.742 35.731H435.312V232.591Z" fill="url(#paint3_linear_735_808)"/>
<path d="M456.5 63.0051V54.5173C456.5 44.1056 448.082 35.731 437.743 35.731H185.991C175.652 35.731 167.234 44.1622 167.234 54.5173V63.0051H456.5Z" fill="url(#paint4_linear_735_808)"/>
<path d="M227.799 131.587H200.059C195.821 131.587 192.375 128.135 192.375 123.891V105.444C192.375 101.2 195.821 97.7486 200.059 97.7486H227.799C232.036 97.7486 235.482 101.2 235.482 105.444V123.891C235.426 128.135 232.036 131.587 227.799 131.587Z" fill="url(#paint5_linear_735_808)"/>
<path d="M227.798 131.077H200.001C196.047 131.077 192.826 127.852 192.826 123.891V105.388C192.826 101.427 196.047 98.2012 200.001 98.2012H227.798C231.753 98.2012 234.973 101.427 234.973 105.388V123.891C234.973 127.852 231.753 131.077 227.798 131.077Z" fill="url(#paint6_linear_735_808)"/>
<path d="M234.973 115.233V114.102H220.284V109.122L224.069 105.331H234.973C234.973 104.935 234.917 104.539 234.86 104.199H223.787C223.617 104.199 223.504 104.256 223.391 104.369L219.436 108.33H214.465V98.2579H213.335V108.33H208.419L204.465 104.369C204.352 104.256 204.182 104.199 204.069 104.199H192.939C192.883 104.539 192.826 104.935 192.826 105.331H203.843L207.572 109.066V114.102H192.826V115.233H207.572V120.27L203.843 124.004H192.826C192.826 124.4 192.883 124.796 192.939 125.136H204.069C204.239 125.136 204.352 125.079 204.465 124.966L208.419 121.005H213.335V131.077H214.465V121.005H219.436L223.391 124.966C223.504 125.079 223.617 125.136 223.787 125.136H234.86C234.917 124.796 234.973 124.4 234.973 124.004H224.069L220.284 120.213V115.233H234.973ZM219.154 119.873H208.702V109.405H219.154V119.873Z" fill="url(#paint7_linear_735_808)"/>
<path d="M227.742 98.2012H227.799C231.753 98.2012 234.974 101.427 234.974 105.388V123.891C234.974 127.852 231.753 131.077 227.799 131.077H227.742V98.2012Z" fill="url(#paint8_linear_735_808)"/>
<path d="M234.973 124.23C234.804 128.022 231.64 131.077 227.798 131.077H200.001C196.16 131.077 192.996 128.022 192.826 124.23H234.973Z" fill="url(#paint9_linear_735_808)"/>
<path d="M234.973 105.048C234.804 101.257 231.64 98.2012 227.798 98.2012H200.001C196.16 98.2012 192.996 101.257 192.826 105.048H234.973Z" fill="url(#paint10_linear_735_808)"/>
<path d="M426.217 130.738C425.934 130.738 425.708 130.681 425.482 130.568C424.635 130.172 424.296 129.153 424.748 128.305C429.098 119.647 429.098 109.745 424.748 101.087C424.352 100.238 424.691 99.2198 425.482 98.8237C426.33 98.4276 427.347 98.7672 427.742 99.5594C432.601 109.179 432.601 120.213 427.742 129.833C427.403 130.398 426.838 130.738 426.217 130.738ZM420.397 127.513C424.974 119.364 424.974 109.971 420.397 101.823C419.945 101.031 418.928 100.691 418.081 101.2C417.29 101.653 416.951 102.672 417.46 103.52C421.471 110.65 421.471 118.798 417.46 125.872C417.008 126.664 417.29 127.739 418.081 128.192C418.363 128.361 418.646 128.418 418.928 128.418C419.493 128.361 420.058 128.022 420.397 127.513ZM413.166 125.249C417.629 118.742 417.629 110.65 413.166 104.086C412.657 103.294 411.584 103.124 410.793 103.633C410.002 104.143 409.832 105.218 410.341 106.01C413.957 111.329 413.957 118.006 410.341 123.325C409.832 124.117 410.002 125.136 410.793 125.702C411.075 125.928 411.414 125.985 411.753 125.985C412.318 125.985 412.827 125.702 413.166 125.249ZM405.539 123.042C408.025 120.779 409.38 117.78 409.38 114.668C409.38 111.555 408.025 108.556 405.539 106.293C404.861 105.671 403.787 105.671 403.166 106.406C402.544 107.085 402.544 108.16 403.279 108.783C405.03 110.424 405.991 112.517 405.991 114.668C405.991 116.818 405.03 118.912 403.279 120.553C402.601 121.175 402.544 122.25 403.166 122.929C403.505 123.269 403.957 123.495 404.409 123.495C404.804 123.495 405.2 123.325 405.539 123.042Z" fill="url(#paint11_linear_735_808)"/>
<path d="M310.171 204.073H194.521C193.561 204.073 192.826 203.338 192.826 202.375C192.826 201.413 193.561 200.677 194.521 200.677H310.171C311.131 200.677 311.866 201.413 311.866 202.375C311.866 203.281 311.131 204.073 310.171 204.073Z" fill="url(#paint12_linear_735_808)"/>
<path d="M429.664 204.073H407.856C406.895 204.073 406.161 203.338 406.161 202.375C406.161 201.413 406.895 200.677 407.856 200.677H429.664C430.624 200.677 431.359 201.413 431.359 202.375C431.359 203.281 430.568 204.073 429.664 204.073ZM398.59 202.375C398.59 201.413 397.856 200.677 396.895 200.677H375.087C374.127 200.677 373.393 201.413 373.393 202.375C373.393 203.338 374.127 204.073 375.087 204.073H396.895C397.856 204.073 398.59 203.281 398.59 202.375Z" fill="url(#paint13_linear_735_808)"/>
<path d="M194.521 74.3223C193.561 74.3223 192.826 73.5866 192.826 72.6247V66.0042C192.826 65.0423 193.561 64.3066 194.521 64.3066C195.482 64.3066 196.216 65.0423 196.216 66.0042V72.6247C196.216 73.5301 195.482 74.3223 194.521 74.3223ZM205.425 72.6247V66.0042C205.425 65.0423 204.691 64.3066 203.73 64.3066C202.77 64.3066 202.035 65.0423 202.035 66.0042V72.6247C202.035 73.5866 202.77 74.3223 203.73 74.3223C204.691 74.3223 205.425 73.5301 205.425 72.6247ZM214.691 72.6247V66.0042C214.691 65.0423 213.956 64.3066 212.996 64.3066C212.035 64.3066 211.301 65.0423 211.301 66.0042V72.6247C211.301 73.5866 212.035 74.3223 212.996 74.3223C213.9 74.3223 214.691 73.5301 214.691 72.6247ZM223.9 72.6247V66.0042C223.9 65.0423 223.165 64.3066 222.205 64.3066C221.244 64.3066 220.51 65.0423 220.51 66.0042V72.6247C220.51 73.5866 221.244 74.3223 222.205 74.3223C223.165 74.3223 223.9 73.5301 223.9 72.6247Z" fill="url(#paint14_linear_735_808)"/>
<path d="M225.707 175.27H225.424C222.6 175.27 220.283 172.95 220.283 170.121V162.086C220.283 159.257 222.6 156.937 225.424 156.937H225.707C228.532 156.937 230.848 159.257 230.848 162.086V170.121C230.848 172.95 228.532 175.27 225.707 175.27ZM225.424 160.332C224.464 160.332 223.673 161.124 223.673 162.086V170.121C223.673 171.083 224.464 171.875 225.424 171.875H225.707C226.667 171.875 227.458 171.083 227.458 170.121V162.086C227.458 161.124 226.667 160.332 225.707 160.332H225.424Z" fill="url(#paint15_linear_735_808)"/>
<path d="M239.435 175.27H239.153C236.328 175.27 234.012 172.95 234.012 170.121V162.086C234.012 159.257 236.328 156.937 239.153 156.937H239.435C242.26 156.937 244.577 159.257 244.577 162.086V170.121C244.577 172.95 242.26 175.27 239.435 175.27ZM239.153 160.332C238.193 160.332 237.402 161.124 237.402 162.086V170.121C237.402 171.083 238.193 171.875 239.153 171.875H239.435C240.396 171.875 241.187 171.083 241.187 170.121V162.086C241.187 161.124 240.396 160.332 239.435 160.332H239.153Z" fill="url(#paint16_linear_735_808)"/>
<path d="M260.51 175.27H260.227C257.402 175.27 255.086 172.95 255.086 170.121V162.086C255.086 159.257 257.402 156.937 260.227 156.937H260.51C263.335 156.937 265.651 159.257 265.651 162.086V170.121C265.651 172.95 263.335 175.27 260.51 175.27ZM260.227 160.332C259.267 160.332 258.476 161.124 258.476 162.086V170.121C258.476 171.083 259.267 171.875 260.227 171.875H260.51C261.47 171.875 262.261 171.083 262.261 170.121V162.086C262.261 161.124 261.47 160.332 260.51 160.332H260.227Z" fill="url(#paint17_linear_735_808)"/>
<path d="M274.238 175.27H273.956C271.131 175.27 268.814 172.95 268.814 170.121V162.086C268.814 159.257 271.131 156.937 273.956 156.937H274.238C277.063 156.937 279.379 159.257 279.379 162.086V170.121C279.379 172.95 277.063 175.27 274.238 175.27ZM273.956 160.332C272.995 160.332 272.204 161.124 272.204 162.086V170.121C272.204 171.083 272.995 171.875 273.956 171.875H274.238C275.199 171.875 275.99 171.083 275.99 170.121V162.086C275.99 161.124 275.199 160.332 274.238 160.332H273.956Z" fill="url(#paint18_linear_735_808)"/>
<path d="M287.967 175.27H287.684C284.859 175.27 282.543 172.95 282.543 170.121V162.086C282.543 159.257 284.859 156.937 287.684 156.937H287.967C290.792 156.937 293.108 159.257 293.108 162.086V170.121C293.108 172.95 290.792 175.27 287.967 175.27ZM287.684 160.332C286.724 160.332 285.933 161.124 285.933 162.086V170.121C285.933 171.083 286.724 171.875 287.684 171.875H287.967C288.927 171.875 289.718 171.083 289.718 170.121V162.086C289.718 161.124 288.927 160.332 287.967 160.332H287.684Z" fill="url(#paint19_linear_735_808)"/>
<path d="M301.695 175.27H301.413C298.588 175.27 296.271 172.95 296.271 170.121V162.086C296.271 159.257 298.588 156.937 301.413 156.937H301.695C304.52 156.937 306.836 159.257 306.836 162.086V170.121C306.836 172.95 304.52 175.27 301.695 175.27ZM301.413 160.332C300.452 160.332 299.661 161.124 299.661 162.086V170.121C299.661 171.083 300.452 171.875 301.413 171.875H301.695C302.656 171.875 303.447 171.083 303.447 170.121V162.086C303.447 161.124 302.656 160.332 301.695 160.332H301.413Z" fill="url(#paint20_linear_735_808)"/>
<path d="M322.769 175.27H322.487C319.662 175.27 317.346 172.95 317.346 170.121V162.086C317.346 159.257 319.662 156.937 322.487 156.937H322.769C325.594 156.937 327.911 159.257 327.911 162.086V170.121C327.911 172.95 325.594 175.27 322.769 175.27ZM322.487 160.332C321.526 160.332 320.736 161.124 320.736 162.086V170.121C320.736 171.083 321.526 171.875 322.487 171.875H322.769C323.73 171.875 324.521 171.083 324.521 170.121V162.086C324.521 161.124 323.73 160.332 322.769 160.332H322.487Z" fill="url(#paint21_linear_735_808)"/>
<path d="M336.498 175.27H336.215C333.391 175.27 331.074 172.95 331.074 170.121V162.086C331.074 159.257 333.391 156.937 336.215 156.937H336.498C339.323 156.937 341.639 159.257 341.639 162.086V170.121C341.639 172.95 339.323 175.27 336.498 175.27ZM336.215 160.332C335.255 160.332 334.464 161.124 334.464 162.086V170.121C334.464 171.083 335.255 171.875 336.215 171.875H336.498C337.458 171.875 338.249 171.083 338.249 170.121V162.086C338.249 161.124 337.458 160.332 336.498 160.332H336.215Z" fill="url(#paint22_linear_735_808)"/>
<path d="M350.226 175.27H349.944C347.119 175.27 344.803 172.95 344.803 170.121V162.086C344.803 159.257 347.119 156.937 349.944 156.937H350.226C353.051 156.937 355.368 159.257 355.368 162.086V170.121C355.368 172.95 353.051 175.27 350.226 175.27ZM349.944 160.332C348.984 160.332 348.193 161.124 348.193 162.086V170.121C348.193 171.083 348.984 171.875 349.944 171.875H350.226C351.187 171.875 351.978 171.083 351.978 170.121V162.086C351.978 161.124 351.187 160.332 350.226 160.332H349.944Z" fill="url(#paint23_linear_735_808)"/>
<path d="M363.955 175.27H363.672C360.848 175.27 358.531 172.95 358.531 170.121V162.086C358.531 159.257 360.848 156.937 363.672 156.937H363.955C366.78 156.937 369.096 159.257 369.096 162.086V170.121C369.096 172.95 366.78 175.27 363.955 175.27ZM363.672 160.332C362.712 160.332 361.921 161.124 361.921 162.086V170.121C361.921 171.083 362.712 171.875 363.672 171.875H363.955C364.915 171.875 365.706 171.083 365.706 170.121V162.086C365.706 161.124 364.915 160.332 363.955 160.332H363.672Z" fill="url(#paint24_linear_735_808)"/>
<path d="M385.029 175.27H384.747C381.922 175.27 379.605 172.95 379.605 170.121V162.086C379.605 159.257 381.922 156.937 384.747 156.937H385.029C387.854 156.937 390.17 159.257 390.17 162.086V170.121C390.17 172.95 387.854 175.27 385.029 175.27ZM384.747 160.332C383.786 160.332 382.995 161.124 382.995 162.086V170.121C382.995 171.083 383.786 171.875 384.747 171.875H385.029C385.99 171.875 386.781 171.083 386.781 170.121V162.086C386.781 161.124 385.99 160.332 385.029 160.332H384.747Z" fill="url(#paint25_linear_735_808)"/>
<path d="M398.758 175.27H398.475C395.65 175.27 393.334 172.95 393.334 170.121V162.086C393.334 159.257 395.65 156.937 398.475 156.937H398.758C401.583 156.937 403.899 159.257 403.899 162.086V170.121C403.899 172.95 401.583 175.27 398.758 175.27ZM398.475 160.332C397.515 160.332 396.724 161.124 396.724 162.086V170.121C396.724 171.083 397.515 171.875 398.475 171.875H398.758C399.718 171.875 400.509 171.083 400.509 170.121V162.086C400.509 161.124 399.718 160.332 398.758 160.332H398.475Z" fill="url(#paint26_linear_735_808)"/>
<path d="M412.486 175.27H412.204C409.379 175.27 407.062 172.95 407.062 170.121V162.086C407.062 159.257 409.379 156.937 412.204 156.937H412.486C415.311 156.937 417.627 159.257 417.627 162.086V170.121C417.627 172.95 415.311 175.27 412.486 175.27ZM412.204 160.332C411.243 160.332 410.452 161.124 410.452 162.086V170.121C410.452 171.083 411.243 171.875 412.204 171.875H412.486C413.447 171.875 414.238 171.083 414.238 170.121V162.086C414.238 161.124 413.447 160.332 412.486 160.332H412.204Z" fill="url(#paint27_linear_735_808)"/>
<path d="M426.215 175.27H425.932C423.107 175.27 420.791 172.95 420.791 170.121V162.086C420.791 159.257 423.107 156.937 425.932 156.937H426.215C429.04 156.937 431.356 159.257 431.356 162.086V170.121C431.356 172.95 429.04 175.27 426.215 175.27ZM425.932 160.332C424.972 160.332 424.181 161.124 424.181 162.086V170.121C424.181 171.083 424.972 171.875 425.932 171.875H426.215C427.175 171.875 427.966 171.083 427.966 170.121V162.086C427.966 161.124 427.175 160.332 426.215 160.332H425.932Z" fill="url(#paint28_linear_735_808)"/>
<path d="M427.743 116.762C445.596 134.643 433.844 165.595 408.647 166.444C408.251 166.444 407.856 166.444 407.46 166.444C397.347 166.444 388.195 162.143 381.81 155.24C381.471 154.957 358.195 131.644 334.918 108.33C311.641 85.0172 288.364 61.704 288.082 61.3645C280.794 54.6308 276.387 44.785 276.895 33.9772C277.799 15.9265 292.658 1.27086 310.737 0.705004C320.85 0.422077 330.003 4.38305 336.556 10.947C342.884 17.2845 346.782 26.0552 346.782 35.7313L427.743 116.762Z" fill="url(#paint29_linear_735_808)"/>
<path d="M311.866 70.7572C331.181 70.7572 346.838 55.0753 346.838 35.7308C346.838 16.3863 331.181 0.704468 311.866 0.704468C292.552 0.704468 276.895 16.3863 276.895 35.7308C276.895 55.0753 292.552 70.7572 311.866 70.7572Z" fill="url(#paint30_linear_735_808)"/>
<path d="M311.866 70.7572C331.181 70.7572 346.838 55.0753 346.838 35.7308C346.838 16.3863 331.181 0.704468 311.866 0.704468C292.552 0.704468 276.895 16.3863 276.895 35.7308C276.895 55.0753 292.552 70.7572 311.866 70.7572Z" fill="url(#paint31_radial_735_808)"/>
<path d="M311.866 70.7572C331.181 70.7572 346.838 55.0753 346.838 35.7308C346.838 16.3863 331.181 0.704468 311.866 0.704468C292.552 0.704468 276.895 16.3863 276.895 35.7308C276.895 55.0753 292.552 70.7572 311.866 70.7572Z" fill="url(#paint32_radial_735_808)"/>
<path d="M320.171 34.2028L311.866 20.5092L303.561 34.2028L293.844 24.9794L297.008 46.7082H326.725L329.889 24.9794L320.171 34.2028Z" fill="url(#paint33_linear_735_808)"/>
<path d="M325.822 52.9326H297.969C296.274 52.9326 294.861 51.5179 294.861 49.8204C294.861 48.1228 296.274 46.7082 297.969 46.7082H325.822C327.517 46.7082 328.929 48.1228 328.929 49.8204C328.929 51.5179 327.517 52.9326 325.822 52.9326Z" fill="url(#paint34_linear_735_808)"/>
<path d="M293.845 26.9608C294.937 26.9608 295.822 26.0739 295.822 24.9799C295.822 23.8859 294.937 22.999 293.845 22.999C292.753 22.999 291.867 23.8859 291.867 24.9799C291.867 26.0739 292.753 26.9608 293.845 26.9608Z" fill="url(#paint35_linear_735_808)"/>
<path d="M311.868 22.4905C312.96 22.4905 313.845 21.6036 313.845 20.5096C313.845 19.4156 312.96 18.5287 311.868 18.5287C310.776 18.5287 309.891 19.4156 309.891 20.5096C309.891 21.6036 310.776 22.4905 311.868 22.4905Z" fill="url(#paint36_linear_735_808)"/>
<path d="M329.89 26.9041C330.982 26.9041 331.867 26.0172 331.867 24.9232C331.867 23.8292 330.982 22.9423 329.89 22.9423C328.797 22.9423 327.912 23.8292 327.912 24.9232C327.912 26.0172 328.797 26.9041 329.89 26.9041Z" fill="url(#paint37_linear_735_808)"/>
</g>
<g opacity="0.15" clip-path="url(#clip1_735_808)">
<path d="M269.235 224.477H19.5994C9.34734 224.477 1 216.345 1 206.356V52.7091C1 42.6661 9.34734 34.588 19.5994 34.588H269.179C279.487 34.588 287.779 42.7207 287.779 52.7091V206.302C287.835 216.345 279.487 224.477 269.235 224.477Z" fill="url(#paint38_linear_735_808)"/>
<path d="M287.835 145.661V167.822C274.389 165.311 261.28 164.219 248.283 165.475C224.81 167.767 203.017 178.465 179.655 199.151C175.902 202.481 172.092 205.92 168.451 209.249C162.849 214.325 157.247 219.456 151.364 224.477H115.062C128.507 215.744 140.552 204.773 153.157 193.311C156.91 189.927 160.72 186.379 164.585 182.995C191.7 159.034 217.583 146.535 246.042 143.751C260.104 142.332 274.333 143.424 287.835 145.661ZM150.636 34.588C148.731 90.6433 101.336 135.618 43.3529 135.618C28.3389 135.618 13.9972 132.617 1 127.104V102.706C13.493 109.801 27.9468 113.786 43.3529 113.786C88.9552 113.786 126.266 78.5808 128.171 34.588H150.636Z" fill="url(#paint39_linear_735_808)"/>
<path d="M287.835 198.169V206.356C287.835 216.399 279.487 224.477 269.235 224.477H19.5994C9.34734 224.477 1 216.345 1 206.356V198.169H287.835Z" fill="url(#paint40_linear_735_808)"/>
<path d="M287.835 60.8963V52.7091C287.835 42.6661 279.487 34.588 269.235 34.588H19.5994C9.34734 34.588 1 42.7207 1 52.7091V60.8963H287.835Z" fill="url(#paint41_linear_735_808)"/>
<path d="M22.0084 34.588H19.5994C9.34734 34.588 1 42.7207 1 52.7091V206.302C1 216.345 9.34734 224.423 19.5994 224.423H22.0084V34.588Z" fill="url(#paint42_linear_735_808)"/>
<path d="M61.0557 127.049H33.5487C29.3471 127.049 25.9297 123.72 25.9297 119.626V101.833C25.9297 97.7392 29.3471 94.4097 33.5487 94.4097H61.0557C65.2574 94.4097 68.6748 97.7392 68.6748 101.833V119.626C68.6188 123.72 65.2574 127.049 61.0557 127.049Z" fill="url(#paint43_linear_735_808)"/>
<path d="M61.0548 126.558H33.4918C29.5702 126.558 26.377 123.447 26.377 119.626V101.778C26.377 97.9574 29.5702 94.8463 33.4918 94.8463H61.0548C64.9764 94.8463 68.1697 97.9574 68.1697 101.778V119.626C68.1697 123.447 64.9764 126.558 61.0548 126.558Z" fill="url(#paint44_linear_735_808)"/>
<path d="M68.1697 111.275V110.184H53.6038V105.381L57.3573 101.724H68.1697C68.1697 101.342 68.1136 100.959 68.0576 100.632H57.0772C56.9092 100.632 56.7971 100.687 56.6851 100.796L52.7635 104.616H47.8335V94.9009H46.7131V104.616H41.8391L37.9176 100.796C37.8055 100.687 37.6375 100.632 37.5254 100.632H26.489C26.433 100.959 26.377 101.342 26.377 101.724H37.3013L40.9988 105.326V110.184H26.377V111.275H40.9988V116.133L37.3013 119.736H26.377C26.377 120.118 26.433 120.5 26.489 120.827H37.5254C37.6935 120.827 37.8055 120.773 37.9176 120.663L41.8391 116.843H46.7131V126.558H47.8335V116.843H52.7635L56.6851 120.663C56.7971 120.773 56.9092 120.827 57.0772 120.827H68.0576C68.1136 120.5 68.1697 120.118 68.1697 119.736H57.3573L53.6038 116.079V111.275H68.1697ZM52.4834 115.751H42.1193V105.654H52.4834V115.751Z" fill="url(#paint45_linear_735_808)"/>
<path d="M60.998 94.8463H61.0541C64.9756 94.8463 68.1689 97.9574 68.1689 101.778V119.626C68.1689 123.447 64.9756 126.558 61.0541 126.558H60.998V94.8463Z" fill="url(#paint46_linear_735_808)"/>
<path d="M68.1697 119.954C68.0016 123.611 64.8643 126.558 61.0548 126.558H33.4918C29.6823 126.558 26.545 123.611 26.377 119.954H68.1697Z" fill="url(#paint47_linear_735_808)"/>
<path d="M33.6038 94.8463H33.4918C29.5702 94.8463 26.377 97.9574 26.377 101.778V119.626C26.377 123.447 29.5702 126.558 33.4918 126.558H33.5478V94.8463H33.6038Z" fill="url(#paint48_linear_735_808)"/>
<path d="M68.1697 101.451C68.0016 97.7937 64.8643 94.8463 61.0548 94.8463H33.4918C29.6823 94.8463 26.545 97.7937 26.377 101.451H68.1697Z" fill="url(#paint49_linear_735_808)"/>
<path d="M142.737 196.969H28.0596C27.1072 196.969 26.3789 196.259 26.3789 195.331C26.3789 194.403 27.1072 193.693 28.0596 193.693H142.737C143.69 193.693 144.418 194.403 144.418 195.331C144.418 196.205 143.69 196.969 142.737 196.969Z" fill="url(#paint50_linear_735_808)"/>
<path d="M261.224 196.969H239.599C238.647 196.969 237.919 196.259 237.919 195.331C237.919 194.403 238.647 193.693 239.599 193.693H261.224C262.176 193.693 262.905 194.403 262.905 195.331C262.905 196.205 262.12 196.969 261.224 196.969ZM230.412 195.331C230.412 194.403 229.683 193.693 228.731 193.693H207.106C206.154 193.693 205.426 194.403 205.426 195.331C205.426 196.259 206.154 196.969 207.106 196.969H228.731C229.683 196.969 230.412 196.205 230.412 195.331Z" fill="url(#paint51_linear_735_808)"/>
<path d="M28.0576 71.8129C27.1052 71.8129 26.377 71.1033 26.377 70.1754V63.7894C26.377 62.8615 27.1052 62.1519 28.0576 62.1519C29.01 62.1519 29.7383 62.8615 29.7383 63.7894V70.1754C29.7383 71.0487 29.01 71.8129 28.0576 71.8129ZM38.8699 70.1754V63.7894C38.8699 62.8615 38.1417 62.1519 37.1893 62.1519C36.2369 62.1519 35.5086 62.8615 35.5086 63.7894V70.1754C35.5086 71.1033 36.2369 71.8129 37.1893 71.8129C38.1417 71.8129 38.8699 71.0487 38.8699 70.1754ZM48.0576 70.1754V63.7894C48.0576 62.8615 47.3293 62.1519 46.377 62.1519C45.4246 62.1519 44.6963 62.8615 44.6963 63.7894V70.1754C44.6963 71.1033 45.4246 71.8129 46.377 71.8129C47.2733 71.8129 48.0576 71.0487 48.0576 70.1754ZM57.1893 70.1754V63.7894C57.1893 62.8615 56.461 62.1519 55.5086 62.1519C54.5562 62.1519 53.8279 62.8615 53.8279 63.7894V70.1754C53.8279 71.1033 54.5562 71.8129 55.5086 71.8129C56.461 71.8129 57.1893 71.0487 57.1893 70.1754Z" fill="url(#paint52_linear_735_808)"/>
<path d="M31.7571 169.186H31.4769C28.6758 169.186 26.3789 166.949 26.3789 164.22V156.469C26.3789 153.74 28.6758 151.502 31.4769 151.502H31.7571C34.5582 151.502 36.8551 153.74 36.8551 156.469V164.22C36.8551 166.949 34.6142 169.186 31.7571 169.186ZM31.4769 154.777C30.5246 154.777 29.7403 155.541 29.7403 156.469V164.22C29.7403 165.147 30.5246 165.912 31.4769 165.912H31.7571C32.7094 165.912 33.4938 165.147 33.4938 164.22V156.469C33.4938 155.541 32.7094 154.777 31.7571 154.777H31.4769Z" fill="url(#paint53_linear_735_808)"/>
<path d="M45.3703 169.186H45.0902C42.2891 169.186 39.9922 166.949 39.9922 164.22V156.469C39.9922 153.74 42.2891 151.502 45.0902 151.502H45.3703C48.1715 151.502 50.4684 153.74 50.4684 156.469V164.22C50.4684 166.949 48.1715 169.186 45.3703 169.186ZM45.0902 154.777C44.1378 154.777 43.3535 155.541 43.3535 156.469V164.22C43.3535 165.147 44.1378 165.912 45.0902 165.912H45.3703C46.3227 165.912 47.107 165.147 47.107 164.22V156.469C47.107 155.541 46.3227 154.777 45.3703 154.777H45.0902Z" fill="url(#paint54_linear_735_808)"/>
<path d="M58.9836 169.186H58.7035C55.9024 169.186 53.6055 166.949 53.6055 164.22V156.469C53.6055 153.74 55.9024 151.502 58.7035 151.502H58.9836C61.7847 151.502 64.0817 153.74 64.0817 156.469V164.22C64.0817 166.949 61.7847 169.186 58.9836 169.186ZM58.7035 154.777C57.7511 154.777 56.9668 155.541 56.9668 156.469V164.22C56.9668 165.147 57.7511 165.912 58.7035 165.912H58.9836C59.936 165.912 60.7203 165.147 60.7203 164.22V156.469C60.7203 155.541 59.936 154.777 58.9836 154.777H58.7035Z" fill="url(#paint55_linear_735_808)"/>
<path d="M72.5969 169.186H72.3168C69.5157 169.186 67.2188 166.949 67.2188 164.22V156.469C67.2188 153.74 69.5157 151.502 72.3168 151.502H72.5969C75.398 151.502 77.6949 153.74 77.6949 156.469V164.22C77.6949 166.949 75.398 169.186 72.5969 169.186ZM72.3168 154.777C71.3644 154.777 70.5801 155.541 70.5801 156.469V164.22C70.5801 165.147 71.3644 165.912 72.3168 165.912H72.5969C73.5493 165.912 74.3336 165.147 74.3336 164.22V156.469C74.3336 155.541 73.5493 154.777 72.5969 154.777H72.3168Z" fill="url(#paint56_linear_735_808)"/>
<path d="M93.4934 169.186H93.2133C90.4122 169.186 88.1152 166.949 88.1152 164.22V156.469C88.1152 153.74 90.4122 151.502 93.2133 151.502H93.4934C96.2945 151.502 98.5914 153.74 98.5914 156.469V164.22C98.5914 166.949 96.2945 169.186 93.4934 169.186ZM93.2133 154.777C92.2609 154.777 91.4766 155.541 91.4766 156.469V164.22C91.4766 165.147 92.2609 165.912 93.2133 165.912H93.4934C94.4458 165.912 95.2301 165.147 95.2301 164.22V156.469C95.2301 155.541 94.4458 154.777 93.4934 154.777H93.2133Z" fill="url(#paint57_linear_735_808)"/>
<path d="M107.107 169.186H106.827C104.025 169.186 101.729 166.949 101.729 164.22V156.469C101.729 153.74 104.025 151.502 106.827 151.502H107.107C109.908 151.502 112.205 153.74 112.205 156.469V164.22C112.205 166.949 109.908 169.186 107.107 169.186ZM106.827 154.777C105.874 154.777 105.09 155.541 105.09 156.469V164.22C105.09 165.147 105.874 165.912 106.827 165.912H107.107C108.059 165.912 108.843 165.147 108.843 164.22V156.469C108.843 155.541 108.059 154.777 107.107 154.777H106.827Z" fill="url(#paint58_linear_735_808)"/>
<path d="M120.72 169.186H120.44C117.639 169.186 115.342 166.949 115.342 164.22V156.469C115.342 153.74 117.639 151.502 120.44 151.502H120.72C123.521 151.502 125.818 153.74 125.818 156.469V164.22C125.818 166.949 123.521 169.186 120.72 169.186ZM120.44 154.777C119.487 154.777 118.703 155.541 118.703 156.469V164.22C118.703 165.147 119.487 165.912 120.44 165.912H120.72C121.672 165.912 122.457 165.147 122.457 164.22V156.469C122.457 155.541 121.672 154.777 120.72 154.777H120.44Z" fill="url(#paint59_linear_735_808)"/>
<path d="M134.335 169.186H134.055C131.254 169.186 128.957 166.949 128.957 164.22V156.469C128.957 153.74 131.254 151.502 134.055 151.502H134.335C137.136 151.502 139.433 153.74 139.433 156.469V164.22C139.433 166.949 137.136 169.186 134.335 169.186ZM134.055 154.777C133.103 154.777 132.318 155.541 132.318 156.469V164.22C132.318 165.147 133.103 165.912 134.055 165.912H134.335C135.288 165.912 136.072 165.147 136.072 164.22V156.469C136.072 155.541 135.288 154.777 134.335 154.777H134.055Z" fill="url(#paint60_linear_735_808)"/>
<path d="M155.23 169.186H154.95C152.148 169.186 149.852 166.949 149.852 164.22V156.469C149.852 153.74 152.148 151.502 154.95 151.502H155.23C158.031 151.502 160.328 153.74 160.328 156.469V164.22C160.328 166.949 158.031 169.186 155.23 169.186ZM154.95 154.777C153.997 154.777 153.213 155.541 153.213 156.469V164.22C153.213 165.147 153.997 165.912 154.95 165.912H155.23C156.182 165.912 156.966 165.147 156.966 164.22V156.469C156.966 155.541 156.182 154.777 155.23 154.777H154.95Z" fill="url(#paint61_linear_735_808)"/>
<path d="M168.843 169.186H168.563C165.762 169.186 163.465 166.949 163.465 164.22V156.469C163.465 153.74 165.762 151.502 168.563 151.502H168.843C171.644 151.502 173.941 153.74 173.941 156.469V164.22C173.941 166.949 171.644 169.186 168.843 169.186ZM168.563 154.777C167.611 154.777 166.826 155.541 166.826 156.469V164.22C166.826 165.147 167.611 165.912 168.563 165.912H168.843C169.795 165.912 170.58 165.147 170.58 164.22V156.469C170.58 155.541 169.795 154.777 168.843 154.777H168.563Z" fill="url(#paint62_linear_735_808)"/>
<path d="M182.456 169.186H182.176C179.375 169.186 177.078 166.949 177.078 164.22V156.469C177.078 153.74 179.375 151.502 182.176 151.502H182.456C185.257 151.502 187.554 153.74 187.554 156.469V164.22C187.554 166.949 185.257 169.186 182.456 169.186ZM182.176 154.777C181.224 154.777 180.439 155.541 180.439 156.469V164.22C180.439 165.147 181.224 165.912 182.176 165.912H182.456C183.409 165.912 184.193 165.147 184.193 164.22V156.469C184.193 155.541 183.409 154.777 182.456 154.777H182.176Z" fill="url(#paint63_linear_735_808)"/>
<path d="M196.07 169.186H195.789C192.988 169.186 190.691 166.949 190.691 164.22V156.469C190.691 153.74 192.988 151.502 195.789 151.502H196.07C198.871 151.502 201.168 153.74 201.168 156.469V164.22C201.168 166.949 198.871 169.186 196.07 169.186ZM195.789 154.777C194.837 154.777 194.053 155.541 194.053 156.469V164.22C194.053 165.147 194.837 165.912 195.789 165.912H196.07C197.022 165.912 197.806 165.147 197.806 164.22V156.469C197.806 155.541 197.022 154.777 196.07 154.777H195.789Z" fill="url(#paint64_linear_735_808)"/>
<path d="M216.968 169.186H216.688C213.887 169.186 211.59 166.949 211.59 164.22V156.469C211.59 153.74 213.887 151.502 216.688 151.502H216.968C219.769 151.502 222.066 153.74 222.066 156.469V164.22C222.066 166.949 219.769 169.186 216.968 169.186ZM216.688 154.777C215.736 154.777 214.951 155.541 214.951 156.469V164.22C214.951 165.147 215.736 165.912 216.688 165.912H216.968C217.92 165.912 218.705 165.147 218.705 164.22V156.469C218.705 155.541 217.92 154.777 216.968 154.777H216.688Z" fill="url(#paint65_linear_735_808)"/>
<path d="M259.318 112.747C277.022 129.995 265.369 159.851 240.383 160.67C239.991 160.67 239.599 160.67 239.206 160.67C229.178 160.67 220.103 156.521 213.772 149.862C213.436 149.59 190.355 127.102 167.274 104.614C144.192 82.1268 121.111 59.6392 120.831 59.3117C113.604 52.8165 109.234 43.3193 109.739 32.8942C110.635 15.4827 125.369 1.34608 143.296 0.800265C153.324 0.527357 162.4 4.34807 168.898 10.6795C175.173 16.7927 179.038 25.2528 179.038 34.5862L259.318 112.747Z" fill="url(#paint66_linear_735_808)"/>
<path d="M144.416 68.3717C163.568 68.3717 179.094 53.2452 179.094 34.5857C179.094 15.9262 163.568 0.799683 144.416 0.799683C125.264 0.799683 109.738 15.9262 109.738 34.5857C109.738 53.2452 125.264 68.3717 144.416 68.3717Z" fill="url(#paint67_linear_735_808)"/>
<path d="M144.416 68.3717C163.568 68.3717 179.094 53.2452 179.094 34.5857C179.094 15.9262 163.568 0.799683 144.416 0.799683C125.264 0.799683 109.738 15.9262 109.738 34.5857C109.738 53.2452 125.264 68.3717 144.416 68.3717Z" fill="url(#paint68_radial_735_808)"/>
<path d="M144.416 68.3717C163.568 68.3717 179.094 53.2452 179.094 34.5857C179.094 15.9262 163.568 0.799683 144.416 0.799683C125.264 0.799683 109.738 15.9262 109.738 34.5857C109.738 53.2452 125.264 68.3717 144.416 68.3717Z" fill="url(#paint69_radial_735_808)"/>
<path d="M152.651 33.1143L144.416 19.9056L136.181 33.1143L126.545 24.2175L129.682 45.1768H159.15L162.287 24.2175L152.651 33.1143Z" fill="url(#paint70_linear_735_808)"/>
<path d="M158.253 51.1811H130.634C128.953 51.1811 127.553 49.8166 127.553 48.1791C127.553 46.5417 128.953 45.1771 130.634 45.1771H158.253C159.934 45.1771 161.334 46.5417 161.334 48.1791C161.334 49.8166 159.934 51.1811 158.253 51.1811Z" fill="url(#paint71_linear_735_808)"/>
<path d="M126.545 26.1287C127.628 26.1287 128.506 25.2733 128.506 24.218C128.506 23.1627 127.628 22.3072 126.545 22.3072C125.462 22.3072 124.584 23.1627 124.584 24.218C124.584 25.2733 125.462 26.1287 126.545 26.1287Z" fill="url(#paint72_linear_735_808)"/>
<path d="M144.416 21.8169C145.499 21.8169 146.377 20.9614 146.377 19.9061C146.377 18.8508 145.499 17.9953 144.416 17.9953C143.333 17.9953 142.455 18.8508 142.455 19.9061C142.455 20.9614 143.333 21.8169 144.416 21.8169Z" fill="url(#paint73_linear_735_808)"/>
<path d="M162.287 26.0741C163.37 26.0741 164.248 25.2186 164.248 24.1633C164.248 23.108 163.37 22.2525 162.287 22.2525C161.204 22.2525 160.326 23.108 160.326 24.1633C160.326 25.2186 161.204 26.0741 162.287 26.0741Z" fill="url(#paint74_linear_735_808)"/>
</g>
<path d="M357.047 253.295H95.9531C85.2305 253.295 76.5 244.803 76.5 234.372V73.9234C76.5 63.4359 85.2305 55.0002 95.9531 55.0002H356.988C367.77 55.0002 376.441 63.4928 376.441 73.9234V234.315C376.5 244.803 367.77 253.295 357.047 253.295Z" fill="url(#paint75_linear_735_808)"/>
<path d="M376.5 170.991V194.132C362.438 191.51 348.727 190.37 335.133 191.681C310.582 194.075 287.789 205.246 263.355 226.848C259.43 230.325 255.445 233.916 251.637 237.393C245.777 242.694 239.918 248.052 233.766 253.295H195.797C209.859 244.176 222.457 232.719 235.641 220.75C239.566 217.216 243.551 213.511 247.594 209.977C275.953 184.955 303.023 171.903 332.789 168.996C347.496 167.514 362.379 168.654 376.5 170.991ZM233.004 55.0002C231.012 113.537 181.441 160.503 120.797 160.503C105.094 160.503 90.0938 157.368 76.5 151.611V126.133C89.5664 133.543 104.684 137.704 120.797 137.704C168.492 137.704 207.516 100.94 209.508 55.0002H233.004Z" fill="url(#paint76_linear_735_808)"/>
<path d="M376.5 225.823V234.372C376.5 244.86 367.77 253.295 357.047 253.295H95.9531C85.2305 253.295 76.5 244.803 76.5 234.372V225.823H376.5Z" fill="url(#paint77_linear_735_808)"/>
<path d="M354.527 253.296H357.047C367.828 253.296 376.5 244.803 376.5 234.372V73.9236C376.5 63.436 367.77 55.0004 357.047 55.0004H354.527V253.296Z" fill="url(#paint78_linear_735_808)"/>
<path d="M376.5 82.4731V73.9234C376.5 63.4359 367.77 55.0002 357.047 55.0002H95.9531C85.2305 55.0002 76.5 63.4929 76.5 73.9234V82.4731H376.5Z" fill="url(#paint79_linear_735_808)"/>
<path d="M98.4727 55.0002H95.9531C85.2305 55.0002 76.5 63.4928 76.5 73.9234V234.315C76.5 244.803 85.2305 253.238 95.9531 253.238H98.4727V55.0002Z" fill="url(#paint80_linear_735_808)"/>
<path d="M139.312 151.554H110.543C106.148 151.554 102.574 148.077 102.574 143.803V125.221C102.574 120.946 106.148 117.47 110.543 117.47H139.312C143.707 117.47 147.281 120.946 147.281 125.221V143.803C147.223 148.077 143.707 151.554 139.312 151.554Z" fill="url(#paint81_linear_735_808)"/>
<path d="M139.313 151.041H110.484C106.383 151.041 103.043 147.792 103.043 143.803V125.164C103.043 121.174 106.383 117.926 110.484 117.926H139.313C143.414 117.926 146.754 121.174 146.754 125.164V143.803C146.754 147.792 143.414 151.041 139.313 151.041Z" fill="url(#paint82_linear_735_808)"/>
<path d="M146.754 135.082V133.942H131.52V128.926L135.445 125.107H146.754C146.754 124.708 146.695 124.309 146.637 123.967H135.152C134.977 123.967 134.859 124.024 134.742 124.138L130.641 128.128H125.484V117.982H124.313V128.128H119.215L115.113 124.138C114.996 124.024 114.82 123.967 114.703 123.967H103.16C103.102 124.309 103.043 124.708 103.043 125.107H114.469L118.336 128.869V133.942H103.043V135.082H118.336V140.155L114.469 143.916H103.043C103.043 144.315 103.102 144.714 103.16 145.056H114.703C114.879 145.056 114.996 144.999 115.113 144.885L119.215 140.896H124.313V151.041H125.484V140.896H130.641L134.742 144.885C134.859 144.999 134.977 145.056 135.152 145.056H146.637C146.695 144.714 146.754 144.315 146.754 143.916H135.445L131.52 140.098V135.082H146.754ZM130.348 139.756H119.508V129.211H130.348V139.756Z" fill="url(#paint83_linear_735_808)"/>
<path d="M139.254 117.925H139.312C143.414 117.925 146.754 121.174 146.754 125.164V143.802C146.754 147.792 143.414 151.041 139.312 151.041H139.254V117.925Z" fill="url(#paint84_linear_735_808)"/>
<path d="M146.754 144.144C146.578 147.963 143.297 151.041 139.313 151.041H110.484C106.5 151.041 103.219 147.963 103.043 144.144H146.754Z" fill="url(#paint85_linear_735_808)"/>
<path d="M110.602 117.926H110.484C106.383 117.926 103.043 121.174 103.043 125.164V143.803C103.043 147.792 106.383 151.041 110.484 151.041H110.543V117.926H110.602Z" fill="url(#paint86_linear_735_808)"/>
<path d="M146.754 124.822C146.578 121.003 143.297 117.926 139.313 117.926H110.484C106.5 117.926 103.219 121.003 103.043 124.822H146.754Z" fill="url(#paint87_linear_735_808)"/>
<path d="M345.094 150.699C344.801 150.699 344.566 150.642 344.332 150.528C343.453 150.129 343.101 149.103 343.57 148.248C348.082 139.528 348.082 129.553 343.57 120.832C343.16 119.977 343.512 118.951 344.332 118.552C345.211 118.153 346.266 118.495 346.676 119.293C351.715 128.983 351.715 140.098 346.676 149.787C346.324 150.357 345.738 150.699 345.094 150.699ZM339.059 147.45C343.805 139.243 343.805 129.781 339.059 121.573C338.59 120.775 337.535 120.433 336.656 120.946C335.836 121.402 335.484 122.428 336.012 123.283C340.172 130.465 340.172 138.673 336.012 145.797C335.543 146.595 335.836 147.678 336.656 148.134C336.949 148.305 337.242 148.362 337.535 148.362C338.121 148.305 338.707 147.963 339.059 147.45ZM331.559 145.17C336.187 138.616 336.187 130.465 331.559 123.853C331.031 123.055 329.918 122.884 329.098 123.397C328.277 123.91 328.101 124.993 328.629 125.791C332.379 131.149 332.379 137.875 328.629 143.232C328.101 144.03 328.277 145.056 329.098 145.626C329.391 145.854 329.742 145.911 330.094 145.911C330.68 145.911 331.207 145.626 331.559 145.17ZM323.648 142.947C326.226 140.668 327.633 137.647 327.633 134.512C327.633 131.377 326.226 128.356 323.648 126.076C322.945 125.449 321.832 125.449 321.187 126.19C320.543 126.874 320.543 127.957 321.305 128.584C323.121 130.237 324.117 132.346 324.117 134.512C324.117 136.678 323.121 138.787 321.305 140.44C320.601 141.067 320.543 142.15 321.187 142.833C321.539 143.175 322.008 143.403 322.476 143.403C322.887 143.403 323.297 143.232 323.648 142.947Z" fill="url(#paint88_linear_735_808)"/>
<path d="M224.742 224.57H104.801C103.805 224.57 103.043 223.829 103.043 222.859C103.043 221.89 103.805 221.149 104.801 221.149H224.742C225.738 221.149 226.5 221.89 226.5 222.859C226.5 223.772 225.738 224.57 224.742 224.57Z" fill="url(#paint89_linear_735_808)"/>
<path d="M348.668 224.57H326.051C325.055 224.57 324.293 223.829 324.293 222.859C324.293 221.89 325.055 221.149 326.051 221.149H348.668C349.665 221.149 350.426 221.89 350.426 222.859C350.426 223.772 349.606 224.57 348.668 224.57ZM316.442 222.859C316.442 221.89 315.68 221.149 314.684 221.149H292.067C291.071 221.149 290.309 221.89 290.309 222.859C290.309 223.829 291.071 224.57 292.067 224.57H314.684C315.68 224.57 316.442 223.772 316.442 222.859Z" fill="url(#paint90_linear_735_808)"/>
<path d="M104.801 93.8726C103.805 93.8726 103.043 93.1316 103.043 92.1627V85.4939C103.043 84.525 103.805 83.784 104.801 83.784C105.797 83.784 106.559 84.525 106.559 85.4939V92.1627C106.559 93.0746 105.797 93.8726 104.801 93.8726ZM116.109 92.1627V85.4939C116.109 84.525 115.348 83.784 114.352 83.784C113.355 83.784 112.594 84.525 112.594 85.4939V92.1627C112.594 93.1316 113.355 93.8726 114.352 93.8726C115.348 93.8726 116.109 93.0746 116.109 92.1627ZM125.719 92.1627V85.4939C125.719 84.525 124.957 83.784 123.961 83.784C122.965 83.784 122.203 84.525 122.203 85.4939V92.1627C122.203 93.1316 122.965 93.8726 123.961 93.8726C124.898 93.8726 125.719 93.0746 125.719 92.1627ZM135.27 92.1627V85.4939C135.27 84.525 134.508 83.784 133.512 83.784C132.516 83.784 131.754 84.525 131.754 85.4939V92.1627C131.754 93.1316 132.516 93.8726 133.512 93.8726C134.508 93.8726 135.27 93.0746 135.27 92.1627Z" fill="url(#paint91_linear_735_808)"/>
<path d="M108.668 195.557H108.375C105.445 195.557 103.043 193.22 103.043 190.37V182.276C103.043 179.426 105.445 177.089 108.375 177.089H108.668C111.598 177.089 114 179.426 114 182.276V190.37C114 193.22 111.656 195.557 108.668 195.557ZM108.375 180.509C107.379 180.509 106.559 181.307 106.559 182.276V190.37C106.559 191.339 107.379 192.137 108.375 192.137H108.668C109.664 192.137 110.484 191.339 110.484 190.37V182.276C110.484 181.307 109.664 180.509 108.668 180.509H108.375Z" fill="url(#paint92_linear_735_808)"/>
<path d="M122.905 195.557H122.612C119.683 195.557 117.28 193.22 117.28 190.37V182.276C117.28 179.427 119.683 177.09 122.612 177.09H122.905C125.835 177.09 128.237 179.427 128.237 182.276V190.37C128.237 193.22 125.835 195.557 122.905 195.557ZM122.612 180.509C121.616 180.509 120.796 181.307 120.796 182.276V190.37C120.796 191.339 121.616 192.137 122.612 192.137H122.905C123.901 192.137 124.722 191.339 124.722 190.37V182.276C124.722 181.307 123.901 180.509 122.905 180.509H122.612Z" fill="url(#paint93_linear_735_808)"/>
<path d="M137.145 195.557H136.852C133.922 195.557 131.52 193.22 131.52 190.37V182.276C131.52 179.427 133.922 177.09 136.852 177.09H137.145C140.074 177.09 142.477 179.427 142.477 182.276V190.37C142.477 193.22 140.074 195.557 137.145 195.557ZM136.852 180.509C135.855 180.509 135.035 181.307 135.035 182.276V190.37C135.035 191.339 135.855 192.137 136.852 192.137H137.145C138.141 192.137 138.961 191.339 138.961 190.37V182.276C138.961 181.307 138.141 180.509 137.145 180.509H136.852Z" fill="url(#paint94_linear_735_808)"/>
<path d="M151.383 195.557H151.09C148.16 195.557 145.758 193.22 145.758 190.37V182.276C145.758 179.427 148.16 177.09 151.09 177.09H151.383C154.313 177.09 156.715 179.427 156.715 182.276V190.37C156.715 193.22 154.313 195.557 151.383 195.557ZM151.09 180.509C150.094 180.509 149.273 181.307 149.273 182.276V190.37C149.273 191.339 150.094 192.137 151.09 192.137H151.383C152.379 192.137 153.199 191.339 153.199 190.37V182.276C153.199 181.307 152.379 180.509 151.383 180.509H151.09Z" fill="url(#paint95_linear_735_808)"/>
<path d="M173.238 195.557H172.945C170.016 195.557 167.613 193.22 167.613 190.37V182.276C167.613 179.427 170.016 177.09 172.945 177.09H173.238C176.168 177.09 178.57 179.427 178.57 182.276V190.37C178.57 193.22 176.168 195.557 173.238 195.557ZM172.945 180.509C171.949 180.509 171.129 181.307 171.129 182.276V190.37C171.129 191.339 171.949 192.137 172.945 192.137H173.238C174.234 192.137 175.055 191.339 175.055 190.37V182.276C175.055 181.307 174.234 180.509 173.238 180.509H172.945Z" fill="url(#paint96_linear_735_808)"/>
<path d="M187.477 195.557H187.184C184.254 195.557 181.852 193.22 181.852 190.37V182.277C181.852 179.427 184.254 177.09 187.184 177.09H187.477C190.406 177.09 192.809 179.427 192.809 182.277V190.37C192.809 193.22 190.406 195.557 187.477 195.557ZM187.184 180.51C186.187 180.51 185.367 181.308 185.367 182.277V190.37C185.367 191.339 186.187 192.137 187.184 192.137H187.477C188.473 192.137 189.293 191.339 189.293 190.37V182.277C189.293 181.308 188.473 180.51 187.477 180.51H187.184Z" fill="url(#paint97_linear_735_808)"/>
<path d="M201.714 195.557H201.421C198.491 195.557 196.089 193.22 196.089 190.37V182.277C196.089 179.427 198.491 177.09 201.421 177.09H201.714C204.644 177.09 207.046 179.427 207.046 182.277V190.37C207.046 193.22 204.644 195.557 201.714 195.557ZM201.421 180.51C200.425 180.51 199.604 181.308 199.604 182.277V190.37C199.604 191.339 200.425 192.137 201.421 192.137H201.714C202.71 192.137 203.53 191.339 203.53 190.37V182.277C203.53 181.308 202.71 180.51 201.714 180.51H201.421Z" fill="url(#paint98_linear_735_808)"/>
<path d="M215.954 195.557H215.661C212.731 195.557 210.329 193.22 210.329 190.37V182.277C210.329 179.427 212.731 177.09 215.661 177.09H215.954C218.883 177.09 221.286 179.427 221.286 182.277V190.37C221.286 193.22 218.883 195.557 215.954 195.557ZM215.661 180.51C214.665 180.51 213.844 181.308 213.844 182.277V190.37C213.844 191.339 214.665 192.137 215.661 192.137H215.954C216.95 192.137 217.77 191.339 217.77 190.37V182.277C217.77 181.308 216.95 180.51 215.954 180.51H215.661Z" fill="url(#paint99_linear_735_808)"/>
<path d="M237.809 195.557H237.516C234.586 195.557 232.184 193.22 232.184 190.37V182.276C232.184 179.427 234.586 177.09 237.516 177.09H237.809C240.738 177.09 243.141 179.427 243.141 182.276V190.37C243.141 193.22 240.738 195.557 237.809 195.557ZM237.516 180.509C236.52 180.509 235.699 181.307 235.699 182.276V190.37C235.699 191.339 236.52 192.137 237.516 192.137H237.809C238.805 192.137 239.625 191.339 239.625 190.37V182.276C239.625 181.307 238.805 180.509 237.809 180.509H237.516Z" fill="url(#paint100_linear_735_808)"/>
<path d="M252.047 195.557H251.754C248.824 195.557 246.422 193.22 246.422 190.37V182.277C246.422 179.427 248.824 177.09 251.754 177.09H252.047C254.977 177.09 257.379 179.427 257.379 182.277V190.37C257.379 193.22 254.977 195.557 252.047 195.557ZM251.754 180.51C250.758 180.51 249.938 181.308 249.938 182.277V190.37C249.938 191.339 250.758 192.137 251.754 192.137H252.047C253.043 192.137 253.863 191.339 253.863 190.37V182.277C253.863 181.308 253.043 180.51 252.047 180.51H251.754Z" fill="url(#paint101_linear_735_808)"/>
<path d="M266.285 195.557H265.992C263.063 195.557 260.66 193.22 260.66 190.37V182.277C260.66 179.427 263.063 177.09 265.992 177.09H266.285C269.215 177.09 271.617 179.427 271.617 182.277V190.37C271.617 193.22 269.215 195.557 266.285 195.557ZM265.992 180.51C264.996 180.51 264.176 181.308 264.176 182.277V190.37C264.176 191.339 264.996 192.137 265.992 192.137H266.285C267.281 192.137 268.102 191.339 268.102 190.37V182.277C268.102 181.308 267.281 180.51 266.285 180.51H265.992Z" fill="url(#paint102_linear_735_808)"/>
<path d="M280.523 195.557H280.23C277.301 195.557 274.898 193.22 274.898 190.37V182.277C274.898 179.427 277.301 177.09 280.23 177.09H280.523C283.453 177.09 285.855 179.427 285.855 182.277V190.37C285.855 193.22 283.453 195.557 280.523 195.557ZM280.23 180.51C279.234 180.51 278.414 181.308 278.414 182.277V190.37C278.414 191.339 279.234 192.137 280.23 192.137H280.523C281.52 192.137 282.34 191.339 282.34 190.37V182.277C282.34 181.308 281.52 180.51 280.523 180.51H280.23Z" fill="url(#paint103_linear_735_808)"/>
<path d="M302.379 195.557H302.086C299.157 195.557 296.754 193.22 296.754 190.37V182.276C296.754 179.427 299.157 177.09 302.086 177.09H302.379C305.309 177.09 307.711 179.427 307.711 182.276V190.37C307.711 193.22 305.309 195.557 302.379 195.557ZM302.086 180.509C301.09 180.509 300.27 181.307 300.27 182.276V190.37C300.27 191.339 301.09 192.137 302.086 192.137H302.379C303.375 192.137 304.196 191.339 304.196 190.37V182.276C304.196 181.307 303.375 180.509 302.379 180.509H302.086Z" fill="url(#paint104_linear_735_808)"/>
<path d="M316.617 195.557H316.324C313.395 195.557 310.992 193.22 310.992 190.37V182.277C310.992 179.427 313.395 177.09 316.324 177.09H316.617C319.547 177.09 321.949 179.427 321.949 182.277V190.37C321.949 193.22 319.547 195.557 316.617 195.557ZM316.324 180.51C315.328 180.51 314.508 181.308 314.508 182.277V190.37C314.508 191.339 315.328 192.137 316.324 192.137H316.617C317.613 192.137 318.434 191.339 318.434 190.37V182.277C318.434 181.308 317.613 180.51 316.617 180.51H316.324Z" fill="url(#paint105_linear_735_808)"/>
<path d="M330.855 195.557H330.562C327.632 195.557 325.23 193.22 325.23 190.37V182.277C325.23 179.427 327.632 177.09 330.562 177.09H330.855C333.785 177.09 336.187 179.427 336.187 182.277V190.37C336.187 193.22 333.785 195.557 330.855 195.557ZM330.562 180.51C329.566 180.51 328.746 181.308 328.746 182.277V190.37C328.746 191.339 329.566 192.137 330.562 192.137H330.855C331.851 192.137 332.671 191.339 332.671 190.37V182.277C332.671 181.308 331.851 180.51 330.855 180.51H330.562Z" fill="url(#paint106_linear_735_808)"/>
<path d="M345.094 195.557H344.801C341.872 195.557 339.469 193.22 339.469 190.37V182.277C339.469 179.427 341.872 177.09 344.801 177.09H345.094C348.024 177.09 350.426 179.427 350.426 182.277V190.37C350.426 193.22 348.024 195.557 345.094 195.557ZM344.801 180.51C343.805 180.51 342.985 181.308 342.985 182.277V190.37C342.985 191.339 343.805 192.137 344.801 192.137H345.094C346.09 192.137 346.911 191.339 346.911 190.37V182.277C346.911 181.308 346.09 180.51 345.094 180.51H344.801Z" fill="url(#paint107_linear_735_808)"/>
<path d="M346.676 136.621C365.192 154.633 353.004 185.81 326.871 186.665C326.461 186.665 326.051 186.665 325.641 186.665C315.153 186.665 305.66 182.334 299.039 175.38C298.688 175.095 274.547 151.612 250.406 128.129C226.266 104.646 202.125 81.1625 201.832 80.8205C194.274 74.0378 189.703 64.1202 190.231 53.2336C191.168 35.0513 206.578 20.2889 225.328 19.7189C235.817 19.4339 245.309 23.4238 252.106 30.0355C258.668 36.4192 262.711 45.2539 262.711 55.0005L346.676 136.621Z" fill="url(#paint108_linear_735_808)"/>
<path d="M226.499 90.2816C246.53 90.2816 262.769 74.4855 262.769 55C262.769 35.5145 246.53 19.7184 226.499 19.7184C206.468 19.7184 190.229 35.5145 190.229 55C190.229 74.4855 206.468 90.2816 226.499 90.2816Z" fill="url(#paint109_linear_735_808)"/>
<path d="M226.499 90.2816C246.53 90.2816 262.769 74.4855 262.769 55C262.769 35.5145 246.53 19.7184 226.499 19.7184C206.468 19.7184 190.229 35.5145 190.229 55C190.229 74.4855 206.468 90.2816 226.499 90.2816Z" fill="url(#paint110_radial_735_808)"/>
<path d="M226.499 90.2816C246.53 90.2816 262.769 74.4855 262.769 55C262.769 35.5145 246.53 19.7184 226.499 19.7184C206.468 19.7184 190.229 35.5145 190.229 55C190.229 74.4855 206.468 90.2816 226.499 90.2816Z" fill="url(#paint111_radial_735_808)"/>
<path d="M235.112 53.4618L226.499 39.6683L217.886 53.4618L207.808 44.1712L211.089 66.0583H241.909L245.19 44.1712L235.112 53.4618Z" fill="url(#paint112_linear_735_808)"/>
<path d="M240.972 72.3279H212.085C210.327 72.3279 208.862 70.9029 208.862 69.193C208.862 67.483 210.327 66.0581 212.085 66.0581H240.972C242.73 66.0581 244.194 67.483 244.194 69.193C244.194 70.9029 242.73 72.3279 240.972 72.3279Z" fill="url(#paint113_linear_735_808)"/>
<path d="M207.808 46.166C208.94 46.166 209.858 45.2728 209.858 44.1711C209.858 43.0693 208.94 42.1761 207.808 42.1761C206.675 42.1761 205.757 43.0693 205.757 44.1711C205.757 45.2728 206.675 46.166 207.808 46.166Z" fill="url(#paint114_linear_735_808)"/>
<path d="M226.5 41.6631C227.632 41.6631 228.55 40.7699 228.55 39.6681C228.55 38.5664 227.632 37.6732 226.5 37.6732C225.367 37.6732 224.449 38.5664 224.449 39.6681C224.449 40.7699 225.367 41.6631 226.5 41.6631Z" fill="url(#paint115_linear_735_808)"/>
<path d="M245.19 46.109C246.323 46.109 247.241 45.2159 247.241 44.1141C247.241 43.0124 246.323 42.1192 245.19 42.1192C244.058 42.1192 243.14 43.0124 243.14 44.1141C243.14 45.2159 244.058 46.109 245.19 46.109Z" fill="url(#paint116_linear_735_808)"/>
<defs>
<linearGradient id="paint0_linear_735_808" x1="166.186" y1="41.7896" x2="452.629" y2="222.844" gradientUnits="userSpaceOnUse">
<stop stop-color="#16423C"/>
<stop offset="0.3104" stop-color="#16423C"/>
<stop offset="0.8987" stop-color="#33867A"/>
<stop offset="1" stop-color="#16423C"/>
</linearGradient>
<linearGradient id="paint1_linear_735_808" x1="168.077" y1="49.7347" x2="445.716" y2="226.61" gradientUnits="userSpaceOnUse">
<stop stop-color="#29675F"/>
<stop offset="0.3104" stop-color="#22514A"/>
<stop offset="0.8987" stop-color="#4B9E93"/>
<stop offset="1" stop-color="#16423C"/>
</linearGradient>
<linearGradient id="paint2_linear_735_808" x1="311.867" y1="233.922" x2="311.867" y2="215.234" gradientUnits="userSpaceOnUse">
<stop stop-color="#16423C"/>
<stop offset="1" stop-color="#32365C" stop-opacity="0"/>
</linearGradient>
<linearGradient id="paint3_linear_735_808" x1="456.764" y1="134.158" x2="438.777" y2="134.158" gradientUnits="userSpaceOnUse">
<stop stop-color="#16423C"/>
<stop offset="1" stop-color="#32365C" stop-opacity="0"/>
</linearGradient>
<linearGradient id="paint4_linear_735_808" x1="311.867" y1="34.395" x2="311.867" y2="53.0829" gradientUnits="userSpaceOnUse">
<stop stop-color="#A1A4C7"/>
<stop offset="1" stop-color="#A1A4C7" stop-opacity="0"/>
</linearGradient>
<linearGradient id="paint5_linear_735_808" x1="179.288" y1="79.9695" x2="240.35" y2="140.937" gradientUnits="userSpaceOnUse">
<stop stop-color="#7B7DA1"/>
<stop offset="0.4958" stop-color="#2D7A6F"/>
<stop offset="1" stop-color="#16423C"/>
</linearGradient>
<linearGradient id="paint6_linear_735_808" x1="195.15" y1="100.328" x2="232.794" y2="128.973" gradientUnits="userSpaceOnUse">
<stop stop-color="#FFED81"/>
<stop offset="0.2348" stop-color="#FFD968"/>
<stop offset="0.7302" stop-color="#FFA629"/>
<stop offset="1" stop-color="#FF8804"/>
</linearGradient>
<linearGradient id="paint7_linear_735_808" x1="195.247" y1="100.997" x2="232.956" y2="128.494" gradientUnits="userSpaceOnUse">
<stop stop-color="#EFA33D"/>
<stop offset="1" stop-color="#A05223"/>
</linearGradient>
<linearGradient id="paint8_linear_735_808" x1="234.996" y1="114.651" x2="230.186" y2="114.651" gradientUnits="userSpaceOnUse">
<stop stop-color="#FF8804"/>
<stop offset="1" stop-color="#FF8804" stop-opacity="0"/>
</linearGradient>
<linearGradient id="paint9_linear_735_808" x1="213.914" y1="131.033" x2="213.914" y2="125.823" gradientUnits="userSpaceOnUse">
<stop stop-color="#FF8804"/>
<stop offset="1" stop-color="#FF8804" stop-opacity="0"/>
</linearGradient>
<linearGradient id="paint10_linear_735_808" x1="213.914" y1="98.2697" x2="213.914" y2="103.479" gradientUnits="userSpaceOnUse">
<stop stop-color="#FFF0A9"/>
<stop offset="1" stop-color="#FFF0A9" stop-opacity="0"/>
</linearGradient>
<linearGradient id="paint11_linear_735_808" x1="406.828" y1="102.538" x2="431.101" y2="126.774" gradientUnits="userSpaceOnUse">
<stop stop-color="#E9EDFF"/>
<stop offset="1" stop-color="#C4CBFF"/>
</linearGradient>
<linearGradient id="paint12_linear_735_808" x1="252.348" y1="200.401" x2="252.348" y2="203.943" gradientUnits="userSpaceOnUse">
<stop stop-color="#C4CBFF"/>
<stop offset="0.5251" stop-color="#E9EDFF"/>
<stop offset="1" stop-color="#C4CBFF"/>
</linearGradient>
<linearGradient id="paint13_linear_735_808" x1="402.377" y1="200.329" x2="402.377" y2="204.145" gradientUnits="userSpaceOnUse">
<stop stop-color="#C4CBFF"/>
<stop offset="0.5251" stop-color="#E9EDFF"/>
<stop offset="1" stop-color="#C4CBFF"/>
</linearGradient>
<linearGradient id="paint14_linear_735_808" x1="191.937" y1="64.3049" x2="224.329" y2="74.1007" gradientUnits="userSpaceOnUse">
<stop stop-color="#E9EDFF"/>
<stop offset="1" stop-color="#C4CBFF"/>
</linearGradient>
<linearGradient id="paint15_linear_735_808" x1="220.282" y1="166.108" x2="230.86" y2="166.108" gradientUnits="userSpaceOnUse">
<stop stop-color="#C4CBFF"/>
<stop offset="0.5251" stop-color="#E9EDFF"/>
<stop offset="1" stop-color="#C4CBFF"/>
</linearGradient>
<linearGradient id="paint16_linear_735_808" x1="234.007" y1="166.108" x2="244.585" y2="166.108" gradientUnits="userSpaceOnUse">
<stop stop-color="#C4CBFF"/>
<stop offset="0.5251" stop-color="#E9EDFF"/>
<stop offset="1" stop-color="#C4CBFF"/>
</linearGradient>
<linearGradient id="paint17_linear_735_808" x1="255.084" y1="166.108" x2="265.662" y2="166.108" gradientUnits="userSpaceOnUse">
<stop stop-color="#C4CBFF"/>
<stop offset="0.5251" stop-color="#E9EDFF"/>
<stop offset="1" stop-color="#C4CBFF"/>
</linearGradient>
<linearGradient id="paint18_linear_735_808" x1="268.809" y1="166.108" x2="279.387" y2="166.108" gradientUnits="userSpaceOnUse">
<stop stop-color="#C4CBFF"/>
<stop offset="0.5251" stop-color="#E9EDFF"/>
<stop offset="1" stop-color="#C4CBFF"/>
</linearGradient>
<linearGradient id="paint19_linear_735_808" x1="282.535" y1="166.108" x2="293.113" y2="166.108" gradientUnits="userSpaceOnUse">
<stop stop-color="#C4CBFF"/>
<stop offset="0.5251" stop-color="#E9EDFF"/>
<stop offset="1" stop-color="#C4CBFF"/>
</linearGradient>
<linearGradient id="paint20_linear_735_808" x1="296.26" y1="166.108" x2="306.838" y2="166.108" gradientUnits="userSpaceOnUse">
<stop stop-color="#C4CBFF"/>
<stop offset="0.5251" stop-color="#E9EDFF"/>
<stop offset="1" stop-color="#C4CBFF"/>
</linearGradient>
<linearGradient id="paint21_linear_735_808" x1="317.337" y1="166.108" x2="327.915" y2="166.108" gradientUnits="userSpaceOnUse">
<stop stop-color="#C4CBFF"/>
<stop offset="0.5251" stop-color="#E9EDFF"/>
<stop offset="1" stop-color="#C4CBFF"/>
</linearGradient>
<linearGradient id="paint22_linear_735_808" x1="331.063" y1="166.108" x2="341.64" y2="166.108" gradientUnits="userSpaceOnUse">
<stop stop-color="#C4CBFF"/>
<stop offset="0.5251" stop-color="#E9EDFF"/>
<stop offset="1" stop-color="#C4CBFF"/>
</linearGradient>
<linearGradient id="paint23_linear_735_808" x1="344.788" y1="166.108" x2="355.366" y2="166.108" gradientUnits="userSpaceOnUse">
<stop stop-color="#C4CBFF"/>
<stop offset="0.5251" stop-color="#E9EDFF"/>
<stop offset="1" stop-color="#C4CBFF"/>
</linearGradient>
<linearGradient id="paint24_linear_735_808" x1="358.514" y1="166.108" x2="369.092" y2="166.108" gradientUnits="userSpaceOnUse">
<stop stop-color="#C4CBFF"/>
<stop offset="0.5251" stop-color="#E9EDFF"/>
<stop offset="1" stop-color="#C4CBFF"/>
</linearGradient>
<linearGradient id="paint25_linear_735_808" x1="379.59" y1="166.108" x2="390.168" y2="166.108" gradientUnits="userSpaceOnUse">
<stop stop-color="#C4CBFF"/>
<stop offset="0.5251" stop-color="#E9EDFF"/>
<stop offset="1" stop-color="#C4CBFF"/>
</linearGradient>
<linearGradient id="paint26_linear_735_808" x1="393.316" y1="166.108" x2="403.894" y2="166.108" gradientUnits="userSpaceOnUse">
<stop stop-color="#C4CBFF"/>
<stop offset="0.5251" stop-color="#E9EDFF"/>
<stop offset="1" stop-color="#C4CBFF"/>
</linearGradient>
<linearGradient id="paint27_linear_735_808" x1="407.041" y1="166.108" x2="417.619" y2="166.108" gradientUnits="userSpaceOnUse">
<stop stop-color="#C4CBFF"/>
<stop offset="0.5251" stop-color="#E9EDFF"/>
<stop offset="1" stop-color="#C4CBFF"/>
</linearGradient>
<linearGradient id="paint28_linear_735_808" x1="420.767" y1="166.108" x2="431.345" y2="166.108" gradientUnits="userSpaceOnUse">
<stop stop-color="#C4CBFF"/>
<stop offset="0.5251" stop-color="#E9EDFF"/>
<stop offset="1" stop-color="#C4CBFF"/>
</linearGradient>
<linearGradient id="paint29_linear_735_808" x1="288.41" y1="12.2377" x2="368.012" y2="91.715" gradientUnits="userSpaceOnUse">
<stop stop-color="#16423C"/>
<stop offset="1" stop-color="#32365C" stop-opacity="0"/>
</linearGradient>
<linearGradient id="paint30_linear_735_808" x1="286.132" y1="9.96184" x2="339.049" y2="62.7962" gradientUnits="userSpaceOnUse">
<stop stop-color="#FF7F5C"/>
<stop offset="0.1532" stop-color="#FF7957"/>
<stop offset="0.3599" stop-color="#FF6849"/>
<stop offset="0.5972" stop-color="#FF4B33"/>
<stop offset="0.8552" stop-color="#FF2414"/>
<stop offset="0.9959" stop-color="#FF0C00"/>
</linearGradient>
<radialGradient id="paint31_radial_735_808" cx="0" cy="0" r="1" gradientUnits="userSpaceOnUse" gradientTransform="translate(313.749 37.4884) scale(37.8503 37.9094)">
<stop offset="0.8186" stop-color="#FFB7A3" stop-opacity="0"/>
<stop offset="1" stop-color="#FFB7A3"/>
</radialGradient>
<radialGradient id="paint32_radial_735_808" cx="0" cy="0" r="1" gradientUnits="userSpaceOnUse" gradientTransform="translate(310.162 33.8958) scale(37.8503 37.9094)">
<stop offset="0.8186" stop-color="#E00A00" stop-opacity="0"/>
<stop offset="1" stop-color="#E00A00"/>
</radialGradient>
<linearGradient id="paint33_linear_735_808" x1="311.866" y1="20.9799" x2="311.866" y2="47.2033" gradientUnits="userSpaceOnUse">
<stop stop-color="#FFED81"/>
<stop offset="0.2348" stop-color="#FFD968"/>
<stop offset="0.7302" stop-color="#FFA629"/>
<stop offset="1" stop-color="#FF8804"/>
</linearGradient>
<linearGradient id="paint34_linear_735_808" x1="311.867" y1="46.4428" x2="311.867" y2="53.0582" gradientUnits="userSpaceOnUse">
<stop stop-color="#FFF5A9"/>
<stop offset="0.0059793" stop-color="#FFF5A8"/>
<stop offset="0.4891" stop-color="#FFDA58"/>
<stop offset="0.8318" stop-color="#FFC925"/>
<stop offset="1" stop-color="#FFC312"/>
</linearGradient>
<linearGradient id="paint35_linear_735_808" x1="293.868" y1="23.0182" x2="293.868" y2="27.2455" gradientUnits="userSpaceOnUse">
<stop stop-color="#FFF5A9"/>
<stop offset="0.0059793" stop-color="#FFF5A8"/>
<stop offset="0.4891" stop-color="#FFDA58"/>
<stop offset="0.8318" stop-color="#FFC925"/>
<stop offset="1" stop-color="#FFC312"/>
</linearGradient>
<linearGradient id="paint36_linear_735_808" x1="311.868" y1="18.5785" x2="311.868" y2="22.8058" gradientUnits="userSpaceOnUse">
<stop stop-color="#FFF5A9"/>
<stop offset="0.0059793" stop-color="#FFF5A8"/>
<stop offset="0.4891" stop-color="#FFDA58"/>
<stop offset="0.8318" stop-color="#FFC925"/>
<stop offset="1" stop-color="#FFC312"/>
</linearGradient>
<linearGradient id="paint37_linear_735_808" x1="329.866" y1="23" x2="329.866" y2="27.2273" gradientUnits="userSpaceOnUse">
<stop stop-color="#FFF5A9"/>
<stop offset="0.0059793" stop-color="#FFF5A8"/>
<stop offset="0.4891" stop-color="#FFDA58"/>
<stop offset="0.8318" stop-color="#FFC925"/>
<stop offset="1" stop-color="#FFC312"/>
</linearGradient>
<linearGradient id="paint38_linear_735_808" x1="-0.039775" y1="40.4321" x2="279.466" y2="222.048" gradientUnits="userSpaceOnUse">
<stop stop-color="#16423C"/>
<stop offset="0.3104" stop-color="#16423C"/>
<stop offset="0.8987" stop-color="#33867A"/>
<stop offset="1" stop-color="#16423C"/>
</linearGradient>
<linearGradient id="paint39_linear_735_808" x1="1.83529" y1="48.0959" x2="272.701" y2="225.488" gradientUnits="userSpaceOnUse">
<stop stop-color="#29675F"/>
<stop offset="0.3104" stop-color="#22514A"/>
<stop offset="0.8987" stop-color="#4B9E93"/>
<stop offset="1" stop-color="#16423C"/>
</linearGradient>
<linearGradient id="paint40_linear_735_808" x1="144.417" y1="225.761" x2="144.417" y2="207.735" gradientUnits="userSpaceOnUse">
<stop stop-color="#16423C"/>
<stop offset="1" stop-color="#32365C" stop-opacity="0"/>
</linearGradient>
<linearGradient id="paint41_linear_735_808" x1="144.417" y1="33.2993" x2="144.417" y2="51.3254" gradientUnits="userSpaceOnUse">
<stop stop-color="#A1A4C7"/>
<stop offset="1" stop-color="#A1A4C7" stop-opacity="0"/>
</linearGradient>
<linearGradient id="paint42_linear_735_808" x1="0.735574" y1="129.53" x2="16.3585" y2="129.53" gradientUnits="userSpaceOnUse">
<stop stop-color="#A1A4C7"/>
<stop offset="1" stop-color="#A1A4C7" stop-opacity="0"/>
</linearGradient>
<linearGradient id="paint43_linear_735_808" x1="12.9527" y1="77.2602" x2="71.8327" y2="137.695" gradientUnits="userSpaceOnUse">
<stop stop-color="#7B7DA1"/>
<stop offset="0.4958" stop-color="#2D7A6F"/>
<stop offset="1" stop-color="#16423C"/>
</linearGradient>
<linearGradient id="paint44_linear_735_808" x1="28.6817" y1="96.8974" x2="65.2476" y2="125.502" gradientUnits="userSpaceOnUse">
<stop stop-color="#FFED81"/>
<stop offset="0.2348" stop-color="#FFD968"/>
<stop offset="0.7302" stop-color="#FFA629"/>
<stop offset="1" stop-color="#FF8804"/>
</linearGradient>
<linearGradient id="paint45_linear_735_808" x1="28.7775" y1="97.5427" x2="65.4465" y2="125.03" gradientUnits="userSpaceOnUse">
<stop stop-color="#EFA33D"/>
<stop offset="1" stop-color="#A05223"/>
</linearGradient>
<linearGradient id="paint46_linear_735_808" x1="68.1913" y1="110.714" x2="63.421" y2="110.714" gradientUnits="userSpaceOnUse">
<stop stop-color="#FF8804"/>
<stop offset="1" stop-color="#FF8804" stop-opacity="0"/>
</linearGradient>
<linearGradient id="paint47_linear_735_808" x1="47.2879" y1="126.515" x2="47.2879" y2="121.491" gradientUnits="userSpaceOnUse">
<stop stop-color="#FF8804"/>
<stop offset="1" stop-color="#FF8804" stop-opacity="0"/>
</linearGradient>
<linearGradient id="paint48_linear_735_808" x1="26.3837" y1="110.714" x2="30.4554" y2="110.714" gradientUnits="userSpaceOnUse">
<stop stop-color="#FFF0A9"/>
<stop offset="1" stop-color="#FFF0A9" stop-opacity="0"/>
</linearGradient>
<linearGradient id="paint49_linear_735_808" x1="47.2879" y1="94.9123" x2="47.2879" y2="99.9371" gradientUnits="userSpaceOnUse">
<stop stop-color="#FFF0A9"/>
<stop offset="1" stop-color="#FFF0A9" stop-opacity="0"/>
</linearGradient>
<linearGradient id="paint50_linear_735_808" x1="85.4008" y1="193.427" x2="85.4008" y2="196.843" gradientUnits="userSpaceOnUse">
<stop stop-color="#C4CBFF"/>
<stop offset="0.5251" stop-color="#E9EDFF"/>
<stop offset="1" stop-color="#C4CBFF"/>
</linearGradient>
<linearGradient id="paint51_linear_735_808" x1="234.166" y1="193.358" x2="234.166" y2="197.038" gradientUnits="userSpaceOnUse">
<stop stop-color="#C4CBFF"/>
<stop offset="0.5251" stop-color="#E9EDFF"/>
<stop offset="1" stop-color="#C4CBFF"/>
</linearGradient>
<linearGradient id="paint52_linear_735_808" x1="25.4952" y1="62.1503" x2="57.463" y2="72.0884" gradientUnits="userSpaceOnUse">
<stop stop-color="#E9EDFF"/>
<stop offset="1" stop-color="#C4CBFF"/>
</linearGradient>
<linearGradient id="paint53_linear_735_808" x1="26.3839" y1="160.348" x2="36.8725" y2="160.348" gradientUnits="userSpaceOnUse">
<stop stop-color="#C4CBFF"/>
<stop offset="0.5251" stop-color="#E9EDFF"/>
<stop offset="1" stop-color="#C4CBFF"/>
</linearGradient>
<linearGradient id="paint54_linear_735_808" x1="39.9939" y1="160.348" x2="50.4829" y2="160.348" gradientUnits="userSpaceOnUse">
<stop stop-color="#C4CBFF"/>
<stop offset="0.5251" stop-color="#E9EDFF"/>
<stop offset="1" stop-color="#C4CBFF"/>
</linearGradient>
<linearGradient id="paint55_linear_735_808" x1="53.6043" y1="160.348" x2="64.0934" y2="160.348" gradientUnits="userSpaceOnUse">
<stop stop-color="#C4CBFF"/>
<stop offset="0.5251" stop-color="#E9EDFF"/>
<stop offset="1" stop-color="#C4CBFF"/>
</linearGradient>
<linearGradient id="paint56_linear_735_808" x1="67.2143" y1="160.348" x2="77.7033" y2="160.348" gradientUnits="userSpaceOnUse">
<stop stop-color="#C4CBFF"/>
<stop offset="0.5251" stop-color="#E9EDFF"/>
<stop offset="1" stop-color="#C4CBFF"/>
</linearGradient>
<linearGradient id="paint57_linear_735_808" x1="88.1136" y1="160.348" x2="98.6026" y2="160.348" gradientUnits="userSpaceOnUse">
<stop stop-color="#C4CBFF"/>
<stop offset="0.5251" stop-color="#E9EDFF"/>
<stop offset="1" stop-color="#C4CBFF"/>
</linearGradient>
<linearGradient id="paint58_linear_735_808" x1="101.723" y1="160.348" x2="112.213" y2="160.348" gradientUnits="userSpaceOnUse">
<stop stop-color="#C4CBFF"/>
<stop offset="0.5251" stop-color="#E9EDFF"/>
<stop offset="1" stop-color="#C4CBFF"/>
</linearGradient>
<linearGradient id="paint59_linear_735_808" x1="115.334" y1="160.348" x2="125.823" y2="160.348" gradientUnits="userSpaceOnUse">
<stop stop-color="#C4CBFF"/>
<stop offset="0.5251" stop-color="#E9EDFF"/>
<stop offset="1" stop-color="#C4CBFF"/>
</linearGradient>
<linearGradient id="paint60_linear_735_808" x1="128.946" y1="160.348" x2="139.435" y2="160.348" gradientUnits="userSpaceOnUse">
<stop stop-color="#C4CBFF"/>
<stop offset="0.5251" stop-color="#E9EDFF"/>
<stop offset="1" stop-color="#C4CBFF"/>
</linearGradient>
<linearGradient id="paint61_linear_735_808" x1="149.843" y1="160.348" x2="160.332" y2="160.348" gradientUnits="userSpaceOnUse">
<stop stop-color="#C4CBFF"/>
<stop offset="0.5251" stop-color="#E9EDFF"/>
<stop offset="1" stop-color="#C4CBFF"/>
</linearGradient>
<linearGradient id="paint62_linear_735_808" x1="163.454" y1="160.348" x2="173.942" y2="160.348" gradientUnits="userSpaceOnUse">
<stop stop-color="#C4CBFF"/>
<stop offset="0.5251" stop-color="#E9EDFF"/>
<stop offset="1" stop-color="#C4CBFF"/>
</linearGradient>
<linearGradient id="paint63_linear_735_808" x1="177.064" y1="160.348" x2="187.553" y2="160.348" gradientUnits="userSpaceOnUse">
<stop stop-color="#C4CBFF"/>
<stop offset="0.5251" stop-color="#E9EDFF"/>
<stop offset="1" stop-color="#C4CBFF"/>
</linearGradient>
<linearGradient id="paint64_linear_735_808" x1="190.674" y1="160.348" x2="201.163" y2="160.348" gradientUnits="userSpaceOnUse">
<stop stop-color="#C4CBFF"/>
<stop offset="0.5251" stop-color="#E9EDFF"/>
<stop offset="1" stop-color="#C4CBFF"/>
</linearGradient>
<linearGradient id="paint65_linear_735_808" x1="211.575" y1="160.348" x2="222.064" y2="160.348" gradientUnits="userSpaceOnUse">
<stop stop-color="#C4CBFF"/>
<stop offset="0.5251" stop-color="#E9EDFF"/>
<stop offset="1" stop-color="#C4CBFF"/>
</linearGradient>
<linearGradient id="paint66_linear_735_808" x1="121.157" y1="11.9245" x2="197.914" y2="90.7073" gradientUnits="userSpaceOnUse">
<stop stop-color="#16423C"/>
<stop offset="1" stop-color="#32365C" stop-opacity="0"/>
</linearGradient>
<linearGradient id="paint67_linear_735_808" x1="118.898" y1="9.72923" x2="169.924" y2="62.1019" gradientUnits="userSpaceOnUse">
<stop stop-color="#FF7F5C"/>
<stop offset="0.1532" stop-color="#FF7957"/>
<stop offset="0.3599" stop-color="#FF6849"/>
<stop offset="0.5972" stop-color="#FF4B33"/>
<stop offset="0.8552" stop-color="#FF2414"/>
<stop offset="0.9959" stop-color="#FF0C00"/>
</linearGradient>
<radialGradient id="paint68_radial_735_808" cx="0" cy="0" r="1" gradientUnits="userSpaceOnUse" gradientTransform="translate(146.283 36.281) scale(37.5322 36.5669)">
<stop offset="0.8186" stop-color="#FFB7A3" stop-opacity="0"/>
<stop offset="1" stop-color="#FFB7A3"/>
</radialGradient>
<radialGradient id="paint69_radial_735_808" cx="0" cy="0" r="1" gradientUnits="userSpaceOnUse" gradientTransform="translate(142.727 32.8156) scale(37.5322 36.5669)">
<stop offset="0.8186" stop-color="#E00A00" stop-opacity="0"/>
<stop offset="1" stop-color="#E00A00"/>
</radialGradient>
<linearGradient id="paint70_linear_735_808" x1="144.416" y1="20.3597" x2="144.416" y2="45.6544" gradientUnits="userSpaceOnUse">
<stop stop-color="#FFED81"/>
<stop offset="0.2348" stop-color="#FFD968"/>
<stop offset="0.7302" stop-color="#FFA629"/>
<stop offset="1" stop-color="#FF8804"/>
</linearGradient>
<linearGradient id="paint71_linear_735_808" x1="144.415" y1="44.9211" x2="144.415" y2="51.3023" gradientUnits="userSpaceOnUse">
<stop stop-color="#FFF5A9"/>
<stop offset="0.0059793" stop-color="#FFF5A8"/>
<stop offset="0.4891" stop-color="#FFDA58"/>
<stop offset="0.8318" stop-color="#FFC925"/>
<stop offset="1" stop-color="#FFC312"/>
</linearGradient>
<linearGradient id="paint72_linear_735_808" x1="126.568" y1="22.3258" x2="126.568" y2="26.4033" gradientUnits="userSpaceOnUse">
<stop stop-color="#FFF5A9"/>
<stop offset="0.0059793" stop-color="#FFF5A8"/>
<stop offset="0.4891" stop-color="#FFDA58"/>
<stop offset="0.8318" stop-color="#FFC925"/>
<stop offset="1" stop-color="#FFC312"/>
</linearGradient>
<linearGradient id="paint73_linear_735_808" x1="144.416" y1="18.0433" x2="144.416" y2="22.1209" gradientUnits="userSpaceOnUse">
<stop stop-color="#FFF5A9"/>
<stop offset="0.0059793" stop-color="#FFF5A8"/>
<stop offset="0.4891" stop-color="#FFDA58"/>
<stop offset="0.8318" stop-color="#FFC925"/>
<stop offset="1" stop-color="#FFC312"/>
</linearGradient>
<linearGradient id="paint74_linear_735_808" x1="162.264" y1="22.3082" x2="162.264" y2="26.3858" gradientUnits="userSpaceOnUse">
<stop stop-color="#FFF5A9"/>
<stop offset="0.0059793" stop-color="#FFF5A8"/>
<stop offset="0.4891" stop-color="#FFDA58"/>
<stop offset="0.8318" stop-color="#FFC925"/>
<stop offset="1" stop-color="#FFC312"/>
</linearGradient>
<linearGradient id="paint75_linear_735_808" x1="75.4125" y1="61.1029" x2="367.476" y2="251.175" gradientUnits="userSpaceOnUse">
<stop stop-color="#16423C"/>
<stop offset="0.3104" stop-color="#16423C"/>
<stop offset="0.8987" stop-color="#33867A"/>
<stop offset="1" stop-color="#16423C"/>
</linearGradient>
<linearGradient id="paint76_linear_735_808" x1="77.3736" y1="69.106" x2="360.406" y2="254.756" gradientUnits="userSpaceOnUse">
<stop stop-color="#29675F"/>
<stop offset="0.3104" stop-color="#22514A"/>
<stop offset="0.8987" stop-color="#4B9E93"/>
<stop offset="1" stop-color="#16423C"/>
</linearGradient>
<linearGradient id="paint77_linear_735_808" x1="226.499" y1="254.635" x2="226.499" y2="235.812" gradientUnits="userSpaceOnUse">
<stop stop-color="#16423C"/>
<stop offset="1" stop-color="#32365C" stop-opacity="0"/>
</linearGradient>
<linearGradient id="paint78_linear_735_808" x1="376.775" y1="154.145" x2="358.12" y2="154.145" gradientUnits="userSpaceOnUse">
<stop stop-color="#16423C"/>
<stop offset="1" stop-color="#32365C" stop-opacity="0"/>
</linearGradient>
<linearGradient id="paint79_linear_735_808" x1="226.499" y1="53.6545" x2="226.499" y2="72.4785" gradientUnits="userSpaceOnUse">
<stop stop-color="#A1A4C7"/>
<stop offset="1" stop-color="#A1A4C7" stop-opacity="0"/>
</linearGradient>
<linearGradient id="paint80_linear_735_808" x1="76.2234" y1="154.146" x2="92.5635" y2="154.146" gradientUnits="userSpaceOnUse">
<stop stop-color="#A1A4C7"/>
<stop offset="1" stop-color="#A1A4C7" stop-opacity="0"/>
</linearGradient>
<linearGradient id="paint81_linear_735_808" x1="89.0016" y1="99.5608" x2="150.486" y2="162.766" gradientUnits="userSpaceOnUse">
<stop stop-color="#7B7DA1"/>
<stop offset="0.4958" stop-color="#2D7A6F"/>
<stop offset="1" stop-color="#16423C"/>
</linearGradient>
<linearGradient id="paint82_linear_735_808" x1="105.454" y1="120.068" x2="143.652" y2="149.996" gradientUnits="userSpaceOnUse">
<stop stop-color="#FFED81"/>
<stop offset="0.2348" stop-color="#FFD968"/>
<stop offset="0.7302" stop-color="#FFA629"/>
<stop offset="1" stop-color="#FF8804"/>
</linearGradient>
<linearGradient id="paint83_linear_735_808" x1="105.554" y1="120.741" x2="143.863" y2="149.503" gradientUnits="userSpaceOnUse">
<stop stop-color="#EFA33D"/>
<stop offset="1" stop-color="#A05223"/>
</linearGradient>
<linearGradient id="paint84_linear_735_808" x1="146.777" y1="134.495" x2="141.788" y2="134.495" gradientUnits="userSpaceOnUse">
<stop stop-color="#FF8804"/>
<stop offset="1" stop-color="#FF8804" stop-opacity="0"/>
</linearGradient>
<linearGradient id="paint85_linear_735_808" x1="124.914" y1="150.996" x2="124.914" y2="145.749" gradientUnits="userSpaceOnUse">
<stop stop-color="#FF8804"/>
<stop offset="1" stop-color="#FF8804" stop-opacity="0"/>
</linearGradient>
<linearGradient id="paint86_linear_735_808" x1="103.05" y1="134.495" x2="107.309" y2="134.495" gradientUnits="userSpaceOnUse">
<stop stop-color="#FFF0A9"/>
<stop offset="1" stop-color="#FFF0A9" stop-opacity="0"/>
</linearGradient>
<linearGradient id="paint87_linear_735_808" x1="124.914" y1="117.995" x2="124.914" y2="123.242" gradientUnits="userSpaceOnUse">
<stop stop-color="#FFF0A9"/>
<stop offset="1" stop-color="#FFF0A9" stop-opacity="0"/>
</linearGradient>
<linearGradient id="paint88_linear_735_808" x1="324.985" y1="122.294" x2="349.427" y2="147.419" gradientUnits="userSpaceOnUse">
<stop stop-color="#E9EDFF"/>
<stop offset="1" stop-color="#C4CBFF"/>
</linearGradient>
<linearGradient id="paint89_linear_735_808" x1="164.774" y1="220.87" x2="164.774" y2="224.438" gradientUnits="userSpaceOnUse">
<stop stop-color="#C4CBFF"/>
<stop offset="0.5251" stop-color="#E9EDFF"/>
<stop offset="1" stop-color="#C4CBFF"/>
</linearGradient>
<linearGradient id="paint90_linear_735_808" x1="320.369" y1="220.798" x2="320.369" y2="224.642" gradientUnits="userSpaceOnUse">
<stop stop-color="#C4CBFF"/>
<stop offset="0.5251" stop-color="#E9EDFF"/>
<stop offset="1" stop-color="#C4CBFF"/>
</linearGradient>
<linearGradient id="paint91_linear_735_808" x1="102.121" y1="83.7823" x2="135.547" y2="94.1899" gradientUnits="userSpaceOnUse">
<stop stop-color="#E9EDFF"/>
<stop offset="1" stop-color="#C4CBFF"/>
</linearGradient>
<linearGradient id="paint92_linear_735_808" x1="103.048" y1="186.327" x2="114.018" y2="186.327" gradientUnits="userSpaceOnUse">
<stop stop-color="#C4CBFF"/>
<stop offset="0.5251" stop-color="#E9EDFF"/>
<stop offset="1" stop-color="#C4CBFF"/>
</linearGradient>
<linearGradient id="paint93_linear_735_808" x1="117.282" y1="186.327" x2="128.253" y2="186.327" gradientUnits="userSpaceOnUse">
<stop stop-color="#C4CBFF"/>
<stop offset="0.5251" stop-color="#E9EDFF"/>
<stop offset="1" stop-color="#C4CBFF"/>
</linearGradient>
<linearGradient id="paint94_linear_735_808" x1="131.518" y1="186.327" x2="142.489" y2="186.327" gradientUnits="userSpaceOnUse">
<stop stop-color="#C4CBFF"/>
<stop offset="0.5251" stop-color="#E9EDFF"/>
<stop offset="1" stop-color="#C4CBFF"/>
</linearGradient>
<linearGradient id="paint95_linear_735_808" x1="145.753" y1="186.327" x2="156.724" y2="186.327" gradientUnits="userSpaceOnUse">
<stop stop-color="#C4CBFF"/>
<stop offset="0.5251" stop-color="#E9EDFF"/>
<stop offset="1" stop-color="#C4CBFF"/>
</linearGradient>
<linearGradient id="paint96_linear_735_808" x1="167.612" y1="186.327" x2="178.582" y2="186.327" gradientUnits="userSpaceOnUse">
<stop stop-color="#C4CBFF"/>
<stop offset="0.5251" stop-color="#E9EDFF"/>
<stop offset="1" stop-color="#C4CBFF"/>
</linearGradient>
<linearGradient id="paint97_linear_735_808" x1="181.846" y1="186.327" x2="192.817" y2="186.327" gradientUnits="userSpaceOnUse">
<stop stop-color="#C4CBFF"/>
<stop offset="0.5251" stop-color="#E9EDFF"/>
<stop offset="1" stop-color="#C4CBFF"/>
</linearGradient>
<linearGradient id="paint98_linear_735_808" x1="196.081" y1="186.327" x2="207.051" y2="186.327" gradientUnits="userSpaceOnUse">
<stop stop-color="#C4CBFF"/>
<stop offset="0.5251" stop-color="#E9EDFF"/>
<stop offset="1" stop-color="#C4CBFF"/>
</linearGradient>
<linearGradient id="paint99_linear_735_808" x1="210.317" y1="186.327" x2="221.287" y2="186.327" gradientUnits="userSpaceOnUse">
<stop stop-color="#C4CBFF"/>
<stop offset="0.5251" stop-color="#E9EDFF"/>
<stop offset="1" stop-color="#C4CBFF"/>
</linearGradient>
<linearGradient id="paint100_linear_735_808" x1="232.175" y1="186.327" x2="243.145" y2="186.327" gradientUnits="userSpaceOnUse">
<stop stop-color="#C4CBFF"/>
<stop offset="0.5251" stop-color="#E9EDFF"/>
<stop offset="1" stop-color="#C4CBFF"/>
</linearGradient>
<linearGradient id="paint101_linear_735_808" x1="246.41" y1="186.327" x2="257.38" y2="186.327" gradientUnits="userSpaceOnUse">
<stop stop-color="#C4CBFF"/>
<stop offset="0.5251" stop-color="#E9EDFF"/>
<stop offset="1" stop-color="#C4CBFF"/>
</linearGradient>
<linearGradient id="paint102_linear_735_808" x1="260.645" y1="186.327" x2="271.615" y2="186.327" gradientUnits="userSpaceOnUse">
<stop stop-color="#C4CBFF"/>
<stop offset="0.5251" stop-color="#E9EDFF"/>
<stop offset="1" stop-color="#C4CBFF"/>
</linearGradient>
<linearGradient id="paint103_linear_735_808" x1="274.88" y1="186.327" x2="285.851" y2="186.327" gradientUnits="userSpaceOnUse">
<stop stop-color="#C4CBFF"/>
<stop offset="0.5251" stop-color="#E9EDFF"/>
<stop offset="1" stop-color="#C4CBFF"/>
</linearGradient>
<linearGradient id="paint104_linear_735_808" x1="296.739" y1="186.327" x2="307.709" y2="186.327" gradientUnits="userSpaceOnUse">
<stop stop-color="#C4CBFF"/>
<stop offset="0.5251" stop-color="#E9EDFF"/>
<stop offset="1" stop-color="#C4CBFF"/>
</linearGradient>
<linearGradient id="paint105_linear_735_808" x1="310.973" y1="186.327" x2="321.944" y2="186.327" gradientUnits="userSpaceOnUse">
<stop stop-color="#C4CBFF"/>
<stop offset="0.5251" stop-color="#E9EDFF"/>
<stop offset="1" stop-color="#C4CBFF"/>
</linearGradient>
<linearGradient id="paint106_linear_735_808" x1="325.208" y1="186.327" x2="336.178" y2="186.327" gradientUnits="userSpaceOnUse">
<stop stop-color="#C4CBFF"/>
<stop offset="0.5251" stop-color="#E9EDFF"/>
<stop offset="1" stop-color="#C4CBFF"/>
</linearGradient>
<linearGradient id="paint107_linear_735_808" x1="339.444" y1="186.327" x2="350.415" y2="186.327" gradientUnits="userSpaceOnUse">
<stop stop-color="#C4CBFF"/>
<stop offset="0.5251" stop-color="#E9EDFF"/>
<stop offset="1" stop-color="#C4CBFF"/>
</linearGradient>
<linearGradient id="paint108_linear_735_808" x1="202.173" y1="31.3356" x2="282.324" y2="113.731" gradientUnits="userSpaceOnUse">
<stop stop-color="#16423C"/>
<stop offset="1" stop-color="#16423C" stop-opacity="0"/>
</linearGradient>
<linearGradient id="paint109_linear_735_808" x1="199.81" y1="29.0432" x2="253.092" y2="83.8174" gradientUnits="userSpaceOnUse">
<stop stop-color="#FF7F5C"/>
<stop offset="0.1532" stop-color="#FF7957"/>
<stop offset="0.3599" stop-color="#FF6849"/>
<stop offset="0.5972" stop-color="#FF4B33"/>
<stop offset="0.8552" stop-color="#FF2414"/>
<stop offset="0.9959" stop-color="#FF0C00"/>
</linearGradient>
<radialGradient id="paint110_radial_735_808" cx="0" cy="0" r="1" gradientUnits="userSpaceOnUse" gradientTransform="translate(228.452 56.7704) scale(39.2549 38.1857)">
<stop offset="0.8186" stop-color="#FFB7A3" stop-opacity="0"/>
<stop offset="1" stop-color="#FFB7A3"/>
</radialGradient>
<radialGradient id="paint111_radial_735_808" cx="0" cy="0" r="1" gradientUnits="userSpaceOnUse" gradientTransform="translate(224.732 53.1516) scale(39.2549 38.1857)">
<stop offset="0.8186" stop-color="#E00A00" stop-opacity="0"/>
<stop offset="1" stop-color="#E00A00"/>
</radialGradient>
<linearGradient id="paint112_linear_735_808" x1="226.499" y1="40.1426" x2="226.499" y2="66.557" gradientUnits="userSpaceOnUse">
<stop stop-color="#FFED81"/>
<stop offset="0.2348" stop-color="#FFD968"/>
<stop offset="0.7302" stop-color="#FFA629"/>
<stop offset="1" stop-color="#FF8804"/>
</linearGradient>
<linearGradient id="paint113_linear_735_808" x1="226.499" y1="65.7908" x2="226.499" y2="72.4544" gradientUnits="userSpaceOnUse">
<stop stop-color="#FFF5A9"/>
<stop offset="0.0059793" stop-color="#FFF5A8"/>
<stop offset="0.4891" stop-color="#FFDA58"/>
<stop offset="0.8318" stop-color="#FFC925"/>
<stop offset="1" stop-color="#FFC312"/>
</linearGradient>
<linearGradient id="paint114_linear_735_808" x1="207.832" y1="42.1955" x2="207.832" y2="46.4527" gradientUnits="userSpaceOnUse">
<stop stop-color="#FFF5A9"/>
<stop offset="0.0059793" stop-color="#FFF5A8"/>
<stop offset="0.4891" stop-color="#FFDA58"/>
<stop offset="0.8318" stop-color="#FFC925"/>
<stop offset="1" stop-color="#FFC312"/>
</linearGradient>
<linearGradient id="paint115_linear_735_808" x1="226.5" y1="37.7234" x2="226.5" y2="41.9805" gradientUnits="userSpaceOnUse">
<stop stop-color="#FFF5A9"/>
<stop offset="0.0059793" stop-color="#FFF5A8"/>
<stop offset="0.4891" stop-color="#FFDA58"/>
<stop offset="0.8318" stop-color="#FFC925"/>
<stop offset="1" stop-color="#FFC312"/>
</linearGradient>
<linearGradient id="paint116_linear_735_808" x1="245.166" y1="42.1773" x2="245.166" y2="46.4345" gradientUnits="userSpaceOnUse">
<stop stop-color="#FFF5A9"/>
<stop offset="0.0059793" stop-color="#FFF5A8"/>
<stop offset="0.4891" stop-color="#FFDA58"/>
<stop offset="0.8318" stop-color="#FFC925"/>
<stop offset="1" stop-color="#FFC312"/>
</linearGradient>
<clipPath id="clip0_735_808">
<rect width="236" height="232" fill="white" transform="translate(220.5 0.70459)"/>
</clipPath>
<clipPath id="clip1_735_808">
<rect width="222" height="223.834" fill="white" transform="translate(0.5 0.70459)"/>
</clipPath>
</defs>
</svg>
