<svg width="18" height="20" viewBox="0 0 18 20" fill="none" xmlns="http://www.w3.org/2000/svg">
<path d="M5.66602 0H12.3327V3.33333H5.66602V0Z" fill="#16423C"/>
<path d="M16.4993 1.6665H13.9993V4.1665C13.9987 4.38732 13.9107 4.59891 13.7546 4.75506C13.5984 4.9112 13.3868 4.9992 13.166 4.99984H4.83268C4.61186 4.9992 4.40027 4.9112 4.24413 4.75506C4.08799 4.59891 3.99999 4.38732 3.99935 4.1665V1.6665H1.49935C1.27853 1.66714 1.06694 1.75514 0.910798 1.91129C0.754655 2.06743 0.666653 2.27902 0.666016 2.49984V19.1665C0.666653 19.3873 0.754655 19.5989 0.910798 19.7551C1.06694 19.9112 1.27853 19.9992 1.49935 19.9998H16.4993C16.7202 19.9992 16.9318 19.9112 17.0879 19.7551C17.244 19.5989 17.332 19.3873 17.3327 19.1665V2.49984C17.332 2.27902 17.244 2.06743 17.0879 1.91129C16.9318 1.75514 16.7202 1.66714 16.4993 1.6665ZM11.4993 18.3332H3.99935C3.77834 18.3332 3.56637 18.2454 3.41009 18.0891C3.25381 17.9328 3.16602 17.7209 3.16602 17.4998C3.16602 17.2788 3.25381 17.0669 3.41009 16.9106C3.56637 16.7543 3.77834 16.6665 3.99935 16.6665H11.4993C11.7204 16.6665 11.9323 16.7543 12.0886 16.9106C12.2449 17.0669 12.3327 17.2788 12.3327 17.4998C12.3327 17.7209 12.2449 17.9328 12.0886 18.0891C11.9323 18.2454 11.7204 18.3332 11.4993 18.3332ZM3.16602 14.9998C3.16665 14.779 3.25466 14.5674 3.4108 14.4113C3.56694 14.2551 3.77853 14.1671 3.99935 14.1665H8.16602C8.38703 14.1665 8.59899 14.2543 8.75527 14.4106C8.91155 14.5669 8.99935 14.7788 8.99935 14.9998C8.99935 15.2209 8.91155 15.4328 8.75527 15.5891C8.59899 15.7454 8.38703 15.8332 8.16602 15.8332H3.99935C3.77853 15.8325 3.56694 15.7445 3.4108 15.5884C3.25466 15.4322 3.16665 15.2207 3.16602 14.9998ZM11.4993 13.3332H3.99935C3.77834 13.3332 3.56637 13.2454 3.41009 13.0891C3.25381 12.9328 3.16602 12.7209 3.16602 12.4998C3.16602 12.2788 3.25381 12.0669 3.41009 11.9106C3.56637 11.7543 3.77834 11.6665 3.99935 11.6665H11.4993C11.7204 11.6665 11.9323 11.7543 12.0886 11.9106C12.2449 12.0669 12.3327 12.2788 12.3327 12.4998C12.3327 12.7209 12.2449 12.9328 12.0886 13.0891C11.9323 13.2454 11.7204 13.3332 11.4993 13.3332ZM3.16602 9.99984C3.16665 9.77902 3.25466 9.56743 3.4108 9.41129C3.56694 9.25514 3.77853 9.16714 3.99935 9.1665H8.16602C8.38703 9.1665 8.59899 9.2543 8.75527 9.41058C8.91155 9.56686 8.99935 9.77882 8.99935 9.99984C8.99935 10.2209 8.91155 10.4328 8.75527 10.5891C8.59899 10.7454 8.38703 10.8332 8.16602 10.8332H3.99935C3.77853 10.8325 3.56694 10.7445 3.4108 10.5884C3.25466 10.4322 3.16665 10.2207 3.16602 9.99984ZM13.9993 8.33317H3.99935C3.77834 8.33317 3.56637 8.24537 3.41009 8.08909C3.25381 7.93281 3.16602 7.72085 3.16602 7.49984C3.16602 7.27882 3.25381 7.06686 3.41009 6.91058C3.56637 6.7543 3.77834 6.6665 3.99935 6.6665H13.9993C14.2204 6.6665 14.4323 6.7543 14.5886 6.91058C14.7449 7.06686 14.8327 7.27882 14.8327 7.49984C14.8327 7.72085 14.7449 7.93281 14.5886 8.08909C14.4323 8.24537 14.2204 8.33317 13.9993 8.33317Z" fill="#16423C"/>
</svg>
