<svg width="20" height="20" viewBox="0 0 20 20" fill="none" xmlns="http://www.w3.org/2000/svg">
<path d="M6.66602 0H13.3327V3.33333H6.66602V0Z" fill="#16423C"/>
<path d="M17.4993 1.6665H14.9993V4.1665C14.9987 4.38732 14.9107 4.59891 14.7546 4.75506C14.5984 4.9112 14.3868 4.9992 14.166 4.99984H5.83268C5.61186 4.9992 5.40027 4.9112 5.24413 4.75506C5.08799 4.59891 4.99999 4.38732 4.99935 4.1665V1.6665H2.49935C2.27853 1.66714 2.06694 1.75514 1.9108 1.91129C1.75466 2.06743 1.66665 2.27902 1.66602 2.49984V19.1665C1.66665 19.3873 1.75466 19.5989 1.9108 19.7551C2.06694 19.9112 2.27853 19.9992 2.49935 19.9998H17.4993C17.7202 19.9992 17.9318 19.9112 18.0879 19.7551C18.244 19.5989 18.332 19.3873 18.3327 19.1665V2.49984C18.332 2.27902 18.244 2.06743 18.0879 1.91129C17.9318 1.75514 17.7202 1.66714 17.4993 1.6665ZM12.4993 18.3332H4.99935C4.77834 18.3332 4.56637 18.2454 4.41009 18.0891C4.25381 17.9328 4.16602 17.7209 4.16602 17.4998C4.16602 17.2788 4.25381 17.0669 4.41009 16.9106C4.56637 16.7543 4.77834 16.6665 4.99935 16.6665H12.4993C12.7204 16.6665 12.9323 16.7543 13.0886 16.9106C13.2449 17.0669 13.3327 17.2788 13.3327 17.4998C13.3327 17.7209 13.2449 17.9328 13.0886 18.0891C12.9323 18.2454 12.7204 18.3332 12.4993 18.3332ZM4.16602 14.9998C4.16665 14.779 4.25466 14.5674 4.4108 14.4113C4.56694 14.2551 4.77853 14.1671 4.99935 14.1665H9.16602C9.38703 14.1665 9.59899 14.2543 9.75527 14.4106C9.91155 14.5669 9.99935 14.7788 9.99935 14.9998C9.99935 15.2209 9.91155 15.4328 9.75527 15.5891C9.59899 15.7454 9.38703 15.8332 9.16602 15.8332H4.99935C4.77853 15.8325 4.56694 15.7445 4.4108 15.5884C4.25466 15.4322 4.16665 15.2207 4.16602 14.9998ZM12.4993 13.3332H4.99935C4.77834 13.3332 4.56637 13.2454 4.41009 13.0891C4.25381 12.9328 4.16602 12.7209 4.16602 12.4998C4.16602 12.2788 4.25381 12.0669 4.41009 11.9106C4.56637 11.7543 4.77834 11.6665 4.99935 11.6665H12.4993C12.7204 11.6665 12.9323 11.7543 13.0886 11.9106C13.2449 12.0669 13.3327 12.2788 13.3327 12.4998C13.3327 12.7209 13.2449 12.9328 13.0886 13.0891C12.9323 13.2454 12.7204 13.3332 12.4993 13.3332ZM4.16602 9.99984C4.16665 9.77902 4.25466 9.56743 4.4108 9.41129C4.56694 9.25514 4.77853 9.16714 4.99935 9.1665H9.16602C9.38703 9.1665 9.59899 9.2543 9.75527 9.41058C9.91155 9.56686 9.99935 9.77882 9.99935 9.99984C9.99935 10.2209 9.91155 10.4328 9.75527 10.5891C9.59899 10.7454 9.38703 10.8332 9.16602 10.8332H4.99935C4.77853 10.8325 4.56694 10.7445 4.4108 10.5884C4.25466 10.4322 4.16665 10.2207 4.16602 9.99984ZM14.9993 8.33317H4.99935C4.77834 8.33317 4.56637 8.24537 4.41009 8.08909C4.25381 7.93281 4.16602 7.72085 4.16602 7.49984C4.16602 7.27882 4.25381 7.06686 4.41009 6.91058C4.56637 6.7543 4.77834 6.6665 4.99935 6.6665H14.9993C15.2204 6.6665 15.4323 6.7543 15.5886 6.91058C15.7449 7.06686 15.8327 7.27882 15.8327 7.49984C15.8327 7.72085 15.7449 7.93281 15.5886 8.08909C15.4323 8.24537 15.2204 8.33317 14.9993 8.33317Z" fill="#16423C"/>
</svg>
