<svg width="21" height="20" viewBox="0 0 21 20" fill="none" xmlns="http://www.w3.org/2000/svg">
<path d="M16.7129 0.500229C17.7738 0.500229 18.7912 0.921656 19.5413 1.6718C20.2915 2.42195 20.7129 3.43936 20.7129 4.50023V12.5002C20.7129 13.5611 20.2915 14.5785 19.5413 15.3287C18.7912 16.0788 17.7738 16.5002 16.7129 16.5002H11.9889L7.22689 19.3572C7.08348 19.4433 6.92077 19.492 6.75366 19.4989C6.58655 19.5058 6.42038 19.4707 6.27035 19.3968C6.12032 19.3229 5.99122 19.2125 5.89488 19.0758C5.79854 18.9391 5.73803 18.7804 5.71889 18.6142L5.71289 18.5002V16.5002H4.71289C3.68665 16.5002 2.69966 16.1058 1.95608 15.3985C1.2125 14.6912 0.769203 13.7252 0.717891 12.7002L0.712891 12.5002V4.50023C0.712891 3.43936 1.13432 2.42195 1.88446 1.6718C2.63461 0.921656 3.65202 0.500229 4.71289 0.500229H16.7129ZM12.7129 9.50023H6.71289C6.44767 9.50023 6.19332 9.60559 6.00578 9.79312C5.81825 9.98066 5.71289 10.235 5.71289 10.5002C5.71289 10.7654 5.81825 11.0198 6.00578 11.2073C6.19332 11.3949 6.44767 11.5002 6.71289 11.5002H12.7129C12.9781 11.5002 13.2325 11.3949 13.42 11.2073C13.6075 11.0198 13.7129 10.7654 13.7129 10.5002C13.7129 10.235 13.6075 9.98066 13.42 9.79312C13.2325 9.60559 12.9781 9.50023 12.7129 9.50023ZM14.7129 5.50023H6.71289C6.44767 5.50023 6.19332 5.60559 6.00578 5.79312C5.81825 5.98066 5.71289 6.23501 5.71289 6.50023C5.71289 6.76545 5.81825 7.0198 6.00578 7.20734C6.19332 7.39487 6.44767 7.50023 6.71289 7.50023H14.7129C14.9781 7.50023 15.2325 7.39487 15.42 7.20734C15.6075 7.0198 15.7129 6.76545 15.7129 6.50023C15.7129 6.23501 15.6075 5.98066 15.42 5.79312C15.2325 5.60559 14.9781 5.50023 14.7129 5.50023Z" fill="#848080"/>
</svg>
