<svg width="61" height="60" viewBox="0 0 61 60" fill="none" xmlns="http://www.w3.org/2000/svg">
<g clip-path="url(#clip0_671_203)">
<path d="M39.1143 30.4111L37.3818 29.5444L37.4834 29.34C38.1827 27.9416 39.5888 27.0719 41.1529 27.0719V29.0088C40.3268 29.0088 39.585 29.4678 39.216 30.2058L39.1143 30.4111ZM27.5947 22.2307C25.4583 22.2307 23.7209 23.968 23.7209 26.1044H25.6578C25.6578 25.0362 26.5265 24.1675 27.5947 24.1675C28.6628 24.1675 29.5315 25.0362 29.5315 26.1044H31.4684C31.4684 23.969 29.731 22.2307 27.5947 22.2307ZM24.0405 41.8097C24.7668 41.4465 25.5164 41.1299 26.2814 40.8568C21.4111 39.1165 17.9112 34.4708 17.9112 29.0098V20.2938C16.3094 20.2938 15.0058 18.9902 15.0058 17.3884C15.0058 13.5708 16.9863 9.94012 20.0611 8.01776L23.8226 0.491972C24.1509 -0.162696 25.2268 -0.164633 25.5551 0.491972L28.0857 5.5521L33.0993 3.88056C33.5138 3.74207 33.969 3.89799 34.2111 4.26213L37.7004 9.49561L43.8355 7.85796C44.279 7.73885 44.7429 7.94803 44.9492 8.35671L47.4671 13.3336L53.4773 11.6165C53.8318 11.5148 54.2153 11.6233 54.4622 11.8993C54.7101 12.1734 54.7799 12.5646 54.6433 12.9084L50.8383 22.4205V24.1705C50.8383 30.9186 46.9878 37.045 41.0057 39.9658C42.5881 40.3716 44.0427 41.1851 45.2281 42.3704C46.9723 44.1146 47.933 46.434 47.933 48.9007V49.35C47.933 52.758 45.4024 55.5791 42.1223 56.0517V60.0029H26.6272V49.7229L26.3115 49.8284C25.3401 50.1519 24.3281 50.3165 23.3035 50.3165C21.4915 50.3165 19.726 49.8023 18.1978 48.83L11.2347 44.3993C10.5365 43.9548 10.0987 43.2692 9.94765 42.5235L8.07468 41.3323C6.95613 40.6205 6.28887 39.4041 6.28887 38.0793V37.7093C6.28887 35.5836 8.01851 33.8539 10.1442 33.8539C11.7306 33.8539 13.1348 34.8049 13.7246 36.278L14.2253 37.5292C14.57 37.5883 14.91 37.7035 15.2266 37.8933L22.795 42.4344L24.0405 41.8097ZM12.2806 37.8827L11.9262 36.9946C11.6337 36.2625 10.9345 35.7889 10.1452 35.7889C9.08671 35.7889 8.22673 36.6498 8.22673 37.7074V38.0773C8.22673 38.7368 8.5589 39.3421 9.11576 39.6966L10.304 40.4529L11.2425 38.8879C11.503 38.4521 11.869 38.1209 12.2806 37.8827ZM31.4772 41.6838C31.5227 43.2469 32.801 44.5059 34.3738 44.5059C35.9756 44.5059 37.2791 43.2023 37.2791 41.6005H33.9932H33.1351C32.5821 41.5996 32.0292 41.6325 31.4772 41.6838ZM22.1268 8.21629L49.3508 20.9203L52.1108 14.0202L47.2299 15.4147C46.7815 15.5455 46.3089 15.3344 46.0997 14.9208L43.5759 9.93141L37.529 11.5458C37.128 11.6523 36.7029 11.4916 36.4734 11.1468L33.0102 5.95206L27.9017 7.65459C27.4436 7.80664 26.9448 7.60036 26.7289 7.1694L24.6893 3.09128L22.1268 8.21629ZM17.9102 18.3569H34.3738C37.0438 18.3569 39.216 20.5291 39.216 23.1991V24.1675H40.3007C42.9067 24.1675 45.0267 26.2875 45.0267 28.8936V28.9914C45.0267 31.672 42.8535 33.853 40.1825 33.853H39.2596C39.3932 35.3202 39.8445 36.7302 40.5573 38.0212C45.6474 35.3492 48.9004 30.0286 48.9004 24.2411V22.8485L20.9037 9.78226C18.5232 11.3725 16.9418 14.3543 16.9418 17.3884C16.9418 17.922 17.3766 18.3569 17.9102 18.3569ZM23.8168 37.2938C23.9233 37.2716 24.0337 37.2503 24.1363 37.227C25.8505 36.8387 27.1288 35.5119 27.491 33.852H21.0228C21.7075 35.1865 22.6604 36.3583 23.8168 37.2938ZM33.1351 39.6627H33.9932C35.6134 39.6627 37.2394 39.3605 38.7666 38.8075C37.7943 36.9878 37.2791 34.9638 37.2791 32.8836V31.9151H40.1825C41.7853 31.9151 43.0898 30.6038 43.0898 28.9904V28.8926C43.0898 27.3547 41.8385 26.1035 40.3007 26.1035H37.2791V23.1981C37.2791 21.5963 35.9756 20.2928 34.3738 20.2928H19.8471V29.0088C19.8471 30.017 19.9972 30.9893 20.2597 31.9141H29.5315V32.8826C29.5315 35.3909 28.0992 37.5728 25.9309 38.6177C27.3177 39.2801 28.8633 39.6617 30.5 39.6617H33.1351V39.6627ZM24.9063 43.5423L23.9368 44.0265L24.6399 46.1348L22.8028 46.7478L21.9477 44.1824L14.2311 39.5523C13.774 39.2782 13.1784 39.4264 12.9024 39.8844L11.964 41.4485C11.6918 41.9017 11.8284 42.4799 12.2748 42.7636L19.237 47.1943C21.1419 48.4068 23.5562 48.7041 25.6975 47.9894L26.6252 47.6795V45.4724H28.5621V58.0621H40.1835V56.1253H37.2781H36.3097H34.3728C32.2364 56.1253 30.499 54.3879 30.499 52.2515C30.499 50.1151 32.2364 48.3777 34.3728 48.3777H34.6556C35.2541 48.3777 35.8526 48.5191 36.3881 48.7874L36.8268 49.0072C37.1813 48.6227 37.6839 48.3787 38.2466 48.3787H40.1835V45.4733H42.1204V48.9462L43.7735 50.5993L42.4041 51.9687L40.751 50.3156H38.2466V54.1893H41.1519C43.8219 54.1893 45.9941 52.0171 45.9941 49.3471V48.8978C45.9941 46.9483 45.2349 45.116 43.8568 43.7369C42.6007 42.4808 40.9669 41.7468 39.2121 41.6247C39.1986 44.2831 37.0341 46.4418 34.3728 46.4418C31.8258 46.4418 29.7543 44.4584 29.5664 41.9589C27.953 42.2784 26.3783 42.8062 24.9063 43.5423ZM36.3107 50.9141L35.5223 50.5199C35.2551 50.3863 34.9558 50.3156 34.6566 50.3156H34.3738C33.3056 50.3156 32.4369 51.1843 32.4369 52.2525C32.4369 53.3206 33.3056 54.1893 34.3738 54.1893H36.3107V50.9141ZM0.848145 13.5147H4.35198V31.9151H6.28887V11.5778H3.98203L7.25731 5.0272L10.5326 11.5778H8.22576V31.9151H10.1626V13.5147H13.6665L7.25731 0.696314L0.848145 13.5147ZM54.7111 60H56.648V41.5996H60.1518L53.7427 28.7812L47.3335 41.5996H50.8373V60H52.7742V39.6627H50.4674L53.7427 33.1121L57.0179 39.6627H54.7111V60Z" fill="url(#paint0_linear_671_203)"/>
</g>
<defs>
<linearGradient id="paint0_linear_671_203" x1="30.5" y1="60" x2="30.5" y2="9.53636e-07" gradientUnits="userSpaceOnUse">
<stop stop-color="#16423C"/>
<stop offset="1" stop-color="#E2D608"/>
</linearGradient>
<clipPath id="clip0_671_203">
<rect width="60" height="60" fill="white" transform="translate(0.5)"/>
</clipPath>
</defs>
</svg>
