<svg width="50" height="50" viewBox="0 0 50 50" fill="none" xmlns="http://www.w3.org/2000/svg">
<g clip-path="url(#clip0_689_831)">
<path d="M23.4375 19.5312C22.1453 19.5312 21.0938 20.5828 21.0938 21.875C21.0938 23.1672 22.1453 24.2188 23.4375 24.2188C24.7297 24.2188 25.7812 23.1672 25.7812 21.875C25.7812 20.5828 24.7297 19.5312 23.4375 19.5312ZM23.4375 22.6562C23.0063 22.6562 22.6562 22.3055 22.6562 21.875C22.6562 21.4445 23.0063 21.0938 23.4375 21.0938C23.8687 21.0938 24.2188 21.4445 24.2188 21.875C24.2188 22.3055 23.8687 22.6562 23.4375 22.6562ZM17.1875 24.2188C18.4797 24.2188 19.5312 23.1672 19.5312 21.875C19.5312 20.5828 18.4797 19.5312 17.1875 19.5312C15.8953 19.5312 14.8438 20.5828 14.8438 21.875C14.8438 23.1672 15.8953 24.2188 17.1875 24.2188ZM17.1875 21.0938C17.6187 21.0938 17.9688 21.4445 17.9688 21.875C17.9688 22.3055 17.6187 22.6562 17.1875 22.6562C16.7563 22.6562 16.4062 22.3055 16.4062 21.875C16.4062 21.4445 16.7563 21.0938 17.1875 21.0938ZM23.4375 25.7812C22.1453 25.7812 21.0938 26.8328 21.0938 28.125C21.0938 29.4172 22.1453 30.4688 23.4375 30.4688C24.7297 30.4688 25.7812 29.4172 25.7812 28.125C25.7812 26.8328 24.7297 25.7812 23.4375 25.7812ZM23.4375 28.9062C23.0063 28.9062 22.6562 28.5555 22.6562 28.125C22.6562 27.6945 23.0063 27.3438 23.4375 27.3438C23.8687 27.3438 24.2188 27.6945 24.2188 28.125C24.2188 28.5555 23.8687 28.9062 23.4375 28.9062ZM17.1875 25.7812C15.8953 25.7812 14.8438 26.8328 14.8438 28.125C14.8438 29.4172 15.8953 30.4688 17.1875 30.4688C18.4797 30.4688 19.5312 29.4172 19.5312 28.125C19.5312 26.8328 18.4797 25.7812 17.1875 25.7812ZM17.1875 28.9062C16.7563 28.9062 16.4062 28.5555 16.4062 28.125C16.4062 27.6945 16.7563 27.3438 17.1875 27.3438C17.6187 27.3438 17.9688 27.6945 17.9688 28.125C17.9688 28.5555 17.6187 28.9062 17.1875 28.9062ZM11.7188 27.3438V17.9688H10.1562V27.3438C9.29453 27.3438 8.59375 28.0445 8.59375 28.9062V32.0312C8.59375 32.893 9.29453 33.5938 10.1562 33.5938H11.7188C12.5805 33.5938 13.2812 32.893 13.2812 32.0312V28.9062C13.2812 28.0445 12.5805 27.3438 11.7188 27.3438ZM10.1562 32.0312V28.9062H11.7188L11.7195 32.0312H10.1562ZM8.59375 19.5312C8.59375 18.6695 7.89297 17.9688 7.03125 17.9688H5.46875C4.60703 17.9688 3.90625 18.6695 3.90625 19.5312V22.6562C3.90625 23.518 4.60703 24.2188 5.46875 24.2188V33.5938H7.03125V24.2188C7.89297 24.2188 8.59375 23.518 8.59375 22.6562V19.5312ZM7.03125 22.6562H5.46875V19.5312H7.03125V22.6562ZM45.3125 0.78125H4.6875C2.53359 0.78125 0.78125 2.53359 0.78125 4.6875V36.7188C0.78125 38.8727 2.53359 40.625 4.6875 40.625H30.9016L30.4242 49.2188H44.575L44.0977 40.625H45.3125C47.4664 40.625 49.2188 38.8727 49.2188 36.7188V4.6875C49.2188 2.53359 47.4664 0.78125 45.3125 0.78125ZM47.6562 4.6875V13.2812H38.2812V2.34375H45.3125C46.6047 2.34375 47.6562 3.39531 47.6562 4.6875ZM13.2812 13.2812V2.34375H24.2188V13.2812H13.2812ZM25.7812 2.34375H36.7188V13.2812H25.7812V2.34375ZM4.6875 2.34375H11.7188V13.2812H2.34375V4.6875C2.34375 3.39531 3.39531 2.34375 4.6875 2.34375ZM31.893 21.1117C32.2789 21.1539 32.6305 21.3258 32.8922 21.6227C33.193 21.9633 33.3273 22.3992 33.2703 22.85L33.0164 24.8805L31.5062 23.3703C31.5008 23.3648 31.4945 23.3609 31.4891 23.3563C31.8227 22.9508 32.0312 22.4398 32.0312 21.875C32.0312 21.6062 31.9766 21.3523 31.893 21.1117ZM30.4688 21.875C30.4688 22.3055 30.1187 22.6562 29.6875 22.6562C29.2563 22.6562 28.9062 22.3055 28.9062 21.875C28.9062 21.4445 29.2563 21.0938 29.6875 21.0938C30.1187 21.0938 30.4688 21.4445 30.4688 21.875ZM29.782 24.2188C30.0125 24.2188 30.2383 24.3125 30.4016 24.475L34.1711 28.2445L34.8203 23.0445C34.932 22.1555 34.6555 21.2609 34.0633 20.5891C33.4695 19.9172 32.6156 19.5312 31.7195 19.5312H29.6875C29.2563 19.5312 28.9062 19.1805 28.9062 18.75C28.9062 18.3195 29.2563 17.9688 29.6875 17.9688H32.8125C34.9664 17.9688 36.7188 19.7211 36.7188 21.875V24.2188H38.2812V21.875C38.2812 21.1633 38.1406 20.4852 37.8922 19.8617C38.1039 19.6547 38.3883 19.5312 38.6937 19.5312C39.3281 19.5312 39.8438 20.0477 39.8438 20.6812V24.2188H41.4062V21.4172L41.4734 21.35C41.6367 21.1875 41.8625 21.0938 42.093 21.0938C42.5758 21.0938 42.9688 21.4867 42.9688 21.9695V29.2375C42.9688 30.775 42.5586 32.2711 41.7875 33.5938H33.1211C31.7773 32.1672 30.7367 30.5211 30.0469 28.6813L29.0977 26.15C28.9703 25.8117 28.9062 25.4562 28.9062 25.0945C28.9062 24.6117 29.2992 24.2188 29.782 24.2188ZM33.5938 35.1562V37.5H32.6398L32.7703 35.1562H33.5938ZM35.1562 35.1562H36.7188V37.5H35.1562V35.1562ZM38.2812 35.1562H39.8438V37.5H38.2812V35.1562ZM41.4062 35.1562H42.2305L42.3609 37.5H41.4062V35.1562ZM32.0758 47.6562L32.5539 39.0625H42.4477L42.925 47.6562H32.0758ZM45.3125 39.0625H44.0117L43.7898 35.0695C43.768 34.6672 43.5922 34.3094 43.3258 34.0461C44.1141 32.5687 44.5312 30.9242 44.5312 29.2375V21.9695C44.5312 20.625 43.4375 19.5312 42.093 19.5312C41.7914 19.5312 41.4945 19.593 41.2164 19.7008C40.8211 18.6898 39.843 17.9688 38.6937 17.9688C38.1094 17.9688 37.5562 18.1602 37.1 18.4914C36.0984 17.2242 34.55 16.4062 32.8125 16.4062H29.6875C28.3953 16.4062 27.3438 17.4578 27.3438 18.75C27.3438 19.3523 27.5789 19.8969 27.9531 20.3125C27.5781 20.7281 27.3438 21.2727 27.3438 21.875C27.3438 22.4914 27.5883 23.0492 27.9789 23.468C27.5883 23.9008 27.3438 24.4672 27.3438 25.0945C27.3438 25.6445 27.4414 26.1844 27.6344 26.6984L28.5836 29.2297C29.2711 31.0625 30.2812 32.7156 31.5562 34.1805C31.3578 34.4266 31.2289 34.7312 31.2102 35.0687L30.9883 39.0625H4.6875C3.39531 39.0625 2.34375 38.0109 2.34375 36.7188V14.8438H47.6562V36.7188C47.6562 38.0109 46.6047 39.0625 45.3125 39.0625ZM16.4062 34.375H17.9688V35.9375H16.4062V34.375ZM19.5312 34.375H21.0938V35.9375H19.5312V34.375ZM22.6562 34.375H24.2188V35.9375H22.6562V34.375ZM5.46875 8.59375H8.59375C9.45547 8.59375 10.1562 7.89297 10.1562 7.03125V5.46875C10.1562 4.60703 9.45547 3.90625 8.59375 3.90625H5.46875C4.60703 3.90625 3.90625 4.60703 3.90625 5.46875V7.03125C3.90625 7.89297 4.60703 8.59375 5.46875 8.59375ZM5.46875 5.46875H8.59375L8.59453 7.03125H5.46875V5.46875ZM5.46875 11.7188H3.90625V10.1562H5.46875V11.7188ZM8.59375 10.1562H10.1562V11.7188H8.59375V10.1562ZM21.0938 3.90625H16.4062C15.5445 3.90625 14.8438 4.60703 14.8438 5.46875V7.03125C14.8438 7.89297 15.5445 8.59375 16.4062 8.59375H21.0938C21.9555 8.59375 22.6562 7.89297 22.6562 7.03125V5.46875C22.6562 4.60703 21.9555 3.90625 21.0938 3.90625ZM16.4062 7.03125V5.46875H21.0938L21.0945 7.03125H16.4062ZM14.8438 10.1562H16.4062V11.7188H14.8438V10.1562ZM21.0938 10.1562H22.6562V11.7188H21.0938V10.1562ZM33.5938 3.90625H28.9062C28.0445 3.90625 27.3438 4.60703 27.3438 5.46875V7.03125C27.3438 7.89297 28.0445 8.59375 28.9062 8.59375H33.5938C34.4555 8.59375 35.1562 7.89297 35.1562 7.03125V5.46875C35.1562 4.60703 34.4555 3.90625 33.5938 3.90625ZM28.9062 7.03125V5.46875H33.5938L33.5945 7.03125H28.9062ZM27.3438 10.1562H28.9062V11.7188H27.3438V10.1562ZM33.5938 10.1562H35.1562V11.7188H33.5938V10.1562ZM41.4062 8.59375H44.5312C45.393 8.59375 46.0938 7.89297 46.0938 7.03125V5.46875C46.0938 4.60703 45.393 3.90625 44.5312 3.90625H41.4062C40.5445 3.90625 39.8438 4.60703 39.8438 5.46875V7.03125C39.8438 7.89297 40.5445 8.59375 41.4062 8.59375ZM41.4062 5.46875H44.5312L44.532 7.03125H41.4062V5.46875ZM39.8438 11.7188V10.1562H41.4062V11.7188H39.8438ZM44.5312 10.1562H46.0938V11.7188H44.5312V10.1562Z" fill="url(#paint0_linear_689_831)"/>
</g>
<defs>
<linearGradient id="paint0_linear_689_831" x1="25" y1="49.2188" x2="25" y2="0.78125" gradientUnits="userSpaceOnUse">
<stop stop-color="#16423C"/>
<stop offset="1" stop-color="#FFEB00"/>
</linearGradient>
<clipPath id="clip0_689_831">
<rect width="50" height="50" fill="white"/>
</clipPath>
</defs>
</svg>
