<svg width="19" height="18" viewBox="0 0 19 18" fill="none" xmlns="http://www.w3.org/2000/svg">
<g clip-path="url(#clip0_744_407)">
<path d="M16.6251 3H14.6251V4.5C14.6251 4.64445 14.5967 4.78749 14.5414 4.92095C14.4861 5.05441 14.4051 5.17567 14.3029 5.27781C14.2008 5.37996 14.0795 5.46098 13.9461 5.51626C13.8126 5.57154 13.6696 5.6 13.5251 5.6C13.3807 5.6 13.2376 5.57154 13.1042 5.51626C12.9707 5.46098 12.8495 5.37996 12.7473 5.27781C12.6452 5.17567 12.5641 5.05441 12.5089 4.92095C12.4536 4.78749 12.4251 4.64445 12.4251 4.5V3H6.60013V4.5C6.60013 4.79173 6.48424 5.07152 6.27795 5.27781C6.07166 5.4841 5.79187 5.6 5.50013 5.6C5.20839 5.6 4.9286 5.4841 4.72231 5.27781C4.51602 5.07152 4.40013 4.79173 4.40013 4.5V3H2.40013C2.28114 2.99864 2.16309 3.02116 2.05296 3.06623C1.94282 3.11129 1.84284 3.17798 1.75894 3.26236C1.67503 3.34674 1.60889 3.44708 1.56444 3.55746C1.51998 3.66784 1.49812 3.78602 1.50013 3.905V15.095C1.49814 15.2119 1.5192 15.328 1.5621 15.4367C1.605 15.5455 1.6689 15.6447 1.75016 15.7288C1.83141 15.8128 1.92843 15.88 2.03566 15.9265C2.1429 15.9731 2.25825 15.998 2.37513 16H16.6251C16.742 15.998 16.8574 15.9731 16.9646 15.9265C17.0718 15.88 17.1688 15.8128 17.2501 15.7288C17.3314 15.6447 17.3953 15.5455 17.4382 15.4367C17.4811 15.328 17.5021 15.2119 17.5001 15.095V3.905C17.5021 3.78812 17.4811 3.67199 17.4382 3.56325C17.3953 3.45451 17.3314 3.35528 17.2501 3.27124C17.1688 3.1872 17.0718 3.11999 16.9646 3.07345C16.8574 3.02691 16.742 3.00195 16.6251 3ZM5.50013 13H4.50013V12H5.50013V13ZM5.50013 10.5H4.50013V9.5H5.50013V10.5ZM5.50013 8H4.50013V7H5.50013V8ZM8.50013 13H7.50013V12H8.50013V13ZM8.50013 10.5H7.50013V9.5H8.50013V10.5ZM8.50013 8H7.50013V7H8.50013V8ZM11.5001 13H10.5001V12H11.5001V13ZM11.5001 10.5H10.5001V9.5H11.5001V10.5ZM11.5001 8H10.5001V7H11.5001V8ZM14.5001 13H13.5001V12H14.5001V13ZM14.5001 10.5H13.5001V9.5H14.5001V10.5ZM14.5001 8H13.5001V7H14.5001V8Z" fill="black"/>
<path d="M5.5 5C5.63261 5 5.75979 4.94732 5.85355 4.85355C5.94732 4.75979 6 4.63261 6 4.5V1.5C6 1.36739 5.94732 1.24021 5.85355 1.14645C5.75979 1.05268 5.63261 1 5.5 1C5.36739 1 5.24021 1.05268 5.14645 1.14645C5.05268 1.24021 5 1.36739 5 1.5V4.5C5 4.63261 5.05268 4.75979 5.14645 4.85355C5.24021 4.94732 5.36739 5 5.5 5Z" fill="black"/>
<path d="M13.5 5C13.6326 5 13.7598 4.94732 13.8536 4.85355C13.9473 4.75979 14 4.63261 14 4.5V1.5C14 1.36739 13.9473 1.24021 13.8536 1.14645C13.7598 1.05268 13.6326 1 13.5 1C13.3674 1 13.2402 1.05268 13.1464 1.14645C13.0527 1.24021 13 1.36739 13 1.5V4.5C13 4.63261 13.0527 4.75979 13.1464 4.85355C13.2402 4.94732 13.3674 5 13.5 5Z" fill="black"/>
</g>
<defs>
<clipPath id="clip0_744_407">
<rect width="18" height="18" fill="white" transform="translate(0.5)"/>
</clipPath>
</defs>
</svg>
