<svg width="24" height="24" viewBox="0 0 24 24" fill="none" xmlns="http://www.w3.org/2000/svg">
<g clip-path="url(#clip0_738_1897)">
<path fill-rule="evenodd" clip-rule="evenodd" d="M15.1283 21.3005C13.7926 21.9051 12.3023 22.2285 10.7417 22.2285C4.80844 22.2285 0 17.4341 0 11.5009C0 5.56765 4.80844 0.759216 10.7417 0.759216C16.6608 0.759216 21.4692 5.56765 21.4692 11.5009C21.4692 12.3023 21.3849 13.0896 21.2162 13.8348L15.1283 21.3005Z" fill="#3D984A"/>
<path fill-rule="evenodd" clip-rule="evenodd" d="M4.97699 13.188C4.24588 12.3726 4.83639 11.0791 5.919 11.0791C6.25643 11.0791 6.5798 11.2056 6.81882 11.4446L8.30915 12.935C9.9682 10.2777 12.1193 7.91562 15.1 6.81896C16.1686 6.42529 17.1668 7.52195 16.6888 8.54831C16.5622 8.84356 16.3092 9.08258 15.9858 9.20912C13.1738 10.2355 11.107 12.949 9.70107 15.5641C9.27928 16.3655 8.26697 16.478 7.6624 15.8875L4.97699 13.188Z" fill="white"/>
<path d="M19.0506 23.2408C21.7839 23.2408 23.9996 21.025 23.9996 18.2917C23.9996 15.5585 21.7839 13.3427 19.0506 13.3427C16.3173 13.3427 14.1016 15.5585 14.1016 18.2917C14.1016 21.025 16.3173 23.2408 19.0506 23.2408Z" fill="#FF9800"/>
<path d="M18.25 16.1124C18.25 15.6766 18.6156 15.311 19.0514 15.311C19.4873 15.311 19.8528 15.6766 19.8528 16.1124V20.4569C19.8528 20.9068 19.4873 21.2583 19.0514 21.2583C18.6156 21.2583 18.25 20.9068 18.25 20.4569V16.1124Z" fill="white"/>
<path d="M21.2302 17.4903C21.6661 17.4903 22.0316 17.8418 22.0316 18.2917C22.0316 18.7276 21.6661 19.0931 21.2302 19.0931H16.8717C16.4359 19.0931 16.0703 18.7276 16.0703 18.2917C16.0703 17.8418 16.4359 17.4903 16.8717 17.4903H21.2302Z" fill="white"/>
</g>
<defs>
<clipPath id="clip0_738_1897">
<rect width="24" height="24" fill="white"/>
</clipPath>
</defs>
</svg>
