<svg width="11" height="12" viewBox="0 0 11 12" fill="none" xmlns="http://www.w3.org/2000/svg">
<g clip-path="url(#clip0_43_134)">
<path d="M1.08119 4.37915C1.19629 4.25992 1.35404 4.19128 1.51974 4.18833C1.68544 4.18538 1.84553 4.24837 1.9648 4.36343L5.1131 7.40165L8.15132 4.25336C8.26715 4.13743 8.42388 4.07163 8.58775 4.07014C8.75163 4.06865 8.90953 4.13158 9.02745 4.24538C9.14538 4.35918 9.21388 4.51474 9.21822 4.67857C9.22256 4.84239 9.16239 5.00136 9.05065 5.12124L5.57849 8.71921C5.46338 8.83844 5.30564 8.90708 5.13994 8.91003C4.97423 8.91298 4.81415 8.85 4.69488 8.73493L1.09691 5.26276C0.977674 5.14766 0.909035 4.98992 0.906087 4.82421C0.903139 4.65851 0.966123 4.49842 1.08119 4.37915Z" fill="black"/>
</g>
<defs>
<clipPath id="clip0_43_134">
<rect width="10" height="10" fill="white" transform="matrix(0.999842 -0.0177901 -0.0177901 -0.999842 0.177856 11.0882)"/>
</clipPath>
</defs>
</svg>
