<svg width="147" height="76" viewBox="0 0 147 76" fill="none" xmlns="http://www.w3.org/2000/svg">
<path d="M146.327 26.5774C141.017 38.7909 132.244 49.6053 120.842 57.9914C109.44 66.3776 95.7896 72.0565 81.1891 74.4877C66.5887 76.919 51.5242 76.0216 37.4292 71.8811C23.3342 67.7406 10.6777 60.4947 0.664062 50.8329L29.6152 27.5944C35.1227 32.9084 42.0838 36.8937 49.8361 39.1709C57.5883 41.4482 65.8738 41.9417 73.904 40.6046C81.9343 39.2674 89.4421 36.144 95.713 31.5316C101.984 26.9192 106.809 20.9713 109.73 14.2539L146.327 26.5774Z" fill="#79D7BE"/>
<path d="M146.328 13.1941L109.73 0.870605V14.2538L146.328 26.5773V13.1941Z" fill="url(#paint0_linear_256_792)"/>
<path d="M109.73 0.870605C106.809 7.58801 101.984 13.5359 95.7129 18.1483V31.5315C101.984 26.9191 106.809 20.9712 109.73 14.2538V0.870605Z" fill="url(#paint1_linear_256_792)"/>
<path d="M49.8361 25.7874C42.0838 23.5102 35.1227 19.5249 29.6152 14.2109V27.5941C35.1227 32.9081 42.0838 36.8933 49.8361 39.1706V25.7874Z" fill="url(#paint2_linear_256_792)"/>
<path d="M95.7133 18.1484C89.4424 22.7608 81.9345 25.8842 73.9043 27.2214V40.6046C81.9345 39.2674 89.4424 36.144 95.7133 31.5316V18.1484Z" fill="url(#paint3_linear_256_792)"/>
<path d="M29.6152 14.2109L0.664062 37.4494V50.8326L29.6152 27.5941V14.2109Z" fill="url(#paint4_linear_256_792)"/>
<path d="M73.9039 27.2212C65.8737 28.5584 57.5882 28.0649 49.8359 25.7876V39.1708C57.5882 41.448 65.8737 41.9416 73.9039 40.6044V27.2212Z" fill="url(#paint5_linear_256_792)"/>
<path d="M120.842 44.6079C132.243 36.2217 141.017 25.4073 146.327 13.1938V26.577C141.017 38.7905 132.243 49.6049 120.842 57.991V44.6079Z" fill="url(#paint6_linear_256_792)"/>
<path d="M0.664062 37.4497C10.6777 47.1115 23.3342 54.3574 37.4292 58.4979V71.881C23.3342 67.7405 10.6777 60.4946 0.664062 50.8329V37.4497Z" fill="url(#paint7_linear_256_792)"/>
<path d="M81.1895 61.1042C95.7899 58.673 109.44 52.9941 120.842 44.6079V57.9911C109.44 66.3772 95.7899 72.0561 81.1895 74.4874V61.1042Z" fill="url(#paint8_linear_256_792)"/>
<path d="M37.4287 58.4976C51.5237 62.6381 66.5882 63.5354 81.1887 61.1042V74.4873C66.5882 76.9185 51.5237 76.0212 37.4287 71.8807V58.4976Z" fill="url(#paint9_linear_256_792)"/>
<defs>
<linearGradient id="paint0_linear_256_792" x1="146.328" y1="13.7239" x2="109.73" y2="13.7239" gradientUnits="userSpaceOnUse">
<stop stop-color="#FF4C44"/>
<stop offset="1" stop-color="#FF4C44"/>
</linearGradient>
<linearGradient id="paint1_linear_256_792" x1="109.73" y1="16.201" x2="95.7129" y2="16.201" gradientUnits="userSpaceOnUse">
<stop stop-color="#BCFCEB"/>
<stop offset="0.5" stop-color="#ABF8E4"/>
<stop offset="1" stop-color="#C5FBED"/>
</linearGradient>
<linearGradient id="paint2_linear_256_792" x1="49.8361" y1="26.6908" x2="29.6152" y2="26.6908" gradientUnits="userSpaceOnUse">
<stop stop-color="#ACF5E1"/>
<stop offset="0.5" stop-color="#A8D7CA"/>
<stop offset="1" stop-color="#79D7BE"/>
</linearGradient>
<linearGradient id="paint3_linear_256_792" x1="95.7133" y1="29.3765" x2="73.9043" y2="29.3765" gradientUnits="userSpaceOnUse">
<stop stop-color="#CBFFF1"/>
<stop offset="0.5" stop-color="#D8FFF5"/>
<stop offset="1" stop-color="#A1F5DE"/>
</linearGradient>
<linearGradient id="paint4_linear_256_792" x1="29.6152" y1="32.5218" x2="0.664062" y2="32.5218" gradientUnits="userSpaceOnUse">
<stop stop-color="#FFBEBD"/>
<stop offset="1" stop-color="#FFBEBD"/>
</linearGradient>
<linearGradient id="paint5_linear_256_792" x1="73.9039" y1="33.5634" x2="49.8359" y2="33.5634" gradientUnits="userSpaceOnUse">
<stop stop-color="#79D7BE"/>
<stop offset="0.5" stop-color="#A7F2DE"/>
<stop offset="1" stop-color="#C1FFEE"/>
</linearGradient>
<linearGradient id="paint6_linear_256_792" x1="146.327" y1="35.5924" x2="120.842" y2="35.5924" gradientUnits="userSpaceOnUse">
<stop stop-color="#BCFCEB"/>
<stop offset="0.5" stop-color="#ABF8E4"/>
<stop offset="1" stop-color="#C5FBED"/>
</linearGradient>
<linearGradient id="paint7_linear_256_792" x1="37.4292" y1="54.6654" x2="0.664062" y2="54.6654" gradientUnits="userSpaceOnUse">
<stop stop-color="#D4FFF3"/>
<stop offset="0.5" stop-color="#A8D7CA"/>
<stop offset="1" stop-color="#79D7BE"/>
</linearGradient>
<linearGradient id="paint8_linear_256_792" x1="120.842" y1="59.5476" x2="81.1895" y2="59.5476" gradientUnits="userSpaceOnUse">
<stop stop-color="#CBFFF1"/>
<stop offset="0.5" stop-color="#D8FFF5"/>
<stop offset="1" stop-color="#A1F5DE"/>
</linearGradient>
<linearGradient id="paint9_linear_256_792" x1="81.1887" y1="67.1605" x2="37.4287" y2="67.1605" gradientUnits="userSpaceOnUse">
<stop stop-color="#C5FAEC"/>
<stop offset="0.0001" stop-color="#A7FDE6"/>
<stop offset="0.5" stop-color="#A7F2DE"/>
<stop offset="1" stop-color="#C1FFEE"/>
</linearGradient>
</defs>
</svg>
