<svg width="63" height="63" viewBox="0 0 63 63" fill="none" xmlns="http://www.w3.org/2000/svg">
<path d="M47.4997 38.7502H12.4997L0.833008 50.4168V3.75016C0.833008 2.97661 1.1403 2.23475 1.68728 1.68777C2.23426 1.14079 2.97613 0.833496 3.74967 0.833496H47.4997C48.2732 0.833496 49.0151 1.14079 49.5621 1.68777C50.1091 2.23475 50.4163 2.97661 50.4163 3.75016V35.8335C50.4163 36.607 50.1091 37.3489 49.5621 37.8959C49.0151 38.4429 48.2732 38.7502 47.4997 38.7502ZM62.083 21.2502V62.0835L50.4163 50.4168H18.333C17.5595 50.4168 16.8176 50.1095 16.2706 49.5626C15.7236 49.0156 15.4163 48.2737 15.4163 47.5002V44.5835H56.2497V18.3335H59.1663C59.9399 18.3335 60.6818 18.6408 61.2287 19.1878C61.7757 19.7348 62.083 20.4766 62.083 21.2502ZM18.8872 6.66683C16.3497 6.66683 14.308 7.25016 12.733 8.38766C11.2163 9.5835 10.458 11.246 10.4872 13.5502L10.5163 13.6377H16.1455C16.1747 12.7627 16.4372 12.0918 16.9622 11.6252C17.5023 11.1773 18.1857 10.9391 18.8872 10.9543C19.7913 10.9543 20.5497 11.246 21.0747 11.771C21.5997 12.3252 21.833 13.0835 21.833 13.9585C21.833 14.8918 21.6288 15.6793 21.1622 16.3502C20.7538 17.021 20.1413 17.6043 19.383 18.071C17.8955 19.0627 16.8747 19.9377 16.3205 20.7252C15.7372 21.4835 15.4163 22.7085 15.4163 24.1668H21.2497C21.2497 23.2627 21.3663 22.5335 21.6288 22.0085C21.8913 21.4835 22.3872 20.9585 23.1163 20.4918C24.4288 19.7918 25.508 18.946 26.3538 17.7793C27.1997 16.6127 27.6372 15.4168 27.6372 13.9585C27.6372 11.7418 26.8497 9.96266 25.2747 8.65016C23.7288 7.33766 21.5997 6.66683 18.8872 6.66683ZM15.4163 27.0835V32.9168H21.2497V27.0835H15.4163ZM32.9163 32.9168H38.7497V27.0835H32.9163V32.9168ZM32.9163 6.66683V24.1668H38.7497V6.66683H32.9163Z" fill="#16423C"/>
</svg>
