<svg width="63" height="63" viewBox="0 0 63 63" fill="none" xmlns="http://www.w3.org/2000/svg">
<path d="M47.5002 38.7499H12.5002L0.833496 50.4166V3.74992C0.833496 2.97637 1.14079 2.2345 1.68777 1.68752C2.23475 1.14054 2.97661 0.833252 3.75016 0.833252H47.5002C48.2737 0.833252 49.0156 1.14054 49.5626 1.68752C50.1095 2.2345 50.4168 2.97637 50.4168 3.74992V35.8333C50.4168 36.6068 50.1095 37.3487 49.5626 37.8956C49.0156 38.4426 48.2737 38.7499 47.5002 38.7499ZM62.0835 21.2499V62.0833L50.4168 50.4166H18.3335C17.5599 50.4166 16.8181 50.1093 16.2711 49.5623C15.7241 49.0153 15.4168 48.2735 15.4168 47.4999V44.5833H56.2502V18.3333H59.1668C59.9404 18.3333 60.6822 18.6405 61.2292 19.1875C61.7762 19.7345 62.0835 20.4764 62.0835 21.2499ZM18.8877 6.66659C16.3502 6.66659 14.3085 7.24992 12.7335 8.38742C11.2168 9.58325 10.4585 11.2458 10.4877 13.5499L10.5168 13.6374H16.146C16.1752 12.7624 16.4377 12.0916 16.9627 11.6249C17.5028 11.177 18.1862 10.9389 18.8877 10.9541C19.7918 10.9541 20.5502 11.2458 21.0752 11.7708C21.6002 12.3249 21.8335 13.0833 21.8335 13.9583C21.8335 14.8916 21.6293 15.6791 21.1627 16.3499C20.7543 17.0208 20.1418 17.6041 19.3835 18.0708C17.896 19.0624 16.8752 19.9374 16.321 20.7249C15.7377 21.4833 15.4168 22.7083 15.4168 24.1666H21.2502C21.2502 23.2624 21.3668 22.5333 21.6293 22.0083C21.8918 21.4833 22.3877 20.9583 23.1168 20.4916C24.4293 19.7916 25.5085 18.9458 26.3543 17.7791C27.2002 16.6124 27.6377 15.4166 27.6377 13.9583C27.6377 11.7416 26.8502 9.96242 25.2752 8.64992C23.7293 7.33742 21.6002 6.66659 18.8877 6.66659ZM15.4168 27.0833V32.9166H21.2502V27.0833H15.4168ZM32.9168 32.9166H38.7502V27.0833H32.9168V32.9166ZM32.9168 6.66659V24.1666H38.7502V6.66659H32.9168Z" fill="#79D7BE"/>
</svg>
