<svg width="60" height="60" viewBox="0 0 60 60" fill="none" xmlns="http://www.w3.org/2000/svg">
<path d="M38.4375 40.3124C38.4375 38.6896 38.4375 33.7499 43.125 33.7499H52.5V28.1249C52.5 25.5403 50.3972 23.4374 47.8125 23.4374H7.5C4.91531 23.4374 2.8125 25.5403 2.8125 28.1249V52.4999C2.8125 55.0846 4.91531 57.1874 7.5 57.1874H47.8125C50.3972 57.1874 52.5 55.0846 52.5 52.4999V46.8749H43.125C38.4375 46.8749 38.4375 41.9353 38.4375 40.3124Z" fill="#C7C7C7" fill-opacity="0.4"/>
<path d="M40.3123 21.5625V15.8794C40.3123 14.9109 39.807 14.0325 38.9605 13.53C38.083 13.0087 37.0236 12.9909 36.1283 13.4794L19.918 21.5625H40.3123Z" fill="#C7C7C7" fill-opacity="0.4"/>
<path d="M45.9375 42.1875C46.973 42.1875 47.8125 41.348 47.8125 40.3125C47.8125 39.277 46.973 38.4375 45.9375 38.4375C44.902 38.4375 44.0625 39.277 44.0625 40.3125C44.0625 41.348 44.902 42.1875 45.9375 42.1875Z" fill="#C7C7C7" fill-opacity="0.4"/>
<path d="M31.8744 13.5055V9.51456C31.8744 8.08863 30.9969 7.183 30.1766 6.81081C29.1809 6.35894 28.0897 6.52581 27.2572 7.25612L10.9297 21.5624H15.7166L31.8744 13.5055Z" fill="#C7C7C7" fill-opacity="0.4"/>
<path d="M54.375 35.625H43.125C41.4366 35.625 40.3125 36.4228 40.3125 40.3125C40.3125 44.2022 41.4366 45 43.125 45H54.375C55.9256 45 57.1875 43.7381 57.1875 42.1875V38.4375C57.1875 36.8869 55.9256 35.625 54.375 35.625ZM45.9375 44.0625C43.8694 44.0625 42.1875 42.3806 42.1875 40.3125C42.1875 38.2444 43.8694 36.5625 45.9375 36.5625C48.0056 36.5625 49.6875 38.2444 49.6875 40.3125C49.6875 42.3806 48.0056 44.0625 45.9375 44.0625Z" fill="#C7C7C7" fill-opacity="0.4"/>
<path d="M57.9178 8.2481L53.6053 2.44685C53.0466 1.69497 51.9197 1.69497 51.3609 2.44778L47.0747 8.21997C46.6481 8.64653 46.95 9.37497 47.5528 9.37497H49.6697C50.2425 12.1837 48.9806 15.0487 46.5225 16.5234L45.9375 16.875L49.6875 19.6875L49.8525 19.5778C53.2631 17.3034 55.3125 13.4747 55.3125 9.37497H57.4509C58.0397 9.37497 58.3341 8.66435 57.9178 8.2481Z" fill="#C7C7C7" fill-opacity="0.4"/>
</svg>
