<svg width="56" height="56" viewBox="0 0 56 56" fill="none" xmlns="http://www.w3.org/2000/svg">
<path d="M15.43 23.8L21.82 27.63L36.58 16.89C36.7411 16.7725 36.9333 16.7051 37.1325 16.6962C37.3317 16.6873 37.5291 16.7374 37.7 16.84L44.52 21.03L46.52 22.25V3.27C46.5202 2.4044 46.1772 1.57404 45.566 0.96103C44.9549 0.348022 44.1256 0.00241213 43.26 0H3.27C2.40336 0.00201511 1.57279 0.347179 0.959987 0.959987C0.347179 1.57279 0.00201511 2.40336 0 3.27V34.8C0.85809 34.1414 13.0612 24.8154 14.31 23.86C14.468 23.7364 14.6602 23.6644 14.8606 23.6536C15.0609 23.6429 15.2597 23.694 15.43 23.8ZM12.13 7.66C13.3105 7.66968 14.4394 8.14543 15.2707 8.98361C16.102 9.8218 16.5685 10.9545 16.5684 12.1351C16.5684 13.3156 16.1019 14.4483 15.2706 15.2865C14.4392 16.1246 13.3104 16.6004 12.1299 16.61C6.22607 16.4253 6.21832 7.83966 12.13 7.66ZM12.13 14.61C11.4794 14.6011 10.8585 14.3365 10.4016 13.8733C9.94467 13.4101 9.68849 12.7857 9.68848 12.135C9.68847 11.4844 9.94464 10.8599 10.4016 10.3967C10.8585 9.93355 11.4794 9.66888 12.1299 9.66C12.7805 9.66886 13.4014 9.93352 13.8583 10.3967C14.3153 10.8599 14.5714 11.4843 14.5715 12.135C14.5715 12.7856 14.3153 13.4101 13.8584 13.8733C13.4015 14.3365 12.7806 14.6011 12.13 14.61ZM46.64 30.49L52.31 36.16C52.4485 36.3 52.5425 36.4779 52.5802 36.6713C52.6178 36.8646 52.5974 37.0648 52.5214 37.2466C52.4455 37.4283 52.3175 37.5836 52.1536 37.6927C51.9896 37.8019 51.797 37.8601 51.6 37.86H49.2V50.47C49.1992 50.735 49.0936 50.9889 48.9062 51.1762C48.7189 51.3636 48.465 51.4692 48.2 51.47H43.67C43.5385 51.4705 43.4083 51.4449 43.2868 51.3948C43.1652 51.3447 43.0548 51.2711 42.9619 51.1781C42.8689 51.0852 42.7953 50.9748 42.7452 50.8532C42.6951 50.7317 42.6695 50.6015 42.67 50.47V37.86L40.2601 37.8599C40.0645 37.8569 39.8741 37.7965 39.7125 37.6864C39.5508 37.5763 39.4249 37.4212 39.3505 37.2404C39.276 37.0595 39.2561 36.8608 39.2934 36.6688C39.3306 36.4767 39.4233 36.2998 39.56 36.1599C39.9593 35.7606 45.0023 30.705 45.22 30.4899C45.4112 30.3071 45.6655 30.2051 45.93 30.2051C46.1945 30.2051 46.4488 30.3072 46.64 30.49ZM40.67 46.52H3.27C2.4044 46.5202 1.57403 46.1772 0.961021 45.566C0.348011 44.9549 0.00240421 44.1256 0 43.26V37.32C0.838 36.6825 13.7363 26.8064 14.98 25.86L21.36 29.68C21.5272 29.7816 21.7205 29.832 21.916 29.8249C22.1115 29.8178 22.3007 29.7535 22.46 29.64L37.22 18.9C38.6482 19.7688 45.2311 23.815 46.52 24.59V28.27C46.0366 28.1664 45.5349 28.1863 45.0612 28.3278C44.5876 28.4694 44.1572 28.7281 43.81 29.08L38.17 34.72C37.7255 35.1648 37.4308 35.7371 37.3268 36.3573C37.2228 36.9775 37.3148 37.6146 37.5898 38.1801C37.8648 38.7456 38.3093 39.2113 38.8614 39.5124C39.4135 39.8135 40.0457 39.935 40.67 39.86V46.52ZM56 50.4658V55C56 55.1313 55.9742 55.2614 55.924 55.3827C55.8737 55.5041 55.8 55.6143 55.7072 55.7072C55.6143 55.8 55.5041 55.8737 55.3827 55.924C55.2614 55.9742 55.1313 56 55 56H36.8643C36.7329 56 36.6029 55.9742 36.4815 55.924C36.3602 55.8737 36.2499 55.8001 36.1571 55.7072C36.0642 55.6143 35.9906 55.5041 35.9403 55.3827C35.8901 55.2614 35.8642 55.1313 35.8643 55V50.4658C35.8643 50.2006 35.9696 49.9463 36.1572 49.7587C36.3447 49.5712 36.599 49.4658 36.8643 49.4658C37.1295 49.4658 37.3838 49.5712 37.5714 49.7587C37.7589 49.9463 37.8643 50.2006 37.8643 50.4658V54H54V50.4658C54 50.2006 54.1054 49.9463 54.2929 49.7587C54.4804 49.5712 54.7348 49.4658 55 49.4658C55.2652 49.4658 55.5196 49.5712 55.7071 49.7587C55.8946 49.9463 56 50.2006 56 50.4658Z" fill="url(#paint0_linear_1215_1400)"/>
<defs>
<linearGradient id="paint0_linear_1215_1400" x1="0" y1="28" x2="56" y2="28" gradientUnits="userSpaceOnUse">
<stop stop-color="#566319"/>
<stop offset="1" stop-color="#16423C"/>
</linearGradient>
</defs>
</svg>
