<svg width="16" height="30" viewBox="0 0 16 30" fill="none" xmlns="http://www.w3.org/2000/svg">
<path d="M1.1577 15.978H4.44618V29.5161C4.44618 29.7834 4.66276 30 4.93005 30H10.5058C10.7731 30 10.9897 29.7834 10.9897 29.5161V16.0418H14.7701C15.0159 16.0418 15.2227 15.8573 15.2507 15.6132L15.8249 10.6291C15.8407 10.492 15.7972 10.3546 15.7055 10.2518C15.6136 10.1488 15.4822 10.0899 15.3443 10.0899H10.9899V6.96561C10.9899 6.02381 11.497 5.54623 12.4972 5.54623C12.6398 5.54623 15.3443 5.54623 15.3443 5.54623C15.6116 5.54623 15.8282 5.32955 15.8282 5.06235V0.487452C15.8282 0.220161 15.6116 0.00358065 15.3443 0.00358065H11.4206C11.3929 0.00222581 11.3315 0 11.2409 0C10.5601 0 8.19367 0.133645 6.32438 1.85332C4.25321 3.759 4.54112 6.04074 4.60992 6.43636V10.0898H1.1577C0.890409 10.0898 0.673828 10.3064 0.673828 10.5736V15.494C0.673828 15.7613 0.890409 15.978 1.1577 15.978Z" fill="#16423C"/>
</svg>
