<svg width="25" height="24" viewBox="0 0 25 24" fill="none" xmlns="http://www.w3.org/2000/svg">
<path d="M5.87242 2.99988C5.66847 2.99981 5.46834 3.05518 5.29343 3.16007C5.11852 3.26496 4.97542 3.41543 4.87942 3.59538L1.87942 9.22038C1.77691 9.41258 1.73241 9.63042 1.75132 9.84743C1.77022 10.0644 1.85172 10.2713 1.98592 10.4429L9.38692 19.9169C9.29424 19.5348 9.24741 19.143 9.24742 18.7499C9.24722 18.0337 9.45207 17.3325 9.83777 16.7291C10.2235 16.1257 10.7739 15.6454 11.4239 15.3449L10.1444 11.2499H11.5589C11.7009 10.4126 12.0769 9.63252 12.6434 8.99988H9.84442L10.7819 5.24988H13.7129L14.3534 7.81038C15.0681 7.52991 15.8427 7.43697 16.6034 7.54038L16.0334 5.24988H17.9474L19.9469 8.99988H19.3514C19.8597 9.56571 20.2157 10.2515 20.386 10.9928C20.5563 11.7341 20.5353 12.5065 20.3249 13.2374L22.5089 10.4429C22.6429 10.2711 22.7241 10.0642 22.7428 9.8472C22.7614 9.63019 22.7166 9.41244 22.6139 9.22038L19.6139 3.59538C19.5181 3.41566 19.3752 3.26533 19.2006 3.16046C19.0259 3.05558 18.8261 3.00008 18.6224 2.99988H5.87242ZM4.54792 8.99988L6.54742 5.24988H8.46292L7.52542 8.99988H4.54792ZM5.47192 11.2499H7.78792L9.33142 16.1894L5.47192 11.2499ZM18.9974 11.9999C18.9974 12.7955 18.6814 13.5586 18.1187 14.1212C17.5561 14.6838 16.7931 14.9999 15.9974 14.9999C15.2018 14.9999 14.4387 14.6838 13.8761 14.1212C13.3135 13.5586 12.9974 12.7955 12.9974 11.9999C12.9974 11.2042 13.3135 10.4412 13.8761 9.87856C14.4387 9.31595 15.2018 8.99988 15.9974 8.99988C16.7931 8.99988 17.5561 9.31595 18.1187 9.87856C18.6814 10.4412 18.9974 11.2042 18.9974 11.9999ZM21.2474 18.7499C21.2474 20.6174 19.7474 22.4999 15.9974 22.4999C12.2474 22.4999 10.7474 20.6249 10.7474 18.7499C10.7474 18.1531 10.9845 17.5808 11.4064 17.1589C11.8284 16.7369 12.4007 16.4999 12.9974 16.4999H18.9974C19.5942 16.4999 20.1665 16.7369 20.5884 17.1589C21.0104 17.5808 21.2474 18.1531 21.2474 18.7499Z" fill="#2E5077"/>
</svg>
