<svg width="25" height="24" viewBox="0 0 25 24" fill="none" xmlns="http://www.w3.org/2000/svg">
<path d="M5.87242 2.99976C5.66847 2.99968 5.46834 3.05506 5.29343 3.15995C5.11852 3.26484 4.97542 3.41531 4.87942 3.59526L1.87942 9.22026C1.77691 9.41246 1.73241 9.63029 1.75132 9.84731C1.77022 10.0643 1.85172 10.2712 1.98592 10.4428L9.38692 19.9168C9.29424 19.5347 9.24741 19.1429 9.24742 18.7498C9.24722 18.0336 9.45207 17.3324 9.83777 16.729C10.2235 16.1256 10.7739 15.6452 11.4239 15.3448L10.1444 11.2498H11.5589C11.7009 10.4124 12.0769 9.63239 12.6434 8.99976H9.84442L10.7819 5.24976H13.7129L14.3534 7.81026C15.0681 7.52979 15.8427 7.43684 16.6034 7.54026L16.0334 5.24976H17.9474L19.9469 8.99976H19.3514C19.8597 9.56558 20.2157 10.2514 20.386 10.9927C20.5563 11.7339 20.5353 12.5063 20.3249 13.2373L22.5089 10.4428C22.6429 10.271 22.7241 10.0641 22.7428 9.84708C22.7614 9.63007 22.7166 9.41232 22.6139 9.22026L19.6139 3.59526C19.5181 3.41553 19.3752 3.26521 19.2006 3.16033C19.0259 3.05546 18.8261 2.99996 18.6224 2.99976H5.87242ZM4.54792 8.99976L6.54742 5.24976H8.46292L7.52542 8.99976H4.54792ZM5.47192 11.2498H7.78792L9.33142 16.1893L5.47192 11.2498ZM18.9974 11.9998C18.9974 12.7954 18.6814 13.5585 18.1187 14.1211C17.5561 14.6837 16.7931 14.9998 15.9974 14.9998C15.2018 14.9998 14.4387 14.6837 13.8761 14.1211C13.3135 13.5585 12.9974 12.7954 12.9974 11.9998C12.9974 11.2041 13.3135 10.441 13.8761 9.87844C14.4387 9.31583 15.2018 8.99976 15.9974 8.99976C16.7931 8.99976 17.5561 9.31583 18.1187 9.87844C18.6814 10.441 18.9974 11.2041 18.9974 11.9998ZM21.2474 18.7498C21.2474 20.6173 19.7474 22.4998 15.9974 22.4998C12.2474 22.4998 10.7474 20.6248 10.7474 18.7498C10.7474 18.153 10.9845 17.5807 11.4064 17.1588C11.8284 16.7368 12.4007 16.4998 12.9974 16.4998H18.9974C19.5942 16.4998 20.1665 16.7368 20.5884 17.1588C21.0104 17.5807 21.2474 18.153 21.2474 18.7498Z" fill="#79D7BE"/>
</svg>
