<svg width="45" height="45" viewBox="0 0 45 45" fill="none" xmlns="http://www.w3.org/2000/svg">
<path d="M8.83154 35.5068C8.83154 25.2651 16.821 16.9639 26.6781 16.9639C36.5351 16.9639 44.5246 25.2651 44.5246 35.5068C44.5246 45.7485 8.83154 45.7485 8.83154 35.5068Z" fill="white"/>
<path d="M40.4428 40.6155C31.0754 45.2948 8.83301 43.5917 8.83301 35.5064C8.83301 28.461 12.6144 22.3326 18.1827 19.1968C21.3596 29.2838 29.7385 37.3159 40.4428 40.6155Z" fill="#E7E6FD"/>
<path d="M19.516 7.43055L20.1259 7.65762C21.0956 8.0187 22.2055 7.76031 22.8766 7.01744L25.1554 4.4948C26.1123 3.43549 27.8645 3.42469 28.8367 4.47194L30.813 6.60128C31.5264 7.3698 32.7071 7.59804 33.6919 7.15766C35.502 6.34819 37.5238 7.82385 37.102 9.64664L35.4721 16.6919H18.2233L16.2863 10.0997C15.7615 8.31373 17.6645 6.74114 19.516 7.43055Z" fill="white"/>
<path d="M19.516 7.43055L20.1259 7.65762C21.0956 8.0187 22.2055 7.76031 22.8766 7.01744L25.1554 4.4948C26.1123 3.43549 27.8645 3.42469 28.8367 4.47194L30.813 6.60128C31.5264 7.3698 32.7071 7.59804 33.6919 7.15766C35.502 6.34819 37.5238 7.82385 37.102 9.64664L35.4721 16.6919H18.2233L16.2863 10.0997C15.7615 8.31373 17.6645 6.74114 19.516 7.43055Z" fill="#4C6B67"/>
<path d="M36.3685 20.687C30.0303 22.3256 23.3259 22.3256 16.9878 20.687C15.3023 20.2512 14.3974 18.5499 15.0158 17.0312C15.023 17.0136 15.0301 16.9962 15.0373 16.9786C15.5852 15.6328 17.1492 14.8986 18.6435 15.2829C23.9002 16.6349 29.4563 16.6349 34.7131 15.2829C36.2073 14.8986 37.7712 15.6328 38.3192 16.9786C38.3263 16.9962 38.3334 17.0136 38.3406 17.0312C38.9588 18.5498 38.054 20.2512 36.3685 20.687Z" fill="white"/>
<path d="M36.371 20.6871C30.0306 22.3246 23.3282 22.3246 16.9878 20.6871C15.3023 20.2531 14.3978 18.5501 15.0155 17.0314C15.0243 17.015 15.0288 16.9946 15.0375 16.9782C15.042 16.97 15.0464 16.9618 15.0508 16.9536C15.3862 17.7068 16.0745 18.3169 16.9878 18.5501C23.3282 20.1876 30.0306 20.1876 36.371 18.5501C37.2888 18.3168 37.9727 17.7027 38.308 16.9536C38.3124 16.9618 38.3168 16.97 38.3212 16.9782C38.3256 16.9946 38.3345 17.015 38.3388 17.0314C38.961 18.5502 38.0566 20.2532 36.371 20.6871Z" fill="#E7E6FD"/>
<path d="M14.7343 40.6064C19.2847 40.6064 22.9735 39.3258 22.9735 37.7461C22.9735 36.1664 19.2847 34.8857 14.7343 34.8857C10.1839 34.8857 6.49512 36.1664 6.49512 37.7461C6.49512 39.3258 10.1839 40.6064 14.7343 40.6064Z" fill="#FBECB3"/>
<path d="M6.49512 41.6986C6.49512 43.2777 10.1847 44.5589 14.7343 44.5589C19.2839 44.5589 22.9735 43.2777 22.9735 41.6986V37.7461C22.9735 39.3253 19.2839 40.6064 14.7343 40.6064C10.1846 40.6064 6.49512 39.3253 6.49512 37.7461V41.6986Z" fill="#FBECB3"/>
<path d="M8.98675 34.6533C13.5371 34.6533 17.2259 33.3727 17.2259 31.7929C17.2259 30.2132 13.5371 28.9326 8.98675 28.9326C4.43637 28.9326 0.747559 30.2132 0.747559 31.7929C0.747559 33.3727 4.43637 34.6533 8.98675 34.6533Z" fill="#FBECB3"/>
<path d="M0.747559 35.745C0.747559 37.3241 4.43718 38.6053 8.98675 38.6053C13.5363 38.6053 17.2259 37.3241 17.2259 35.745V31.7925C17.2259 33.3716 13.5363 34.6528 8.98675 34.6528C4.43709 34.6528 0.747559 33.3715 0.747559 31.7925V35.745Z" fill="#FBECB3"/>
<path d="M15.8379 26.6021C16.7625 22.9732 14.3413 19.336 10.43 18.4782C6.51879 17.6204 2.5986 19.8668 1.67405 23.4957C0.749496 27.1246 3.1707 30.7618 7.08195 31.6196C10.9932 32.4774 14.9134 30.231 15.8379 26.6021Z" fill="#4C6B67"/>
<path d="M13.1541 6.69696H10.8864V16.0539C10.8864 16.4065 10.5783 16.6923 10.1983 16.6923H5.3821C5.00213 16.6923 4.69405 16.4065 4.69405 16.0539V6.69696H2.42611C1.81188 6.69696 1.50438 6.008 1.93867 5.60507L7.30257 0.628368C7.57195 0.378435 8.00866 0.378435 8.27804 0.628368L13.6418 5.60489C14.0759 6.00791 13.7683 6.69696 13.1541 6.69696Z" fill="#FBECB3"/>
<path d="M26.6783 35.8121C25.4269 35.8121 24.409 34.8675 24.409 33.7062C24.409 33.4626 24.1964 33.265 23.9335 33.265C23.6706 33.265 23.458 33.4626 23.458 33.7062C23.458 35.2036 24.6524 36.4438 26.2028 36.6581V38.1016C26.2028 38.3452 26.4155 38.5428 26.6783 38.5428C26.9411 38.5428 27.1538 38.3452 27.1538 38.1016V36.6582C28.7047 36.4439 29.8991 35.2037 29.8991 33.7062C29.8991 32.0585 28.4546 30.7179 26.6783 30.7179C25.4269 30.7179 24.409 29.7732 24.409 28.6122C24.409 27.4509 25.4269 26.5063 26.6783 26.5063C27.9298 26.5063 28.9481 27.4509 28.9481 28.6122C28.9481 28.8559 29.1608 29.0534 29.4236 29.0534C29.6865 29.0534 29.8991 28.8559 29.8991 28.6122C29.8991 27.1148 28.7047 25.8746 27.1538 25.6602V24.2166C27.1538 23.9729 26.9412 23.7754 26.6783 23.7754C26.4156 23.7754 26.2028 23.9729 26.2028 24.2166V25.6602C24.6524 25.8747 23.458 27.1147 23.458 28.6121C23.458 30.2599 24.9026 31.6002 26.6783 31.6002C27.9298 31.6002 28.9481 32.545 28.9481 33.7061C28.9481 34.8675 27.9298 35.8121 26.6783 35.8121Z" fill="#16423C"/>
<path d="M0.271484 31.7934V35.7458C0.271484 37.3851 2.89679 38.4452 6.02001 38.8548V41.6985C6.02001 43.843 10.5099 45 14.7346 45C17.6382 45 20.6669 44.4534 22.2773 43.4155C23.6951 43.5542 25.1679 43.6298 26.6779 43.6298C35.5025 43.6298 45 41.088 45 35.5074C45 29.3778 42.1765 23.9249 37.8117 20.4529C39.7188 18.9215 38.7667 16.8676 38.7637 16.8234C38.3491 15.805 37.4461 15.0946 36.3868 14.8422L37.5671 9.74004C37.8007 8.73058 37.4023 7.70718 36.5279 7.06907C35.6535 6.43061 34.488 6.31298 33.4855 6.761C32.6966 7.11362 31.7451 6.93056 31.1734 6.31423L29.1971 4.18481C28.6422 3.58747 27.8305 3.23485 26.9867 3.25312C26.137 3.25825 25.3369 3.6079 24.7908 4.21235L22.5122 6.73472C21.9712 7.33296 21.0833 7.53951 20.3027 7.2489L19.693 7.02182C18.6692 6.63986 17.5187 6.82598 16.6938 7.50828C15.8689 8.18986 15.5368 9.22757 15.8273 10.2165L17.1737 14.7979C16.027 15.0031 15.0336 15.7396 14.5931 16.8216L14.5711 16.8759C14.0744 18.0954 14.4038 19.5375 15.5459 20.4537C15.3806 20.5858 15.2181 20.721 15.0572 20.8587C13.6489 19.0384 11.3541 17.8463 8.76007 17.8463C4.48454 17.8463 1.00629 21.0735 1.00629 25.0404C1.00629 26.7152 1.63147 28.2543 2.66961 29.4783C1.22823 30.03 0.271484 30.8058 0.271484 31.7934ZM1.22251 35.7458V33.3584C3.00795 34.6743 6.68313 35.095 8.98628 35.095C12.0285 35.095 15.2084 34.4949 16.7501 33.3584V35.7458C16.7501 36.8901 13.5615 38.1652 8.98628 38.1652C4.41101 38.1652 1.22251 36.8902 1.22251 35.7458ZM8.26845 39.0354C8.50796 39.0428 8.74765 39.0476 8.98628 39.0476C13.211 39.0476 17.7011 37.8904 17.7011 35.7459V35.5203C20.6287 35.9189 22.4981 36.8703 22.4981 37.7461C22.4981 38.8904 19.3098 40.1653 14.7345 40.1653C12.7265 40.1652 10.0297 39.8783 8.26845 39.0354ZM6.97103 41.6985V39.3108C8.77792 40.6431 12.428 41.0475 14.7346 41.0475C17.0519 41.0475 20.698 40.6386 22.4982 39.3108V41.6985C22.4982 42.8428 19.3099 44.1177 14.7346 44.1177C10.1593 44.1177 6.97103 42.8428 6.97103 41.6985ZM17.3262 8.167C17.888 7.70322 18.6394 7.58019 19.3392 7.84083L19.9488 8.06791C21.112 8.50135 22.4359 8.19346 23.2411 7.30146L25.5198 4.77909C25.8861 4.37345 26.423 4.13891 26.9931 4.13522C27.5625 4.15376 28.1043 4.3595 28.4763 4.76055L30.4526 6.8897C31.3042 7.8078 32.721 8.08096 33.8985 7.5558C34.5802 7.25052 35.3441 7.32747 35.9399 7.76235C36.5357 8.19706 36.7961 8.86721 36.6373 9.55463L35.4368 14.7429C35.1552 14.7498 34.87 14.7851 34.5858 14.8582C29.4129 16.1889 23.9433 16.1889 18.7702 14.8582C18.5623 14.8049 18.3536 14.7712 18.1462 14.7536L16.7447 9.98412C16.5467 9.31091 16.7643 8.6314 17.3262 8.167ZM15.4622 17.1836L15.4819 17.1353C15.9457 15.9956 17.251 15.3833 18.5158 15.7088C23.8563 17.0821 29.5006 17.0817 34.8402 15.7088C36.1052 15.3831 37.4104 15.9962 37.8739 17.1353C38.436 18.4889 37.6398 19.9012 36.2408 20.2628C29.9845 21.8797 23.3706 21.8797 17.1154 20.2628C15.6756 19.8907 14.9489 18.4444 15.4622 17.1836ZM16.3837 20.9484C17.4613 21.3975 22.0178 22.3581 26.6779 22.3581C31.2885 22.3581 35.8791 21.4026 36.9686 20.9502C41.2564 24.2482 44.049 29.5399 44.049 35.5074C44.049 40.2607 35.3102 42.7474 26.6779 42.7474C25.4939 42.7474 24.3108 42.6949 23.1464 42.601C23.3356 42.3222 23.4492 42.0232 23.4492 41.6985V37.746C23.4492 36.1067 20.8247 35.0452 17.7012 34.6358V31.7934C17.7012 30.7278 16.5867 29.9093 14.9521 29.3525C15.928 28.1492 16.514 26.6591 16.514 25.0406C16.514 23.8005 16.174 22.6326 15.576 21.6131C15.8391 21.3836 16.1079 21.1617 16.3837 20.9484ZM8.75997 18.7287C12.5113 18.7287 15.563 21.5601 15.563 25.0405C15.563 28.5208 12.5113 31.3523 8.75997 31.3523C5.00894 31.3523 1.95711 28.5208 1.95711 25.0405C1.95711 21.5601 5.00885 18.7287 8.75997 18.7287ZM3.33825 30.1745C4.73753 31.4468 6.65053 32.2345 8.75997 32.2345C10.9268 32.2345 12.8864 31.4035 14.2948 30.0696C15.8331 30.5406 16.7502 31.1837 16.7502 31.7934C16.7502 33.5207 11.5441 34.2127 8.98647 34.2127C4.41121 34.2127 1.2227 32.9376 1.2227 31.7934C1.22251 31.2289 2.00232 30.6337 3.33825 30.1745Z" fill="#16423C"/>
<path d="M8.75999 28.0436C7.99871 28.0436 7.37925 27.4689 7.37925 26.7623C7.37925 26.5187 7.16632 26.3211 6.90373 26.3211C6.64115 26.3211 6.42822 26.5187 6.42822 26.7623C6.42822 27.8041 7.22608 28.6758 8.28448 28.8801V29.7346C8.28448 29.9782 8.49741 30.1758 8.75999 30.1758C9.02258 30.1758 9.2355 29.9782 9.2355 29.7346V28.8801C10.2939 28.6757 11.0918 27.8041 11.0918 26.7623C11.0918 25.5693 10.0458 24.5988 8.75999 24.5988C7.99871 24.5988 7.37925 24.0241 7.37925 23.3178C7.37925 22.6112 7.99871 22.0364 8.75999 22.0364C9.52128 22.0364 10.1407 22.6112 10.1407 23.3178C10.1407 23.5614 10.3537 23.759 10.6163 23.759C10.8788 23.759 11.0918 23.5614 11.0918 23.3178C11.0918 22.276 10.2939 21.4043 9.2355 21.2V20.3455C9.2355 20.1018 9.02258 19.9043 8.75999 19.9043C8.49741 19.9043 8.28448 20.1018 8.28448 20.3455V21.2C7.22608 21.4043 6.42822 22.276 6.42822 23.3178C6.42822 24.5107 7.47421 25.4812 8.75999 25.4812C9.52128 25.4812 10.1407 26.056 10.1407 26.7623C10.1407 27.469 9.52128 28.0436 8.75999 28.0436Z" fill="#16423C"/>
<path d="M5.3827 17.1334H10.1987C10.8405 17.1334 11.3624 16.6491 11.3624 16.0539V7.13794H13.1545C13.6275 7.13794 14.0501 6.87604 14.2309 6.47076C14.4118 6.06531 14.3125 5.60306 13.9783 5.29283L8.61466 0.316309C8.1603 -0.105436 7.42084 -0.105436 6.96686 0.316309L1.60305 5.29292C1.26868 5.60315 1.16954 6.0654 1.35045 6.47058C1.53137 6.87604 1.95362 7.13794 2.42661 7.13794H4.21924V16.0539C4.21924 16.6491 4.74121 17.1334 5.3827 17.1334ZM2.42661 6.25557C2.30216 6.25557 2.24948 6.17889 2.22901 6.13299C2.20855 6.08736 2.1875 5.99853 2.27548 5.9169L7.63929 0.940106C7.72271 0.862705 7.85852 0.862435 7.94233 0.940106L13.3061 5.91672C13.3941 5.99835 13.373 6.08736 13.3526 6.13299C13.3321 6.17889 13.2793 6.25557 13.1548 6.25557H10.8872C10.6246 6.25557 10.4116 6.45312 10.4116 6.69676V16.0539C10.4116 16.1627 10.3162 16.251 10.199 16.251H5.3827C5.26542 16.251 5.17026 16.1627 5.17026 16.0539V6.69676C5.17026 6.45312 4.95734 6.25557 4.69475 6.25557H2.42661Z" fill="#16423C"/>
</svg>
