<svg width="1242" height="107" viewBox="0 0 1242 107" fill="none" xmlns="http://www.w3.org/2000/svg">
<path d="M0 0H1242V87C1242 98.0457 1233.05 107 1222 107H20C8.95434 107 0 98.0457 0 87V0Z" fill="#16423C"/>
<path d="M20.5229 74.62L20.2829 73.87C21.7429 73.05 23.1629 72.18 24.5429 71.26C25.9229 70.32 27.1329 69.35 28.1729 68.35C29.2329 67.35 29.9929 66.34 30.4529 65.32C30.7729 64.62 31.0929 63.69 31.4129 62.53C31.7529 61.37 32.1129 60 32.4929 58.42L33.5729 58.6C33.4529 59.52 33.3529 60.24 33.2729 60.76C33.2129 61.26 33.1729 61.63 33.1529 61.87C33.1329 62.11 33.1229 62.3 33.1229 62.44C33.1229 63.74 33.4729 64.69 34.1729 65.29C34.8729 65.87 35.6629 66.16 36.5429 66.16C37.0229 66.16 37.3629 66.42 37.5629 66.94C37.7629 67.44 37.8629 68.15 37.8629 69.07C37.8629 69.83 37.7529 70.51 37.5329 71.11C37.3329 71.71 37.0229 72.18 36.6029 72.52C36.2029 72.84 35.6929 73 35.0729 73C34.1729 73 33.4329 72.76 32.8529 72.28C32.2929 71.8 31.8829 71.17 31.6229 70.39C31.3629 69.61 31.2329 68.78 31.2329 67.9H31.1129C30.8529 68.6 30.5629 69.3 30.2429 70C29.9229 70.68 29.5829 71.28 29.2229 71.8C28.8829 72.3 28.5529 72.65 28.2329 72.85C27.9929 72.99 27.5529 73.15 26.9129 73.33C26.2729 73.51 25.5529 73.68 24.7529 73.84C23.9529 74.02 23.1729 74.18 22.4129 74.32C21.6529 74.46 21.0229 74.56 20.5229 74.62ZM36.2781 73C35.9181 73 35.6381 72.84 35.4381 72.52C35.2381 72.2 35.1081 71.81 35.0481 71.35C34.9681 70.87 34.9281 70.41 34.9281 69.97C34.9281 69.11 35.0481 68.4 35.2881 67.84C35.5281 67.28 35.8581 66.86 36.2781 66.58C36.6981 66.3 37.1881 66.16 37.7481 66.16C39.0281 66.16 40.0881 65.89 40.9281 65.35C41.1881 65.17 41.4281 64.97 41.6481 64.75C41.8681 64.51 42.0781 64.25 42.2781 63.97C42.7181 63.31 43.0281 62.88 43.2081 62.68C43.4081 62.46 43.6681 62.35 43.9881 62.35C44.1481 62.35 44.3581 62.4 44.6181 62.5C44.8781 62.58 45.1281 62.67 45.3681 62.77C45.6281 62.87 45.8181 62.94 45.9381 62.98C46.1581 62.58 46.4181 62.17 46.7181 61.75C47.0181 61.33 47.2781 60.96 47.4981 60.64C48.5581 59.06 49.5681 57.81 50.5281 56.89C51.4881 55.95 52.4081 55.28 53.2881 54.88C54.1681 54.46 55.0181 54.25 55.8381 54.25C56.7781 54.25 57.5181 54.49 58.0581 54.97C58.6181 55.43 58.8981 56.15 58.8981 57.13C58.8981 57.89 58.7481 58.75 58.4481 59.71C58.1481 60.67 57.7181 61.64 57.1581 62.62C56.5981 63.6 55.9381 64.52 55.1781 65.38C54.4181 66.22 53.5681 66.91 52.6281 67.45C51.7681 67.95 50.9181 68.33 50.0781 68.59C49.2581 68.85 48.4681 68.98 47.7081 68.98C46.8481 68.98 46.0581 68.84 45.3381 68.56C44.6381 68.28 44.0281 67.98 43.5081 67.66C43.0881 67.38 42.8081 67.21 42.6681 67.15C42.5481 67.07 42.3881 67.03 42.1881 67.03C42.0281 67.03 41.8581 67.17 41.6781 67.45C41.5181 67.73 41.3281 68.15 41.1081 68.71C40.7681 69.61 40.3681 70.38 39.9081 71.02C39.4481 71.66 38.9181 72.15 38.3181 72.49C37.7381 72.83 37.0581 73 36.2781 73ZM49.4181 63.67C50.2581 63.67 51.0881 63.58 51.9081 63.4C52.7481 63.2 53.4981 62.95 54.1581 62.65C54.8381 62.33 55.3781 61.99 55.7781 61.63C56.1981 61.27 56.4081 60.92 56.4081 60.58C56.4081 60.06 56.1581 59.69 55.6581 59.47C55.1781 59.23 54.6181 59.11 53.9781 59.11C52.8381 59.11 51.7581 59.46 50.7381 60.16C49.7181 60.86 48.6681 61.94 47.5881 63.4C47.9881 63.5 48.3281 63.57 48.6081 63.61C48.9081 63.65 49.1781 63.67 49.4181 63.67ZM64.57 69.97L63.79 69.79C63.87 69.41 63.98 68.69 64.12 67.63C64.26 66.55 64.37 65 64.45 62.98L64.84 54.37C64.9 53.25 64.97 52.28 65.05 51.46C65.15 50.64 65.29 49.87 65.47 49.15C65.65 48.43 65.89 47.69 66.19 46.93C66.51 46.15 66.91 45.26 67.39 44.26L68.14 44.5C68 44.96 67.85 45.7 67.69 46.72C67.53 47.72 67.4 49.18 67.3 51.1L66.82 60.01C66.74 61.73 66.5 63.45 66.1 65.17C65.72 66.89 65.21 68.49 64.57 69.97ZM69.7993 75.4L69.5593 74.65C70.0993 74.27 70.7593 73.78 71.5393 73.18C72.3393 72.6 73.1793 71.95 74.0593 71.23C74.9593 70.49 75.8293 69.75 76.6693 69.01C77.5293 68.25 78.2893 67.52 78.9493 66.82C79.6293 66.12 80.1393 65.5 80.4793 64.96C80.8393 64.36 81.1493 63.83 81.4093 63.37C81.6693 62.91 81.8993 62.46 82.0993 62.02C82.3193 61.56 82.5393 61.05 82.7593 60.49C82.9993 59.91 83.2693 59.22 83.5693 58.42L84.6493 58.57C84.4093 59.65 84.0793 60.86 83.6593 62.2C83.2593 63.52 82.7893 64.83 82.2493 66.13C81.7293 67.43 81.1693 68.62 80.5693 69.7C79.9693 70.76 79.3693 71.58 78.7693 72.16C78.6093 72.3 78.2593 72.49 77.7193 72.73C77.1793 72.97 76.5393 73.22 75.7993 73.48C75.0793 73.74 74.3293 74 73.5493 74.26C72.7693 74.52 72.0393 74.75 71.3593 74.95C70.6993 75.15 70.1793 75.3 69.7993 75.4Z" fill="white"/>
<g clip-path="url(#clip0_689_906)">
<path fill-rule="evenodd" clip-rule="evenodd" d="M157 38.5C165.284 38.5 172 45.2157 172 53.5C172 61.7843 165.284 68.5 157 68.5C148.716 68.5 142 61.7843 142 53.5C142 45.2157 148.716 38.5 157 38.5ZM159.714 56.2319L165.331 53.5L159.714 50.7681V50.7675C159.645 50.7343 159.591 50.6773 159.56 50.607L157 44.7109L154.447 50.5894C154.419 50.6678 154.361 50.7319 154.286 50.7681L148.669 53.5L154.286 56.2319V56.2325C154.355 56.2657 154.409 56.3227 154.44 56.393L157 62.2891L159.553 56.4106C159.581 56.3322 159.639 56.2681 159.714 56.2319Z" fill="#FFEB00"/>
</g>
<path d="M229.104 62.55C228.624 62.07 228.234 61.7 227.934 61.44C227.634 61.16 227.374 60.92 227.154 60.72C226.914 60.52 226.644 60.32 226.344 60.12V59.82C226.484 59.6 226.684 59.33 226.944 59.01C227.204 58.69 227.494 58.37 227.814 58.05C228.114 57.71 228.394 57.41 228.654 57.15C228.914 56.89 229.104 56.72 229.224 56.64H229.524C230.044 56.96 230.464 57.26 230.784 57.54C231.104 57.8 231.364 58.04 231.564 58.26C231.844 57.92 232.124 57.61 232.404 57.33C232.684 57.03 232.934 56.77 233.154 56.55C233.374 56.33 233.544 56.18 233.664 56.1H233.964C234.784 56.62 235.414 57.09 235.854 57.51C236.314 57.93 236.544 58.38 236.544 58.86C236.544 59.36 236.254 59.89 235.674 60.45C235.114 61.01 234.484 61.53 233.784 62.01H233.544C233.124 61.61 232.774 61.29 232.494 61.05C232.234 60.79 231.984 60.56 231.744 60.36C231.304 61.04 230.504 61.77 229.344 62.55H229.104ZM229.494 76.42L228.504 76C229.024 74.58 229.594 73.32 230.214 72.22C230.854 71.12 231.524 70.19 232.224 69.43C232.924 68.67 233.714 68.1 234.594 67.72C235.494 67.34 236.484 67.15 237.564 67.15C237.784 67.15 238.084 67.17 238.464 67.21C238.844 67.25 239.224 67.29 239.604 67.33C240.004 67.37 240.294 67.39 240.474 67.39C240.954 67.39 241.274 67.61 241.434 68.05C241.594 68.47 241.674 69.03 241.674 69.73C241.674 70.57 241.444 71.31 240.984 71.95C240.524 72.59 239.954 73.09 239.274 73.45C238.614 73.81 237.944 73.99 237.264 73.99C236.584 73.99 235.924 73.91 235.284 73.75C234.644 73.59 234.084 73.51 233.604 73.51C232.744 73.51 231.994 73.77 231.354 74.29C230.714 74.81 230.094 75.52 229.494 76.42ZM237.871 74C237.551 74 237.271 73.81 237.031 73.43C236.791 73.03 236.671 72.44 236.671 71.66C236.671 70.86 236.891 70.14 237.331 69.5C237.771 68.86 238.331 68.35 239.011 67.97C239.691 67.59 240.381 67.4 241.081 67.4C241.961 67.4 242.711 67.3 243.331 67.1C243.971 66.88 244.501 66.55 244.921 66.11C245.321 65.69 245.741 65.2 246.181 64.64C246.621 64.06 247.071 63.41 247.531 62.69C248.471 61.25 249.591 60.53 250.891 60.53C251.431 60.53 252.031 60.63 252.691 60.83C253.371 61.03 253.961 61.3 254.461 61.64C254.961 61.96 255.211 62.34 255.211 62.78C255.211 63.22 255.111 63.67 254.911 64.13C254.731 64.59 254.451 65.08 254.071 65.6C253.691 66.12 253.301 66.51 252.901 66.77C252.501 67.03 252.101 67.16 251.701 67.16C251.221 67.16 250.601 66.96 249.841 66.56C249.461 66.36 249.121 66.22 248.821 66.14C248.521 66.04 248.261 65.99 248.041 65.99C247.741 65.99 247.411 66.1 247.051 66.32C246.711 66.52 246.351 66.84 245.971 67.28C245.611 67.7 245.221 68.23 244.801 68.87C244.181 69.85 243.581 70.67 243.001 71.33C242.441 71.99 241.911 72.51 241.411 72.89C240.411 73.63 239.231 74 237.871 74ZM253.969 64C252.989 64 252.219 63.8 251.659 63.4C251.099 63 250.819 62.43 250.819 61.69C250.819 60.99 251.209 60.01 251.989 58.75C252.309 58.23 252.559 57.82 252.739 57.52C252.919 57.22 253.069 56.95 253.189 56.71C253.309 56.47 253.419 56.2 253.519 55.9C253.639 55.6 253.789 55.2 253.969 54.7C254.089 54.34 254.189 53.94 254.269 53.5C254.349 53.06 254.419 52.48 254.479 51.76C254.539 51.02 254.599 50.05 254.659 48.85C254.719 47.97 254.769 47.08 254.809 46.18C254.869 45.28 254.929 44.39 254.989 43.51C255.069 42.15 255.149 41 255.229 40.06C255.329 39.12 255.439 38.29 255.559 37.57C255.699 36.85 255.869 36.15 256.069 35.47C256.269 34.79 256.519 34.03 256.819 33.19C257.199 32.17 257.639 31.26 258.139 30.46C258.639 29.64 259.259 28.83 259.999 28.03C260.739 27.23 261.649 26.34 262.729 25.36C263.289 24.84 263.909 24.28 264.589 23.68C265.269 23.08 265.969 22.46 266.689 21.82C267.429 21.16 268.149 20.52 268.849 19.9C269.549 19.28 270.189 18.7 270.769 18.16C271.369 17.62 271.869 17.15 272.269 16.75L273.829 15.19L274.339 15.37C274.239 15.89 274.089 16.48 273.889 17.14C273.689 17.78 273.469 18.42 273.229 19.06C272.989 19.7 272.749 20.27 272.509 20.77C272.269 21.27 272.059 21.63 271.879 21.85C271.219 22.67 270.439 23.5 269.539 24.34C268.639 25.18 267.729 25.98 266.809 26.74C265.529 27.82 264.489 28.7 263.689 29.38C262.889 30.04 262.249 30.59 261.769 31.03C261.309 31.45 260.899 31.83 260.539 32.17C259.619 33.03 258.919 33.75 258.439 34.33C257.959 34.91 257.689 35.34 257.629 35.62C257.529 36.08 257.439 36.59 257.359 37.15C257.279 37.71 257.219 38.33 257.179 39.01C257.099 40.33 257.029 41.44 256.969 42.34C256.909 43.24 256.869 43.99 256.849 44.59C256.829 45.19 256.819 45.73 256.819 46.21C256.819 47.41 256.919 48.48 257.119 49.42C257.339 50.34 257.729 51.06 258.289 51.58C258.869 52.1 259.689 52.36 260.749 52.36C261.269 52.36 261.619 52.58 261.799 53.02C261.979 53.46 262.069 54.11 262.069 54.97C262.069 55.93 261.939 56.73 261.679 57.37C261.419 57.99 261.069 58.45 260.629 58.75C260.209 59.05 259.759 59.2 259.279 59.2C258.479 59.2 257.809 59.06 257.269 58.78C256.729 58.5 256.289 58.13 255.949 57.67C255.609 57.19 255.339 56.66 255.139 56.08C254.999 56.46 254.839 56.83 254.659 57.19C254.479 57.53 254.279 57.87 254.059 58.21C253.859 58.55 253.699 58.87 253.579 59.17C253.479 59.47 253.429 59.73 253.429 59.95C253.429 60.47 253.819 60.99 254.599 61.51C254.999 61.77 255.289 62.04 255.469 62.32C255.669 62.62 255.769 62.93 255.769 63.25C255.769 63.51 255.579 63.7 255.199 63.82C254.839 63.94 254.429 64 253.969 64ZM259.901 59C259.521 59 259.201 58.77 258.941 58.31C258.681 57.83 258.551 57.05 258.551 55.97C258.551 55.29 258.621 54.71 258.761 54.23C258.901 53.75 259.111 53.36 259.391 53.06C259.671 52.76 259.971 52.54 260.291 52.4C260.631 52.24 260.991 52.16 261.371 52.16C263.151 52.16 264.681 52 265.961 51.68C267.241 51.36 268.311 50.96 269.171 50.48C270.031 49.98 270.721 49.47 271.241 48.95C271.101 48.95 270.721 48.95 270.101 48.95C269.481 48.93 268.741 48.91 267.881 48.89C267.041 48.85 266.191 48.8 265.331 48.74C264.491 48.68 263.751 48.61 263.111 48.53C262.471 48.45 262.071 48.35 261.911 48.23L261.731 47.81C262.011 46.81 262.271 46 262.511 45.38C262.771 44.76 263.011 44.28 263.231 43.94C263.451 43.6 263.651 43.37 263.831 43.25C264.011 43.13 264.151 43.07 264.251 43.07C264.371 43.07 264.511 43.11 264.671 43.19C264.831 43.25 264.911 43.36 264.911 43.52V43.64C265.671 43.74 266.511 43.84 267.431 43.94C268.351 44.02 269.211 44.09 270.011 44.15C270.811 44.21 271.401 44.26 271.781 44.3L275.231 44.54L275.261 45.14C274.521 46.4 273.781 47.59 273.041 48.71C272.321 49.81 271.611 50.83 270.911 51.77C269.991 52.99 268.971 54.16 267.851 55.28C266.731 56.38 265.511 57.28 264.191 57.98C262.871 58.66 261.441 59 259.901 59ZM280.273 53.88C279.773 53.38 279.373 52.99 279.073 52.71C278.773 52.45 278.513 52.22 278.293 52.02C278.073 51.84 277.813 51.65 277.513 51.45V51.15C277.653 50.93 277.853 50.66 278.113 50.34C278.373 50.02 278.663 49.69 278.983 49.35C279.283 49.03 279.563 48.74 279.823 48.48C280.083 48.22 280.273 48.05 280.393 47.97H280.693C281.513 48.49 282.143 48.96 282.583 49.38C283.043 49.8 283.273 50.25 283.273 50.73C283.273 51.23 282.983 51.76 282.403 52.32C281.843 52.88 281.213 53.4 280.513 53.88H280.273ZM265.247 45.38C265.167 45.38 265.077 45.35 264.977 45.29C264.857 45.23 264.797 45.13 264.797 44.99C264.797 44.81 264.877 44.56 265.037 44.24C265.177 43.94 265.397 43.57 265.697 43.13C265.997 42.69 266.377 42.19 266.837 41.63C267.557 40.75 268.597 39.79 269.957 38.75C271.337 37.69 273.097 36.65 275.237 35.63C277.377 34.61 279.927 33.73 282.887 32.99L283.037 33.26C283.017 33.36 282.907 33.61 282.707 34.01C282.527 34.41 282.307 34.86 282.047 35.36C281.787 35.84 281.537 36.29 281.297 36.71C281.077 37.11 280.907 37.39 280.787 37.55C280.347 37.63 279.907 37.72 279.467 37.82C279.047 37.92 278.627 38.03 278.207 38.15C276.327 38.63 274.547 39.2 272.867 39.86C271.207 40.52 269.877 41.23 268.877 41.99C268.277 42.43 267.797 42.85 267.437 43.25C267.077 43.65 266.817 44.02 266.657 44.36C266.357 45.04 265.887 45.38 265.247 45.38ZM302.59 51.55C302.11 51.07 301.72 50.7 301.42 50.44C301.12 50.16 300.86 49.92 300.64 49.72C300.4 49.52 300.13 49.32 299.83 49.12V48.82C299.97 48.6 300.17 48.33 300.43 48.01C300.69 47.69 300.98 47.37 301.3 47.05C301.6 46.71 301.88 46.41 302.14 46.15C302.4 45.89 302.59 45.72 302.71 45.64H303.01C303.53 45.96 303.95 46.26 304.27 46.54C304.59 46.8 304.85 47.04 305.05 47.26C305.33 46.92 305.61 46.61 305.89 46.33C306.17 46.03 306.42 45.77 306.64 45.55C306.86 45.33 307.03 45.18 307.15 45.1H307.45C308.27 45.62 308.9 46.09 309.34 46.51C309.8 46.93 310.03 47.38 310.03 47.86C310.03 48.36 309.74 48.89 309.16 49.45C308.6 50.01 307.97 50.53 307.27 51.01H307.03C306.61 50.61 306.26 50.29 305.98 50.05C305.72 49.79 305.47 49.56 305.23 49.36C304.79 50.04 303.99 50.77 302.83 51.55H302.59ZM300.093 84.13C298.553 84.13 297.153 83.79 295.893 83.11C294.653 82.43 293.673 81.43 292.953 80.11C292.233 78.81 291.873 77.23 291.873 75.37C291.873 73.27 292.153 71.23 292.713 69.25C293.273 67.27 294.043 65.34 295.023 63.46L296.013 63.79C295.453 65.13 295.063 66.34 294.843 67.42C294.623 68.5 294.513 69.52 294.513 70.48C294.513 71.44 294.673 72.32 294.993 73.12C295.333 73.94 295.813 74.64 296.433 75.22C297.053 75.82 297.803 76.28 298.683 76.6C299.583 76.94 300.583 77.11 301.683 77.11C302.863 77.11 303.963 76.98 304.983 76.72C306.023 76.48 306.973 76.11 307.833 75.61C308.713 75.11 309.513 74.48 310.233 73.72C312.373 71.46 313.443 69.07 313.443 66.55C313.443 66.35 313.423 66.08 313.383 65.74C313.363 65.4 313.303 65.11 313.203 64.87C312.723 65.13 312.213 65.34 311.673 65.5C311.153 65.64 310.583 65.71 309.963 65.71C309.523 65.71 309.043 65.6 308.523 65.38C308.023 65.16 307.593 64.83 307.233 64.39C306.873 63.95 306.693 63.41 306.693 62.77C306.693 62.43 306.733 62.04 306.813 61.6C306.913 61.14 307.113 60.61 307.413 60.01L308.673 57.49C309.013 56.83 309.393 56.36 309.813 56.08C310.233 55.8 310.713 55.66 311.253 55.66C311.973 55.66 312.593 55.89 313.113 56.35C313.633 56.79 314.053 57.36 314.373 58.06C314.713 58.76 314.953 59.51 315.093 60.31C315.253 61.09 315.333 61.82 315.333 62.5C315.333 64.54 315.163 66.47 314.823 68.29C314.503 70.09 314.023 71.79 313.383 73.39C312.743 74.99 311.933 76.49 310.953 77.89C308.053 82.05 304.433 84.13 300.093 84.13ZM321.988 44.31C321.448 43.79 321.038 43.4 320.758 43.14C320.458 42.86 320.208 42.63 320.008 42.45C319.788 42.27 319.528 42.08 319.228 41.88V41.58C319.368 41.36 319.568 41.09 319.828 40.77C320.088 40.45 320.378 40.13 320.698 39.81C320.998 39.47 321.278 39.17 321.538 38.91C321.798 38.65 321.988 38.48 322.108 38.4H322.408C323.228 38.92 323.858 39.39 324.298 39.81C324.758 40.23 324.988 40.68 324.988 41.16C324.988 41.66 324.698 42.19 324.118 42.75C323.558 43.31 322.928 43.83 322.228 44.31H321.988ZM313.07 66C312.71 66 312.42 65.85 312.2 65.55C311.98 65.23 311.87 64.68 311.87 63.9C311.87 62.96 312.08 62.25 312.5 61.77C312.92 61.27 313.41 61.02 313.97 61.02C314.73 61.02 315.55 60.92 316.43 60.72C317.31 60.5 318.15 60.2 318.95 59.82C318.55 59.48 318.22 59.05 317.96 58.53C317.72 57.99 317.6 57.33 317.6 56.55C317.6 55.63 317.75 54.71 318.05 53.79C318.35 52.87 318.79 51.95 319.37 51.03C319.95 50.11 320.6 49.43 321.32 48.99C322.04 48.53 322.83 48.3 323.69 48.3C324.59 48.3 325.33 48.53 325.91 48.99C326.51 49.45 326.95 50.03 327.23 50.73C327.51 51.41 327.65 52.11 327.65 52.83C327.65 53.71 327.52 54.65 327.26 55.65C327.02 56.65 326.61 57.59 326.03 58.47C326.19 58.49 326.34 58.51 326.48 58.53C326.62 58.53 326.79 58.53 326.99 58.53C327.39 58.53 327.69 58.65 327.89 58.89C328.09 59.13 328.19 59.49 328.19 59.97C328.19 60.63 328.02 61.24 327.68 61.8C327.36 62.34 326.83 62.61 326.09 62.61C325.65 62.61 325.14 62.58 324.56 62.52C323.98 62.46 323.44 62.36 322.94 62.22C322.8 62.18 322.66 62.14 322.52 62.1C322.4 62.06 322.29 62.02 322.19 61.98C320.63 63.34 319.08 64.35 317.54 65.01C316 65.67 314.51 66 313.07 66ZM323.12 58.14C323.7 57.8 324.24 57.37 324.74 56.85C325.24 56.31 325.49 55.73 325.49 55.11C325.49 54.31 325.22 53.66 324.68 53.16C324.14 52.64 323.51 52.38 322.79 52.38C322.27 52.38 321.76 52.51 321.26 52.77C320.76 53.01 320.35 53.34 320.03 53.76C319.71 54.18 319.55 54.65 319.55 55.17C319.55 56.03 319.87 56.7 320.51 57.18C321.15 57.66 322.02 57.98 323.12 58.14ZM333.911 41.31C333.371 40.79 332.961 40.4 332.681 40.14C332.381 39.86 332.131 39.63 331.931 39.45C331.711 39.27 331.451 39.08 331.151 38.88V38.58C331.291 38.36 331.491 38.09 331.751 37.77C332.011 37.45 332.301 37.13 332.621 36.81C332.921 36.47 333.201 36.17 333.461 35.91C333.721 35.65 333.911 35.48 334.031 35.4H334.331C335.151 35.92 335.781 36.39 336.221 36.81C336.681 37.23 336.911 37.68 336.911 38.16C336.911 38.66 336.621 39.19 336.041 39.75C335.481 40.31 334.851 40.83 334.151 41.31H333.911ZM327.907 62C327.587 62 327.307 61.86 327.067 61.58C326.827 61.3 326.707 60.84 326.707 60.2C326.707 59.4 326.927 58.82 327.367 58.46C327.807 58.1 328.287 57.92 328.807 57.92C329.307 57.92 329.887 57.84 330.547 57.68C331.227 57.52 331.837 57.25 332.377 56.87C332.937 56.49 333.277 55.98 333.397 55.34C333.537 54.64 333.617 54.05 333.637 53.57C333.677 53.07 333.697 52.58 333.697 52.1C333.697 51.4 333.727 50.83 333.787 50.39C333.867 49.93 334.027 49.45 334.267 48.95C334.507 48.45 334.867 47.8 335.347 47L336.097 47.24C336.057 47.42 336.027 47.59 336.007 47.75C335.987 47.91 335.967 48.06 335.947 48.2C335.867 49 335.787 49.8 335.707 50.6C335.627 51.38 335.547 52.17 335.467 52.97C335.327 54.23 334.987 55.52 334.447 56.84C333.907 58.14 333.177 59.24 332.257 60.14C331.677 60.7 331.017 61.15 330.277 61.49C329.557 61.83 328.767 62 327.907 62ZM341.739 42.89C341.399 42.89 341.119 42.78 340.899 42.56C340.679 42.32 340.569 41.98 340.569 41.54C340.569 40.98 340.699 40.44 340.959 39.92C341.199 39.4 341.429 39.01 341.649 38.75L342.219 38.9C342.139 39.22 342.159 39.48 342.279 39.68C342.379 39.86 342.589 39.95 342.909 39.95C343.129 39.95 343.359 39.88 343.599 39.74C343.819 39.58 344.059 39.3 344.319 38.9L345.189 37.55C345.569 36.97 345.929 36.53 346.269 36.23C346.609 35.91 346.999 35.75 347.439 35.75C347.739 35.75 348.019 35.85 348.279 36.05C348.559 36.23 348.699 36.59 348.699 37.13C348.699 37.53 348.589 38.02 348.369 38.6C348.169 39.16 347.939 39.59 347.679 39.89L347.139 39.74C347.219 39.4 347.189 39.14 347.049 38.96C346.929 38.78 346.699 38.69 346.359 38.69C346.199 38.69 346.029 38.75 345.849 38.87C345.669 38.99 345.469 39.16 345.249 39.38C345.109 39.54 344.959 39.74 344.799 39.98C344.639 40.22 344.469 40.49 344.289 40.79C343.489 42.19 342.639 42.89 341.739 42.89ZM342.578 69.97L341.798 69.79C341.878 69.41 341.988 68.69 342.128 67.63C342.268 66.55 342.378 65 342.458 62.98L342.848 54.37C342.908 53.25 342.978 52.28 343.058 51.46C343.158 50.64 343.298 49.87 343.478 49.15C343.658 48.43 343.898 47.69 344.198 46.93C344.518 46.15 344.918 45.26 345.398 44.26L346.148 44.5C346.008 44.96 345.858 45.7 345.698 46.72C345.538 47.72 345.408 49.18 345.308 51.1L344.828 60.01C344.748 61.73 344.508 63.45 344.108 65.17C343.728 66.89 343.218 68.49 342.578 69.97ZM359.069 78.34L358.289 77.83C358.889 76.93 359.329 76.21 359.609 75.67C359.889 75.13 360.029 74.63 360.029 74.17C360.029 73.83 359.949 73.53 359.789 73.27C359.709 73.17 359.619 73.07 359.519 72.97C359.439 72.85 359.319 72.73 359.159 72.61C358.659 72.17 358.309 71.87 358.109 71.71C357.909 71.53 357.749 71.37 357.629 71.23C357.489 71.07 357.379 70.91 357.299 70.75C357.219 70.57 357.179 70.37 357.179 70.15C357.179 69.75 357.459 69.23 358.019 68.59C358.299 68.25 358.609 67.93 358.949 67.63C359.289 67.33 359.659 67.04 360.059 66.76H360.389C361.049 67.12 361.579 67.53 361.979 67.99C362.639 68.71 362.969 69.61 362.969 70.69C362.969 71.37 362.799 72.15 362.459 73.03C362.139 73.91 361.689 74.8 361.109 75.7C360.529 76.62 359.849 77.5 359.069 78.34ZM368.135 72.64L367.655 72.34C367.795 71.94 367.965 71.53 368.165 71.11C368.365 70.69 368.585 70.26 368.825 69.82C369.325 68.92 370.065 68.07 371.045 67.27C370.285 67.07 369.685 66.77 369.245 66.37C368.805 65.97 368.495 65.53 368.315 65.05C368.155 64.55 368.075 64.07 368.075 63.61C368.075 61.83 369.085 60.02 371.105 58.18C373.105 56.36 374.955 55.45 376.655 55.45C377.075 55.45 377.475 55.52 377.855 55.66C378.235 55.8 378.545 56.01 378.785 56.29C379.025 56.55 379.145 56.89 379.145 57.31C379.145 57.79 379.025 58.22 378.785 58.6C378.565 58.98 378.215 59.26 377.735 59.44H377.525C377.325 59.18 376.995 58.9 376.535 58.6C376.075 58.3 375.545 58.15 374.945 58.15C374.145 58.15 373.465 58.36 372.905 58.78C372.365 59.18 372.095 59.73 372.095 60.43C372.095 61.07 372.295 61.6 372.695 62.02C373.095 62.44 373.585 62.75 374.165 62.95C374.765 63.15 375.335 63.25 375.875 63.25C376.275 63.25 376.625 63.23 376.925 63.19C377.225 63.13 377.595 62.94 378.035 62.62C378.735 62.14 379.215 61.81 379.475 61.63C379.735 61.45 379.915 61.32 380.015 61.24C380.135 61.16 380.285 61.05 380.465 60.91L381.815 59.89L382.265 60.22C382.185 60.44 382.085 60.7 381.965 61C381.845 61.3 381.675 61.64 381.455 62.02C381.255 62.4 380.985 62.76 380.645 63.1C380.305 63.44 379.905 63.78 379.445 64.12L373.325 68.32C372.385 68.96 371.475 69.63 370.595 70.33C369.735 71.03 368.915 71.8 368.135 72.64ZM392.076 73C390.436 73 389.246 72.45 388.506 71.35C387.766 70.23 387.396 68.4 387.396 65.86C387.396 65.38 387.396 64.9 387.396 64.42C387.416 63.94 387.436 63.4 387.456 62.8C387.496 62.18 387.536 61.45 387.576 60.61C387.616 59.75 387.666 58.71 387.726 57.49C387.806 55.83 387.916 54.33 388.056 52.99C388.196 51.63 388.406 50.35 388.686 49.15C388.986 47.95 389.406 46.75 389.946 45.55L390.726 45.76C390.626 46.22 390.506 46.94 390.366 47.92C390.246 48.9 390.126 50.04 390.006 51.34C389.886 52.62 389.786 53.99 389.706 55.45C389.626 56.91 389.586 58.35 389.586 59.77C389.586 60.89 389.666 61.86 389.826 62.68C389.986 63.48 390.226 64.14 390.546 64.66C390.866 65.16 391.276 65.54 391.776 65.8C392.276 66.04 392.866 66.16 393.546 66.16C394.026 66.16 394.366 66.42 394.566 66.94C394.766 67.44 394.866 68.15 394.866 69.07C394.866 69.85 394.756 70.54 394.536 71.14C394.336 71.72 394.026 72.18 393.606 72.52C393.206 72.84 392.696 73 392.076 73ZM393.264 73C392.884 73 392.564 72.77 392.304 72.31C392.044 71.85 391.914 71.07 391.914 69.97C391.914 69.11 392.034 68.4 392.274 67.84C392.514 67.28 392.844 66.86 393.264 66.58C393.684 66.3 394.174 66.16 394.734 66.16C395.774 66.16 396.584 66.05 397.164 65.83C397.744 65.61 398.154 65.34 398.394 65.02C398.654 64.68 398.784 64.37 398.784 64.09C398.784 63.69 398.594 63.3 398.214 62.92C397.834 62.52 397.334 62.2 396.714 61.96C396.114 61.7 395.474 61.57 394.794 61.57C393.754 61.57 392.884 61.77 392.184 62.17C391.484 62.57 391.044 63.15 390.864 63.91C390.784 64.25 390.684 64.51 390.564 64.69C390.444 64.87 390.304 64.96 390.144 64.96C389.624 64.96 389.364 64.68 389.364 64.12C389.364 63.48 389.484 62.77 389.724 61.99C389.964 61.19 390.264 60.4 390.624 59.62C390.984 58.82 391.354 58.09 391.734 57.43C392.094 56.75 392.394 56.22 392.634 55.84C392.894 55.44 393.284 54.92 393.804 54.28C394.324 53.62 394.904 52.92 395.544 52.18C396.204 51.42 396.854 50.68 397.494 49.96C398.154 49.22 398.754 48.55 399.294 47.95C399.834 47.35 400.244 46.88 400.524 46.54C401.224 45.72 401.934 44.9 402.654 44.08C403.374 43.26 404.074 42.43 404.754 41.59C404.954 41.33 405.144 41.06 405.324 40.78C405.504 40.48 405.694 40.2 405.894 39.94L406.194 40.06C406.214 40.14 406.224 40.21 406.224 40.27C406.224 40.31 406.224 40.37 406.224 40.45C406.224 41.09 406.114 41.71 405.894 42.31C405.694 42.91 405.384 43.49 404.964 44.05C404.604 44.53 404.124 45.13 403.524 45.85C402.944 46.55 402.314 47.29 401.634 48.07C400.974 48.85 400.324 49.6 399.684 50.32C399.064 51.04 398.524 51.65 398.064 52.15L394.584 55.96L394.674 56.08C394.874 55.96 395.114 55.87 395.394 55.81C395.694 55.75 396.044 55.72 396.444 55.72C397.484 55.72 398.334 55.99 398.994 56.53C399.674 57.05 400.174 57.78 400.494 58.72C400.834 59.66 401.004 60.76 401.004 62.02C401.004 62.58 400.934 63.26 400.794 64.06C400.654 64.86 400.434 65.7 400.134 66.58C399.854 67.46 399.474 68.32 398.994 69.16C398.534 69.98 397.974 70.7 397.314 71.32C396.714 71.88 396.074 72.3 395.394 72.58C394.734 72.86 394.024 73 393.264 73ZM412.024 52.31C411.484 51.79 411.074 51.4 410.794 51.14C410.494 50.86 410.244 50.63 410.044 50.45C409.824 50.27 409.564 50.08 409.264 49.88V49.58C409.404 49.36 409.604 49.09 409.864 48.77C410.124 48.45 410.414 48.13 410.734 47.81C411.034 47.47 411.314 47.17 411.574 46.91C411.834 46.65 412.024 46.48 412.144 46.4H412.444C413.264 46.92 413.894 47.39 414.334 47.81C414.794 48.23 415.024 48.68 415.024 49.16C415.024 49.66 414.734 50.19 414.154 50.75C413.594 51.31 412.964 51.83 412.264 52.31H412.024ZM401.811 74.62L401.571 73.87C403.031 73.05 404.451 72.18 405.831 71.26C407.211 70.32 408.421 69.35 409.461 68.35C410.521 67.35 411.281 66.34 411.741 65.32C412.061 64.62 412.381 63.69 412.701 62.53C413.041 61.37 413.401 60 413.781 58.42L414.861 58.6C414.741 59.52 414.641 60.24 414.561 60.76C414.501 61.26 414.461 61.63 414.441 61.87C414.421 62.11 414.411 62.3 414.411 62.44C414.411 63.74 414.761 64.69 415.461 65.29C416.161 65.87 416.951 66.16 417.831 66.16C418.311 66.16 418.651 66.42 418.851 66.94C419.051 67.44 419.151 68.15 419.151 69.07C419.151 69.83 419.041 70.51 418.821 71.11C418.621 71.71 418.311 72.18 417.891 72.52C417.491 72.84 416.981 73 416.361 73C415.461 73 414.721 72.76 414.141 72.28C413.581 71.8 413.171 71.17 412.911 70.39C412.651 69.61 412.521 68.78 412.521 67.9H412.401C412.141 68.6 411.851 69.3 411.531 70C411.211 70.68 410.871 71.28 410.511 71.8C410.171 72.3 409.841 72.65 409.521 72.85C409.281 72.99 408.841 73.15 408.201 73.33C407.561 73.51 406.841 73.68 406.041 73.84C405.241 74.02 404.461 74.18 403.701 74.32C402.941 74.46 402.311 74.56 401.811 74.62ZM418.439 83.88C417.939 83.38 417.539 82.99 417.239 82.71C416.939 82.45 416.679 82.22 416.459 82.02C416.239 81.84 415.979 81.65 415.679 81.45V81.15C415.819 80.93 416.019 80.66 416.279 80.34C416.539 80.02 416.829 79.69 417.149 79.35C417.449 79.03 417.729 78.74 417.989 78.48C418.249 78.22 418.439 78.05 418.559 77.97H418.859C419.679 78.49 420.309 78.96 420.749 79.38C421.209 79.8 421.439 80.25 421.439 80.73C421.439 81.23 421.149 81.76 420.569 82.32C420.009 82.88 419.379 83.4 418.679 83.88H418.439ZM418.178 73C417.798 73 417.478 72.77 417.218 72.31C416.958 71.85 416.828 71.07 416.828 69.97C416.828 69.21 416.938 68.55 417.158 67.99C417.358 67.41 417.668 66.96 418.088 66.64C418.508 66.32 419.028 66.16 419.648 66.16C420.468 66.16 421.208 65.94 421.868 65.5C422.528 65.04 423.048 64.35 423.428 63.43L424.268 63.61C424.108 64.85 423.848 66.03 423.488 67.15C423.148 68.27 422.718 69.27 422.198 70.15C421.698 71.03 421.108 71.73 420.428 72.25C419.748 72.75 418.998 73 418.178 73ZM449.814 83.88C449.314 83.38 448.914 82.99 448.614 82.71C448.314 82.45 448.054 82.22 447.834 82.02C447.614 81.84 447.354 81.65 447.054 81.45V81.15C447.194 80.93 447.394 80.66 447.654 80.34C447.914 80.02 448.204 79.69 448.524 79.35C448.824 79.03 449.104 78.74 449.364 78.48C449.624 78.22 449.814 78.05 449.934 77.97H450.234C451.054 78.49 451.684 78.96 452.124 79.38C452.584 79.8 452.814 80.25 452.814 80.73C452.814 81.23 452.524 81.76 451.944 82.32C451.384 82.88 450.754 83.4 450.054 83.88H449.814ZM443.751 73.81C442.331 73.81 440.991 73.7 439.731 73.48C438.471 73.28 437.361 72.92 436.401 72.4C435.461 71.88 434.721 71.18 434.181 70.3C433.641 69.4 433.371 68.27 433.371 66.91C433.371 65.25 433.691 63.4 434.331 61.36L435.381 61.51C435.361 61.69 435.331 61.88 435.291 62.08C435.271 62.26 435.261 62.55 435.261 62.95C435.301 64.67 436.131 65.8 437.751 66.34C438.571 66.6 439.571 66.8 440.751 66.94C441.951 67.08 443.321 67.15 444.861 67.15C446.561 67.15 448.271 67.05 449.991 66.85C451.731 66.65 453.401 66.38 455.001 66.04C456.601 65.68 458.061 65.28 459.381 64.84C460.721 64.38 461.841 63.91 462.741 63.43C463.381 63.09 463.971 62.68 464.511 62.2C465.071 61.72 465.571 61.17 466.011 60.55C466.471 59.91 466.871 59.21 467.211 58.45L468.201 58.63L467.871 59.89C468.251 60.17 468.781 60.38 469.461 60.52C470.161 60.64 470.921 60.7 471.741 60.7C472.141 60.7 472.441 60.9 472.641 61.3C472.841 61.7 472.941 62.3 472.941 63.1C472.941 63.92 472.821 64.57 472.581 65.05C472.361 65.53 472.081 65.88 471.741 66.1C471.401 66.3 471.061 66.4 470.721 66.4C469.501 66.4 468.571 66.1 467.931 65.5C467.311 64.88 466.921 64.11 466.761 63.19C466.001 64.93 465.081 66.38 464.001 67.54C462.941 68.7 461.651 69.66 460.131 70.42C458.611 71.18 456.801 71.84 454.701 72.4C453.821 72.64 452.931 72.84 452.031 73C451.151 73.18 450.251 73.33 449.331 73.45C448.411 73.57 447.481 73.66 446.541 73.72C445.621 73.78 444.691 73.81 443.751 73.81ZM472.894 45.55C472.414 45.07 472.024 44.7 471.724 44.44C471.424 44.16 471.164 43.92 470.944 43.72C470.704 43.52 470.434 43.32 470.134 43.12V42.82C470.274 42.6 470.474 42.33 470.734 42.01C470.994 41.69 471.284 41.37 471.604 41.05C471.904 40.71 472.184 40.41 472.444 40.15C472.704 39.89 472.894 39.72 473.014 39.64H473.314C473.834 39.96 474.254 40.26 474.574 40.54C474.894 40.8 475.154 41.04 475.354 41.26C475.634 40.92 475.914 40.61 476.194 40.33C476.474 40.03 476.724 39.77 476.944 39.55C477.164 39.33 477.334 39.18 477.454 39.1H477.754C478.574 39.62 479.204 40.09 479.644 40.51C480.104 40.93 480.334 41.38 480.334 41.86C480.334 42.36 480.044 42.89 479.464 43.45C478.904 44.01 478.274 44.53 477.574 45.01H477.334C476.914 44.61 476.564 44.29 476.284 44.05C476.024 43.79 475.774 43.56 475.534 43.36C475.094 44.04 474.294 44.77 473.134 45.55H472.894ZM472.52 67C471.72 67 471.32 66.2 471.32 64.6C471.32 63.66 471.51 62.88 471.89 62.26C472.27 61.62 472.81 61.3 473.51 61.3C474.21 61.3 474.89 61.21 475.55 61.03C476.21 60.85 476.76 60.56 477.2 60.16C477.64 59.76 477.86 59.23 477.86 58.57C477.86 58.39 477.82 58.18 477.74 57.94C477.68 57.68 477.62 57.5 477.56 57.4C477.32 57.54 476.91 57.7 476.33 57.88C475.77 58.06 475.2 58.15 474.62 58.15C474.08 58.15 473.56 58.04 473.06 57.82C472.56 57.58 472.15 57.24 471.83 56.8C471.49 56.36 471.32 55.85 471.32 55.27C471.32 54.81 471.4 54.35 471.56 53.89C471.72 53.41 471.92 52.94 472.16 52.48L473.18 50.53C473.52 49.89 473.9 49.43 474.32 49.15C474.76 48.85 475.23 48.7 475.73 48.7C476.69 48.7 477.48 48.99 478.1 49.57C478.74 50.15 479.21 50.88 479.51 51.76C479.81 52.64 479.96 53.55 479.96 54.49C479.96 55.91 479.78 57.32 479.42 58.72C479.06 60.12 478.53 61.5 477.83 62.86C477.11 64.24 476.31 65.28 475.43 65.98C474.55 66.66 473.58 67 472.52 67ZM485.419 69.97L484.639 69.79C484.719 69.41 484.829 68.69 484.969 67.63C485.109 66.55 485.219 65 485.299 62.98L485.689 54.37C485.749 53.25 485.819 52.28 485.899 51.46C485.999 50.64 486.139 49.87 486.319 49.15C486.499 48.43 486.739 47.69 487.039 46.93C487.359 46.15 487.759 45.26 488.239 44.26L488.989 44.5C488.849 44.96 488.699 45.7 488.539 46.72C488.379 47.72 488.249 49.18 488.149 51.1L487.669 60.01C487.589 61.73 487.349 63.45 486.949 65.17C486.569 66.89 486.059 68.49 485.419 69.97ZM490.648 75.4L490.408 74.65C490.948 74.27 491.608 73.78 492.388 73.18C493.188 72.6 494.028 71.95 494.908 71.23C495.808 70.49 496.678 69.75 497.518 69.01C498.378 68.25 499.138 67.52 499.798 66.82C500.478 66.12 500.988 65.5 501.328 64.96C501.688 64.36 501.998 63.83 502.258 63.37C502.518 62.91 502.748 62.46 502.948 62.02C503.168 61.56 503.388 61.05 503.608 60.49C503.848 59.91 504.118 59.22 504.418 58.42L505.498 58.57C505.258 59.65 504.928 60.86 504.508 62.2C504.108 63.52 503.638 64.83 503.098 66.13C502.578 67.43 502.018 68.62 501.418 69.7C500.818 70.76 500.218 71.58 499.618 72.16C499.458 72.3 499.108 72.49 498.568 72.73C498.028 72.97 497.388 73.22 496.648 73.48C495.928 73.74 495.178 74 494.398 74.26C493.618 74.52 492.888 74.75 492.208 74.95C491.548 75.15 491.028 75.3 490.648 75.4Z" fill="white"/>
<path fill-rule="evenodd" clip-rule="evenodd" d="M578 38.5C586.284 38.5 593 45.2157 593 53.5C593 61.7843 586.284 68.5 578 68.5C569.716 68.5 563 61.7843 563 53.5C563 45.2157 569.716 38.5 578 38.5ZM580.714 56.2319L586.331 53.5L580.714 50.7681V50.7675C580.645 50.7343 580.591 50.6773 580.56 50.607L578 44.7109L575.447 50.5894C575.419 50.6678 575.361 50.7319 575.286 50.7681L569.669 53.5L575.286 56.2319V56.2325C575.355 56.2657 575.409 56.3227 575.44 56.393L578 62.2891L580.553 56.4106C580.581 56.3322 580.639 56.2681 580.714 56.2319Z" fill="#FFEB00"/>
<path d="M647.523 74.62L647.283 73.87C648.743 73.05 650.163 72.18 651.543 71.26C652.923 70.32 654.133 69.35 655.173 68.35C656.233 67.35 656.993 66.34 657.453 65.32C657.773 64.62 658.093 63.69 658.413 62.53C658.753 61.37 659.113 60 659.493 58.42L660.573 58.6C660.453 59.52 660.353 60.24 660.273 60.76C660.213 61.26 660.173 61.63 660.153 61.87C660.133 62.11 660.123 62.3 660.123 62.44C660.123 63.74 660.473 64.69 661.173 65.29C661.873 65.87 662.663 66.16 663.543 66.16C664.023 66.16 664.363 66.42 664.563 66.94C664.763 67.44 664.863 68.15 664.863 69.07C664.863 69.83 664.753 70.51 664.533 71.11C664.333 71.71 664.023 72.18 663.603 72.52C663.203 72.84 662.693 73 662.073 73C661.173 73 660.433 72.76 659.853 72.28C659.293 71.8 658.883 71.17 658.623 70.39C658.363 69.61 658.233 68.78 658.233 67.9H658.113C657.853 68.6 657.563 69.3 657.243 70C656.923 70.68 656.583 71.28 656.223 71.8C655.883 72.3 655.553 72.65 655.233 72.85C654.993 72.99 654.553 73.15 653.913 73.33C653.273 73.51 652.553 73.68 651.753 73.84C650.953 74.02 650.173 74.18 649.413 74.32C648.653 74.46 648.023 74.56 647.523 74.62ZM663.278 73C662.918 73 662.638 72.84 662.438 72.52C662.238 72.2 662.108 71.81 662.048 71.35C661.968 70.87 661.928 70.41 661.928 69.97C661.928 69.11 662.048 68.4 662.288 67.84C662.528 67.28 662.858 66.86 663.278 66.58C663.698 66.3 664.188 66.16 664.748 66.16C666.028 66.16 667.088 65.89 667.928 65.35C668.188 65.17 668.428 64.97 668.648 64.75C668.868 64.51 669.078 64.25 669.278 63.97C669.718 63.31 670.028 62.88 670.208 62.68C670.408 62.46 670.668 62.35 670.988 62.35C671.148 62.35 671.358 62.4 671.618 62.5C671.878 62.58 672.128 62.67 672.368 62.77C672.628 62.87 672.818 62.94 672.938 62.98C673.158 62.58 673.418 62.17 673.718 61.75C674.018 61.33 674.278 60.96 674.498 60.64C675.558 59.06 676.568 57.81 677.528 56.89C678.488 55.95 679.408 55.28 680.288 54.88C681.168 54.46 682.018 54.25 682.838 54.25C683.778 54.25 684.518 54.49 685.058 54.97C685.618 55.43 685.898 56.15 685.898 57.13C685.898 57.89 685.748 58.75 685.448 59.71C685.148 60.67 684.718 61.64 684.158 62.62C683.598 63.6 682.938 64.52 682.178 65.38C681.418 66.22 680.568 66.91 679.628 67.45C678.768 67.95 677.918 68.33 677.078 68.59C676.258 68.85 675.468 68.98 674.708 68.98C673.848 68.98 673.058 68.84 672.338 68.56C671.638 68.28 671.028 67.98 670.508 67.66C670.088 67.38 669.808 67.21 669.668 67.15C669.548 67.07 669.388 67.03 669.188 67.03C669.028 67.03 668.858 67.17 668.678 67.45C668.518 67.73 668.328 68.15 668.108 68.71C667.768 69.61 667.368 70.38 666.908 71.02C666.448 71.66 665.918 72.15 665.318 72.49C664.738 72.83 664.058 73 663.278 73ZM676.418 63.67C677.258 63.67 678.088 63.58 678.908 63.4C679.748 63.2 680.498 62.95 681.158 62.65C681.838 62.33 682.378 61.99 682.778 61.63C683.198 61.27 683.408 60.92 683.408 60.58C683.408 60.06 683.158 59.69 682.658 59.47C682.178 59.23 681.618 59.11 680.978 59.11C679.838 59.11 678.758 59.46 677.738 60.16C676.718 60.86 675.668 61.94 674.588 63.4C674.988 63.5 675.328 63.57 675.608 63.61C675.908 63.65 676.178 63.67 676.418 63.67ZM691.57 69.97L690.79 69.79C690.87 69.41 690.98 68.69 691.12 67.63C691.26 66.55 691.37 65 691.45 62.98L691.84 54.37C691.9 53.25 691.97 52.28 692.05 51.46C692.15 50.64 692.29 49.87 692.47 49.15C692.65 48.43 692.89 47.69 693.19 46.93C693.51 46.15 693.91 45.26 694.39 44.26L695.14 44.5C695 44.96 694.85 45.7 694.69 46.72C694.53 47.72 694.4 49.18 694.3 51.1L693.82 60.01C693.74 61.73 693.5 63.45 693.1 65.17C692.72 66.89 692.21 68.49 691.57 69.97ZM696.799 75.4L696.559 74.65C697.099 74.27 697.759 73.78 698.539 73.18C699.339 72.6 700.179 71.95 701.059 71.23C701.959 70.49 702.829 69.75 703.669 69.01C704.529 68.25 705.289 67.52 705.949 66.82C706.629 66.12 707.139 65.5 707.479 64.96C707.839 64.36 708.149 63.83 708.409 63.37C708.669 62.91 708.899 62.46 709.099 62.02C709.319 61.56 709.539 61.05 709.759 60.49C709.999 59.91 710.269 59.22 710.569 58.42L711.649 58.57C711.409 59.65 711.079 60.86 710.659 62.2C710.259 63.52 709.789 64.83 709.249 66.13C708.729 67.43 708.169 68.62 707.569 69.7C706.969 70.76 706.369 71.58 705.769 72.16C705.609 72.3 705.259 72.49 704.719 72.73C704.179 72.97 703.539 73.22 702.799 73.48C702.079 73.74 701.329 74 700.549 74.26C699.769 74.52 699.039 74.75 698.359 74.95C697.699 75.15 697.179 75.3 696.799 75.4Z" fill="white"/>
<path fill-rule="evenodd" clip-rule="evenodd" d="M784 38.5C792.284 38.5 799 45.2157 799 53.5C799 61.7843 792.284 68.5 784 68.5C775.716 68.5 769 61.7843 769 53.5C769 45.2157 775.716 38.5 784 38.5ZM786.714 56.2319L792.331 53.5L786.714 50.7681V50.7675C786.645 50.7343 786.591 50.6773 786.56 50.607L784 44.7109L781.447 50.5894C781.419 50.6678 781.361 50.7319 781.286 50.7681L775.669 53.5L781.286 56.2319V56.2325C781.355 56.2657 781.409 56.3227 781.44 56.393L784 62.2891L786.553 56.4106C786.581 56.3322 786.639 56.2681 786.714 56.2319Z" fill="#FFEB00"/>
<path d="M856.104 62.55C855.624 62.07 855.234 61.7 854.934 61.44C854.634 61.16 854.374 60.92 854.154 60.72C853.914 60.52 853.644 60.32 853.344 60.12V59.82C853.484 59.6 853.684 59.33 853.944 59.01C854.204 58.69 854.494 58.37 854.814 58.05C855.114 57.71 855.394 57.41 855.654 57.15C855.914 56.89 856.104 56.72 856.224 56.64H856.524C857.044 56.96 857.464 57.26 857.784 57.54C858.104 57.8 858.364 58.04 858.564 58.26C858.844 57.92 859.124 57.61 859.404 57.33C859.684 57.03 859.934 56.77 860.154 56.55C860.374 56.33 860.544 56.18 860.664 56.1H860.964C861.784 56.62 862.414 57.09 862.854 57.51C863.314 57.93 863.544 58.38 863.544 58.86C863.544 59.36 863.254 59.89 862.674 60.45C862.114 61.01 861.484 61.53 860.784 62.01H860.544C860.124 61.61 859.774 61.29 859.494 61.05C859.234 60.79 858.984 60.56 858.744 60.36C858.304 61.04 857.504 61.77 856.344 62.55H856.104ZM856.494 76.42L855.504 76C856.024 74.58 856.594 73.32 857.214 72.22C857.854 71.12 858.524 70.19 859.224 69.43C859.924 68.67 860.714 68.1 861.594 67.72C862.494 67.34 863.484 67.15 864.564 67.15C864.784 67.15 865.084 67.17 865.464 67.21C865.844 67.25 866.224 67.29 866.604 67.33C867.004 67.37 867.294 67.39 867.474 67.39C867.954 67.39 868.274 67.61 868.434 68.05C868.594 68.47 868.674 69.03 868.674 69.73C868.674 70.57 868.444 71.31 867.984 71.95C867.524 72.59 866.954 73.09 866.274 73.45C865.614 73.81 864.944 73.99 864.264 73.99C863.584 73.99 862.924 73.91 862.284 73.75C861.644 73.59 861.084 73.51 860.604 73.51C859.744 73.51 858.994 73.77 858.354 74.29C857.714 74.81 857.094 75.52 856.494 76.42ZM864.871 74C864.551 74 864.271 73.81 864.031 73.43C863.791 73.03 863.671 72.44 863.671 71.66C863.671 70.86 863.891 70.14 864.331 69.5C864.771 68.86 865.331 68.35 866.011 67.97C866.691 67.59 867.381 67.4 868.081 67.4C868.961 67.4 869.711 67.3 870.331 67.1C870.971 66.88 871.501 66.55 871.921 66.11C872.321 65.69 872.741 65.2 873.181 64.64C873.621 64.06 874.071 63.41 874.531 62.69C875.471 61.25 876.591 60.53 877.891 60.53C878.431 60.53 879.031 60.63 879.691 60.83C880.371 61.03 880.961 61.3 881.461 61.64C881.961 61.96 882.211 62.34 882.211 62.78C882.211 63.22 882.111 63.67 881.911 64.13C881.731 64.59 881.451 65.08 881.071 65.6C880.691 66.12 880.301 66.51 879.901 66.77C879.501 67.03 879.101 67.16 878.701 67.16C878.221 67.16 877.601 66.96 876.841 66.56C876.461 66.36 876.121 66.22 875.821 66.14C875.521 66.04 875.261 65.99 875.041 65.99C874.741 65.99 874.411 66.1 874.051 66.32C873.711 66.52 873.351 66.84 872.971 67.28C872.611 67.7 872.221 68.23 871.801 68.87C871.181 69.85 870.581 70.67 870.001 71.33C869.441 71.99 868.911 72.51 868.411 72.89C867.411 73.63 866.231 74 864.871 74ZM880.969 64C879.989 64 879.219 63.8 878.659 63.4C878.099 63 877.819 62.43 877.819 61.69C877.819 60.99 878.209 60.01 878.989 58.75C879.309 58.23 879.559 57.82 879.739 57.52C879.919 57.22 880.069 56.95 880.189 56.71C880.309 56.47 880.419 56.2 880.519 55.9C880.639 55.6 880.789 55.2 880.969 54.7C881.089 54.34 881.189 53.94 881.269 53.5C881.349 53.06 881.419 52.48 881.479 51.76C881.539 51.02 881.599 50.05 881.659 48.85C881.719 47.97 881.769 47.08 881.809 46.18C881.869 45.28 881.929 44.39 881.989 43.51C882.069 42.15 882.149 41 882.229 40.06C882.329 39.12 882.439 38.29 882.559 37.57C882.699 36.85 882.869 36.15 883.069 35.47C883.269 34.79 883.519 34.03 883.819 33.19C884.199 32.17 884.639 31.26 885.139 30.46C885.639 29.64 886.259 28.83 886.999 28.03C887.739 27.23 888.649 26.34 889.729 25.36C890.289 24.84 890.909 24.28 891.589 23.68C892.269 23.08 892.969 22.46 893.689 21.82C894.429 21.16 895.149 20.52 895.849 19.9C896.549 19.28 897.189 18.7 897.769 18.16C898.369 17.62 898.869 17.15 899.269 16.75L900.829 15.19L901.339 15.37C901.239 15.89 901.089 16.48 900.889 17.14C900.689 17.78 900.469 18.42 900.229 19.06C899.989 19.7 899.749 20.27 899.509 20.77C899.269 21.27 899.059 21.63 898.879 21.85C898.219 22.67 897.439 23.5 896.539 24.34C895.639 25.18 894.729 25.98 893.809 26.74C892.529 27.82 891.489 28.7 890.689 29.38C889.889 30.04 889.249 30.59 888.769 31.03C888.309 31.45 887.899 31.83 887.539 32.17C886.619 33.03 885.919 33.75 885.439 34.33C884.959 34.91 884.689 35.34 884.629 35.62C884.529 36.08 884.439 36.59 884.359 37.15C884.279 37.71 884.219 38.33 884.179 39.01C884.099 40.33 884.029 41.44 883.969 42.34C883.909 43.24 883.869 43.99 883.849 44.59C883.829 45.19 883.819 45.73 883.819 46.21C883.819 47.41 883.919 48.48 884.119 49.42C884.339 50.34 884.729 51.06 885.289 51.58C885.869 52.1 886.689 52.36 887.749 52.36C888.269 52.36 888.619 52.58 888.799 53.02C888.979 53.46 889.069 54.11 889.069 54.97C889.069 55.93 888.939 56.73 888.679 57.37C888.419 57.99 888.069 58.45 887.629 58.75C887.209 59.05 886.759 59.2 886.279 59.2C885.479 59.2 884.809 59.06 884.269 58.78C883.729 58.5 883.289 58.13 882.949 57.67C882.609 57.19 882.339 56.66 882.139 56.08C881.999 56.46 881.839 56.83 881.659 57.19C881.479 57.53 881.279 57.87 881.059 58.21C880.859 58.55 880.699 58.87 880.579 59.17C880.479 59.47 880.429 59.73 880.429 59.95C880.429 60.47 880.819 60.99 881.599 61.51C881.999 61.77 882.289 62.04 882.469 62.32C882.669 62.62 882.769 62.93 882.769 63.25C882.769 63.51 882.579 63.7 882.199 63.82C881.839 63.94 881.429 64 880.969 64ZM886.901 59C886.521 59 886.201 58.77 885.941 58.31C885.681 57.83 885.551 57.05 885.551 55.97C885.551 55.29 885.621 54.71 885.761 54.23C885.901 53.75 886.111 53.36 886.391 53.06C886.671 52.76 886.971 52.54 887.291 52.4C887.631 52.24 887.991 52.16 888.371 52.16C890.151 52.16 891.681 52 892.961 51.68C894.241 51.36 895.311 50.96 896.171 50.48C897.031 49.98 897.721 49.47 898.241 48.95C898.101 48.95 897.721 48.95 897.101 48.95C896.481 48.93 895.741 48.91 894.881 48.89C894.041 48.85 893.191 48.8 892.331 48.74C891.491 48.68 890.751 48.61 890.111 48.53C889.471 48.45 889.071 48.35 888.911 48.23L888.731 47.81C889.011 46.81 889.271 46 889.511 45.38C889.771 44.76 890.011 44.28 890.231 43.94C890.451 43.6 890.651 43.37 890.831 43.25C891.011 43.13 891.151 43.07 891.251 43.07C891.371 43.07 891.511 43.11 891.671 43.19C891.831 43.25 891.911 43.36 891.911 43.52V43.64C892.671 43.74 893.511 43.84 894.431 43.94C895.351 44.02 896.211 44.09 897.011 44.15C897.811 44.21 898.401 44.26 898.781 44.3L902.231 44.54L902.261 45.14C901.521 46.4 900.781 47.59 900.041 48.71C899.321 49.81 898.611 50.83 897.911 51.77C896.991 52.99 895.971 54.16 894.851 55.28C893.731 56.38 892.511 57.28 891.191 57.98C889.871 58.66 888.441 59 886.901 59ZM907.273 53.88C906.773 53.38 906.373 52.99 906.073 52.71C905.773 52.45 905.513 52.22 905.293 52.02C905.073 51.84 904.813 51.65 904.513 51.45V51.15C904.653 50.93 904.853 50.66 905.113 50.34C905.373 50.02 905.663 49.69 905.983 49.35C906.283 49.03 906.563 48.74 906.823 48.48C907.083 48.22 907.273 48.05 907.393 47.97H907.693C908.513 48.49 909.143 48.96 909.583 49.38C910.043 49.8 910.273 50.25 910.273 50.73C910.273 51.23 909.983 51.76 909.403 52.32C908.843 52.88 908.213 53.4 907.513 53.88H907.273ZM892.247 45.38C892.167 45.38 892.077 45.35 891.977 45.29C891.857 45.23 891.797 45.13 891.797 44.99C891.797 44.81 891.877 44.56 892.037 44.24C892.177 43.94 892.397 43.57 892.697 43.13C892.997 42.69 893.377 42.19 893.837 41.63C894.557 40.75 895.597 39.79 896.957 38.75C898.337 37.69 900.097 36.65 902.237 35.63C904.377 34.61 906.927 33.73 909.887 32.99L910.037 33.26C910.017 33.36 909.907 33.61 909.707 34.01C909.527 34.41 909.307 34.86 909.047 35.36C908.787 35.84 908.537 36.29 908.297 36.71C908.077 37.11 907.907 37.39 907.787 37.55C907.347 37.63 906.907 37.72 906.467 37.82C906.047 37.92 905.627 38.03 905.207 38.15C903.327 38.63 901.547 39.2 899.867 39.86C898.207 40.52 896.877 41.23 895.877 41.99C895.277 42.43 894.797 42.85 894.437 43.25C894.077 43.65 893.817 44.02 893.657 44.36C893.357 45.04 892.887 45.38 892.247 45.38ZM929.59 51.55C929.11 51.07 928.72 50.7 928.42 50.44C928.12 50.16 927.86 49.92 927.64 49.72C927.4 49.52 927.13 49.32 926.83 49.12V48.82C926.97 48.6 927.17 48.33 927.43 48.01C927.69 47.69 927.98 47.37 928.3 47.05C928.6 46.71 928.88 46.41 929.14 46.15C929.4 45.89 929.59 45.72 929.71 45.64H930.01C930.53 45.96 930.95 46.26 931.27 46.54C931.59 46.8 931.85 47.04 932.05 47.26C932.33 46.92 932.61 46.61 932.89 46.33C933.17 46.03 933.42 45.77 933.64 45.55C933.86 45.33 934.03 45.18 934.15 45.1H934.45C935.27 45.62 935.9 46.09 936.34 46.51C936.8 46.93 937.03 47.38 937.03 47.86C937.03 48.36 936.74 48.89 936.16 49.45C935.6 50.01 934.97 50.53 934.27 51.01H934.03C933.61 50.61 933.26 50.29 932.98 50.05C932.72 49.79 932.47 49.56 932.23 49.36C931.79 50.04 930.99 50.77 929.83 51.55H929.59ZM927.093 84.13C925.553 84.13 924.153 83.79 922.893 83.11C921.653 82.43 920.673 81.43 919.953 80.11C919.233 78.81 918.873 77.23 918.873 75.37C918.873 73.27 919.153 71.23 919.713 69.25C920.273 67.27 921.043 65.34 922.023 63.46L923.013 63.79C922.453 65.13 922.063 66.34 921.843 67.42C921.623 68.5 921.513 69.52 921.513 70.48C921.513 71.44 921.673 72.32 921.993 73.12C922.333 73.94 922.813 74.64 923.433 75.22C924.053 75.82 924.803 76.28 925.683 76.6C926.583 76.94 927.583 77.11 928.683 77.11C929.863 77.11 930.963 76.98 931.983 76.72C933.023 76.48 933.973 76.11 934.833 75.61C935.713 75.11 936.513 74.48 937.233 73.72C939.373 71.46 940.443 69.07 940.443 66.55C940.443 66.35 940.423 66.08 940.383 65.74C940.363 65.4 940.303 65.11 940.203 64.87C939.723 65.13 939.213 65.34 938.673 65.5C938.153 65.64 937.583 65.71 936.963 65.71C936.523 65.71 936.043 65.6 935.523 65.38C935.023 65.16 934.593 64.83 934.233 64.39C933.873 63.95 933.693 63.41 933.693 62.77C933.693 62.43 933.733 62.04 933.813 61.6C933.913 61.14 934.113 60.61 934.413 60.01L935.673 57.49C936.013 56.83 936.393 56.36 936.813 56.08C937.233 55.8 937.713 55.66 938.253 55.66C938.973 55.66 939.593 55.89 940.113 56.35C940.633 56.79 941.053 57.36 941.373 58.06C941.713 58.76 941.953 59.51 942.093 60.31C942.253 61.09 942.333 61.82 942.333 62.5C942.333 64.54 942.163 66.47 941.823 68.29C941.503 70.09 941.023 71.79 940.383 73.39C939.743 74.99 938.933 76.49 937.953 77.89C935.053 82.05 931.433 84.13 927.093 84.13ZM948.988 44.31C948.448 43.79 948.038 43.4 947.758 43.14C947.458 42.86 947.208 42.63 947.008 42.45C946.788 42.27 946.528 42.08 946.228 41.88V41.58C946.368 41.36 946.568 41.09 946.828 40.77C947.088 40.45 947.378 40.13 947.698 39.81C947.998 39.47 948.278 39.17 948.538 38.91C948.798 38.65 948.988 38.48 949.108 38.4H949.408C950.228 38.92 950.858 39.39 951.298 39.81C951.758 40.23 951.988 40.68 951.988 41.16C951.988 41.66 951.698 42.19 951.118 42.75C950.558 43.31 949.928 43.83 949.228 44.31H948.988ZM940.07 66C939.71 66 939.42 65.85 939.2 65.55C938.98 65.23 938.87 64.68 938.87 63.9C938.87 62.96 939.08 62.25 939.5 61.77C939.92 61.27 940.41 61.02 940.97 61.02C941.73 61.02 942.55 60.92 943.43 60.72C944.31 60.5 945.15 60.2 945.95 59.82C945.55 59.48 945.22 59.05 944.96 58.53C944.72 57.99 944.6 57.33 944.6 56.55C944.6 55.63 944.75 54.71 945.05 53.79C945.35 52.87 945.79 51.95 946.37 51.03C946.95 50.11 947.6 49.43 948.32 48.99C949.04 48.53 949.83 48.3 950.69 48.3C951.59 48.3 952.33 48.53 952.91 48.99C953.51 49.45 953.95 50.03 954.23 50.73C954.51 51.41 954.65 52.11 954.65 52.83C954.65 53.71 954.52 54.65 954.26 55.65C954.02 56.65 953.61 57.59 953.03 58.47C953.19 58.49 953.34 58.51 953.48 58.53C953.62 58.53 953.79 58.53 953.99 58.53C954.39 58.53 954.69 58.65 954.89 58.89C955.09 59.13 955.19 59.49 955.19 59.97C955.19 60.63 955.02 61.24 954.68 61.8C954.36 62.34 953.83 62.61 953.09 62.61C952.65 62.61 952.14 62.58 951.56 62.52C950.98 62.46 950.44 62.36 949.94 62.22C949.8 62.18 949.66 62.14 949.52 62.1C949.4 62.06 949.29 62.02 949.19 61.98C947.63 63.34 946.08 64.35 944.54 65.01C943 65.67 941.51 66 940.07 66ZM950.12 58.14C950.7 57.8 951.24 57.37 951.74 56.85C952.24 56.31 952.49 55.73 952.49 55.11C952.49 54.31 952.22 53.66 951.68 53.16C951.14 52.64 950.51 52.38 949.79 52.38C949.27 52.38 948.76 52.51 948.26 52.77C947.76 53.01 947.35 53.34 947.03 53.76C946.71 54.18 946.55 54.65 946.55 55.17C946.55 56.03 946.87 56.7 947.51 57.18C948.15 57.66 949.02 57.98 950.12 58.14ZM960.911 41.31C960.371 40.79 959.961 40.4 959.681 40.14C959.381 39.86 959.131 39.63 958.931 39.45C958.711 39.27 958.451 39.08 958.151 38.88V38.58C958.291 38.36 958.491 38.09 958.751 37.77C959.011 37.45 959.301 37.13 959.621 36.81C959.921 36.47 960.201 36.17 960.461 35.91C960.721 35.65 960.911 35.48 961.031 35.4H961.331C962.151 35.92 962.781 36.39 963.221 36.81C963.681 37.23 963.911 37.68 963.911 38.16C963.911 38.66 963.621 39.19 963.041 39.75C962.481 40.31 961.851 40.83 961.151 41.31H960.911ZM954.907 62C954.587 62 954.307 61.86 954.067 61.58C953.827 61.3 953.707 60.84 953.707 60.2C953.707 59.4 953.927 58.82 954.367 58.46C954.807 58.1 955.287 57.92 955.807 57.92C956.307 57.92 956.887 57.84 957.547 57.68C958.227 57.52 958.837 57.25 959.377 56.87C959.937 56.49 960.277 55.98 960.397 55.34C960.537 54.64 960.617 54.05 960.637 53.57C960.677 53.07 960.697 52.58 960.697 52.1C960.697 51.4 960.727 50.83 960.787 50.39C960.867 49.93 961.027 49.45 961.267 48.95C961.507 48.45 961.867 47.8 962.347 47L963.097 47.24C963.057 47.42 963.027 47.59 963.007 47.75C962.987 47.91 962.967 48.06 962.947 48.2C962.867 49 962.787 49.8 962.707 50.6C962.627 51.38 962.547 52.17 962.467 52.97C962.327 54.23 961.987 55.52 961.447 56.84C960.907 58.14 960.177 59.24 959.257 60.14C958.677 60.7 958.017 61.15 957.277 61.49C956.557 61.83 955.767 62 954.907 62ZM968.739 42.89C968.399 42.89 968.119 42.78 967.899 42.56C967.679 42.32 967.569 41.98 967.569 41.54C967.569 40.98 967.699 40.44 967.959 39.92C968.199 39.4 968.429 39.01 968.649 38.75L969.219 38.9C969.139 39.22 969.159 39.48 969.279 39.68C969.379 39.86 969.589 39.95 969.909 39.95C970.129 39.95 970.359 39.88 970.599 39.74C970.819 39.58 971.059 39.3 971.319 38.9L972.189 37.55C972.569 36.97 972.929 36.53 973.269 36.23C973.609 35.91 973.999 35.75 974.439 35.75C974.739 35.75 975.019 35.85 975.279 36.05C975.559 36.23 975.699 36.59 975.699 37.13C975.699 37.53 975.589 38.02 975.369 38.6C975.169 39.16 974.939 39.59 974.679 39.89L974.139 39.74C974.219 39.4 974.189 39.14 974.049 38.96C973.929 38.78 973.699 38.69 973.359 38.69C973.199 38.69 973.029 38.75 972.849 38.87C972.669 38.99 972.469 39.16 972.249 39.38C972.109 39.54 971.959 39.74 971.799 39.98C971.639 40.22 971.469 40.49 971.289 40.79C970.489 42.19 969.639 42.89 968.739 42.89ZM969.578 69.97L968.798 69.79C968.878 69.41 968.988 68.69 969.128 67.63C969.268 66.55 969.378 65 969.458 62.98L969.848 54.37C969.908 53.25 969.978 52.28 970.058 51.46C970.158 50.64 970.298 49.87 970.478 49.15C970.658 48.43 970.898 47.69 971.198 46.93C971.518 46.15 971.918 45.26 972.398 44.26L973.148 44.5C973.008 44.96 972.858 45.7 972.698 46.72C972.538 47.72 972.408 49.18 972.308 51.1L971.828 60.01C971.748 61.73 971.508 63.45 971.108 65.17C970.728 66.89 970.218 68.49 969.578 69.97ZM986.069 78.34L985.289 77.83C985.889 76.93 986.329 76.21 986.609 75.67C986.889 75.13 987.029 74.63 987.029 74.17C987.029 73.83 986.949 73.53 986.789 73.27C986.709 73.17 986.619 73.07 986.519 72.97C986.439 72.85 986.319 72.73 986.159 72.61C985.659 72.17 985.309 71.87 985.109 71.71C984.909 71.53 984.749 71.37 984.629 71.23C984.489 71.07 984.379 70.91 984.299 70.75C984.219 70.57 984.179 70.37 984.179 70.15C984.179 69.75 984.459 69.23 985.019 68.59C985.299 68.25 985.609 67.93 985.949 67.63C986.289 67.33 986.659 67.04 987.059 66.76H987.389C988.049 67.12 988.579 67.53 988.979 67.99C989.639 68.71 989.969 69.61 989.969 70.69C989.969 71.37 989.799 72.15 989.459 73.03C989.139 73.91 988.689 74.8 988.109 75.7C987.529 76.62 986.849 77.5 986.069 78.34ZM995.135 72.64L994.655 72.34C994.795 71.94 994.965 71.53 995.165 71.11C995.365 70.69 995.585 70.26 995.825 69.82C996.325 68.92 997.065 68.07 998.045 67.27C997.285 67.07 996.685 66.77 996.245 66.37C995.805 65.97 995.495 65.53 995.315 65.05C995.155 64.55 995.075 64.07 995.075 63.61C995.075 61.83 996.085 60.02 998.105 58.18C1000.11 56.36 1001.96 55.45 1003.66 55.45C1004.08 55.45 1004.48 55.52 1004.86 55.66C1005.24 55.8 1005.55 56.01 1005.79 56.29C1006.03 56.55 1006.15 56.89 1006.15 57.31C1006.15 57.79 1006.03 58.22 1005.79 58.6C1005.57 58.98 1005.22 59.26 1004.74 59.44H1004.53C1004.33 59.18 1004 58.9 1003.54 58.6C1003.08 58.3 1002.55 58.15 1001.95 58.15C1001.15 58.15 1000.47 58.36 999.905 58.78C999.365 59.18 999.095 59.73 999.095 60.43C999.095 61.07 999.295 61.6 999.695 62.02C1000.1 62.44 1000.59 62.75 1001.17 62.95C1001.77 63.15 1002.34 63.25 1002.88 63.25C1003.28 63.25 1003.63 63.23 1003.93 63.19C1004.23 63.13 1004.6 62.94 1005.04 62.62C1005.74 62.14 1006.22 61.81 1006.48 61.63C1006.74 61.45 1006.92 61.32 1007.02 61.24C1007.14 61.16 1007.29 61.05 1007.47 60.91L1008.82 59.89L1009.27 60.22C1009.19 60.44 1009.09 60.7 1008.97 61C1008.85 61.3 1008.68 61.64 1008.46 62.02C1008.26 62.4 1007.99 62.76 1007.65 63.1C1007.31 63.44 1006.91 63.78 1006.45 64.12L1000.33 68.32C999.385 68.96 998.475 69.63 997.595 70.33C996.735 71.03 995.915 71.8 995.135 72.64ZM1019.08 73C1017.44 73 1016.25 72.45 1015.51 71.35C1014.77 70.23 1014.4 68.4 1014.4 65.86C1014.4 65.38 1014.4 64.9 1014.4 64.42C1014.42 63.94 1014.44 63.4 1014.46 62.8C1014.5 62.18 1014.54 61.45 1014.58 60.61C1014.62 59.75 1014.67 58.71 1014.73 57.49C1014.81 55.83 1014.92 54.33 1015.06 52.99C1015.2 51.63 1015.41 50.35 1015.69 49.15C1015.99 47.95 1016.41 46.75 1016.95 45.55L1017.73 45.76C1017.63 46.22 1017.51 46.94 1017.37 47.92C1017.25 48.9 1017.13 50.04 1017.01 51.34C1016.89 52.62 1016.79 53.99 1016.71 55.45C1016.63 56.91 1016.59 58.35 1016.59 59.77C1016.59 60.89 1016.67 61.86 1016.83 62.68C1016.99 63.48 1017.23 64.14 1017.55 64.66C1017.87 65.16 1018.28 65.54 1018.78 65.8C1019.28 66.04 1019.87 66.16 1020.55 66.16C1021.03 66.16 1021.37 66.42 1021.57 66.94C1021.77 67.44 1021.87 68.15 1021.87 69.07C1021.87 69.85 1021.76 70.54 1021.54 71.14C1021.34 71.72 1021.03 72.18 1020.61 72.52C1020.21 72.84 1019.7 73 1019.08 73ZM1020.26 73C1019.88 73 1019.56 72.77 1019.3 72.31C1019.04 71.85 1018.91 71.07 1018.91 69.97C1018.91 69.11 1019.03 68.4 1019.27 67.84C1019.51 67.28 1019.84 66.86 1020.26 66.58C1020.68 66.3 1021.17 66.16 1021.73 66.16C1022.77 66.16 1023.58 66.05 1024.16 65.83C1024.74 65.61 1025.15 65.34 1025.39 65.02C1025.65 64.68 1025.78 64.37 1025.78 64.09C1025.78 63.69 1025.59 63.3 1025.21 62.92C1024.83 62.52 1024.33 62.2 1023.71 61.96C1023.11 61.7 1022.47 61.57 1021.79 61.57C1020.75 61.57 1019.88 61.77 1019.18 62.17C1018.48 62.57 1018.04 63.15 1017.86 63.91C1017.78 64.25 1017.68 64.51 1017.56 64.69C1017.44 64.87 1017.3 64.96 1017.14 64.96C1016.62 64.96 1016.36 64.68 1016.36 64.12C1016.36 63.48 1016.48 62.77 1016.72 61.99C1016.96 61.19 1017.26 60.4 1017.62 59.62C1017.98 58.82 1018.35 58.09 1018.73 57.43C1019.09 56.75 1019.39 56.22 1019.63 55.84C1019.89 55.44 1020.28 54.92 1020.8 54.28C1021.32 53.62 1021.9 52.92 1022.54 52.18C1023.2 51.42 1023.85 50.68 1024.49 49.96C1025.15 49.22 1025.75 48.55 1026.29 47.95C1026.83 47.35 1027.24 46.88 1027.52 46.54C1028.22 45.72 1028.93 44.9 1029.65 44.08C1030.37 43.26 1031.07 42.43 1031.75 41.59C1031.95 41.33 1032.14 41.06 1032.32 40.78C1032.5 40.48 1032.69 40.2 1032.89 39.94L1033.19 40.06C1033.21 40.14 1033.22 40.21 1033.22 40.27C1033.22 40.31 1033.22 40.37 1033.22 40.45C1033.22 41.09 1033.11 41.71 1032.89 42.31C1032.69 42.91 1032.38 43.49 1031.96 44.05C1031.6 44.53 1031.12 45.13 1030.52 45.85C1029.94 46.55 1029.31 47.29 1028.63 48.07C1027.97 48.85 1027.32 49.6 1026.68 50.32C1026.06 51.04 1025.52 51.65 1025.06 52.15L1021.58 55.96L1021.67 56.08C1021.87 55.96 1022.11 55.87 1022.39 55.81C1022.69 55.75 1023.04 55.72 1023.44 55.72C1024.48 55.72 1025.33 55.99 1025.99 56.53C1026.67 57.05 1027.17 57.78 1027.49 58.72C1027.83 59.66 1028 60.76 1028 62.02C1028 62.58 1027.93 63.26 1027.79 64.06C1027.65 64.86 1027.43 65.7 1027.13 66.58C1026.85 67.46 1026.47 68.32 1025.99 69.16C1025.53 69.98 1024.97 70.7 1024.31 71.32C1023.71 71.88 1023.07 72.3 1022.39 72.58C1021.73 72.86 1021.02 73 1020.26 73ZM1039.02 52.31C1038.48 51.79 1038.07 51.4 1037.79 51.14C1037.49 50.86 1037.24 50.63 1037.04 50.45C1036.82 50.27 1036.56 50.08 1036.26 49.88V49.58C1036.4 49.36 1036.6 49.09 1036.86 48.77C1037.12 48.45 1037.41 48.13 1037.73 47.81C1038.03 47.47 1038.31 47.17 1038.57 46.91C1038.83 46.65 1039.02 46.48 1039.14 46.4H1039.44C1040.26 46.92 1040.89 47.39 1041.33 47.81C1041.79 48.23 1042.02 48.68 1042.02 49.16C1042.02 49.66 1041.73 50.19 1041.15 50.75C1040.59 51.31 1039.96 51.83 1039.26 52.31H1039.02ZM1028.81 74.62L1028.57 73.87C1030.03 73.05 1031.45 72.18 1032.83 71.26C1034.21 70.32 1035.42 69.35 1036.46 68.35C1037.52 67.35 1038.28 66.34 1038.74 65.32C1039.06 64.62 1039.38 63.69 1039.7 62.53C1040.04 61.37 1040.4 60 1040.78 58.42L1041.86 58.6C1041.74 59.52 1041.64 60.24 1041.56 60.76C1041.5 61.26 1041.46 61.63 1041.44 61.87C1041.42 62.11 1041.41 62.3 1041.41 62.44C1041.41 63.74 1041.76 64.69 1042.46 65.29C1043.16 65.87 1043.95 66.16 1044.83 66.16C1045.31 66.16 1045.65 66.42 1045.85 66.94C1046.05 67.44 1046.15 68.15 1046.15 69.07C1046.15 69.83 1046.04 70.51 1045.82 71.11C1045.62 71.71 1045.31 72.18 1044.89 72.52C1044.49 72.84 1043.98 73 1043.36 73C1042.46 73 1041.72 72.76 1041.14 72.28C1040.58 71.8 1040.17 71.17 1039.91 70.39C1039.65 69.61 1039.52 68.78 1039.52 67.9H1039.4C1039.14 68.6 1038.85 69.3 1038.53 70C1038.21 70.68 1037.87 71.28 1037.51 71.8C1037.17 72.3 1036.84 72.65 1036.52 72.85C1036.28 72.99 1035.84 73.15 1035.2 73.33C1034.56 73.51 1033.84 73.68 1033.04 73.84C1032.24 74.02 1031.46 74.18 1030.7 74.32C1029.94 74.46 1029.31 74.56 1028.81 74.62ZM1045.44 83.88C1044.94 83.38 1044.54 82.99 1044.24 82.71C1043.94 82.45 1043.68 82.22 1043.46 82.02C1043.24 81.84 1042.98 81.65 1042.68 81.45V81.15C1042.82 80.93 1043.02 80.66 1043.28 80.34C1043.54 80.02 1043.83 79.69 1044.15 79.35C1044.45 79.03 1044.73 78.74 1044.99 78.48C1045.25 78.22 1045.44 78.05 1045.56 77.97H1045.86C1046.68 78.49 1047.31 78.96 1047.75 79.38C1048.21 79.8 1048.44 80.25 1048.44 80.73C1048.44 81.23 1048.15 81.76 1047.57 82.32C1047.01 82.88 1046.38 83.4 1045.68 83.88H1045.44ZM1045.18 73C1044.8 73 1044.48 72.77 1044.22 72.31C1043.96 71.85 1043.83 71.07 1043.83 69.97C1043.83 69.21 1043.94 68.55 1044.16 67.99C1044.36 67.41 1044.67 66.96 1045.09 66.64C1045.51 66.32 1046.03 66.16 1046.65 66.16C1047.47 66.16 1048.21 65.94 1048.87 65.5C1049.53 65.04 1050.05 64.35 1050.43 63.43L1051.27 63.61C1051.11 64.85 1050.85 66.03 1050.49 67.15C1050.15 68.27 1049.72 69.27 1049.2 70.15C1048.7 71.03 1048.11 71.73 1047.43 72.25C1046.75 72.75 1046 73 1045.18 73ZM1076.81 83.88C1076.31 83.38 1075.91 82.99 1075.61 82.71C1075.31 82.45 1075.05 82.22 1074.83 82.02C1074.61 81.84 1074.35 81.65 1074.05 81.45V81.15C1074.19 80.93 1074.39 80.66 1074.65 80.34C1074.91 80.02 1075.2 79.69 1075.52 79.35C1075.82 79.03 1076.1 78.74 1076.36 78.48C1076.62 78.22 1076.81 78.05 1076.93 77.97H1077.23C1078.05 78.49 1078.68 78.96 1079.12 79.38C1079.58 79.8 1079.81 80.25 1079.81 80.73C1079.81 81.23 1079.52 81.76 1078.94 82.32C1078.38 82.88 1077.75 83.4 1077.05 83.88H1076.81ZM1070.75 73.81C1069.33 73.81 1067.99 73.7 1066.73 73.48C1065.47 73.28 1064.36 72.92 1063.4 72.4C1062.46 71.88 1061.72 71.18 1061.18 70.3C1060.64 69.4 1060.37 68.27 1060.37 66.91C1060.37 65.25 1060.69 63.4 1061.33 61.36L1062.38 61.51C1062.36 61.69 1062.33 61.88 1062.29 62.08C1062.27 62.26 1062.26 62.55 1062.26 62.95C1062.3 64.67 1063.13 65.8 1064.75 66.34C1065.57 66.6 1066.57 66.8 1067.75 66.94C1068.95 67.08 1070.32 67.15 1071.86 67.15C1073.56 67.15 1075.27 67.05 1076.99 66.85C1078.73 66.65 1080.4 66.38 1082 66.04C1083.6 65.68 1085.06 65.28 1086.38 64.84C1087.72 64.38 1088.84 63.91 1089.74 63.43C1090.38 63.09 1090.97 62.68 1091.51 62.2C1092.07 61.72 1092.57 61.17 1093.01 60.55C1093.47 59.91 1093.87 59.21 1094.21 58.45L1095.2 58.63L1094.87 59.89C1095.25 60.17 1095.78 60.38 1096.46 60.52C1097.16 60.64 1097.92 60.7 1098.74 60.7C1099.14 60.7 1099.44 60.9 1099.64 61.3C1099.84 61.7 1099.94 62.3 1099.94 63.1C1099.94 63.92 1099.82 64.57 1099.58 65.05C1099.36 65.53 1099.08 65.88 1098.74 66.1C1098.4 66.3 1098.06 66.4 1097.72 66.4C1096.5 66.4 1095.57 66.1 1094.93 65.5C1094.31 64.88 1093.92 64.11 1093.76 63.19C1093 64.93 1092.08 66.38 1091 67.54C1089.94 68.7 1088.65 69.66 1087.13 70.42C1085.61 71.18 1083.8 71.84 1081.7 72.4C1080.82 72.64 1079.93 72.84 1079.03 73C1078.15 73.18 1077.25 73.33 1076.33 73.45C1075.41 73.57 1074.48 73.66 1073.54 73.72C1072.62 73.78 1071.69 73.81 1070.75 73.81ZM1099.89 45.55C1099.41 45.07 1099.02 44.7 1098.72 44.44C1098.42 44.16 1098.16 43.92 1097.94 43.72C1097.7 43.52 1097.43 43.32 1097.13 43.12V42.82C1097.27 42.6 1097.47 42.33 1097.73 42.01C1097.99 41.69 1098.28 41.37 1098.6 41.05C1098.9 40.71 1099.18 40.41 1099.44 40.15C1099.7 39.89 1099.89 39.72 1100.01 39.64H1100.31C1100.83 39.96 1101.25 40.26 1101.57 40.54C1101.89 40.8 1102.15 41.04 1102.35 41.26C1102.63 40.92 1102.91 40.61 1103.19 40.33C1103.47 40.03 1103.72 39.77 1103.94 39.55C1104.16 39.33 1104.33 39.18 1104.45 39.1H1104.75C1105.57 39.62 1106.2 40.09 1106.64 40.51C1107.1 40.93 1107.33 41.38 1107.33 41.86C1107.33 42.36 1107.04 42.89 1106.46 43.45C1105.9 44.01 1105.27 44.53 1104.57 45.01H1104.33C1103.91 44.61 1103.56 44.29 1103.28 44.05C1103.02 43.79 1102.77 43.56 1102.53 43.36C1102.09 44.04 1101.29 44.77 1100.13 45.55H1099.89ZM1099.52 67C1098.72 67 1098.32 66.2 1098.32 64.6C1098.32 63.66 1098.51 62.88 1098.89 62.26C1099.27 61.62 1099.81 61.3 1100.51 61.3C1101.21 61.3 1101.89 61.21 1102.55 61.03C1103.21 60.85 1103.76 60.56 1104.2 60.16C1104.64 59.76 1104.86 59.23 1104.86 58.57C1104.86 58.39 1104.82 58.18 1104.74 57.94C1104.68 57.68 1104.62 57.5 1104.56 57.4C1104.32 57.54 1103.91 57.7 1103.33 57.88C1102.77 58.06 1102.2 58.15 1101.62 58.15C1101.08 58.15 1100.56 58.04 1100.06 57.82C1099.56 57.58 1099.15 57.24 1098.83 56.8C1098.49 56.36 1098.32 55.85 1098.32 55.27C1098.32 54.81 1098.4 54.35 1098.56 53.89C1098.72 53.41 1098.92 52.94 1099.16 52.48L1100.18 50.53C1100.52 49.89 1100.9 49.43 1101.32 49.15C1101.76 48.85 1102.23 48.7 1102.73 48.7C1103.69 48.7 1104.48 48.99 1105.1 49.57C1105.74 50.15 1106.21 50.88 1106.51 51.76C1106.81 52.64 1106.96 53.55 1106.96 54.49C1106.96 55.91 1106.78 57.32 1106.42 58.72C1106.06 60.12 1105.53 61.5 1104.83 62.86C1104.11 64.24 1103.31 65.28 1102.43 65.98C1101.55 66.66 1100.58 67 1099.52 67ZM1112.42 69.97L1111.64 69.79C1111.72 69.41 1111.83 68.69 1111.97 67.63C1112.11 66.55 1112.22 65 1112.3 62.98L1112.69 54.37C1112.75 53.25 1112.82 52.28 1112.9 51.46C1113 50.64 1113.14 49.87 1113.32 49.15C1113.5 48.43 1113.74 47.69 1114.04 46.93C1114.36 46.15 1114.76 45.26 1115.24 44.26L1115.99 44.5C1115.85 44.96 1115.7 45.7 1115.54 46.72C1115.38 47.72 1115.25 49.18 1115.15 51.1L1114.67 60.01C1114.59 61.73 1114.35 63.45 1113.95 65.17C1113.57 66.89 1113.06 68.49 1112.42 69.97ZM1117.65 75.4L1117.41 74.65C1117.95 74.27 1118.61 73.78 1119.39 73.18C1120.19 72.6 1121.03 71.95 1121.91 71.23C1122.81 70.49 1123.68 69.75 1124.52 69.01C1125.38 68.25 1126.14 67.52 1126.8 66.82C1127.48 66.12 1127.99 65.5 1128.33 64.96C1128.69 64.36 1129 63.83 1129.26 63.37C1129.52 62.91 1129.75 62.46 1129.95 62.02C1130.17 61.56 1130.39 61.05 1130.61 60.49C1130.85 59.91 1131.12 59.22 1131.42 58.42L1132.5 58.57C1132.26 59.65 1131.93 60.86 1131.51 62.2C1131.11 63.52 1130.64 64.83 1130.1 66.13C1129.58 67.43 1129.02 68.62 1128.42 69.7C1127.82 70.76 1127.22 71.58 1126.62 72.16C1126.46 72.3 1126.11 72.49 1125.57 72.73C1125.03 72.97 1124.39 73.22 1123.65 73.48C1122.93 73.74 1122.18 74 1121.4 74.26C1120.62 74.52 1119.89 74.75 1119.21 74.95C1118.55 75.15 1118.03 75.3 1117.65 75.4Z" fill="white"/>
<g clip-path="url(#clip1_689_906)">
<path fill-rule="evenodd" clip-rule="evenodd" d="M1205 38.5C1213.28 38.5 1220 45.2157 1220 53.5C1220 61.7843 1213.28 68.5 1205 68.5C1196.72 68.5 1190 61.7843 1190 53.5C1190 45.2157 1196.72 38.5 1205 38.5ZM1207.71 56.2319L1213.33 53.5L1207.71 50.7681V50.7675C1207.65 50.7343 1207.59 50.6773 1207.56 50.607L1205 44.7109L1202.45 50.5894C1202.42 50.6678 1202.36 50.7319 1202.29 50.7681L1196.67 53.5L1202.29 56.2319V56.2325C1202.35 56.2657 1202.41 56.3227 1202.44 56.393L1205 62.2891L1207.55 56.4106C1207.58 56.3322 1207.64 56.2681 1207.71 56.2319Z" fill="#FFEB00"/>
</g>
<defs>
<clipPath id="clip0_689_906">
<rect width="30" height="30" fill="white" transform="translate(142 38.5)"/>
</clipPath>
<clipPath id="clip1_689_906">
<rect width="30" height="30" fill="white" transform="translate(1190 38.5)"/>
</clipPath>
</defs>
</svg>
