<svg width="229" height="221" viewBox="0 0 229 221" fill="none" xmlns="http://www.w3.org/2000/svg">
<path d="M13.7822 125.582L66.1508 155.872L66.339 155.753L67.803 154.917L69.1973 154.108C76.1686 150.072 81.0973 147.095 80.7209 144.822C80.442 143.101 77.3258 142.125 74.7534 141.818C73.3609 141.706 72.0061 141.31 70.7728 140.654C70.3091 140.443 69.9119 140.109 69.6243 139.689C69.3368 139.269 69.1698 138.778 69.1415 138.269C69.1415 137.21 69.9223 136.094 71.4351 135.216C74.2236 133.613 78.4064 133.438 80.8463 134.84C81.7675 135.342 82.4811 136.155 82.8611 137.133C83.3979 138.625 85.0919 140.424 88.0756 140.577C92.1957 140.8 96.8107 138.137 104.416 133.731L106.222 132.685L53.937 102.423L13.7822 125.582ZM153.369 159.915C151.724 160.85 150.134 161.735 148.573 162.599C142.299 166.085 137.781 168.581 138.116 170.637C138.229 171.149 138.527 171.6 138.952 171.906C140.11 172.847 142.229 173.419 144.083 173.635C145.475 173.747 146.829 174.14 148.064 174.792C148.528 175.007 148.925 175.344 149.213 175.766C149.501 176.188 149.67 176.68 149.702 177.19C149.677 177.776 149.464 178.338 149.096 178.794C148.626 179.38 148.046 179.868 147.388 180.23C144.599 181.84 140.416 182 137.983 180.613C137.066 180.108 136.355 179.296 135.976 178.32C135.432 176.828 133.745 175.029 130.754 174.869C127.268 174.674 123.678 176.849 118.206 180.16C116.749 181.045 115.096 182.042 113.326 183.109L116.038 184.664L178.975 220.97C195.106 217.403 210.762 211.951 225.62 204.727C226.605 204.262 227.581 203.767 228.548 203.242L153.369 159.915Z" fill="#79D7BE"/>
<path opacity="0.2" d="M13.7822 125.582L66.1508 155.872L66.339 155.753L67.803 154.917L69.1973 154.108C76.1686 150.072 81.0973 147.095 80.7209 144.822C80.442 143.101 77.3258 142.125 74.7534 141.818C73.3609 141.706 72.0061 141.31 70.7728 140.654C70.3091 140.443 69.9119 140.109 69.6243 139.689C69.3368 139.269 69.1698 138.778 69.1415 138.269C69.1415 137.21 69.9223 136.094 71.4351 135.216C74.2236 133.613 78.4064 133.438 80.8463 134.84C81.7675 135.342 82.4811 136.155 82.8611 137.133C83.3979 138.625 85.0919 140.424 88.0756 140.577C92.1957 140.8 96.8107 138.137 104.416 133.731L106.222 132.685L53.937 102.423L13.7822 125.582ZM153.369 159.915C151.724 160.85 150.134 161.735 148.573 162.599C142.299 166.085 137.781 168.581 138.116 170.637C138.229 171.149 138.527 171.6 138.952 171.906C140.11 172.847 142.229 173.419 144.083 173.635C145.475 173.747 146.829 174.14 148.064 174.792C148.528 175.007 148.925 175.344 149.213 175.766C149.501 176.188 149.67 176.68 149.702 177.19C149.677 177.776 149.464 178.338 149.096 178.794C148.626 179.38 148.046 179.868 147.388 180.23C144.599 181.84 140.416 182 137.983 180.613C137.066 180.108 136.355 179.296 135.976 178.32C135.432 176.828 133.745 175.029 130.754 174.869C127.268 174.674 123.678 176.849 118.206 180.16C116.749 181.045 115.096 182.042 113.326 183.109L116.038 184.664L178.975 220.97C195.106 217.403 210.762 211.951 225.62 204.727C226.605 204.262 227.581 203.767 228.548 203.242L153.369 159.915Z" fill="white"/>
<path d="M67.6776 34.5359L33.8388 0L0 73.6102L13.7823 65.6559V125.588L53.8953 102.423V42.4902L67.6776 34.5359Z" fill="#79D7BE"/>
</svg>
