<svg width="454" height="437" viewBox="0 0 454 437" fill="none" xmlns="http://www.w3.org/2000/svg">
<g filter="url(#filter0_d_403_5852)">
<path d="M421.425 340.025L296.592 404.987L296.66 401.979L421.48 337.017L421.425 340.025Z" fill="#37474F"/>
<path d="M184.619 149.413L157.114 163.777L140.212 172.561C139.669 172.811 139.138 173.098 138.62 173.399C135.319 175.222 132.571 177.827 130.642 180.962C128.712 184.098 127.668 187.656 127.609 191.293L125.935 265.608C125.871 268.919 124.988 272.166 123.357 275.086C121.726 278.007 119.393 280.518 116.549 282.415C112.602 285.117 107.844 286.534 102.979 286.455C99.0553 286.358 95.226 285.277 91.878 283.32C81.7846 277.467 73.4804 269.191 67.7993 259.323C62.1182 249.456 59.2603 238.344 59.5124 227.104L61.2494 149.993C61.505 138.748 58.6473 127.63 52.9637 117.758C47.2802 107.885 38.9709 99.6055 28.8713 93.7514L153.73 28.7781C163.828 34.6354 172.136 42.9153 177.821 52.7868C183.507 62.6584 186.369 73.7746 186.121 85.02L185.365 118.59C185.109 128.198 184.619 149.413 184.619 149.413Z" fill="#F5F5F5"/>
<path d="M224.724 360.279C214.628 354.433 206.321 346.162 200.637 336.299C194.953 326.435 192.093 315.325 192.345 304.087L194.02 229.722C194.228 221.181 192.636 212.684 189.338 204.732C183.931 191.742 174.219 180.782 161.68 173.519C158.314 171.571 154.471 170.5 150.536 170.414C146.602 170.328 142.716 171.23 139.268 173.029C135.82 174.828 132.933 177.461 130.895 180.663C128.858 183.865 127.743 187.523 127.662 191.269L125.989 265.535C125.905 269.283 124.787 272.942 122.747 276.144C120.708 279.347 117.818 281.98 114.368 283.78C110.919 285.579 107.031 286.482 103.095 286.397C99.1588 286.313 95.313 285.243 91.9438 283.297C81.8505 277.443 73.5463 269.167 67.8652 259.3C62.1841 249.432 59.3261 238.32 59.5783 227.081L61.3147 149.994C61.5638 138.743 58.6963 127.621 53.0009 117.748C47.3055 107.874 38.9831 99.5979 28.8711 93.7514L28.8019 96.8214C38.0975 102.53 45.7066 110.41 50.9029 119.707C56.0992 129.005 58.7093 139.41 58.484 149.931L56.7476 227.017C56.506 238.715 59.4913 250.275 65.4054 260.544C71.3195 270.813 79.9555 279.43 90.4511 285.536C94.2209 287.752 98.5405 288.972 102.965 289.072C107.39 289.172 111.76 288.147 115.626 286.103C116.117 285.852 116.595 285.588 117.073 285.299C120.583 283.207 123.486 280.313 125.521 276.879C127.556 273.445 128.658 269.58 128.727 265.634L130.401 191.318C130.473 188.031 131.452 184.822 133.241 182.013C135.029 179.205 137.564 176.896 140.59 175.319C143.616 173.742 147.026 172.952 150.478 173.03C153.929 173.107 157.301 174.048 160.253 175.759C169.924 181.376 177.881 189.311 183.329 198.768C188.776 208.225 191.523 218.874 191.294 229.648L189.619 304.014C189.376 315.71 192.361 327.27 198.275 337.537C204.19 347.803 212.827 356.418 223.323 362.52L296.619 404.975L296.687 401.942L224.724 360.279Z" fill="#455A64"/>
<path d="M421.479 337.017L296.661 401.942L224.725 360.242C214.629 354.396 206.322 346.125 200.638 336.261C194.954 326.397 192.094 315.288 192.346 304.05L194.02 229.722C194.228 221.181 192.636 212.684 189.338 204.732C188.299 202.255 187.105 199.839 185.764 197.497C180.08 187.635 171.774 179.365 161.68 173.519C158.483 171.643 154.841 170.568 151.094 170.394C147.347 170.22 143.617 170.953 140.252 172.524L157.154 163.74L191.159 146.027L263.944 108.124L264.116 108.028C267.555 106.215 271.44 105.306 275.373 105.395C279.306 105.484 283.147 106.566 286.5 108.532C296.595 114.381 304.901 122.654 310.583 132.52C316.264 142.386 319.121 153.497 318.866 164.736L317.191 239.089C316.939 250.329 319.797 261.44 325.478 271.308C331.159 281.176 339.463 289.452 349.557 295.305L421.479 337.017Z" fill="#FAFAFA"/>
<path d="M191.255 229.66C191.484 218.886 188.737 208.237 183.289 198.78C177.841 189.322 169.884 181.388 160.214 175.771C157.261 174.06 153.89 173.118 150.438 173.041C146.986 172.964 143.576 173.754 140.55 175.331C137.524 176.908 134.99 179.217 133.201 182.025C131.413 184.834 130.433 188.043 130.361 191.33L128.687 265.645C128.622 269.577 127.532 273.43 125.514 276.856C123.496 280.283 120.613 283.176 117.126 285.275C116.648 285.564 116.17 285.828 115.679 286.079L190.919 246.883L191.255 229.66Z" fill="#E0E0E0"/>
<path opacity="0.15" d="M191.255 229.66C191.484 218.886 188.737 208.237 183.289 198.78C177.841 189.322 169.884 181.388 160.214 175.771C157.261 174.06 153.89 173.118 150.438 173.041C146.986 172.964 143.576 173.754 140.55 175.331C137.524 176.908 134.99 179.217 133.201 182.025C131.413 184.834 130.433 188.043 130.361 191.33L128.687 265.645C128.622 269.577 127.532 273.43 125.514 276.856C123.496 280.283 120.613 283.176 117.126 285.275C116.648 285.564 116.17 285.828 115.679 286.079L190.919 246.883L191.255 229.66Z" fill="black"/>
<mask id="mask0_403_5852" style="mask-type:luminance" maskUnits="userSpaceOnUse" x="28" y="28" width="159" height="259">
<path d="M184.619 149.413L157.114 163.777L140.212 172.561C139.669 172.811 139.138 173.098 138.62 173.399C135.319 175.222 132.571 177.827 130.642 180.962C128.712 184.098 127.668 187.656 127.609 191.293L125.935 265.608C125.871 268.919 124.988 272.166 123.357 275.086C121.726 278.007 119.393 280.518 116.549 282.415C112.602 285.117 107.844 286.534 102.979 286.455C99.0553 286.358 95.226 285.277 91.878 283.32C81.7846 277.467 73.4804 269.191 67.7993 259.323C62.1182 249.456 59.2603 238.344 59.5124 227.104L61.2494 149.993C61.505 138.748 58.6473 127.63 52.9637 117.758C47.2802 107.885 38.9709 99.6055 28.8713 93.7514L153.73 28.7781C163.828 34.6354 172.136 42.9153 177.821 52.7868C183.507 62.6584 186.369 73.7746 186.121 85.02L185.365 118.59C185.109 128.198 184.619 149.413 184.619 149.413Z" fill="white"/>
</mask>
<g mask="url(#mask0_403_5852)">
<path d="M50.7611 94.6441C52.218 95.7605 53.9845 96.4484 55.8439 96.6234C57.7032 96.7983 59.5746 96.4528 61.2284 95.629L150.293 49.2525C153.636 47.5048 154.486 44.1278 151.952 41.9481C149.418 39.7685 144.478 39.6322 141.135 41.3674L52.0171 87.7802C48.6739 89.5153 48.2138 92.4766 50.7611 94.6441Z" fill="#79D7BE"/>
<path opacity="0.4" d="M122.111 77.947C121.898 77.9392 121.694 77.8658 121.528 77.7377C121.362 77.6097 121.245 77.4339 121.193 77.2369C121.141 77.0399 121.158 76.8324 121.241 76.6456C121.324 76.4588 121.468 76.3028 121.652 76.2011L163.299 54.5148C163.523 54.4015 163.785 54.3764 164.028 54.4449C164.272 54.5134 164.478 54.6701 164.602 54.8813C164.718 55.0954 164.743 55.3438 164.672 55.5747C164.601 55.8056 164.439 56.0014 164.22 56.1213L122.599 77.8331C122.45 77.9112 122.282 77.9505 122.111 77.947Z" fill="black"/>
<path opacity="0.4" d="M125.169 83.0602C124.997 83.057 124.829 83.011 124.681 82.9266C124.533 82.8422 124.411 82.7224 124.327 82.5792C124.215 82.3645 124.191 82.1172 124.262 81.8872C124.333 81.6571 124.493 81.4613 124.709 81.3393L166.356 59.653C166.58 59.5625 166.831 59.5545 167.061 59.6303C167.291 59.7062 167.484 59.8606 167.602 60.0637C167.72 60.2668 167.754 60.504 167.699 60.7296C167.644 60.9552 167.502 61.1531 167.303 61.285L125.657 82.9463C125.508 83.0261 125.339 83.0655 125.169 83.0602Z" fill="black"/>
<path opacity="0.4" d="M127.711 88.374C127.499 88.3637 127.296 88.2884 127.133 88.1595C126.969 88.0305 126.854 87.8547 126.804 87.6584C126.754 87.462 126.771 87.2556 126.855 87.07C126.938 86.8844 127.082 86.7295 127.265 86.6284L168.912 64.9421C169.136 64.8288 169.398 64.8037 169.641 64.8723C169.885 64.9408 170.091 65.0974 170.215 65.3086C170.33 65.5242 170.353 65.7736 170.279 66.0046C170.205 66.2357 170.041 66.4305 169.82 66.5483L128.186 88.2349C128.043 88.3193 127.879 88.3672 127.711 88.374Z" fill="black"/>
<path opacity="0.4" d="M129.737 93.8884C129.565 93.8853 129.397 93.8392 129.249 93.7548C129.101 93.6704 128.979 93.5507 128.896 93.4075C128.783 93.1928 128.759 92.9455 128.83 92.7154C128.901 92.4853 129.061 92.2896 129.277 92.1675L170.924 70.4812C171.148 70.3679 171.41 70.3428 171.653 70.4113C171.897 70.4798 172.103 70.6365 172.227 70.8477C172.343 71.0618 172.368 71.3102 172.297 71.5411C172.226 71.772 172.064 71.9678 171.845 72.0877L130.198 93.774C130.058 93.8497 129.899 93.8891 129.737 93.8884Z" fill="black"/>
<path opacity="0.4" d="M131.163 99.277C130.993 99.2743 130.826 99.2283 130.681 99.1438C130.535 99.0593 130.416 98.9394 130.335 98.7964C130.215 98.5828 130.188 98.3334 130.26 98.1016C130.331 97.8698 130.495 97.674 130.717 97.5564L172.338 75.8445C172.448 75.7868 172.57 75.7504 172.695 75.7376C172.821 75.7248 172.947 75.7357 173.069 75.7698C173.19 75.8038 173.303 75.8603 173.401 75.9361C173.499 76.0118 173.58 76.1052 173.641 76.211C173.76 76.4245 173.787 76.674 173.716 76.9058C173.644 77.1376 173.48 77.3334 173.259 77.451L131.625 99.1376C131.486 99.2201 131.327 99.268 131.163 99.277Z" fill="black"/>
<path opacity="0.4" d="M132.108 105.054C131.891 105.054 131.679 104.984 131.508 104.856C131.337 104.728 131.216 104.548 131.165 104.347C131.113 104.146 131.134 103.934 131.225 103.745C131.315 103.557 131.469 103.403 131.662 103.309L173.296 81.6221C173.52 81.5317 173.771 81.5236 174.001 81.5995C174.231 81.6754 174.424 81.8298 174.542 82.0329C174.66 82.2359 174.694 82.4732 174.639 82.6988C174.584 82.9244 174.442 83.1223 174.242 83.2541L132.596 104.94C132.448 105.022 132.279 105.061 132.108 105.054Z" fill="black"/>
<path opacity="0.4" d="M132.547 111.207C132.329 111.207 132.118 111.137 131.947 111.009C131.776 110.881 131.655 110.701 131.603 110.5C131.552 110.298 131.573 110.087 131.663 109.898C131.753 109.71 131.908 109.556 132.101 109.462L173.734 87.775C173.958 87.6846 174.21 87.6765 174.44 87.7524C174.67 87.8283 174.862 87.9827 174.98 88.1858C175.098 88.3888 175.133 88.6261 175.077 88.8517C175.022 89.0773 174.881 89.2752 174.681 89.407L133.035 111.081C132.888 111.165 132.719 111.209 132.547 111.207Z" fill="black"/>
<path opacity="0.4" d="M72.9148 153.677C72.7923 153.672 72.673 153.638 72.5687 153.576C72.4644 153.515 72.3785 153.429 72.3195 153.326C72.2332 153.172 72.2144 152.991 72.2673 152.824C72.3202 152.657 72.4405 152.517 72.6019 152.434L173.635 99.7717C173.795 99.6887 173.983 99.6693 174.159 99.7177C174.335 99.766 174.483 99.8782 174.573 100.03C174.618 100.105 174.647 100.189 174.658 100.275C174.668 100.361 174.661 100.448 174.636 100.531C174.611 100.614 174.569 100.692 174.512 100.759C174.454 100.826 174.384 100.882 174.304 100.923L73.2578 153.585C73.1546 153.645 73.0359 153.677 72.9148 153.677Z" fill="black"/>
<path opacity="0.4" d="M72.7825 159.542C72.66 159.538 72.5408 159.503 72.4365 159.442C72.3321 159.38 72.2462 159.294 72.1873 159.192C72.1009 159.037 72.0821 158.857 72.135 158.69C72.1879 158.522 72.3082 158.382 72.4696 158.299L173.502 105.637C173.664 105.555 173.854 105.538 174.03 105.588C174.205 105.639 174.353 105.754 174.44 105.908C174.485 105.982 174.514 106.065 174.525 106.15C174.535 106.235 174.528 106.321 174.503 106.403C174.478 106.485 174.435 106.562 174.378 106.628C174.321 106.694 174.251 106.749 174.171 106.788L73.1255 159.45C73.0203 159.506 72.9029 159.537 72.7825 159.542Z" fill="black"/>
<path opacity="0.4" d="M72.6506 165.408C72.5281 165.403 72.4089 165.369 72.3045 165.307C72.2002 165.246 72.1143 165.16 72.0554 165.057C71.969 164.903 71.9502 164.722 72.0031 164.555C72.056 164.388 72.1763 164.247 72.3377 164.165L173.37 111.502C173.532 111.418 173.723 111.399 173.9 111.449C174.077 111.498 174.226 111.613 174.315 111.767C174.404 111.922 174.425 112.103 174.373 112.272C174.321 112.44 174.201 112.582 174.039 112.666L72.9933 165.328C72.8871 165.379 72.7698 165.407 72.6506 165.408Z" fill="black"/>
<path opacity="0.4" d="M72.5185 171.273C72.396 171.269 72.2768 171.234 72.1725 171.173C72.0681 171.111 71.9823 171.025 71.9233 170.923C71.879 170.847 71.8511 170.765 71.8413 170.679C71.8316 170.593 71.8401 170.507 71.8665 170.425C71.8929 170.342 71.9365 170.266 71.9947 170.2C72.053 170.135 72.1246 170.081 72.2053 170.042L173.238 117.38C173.396 117.319 173.572 117.314 173.733 117.368C173.894 117.422 174.028 117.531 174.111 117.673C174.194 117.815 174.219 117.981 174.181 118.14C174.143 118.298 174.046 118.438 173.907 118.532L72.8612 171.193C72.7574 171.251 72.6385 171.278 72.5185 171.273Z" fill="black"/>
<path opacity="0.4" d="M73.1069 145.141C72.9408 145.159 72.7731 145.119 72.6359 145.028C72.4987 144.936 72.4015 144.8 72.3629 144.645C72.3242 144.489 72.3469 144.326 72.4264 144.186C72.506 144.046 72.6369 143.939 72.7943 143.885L126.276 116.023C126.355 115.969 126.446 115.931 126.542 115.913C126.638 115.895 126.737 115.896 126.833 115.917C126.928 115.938 127.018 115.978 127.096 116.034C127.175 116.09 127.24 116.161 127.287 116.243C127.335 116.324 127.363 116.415 127.372 116.508C127.38 116.601 127.368 116.694 127.335 116.782C127.303 116.87 127.251 116.95 127.184 117.018C127.117 117.085 127.035 117.139 126.945 117.174L73.4502 145.036C73.349 145.102 73.2297 145.139 73.1069 145.141Z" fill="black"/>
<path d="M72.3717 111.425C76.3964 119.27 78.6514 127.828 78.9912 136.546C78.9708 136.731 79.0082 136.918 79.0988 137.084C79.1894 137.249 79.3292 137.386 79.5006 137.476C79.6721 137.567 79.8676 137.607 80.0627 137.592C80.2579 137.578 80.444 137.509 80.5979 137.394L83.5697 135.85C83.9993 135.584 84.3503 135.218 84.5894 134.786C84.8286 134.355 84.948 133.872 84.9365 133.383C84.7133 128.847 84.0109 124.343 82.8399 119.939C81.6948 115.956 80.1989 112.071 78.3681 108.326C78.266 108.135 78.1243 107.965 77.9515 107.828C77.7788 107.69 77.5786 107.587 77.3631 107.525C77.1476 107.463 76.9212 107.443 76.6976 107.467C76.474 107.49 76.2579 107.557 76.0622 107.662L73.1303 109.182C72.7347 109.4 72.4381 109.749 72.298 110.164C72.1579 110.578 72.1842 111.027 72.3717 111.425Z" fill="#79D7BE"/>
<path d="M81.3217 100.002C84.1715 104.567 86.4388 109.438 88.0752 114.513C89.717 119.639 90.6595 124.944 90.8797 130.296C90.855 130.48 90.8883 130.667 90.9754 130.833C91.0625 130.999 91.1993 131.137 91.3687 131.229C91.538 131.321 91.7321 131.363 91.9264 131.35C92.1207 131.337 92.3064 131.269 92.4599 131.156L95.4321 129.599C95.8759 129.343 96.2423 128.981 96.4956 128.549C96.7488 128.117 96.8804 127.63 96.8774 127.135C96.5935 121.819 95.6425 116.554 94.0445 111.451C92.44 106.401 90.1887 101.557 87.3414 97.0288C87.0897 96.6538 86.7003 96.3815 86.2495 96.2651C85.7986 96.1487 85.3187 96.1967 84.9037 96.3995L81.9464 97.8812C81.7526 97.9747 81.5813 98.1056 81.4434 98.2655C81.3055 98.4254 81.204 98.6109 81.1453 98.8102C81.0866 99.0095 81.072 99.2184 81.1023 99.4235C81.1327 99.6287 81.2074 99.8257 81.3217 100.002Z" fill="#79D7BE"/>
<path d="M104.42 106.016L101.502 107.536C101.087 107.773 100.764 108.13 100.58 108.555C100.396 108.981 100.36 109.451 100.478 109.898C101.804 114.539 102.576 119.306 102.78 124.109C102.759 124.292 102.794 124.477 102.883 124.641C102.971 124.805 103.108 124.941 103.277 125.031C103.445 125.122 103.638 125.163 103.831 125.15C104.024 125.136 104.208 125.069 104.361 124.956L107.333 123.412C107.776 123.155 108.141 122.793 108.395 122.361C108.648 121.929 108.78 121.443 108.778 120.948C108.518 116.156 107.72 111.404 106.396 106.773C106.346 106.58 106.249 106.402 106.112 106.253C105.976 106.103 105.804 105.987 105.611 105.913C105.418 105.839 105.209 105.81 105.002 105.828C104.795 105.846 104.596 105.91 104.42 106.016Z" fill="#79D7BE"/>
<path d="M116.414 95.1241C116.339 94.9252 116.218 94.745 116.059 94.5972C115.9 94.4493 115.708 94.3375 115.498 94.2703C115.287 94.2031 115.063 94.1821 114.843 94.209C114.623 94.2359 114.413 94.3099 114.227 94.4256L111.283 95.9324C110.874 96.1586 110.562 96.5135 110.399 96.9361C110.236 97.3586 110.234 97.8223 110.391 98.2472C110.887 99.507 111.357 100.766 111.823 102.2C113.467 107.321 114.405 112.622 114.615 117.97C114.594 118.154 114.63 118.341 114.719 118.506C114.808 118.671 114.946 118.807 115.116 118.899C115.285 118.99 115.479 119.032 115.673 119.02C115.867 119.008 116.053 118.942 116.208 118.83L119.18 117.286C119.621 117.027 119.986 116.664 120.239 116.233C120.491 115.802 120.625 115.316 120.625 114.822C120.338 109.484 119.378 104.198 117.768 99.0751C117.392 97.7057 116.923 96.3966 116.414 95.1241Z" fill="#79D7BE"/>
<path opacity="0.4" d="M75.3922 133.918C75.3288 133.81 75.2241 133.73 75.1 133.695C74.976 133.659 74.8425 133.671 74.7278 133.728L73.4807 134.374C73.2418 132.758 72.9632 131.153 72.6186 129.572L74.3035 128.699C74.3997 128.63 74.4665 128.531 74.4916 128.419C74.5166 128.307 74.4982 128.19 74.4397 128.089C74.3812 127.989 74.2866 127.912 74.1733 127.873C74.0601 127.834 73.9359 127.835 73.8237 127.877L72.3907 128.631C72.007 127.037 71.5838 125.454 71.081 123.907L72.6861 123.081C72.8005 123.023 72.8856 122.923 72.9227 122.804C72.9598 122.686 72.9458 122.558 72.8839 122.449C72.8221 122.34 72.7173 122.259 72.5927 122.223C72.4681 122.188 72.3339 122.201 72.2195 122.259L70.7734 123.013C70.2567 121.503 69.7135 120.005 69.0777 118.543C69.0835 118.505 69.0844 118.468 69.0803 118.43L70.6723 117.605C70.7294 117.576 70.7799 117.537 70.8209 117.489C70.8619 117.442 70.8925 117.387 70.9109 117.328C70.9293 117.269 70.9352 117.208 70.9282 117.147C70.9212 117.085 70.9014 117.026 70.8701 116.972C70.8067 116.865 70.7019 116.785 70.5779 116.749C70.4539 116.714 70.3204 116.726 70.2057 116.783L68.7065 117.56C68.0579 116.085 67.3304 114.62 66.5374 113.154L68.1163 112.328C68.1734 112.299 68.224 112.26 68.265 112.213C68.3059 112.165 68.3365 112.111 68.3549 112.052C68.3734 111.993 68.3792 111.931 68.3722 111.87C68.3652 111.809 68.3455 111.749 68.3141 111.696C68.2508 111.588 68.146 111.508 68.022 111.473C67.898 111.437 67.7645 111.449 67.6497 111.506L66.0839 112.332C65.2767 110.916 64.4167 109.51 63.4778 108.116L65.2687 107.195C65.3261 107.166 65.3767 107.127 65.4174 107.079C65.4582 107.031 65.4881 106.976 65.5055 106.917C65.5228 106.857 65.5271 106.795 65.5181 106.734C65.5092 106.673 65.4871 106.615 65.4534 106.562C65.4233 106.507 65.3821 106.459 65.3322 106.42C65.2823 106.381 65.2247 106.352 65.1628 106.334C65.1009 106.316 65.0359 106.311 64.9717 106.317C64.9076 106.324 64.8454 106.342 64.789 106.372L62.9577 107.342C61.9416 105.884 60.8859 104.436 59.7382 103C59.6533 102.917 59.5394 102.866 59.4182 102.857C59.2969 102.849 59.1766 102.882 59.0799 102.952C58.9832 103.022 58.9168 103.124 58.8932 103.237C58.8696 103.351 58.8904 103.469 58.9518 103.569C60.0744 104.955 61.1178 106.364 62.0954 107.785L60.3972 108.671C60.3043 108.719 60.2308 108.795 60.188 108.888C60.1451 108.98 60.1351 109.083 60.1597 109.181C60.1842 109.28 60.2419 109.368 60.3239 109.432C60.4059 109.496 60.5077 109.533 60.6137 109.537C60.6942 109.563 60.781 109.565 60.8627 109.543L62.627 108.633C63.5528 110.028 64.4261 111.421 65.2203 112.837L63.2434 113.866C63.1496 113.915 63.0756 113.993 63.0329 114.086C62.9902 114.18 62.9813 114.284 63.0075 114.383C63.0338 114.482 63.0936 114.57 63.1779 114.634C63.2621 114.697 63.3659 114.732 63.473 114.733C63.5491 114.759 63.6317 114.76 63.7089 114.738L65.6724 113.721C66.4654 115.188 67.1926 116.665 67.8412 118.14L65.798 119.205C65.7042 119.255 65.6301 119.332 65.5874 119.425C65.5448 119.519 65.5358 119.623 65.5621 119.722C65.5883 119.821 65.6482 119.909 65.7324 119.973C65.8166 120.036 65.9204 120.071 66.0276 120.072C66.111 120.077 66.1939 120.057 66.2649 120.015L68.2152 118.998C68.8504 120.485 69.4583 122.022 69.9348 123.569L67.8517 124.658C67.7588 124.707 67.6854 124.783 67.6425 124.875C67.5996 124.967 67.5896 125.071 67.6142 125.169C67.6388 125.267 67.6965 125.355 67.7785 125.419C67.8605 125.484 67.9622 125.521 68.0682 125.524C68.1487 125.55 68.2356 125.552 68.3172 125.53L70.2411 124.525C70.7435 126.084 71.167 127.654 71.5373 129.261L69.4676 130.338C69.4105 130.367 69.36 130.406 69.319 130.453C69.278 130.501 69.2474 130.555 69.229 130.614C69.2106 130.673 69.2047 130.735 69.2117 130.796C69.2187 130.857 69.2385 130.917 69.2698 130.97C69.3105 131.041 69.3705 131.1 69.4434 131.141C69.5163 131.183 69.5995 131.204 69.6841 131.204C69.7647 131.23 69.8515 131.232 69.9331 131.21L71.7638 130.265C72.1085 131.846 72.3736 133.463 72.5995 135.078L70.3566 136.276C70.2628 136.326 70.1887 136.403 70.1461 136.496C70.1034 136.59 70.0945 136.694 70.1207 136.793C70.1469 136.892 70.2068 136.98 70.291 137.044C70.3753 137.107 70.479 137.142 70.5862 137.143C70.6696 137.148 70.7525 137.128 70.8235 137.086L72.734 136.093C72.9782 138.058 73.1297 140.06 73.2022 142.084C73.2062 142.202 73.2577 142.315 73.3461 142.398C73.4345 142.481 73.553 142.529 73.6772 142.532C73.741 142.53 73.8037 142.516 73.8619 142.491C73.92 142.466 73.9724 142.431 74.0161 142.387C74.0597 142.342 74.0937 142.29 74.1161 142.233C74.1386 142.177 74.149 142.116 74.1468 142.055C74.0778 139.881 73.9034 137.73 73.6364 135.614L75.2019 134.8C75.3119 134.798 75.418 134.761 75.5026 134.694C75.5872 134.627 75.6453 134.535 75.6674 134.432C75.6896 134.329 75.6744 134.222 75.6244 134.129C75.5744 134.036 75.4925 133.961 75.3922 133.918Z" fill="black"/>
<g opacity="0.15">
<path d="M78.3436 225.243C78.0059 221.721 77.9366 218.181 78.1364 214.651C78.5602 213.299 84.9482 193.978 96.0405 188.172C96.7155 187.788 97.4527 187.514 98.2222 187.359C98.5154 187.298 98.8154 187.271 99.1156 187.28C102.025 187.345 103.236 191.218 104.41 194.965C104.85 196.5 105.394 198.005 106.039 199.472C106.753 200.986 107.979 202.999 110.391 203.054C111.454 203.037 112.494 202.759 113.411 202.248C118.718 199.508 120.425 191.805 122.222 183.655C122.949 180.004 123.906 176.398 125.087 172.857C126.794 168.113 128.931 165.202 131.85 163.695C132.591 163.265 133.436 163.022 134.304 162.988C137.358 163.057 138.394 168.262 139.396 173.291C139.819 175.923 140.507 178.51 141.451 181.016C142.51 183.45 143.991 184.657 145.839 184.699C146.927 184.672 147.989 184.382 148.926 183.857C155.467 180.458 157.555 174.475 159.573 168.702C161.298 163.746 162.909 159.163 167.221 156.9C168.184 156.342 169.286 156.04 170.414 156.023C170.891 156.032 171.364 156.119 171.811 156.279C171.907 157.21 171.952 158.144 171.945 159.079L171.758 170.861C171.812 173.123 171.942 174.899 172.118 176.426L78.3436 225.243Z" fill="#79D7BE"/>
<path d="M172.871 176.755C172.635 174.989 172.523 173.001 172.453 170.84L172.653 159.058C172.659 157.971 172.596 156.886 172.464 155.807C171.838 155.5 171.146 155.335 170.443 155.324C169.195 155.336 167.974 155.666 166.907 156.281C157.274 161.333 160.553 177.027 148.599 183.25C147.745 183.741 146.772 184.012 145.775 184.036C144.006 183.996 142.854 182.721 142.007 180.754C139.363 174.727 139.705 162.461 134.24 162.338C133.251 162.361 132.286 162.632 131.443 163.124C128.02 164.907 125.908 168.418 124.397 172.654C120.635 183.082 120.512 197.85 113.083 201.666C112.284 202.12 111.376 202.375 110.444 202.406C108.701 202.366 107.576 201.092 106.701 199.212C104.536 194.619 103.914 186.726 99.1174 186.618C98.7691 186.613 98.4212 186.642 98.0796 186.707C97.2423 186.881 96.4391 187.179 95.6996 187.59C83.8772 193.791 77.431 214.535 77.431 214.535C77.2118 218.454 77.3118 222.385 77.73 226.291L79.0571 225.584C78.9654 225.116 78.9017 224.644 78.8661 224.169C78.6242 221.039 78.5854 217.898 78.7501 214.764C79.3421 212.93 85.6215 194.355 96.3161 188.74C96.9315 188.394 97.6011 188.143 98.2996 187.998C98.5409 187.946 98.788 187.922 99.0355 187.927C101.434 187.981 102.584 191.628 103.685 195.149C104.129 196.713 104.682 198.248 105.338 199.744C105.802 200.703 107.178 203.643 110.31 203.714C111.496 203.704 112.657 203.394 113.674 202.815C119.285 199.945 121.009 192.093 122.822 183.781C123.553 180.159 124.51 176.583 125.686 173.07C127.336 168.5 129.366 165.661 132.099 164.275C132.729 163.896 133.452 163.68 134.198 163.648C136.688 163.704 137.725 168.859 138.632 173.412C139.059 176.085 139.755 178.714 140.711 181.262C141.87 183.923 143.557 185.309 145.732 185.358C146.975 185.343 148.191 185.013 149.255 184.401C156.034 180.871 158.263 174.491 160.225 168.866C161.906 164.084 163.476 159.575 167.563 157.432C168.417 156.931 169.396 156.655 170.4 156.634C170.656 156.638 170.911 156.673 171.158 156.739C171.272 158.065 171.264 159.014 171.264 159.026L170.997 170.869C171.056 172.906 171.162 174.619 171.314 176.021C171.36 176.485 171.442 176.946 171.558 177.4L172.792 176.753" fill="black"/>
</g>
<g opacity="0.4">
<path d="M77.5651 208.582L77.4311 214.535C77.2107 218.454 77.3106 222.385 77.73 226.291L172.858 176.755C172.622 174.989 172.496 173.001 172.441 170.827L172.64 159.057C172.64 159.057 173.037 141.449 161.096 147.647C148.598 154.158 151.599 175.776 142.736 180.396C133.874 185.016 137.189 165.888 125.301 172.087C113.413 178.287 118.961 192.784 107.073 198.971C95.1859 205.158 101.79 172.732 89.9028 178.919C78.0153 185.106 77.7324 201.157 77.5651 208.582Z" fill="#79D7BE"/>
</g>
<path opacity="0.4" d="M72.6763 235.267C72.5907 235.264 72.5073 235.24 72.4345 235.197C72.3618 235.153 72.3024 235.092 72.2623 235.02C72.231 234.966 72.2112 234.907 72.2042 234.846C72.1972 234.785 72.2031 234.723 72.2215 234.664C72.2399 234.605 72.2705 234.55 72.3115 234.503C72.3525 234.456 72.403 234.416 72.4601 234.388L173.628 182.141C173.741 182.085 173.872 182.073 173.994 182.109C174.116 182.144 174.218 182.224 174.279 182.33C174.311 182.383 174.332 182.442 174.34 182.503C174.348 182.563 174.343 182.625 174.326 182.684C174.308 182.743 174.279 182.798 174.239 182.845C174.2 182.893 174.15 182.933 174.094 182.963L72.9268 235.21C72.8494 235.248 72.7635 235.267 72.6763 235.267Z" fill="black"/>
<path d="M89.9631 182.067C89.8333 182.064 89.7097 182.013 89.6186 181.924C89.5275 181.836 89.4762 181.717 89.4755 181.594L89.4966 180.658C89.4962 180.597 89.5089 180.536 89.5339 180.48C89.5589 180.424 89.5957 180.373 89.6421 180.331C89.6884 180.288 89.7434 180.256 89.8035 180.234C89.8637 180.213 89.9278 180.204 89.9919 180.207C90.1205 180.21 90.2428 180.261 90.3317 180.35C90.4207 180.439 90.4692 180.557 90.4664 180.68L90.4453 181.616C90.4395 181.735 90.3866 181.848 90.2972 181.931C90.2078 182.015 90.0885 182.063 89.9631 182.067Z" fill="white"/>
<path d="M89.3666 217.863C89.2454 217.858 89.1303 217.811 89.0428 217.731C88.9553 217.65 88.9014 217.543 88.8912 217.428C88.9047 216.829 88.8145 216.177 88.7876 215.627C88.7854 215.567 88.7958 215.506 88.8183 215.449C88.8407 215.392 88.8747 215.34 88.9184 215.296C88.962 215.252 89.0144 215.216 89.0725 215.191C89.1307 215.166 89.1934 215.153 89.2572 215.151C89.3212 215.143 89.3861 215.149 89.4476 215.168C89.5091 215.186 89.5656 215.217 89.6133 215.259C89.661 215.3 89.6987 215.351 89.7238 215.408C89.7489 215.464 89.7608 215.525 89.7588 215.587C89.7453 216.186 89.8238 216.774 89.863 217.362C89.8689 217.423 89.8621 217.484 89.8429 217.543C89.8237 217.601 89.7926 217.655 89.7513 217.702C89.71 217.748 89.6593 217.787 89.6023 217.814C89.5453 217.842 89.483 217.859 89.419 217.864L89.3666 217.863ZM89.2242 214.289C89.0944 214.286 88.9707 214.235 88.8796 214.146C88.7886 214.058 88.7372 213.939 88.7366 213.816C88.7481 213.304 88.7616 212.705 88.7771 212.019C88.7798 211.896 88.8336 211.78 88.9264 211.695C89.0193 211.611 89.1438 211.565 89.2724 211.568C89.5607 211.574 89.7528 211.778 89.76 212.041C89.7448 212.715 89.7319 213.289 89.7198 213.825C89.7201 213.887 89.7075 213.948 89.6826 214.005C89.6577 214.062 89.6211 214.114 89.5749 214.157C89.5287 214.2 89.4739 214.234 89.4136 214.257C89.3534 214.279 89.289 214.29 89.2242 214.289ZM89.3049 210.707C89.1774 210.701 89.0571 210.649 88.9688 210.561C88.8805 210.473 88.8309 210.356 88.8304 210.234L88.8708 208.437C88.8769 208.316 88.9317 208.201 89.0238 208.118C89.116 208.034 89.2385 207.987 89.3662 207.986C89.4936 207.992 89.6139 208.045 89.7022 208.133C89.7905 208.221 89.8401 208.338 89.8406 208.459L89.8002 210.256C89.794 210.38 89.7373 210.496 89.6424 210.58C89.5474 210.664 89.4216 210.71 89.2918 210.707L89.3049 210.707ZM89.3856 207.125C89.257 207.122 89.1347 207.071 89.0457 206.982C88.9567 206.894 88.9083 206.775 88.911 206.653L88.9515 204.856C88.9577 204.732 89.0143 204.616 89.1093 204.532C89.2043 204.448 89.3301 204.402 89.4599 204.405C89.5874 204.411 89.7077 204.464 89.796 204.551C89.8843 204.639 89.9338 204.756 89.9344 204.878L89.8939 206.675C89.8912 206.797 89.8374 206.914 89.7446 206.998C89.6517 207.083 89.5273 207.129 89.3987 207.126L89.3856 207.125ZM89.4662 203.544C89.3387 203.538 89.2184 203.485 89.1301 203.397C89.0419 203.309 88.9923 203.193 88.9917 203.071L89.033 201.237C89.0546 201.126 89.1168 201.026 89.2085 200.956C89.3002 200.885 89.4153 200.847 89.5334 200.85C89.6516 200.853 89.765 200.895 89.8533 200.97C89.9417 201.045 89.9993 201.147 90.0159 201.259L89.9755 203.056C89.9784 203.126 89.965 203.196 89.9363 203.26C89.9075 203.325 89.8641 203.382 89.8091 203.429C89.7542 203.475 89.689 203.509 89.6184 203.529C89.5478 203.549 89.4734 203.553 89.4007 203.542L89.4662 203.544ZM89.5469 199.962C89.4183 199.959 89.2961 199.908 89.2071 199.819C89.1181 199.731 89.0696 199.612 89.0724 199.489L89.1126 197.705C89.1154 197.582 89.1691 197.466 89.262 197.382C89.3549 197.297 89.4793 197.251 89.6079 197.254C89.7365 197.257 89.8587 197.308 89.9477 197.397C90.0367 197.486 90.0852 197.604 90.0824 197.727L90.0422 199.511C90.0473 199.581 90.0358 199.65 90.0086 199.715C89.9814 199.78 89.9393 199.837 89.8852 199.884C89.8312 199.931 89.7668 199.966 89.6967 199.985C89.6266 200.005 89.5527 200.009 89.4805 199.998L89.5469 199.962ZM89.6276 196.38C89.5634 196.381 89.4997 196.369 89.4406 196.345C89.3815 196.321 89.3281 196.285 89.2836 196.241C89.2392 196.197 89.2047 196.145 89.1823 196.087C89.1598 196.03 89.1499 195.969 89.1531 195.908L89.1933 194.123C89.196 194.001 89.2498 193.884 89.3427 193.8C89.4355 193.715 89.56 193.67 89.6886 193.672C89.8172 193.675 89.9394 193.727 90.0284 193.815C90.1174 193.904 90.1658 194.023 90.1631 194.145L90.1229 195.93C90.1243 195.997 90.11 196.063 90.081 196.124C90.052 196.185 90.0091 196.239 89.9553 196.282C89.9016 196.325 89.8384 196.356 89.7703 196.373C89.7023 196.39 89.6311 196.392 89.5621 196.379L89.6276 196.38ZM89.7083 192.799C89.6441 192.799 89.5804 192.787 89.5213 192.763C89.4621 192.739 89.4087 192.704 89.3643 192.66C89.3199 192.615 89.2854 192.563 89.263 192.506C89.2405 192.448 89.2306 192.387 89.2338 192.326L89.274 190.542C89.2767 190.418 89.33 190.3 89.4226 190.214C89.5152 190.127 89.6397 190.079 89.7695 190.078C89.8343 190.08 89.8982 190.094 89.9574 190.119C90.0165 190.144 90.0698 190.181 90.114 190.226C90.1582 190.271 90.1925 190.324 90.2147 190.382C90.237 190.44 90.2469 190.502 90.2437 190.563L90.2036 192.348C90.205 192.415 90.1907 192.481 90.1617 192.542C90.1327 192.603 90.0898 192.657 90.036 192.7C89.9823 192.743 89.9191 192.775 89.851 192.791C89.783 192.808 89.7118 192.81 89.6427 192.797L89.7083 192.799ZM89.7887 189.23C89.6589 189.224 89.5368 189.169 89.4482 189.079C89.3596 188.988 89.3116 188.868 89.3144 188.745L89.3546 186.96C89.3762 186.849 89.4384 186.75 89.5301 186.679C89.6217 186.608 89.7369 186.571 89.855 186.574C89.9732 186.576 90.0865 186.619 90.1749 186.694C90.2633 186.768 90.3209 186.871 90.3375 186.982L90.297 188.779C90.2924 188.845 90.2735 188.91 90.2417 188.969C90.2099 189.028 90.1658 189.08 90.112 189.122C90.0583 189.164 89.9961 189.195 89.9292 189.213C89.8623 189.232 89.7922 189.237 89.7231 189.228L89.7887 189.23ZM89.8693 185.648C89.7419 185.642 89.6215 185.59 89.5333 185.502C89.445 185.414 89.3954 185.297 89.3948 185.175L89.435 183.391C89.4379 183.265 89.493 183.146 89.5884 183.059C89.6838 182.972 89.8116 182.925 89.9437 182.928C90.0723 182.931 90.1946 182.982 90.2835 183.071C90.3725 183.159 90.421 183.278 90.4182 183.4L90.3777 185.198C90.375 185.264 90.3574 185.33 90.3262 185.39C90.295 185.449 90.2509 185.502 90.1967 185.545C90.1425 185.587 90.0795 185.618 90.0118 185.636C89.9441 185.653 89.8732 185.657 89.8038 185.647L89.8693 185.648Z" fill="white"/>
<path d="M89.6201 220.565C89.5029 220.561 89.3909 220.518 89.3039 220.443C89.2168 220.368 89.1603 220.266 89.1443 220.155L89.0474 219.217C89.0419 219.156 89.049 219.095 89.0683 219.036C89.0876 218.978 89.1188 218.924 89.16 218.878C89.2013 218.831 89.2517 218.793 89.3086 218.765C89.3655 218.737 89.4276 218.72 89.4914 218.715C89.5552 218.71 89.6195 218.716 89.6806 218.735C89.7417 218.754 89.7983 218.783 89.8474 218.823C89.8964 218.862 89.9368 218.91 89.9664 218.964C89.9959 219.019 90.0139 219.078 90.0194 219.139L90.1169 220.052C90.1247 220.113 90.1197 220.175 90.1022 220.234C90.0847 220.293 90.055 220.348 90.0148 220.396C89.9747 220.444 89.9249 220.484 89.8684 220.513C89.8119 220.542 89.7498 220.561 89.6857 220.567L89.6201 220.565Z" fill="white"/>
<path d="M161.143 149.047C161.011 149.044 160.886 148.991 160.794 148.9C160.703 148.809 160.653 148.687 160.656 148.561L160.677 147.638C160.68 147.512 160.735 147.393 160.83 147.306C160.926 147.219 161.053 147.172 161.186 147.175C161.315 147.181 161.437 147.235 161.526 147.326C161.615 147.416 161.663 147.536 161.66 147.66L161.639 148.583C161.636 148.707 161.583 148.825 161.49 148.911C161.398 148.998 161.273 149.046 161.143 149.047Z" fill="white"/>
<path d="M160.612 184.844C160.491 184.839 160.376 184.792 160.288 184.712C160.201 184.632 160.147 184.524 160.137 184.409C160.085 183.809 160.06 183.159 160.033 182.609C160.029 182.485 160.075 182.364 160.163 182.273C160.251 182.182 160.373 182.127 160.503 182.12C160.567 182.116 160.631 182.125 160.692 182.146C160.753 182.167 160.808 182.199 160.855 182.241C160.902 182.283 160.939 182.334 160.965 182.39C160.991 182.446 161.004 182.507 161.004 182.568C160.991 183.167 161.069 183.756 161.108 184.344C161.114 184.405 161.107 184.468 161.087 184.527C161.067 184.586 161.035 184.64 160.992 184.687C160.949 184.734 160.897 184.772 160.839 184.799C160.78 184.826 160.716 184.842 160.651 184.845L160.612 184.844ZM160.47 181.27C160.34 181.267 160.216 181.216 160.125 181.128C160.034 181.04 159.983 180.921 159.982 180.797C159.994 180.286 160.007 179.687 160.023 179C160.025 178.878 160.079 178.761 160.172 178.677C160.265 178.592 160.389 178.546 160.518 178.549C160.646 178.552 160.769 178.604 160.858 178.692C160.947 178.781 160.995 178.9 160.992 179.022C160.977 179.696 160.964 180.27 160.952 180.807C160.952 180.868 160.94 180.929 160.915 180.986C160.89 181.043 160.853 181.095 160.807 181.138C160.761 181.181 160.706 181.215 160.646 181.238C160.586 181.26 160.521 181.271 160.457 181.27L160.47 181.27ZM160.55 177.689C160.487 177.687 160.424 177.674 160.366 177.649C160.307 177.625 160.255 177.589 160.21 177.546C160.166 177.502 160.132 177.45 160.109 177.393C160.086 177.337 160.074 177.277 160.076 177.216L160.117 175.369C160.12 175.246 160.174 175.13 160.267 175.046C160.36 174.961 160.484 174.915 160.613 174.918C160.743 174.921 160.866 174.972 160.957 175.06C161.048 175.149 161.1 175.267 161.1 175.391L161.06 177.176C161.06 177.237 161.048 177.298 161.023 177.355C160.998 177.412 160.961 177.464 160.915 177.507C160.869 177.55 160.814 177.584 160.754 177.607C160.694 177.63 160.629 177.64 160.565 177.639L160.55 177.689ZM160.631 174.107C160.501 174.104 160.378 174.053 160.286 173.965C160.195 173.876 160.144 173.758 160.143 173.634L160.184 171.837C160.19 171.716 160.245 171.601 160.337 171.517C160.429 171.433 160.552 171.386 160.679 171.386C160.809 171.389 160.933 171.44 161.024 171.528C161.115 171.617 161.166 171.735 161.167 171.859L161.126 173.656C161.12 173.777 161.065 173.892 160.973 173.976C160.881 174.06 160.759 174.107 160.631 174.107ZM160.712 170.525C160.584 170.519 160.464 170.467 160.376 170.379C160.287 170.291 160.238 170.174 160.237 170.053L160.278 168.256C160.28 168.133 160.334 168.017 160.427 167.932C160.52 167.848 160.644 167.802 160.773 167.805C160.902 167.808 161.024 167.859 161.113 167.948C161.202 168.036 161.25 168.155 161.247 168.277L161.207 170.074C161.206 170.141 161.19 170.206 161.161 170.266C161.131 170.326 161.088 170.379 161.035 170.421C160.982 170.464 160.919 170.495 160.852 170.513C160.785 170.531 160.715 170.534 160.646 170.524L160.712 170.525ZM160.792 166.944C160.663 166.941 160.539 166.89 160.448 166.801C160.357 166.713 160.305 166.594 160.305 166.471L160.345 164.674C160.367 164.563 160.429 164.464 160.521 164.393C160.612 164.322 160.728 164.285 160.846 164.287C160.964 164.29 161.077 164.332 161.166 164.407C161.254 164.482 161.312 164.584 161.328 164.696L161.288 166.493C161.285 166.558 161.268 166.623 161.237 166.682C161.207 166.741 161.164 166.793 161.111 166.835C161.058 166.877 160.997 166.909 160.931 166.927C160.865 166.946 160.795 166.951 160.727 166.942L160.792 166.944ZM160.873 163.362C160.808 163.362 160.744 163.35 160.684 163.326C160.624 163.302 160.57 163.267 160.525 163.223C160.479 163.179 160.443 163.127 160.42 163.07C160.396 163.012 160.384 162.951 160.385 162.889L160.426 161.104C160.415 161.036 160.421 160.967 160.442 160.901C160.463 160.835 160.498 160.775 160.546 160.723C160.594 160.672 160.653 160.631 160.719 160.604C160.786 160.576 160.857 160.563 160.929 160.565C161.002 160.566 161.073 160.583 161.138 160.613C161.202 160.644 161.26 160.687 161.305 160.74C161.351 160.794 161.384 160.856 161.401 160.923C161.419 160.989 161.422 161.059 161.409 161.127L161.368 162.911C161.367 162.977 161.352 163.043 161.322 163.103C161.292 163.163 161.249 163.216 161.196 163.258C161.143 163.301 161.081 163.332 161.014 163.35C160.947 163.367 160.876 163.371 160.808 163.361L160.873 163.362ZM160.954 159.78C160.889 159.781 160.825 159.768 160.765 159.745C160.705 159.721 160.651 159.686 160.605 159.642C160.56 159.598 160.524 159.545 160.5 159.488C160.476 159.431 160.465 159.369 160.466 159.307L160.506 157.523C160.506 157.461 160.519 157.4 160.543 157.343C160.568 157.286 160.605 157.235 160.651 157.191C160.697 157.148 160.752 157.114 160.812 157.092C160.873 157.069 160.937 157.058 161.002 157.06C161.132 157.066 161.254 157.12 161.342 157.211C161.431 157.301 161.479 157.421 161.476 157.545L161.436 159.329C161.435 159.394 161.419 159.458 161.39 159.517C161.361 159.576 161.32 159.629 161.268 159.671C161.216 159.714 161.156 159.745 161.09 159.764C161.025 159.782 160.956 159.787 160.888 159.779L160.954 159.78ZM161.034 156.211C160.969 156.21 160.905 156.196 160.846 156.171C160.787 156.145 160.734 156.109 160.69 156.064C160.645 156.019 160.611 155.965 160.589 155.907C160.567 155.849 160.557 155.788 160.56 155.726L160.6 153.942C160.603 153.819 160.657 153.703 160.749 153.618C160.842 153.534 160.967 153.488 161.095 153.491C161.224 153.494 161.346 153.545 161.435 153.634C161.524 153.722 161.573 153.841 161.57 153.963L161.53 155.748C161.529 155.815 161.513 155.88 161.483 155.941C161.453 156.001 161.411 156.055 161.358 156.099C161.305 156.142 161.243 156.175 161.176 156.194C161.109 156.213 161.038 156.218 160.969 156.21L161.034 156.211ZM161.115 152.63C160.985 152.623 160.863 152.569 160.774 152.479C160.686 152.388 160.638 152.268 160.641 152.144L160.68 150.41C160.701 150.299 160.763 150.2 160.855 150.129C160.947 150.058 161.062 150.021 161.18 150.023C161.298 150.026 161.412 150.069 161.5 150.143C161.588 150.218 161.646 150.321 161.663 150.432L161.622 152.229C161.613 152.291 161.59 152.351 161.556 152.405C161.522 152.459 161.477 152.506 161.424 152.543C161.37 152.58 161.31 152.607 161.246 152.622C161.181 152.636 161.115 152.638 161.049 152.628L161.115 152.63Z" fill="white"/>
<path d="M160.866 187.547C160.749 187.543 160.637 187.499 160.55 187.424C160.463 187.349 160.406 187.247 160.39 187.137L160.294 186.198C160.286 186.138 160.291 186.077 160.308 186.019C160.326 185.96 160.356 185.906 160.396 185.859C160.436 185.812 160.486 185.774 160.543 185.745C160.599 185.717 160.661 185.701 160.724 185.696C160.788 185.689 160.853 185.693 160.915 185.71C160.977 185.727 161.035 185.755 161.086 185.794C161.136 185.832 161.178 185.88 161.209 185.933C161.24 185.987 161.259 186.047 161.266 186.108L161.363 187.034C161.371 187.095 161.366 187.156 161.348 187.215C161.331 187.274 161.301 187.33 161.261 187.377C161.221 187.425 161.171 187.465 161.115 187.495C161.058 187.524 160.996 187.542 160.932 187.548L160.866 187.547Z" fill="white"/>
<path d="M125.299 175.096C125.169 175.094 125.045 175.043 124.954 174.954C124.863 174.866 124.812 174.747 124.811 174.624L124.832 173.688C124.854 173.577 124.916 173.477 125.008 173.407C125.099 173.336 125.215 173.298 125.333 173.301C125.451 173.304 125.564 173.346 125.653 173.421C125.741 173.496 125.799 173.598 125.815 173.71L125.795 174.596C125.799 174.66 125.789 174.725 125.766 174.785C125.743 174.846 125.707 174.901 125.661 174.948C125.614 174.995 125.558 175.032 125.496 175.058C125.434 175.083 125.367 175.096 125.299 175.096Z" fill="white"/>
<path d="M124.971 199.549C124.849 199.547 124.732 199.5 124.644 199.42C124.556 199.339 124.503 199.23 124.496 199.114C124.509 198.54 124.417 197.951 124.391 197.363C124.387 197.239 124.433 197.119 124.521 197.027C124.609 196.936 124.731 196.881 124.861 196.874C124.926 196.869 124.992 196.877 125.054 196.897C125.116 196.917 125.173 196.949 125.222 196.991C125.27 197.033 125.309 197.085 125.335 197.142C125.362 197.199 125.375 197.261 125.375 197.323C125.363 197.897 125.428 198.473 125.468 199.048C125.474 199.109 125.467 199.17 125.448 199.229C125.428 199.287 125.397 199.341 125.356 199.388C125.315 199.434 125.264 199.473 125.207 199.501C125.15 199.529 125.088 199.545 125.024 199.55L124.971 199.549ZM124.827 196.062C124.697 196.059 124.573 196.008 124.482 195.92C124.391 195.831 124.34 195.713 124.339 195.589L124.379 193.842C124.378 193.78 124.391 193.719 124.416 193.662C124.441 193.605 124.477 193.554 124.524 193.51C124.57 193.467 124.625 193.433 124.685 193.411C124.745 193.388 124.809 193.377 124.874 193.379C125.002 193.385 125.122 193.437 125.21 193.525C125.299 193.613 125.348 193.73 125.349 193.851L125.309 195.598C125.307 195.722 125.253 195.84 125.161 195.926C125.068 196.013 124.944 196.061 124.814 196.062L124.827 196.062ZM124.906 192.568C124.841 192.568 124.778 192.556 124.719 192.532C124.66 192.508 124.606 192.473 124.562 192.429C124.517 192.384 124.483 192.332 124.46 192.275C124.438 192.217 124.428 192.156 124.431 192.095L124.471 190.348C124.473 190.224 124.527 190.107 124.619 190.02C124.712 189.934 124.836 189.885 124.966 189.885C125.031 189.886 125.095 189.9 125.154 189.925C125.213 189.951 125.266 189.987 125.311 190.032C125.355 190.077 125.389 190.131 125.411 190.189C125.434 190.247 125.443 190.308 125.44 190.37L125.402 192.067C125.399 192.19 125.346 192.306 125.253 192.39C125.16 192.475 125.035 192.521 124.907 192.518L124.906 192.568ZM124.984 189.074C124.855 189.071 124.731 189.02 124.64 188.931C124.549 188.843 124.497 188.724 124.497 188.601L124.536 186.853C124.539 186.731 124.593 186.615 124.685 186.53C124.778 186.446 124.903 186.4 125.031 186.403C125.096 186.402 125.16 186.415 125.22 186.438C125.28 186.462 125.334 186.497 125.38 186.541C125.425 186.585 125.461 186.638 125.485 186.695C125.509 186.753 125.52 186.814 125.519 186.876L125.48 188.623C125.474 188.744 125.419 188.859 125.327 188.942C125.234 189.026 125.112 189.073 124.984 189.074ZM125.063 185.579C124.934 185.576 124.812 185.525 124.723 185.436C124.634 185.348 124.586 185.229 124.589 185.107L124.629 183.31C124.651 183.199 124.713 183.099 124.804 183.029C124.896 182.958 125.011 182.92 125.129 182.923C125.248 182.926 125.361 182.968 125.449 183.043C125.538 183.118 125.595 183.22 125.612 183.332L125.573 185.079C125.577 185.145 125.566 185.211 125.541 185.273C125.516 185.334 125.478 185.39 125.428 185.436C125.379 185.483 125.319 185.518 125.254 185.541C125.189 185.563 125.119 185.572 125.05 185.567L125.063 185.579ZM125.141 182.097C125.012 182.091 124.89 182.037 124.801 181.947C124.712 181.856 124.664 181.736 124.667 181.612L124.707 179.865C124.728 179.755 124.79 179.655 124.882 179.584C124.974 179.514 125.089 179.476 125.207 179.479C125.325 179.481 125.439 179.524 125.527 179.599C125.615 179.674 125.673 179.776 125.69 179.887L125.65 181.635C125.641 181.758 125.581 181.873 125.483 181.955C125.386 182.036 125.259 182.079 125.129 182.072L125.141 182.097ZM125.22 178.603C125.09 178.597 124.968 178.543 124.88 178.452C124.791 178.362 124.743 178.242 124.746 178.118L124.785 176.383C124.775 176.315 124.78 176.246 124.801 176.18C124.822 176.114 124.858 176.054 124.906 176.002C124.954 175.951 125.013 175.91 125.079 175.883C125.145 175.855 125.217 175.842 125.289 175.844C125.361 175.845 125.432 175.862 125.497 175.892C125.562 175.922 125.619 175.966 125.665 176.019C125.71 176.073 125.743 176.135 125.761 176.202C125.779 176.268 125.781 176.338 125.768 176.406L125.729 178.153C125.719 178.274 125.661 178.387 125.567 178.469C125.472 178.55 125.348 178.594 125.22 178.591L125.22 178.603Z" fill="white"/>
<path d="M125.278 202.203C125.161 202.199 125.049 202.155 124.962 202.08C124.875 202.005 124.818 201.903 124.802 201.793L124.706 200.854C124.698 200.793 124.703 200.731 124.722 200.672C124.74 200.613 124.771 200.558 124.813 200.511C124.854 200.464 124.906 200.425 124.964 200.398C125.022 200.371 125.085 200.355 125.15 200.352C125.277 200.341 125.403 200.378 125.502 200.455C125.601 200.532 125.664 200.643 125.678 200.763L125.775 201.69C125.783 201.751 125.778 201.812 125.76 201.871C125.743 201.93 125.713 201.985 125.673 202.033C125.633 202.081 125.583 202.121 125.527 202.15C125.47 202.18 125.408 202.198 125.344 202.204L125.278 202.203Z" fill="white"/>
<path opacity="0.4" d="M89.9967 177.086C90.9387 176.595 91.6912 176.949 91.6701 177.885C91.6089 178.416 91.4189 178.925 91.1153 179.373C90.8117 179.821 90.4027 180.196 89.9205 180.468C88.9786 180.958 88.2263 180.592 88.2471 179.668C88.3054 179.137 88.4941 178.626 88.798 178.178C89.1019 177.729 89.5126 177.355 89.9967 177.086Z" fill="black"/>
<path opacity="0.4" d="M125.411 170.117C126.353 169.626 127.105 169.981 127.084 170.916C127.024 171.446 126.834 171.954 126.531 172.4C126.227 172.846 125.817 173.219 125.335 173.487C124.393 173.99 123.64 173.623 123.661 172.7C123.719 172.168 123.908 171.658 124.212 171.209C124.516 170.76 124.927 170.386 125.411 170.117Z" fill="black"/>
<path opacity="0.4" d="M161.2 145.952C162.142 145.461 162.895 145.827 162.874 146.751C162.816 147.282 162.627 147.793 162.323 148.242C162.019 148.69 161.608 149.064 161.124 149.334C160.169 149.824 159.43 149.47 159.451 148.534C159.508 148.002 159.696 147.491 160 147.043C160.304 146.594 160.716 146.22 161.2 145.952Z" fill="black"/>
<path opacity="0.4" d="M74.4063 187.572C74.4635 187.544 74.514 187.505 74.555 187.457C74.5959 187.41 74.6265 187.355 74.645 187.296C74.6634 187.237 74.6693 187.175 74.6623 187.114C74.6553 187.053 74.6355 186.994 74.6042 186.94C74.5729 186.886 74.5309 186.839 74.4804 186.802C74.43 186.764 74.3722 186.736 74.3104 186.719C74.2486 186.703 74.1839 186.698 74.1203 186.705C74.0566 186.713 73.9951 186.732 73.9395 186.763L72.6132 187.432L72.7214 182.627L74.5126 181.694C74.5697 181.665 74.6202 181.626 74.6612 181.579C74.7021 181.531 74.7327 181.476 74.7512 181.418C74.7696 181.359 74.7755 181.297 74.7685 181.236C74.7615 181.175 74.7417 181.115 74.7104 181.061C74.647 180.954 74.5422 180.874 74.4182 180.839C74.2942 180.803 74.1607 180.815 74.0459 180.872L72.7194 181.553L72.8335 176.487C72.8329 176.365 72.7834 176.248 72.6951 176.161C72.6068 176.073 72.4865 176.02 72.359 176.014C72.2304 176.011 72.106 176.057 72.0131 176.142C71.9202 176.226 71.8665 176.342 71.8637 176.465L71.7364 182.118L69.9322 183.051C69.8761 183.081 69.8268 183.121 69.7871 183.169C69.7475 183.217 69.7182 183.272 69.701 183.331C69.6838 183.39 69.6791 183.451 69.6871 183.512C69.695 183.572 69.7156 183.631 69.7475 183.684C69.7882 183.755 69.8482 183.814 69.921 183.855C69.9939 183.896 70.0771 183.918 70.1618 183.918C70.2493 183.923 70.3364 183.903 70.4122 183.861L71.7384 183.192L71.6302 187.997L69.826 188.93C69.7321 188.979 69.6581 189.056 69.6155 189.15C69.5728 189.243 69.5639 189.348 69.5901 189.447C69.6163 189.546 69.6762 189.634 69.7604 189.697C69.8446 189.76 69.9484 189.795 70.0556 189.797C70.1431 189.802 70.2302 189.782 70.306 189.74L71.6322 189.07L71.524 193.875L69.7198 194.808C69.6624 194.837 69.6118 194.876 69.571 194.924C69.5303 194.972 69.5003 195.027 69.483 195.086C69.4657 195.145 69.4614 195.208 69.4703 195.269C69.4793 195.33 69.5013 195.388 69.5351 195.441C69.574 195.514 69.6332 195.576 69.7062 195.619C69.7791 195.663 69.8631 195.686 69.9491 195.688C70.0321 195.688 70.1138 195.669 70.1864 195.63L71.5129 194.949L71.4047 199.753L69.6005 200.687C69.5434 200.715 69.4928 200.754 69.4519 200.802C69.4109 200.849 69.3803 200.904 69.3619 200.963C69.3434 201.022 69.3376 201.083 69.3446 201.145C69.3516 201.206 69.3713 201.265 69.4027 201.319C69.4459 201.391 69.5078 201.452 69.5826 201.495C69.6574 201.538 69.7425 201.563 69.8298 201.566C69.9128 201.566 69.9945 201.547 70.0671 201.509L71.3936 200.827L71.2854 205.631L69.4812 206.565C69.4241 206.593 69.3735 206.632 69.3326 206.68C69.2916 206.727 69.261 206.782 69.2426 206.841C69.2241 206.9 69.2183 206.962 69.2253 207.023C69.2323 207.084 69.252 207.143 69.2834 207.197C69.3266 207.269 69.3885 207.33 69.4633 207.373C69.538 207.417 69.6232 207.441 69.7105 207.444C69.7878 207.462 69.8684 207.464 69.9464 207.449L71.2729 206.767L71.1647 211.572L69.3605 212.505C69.2477 212.565 69.1639 212.665 69.127 212.783C69.0901 212.901 69.1029 213.028 69.1627 213.138C69.2059 213.21 69.2678 213.271 69.3426 213.314C69.4174 213.357 69.5025 213.381 69.5898 213.384C69.6725 213.383 69.7537 213.363 69.8271 213.327L71.1536 212.646L71.0454 217.45L69.2412 218.383C69.1284 218.443 69.0447 218.543 69.0077 218.661C68.9708 218.779 68.9836 218.906 69.0434 219.016C69.0845 219.087 69.1441 219.147 69.2167 219.19C69.2892 219.234 69.3721 219.258 69.4574 219.262C69.5445 219.263 69.6305 219.243 69.7078 219.205L71.0343 218.524C70.9984 220.121 70.9624 221.718 70.9267 223.303L69.0826 224.261C68.9829 224.306 68.9024 224.382 68.8546 224.477C68.8068 224.572 68.7946 224.68 68.8198 224.782C68.845 224.885 68.9063 224.976 68.9934 225.041C69.0805 225.106 69.1882 225.141 69.2988 225.14C69.3859 225.14 69.4718 225.121 69.5492 225.083L70.9689 224.341C71.0344 226.09 71.1523 227.841 71.3365 229.556C71.3526 229.666 71.4091 229.768 71.4961 229.843C71.5832 229.918 71.6952 229.962 71.8124 229.966C71.8765 229.96 71.9387 229.941 71.9952 229.912C72.0517 229.883 72.1015 229.843 72.1416 229.795C72.1817 229.747 72.2114 229.692 72.229 229.633C72.2465 229.574 72.2515 229.512 72.2436 229.451C72.049 227.611 71.9217 225.698 71.8585 223.849L73.5567 222.963C73.6711 222.904 73.7561 222.805 73.7932 222.686C73.8303 222.568 73.8164 222.44 73.7545 222.331C73.6926 222.222 73.5879 222.14 73.4633 222.105C73.3387 222.069 73.2044 222.082 73.0901 222.141L71.843 222.787C71.8787 221.202 71.8361 219.603 71.9507 218.007L73.7287 217.074C73.8405 217.016 73.9239 216.918 73.9609 216.802C73.9979 216.686 73.9854 216.561 73.9262 216.454C73.8961 216.399 73.8549 216.351 73.805 216.312C73.7551 216.273 73.6975 216.244 73.6356 216.226C73.5737 216.208 73.5088 216.202 73.4446 216.209C73.3804 216.216 73.3183 216.234 73.2618 216.264L71.9356 216.933L72.0438 212.129L73.8218 211.195C73.8806 211.167 73.9329 211.129 73.9755 211.082C74.0182 211.034 74.0503 210.979 74.07 210.92C74.0897 210.86 74.0965 210.798 74.09 210.736C74.0836 210.673 74.064 210.613 74.0324 210.558C74.0008 210.504 73.9579 210.456 73.9063 210.417C73.8547 210.378 73.7955 210.35 73.7322 210.334C73.6689 210.318 73.6028 210.314 73.538 210.323C73.4731 210.332 73.4108 210.353 73.3549 210.385L72.0286 211.055L72.1369 206.25L73.928 205.316C73.984 205.287 74.0333 205.247 74.073 205.199C74.1127 205.151 74.142 205.096 74.1591 205.037C74.1763 204.978 74.1811 204.917 74.1731 204.856C74.1651 204.795 74.1446 204.737 74.1127 204.684C74.0472 204.578 73.9414 204.501 73.8175 204.468C73.6936 204.435 73.5612 204.449 73.448 204.506L72.1217 205.176L72.2299 200.371L74.0211 199.438C74.1337 199.377 74.2165 199.277 74.2511 199.158C74.2857 199.039 74.2694 198.912 74.2058 198.805C74.1421 198.698 74.0363 198.619 73.9117 198.585C73.787 198.552 73.6537 198.567 73.5411 198.628L72.2148 199.297L72.323 194.492L74.1142 193.559C74.1716 193.531 74.2222 193.491 74.2629 193.443C74.3036 193.396 74.3336 193.34 74.3509 193.281C74.3682 193.222 74.3725 193.16 74.3636 193.099C74.3546 193.038 74.3326 192.979 74.2989 192.926C74.2703 192.872 74.2302 192.824 74.1811 192.785C74.132 192.746 74.075 192.718 74.0137 192.701C73.9524 192.684 73.8882 192.68 73.8251 192.688C73.762 192.697 73.7014 192.717 73.6473 192.749L72.321 193.419L72.4318 188.502L74.4063 187.572Z" fill="black"/>
<path d="M196.198 219.158L101.124 268.645C97.7811 270.381 93.0025 270.061 90.6563 267.698C88.3101 265.335 89.3859 261.814 92.7291 260.078L187.724 210.602C189.324 209.775 191.159 209.455 192.964 209.689C194.77 209.922 196.451 210.697 197.765 211.902C200.176 214.278 199.541 217.46 196.198 219.158Z" fill="#79D7BE"/>
<path opacity="0.4" d="M74.2793 241.521C74.1131 241.539 73.9454 241.499 73.8082 241.408C73.671 241.316 73.5738 241.18 73.5352 241.025C73.4966 240.869 73.5192 240.706 73.5988 240.566C73.6783 240.426 73.8093 240.319 73.9667 240.265L180.994 184.579C181.152 184.518 181.328 184.513 181.489 184.567C181.65 184.621 181.784 184.73 181.867 184.872C181.95 185.014 181.975 185.18 181.937 185.339C181.899 185.497 181.802 185.636 181.663 185.731L74.6211 241.479C74.5136 241.523 74.3952 241.537 74.2793 241.521Z" fill="black"/>
<path opacity="0.4" d="M76.3185 247.023C76.1961 247.019 76.0768 246.984 75.9725 246.923C75.8681 246.861 75.7823 246.775 75.7233 246.673C75.6358 246.52 75.615 246.34 75.6654 246.173C75.7158 246.006 75.8333 245.865 75.9925 245.78L183.048 190.032C183.127 189.989 183.214 189.962 183.304 189.952C183.394 189.942 183.486 189.949 183.573 189.973C183.661 189.997 183.742 190.037 183.813 190.092C183.884 190.146 183.943 190.214 183.986 190.29C184.073 190.443 184.094 190.623 184.044 190.79C183.993 190.957 183.876 191.098 183.717 191.183L76.7008 246.932C76.5864 246.999 76.4529 247.031 76.3185 247.023Z" fill="black"/>
<path opacity="0.4" d="M78.8619 252.299C78.7046 252.3 78.5515 252.25 78.4277 252.158C78.304 252.065 78.2168 251.935 78.1805 251.789C78.1442 251.643 78.1609 251.49 78.2279 251.355C78.2949 251.219 78.4082 251.11 78.5492 251.044L185.618 195.271C185.776 195.21 185.952 195.206 186.113 195.26C186.274 195.313 186.408 195.422 186.491 195.564C186.574 195.706 186.598 195.872 186.561 196.031C186.523 196.189 186.426 196.329 186.287 196.423L79.2049 252.207C79.0983 252.26 78.9816 252.291 78.8619 252.299Z" fill="black"/>
<path opacity="0.4" d="M81.9081 257.337C81.7856 257.333 81.6664 257.298 81.562 257.237C81.4577 257.175 81.3718 257.089 81.3129 256.987C81.268 256.913 81.2394 256.83 81.2287 256.745C81.218 256.66 81.2254 256.574 81.2505 256.492C81.2756 256.41 81.3179 256.333 81.3748 256.267C81.4318 256.201 81.5022 256.146 81.5818 256.106L188.664 200.334C188.821 200.273 188.997 200.268 189.158 200.322C189.319 200.376 189.454 200.485 189.537 200.627C189.619 200.769 189.644 200.935 189.607 201.094C189.569 201.252 189.471 201.392 189.333 201.486L82.2505 257.27C82.1454 257.323 82.0267 257.346 81.9081 257.337Z" fill="black"/>
</g>
<path d="M176.377 163.124L264.499 117.251C267.842 115.516 273.121 114.561 276.044 115.763C278.968 116.965 278.351 119.898 275.007 121.633L185.864 168.033C182.52 169.78 177.825 169.862 175.234 168.455C172.643 167.048 173.033 164.859 176.377 163.124Z" fill="#79D7BE"/>
<path opacity="0.4" d="M186.172 176.505C186.05 176.501 185.93 176.466 185.826 176.405C185.722 176.343 185.636 176.257 185.577 176.155C185.491 176 185.472 175.82 185.525 175.652C185.578 175.485 185.698 175.345 185.859 175.262L287.382 122.399C287.542 122.316 287.731 122.296 287.906 122.345C288.082 122.393 288.23 122.505 288.32 122.657C288.365 122.733 288.393 122.817 288.402 122.903C288.412 122.99 288.404 123.077 288.378 123.161C288.351 123.244 288.308 123.321 288.249 123.388C288.191 123.455 288.119 123.51 288.038 123.55L186.515 176.413C186.412 176.473 186.293 176.505 186.172 176.505Z" fill="black"/>
<path opacity="0.4" d="M190.23 180.867C190.108 180.862 189.988 180.828 189.884 180.766C189.78 180.705 189.694 180.619 189.635 180.516C189.548 180.362 189.53 180.181 189.583 180.014C189.635 179.847 189.756 179.706 189.917 179.624L291.598 126.689C291.676 126.646 291.763 126.619 291.852 126.609C291.941 126.599 292.032 126.607 292.118 126.631C292.205 126.655 292.285 126.695 292.355 126.75C292.424 126.804 292.482 126.871 292.524 126.947C292.611 127.1 292.632 127.279 292.582 127.446C292.531 127.614 292.414 127.755 292.254 127.84L190.573 180.787C190.467 180.838 190.349 180.866 190.23 180.867Z" fill="black"/>
<path opacity="0.4" d="M205.761 230.086C205.696 230.085 205.632 230.071 205.573 230.046C205.514 230.02 205.46 229.984 205.416 229.939C205.372 229.894 205.338 229.84 205.315 229.782C205.293 229.724 205.283 229.663 205.286 229.601L205.4 224.534C205.486 220.728 205.486 220.728 205.44 218.142L205.449 217.718C205.282 211.815 204.226 205.963 202.313 200.342C200.403 194.804 197.454 189.64 193.61 185.101C193.53 185.003 193.495 184.879 193.511 184.756C193.527 184.634 193.594 184.523 193.696 184.447C193.799 184.372 193.929 184.338 194.058 184.354C194.186 184.37 194.303 184.433 194.383 184.531C198.285 189.16 201.276 194.423 203.211 200.063C205.161 205.739 206.247 211.65 206.435 217.615L206.425 218.052C206.484 220.651 206.484 220.651 206.385 224.494L206.271 229.561C206.279 229.628 206.271 229.697 206.249 229.761C206.227 229.826 206.19 229.885 206.142 229.935C206.093 229.984 206.034 230.024 205.968 230.05C205.903 230.076 205.832 230.088 205.761 230.086Z" fill="black"/>
<path d="M205.651 190.129C205.222 189.37 204.753 188.635 204.259 187.9C204.133 187.728 204.046 187.533 204.005 187.328C203.965 187.122 203.97 186.911 204.022 186.708C204.074 186.504 204.17 186.314 204.305 186.149C204.44 185.985 204.611 185.849 204.805 185.752L243.599 165.55C244.007 165.333 244.486 165.275 244.938 165.388C245.39 165.5 245.78 165.775 246.024 166.154C246.467 166.876 246.896 167.647 247.284 168.442C247.482 168.846 247.512 169.305 247.369 169.728C247.225 170.151 246.919 170.506 246.512 170.722L207.93 190.805C207.735 190.906 207.52 190.968 207.299 190.989C207.078 191.009 206.854 190.988 206.642 190.925C206.429 190.862 206.232 190.759 206.062 190.622C205.892 190.485 205.752 190.318 205.651 190.129Z" fill="#79D7BE"/>
<path d="M209.195 198.674C209.452 199.517 209.708 200.346 209.925 201.188C209.971 201.376 210.062 201.552 210.19 201.701C210.319 201.85 210.482 201.969 210.667 202.048C210.852 202.127 211.054 202.165 211.257 202.157C211.459 202.15 211.657 202.098 211.834 202.005L303.871 154.072C304.294 153.834 304.628 153.477 304.828 153.05C305.028 152.623 305.083 152.147 304.987 151.688C304.757 150.821 304.514 149.979 304.27 149.174C304.226 148.972 304.131 148.783 303.992 148.625C303.854 148.466 303.676 148.342 303.475 148.265C303.274 148.187 303.057 148.158 302.841 148.18C302.626 148.203 302.42 148.275 302.242 148.392L210.179 196.324C209.768 196.56 209.45 196.917 209.272 197.341C209.095 197.765 209.068 198.233 209.195 198.674Z" fill="#79D7BE"/>
<path opacity="0.7" d="M209.195 198.674C209.452 199.517 209.708 200.346 209.925 201.188C209.971 201.376 210.062 201.552 210.19 201.701C210.319 201.85 210.482 201.969 210.667 202.048C210.852 202.127 211.054 202.165 211.257 202.157C211.459 202.15 211.657 202.098 211.834 202.005L303.871 154.072C304.294 153.834 304.628 153.477 304.828 153.05C305.028 152.623 305.083 152.147 304.987 151.688C304.757 150.821 304.514 149.979 304.27 149.174C304.226 148.972 304.131 148.783 303.992 148.625C303.854 148.466 303.676 148.342 303.475 148.265C303.274 148.187 303.057 148.158 302.841 148.18C302.626 148.203 302.42 148.275 302.242 148.392L210.179 196.324C209.768 196.56 209.45 196.917 209.272 197.341C209.095 197.765 209.068 198.233 209.195 198.674Z" fill="white"/>
<path d="M211.583 210.24C211.68 211.166 211.752 212.067 211.811 212.93C211.787 213.114 211.82 213.3 211.907 213.467C211.994 213.633 212.131 213.771 212.3 213.863C212.47 213.955 212.664 213.997 212.858 213.984C213.052 213.971 213.238 213.903 213.391 213.789L275.748 181.32C276.193 181.064 276.559 180.702 276.81 180.27C277.061 179.837 277.189 179.349 277.181 178.855C277.122 177.954 277.037 177.066 276.953 176.165C276.955 175.975 276.901 175.788 276.798 175.625C276.694 175.462 276.545 175.33 276.368 175.243C276.19 175.156 275.99 175.118 275.791 175.133C275.592 175.148 275.402 175.215 275.241 175.328L212.884 207.785C212.454 208.042 212.105 208.407 211.876 208.84C211.647 209.272 211.545 209.756 211.583 210.24Z" fill="#79D7BE"/>
<path opacity="0.15" d="M211.583 210.24C211.68 211.166 211.752 212.067 211.811 212.93C211.787 213.114 211.82 213.3 211.907 213.467C211.994 213.633 212.131 213.771 212.3 213.863C212.47 213.955 212.664 213.997 212.858 213.984C213.052 213.971 213.238 213.903 213.391 213.789L275.748 181.32C276.193 181.064 276.559 180.702 276.81 180.27C277.061 179.837 277.189 179.349 277.181 178.855C277.122 177.954 277.037 177.066 276.953 176.165C276.955 175.975 276.901 175.788 276.798 175.625C276.694 175.462 276.545 175.33 276.368 175.243C276.19 175.156 275.99 175.118 275.791 175.133C275.592 175.148 275.402 175.215 275.241 175.328L212.884 207.785C212.454 208.042 212.105 208.407 211.876 208.84C211.647 209.272 211.545 209.756 211.583 210.24Z" fill="black"/>
<path d="M211.811 222.219L211.752 224.865C211.731 225.763 212.392 226.128 213.227 225.71L239.921 211.815C240.367 211.552 240.74 211.191 241.009 210.763C241.279 210.335 241.437 209.851 241.472 209.352L241.531 206.707C241.552 205.796 240.891 205.444 240.056 205.85L213.361 219.757C212.916 220.02 212.543 220.381 212.273 220.809C212.004 221.237 211.845 221.72 211.811 222.219Z" fill="#79D7BE"/>
<path opacity="0.5" d="M211.811 222.219L211.752 224.865C211.731 225.763 212.392 226.128 213.227 225.71L239.921 211.815C240.367 211.552 240.74 211.191 241.009 210.763C241.279 210.335 241.437 209.851 241.472 209.352L241.531 206.707C241.552 205.796 240.891 205.444 240.056 205.85L213.361 219.757C212.916 220.02 212.543 220.381 212.273 220.809C212.004 221.237 211.845 221.72 211.811 222.219Z" fill="white"/>
<path opacity="0.4" d="M306.688 182.641C306.556 182.638 306.429 182.685 306.333 182.772C306.238 182.859 306.183 182.978 306.18 183.104L306.129 185.363L299.018 189.061L299.056 187.376C299.039 187.264 298.981 187.162 298.893 187.087C298.805 187.013 298.691 186.97 298.573 186.967C298.455 186.965 298.34 187.002 298.248 187.073C298.156 187.144 298.094 187.243 298.073 187.354L298.023 189.575L290.911 193.286L290.949 191.626C290.962 191.558 290.959 191.489 290.941 191.422C290.924 191.355 290.891 191.293 290.845 191.24C290.8 191.186 290.742 191.143 290.678 191.112C290.613 191.082 290.542 191.065 290.469 191.064C290.397 191.062 290.326 191.076 290.259 191.103C290.193 191.13 290.134 191.171 290.086 191.222C290.038 191.274 290.003 191.334 289.982 191.4C289.961 191.466 289.955 191.536 289.966 191.604L289.916 193.8L282.805 197.498L282.841 195.876C282.844 195.752 282.796 195.632 282.708 195.541C282.619 195.451 282.497 195.397 282.367 195.39C282.302 195.389 282.238 195.4 282.178 195.423C282.118 195.445 282.063 195.479 282.016 195.522C281.97 195.566 281.934 195.617 281.909 195.674C281.884 195.731 281.871 195.792 281.872 195.854L281.823 198.013L274.698 201.723L274.734 200.126C274.737 200.003 274.689 199.884 274.6 199.796C274.511 199.707 274.388 199.656 274.26 199.653C274.131 199.65 274.007 199.696 273.914 199.78C273.821 199.865 273.767 199.981 273.765 200.104L273.717 202.238L266.592 205.948L266.627 204.375C266.63 204.314 266.621 204.253 266.598 204.196C266.576 204.139 266.541 204.086 266.497 204.042C266.452 203.998 266.399 203.963 266.34 203.939C266.281 203.915 266.217 203.902 266.153 203.903C266.089 203.901 266.026 203.912 265.966 203.934C265.907 203.956 265.853 203.988 265.807 204.03C265.761 204.072 265.724 204.122 265.698 204.178C265.673 204.233 265.659 204.293 265.658 204.354L265.61 206.463L258.473 210.16L258.507 208.625C258.491 208.514 258.433 208.411 258.345 208.336C258.256 208.262 258.143 208.219 258.025 208.216C257.907 208.214 257.791 208.251 257.7 208.322C257.608 208.393 257.546 208.492 257.524 208.603L257.478 210.674L250.366 214.385L250.4 212.875C250.384 212.763 250.326 212.661 250.237 212.586C250.149 212.511 250.036 212.469 249.918 212.466C249.8 212.464 249.684 212.501 249.593 212.572C249.501 212.643 249.439 212.742 249.417 212.853L249.371 214.899L242.26 218.597L242.292 217.175C242.275 217.063 242.218 216.961 242.129 216.886C242.041 216.811 241.928 216.769 241.809 216.766C241.691 216.763 241.576 216.801 241.484 216.872C241.393 216.942 241.331 217.042 241.309 217.152L241.264 219.162L234.152 222.872L234.185 221.424C234.168 221.313 234.111 221.211 234.022 221.136C233.934 221.061 233.821 221.019 233.702 221.016C233.584 221.013 233.469 221.051 233.377 221.121C233.286 221.192 233.224 221.292 233.202 221.402L233.157 223.387L226.046 227.097L226.078 225.674C226.061 225.563 226.004 225.461 225.915 225.386C225.827 225.311 225.713 225.268 225.595 225.266C225.477 225.263 225.362 225.3 225.27 225.371C225.179 225.442 225.117 225.542 225.095 225.652L225.051 227.612L217.94 231.309L217.971 229.924C217.954 229.813 217.897 229.711 217.808 229.636C217.72 229.561 217.606 229.518 217.488 229.516C217.37 229.513 217.255 229.55 217.163 229.621C217.072 229.692 217.009 229.792 216.988 229.902L216.945 231.824L210.775 235.044C210.718 235.072 210.667 235.111 210.626 235.159C210.585 235.206 210.555 235.261 210.536 235.32C210.518 235.379 210.512 235.441 210.519 235.502C210.526 235.563 210.546 235.622 210.577 235.676C210.62 235.748 210.682 235.809 210.757 235.852C210.832 235.896 210.917 235.92 211.004 235.923C211.089 235.923 211.172 235.899 211.242 235.853L216.92 232.897L216.878 234.794C216.894 234.906 216.952 235.008 217.04 235.083C217.129 235.157 217.242 235.2 217.36 235.203C217.478 235.205 217.593 235.168 217.685 235.097C217.777 235.026 217.839 234.927 217.861 234.816L217.915 232.383L225.027 228.685L224.985 230.519C225.002 230.631 225.06 230.733 225.148 230.808C225.236 230.883 225.35 230.925 225.468 230.928C225.586 230.931 225.701 230.893 225.793 230.822C225.884 230.752 225.947 230.652 225.968 230.541L226.022 228.145L233.134 224.435L233.092 226.269C233.109 226.381 233.167 226.483 233.255 226.558C233.343 226.633 233.457 226.675 233.575 226.678C233.693 226.681 233.808 226.643 233.9 226.572C233.991 226.502 234.054 226.402 234.075 226.292L234.129 223.92L241.24 220.222L241.199 222.02C241.216 222.131 241.274 222.233 241.362 222.308C241.45 222.383 241.564 222.425 241.682 222.428C241.8 222.431 241.915 222.393 242.007 222.323C242.099 222.252 242.161 222.152 242.182 222.042L242.236 219.671L249.347 215.973L249.307 217.745C249.324 217.856 249.381 217.958 249.47 218.033C249.558 218.108 249.671 218.151 249.79 218.153C249.908 218.156 250.023 218.119 250.114 218.048C250.206 217.977 250.268 217.877 250.29 217.767L250.342 215.458L257.453 211.748L257.414 213.495C257.431 213.606 257.488 213.709 257.577 213.783C257.665 213.858 257.778 213.901 257.897 213.903C258.015 213.906 258.13 213.869 258.222 213.798C258.313 213.727 258.375 213.628 258.397 213.517L258.447 211.296L265.558 207.598L265.52 209.307C265.52 209.429 265.57 209.546 265.658 209.634C265.746 209.722 265.867 209.774 265.994 209.78C266.058 209.781 266.121 209.771 266.181 209.749C266.24 209.727 266.294 209.694 266.34 209.652C266.386 209.611 266.423 209.561 266.449 209.505C266.474 209.45 266.488 209.39 266.49 209.329L266.54 207.083L273.665 203.373L273.627 205.057C273.624 205.18 273.672 205.299 273.761 205.387C273.85 205.476 273.973 205.527 274.101 205.53C274.23 205.533 274.354 205.487 274.447 205.403C274.54 205.318 274.594 205.202 274.597 205.079L274.648 202.796L281.773 199.085L281.735 200.745C281.732 200.868 281.781 200.986 281.87 201.075C281.959 201.164 282.081 201.215 282.21 201.218C282.337 201.218 282.46 201.171 282.552 201.087C282.644 201.003 282.699 200.888 282.705 200.767L282.755 198.571L289.866 194.873L289.829 196.495C289.846 196.606 289.903 196.709 289.992 196.784C290.08 196.858 290.194 196.901 290.312 196.904C290.43 196.906 290.545 196.869 290.637 196.798C290.728 196.727 290.79 196.628 290.812 196.517L290.861 194.358L297.972 190.648L297.937 192.208C297.954 192.319 298.011 192.421 298.1 192.496C298.188 192.571 298.301 192.614 298.42 192.616C298.538 192.619 298.653 192.582 298.745 192.511C298.836 192.44 298.898 192.34 298.92 192.23L298.968 190.096L306.079 186.398L306.044 187.958C306.061 188.069 306.118 188.172 306.207 188.246C306.295 188.321 306.409 188.364 306.527 188.366C306.645 188.369 306.76 188.332 306.852 188.261C306.943 188.19 307.005 188.091 307.027 187.98L307.137 183.088C307.131 182.975 307.082 182.868 307 182.785C306.917 182.703 306.807 182.652 306.688 182.641Z" fill="black"/>
<path d="M228.234 242.292C226.423 242.648 224.683 243.274 223.079 244.148C213.232 249.37 205.049 262.808 204.794 274.152C204.787 274.464 204.78 274.751 204.774 275.038L222.52 267.772L228.234 242.292Z" fill="#79D7BE"/>
<path d="M228.234 242.292L222.534 267.772L240.167 258.542C240.32 257.514 240.409 256.478 240.434 255.439C240.618 246.104 235.488 241.019 228.234 242.292Z" fill="#79D7BE"/>
<path d="M237.771 267.116C238.942 264.365 239.747 261.485 240.167 258.542L222.534 267.772L237.771 267.116Z" fill="#79D7BE"/>
<path d="M204.787 275.013C204.939 285.755 212.57 290.409 222.149 285.393C228.782 281.972 234.555 274.847 237.773 267.016L222.535 267.672L204.787 275.013Z" fill="#79D7BE"/>
<path opacity="0.7" d="M228.234 242.292L222.534 267.772L240.167 258.542C240.32 257.514 240.409 256.478 240.434 255.439C240.618 246.104 235.488 241.019 228.234 242.292Z" fill="white"/>
<path opacity="0.15" d="M237.771 267.116C238.942 264.365 239.747 261.485 240.167 258.542L222.534 267.772L237.771 267.116Z" fill="black"/>
<path opacity="0.5" d="M204.787 275.013C204.939 285.755 212.57 290.409 222.149 285.393C228.782 281.972 234.555 274.847 237.773 267.016L222.535 267.672L204.787 275.013Z" fill="white"/>
<path d="M204.772 275.7C204.643 275.694 204.517 275.657 204.408 275.592C204.312 275.532 204.234 275.452 204.179 275.357C204.124 275.262 204.094 275.156 204.092 275.048C204.099 274.748 204.106 274.449 204.113 274.137C204.373 262.593 212.732 248.885 222.751 243.579C224.42 242.668 226.232 242.017 228.118 241.652C228.23 241.631 228.346 241.638 228.456 241.671C228.565 241.704 228.664 241.762 228.743 241.841C228.822 241.918 228.881 242.012 228.913 242.115C228.945 242.218 228.949 242.327 228.926 242.432L223.199 267.937C223.178 268.038 223.131 268.134 223.063 268.215C222.995 268.296 222.908 268.36 222.808 268.402L205.061 275.669C204.968 275.696 204.87 275.707 204.772 275.7ZM227.336 243.17C225.95 243.531 224.617 244.055 223.368 244.729C213.76 249.819 205.742 262.936 205.426 274.029L221.876 267.307L227.336 243.17Z" fill="white"/>
<path d="M222.519 268.433C222.373 268.433 222.231 268.386 222.115 268.299C222.011 268.222 221.931 268.119 221.885 268.001C221.839 267.883 221.829 267.755 221.855 267.632L227.569 242.164C227.595 242.036 227.662 241.919 227.76 241.827C227.858 241.736 227.983 241.675 228.118 241.652C229.612 241.327 231.165 241.333 232.658 241.67C234.151 242.006 235.543 242.665 236.728 243.594C239.677 245.983 241.247 250.201 241.128 255.455C241.102 256.519 241.012 257.58 240.86 258.633C240.844 258.733 240.804 258.829 240.743 258.912C240.682 258.995 240.602 259.063 240.508 259.112L222.862 268.354C222.755 268.405 222.638 268.432 222.519 268.433ZM228.89 242.881L223.585 266.485L239.6 258.105C239.724 257.212 239.796 256.314 239.818 255.413C239.928 250.559 238.533 246.707 235.893 244.574C234.926 243.821 233.797 243.279 232.587 242.987C231.377 242.694 230.115 242.658 228.89 242.881Z" fill="white"/>
<path d="M222.518 268.433C222.372 268.431 222.229 268.383 222.113 268.297C221.997 268.211 221.913 268.092 221.874 267.957C221.826 267.815 221.831 267.662 221.89 267.524C221.948 267.387 222.055 267.273 222.192 267.202L239.839 257.961C239.95 257.902 240.075 257.872 240.202 257.875C240.328 257.878 240.452 257.913 240.56 257.977C240.666 258.046 240.751 258.141 240.804 258.252C240.857 258.364 240.876 258.487 240.86 258.608C240.426 261.59 239.603 264.507 238.409 267.293C238.359 267.407 238.277 267.506 238.171 267.579C238.065 267.652 237.94 267.695 237.81 267.704L222.559 268.359L222.518 268.433ZM239.287 259.759L225.463 266.939L237.275 266.431C238.173 264.275 238.846 262.04 239.287 259.759Z" fill="white"/>
<path d="M214.589 288.107C212.923 288.08 211.291 287.653 209.844 286.864C206.218 284.835 204.176 280.643 204.092 275.048C204.088 274.917 204.127 274.788 204.202 274.678C204.277 274.568 204.385 274.483 204.512 274.433L222.259 267.166C222.337 267.156 222.417 267.158 222.495 267.172L237.732 266.516C237.848 266.507 237.965 266.528 238.07 266.577C238.175 266.625 238.264 266.699 238.329 266.792C238.398 266.878 238.442 266.981 238.455 267.089C238.469 267.196 238.452 267.306 238.407 267.405C235.05 275.558 228.884 282.698 222.475 286.075C220.078 287.395 217.36 288.095 214.589 288.107ZM205.486 275.416C205.651 280.314 207.445 283.951 210.5 285.668C213.556 287.385 217.51 287.074 221.783 284.811C227.726 281.723 233.366 275.245 236.681 267.766L222.651 268.374L205.486 275.416Z" fill="white"/>
<path d="M280.334 216.383C274.459 222.819 270.334 231.903 270.152 239.965C269.968 243.061 270.669 246.149 272.18 248.9L287.983 230.69L280.334 216.383Z" fill="#79D7BE"/>
<path d="M296.442 207.956C293.634 207.868 290.86 208.551 288.452 209.924C285.366 211.603 282.618 213.79 280.334 216.383L287.985 230.665L296.442 207.956Z" fill="#79D7BE"/>
<path d="M304.355 213.491C303.719 211.951 302.638 210.614 301.238 209.634C299.837 208.654 298.174 208.073 296.442 207.956L287.984 230.69L304.355 213.491Z" fill="#79D7BE"/>
<path d="M304.354 213.491L287.984 230.69L272.18 248.925C275.088 253.673 280.816 254.926 287.516 251.443C297.361 246.309 305.557 232.871 305.815 221.402C305.955 218.696 305.456 215.992 304.354 213.491Z" fill="#79D7BE"/>
<path opacity="0.7" d="M296.442 207.956C293.634 207.868 290.86 208.551 288.452 209.924C285.366 211.603 282.618 213.79 280.334 216.383L287.985 230.665L296.442 207.956Z" fill="white"/>
<path opacity="0.15" d="M304.355 213.491C303.719 211.951 302.638 210.614 301.238 209.634C299.837 208.654 298.174 208.073 296.442 207.956L287.984 230.69L304.355 213.491Z" fill="black"/>
<path opacity="0.5" d="M304.354 213.491L287.984 230.69L272.18 248.925C275.088 253.673 280.816 254.926 287.516 251.443C297.361 246.309 305.557 232.871 305.815 221.402C305.955 218.696 305.456 215.992 304.354 213.491Z" fill="white"/>
<path d="M272.165 249.562C272.054 249.549 271.947 249.512 271.853 249.453C271.759 249.395 271.68 249.317 271.622 249.225C270.052 246.37 269.322 243.165 269.51 239.95C269.69 231.951 273.648 222.75 279.859 215.948C279.933 215.87 280.026 215.81 280.129 215.771C280.232 215.732 280.343 215.716 280.454 215.724C280.568 215.738 280.677 215.778 280.772 215.841C280.866 215.904 280.943 215.988 280.996 216.086L288.633 230.38C288.694 230.493 288.719 230.62 288.704 230.747C288.69 230.873 288.637 230.992 288.552 231.09L272.708 249.324C272.641 249.399 272.558 249.459 272.465 249.5C272.371 249.541 272.269 249.562 272.165 249.562ZM280.189 217.566C274.575 224.057 271.014 232.567 270.847 239.98C270.712 242.63 271.213 245.276 272.312 247.717L287.121 230.57L280.189 217.566Z" fill="white"/>
<path d="M287.97 231.326C287.843 231.325 287.719 231.291 287.612 231.227C287.504 231.163 287.418 231.071 287.362 230.963L279.724 216.682C279.662 216.564 279.637 216.431 279.654 216.3C279.671 216.17 279.729 216.047 279.82 215.947C282.142 213.291 284.951 211.057 288.111 209.354C290.633 207.913 293.54 207.198 296.483 207.295C296.59 207.301 296.694 207.331 296.787 207.383C296.879 207.435 296.957 207.508 297.014 207.595C297.075 207.677 297.114 207.773 297.128 207.873C297.142 207.974 297.13 208.076 297.093 208.171L288.635 230.892C288.588 231.013 288.505 231.118 288.396 231.195C288.287 231.273 288.158 231.318 288.022 231.327L287.97 231.326ZM281.158 216.477L287.864 229.014L295.471 208.584C293.111 208.711 290.818 209.37 288.78 210.506C285.896 212.063 283.318 214.083 281.158 216.477Z" fill="white"/>
<path d="M287.969 231.326C287.849 231.326 287.732 231.293 287.63 231.231C287.493 231.154 287.388 231.034 287.334 230.892C287.28 230.749 287.279 230.593 287.333 230.45L295.791 207.729C295.84 207.594 295.934 207.479 296.059 207.4C296.184 207.322 296.333 207.285 296.482 207.295C298.338 207.422 300.12 208.046 301.623 209.093C303.125 210.141 304.288 211.571 304.977 213.218C305.031 213.336 305.049 213.468 305.028 213.596C305.006 213.724 304.946 213.843 304.855 213.939L288.485 231.113C288.421 231.182 288.341 231.237 288.252 231.274C288.163 231.311 288.066 231.329 287.969 231.326ZM296.911 208.653L289.779 227.796L303.531 213.372C302.938 212.116 302.019 211.023 300.861 210.198C299.702 209.372 298.343 208.841 296.911 208.653Z" fill="white"/>
<path d="M279.984 254.058C278.261 254.04 276.573 253.583 275.096 252.735C273.619 251.888 272.406 250.68 271.583 249.236C271.503 249.123 271.462 248.989 271.465 248.853C271.468 248.717 271.515 248.585 271.6 248.475L287.391 230.252L303.788 213.054C303.863 212.97 303.96 212.907 304.069 212.87C304.178 212.833 304.295 212.824 304.409 212.843C304.52 212.86 304.626 212.903 304.716 212.968C304.806 213.033 304.878 213.119 304.925 213.217C306.075 215.798 306.599 218.593 306.458 221.392C306.196 233.035 297.823 246.768 287.793 251.986C285.426 253.316 282.734 254.03 279.984 254.058ZM273.033 248.907C275.938 253.205 281.193 253.91 287.177 250.786C296.822 245.772 304.87 232.543 305.123 221.312C305.221 219.056 304.886 216.802 304.132 214.66L288.487 231.063L273.033 248.907Z" fill="white"/>
<path d="M248.356 230.846L251.275 229.326C252.111 228.895 252.771 229.285 252.751 230.183L252.691 232.829C252.657 233.328 252.498 233.811 252.229 234.239C251.959 234.667 251.586 235.028 251.141 235.291L248.222 236.811C247.386 237.242 246.726 236.865 246.747 235.954L246.806 233.321C246.839 232.82 246.997 232.335 247.267 231.904C247.536 231.474 247.91 231.111 248.356 230.846Z" fill="#79D7BE"/>
<path d="M248.09 242.689L251.008 241.169C251.844 240.726 252.504 241.115 252.484 242.026L252.425 244.66C252.393 245.159 252.235 245.643 251.965 246.071C251.695 246.5 251.321 246.86 250.874 247.122L247.956 248.642C247.119 249.085 246.46 248.696 246.48 247.785L246.54 245.114C246.578 244.621 246.739 244.145 247.008 243.723C247.277 243.302 247.648 242.947 248.09 242.689Z" fill="#79D7BE"/>
<path opacity="0.7" d="M248.09 242.689L251.008 241.169C251.844 240.726 252.504 241.115 252.484 242.026L252.425 244.66C252.393 245.159 252.235 245.643 251.965 246.071C251.695 246.5 251.321 246.86 250.874 247.122L247.956 248.642C247.119 249.085 246.46 248.696 246.48 247.785L246.54 245.114C246.578 244.621 246.739 244.145 247.008 243.723C247.277 243.302 247.648 242.947 248.09 242.689Z" fill="white"/>
<path d="M247.823 254.52L250.742 253C251.578 252.569 252.238 252.946 252.217 253.857L252.158 256.49C252.123 256.988 251.964 257.472 251.694 257.9C251.425 258.328 251.053 258.688 250.608 258.952L247.689 260.472C246.853 260.903 246.193 260.514 246.214 259.615L246.273 256.969C246.309 256.473 246.469 255.992 246.738 255.566C247.008 255.14 247.379 254.782 247.823 254.52Z" fill="#79D7BE"/>
<path opacity="0.15" d="M247.823 254.52L250.742 253C251.578 252.569 252.238 252.946 252.217 253.857L252.158 256.49C252.123 256.988 251.964 257.472 251.694 257.9C251.425 258.328 251.053 258.688 250.608 258.952L247.689 260.472C246.853 260.903 246.193 260.514 246.214 259.615L246.273 256.969C246.309 256.473 246.469 255.992 246.738 255.566C247.008 255.14 247.379 254.782 247.823 254.52Z" fill="black"/>
<path d="M247.557 266.35L250.475 264.83C251.311 264.4 251.971 264.789 251.951 265.688L251.891 268.333C251.857 268.832 251.699 269.315 251.429 269.743C251.159 270.172 250.786 270.532 250.341 270.795L247.422 272.315C246.586 272.746 245.926 272.369 245.947 271.458L246.006 268.825C246.039 268.324 246.197 267.839 246.467 267.408C246.736 266.978 247.11 266.615 247.557 266.35Z" fill="#79D7BE"/>
<path opacity="0.5" d="M247.557 266.35L250.475 264.83C251.311 264.4 251.971 264.789 251.951 265.688L251.891 268.333C251.857 268.832 251.699 269.315 251.429 269.743C251.159 270.172 250.786 270.532 250.341 270.795L247.422 272.315C246.586 272.746 245.926 272.369 245.947 271.458L246.006 268.825C246.039 268.324 246.197 267.839 246.467 267.408C246.736 266.978 247.11 266.615 247.557 266.35Z" fill="white"/>
<path opacity="0.4" d="M255.701 230.749C255.53 230.745 255.362 230.697 255.217 230.611C255.071 230.524 254.952 230.401 254.873 230.256C254.754 230.043 254.727 229.793 254.798 229.561C254.87 229.329 255.034 229.134 255.255 229.016L264.131 224.397C264.355 224.306 264.606 224.298 264.836 224.374C265.067 224.45 265.259 224.604 265.377 224.807C265.495 225.01 265.529 225.248 265.474 225.473C265.419 225.699 265.278 225.897 265.078 226.028L256.188 230.66C256.036 230.727 255.869 230.758 255.701 230.749Z" fill="black"/>
<path opacity="0.4" d="M255.301 242.689C255.083 242.689 254.872 242.619 254.701 242.491C254.53 242.363 254.409 242.183 254.357 241.982C254.306 241.78 254.327 241.569 254.417 241.38C254.508 241.192 254.662 241.038 254.855 240.944L263.731 236.324C263.844 236.249 263.972 236.198 264.107 236.174C264.242 236.15 264.381 236.153 264.515 236.183C264.649 236.213 264.775 236.269 264.885 236.348C264.995 236.428 265.086 236.528 265.152 236.643C265.219 236.757 265.259 236.884 265.271 237.015C265.283 237.145 265.266 237.277 265.222 237.4C265.177 237.524 265.105 237.638 265.012 237.733C264.918 237.829 264.804 237.905 264.678 237.956L255.789 242.575C255.64 242.655 255.471 242.695 255.301 242.689Z" fill="black"/>
<path opacity="0.4" d="M254.849 254.64C254.636 254.633 254.431 254.559 254.265 254.431C254.1 254.303 253.982 254.127 253.93 253.93C253.879 253.733 253.895 253.526 253.978 253.339C254.061 253.152 254.205 252.996 254.39 252.895L263.279 248.275C263.503 248.162 263.765 248.137 264.008 248.205C264.252 248.274 264.458 248.43 264.582 248.642C264.695 248.856 264.718 249.104 264.647 249.334C264.576 249.564 264.416 249.76 264.2 249.882L255.311 254.501C255.172 254.584 255.013 254.632 254.849 254.64Z" fill="black"/>
<path opacity="0.4" d="M254.487 266.594C254.317 266.592 254.15 266.547 254.004 266.462C253.858 266.378 253.739 266.257 253.659 266.113C253.539 265.9 253.513 265.65 253.584 265.418C253.655 265.187 253.819 264.991 254.041 264.873L262.93 260.241C263.044 260.172 263.172 260.126 263.305 260.106C263.439 260.086 263.575 260.092 263.706 260.124C263.837 260.157 263.96 260.215 264.066 260.294C264.173 260.374 264.261 260.473 264.326 260.587C264.39 260.7 264.429 260.825 264.441 260.953C264.452 261.082 264.436 261.211 264.392 261.333C264.349 261.455 264.279 261.567 264.188 261.662C264.097 261.757 263.987 261.833 263.863 261.886L254.974 266.505C254.824 266.577 254.655 266.608 254.487 266.594Z" fill="black"/>
<path opacity="0.4" d="M205.143 307.56C204.971 307.556 204.804 307.508 204.658 307.421C204.512 307.334 204.394 307.212 204.315 307.067C204.195 306.853 204.168 306.604 204.24 306.372C204.311 306.14 204.475 305.944 204.697 305.827L246.317 284.152C246.541 284.039 246.803 284.014 247.046 284.082C247.29 284.151 247.496 284.307 247.62 284.519C247.735 284.734 247.758 284.984 247.684 285.215C247.61 285.446 247.446 285.64 247.225 285.758L205.616 307.495C205.466 307.552 205.304 307.574 205.143 307.56Z" fill="black"/>
<path opacity="0.4" d="M206.323 313.38C206.105 313.379 205.894 313.31 205.723 313.181C205.552 313.053 205.431 312.874 205.379 312.672C205.328 312.471 205.349 312.259 205.439 312.071C205.529 311.883 205.684 311.729 205.877 311.634L247.497 289.972C247.609 289.914 247.732 289.878 247.86 289.865C247.987 289.852 248.116 289.863 248.238 289.898C248.361 289.933 248.476 289.99 248.575 290.067C248.675 290.144 248.758 290.238 248.819 290.345C248.88 290.452 248.919 290.57 248.933 290.691C248.946 290.813 248.935 290.935 248.899 291.052C248.862 291.169 248.803 291.278 248.722 291.372C248.642 291.467 248.543 291.546 248.43 291.604L206.824 313.266C206.672 313.349 206.498 313.389 206.323 313.38Z" fill="black"/>
<path opacity="0.4" d="M208.096 319.026C207.883 319.018 207.679 318.945 207.513 318.817C207.347 318.688 207.23 318.513 207.178 318.316C207.126 318.119 207.143 317.911 207.226 317.724C207.309 317.538 207.453 317.382 207.637 317.28L249.244 295.618C249.357 295.543 249.485 295.492 249.62 295.468C249.755 295.443 249.895 295.446 250.028 295.476C250.162 295.506 250.288 295.563 250.398 295.642C250.508 295.721 250.599 295.822 250.665 295.936C250.732 296.051 250.773 296.178 250.785 296.308C250.797 296.439 250.78 296.57 250.735 296.694C250.69 296.818 250.619 296.931 250.525 297.027C250.431 297.123 250.317 297.199 250.191 297.25L208.584 318.912C208.435 318.99 208.267 319.029 208.096 319.026Z" fill="black"/>
<path opacity="0.4" d="M270.432 273.558C270.262 273.555 270.095 273.509 269.95 273.425C269.804 273.34 269.685 273.22 269.604 273.077C269.484 272.864 269.457 272.614 269.529 272.382C269.6 272.151 269.764 271.955 269.986 271.837L311.592 250.175C311.818 250.068 312.077 250.046 312.319 250.114C312.561 250.182 312.767 250.335 312.895 250.542C313.01 250.757 313.033 251.007 312.96 251.238C312.886 251.469 312.721 251.663 312.5 251.781L270.907 273.444C270.761 273.519 270.598 273.559 270.432 273.558Z" fill="black"/>
<path opacity="0.4" d="M271.625 279.378C271.454 279.375 271.288 279.33 271.142 279.245C270.996 279.161 270.877 279.041 270.796 278.898C270.677 278.684 270.65 278.435 270.721 278.203C270.793 277.971 270.957 277.775 271.178 277.658L312.785 255.995C313.01 255.888 313.27 255.867 313.511 255.935C313.753 256.003 313.959 256.155 314.088 256.362C314.203 256.577 314.226 256.827 314.152 257.058C314.078 257.289 313.914 257.484 313.693 257.602L272.099 279.264C271.954 279.34 271.79 279.379 271.625 279.378Z" fill="black"/>
<path opacity="0.4" d="M273.399 285.024C273.227 285.021 273.059 284.975 272.911 284.891C272.763 284.806 272.642 284.687 272.558 284.543C272.445 284.329 272.421 284.081 272.492 283.851C272.563 283.621 272.723 283.426 272.94 283.303L314.546 261.641C314.659 261.582 314.784 261.545 314.912 261.532C315.041 261.519 315.171 261.53 315.295 261.565C315.419 261.599 315.534 261.657 315.635 261.734C315.736 261.811 315.82 261.907 315.882 262.015C315.944 262.123 315.983 262.241 315.997 262.364C316.011 262.486 316 262.61 315.964 262.728C315.928 262.846 315.867 262.956 315.786 263.051C315.706 263.147 315.606 263.227 315.492 263.286L273.834 284.909C273.701 284.981 273.552 285.021 273.399 285.024Z" fill="black"/>
<path d="M219.224 325.632L314.087 276.227C315.608 275.395 317.397 275.121 319.118 275.456C320.839 275.792 322.373 276.713 323.434 278.048C325.38 280.702 324.49 284.103 321.147 285.85L226.259 335.242C222.915 336.977 218.365 336.4 216.445 333.772C214.524 331.145 215.894 327.367 219.224 325.632Z" fill="#79D7BE"/>
<path opacity="0.4" d="M234.12 351.214C233.948 351.208 233.781 351.161 233.634 351.077C233.487 350.993 233.364 350.874 233.278 350.733C233.163 350.517 233.14 350.268 233.214 350.037C233.288 349.806 233.452 349.611 233.673 349.493L275.268 327.793C275.493 327.686 275.753 327.664 275.994 327.732C276.236 327.8 276.442 327.953 276.571 328.16C276.687 328.374 276.712 328.622 276.641 328.853C276.57 329.084 276.408 329.28 276.189 329.4L234.582 351.062C234.445 351.151 234.285 351.203 234.12 351.214Z" fill="black"/>
<path opacity="0.4" d="M229.06 347.641C228.847 347.633 228.642 347.56 228.476 347.432C228.311 347.304 228.193 347.128 228.142 346.931C228.09 346.734 228.107 346.527 228.189 346.34C228.272 346.153 228.417 345.997 228.601 345.895L270.208 324.233C270.434 324.124 270.696 324.103 270.938 324.173C271.181 324.244 271.386 324.401 271.51 324.612C271.623 324.827 271.646 325.074 271.576 325.304C271.505 325.534 271.345 325.73 271.128 325.852L229.548 347.527C229.398 347.605 229.23 347.645 229.06 347.641Z" fill="black"/>
<path opacity="0.4" d="M239.49 354.381C239.319 354.375 239.153 354.326 239.008 354.239C238.862 354.153 238.743 354.032 238.662 353.888C238.543 353.675 238.516 353.425 238.587 353.193C238.659 352.961 238.823 352.766 239.044 352.648L280.664 330.974C280.889 330.867 281.149 330.845 281.391 330.913C281.632 330.981 281.838 331.134 281.967 331.34C282.082 331.556 282.105 331.805 282.031 332.036C281.958 332.267 281.793 332.462 281.572 332.58L239.978 354.242C239.829 354.324 239.662 354.371 239.49 354.381Z" fill="black"/>
<path opacity="0.4" d="M293.518 320.288C293.3 320.288 293.089 320.218 292.918 320.09C292.747 319.961 292.625 319.782 292.574 319.581C292.523 319.379 292.544 319.168 292.634 318.979C292.724 318.791 292.878 318.637 293.072 318.543L334.665 296.88C334.894 296.761 335.163 296.734 335.414 296.804C335.664 296.874 335.875 297.035 336.001 297.254C336.126 297.472 336.156 297.728 336.083 297.966C336.01 298.205 335.84 298.406 335.612 298.525L294.018 320.175C293.866 320.257 293.693 320.296 293.518 320.288Z" fill="black"/>
<path opacity="0.4" d="M288.458 316.716C288.245 316.708 288.041 316.634 287.875 316.506C287.709 316.378 287.592 316.203 287.54 316.006C287.488 315.809 287.505 315.601 287.588 315.414C287.671 315.227 287.815 315.071 287.999 314.97L329.606 293.32C329.83 293.207 330.092 293.182 330.335 293.25C330.579 293.319 330.785 293.475 330.909 293.686C331.024 293.902 331.047 294.151 330.973 294.383C330.899 294.614 330.735 294.808 330.514 294.926L288.92 316.589C288.778 316.663 288.62 316.706 288.458 316.716Z" fill="black"/>
<path opacity="0.4" d="M298.848 323.455C298.678 323.452 298.512 323.406 298.366 323.322C298.22 323.237 298.101 323.117 298.02 322.974C297.901 322.761 297.874 322.511 297.945 322.279C298.017 322.048 298.181 321.852 298.402 321.734L340.009 300.072C340.123 300.003 340.25 299.957 340.384 299.936C340.517 299.916 340.654 299.923 340.785 299.955C340.916 299.988 341.038 300.045 341.145 300.125C341.252 300.204 341.34 300.304 341.404 300.417C341.469 300.531 341.508 300.656 341.519 300.784C341.531 300.912 341.514 301.042 341.471 301.163C341.427 301.285 341.358 301.397 341.267 301.492C341.176 301.588 341.065 301.664 340.942 301.716L299.349 323.341C299.196 323.421 299.023 323.46 298.848 323.455Z" fill="black"/>
<path d="M298.831 351.623C290.03 346.517 274.898 346.539 265.054 351.661C255.21 356.783 254.367 365.08 263.181 370.185C271.995 375.291 287.113 375.282 296.958 370.159C306.802 365.037 307.618 356.74 298.831 351.623ZM292.402 367.51C285.37 371.172 274.566 371.191 268.276 367.541C261.986 363.89 262.578 357.96 269.61 354.298C276.642 350.636 287.446 350.629 293.749 354.28C300.052 357.931 299.434 363.847 292.402 367.51Z" fill="#79D7BE"/>
<path d="M274.165 356.948C278.384 354.745 284.876 354.692 288.654 356.925C292.432 359.157 292.065 362.67 287.846 364.872C283.626 367.075 277.135 367.128 273.422 364.885C269.71 362.641 269.946 359.138 274.165 356.948Z" fill="#79D7BE"/>
<path opacity="0.5" d="M274.165 356.948C278.384 354.745 284.876 354.692 288.654 356.925C292.432 359.157 292.065 362.67 287.846 364.872C283.626 367.075 277.135 367.128 273.422 364.885C269.71 362.641 269.946 359.138 274.165 356.948Z" fill="black"/>
<path opacity="0.15" d="M298.831 351.623C290.03 346.517 274.898 346.539 265.054 351.661C255.21 356.783 254.367 365.08 263.181 370.185C271.995 375.291 287.113 375.282 296.958 370.159C306.802 365.037 307.618 356.74 298.831 351.623ZM292.402 367.51C285.37 371.172 274.566 371.191 268.276 367.541C261.986 363.89 262.578 357.96 269.61 354.298C276.642 350.636 287.446 350.629 293.749 354.28C300.052 357.931 299.434 363.847 292.402 367.51Z" fill="black"/>
<path d="M274.13 348.606L276.083 352.122C280.032 351.349 284.109 351.369 288.053 352.179L290.885 348.684C285.363 347.556 279.658 347.529 274.13 348.606Z" fill="#79D7BE"/>
<path opacity="0.7" d="M274.13 348.606L276.083 352.122C280.032 351.349 284.109 351.369 288.053 352.179L290.885 348.684C285.363 347.556 279.658 347.529 274.13 348.606Z" fill="white"/>
<path opacity="0.4" d="M282.543 347.073C282.285 347.051 282.046 346.933 281.878 346.744C281.711 346.556 281.628 346.312 281.648 346.066L282.019 341.805L300.303 332.228C300.532 332.109 300.801 332.081 301.051 332.151C301.302 332.221 301.513 332.383 301.639 332.601C301.764 332.819 301.794 333.076 301.721 333.314C301.648 333.552 301.478 333.753 301.249 333.872L283.816 342.969L283.532 346.234C283.51 346.467 283.396 346.684 283.212 346.84C283.028 346.996 282.789 347.079 282.543 347.073Z" fill="black"/>
<path d="M352.311 323.798C343.497 318.692 328.378 318.714 318.521 323.836C308.663 328.957 307.834 337.254 316.648 342.36C325.462 347.465 340.594 347.457 350.438 342.334C360.282 337.212 361.125 328.903 352.311 323.798ZM345.882 339.685C338.851 343.347 328.046 343.366 321.743 339.715C315.44 336.065 316.058 330.135 323.09 326.473C330.122 322.811 340.926 322.804 347.216 326.455C353.506 330.105 352.914 336.022 345.882 339.685Z" fill="#79D7BE"/>
<path d="M327.646 329.123C331.865 326.92 338.343 326.867 342.069 329.098C345.795 331.33 345.493 334.844 341.261 337.046C337.029 339.248 330.563 339.302 326.838 337.058C323.112 334.814 323.425 331.375 327.646 329.123Z" fill="#79D7BE"/>
<path opacity="0.5" d="M327.646 329.123C331.865 326.92 338.343 326.867 342.069 329.098C345.795 331.33 345.493 334.844 341.261 337.046C337.029 339.248 330.563 339.302 326.838 337.058C323.112 334.814 323.425 331.375 327.646 329.123Z" fill="black"/>
<path opacity="0.15" d="M352.311 323.798C343.497 318.692 328.378 318.714 318.521 323.836C308.663 328.957 307.834 337.254 316.648 342.36C325.462 347.465 340.594 347.457 350.438 342.334C360.282 337.212 361.125 328.903 352.311 323.798ZM345.882 339.685C338.851 343.347 328.046 343.366 321.743 339.715C315.44 336.065 316.058 330.135 323.09 326.473C330.122 322.811 340.926 322.804 347.216 326.455C353.506 330.105 352.914 336.022 345.882 339.685Z" fill="black"/>
<path d="M352.311 323.798C344.869 319.485 332.925 318.841 323.509 321.838L326.662 325.043C333.424 322.91 341.949 323.377 347.268 326.456C348.154 326.964 348.965 327.583 349.679 328.296L355.74 326.384C354.725 325.379 353.571 324.509 352.311 323.798Z" fill="#79D7BE"/>
<path opacity="0.7" d="M352.311 323.798C344.869 319.485 332.925 318.841 323.509 321.838L326.662 325.043C333.424 322.91 341.949 323.377 347.268 326.456C348.154 326.964 348.965 327.583 349.679 328.296L355.74 326.384C354.725 325.379 353.571 324.509 352.311 323.798Z" fill="white"/>
<path opacity="0.4" d="M336.169 319.176L336.104 319.175C335.846 319.153 335.607 319.035 335.439 318.846C335.271 318.658 335.189 318.414 335.209 318.168L335.58 313.894L353.863 304.379C354.086 304.289 354.338 304.281 354.568 304.357C354.798 304.433 354.991 304.587 355.108 304.79C355.226 304.993 355.261 305.231 355.206 305.456C355.15 305.682 355.009 305.88 354.809 306.011L337.403 315.034L337.12 318.311C337.105 318.543 336.999 318.761 336.822 318.921C336.646 319.081 336.413 319.173 336.169 319.176Z" fill="black"/>
<path opacity="0.4" d="M287.378 382.13C287.161 382.127 286.951 382.055 286.781 381.926C286.611 381.797 286.49 381.618 286.438 381.417C286.385 381.217 286.404 381.005 286.491 380.816C286.579 380.627 286.729 380.47 286.92 380.371L387.91 327.833C388.137 327.716 388.404 327.689 388.652 327.759C388.775 327.794 388.89 327.851 388.989 327.928C389.089 328.005 389.172 328.099 389.233 328.206C389.294 328.314 389.333 328.431 389.346 328.552C389.36 328.674 389.348 328.796 389.312 328.913C389.276 329.03 389.216 329.139 389.136 329.233C389.056 329.328 388.956 329.407 388.844 329.465L287.814 382.015C287.678 382.081 287.53 382.12 287.378 382.13Z" fill="black"/>
<path opacity="0.4" d="M292.646 385.195C292.434 385.185 292.231 385.11 292.068 384.981C291.904 384.852 291.789 384.676 291.739 384.479C291.689 384.283 291.706 384.077 291.79 383.891C291.873 383.706 292.017 383.551 292.2 383.45L393.231 330.862C393.344 330.788 393.472 330.737 393.607 330.712C393.743 330.688 393.882 330.691 394.016 330.721C394.149 330.751 394.275 330.808 394.385 330.887C394.495 330.966 394.586 331.066 394.653 331.181C394.719 331.296 394.76 331.423 394.772 331.553C394.784 331.684 394.767 331.815 394.722 331.939C394.677 332.063 394.606 332.176 394.512 332.272C394.418 332.367 394.304 332.443 394.178 332.494L293.147 385.082C292.993 385.161 292.821 385.2 292.646 385.195Z" fill="black"/>
<path opacity="0.4" d="M297.966 388.237C297.795 388.23 297.629 388.181 297.484 388.095C297.339 388.008 297.22 387.887 297.138 387.744C297.019 387.53 296.992 387.281 297.063 387.049C297.135 386.817 297.299 386.621 297.52 386.504L398.603 333.943C398.83 333.825 399.097 333.798 399.345 333.868C399.593 333.938 399.802 334.099 399.926 334.316C400.05 334.532 400.078 334.786 400.005 335.022C399.932 335.258 399.764 335.457 399.537 335.574L298.505 388.174C298.334 388.236 298.149 388.258 297.966 388.237Z" fill="black"/>
</g>
<defs>
<filter id="filter0_d_403_5852" x="0.801758" y="0.778137" width="452.678" height="436.209" filterUnits="userSpaceOnUse" color-interpolation-filters="sRGB">
<feFlood flood-opacity="0" result="BackgroundImageFix"/>
<feColorMatrix in="SourceAlpha" type="matrix" values="0 0 0 0 0 0 0 0 0 0 0 0 0 0 0 0 0 0 127 0" result="hardAlpha"/>
<feOffset dx="2" dy="2"/>
<feGaussianBlur stdDeviation="15"/>
<feComposite in2="hardAlpha" operator="out"/>
<feColorMatrix type="matrix" values="0 0 0 0 0 0 0 0 0 0 0 0 0 0 0 0 0 0 0.15 0"/>
<feBlend mode="normal" in2="BackgroundImageFix" result="effect1_dropShadow_403_5852"/>
<feBlend mode="normal" in="SourceGraphic" in2="effect1_dropShadow_403_5852" result="shape"/>
</filter>
</defs>
</svg>
