<svg width="40" height="40" viewBox="0 0 40 40" fill="none" xmlns="http://www.w3.org/2000/svg">
<mask id="mask0_799_355" style="mask-type:luminance" maskUnits="userSpaceOnUse" x="0" y="0" width="40" height="40">
<path d="M0 0H40V40H0V0Z" fill="white"/>
</mask>
<g mask="url(#mask0_799_355)">
<path d="M19.9997 39.4141H35.8331C37.8106 39.4141 39.4138 37.8109 39.4138 35.8334V20H19.9997L16.1196 29.1698L19.9997 39.4141Z" fill="#16423C"/>
<path d="M30.8396 11.9727C29.4841 11.9727 28.3849 10.8734 28.3849 9.51719C28.3849 8.16094 29.4841 7.0625 30.8396 7.0625C32.1958 7.0625 33.2951 8.16094 33.2951 9.51719C33.2951 10.8734 32.1958 11.9727 30.8396 11.9727ZM37.5177 11.3328L36.5185 10.7555C36.6053 10.3562 36.6521 9.94219 36.6521 9.51719C36.6521 9.09219 36.6053 8.67813 36.5185 8.27891L37.5177 7.70156C38.0232 7.40938 38.1966 6.76328 37.9045 6.25703L37.1958 5.02891C36.9036 4.52266 36.2568 4.35 35.7513 4.64141L34.7513 5.21875C34.1412 4.6625 33.4115 4.23594 32.606 3.97891V2.82578C32.606 2.24219 32.1326 1.76875 31.549 1.76875H30.1302C29.5466 1.76875 29.0733 2.24219 29.0733 2.82578V3.97891C28.2677 4.23594 27.538 4.6625 26.9279 5.21875L25.9287 4.64141C25.4224 4.35 24.7764 4.52266 24.4841 5.02891L23.7747 6.25703C23.4826 6.76328 23.6561 7.40938 24.1615 7.70156L25.1615 8.27891C25.0747 8.67813 25.0279 9.09219 25.0279 9.51719C25.0279 9.94219 25.0747 10.3562 25.1615 10.7555L24.1615 11.3328C23.6561 11.625 23.4826 12.2719 23.7747 12.7773L24.4841 14.0055C24.7764 14.5117 25.4224 14.6844 25.9287 14.393L26.9279 13.8156C27.538 14.3719 28.2677 14.7984 29.0733 15.0555V16.2086C29.0733 16.7922 29.5466 17.2656 30.1302 17.2656H31.549C32.1326 17.2656 32.606 16.7922 32.606 16.2086V15.0555C33.4115 14.7984 34.1412 14.3719 34.7513 13.8156L35.7513 14.393C36.2568 14.6844 36.9036 14.5117 37.1958 14.0055L37.9045 12.7773C38.1966 12.2719 38.0232 11.625 37.5177 11.3328Z" fill="#7A6D79"/>
<path d="M30.8396 11.9727C29.4841 11.9727 28.3849 10.8734 28.3849 9.51719C28.3849 8.16094 29.4841 7.0625 30.8396 7.0625C32.1958 7.0625 33.2951 8.16094 33.2951 9.51719C33.2951 10.8734 32.1958 11.9727 30.8396 11.9727ZM37.5177 11.3328L36.5185 10.7555C36.6053 10.3562 36.6521 9.94219 36.6521 9.51719C36.6521 9.09219 36.6053 8.67813 36.5185 8.27891L37.5177 7.70156C38.0232 7.40938 38.1966 6.76328 37.9045 6.25703L37.1958 5.02891C36.9036 4.52266 36.2568 4.35 35.7513 4.64141L34.7513 5.21875C34.1412 4.6625 33.4115 4.23594 32.606 3.97891V2.82578C32.606 2.24219 32.1326 1.76875 31.549 1.76875H30.1302C29.5466 1.76875 29.0733 2.24219 29.0733 2.82578V3.97891C28.2677 4.23594 27.538 4.6625 26.9279 5.21875L25.9287 4.64141C25.4224 4.35 24.7764 4.52266 24.4841 5.02891L23.7747 6.25703C23.4826 6.76328 23.6561 7.40938 24.1615 7.70156L25.1615 8.27891C25.0747 8.67813 25.0279 9.09219 25.0279 9.51719C25.0279 9.94219 25.0747 10.3562 25.1615 10.7555L24.1615 11.3328C23.6561 11.625 23.4826 12.2719 23.7747 12.7773L24.4841 14.0055C24.7764 14.5117 25.4224 14.6844 25.9287 14.393L26.9279 13.8156C27.538 14.3719 28.2677 14.7984 29.0733 15.0555V16.2086C29.0733 16.7922 29.5466 17.2656 30.1302 17.2656H31.549C32.1326 17.2656 32.606 16.7922 32.606 16.2086V15.0555C33.4115 14.7984 34.1412 14.3719 34.7513 13.8156L35.7513 14.393C36.2568 14.6844 36.9036 14.5117 37.1958 14.0055L37.9045 12.7773C38.1966 12.2719 38.0232 11.625 37.5177 11.3328Z" stroke="black" stroke-width="2" stroke-miterlimit="10" stroke-linecap="round" stroke-linejoin="round"/>
<path d="M12.223 17.0892L0.585938 20V35.8334C0.585938 37.8109 2.18898 39.4141 4.16664 39.4141H20V31.9938C20.7337 33.0242 21.9481 33.6876 23.3165 33.6551C25.3854 33.6059 27.087 31.931 27.1665 29.863C27.2532 27.6107 25.4534 25.7578 23.2203 25.7578C21.8914 25.7578 20.7164 26.4141 20 27.4203V20" fill="#FFEB00"/>
<path d="M2.49609 19.9998V35.8333C2.49609 37.8107 4.09922 39.4138 6.07656 39.4138H4.16641C2.18898 39.4138 0.585938 37.8107 0.585938 35.8333V19.9998L12.2227 17.0888L12.9875 17.3755L2.49609 19.9998Z" fill="#739649"/>
<path d="M13.2289 10.3099C13.2379 12.4285 14.9498 14.1827 17.0675 14.2406C18.2169 14.2721 19.259 13.8117 20 13.0554V19.9999H12.5796C13.6102 20.7335 14.2735 21.9481 14.241 23.3163C14.1919 25.3854 12.517 27.0869 10.4489 27.1664C8.19664 27.2531 6.34375 25.4532 6.34375 23.2203C6.34375 21.8913 7 20.7163 8.00617 19.9999H0.585938V4.1665C0.585938 2.189 2.18898 0.585878 4.16664 0.585878H20V7.53041C19.2828 6.79838 18.2836 6.34369 17.1781 6.34369C14.9913 6.34369 13.2197 8.12088 13.2289 10.3099Z" fill="#BCE544"/>
<path d="M4.16641 0.586182H6.07656C4.09922 0.586182 2.49609 2.18931 2.49609 4.16665V20.0002H0.585938V4.16665C0.585938 2.18931 2.18898 0.586182 4.16641 0.586182Z" fill="#7BA82E"/>
<path d="M16.5531 6.39299C16.757 6.36096 16.9656 6.34377 17.1781 6.34377C18.2836 6.34377 19.2828 6.79846 20 7.53049V0.585955H4.16641C2.18906 0.585955 0.585938 2.18908 0.585938 4.16643V20H8.00633C7 20.7164 6.34375 21.8914 6.34375 23.2203C6.34375 25.4531 8.19688 27.2531 10.4492 27.1664C12.5172 27.0867 14.1922 25.3852 14.2414 23.3164C14.2734 21.9485 13.6102 20.7336 12.5797 20H20V13.0555C19.2586 13.8117 18.2172 14.2719 17.0672 14.2406C14.95 14.1828 13.2383 12.4281 13.2289 10.3102C13.2242 9.30392 13.5969 8.38439 14.2125 7.68518" stroke="black" stroke-width="2" stroke-miterlimit="10" stroke-linecap="round" stroke-linejoin="round"/>
<path d="M19.9996 20V27.4203C20.716 26.4141 21.891 25.7578 23.2199 25.7578C25.4527 25.7578 27.2527 27.6109 27.166 29.8633C27.0863 31.9312 25.3848 33.6062 23.316 33.6555C21.948 33.6875 20.7332 33.0242 19.9996 31.9938V39.4141H9.70117" stroke="black" stroke-width="2" stroke-miterlimit="10" stroke-linecap="round" stroke-linejoin="round"/>
<path d="M0.585938 19.9998V35.8333C0.585938 37.8107 2.18906 39.4138 4.16641 39.4138H6.96719" stroke="black" stroke-width="2" stroke-miterlimit="10" stroke-linecap="round" stroke-linejoin="round"/>
<path d="M33.9039 20H20" stroke="black" stroke-width="2" stroke-miterlimit="10" stroke-linecap="round" stroke-linejoin="round"/>
<path d="M36.6383 20H39.4141V35.8336C39.4141 37.8109 37.811 39.4141 35.8336 39.4141H20" stroke="black" stroke-width="2" stroke-miterlimit="10" stroke-linecap="round" stroke-linejoin="round"/>
</g>
</svg>
