<svg width="24" height="24" viewBox="0 0 24 24" fill="none" xmlns="http://www.w3.org/2000/svg">
<path d="M11.9996 2.00067C7.85763 2.00067 4.49963 5.35867 4.49963 9.50067V13.7442L3.09763 16.9217C3.02211 17.0929 2.99049 17.2803 3.00565 17.4668C3.02081 17.6533 3.08225 17.8331 3.18443 17.9899C3.2866 18.1467 3.42628 18.2755 3.5908 18.3647C3.75532 18.4539 3.93949 18.5006 4.12663 18.5007H19.8726C20.0598 18.5006 20.2439 18.4539 20.4085 18.3647C20.573 18.2755 20.7127 18.1467 20.8148 17.9899C20.917 17.8331 20.9785 17.6533 20.9936 17.4668C21.0088 17.2803 20.9771 17.0929 20.9016 16.9217L19.4996 13.7442V9.50067C19.4996 5.35867 16.1416 2.00067 11.9996 2.00067ZM11.9996 22.0007C11.2906 22.0008 10.6044 21.7498 10.0629 21.2921C9.52128 20.8345 9.1593 20.1998 9.04113 19.5007H14.9581C14.84 20.1998 14.478 20.8345 13.9364 21.2921C13.3948 21.7498 12.7087 22.0008 11.9996 22.0007Z" fill="#EB7D04"/>
</svg>
