<svg width="30" height="30" viewBox="0 0 30 30" fill="none" xmlns="http://www.w3.org/2000/svg">
<path fill-rule="evenodd" clip-rule="evenodd" d="M2.15915 21.7227C1.1364 19.7045 0.550049 17.4272 0.550049 15C0.550049 12.5727 1.1364 10.2954 2.15915 8.27725C4.62729 3.3682 9.6864 0 15.55 0C19.6 0 22.9818 1.48635 25.5864 3.91365L21.2909 8.2091C19.7227 6.73635 17.7591 5.97269 15.55 5.97269C11.65 5.97269 8.3364 8.60455 7.15005 12.15C6.85005 13.05 6.67274 14.0045 6.67274 15C6.67274 15.9954 6.85005 16.95 7.15005 17.85L7.13229 17.8636H7.15005C8.3364 21.4091 11.65 24.0409 15.55 24.0409C17.5682 24.0409 19.2727 23.4954 20.6091 22.5954C22.2046 21.5318 23.2682 19.95 23.6227 18.0818H15.55V12.2727H29.6773C29.8545 13.2545 29.95 14.2772 29.95 15.3409C29.95 19.909 28.3136 23.7545 25.4773 26.3727C22.9955 28.6636 19.6 29.9999 15.55 29.9999C9.6864 29.9999 4.62729 26.6318 2.15915 21.7363V21.7227Z" fill="#16423C"/>
</svg>
