<svg width="41" height="46" viewBox="0 0 41 46" fill="none" xmlns="http://www.w3.org/2000/svg">
<path fill-rule="evenodd" clip-rule="evenodd" d="M16.8332 2.25008C16.8332 1.69755 16.6137 1.16764 16.223 0.776942C15.8323 0.386241 15.3024 0.166748 14.7498 0.166748C14.1973 0.166748 13.6674 0.386241 13.2767 0.776942C12.886 1.16764 12.6665 1.69755 12.6665 2.25008V6.41675C12.6665 6.96928 12.886 7.49919 13.2767 7.88989C13.6674 8.28059 14.1973 8.50008 14.7498 8.50008C15.3024 8.50008 15.8323 8.28059 16.223 7.88989C16.6137 7.49919 16.8332 6.96928 16.8332 6.41675V2.25008ZM7.38317 4.43758C7.19099 4.2386 6.9611 4.07989 6.70693 3.9707C6.45275 3.86152 6.17938 3.80405 5.90276 3.80164C5.62613 3.79924 5.3518 3.85195 5.09577 3.9567C4.83973 4.06145 4.60712 4.21615 4.41151 4.41176C4.2159 4.60737 4.06121 4.83998 3.95646 5.09601C3.85171 5.35204 3.79899 5.62638 3.8014 5.903C3.8038 6.17962 3.86127 6.453 3.97046 6.70717C4.07964 6.96135 4.23836 7.19123 4.43734 7.38341L7.38317 10.3334C7.57687 10.5271 7.80683 10.6808 8.05991 10.7856C8.31299 10.8904 8.58424 10.9444 8.85817 10.9444C9.1321 10.9444 9.40335 10.8904 9.65643 10.7856C9.90952 10.6808 10.1395 10.5271 10.3332 10.3334C10.5269 10.1397 10.6805 9.90976 10.7853 9.65668C10.8902 9.4036 10.9441 9.13235 10.9441 8.85841C10.9441 8.58448 10.8902 8.31323 10.7853 8.06015C10.6805 7.80707 10.5269 7.57711 10.3332 7.38341L7.38317 4.43758ZM16.3978 13.1042C14.3603 12.4251 12.4248 14.3605 13.1019 16.3959L20.4623 38.4751C21.2061 40.7084 24.2957 40.8876 25.2936 38.7542L29.5748 29.5751L38.754 25.2938C40.8873 24.298 40.7082 21.2063 38.4748 20.4626L16.3978 13.1042ZM25.0623 4.43758C25.4529 4.82826 25.6723 5.35807 25.6723 5.9105C25.6723 6.46292 25.4529 6.99273 25.0623 7.38341L22.1165 10.3334C21.9229 10.527 21.6931 10.6805 21.4402 10.7853C21.1873 10.89 20.9163 10.9439 20.6425 10.9439C20.3688 10.9439 20.0977 10.89 19.8448 10.7853C19.5919 10.6805 19.3622 10.527 19.1686 10.3334C18.975 10.1399 18.8215 9.91006 18.7167 9.65716C18.612 9.40425 18.5581 9.1332 18.5581 8.85946C18.5581 8.58572 18.612 8.31466 18.7167 8.06176C18.8215 7.80885 18.975 7.57906 19.1686 7.3855L22.1165 4.43966C22.5072 4.0491 23.037 3.82969 23.5894 3.82969C24.1418 3.82969 24.6717 4.04702 25.0623 4.43758ZM0.166504 14.7501C0.166504 14.1975 0.385997 13.6676 0.776698 13.2769C1.1674 12.8862 1.6973 12.6667 2.24984 12.6667H6.4165C6.96904 12.6667 7.49894 12.8862 7.88964 13.2769C8.28034 13.6676 8.49984 14.1975 8.49984 14.7501C8.49984 15.3026 8.28034 15.8325 7.88964 16.2232C7.49894 16.6139 6.96904 16.8334 6.4165 16.8334H2.24984C1.6973 16.8334 1.1674 16.6139 0.776698 16.2232C0.385997 15.8325 0.166504 15.3026 0.166504 14.7501ZM10.3311 22.1167C10.5247 21.9232 10.6782 21.6934 10.7829 21.4405C10.8877 21.1876 10.9416 20.9165 10.9416 20.6428C10.9416 20.369 10.8877 20.098 10.7829 19.8451C10.6782 19.5922 10.5247 19.3624 10.3311 19.1688C10.1375 18.9753 9.90773 18.8217 9.65483 18.717C9.40193 18.6122 9.13087 18.5583 8.85713 18.5583C8.58339 18.5583 8.31233 18.6122 8.05943 18.717C7.80653 18.8217 7.57673 18.9753 7.38317 19.1688L4.43734 22.1167C4.23836 22.3089 4.07964 22.5388 3.97046 22.793C3.86127 23.0472 3.8038 23.3205 3.8014 23.5972C3.79899 23.8738 3.85171 24.1481 3.95646 24.4042C4.06121 24.6602 4.2159 24.8928 4.41151 25.0884C4.60712 25.284 4.83973 25.4387 5.09577 25.5435C5.3518 25.6482 5.62613 25.7009 5.90276 25.6985C6.17938 25.6961 6.45275 25.6386 6.70693 25.5295C6.9611 25.4203 7.19099 25.2616 7.38317 25.0626L10.3311 22.1167Z" fill="black"/>
</svg>
