<svg width="60" height="60" viewBox="0 0 60 60" fill="none" xmlns="http://www.w3.org/2000/svg">
<path fill-rule="evenodd" clip-rule="evenodd" d="M35.9732 4.97134C38.622 5.60177 41.1519 6.6518 43.4702 8.07936L48.342 5.91573L54.0839 11.6574L51.9207 16.5276C53.3487 18.8464 54.399 21.3771 55.0294 24.0266L59.9998 25.9399V34.0599L55.0283 35.9733C54.3979 38.6221 53.3476 41.152 51.9203 43.4706L54.0839 48.3423L48.3422 54.0842L43.472 51.9213C41.1532 53.3493 38.6223 54.3995 35.973 55.03L34.06 60.0003H25.94L24.0266 55.0288C21.3777 54.3984 18.8479 53.3484 16.5295 51.9208L11.6578 54.0844L5.91587 48.3427L8.07905 43.4726C6.65081 41.1538 5.60077 38.6228 4.97035 35.9735L0 34.0603V25.9399L4.97103 24.0264C5.60145 21.3774 6.65171 18.8473 8.0795 16.5287L5.9161 11.6574L11.6578 5.91551L16.5295 8.07914C18.8481 6.65157 21.3779 5.60154 24.0266 4.97111L25.9402 -0.000366211H34.0602L35.9732 4.97134Z" fill="#C7C7C7" fill-opacity="0.4"/>
<path fill-rule="evenodd" clip-rule="evenodd" d="M16.5283 51.9204L11.6566 54.084L10.9065 53.3339L15.474 51.3053C15.8207 51.5189 16.1722 51.7238 16.5283 51.9204ZM35.9724 4.97136C38.6213 5.60178 41.1511 6.65182 43.4695 8.07938L42.0847 8.69443C39.7663 7.26686 36.1821 5.60178 33.5333 4.97136L31.6198 -0.00012207H34.059L35.9724 4.97136ZM43.4713 51.9211C41.1525 53.3491 38.6215 54.3993 35.9722 55.0298L34.0592 60.0001H31.6201L33.5331 55.0298C36.1823 54.3993 39.7677 52.7342 42.0862 51.306L43.4713 51.9211ZM10.9062 6.66584L11.6563 5.91575L16.5281 8.07938C16.172 8.27572 15.8205 8.48089 15.4737 8.69443L10.9062 6.66584ZM46.6524 6.66584L48.3414 5.91575L54.0833 11.6575L51.9202 16.5276C53.3482 18.8464 54.3984 21.3771 55.0289 24.0267L59.9992 25.9399V34.0599L55.0277 35.9733C54.3973 38.6222 53.347 41.152 51.9197 43.4706L54.0833 48.3423L48.3416 54.0842L46.6526 53.3341L51.6442 48.3423L49.4806 43.4706C50.9081 41.152 51.9582 38.6224 52.5886 35.9733L57.5601 34.0599V25.9399L52.5897 24.0267C51.9593 21.3771 50.909 18.8464 49.481 16.5276L51.6442 11.6575L46.6524 6.66584Z" fill="#C7C7C7" fill-opacity="0.4"/>
<path d="M40.002 40.0114C45.5311 34.4823 45.5311 25.5178 40.0019 19.9886C34.4727 14.4594 25.5082 14.4593 19.9791 19.9884C14.45 25.5175 14.4501 34.482 19.9793 40.0112C25.5084 45.5404 34.4729 45.5405 40.002 40.0114Z" fill="white"/>
<path fill-rule="evenodd" clip-rule="evenodd" d="M30.0001 15.8395C22.1789 15.8395 15.8398 22.1786 15.8398 30C15.8398 37.8212 22.1789 44.1603 30.0001 44.1603C30.3792 44.1603 30.755 44.1449 31.1264 44.1157C23.832 43.5418 18.0924 37.4418 18.0924 30C18.0924 22.5577 23.832 16.4579 31.1264 15.884C30.755 15.8549 30.3795 15.8395 30.0001 15.8395Z" fill="#D1D1D6"/>
</svg>
