<svg width="302" height="415" viewBox="0 0 302 415" fill="none" xmlns="http://www.w3.org/2000/svg">
<path d="M103.057 111.352L104.562 108.214L97.982 104.4C97.2041 103.948 96.3704 103.599 95.5021 103.364C95.1975 103.285 94.8928 103.218 94.5821 103.163C93.0446 102.909 91.4726 102.952 89.9514 103.291C89.3866 103.408 88.8292 103.559 88.282 103.742C87.6962 103.931 87.1206 104.151 86.5576 104.4C85.7974 104.737 85.0569 105.117 84.3398 105.539C83.5432 106.003 82.7723 106.509 82.0306 107.056C81.4578 107.47 80.8973 107.915 80.3367 108.384C72.1721 115.294 65.7745 127.583 64.1172 139.404C64.0014 140.208 63.9161 141.006 63.8491 141.804C63.7516 142.95 63.709 144.083 63.709 145.198C63.709 146.118 63.7516 147.026 63.8187 147.861C63.8796 148.604 63.9649 149.323 64.0685 150.018C64.172 150.712 64.3061 151.37 64.4584 152.016C64.8627 153.787 65.5107 155.493 66.3838 157.086C66.5605 157.402 66.7433 157.695 66.9383 158C67.7168 159.212 68.7026 160.279 69.8507 161.15C70.1954 161.402 70.5534 161.636 70.9231 161.85L77.144 165.439L78.521 162.569C78.8866 162.49 79.2522 162.393 79.6238 162.283C81.1383 161.816 82.5924 161.171 83.9559 160.364C84.8327 159.847 85.6808 159.284 86.4967 158.676C87.5919 157.855 88.6339 156.966 89.6163 156.013C96.4344 149.451 101.802 139.19 103.77 128.973C104.062 127.473 104.277 125.96 104.416 124.439C104.526 123.184 104.587 121.941 104.581 120.717C104.581 118.947 104.436 117.18 104.148 115.434C103.909 114.043 103.544 112.677 103.057 111.352Z" fill="#79D7BE"/>
<path opacity="0.25" d="M65.6162 132.427L78.9659 140.135L80.7207 135.054L67.3588 127.328C66.6947 128.997 66.1097 130.697 65.6162 132.427Z" fill="white"/>
<path opacity="0.25" d="M97.9821 104.4C97.2042 103.948 96.3705 103.599 95.5023 103.364C95.1976 103.285 94.893 103.218 94.5822 103.163C93.0447 102.909 91.4728 102.952 89.9516 103.291L89.3423 103.437L103.076 111.358C103.076 111.358 103.076 111.358 103.076 111.327L104.581 108.189L97.9821 104.4Z" fill="white"/>
<path opacity="0.25" d="M96.5565 123.897L98.3113 121.783L78.2959 110.273C77.6622 110.903 77.0407 111.565 76.4314 112.259L96.5565 123.897Z" fill="white"/>
<path opacity="0.25" d="M72.1785 117.92L89.5374 127.931L91.4445 122.94L75.2981 113.618C74.1817 114.995 73.1403 116.431 72.1785 117.92Z" fill="white"/>
<path opacity="0.4" d="M97.9821 104.4C97.2042 103.948 96.3705 103.599 95.5023 103.364C95.1976 103.285 94.893 103.218 94.5822 103.163C93.0447 102.909 91.4727 102.952 89.9516 103.291C89.3868 103.408 88.8293 103.559 88.2821 103.742C87.6963 103.931 87.1208 104.151 86.5578 104.4C85.7975 104.737 85.057 105.117 84.3399 105.539C83.5433 106.003 82.7724 106.509 82.0307 107.056C81.458 107.47 80.8974 107.915 80.3369 108.384C72.7328 114.806 66.6398 125.908 64.4951 136.948L92.34 153.028C98.0758 146.073 101.989 137.8 103.728 128.954C104.019 127.455 104.235 125.942 104.374 124.421C104.483 123.166 104.544 121.923 104.538 120.698C104.539 118.929 104.394 117.162 104.106 115.416C103.872 114.025 103.513 112.659 103.033 111.333L104.538 108.196L97.9821 104.4Z" fill="white"/>
<path opacity="0.1" d="M77.1257 165.439L78.5027 162.569C78.8683 162.49 79.2339 162.393 79.6056 162.283C81.12 161.816 82.5741 161.172 83.9377 160.364C84.8144 159.847 85.6625 159.284 86.4784 158.676C87.5737 157.856 88.6156 156.966 89.598 156.013C90.5709 155.073 91.4942 154.082 92.3642 153.046L64.5194 136.967C64.3609 137.777 64.2269 138.594 64.1172 139.404C64.0075 140.214 63.9161 141.006 63.8491 141.805C63.7516 142.95 63.709 144.083 63.709 145.198C63.709 146.118 63.7516 147.026 63.8187 147.861C63.8796 148.604 63.9649 149.323 64.0685 150.018C64.172 150.713 64.3061 151.371 64.4584 152.016C64.8627 153.787 65.5107 155.493 66.3838 157.086C66.5605 157.403 66.7433 157.695 66.9383 158C67.7168 159.212 68.7026 160.279 69.8507 161.15C70.1954 161.402 70.5534 161.636 70.9231 161.851L77.1257 165.439Z" fill="black"/>
<path opacity="0.1" d="M66.3841 157.085C66.5607 157.402 66.7435 157.695 66.9385 157.999C67.717 159.212 68.7029 160.278 69.851 161.149C70.1957 161.402 70.5536 161.636 70.9233 161.85L77.1442 165.439L78.5213 162.569H78.5761L78.6736 161.393L64.8425 153.405C65.2234 154.684 65.7402 155.917 66.3841 157.085Z" fill="black"/>
<path d="M111.161 119.492C110.877 117.687 110.367 115.924 109.644 114.246C108.766 112.156 107.377 110.321 105.604 108.908C104.517 108.072 103.275 107.461 101.949 107.111C101.644 107.032 101.339 106.965 101.023 106.91C99.485 106.656 97.9131 106.699 96.3919 107.038C95.8275 107.157 95.2701 107.307 94.7224 107.489C94.137 107.679 93.5615 107.899 92.9981 108.147C92.2442 108.481 91.5099 108.857 90.7986 109.274C89.9986 109.735 89.2256 110.242 88.4832 110.791C87.9166 111.205 87.3499 111.65 86.7955 112.119C78.6309 119.01 72.1723 131.3 70.5699 143.12C70.4602 143.925 70.3688 144.723 70.3079 145.521C70.2104 146.66 70.1617 147.8 70.1677 148.915C70.1677 149.835 70.2043 150.743 70.2774 151.577C70.3383 152.321 70.4176 153.04 70.5272 153.734C70.6369 154.429 70.7649 155.087 70.9172 155.733C71.3101 157.504 71.9522 159.211 72.8243 160.802C73.003 161.119 73.1858 161.424 73.3727 161.716C74.1533 162.929 75.1412 163.995 76.2912 164.866C77.9578 166.115 79.9622 166.833 82.043 166.926C83.6003 166.996 85.1578 166.79 86.6432 166.316C88.1582 165.851 89.6125 165.206 90.9753 164.397C91.8533 163.883 92.7016 163.319 93.516 162.709C94.6113 161.889 95.6532 160.999 96.6356 160.047C103.454 153.491 108.822 143.224 110.79 133.006C111.079 131.507 111.293 129.994 111.429 128.473C111.545 127.254 111.6 125.975 111.6 124.75C111.6 122.988 111.453 121.229 111.161 119.492Z" fill="#79D7BE"/>
<path opacity="0.05" d="M70.9781 140.677C70.8197 141.494 70.6857 142.316 70.5699 143.114C70.4541 143.913 70.3688 144.717 70.3079 145.515C70.2104 146.654 70.1617 147.794 70.1677 148.909C70.1677 149.829 70.2043 150.737 70.2774 151.571C70.3383 152.315 70.4176 153.034 70.5272 153.728C70.6369 154.423 70.7649 155.081 70.9172 155.727C71.3101 157.498 71.9522 159.205 72.8243 160.796C73.003 161.113 73.1858 161.418 73.3727 161.71C74.1533 162.923 75.1412 163.989 76.2912 164.86C77.9578 166.109 79.9622 166.827 82.043 166.92C83.6003 166.99 85.1578 166.784 86.6432 166.31C88.1582 165.845 89.6125 165.2 90.9753 164.391C91.7369 163.946 92.4924 163.441 93.2358 162.904L70.9781 140.677Z" fill="black"/>
<path opacity="0.05" d="M71.301 157.177C71.6764 158.446 72.187 159.672 72.8243 160.833C73.003 161.149 73.1858 161.454 73.3726 161.746C74.1533 162.959 75.1412 164.026 76.2912 164.897C77.6582 165.919 79.2577 166.587 80.9462 166.84L71.301 157.177Z" fill="black"/>
<path opacity="0.1" d="M73.8114 131.062C73.1473 132.732 72.5928 134.432 72.0688 136.144L96.3067 160.382L96.6357 160.071C97.6853 159.056 98.6779 157.984 99.6091 156.86L73.8114 131.062Z" fill="white"/>
<path opacity="0.1" d="M81.7322 117.347C80.6221 118.723 79.5888 120.159 78.637 121.649L105.312 148.33C106.177 146.703 106.969 145.015 107.682 143.297L81.7322 117.347Z" fill="white"/>
<path opacity="0.1" d="M84.7604 113.996C84.1511 114.605 83.4931 115.3 82.8777 115.995L108.383 141.5C108.74 140.549 109.073 139.587 109.382 138.612L84.7604 113.996Z" fill="white"/>
<path opacity="0.1" d="M111.539 122.928C111.539 122.435 111.472 121.953 111.423 121.478C111.423 121.326 111.423 121.167 111.375 121.009L111.32 120.528C111.271 120.18 111.222 119.833 111.161 119.492C110.877 117.687 110.368 115.924 109.644 114.246C108.766 112.156 107.377 110.321 105.605 108.908C104.518 108.072 103.275 107.461 101.949 107.111C101.644 107.032 101.34 106.965 101.023 106.91C99.4851 106.656 97.9132 106.699 96.392 107.038L95.7827 107.184L111.539 122.928Z" fill="white"/>
<path d="M106.317 127.943C106.317 138.843 99.9622 151.437 91.9195 156.787C91.5783 157.018 91.231 157.232 90.8837 157.433C82.3535 162.356 75.4441 157.134 75.4441 145.765C75.4441 134.395 82.3535 121.192 90.8837 116.268C91.231 116.074 91.5783 115.885 91.9195 115.72C99.9622 111.784 106.317 117.036 106.317 127.943Z" fill="#79D7BE"/>
<path opacity="0.4" d="M106.317 127.943C106.317 138.843 99.9622 151.437 91.9195 156.787C91.5783 157.018 91.231 157.232 90.8837 157.433C82.3535 162.356 75.4441 157.134 75.4441 145.765C75.4441 134.395 82.3535 121.192 90.8837 116.268C91.231 116.074 91.5783 115.885 91.9195 115.72C99.9622 111.784 106.317 117.036 106.317 127.943Z" fill="black"/>
<path d="M105.635 128.339C105.635 128.692 105.635 129.046 105.635 129.399C105.245 139.562 99.3227 150.956 91.8953 155.904L91.6943 156.038C91.4323 156.202 91.1703 156.367 90.9083 156.519C89.4868 157.377 87.912 157.95 86.2715 158.207C82.8107 158.676 79.9165 157.159 78.1252 154.057C76.9559 151.899 76.2933 149.503 76.1876 147.051C76.1511 146.514 76.1328 145.966 76.1328 145.393C76.1328 144.821 76.1328 144.351 76.1816 143.821C76.2459 142.698 76.3699 141.58 76.5532 140.47C77.8571 132.616 82.0369 124.628 87.3744 119.803C88.1115 119.129 88.8954 118.508 89.7201 117.944C90.104 117.682 90.494 117.439 90.8839 117.213C91.2739 116.988 91.548 116.848 91.871 116.683L92.1452 116.555C94.0229 115.597 96.1558 115.258 98.2381 115.586C101.346 116.196 103.722 118.633 104.886 122.612C105.401 124.477 105.653 126.404 105.635 128.339Z" fill="#79D7BE"/>
<path opacity="0.5" d="M105.635 128.339C105.635 128.692 105.635 129.046 105.635 129.399C105.245 139.562 99.3227 150.956 91.8953 155.904L91.6943 156.038C91.4323 156.202 91.1703 156.367 90.9083 156.519C89.4868 157.377 87.912 157.95 86.2715 158.207C82.8107 158.676 79.9165 157.159 78.1252 154.057C76.9559 151.899 76.2933 149.503 76.1876 147.051C76.1511 146.514 76.1328 145.966 76.1328 145.393C76.1328 144.821 76.1328 144.351 76.1816 143.821C76.2459 142.698 76.3699 141.58 76.5532 140.47C77.8571 132.616 82.0369 124.628 87.3744 119.803C88.1115 119.129 88.8954 118.508 89.7201 117.944C90.104 117.682 90.494 117.439 90.8839 117.213C91.2739 116.988 91.548 116.848 91.871 116.683L92.1452 116.555C94.0229 115.597 96.1558 115.258 98.2381 115.586C101.346 116.196 103.722 118.633 104.886 122.612C105.401 124.477 105.653 126.404 105.635 128.339Z" fill="black"/>
<path d="M103.161 127.979C103.161 127.62 103.161 127.267 103.161 126.913C103.183 124.971 102.933 123.035 102.418 121.161C101.909 119.122 100.821 117.273 99.2862 115.836C98.9523 115.719 98.6102 115.627 98.2625 115.562C96.1802 115.233 94.0473 115.572 92.1696 116.531L91.8954 116.659C91.5724 116.823 91.2373 116.994 90.9083 117.189C90.5793 117.384 90.1284 117.658 89.7446 117.92C88.9198 118.483 88.1359 119.104 87.3988 119.778C82.0674 124.586 77.8815 132.574 76.5776 140.446C76.3944 141.555 76.2703 142.674 76.206 143.797C76.1694 144.327 76.1572 144.851 76.1572 145.369C76.1572 145.887 76.1572 146.49 76.2121 147.026C76.3065 149.485 76.9609 151.89 78.1253 154.057C78.6335 154.956 79.2884 155.763 80.0628 156.446C81.272 156.852 82.5602 156.967 83.8222 156.781C85.4622 156.526 87.037 155.955 88.4589 155.099C88.7209 154.947 88.989 154.782 89.2449 154.612L89.446 154.478C96.849 149.536 102.771 138.143 103.161 127.979Z" fill="#79D7BE"/>
<path opacity="0.25" d="M103.161 127.979C103.161 127.62 103.161 127.267 103.161 126.913C103.183 124.971 102.933 123.035 102.418 121.161C101.909 119.122 100.821 117.273 99.2862 115.836C98.9523 115.719 98.6102 115.627 98.2625 115.562C96.1802 115.233 94.0473 115.572 92.1696 116.531L91.8954 116.659C91.5724 116.823 91.2373 116.994 90.9083 117.189C90.5793 117.384 90.1284 117.658 89.7446 117.92C88.9198 118.483 88.1359 119.104 87.3988 119.778C82.0674 124.586 77.8815 132.574 76.5776 140.446C76.3944 141.555 76.2703 142.674 76.206 143.797C76.1694 144.327 76.1572 144.851 76.1572 145.369C76.1572 145.887 76.1572 146.49 76.2121 147.026C76.3065 149.485 76.9609 151.89 78.1253 154.057C78.6335 154.956 79.2884 155.763 80.0628 156.446C81.272 156.852 82.5602 156.967 83.8222 156.781C85.4622 156.526 87.037 155.955 88.4589 155.099C88.7209 154.947 88.989 154.782 89.2449 154.612L89.446 154.478C96.849 149.536 102.771 138.143 103.161 127.979Z" fill="black"/>
<path d="M101.035 106.91C92.1207 105.905 84.8701 113.289 80.0323 119.925C73.0436 130.228 68.614 143.273 71.033 155.745C71.825 159.212 73.4092 162.697 76.2973 164.885C73.3483 162.722 71.6362 159.243 70.8136 155.745C68.5836 145.533 71.3863 134.804 76.0597 125.67C81.0498 116.653 89.5373 105.679 101.035 106.91Z" fill="#F5F5F5"/>
<path opacity="0.35" d="M94.29 131.075L91.3289 129.363L97.0563 124.476L100.017 126.188L94.29 131.075Z" fill="black"/>
<path opacity="0.35" d="M96.112 132.202C94.5949 131.13 91.9688 131.94 89.7388 132.641C89.2026 132.824 88.7213 132.982 88.2826 133.116C88.1437 133.444 88.0693 133.796 88.0632 134.152C88.0632 135.876 89.5255 135.37 92.7061 134.359C93.7783 133.991 94.8759 133.702 95.9902 133.494C96.0877 134.371 96.697 135.169 99.0732 133.914L96.112 132.202Z" fill="black"/>
<path opacity="0.45" d="M88.7761 154.661L85.8149 152.949V149.451L88.7761 151.163V154.661Z" fill="black"/>
<path opacity="0.35" d="M93.8027 141.384C93.8027 142.773 92.7608 144.016 91.2132 144.918C88.776 146.35 87.7829 145.18 87.5574 144.04L87.0334 143.736C87.4599 143.61 87.8691 143.432 88.252 143.206C89.3241 142.657 90.1741 141.755 90.6588 140.653C92.4745 140.056 93.8027 139.824 93.8027 141.384Z" fill="black"/>
<path opacity="0.35" d="M82.7806 149.957C82.4544 149.766 82.0795 149.675 81.7021 149.695C81.6385 149.513 81.5856 149.328 81.5437 149.14L78.5703 147.428C78.6502 147.944 78.8395 148.436 79.1253 148.872C79.4112 149.308 79.787 149.678 80.2276 149.957L83.1827 151.669C83.3223 151.381 83.3586 151.053 83.2853 150.742C83.2121 150.43 83.0339 150.153 82.7806 149.957Z" fill="black"/>
<path d="M92.7058 134.359C89.5252 135.401 88.0629 135.876 88.0629 134.152C88.069 133.796 88.1434 133.444 88.2823 133.116C86.1132 133.786 85.1017 133.871 85.1017 132.44C85.1017 131.386 85.8146 130.088 87.7766 128.948C89.8664 127.73 91.0363 128.016 91.3288 129.363L97.0562 124.488C97.0562 124.415 97.0074 124.348 96.9769 124.275C97.3339 124.197 97.6769 124.066 97.9945 123.885L95.6304 122.472L95.405 122.337H95.3684C94.6709 121.998 93.8897 121.869 93.1201 121.966C92.0937 122.077 91.0908 122.346 90.1467 122.764V122.679L93.1079 120.954L90.1467 119.267L88.1421 120.436L85.4247 122.015V125.506C81.4094 128.43 78.9052 132.245 78.9052 136.376C78.9052 138.252 79.4109 139.319 80.2335 139.861H80.27C80.3405 139.906 80.4137 139.947 80.4894 139.983L82.9692 141.378C83.0374 141.009 82.9906 140.629 82.8352 140.287C83.6223 140.187 84.3991 140.018 85.1566 139.782C88.1665 138.874 90.8413 137.442 90.8413 139.672C90.8426 140.008 90.7806 140.34 90.6585 140.653C92.4864 140.044 93.8025 139.824 93.8025 141.384C93.8025 142.773 92.7606 144.016 91.213 144.918C88.7758 146.35 87.7826 145.18 87.5572 144.041L87.0332 143.736L84.596 142.329L78.5701 147.428L81.5313 149.14C81.6253 149.577 81.7769 149.999 81.9821 150.396C83.3072 150.349 84.6082 150.027 85.8024 149.451V150.865L90.4818 150.225V146.734C94.5398 143.742 97.3364 139.715 97.3364 135.504C97.3606 134.787 97.2469 134.071 97.0013 133.396C95.5332 133.526 94.0888 133.85 92.7058 134.359Z" fill="#79D7BE"/>
<path opacity="0.15" d="M92.7058 134.359C89.5252 135.401 88.0629 135.876 88.0629 134.152C88.069 133.796 88.1434 133.444 88.2823 133.116C86.1132 133.786 85.1017 133.871 85.1017 132.44C85.1017 131.386 85.8146 130.088 87.7766 128.948C89.8664 127.73 91.0363 128.016 91.3288 129.363L97.0562 124.488C97.0562 124.415 97.0074 124.348 96.9769 124.275C97.3339 124.197 97.6769 124.066 97.9945 123.885L95.6304 122.472L95.405 122.337H95.3684C94.6709 121.998 93.8897 121.869 93.1201 121.966C92.0937 122.077 91.0908 122.346 90.1467 122.764V122.679L93.1079 120.954L90.1467 119.267L88.1421 120.436L85.4247 122.015V125.506C81.4094 128.43 78.9052 132.245 78.9052 136.376C78.9052 138.252 79.4109 139.319 80.2335 139.861H80.27C80.3405 139.906 80.4137 139.947 80.4894 139.983L82.9692 141.378C83.0374 141.009 82.9906 140.629 82.8352 140.287C83.6223 140.187 84.3991 140.018 85.1566 139.782C88.1665 138.874 90.8413 137.442 90.8413 139.672C90.8426 140.008 90.7806 140.34 90.6585 140.653C92.4864 140.044 93.8025 139.824 93.8025 141.384C93.8025 142.773 92.7606 144.016 91.213 144.918C88.7758 146.35 87.7826 145.18 87.5572 144.041L87.0332 143.736L84.596 142.329L78.5701 147.428L81.5313 149.14C81.6253 149.577 81.7769 149.999 81.9821 150.396C83.3072 150.349 84.6082 150.027 85.8024 149.451V150.865L90.4818 150.225V146.734C94.5398 143.742 97.3364 139.715 97.3364 135.504C97.3606 134.787 97.2469 134.071 97.0013 133.396C95.5332 133.526 94.0888 133.85 92.7058 134.359Z" fill="black"/>
<g opacity="0.2">
<path d="M85.4371 125.506C83.1821 127.22 81.3516 129.43 80.0875 131.964C79.4948 133.236 79.1495 134.609 79.07 136.01C79.0026 136.706 79.0395 137.409 79.1796 138.094C79.2984 138.792 79.6718 139.422 80.2276 139.861C79.6187 139.463 79.1833 138.849 79.009 138.143C78.8262 137.443 78.7482 136.72 78.7775 135.998C78.8319 134.551 79.1759 133.13 79.7889 131.818C80.4171 130.518 81.2389 129.32 82.2261 128.266C83.1817 127.22 84.2598 126.294 85.4371 125.506Z" fill="black"/>
</g>
<path d="M97.0137 133.396C95.5415 133.525 94.0929 133.848 92.706 134.359C89.5255 135.401 88.0631 135.876 88.0631 134.152C88.0692 133.795 88.1437 133.444 88.2825 133.116C88.815 132.065 89.6687 131.211 90.7197 130.679C92.8096 129.46 93.9794 129.752 94.2719 131.099L99.9993 126.225C99.8171 125.486 99.3893 124.831 98.7859 124.367C98.1826 123.903 97.4395 123.658 96.6786 123.672C95.4417 123.701 94.2241 123.985 93.102 124.506V120.979L90.1469 122.678L88.3861 123.702V127.193C84.3708 130.118 81.8666 133.938 81.8666 138.057C81.8406 138.837 81.9626 139.614 82.2261 140.348C83.1156 142.56 85.5407 142.255 88.0997 141.506C88.9954 141.238 89.8667 140.896 90.6405 140.665C92.4684 140.056 93.7845 139.836 93.7845 141.396C93.7845 142.785 92.7426 144.028 91.1949 144.93C88.7577 146.362 87.7646 145.192 87.5392 144.053L81.5193 149.152C81.6133 149.589 81.7649 150.011 81.9702 150.408C82.7562 151.876 84.1575 152.284 85.7905 152.065C86.8145 151.909 87.8114 151.61 88.7517 151.175V154.673L93.4311 151.967V148.452C97.489 145.466 100.286 141.439 100.286 137.228C100.31 134.188 98.8721 133.353 97.0137 133.396Z" fill="#79D7BE"/>
<g opacity="0.1">
<path d="M97.0137 133.396C95.5415 133.525 94.0929 133.848 92.706 134.359C89.5255 135.401 88.0631 135.876 88.0631 134.152C88.0692 133.795 88.1437 133.444 88.2825 133.116C88.815 132.065 89.6687 131.211 90.7197 130.679C92.8096 129.46 93.9794 129.752 94.2719 131.099L99.9993 126.225C99.8171 125.486 99.3893 124.831 98.7859 124.367C98.1826 123.903 97.4395 123.658 96.6786 123.672C95.4417 123.701 94.2241 123.985 93.102 124.506V120.979L90.1469 122.678L88.3861 123.702V127.193C84.3708 130.118 81.8666 133.938 81.8666 138.057C81.8406 138.837 81.9626 139.614 82.2261 140.348C83.1156 142.56 85.5407 142.255 88.0997 141.506C88.9954 141.238 89.8667 140.896 90.6405 140.665C92.4684 140.056 93.7845 139.836 93.7845 141.396C93.7845 142.785 92.7426 144.028 91.1949 144.93C88.7577 146.362 87.7646 145.192 87.5392 144.053L81.5193 149.152C81.6133 149.589 81.7649 150.011 81.9702 150.408C82.7562 151.876 84.1575 152.284 85.7905 152.065C86.8145 151.909 87.8114 151.61 88.7517 151.175V154.673L93.4311 151.967V148.452C97.489 145.466 100.286 141.439 100.286 137.228C100.31 134.188 98.8721 133.353 97.0137 133.396Z" fill="white"/>
</g>
<path opacity="0.1" d="M87.143 144.394L83.4446 147.52L87.5512 151.632C87.9534 151.498 88.3616 151.346 88.7698 151.163V152.851L89.9153 153.997L93.4492 151.955V150.737L87.143 144.394Z" fill="white"/>
<path opacity="0.1" d="M97.0137 133.396C95.5415 133.525 94.0929 133.848 92.706 134.359L91.6763 134.694L99.0792 142.091C99.862 140.584 100.279 138.914 100.298 137.216C100.302 136.738 100.257 136.26 100.164 135.791L97.818 133.445C97.5519 133.404 97.2827 133.388 97.0137 133.396Z" fill="white"/>
<path opacity="0.1" d="M89.0077 132.019C89.5162 131.476 90.1062 131.016 90.7564 130.655C92.8463 129.436 94.0161 129.728 94.3086 131.075L94.9179 130.539L88.3984 124.013V127.218C87.5954 127.804 86.834 128.446 86.1196 129.137L89.0077 132.019Z" fill="white"/>
<path opacity="0.1" d="M94.6924 123.928C94.1584 124.078 93.6335 124.259 93.1205 124.47V122.356L92.2492 121.46L90.1471 122.679L89.7876 122.886L96.2705 129.381L98.3665 127.596L94.6924 123.928Z" fill="white"/>
<path opacity="0.1" d="M84.7851 142.036L81.9519 139.209C81.9983 139.598 82.0903 139.981 82.2261 140.348C82.4229 140.862 82.7756 141.301 83.2346 141.603C83.6935 141.906 84.2357 142.057 84.7851 142.036Z" fill="white"/>
<path d="M88.3982 127.218L85.437 125.505V122.014L88.3982 123.726V127.218Z" fill="#79D7BE"/>
<path opacity="0.35" d="M88.3982 127.218L85.437 125.505V122.014L88.3982 123.726V127.218Z" fill="black"/>
<path d="M93.4556 148.44C93.4556 148.44 93.6262 148.312 93.9125 148.074C94.0927 147.941 94.2655 147.799 94.4304 147.647C94.6254 147.477 94.857 147.294 95.0885 147.075C95.32 146.855 95.5759 146.624 95.8318 146.362L96.2218 145.96C96.3558 145.82 96.4838 145.673 96.6178 145.527C96.7519 145.381 96.8859 145.229 97.0139 145.07C97.1418 144.912 97.282 144.753 97.4099 144.589C97.6597 144.254 97.9217 143.919 98.1472 143.559C98.3726 143.2 98.598 142.84 98.8113 142.481C99.0096 142.123 99.1886 141.755 99.3475 141.378C99.5181 141.018 99.6338 140.653 99.7679 140.311C99.8166 140.137 99.8654 139.966 99.9141 139.8L99.9872 139.556C99.9872 139.477 100.024 139.398 100.036 139.318C100.103 139.008 100.17 138.709 100.2 138.465C100.231 138.222 100.274 137.984 100.28 137.801C100.28 137.43 100.31 137.192 100.31 137.192C100.31 137.192 100.31 137.405 100.31 137.801C100.304 138.025 100.286 138.249 100.255 138.471C100.227 138.762 100.183 139.051 100.121 139.337C100.121 139.416 100.121 139.495 100.073 139.574C100.024 139.653 100.03 139.739 100.006 139.824C99.9811 139.909 99.9141 140.165 99.8654 140.342C99.7498 140.708 99.6156 141.068 99.4632 141.42C99.3109 141.798 99.122 142.164 98.9271 142.535C98.7321 142.907 98.5127 143.279 98.2629 143.626C98.0131 143.973 97.7694 144.327 97.5135 144.662C97.3855 144.826 97.2454 144.985 97.1175 145.143L96.7153 145.6L96.3132 146.033L95.9049 146.429C95.649 146.685 95.3809 146.91 95.1433 147.123C94.9057 147.337 94.6742 147.519 94.4731 147.684C94.272 147.849 94.0892 147.983 93.943 148.092L93.4556 148.44Z" fill="white"/>
<path d="M88.3982 123.726L93.1202 120.979V124.47L92.8034 121.545L88.3982 123.726Z" fill="#FAFAFA"/>
<path d="M88.7761 151.164L89.0259 154.198L93.4555 151.956L88.7761 154.661V151.164Z" fill="#FAFAFA"/>
<path d="M103.192 110.018L103.588 104.82L103.984 110.018L109.181 110.414L103.984 110.81L103.588 116.007L103.192 110.81L97.9944 110.414L103.192 110.018Z" fill="white"/>
<path d="M107.548 114.447L107.737 111.924L107.932 114.447L110.448 114.636L107.932 114.831L107.737 117.347L107.548 114.831L105.026 114.636L107.548 114.447Z" fill="white"/>
<path d="M114.03 10.6188L115.943 6.62911L107.576 1.77954C106.587 1.20493 105.527 0.76218 104.423 0.46256C104.036 0.36185 103.649 0.276636 103.254 0.206913C101.299 -0.115816 99.3001 -0.0605905 97.366 0.369598C96.6479 0.519153 95.9391 0.710569 95.2433 0.942868C94.4985 1.18357 93.7667 1.46284 93.0509 1.77954C92.0843 2.20857 91.1428 2.69224 90.2311 3.22821C89.2182 3.81762 88.2381 4.46156 87.295 5.15719C86.5668 5.68398 85.8541 6.24951 85.1413 6.84602C74.7605 15.631 66.6262 31.2566 64.519 46.2856C64.3719 47.3082 64.2634 48.323 64.1782 49.3379C64.0542 50.7943 64 52.2352 64 53.6529C64 54.8227 64.0542 55.977 64.1394 57.0383C64.2169 57.9834 64.3254 58.8976 64.4571 59.7807C64.5888 60.6639 64.7592 61.5005 64.9529 62.3217C65.4669 64.5731 66.2908 66.7422 67.4009 68.7672C67.6256 69.17 67.858 69.5418 68.1059 69.9292C69.0957 71.4711 70.3492 72.8269 71.8089 73.9343C72.2472 74.2554 72.7023 74.5528 73.1723 74.8252L81.082 79.3882L82.8328 75.7394C83.2976 75.6387 83.7624 75.5147 84.235 75.3753C86.1606 74.7813 88.0094 73.9622 89.743 72.935C90.8577 72.2784 91.9361 71.5621 92.9735 70.7891C94.366 69.7458 95.6908 68.6151 96.9399 67.4037C105.609 59.0603 112.434 46.0144 114.936 33.0229C115.307 31.1167 115.581 29.193 115.757 27.2592C115.897 25.6633 115.974 24.0829 115.966 22.5258C115.967 20.2757 115.783 18.0293 115.416 15.8092C115.112 14.0407 114.648 12.3034 114.03 10.6188Z" fill="#79D7BE"/>
<path opacity="0.25" d="M66.425 37.4158L83.3986 47.2157L85.6297 40.7547L68.6407 30.9316C67.7963 33.0543 67.0525 35.2157 66.425 37.4158Z" fill="white"/>
<path opacity="0.25" d="M107.577 1.77954C106.588 1.20493 105.528 0.76218 104.424 0.46256C104.036 0.36185 103.649 0.276636 103.254 0.206913C101.299 -0.115816 99.3003 -0.0605905 97.3662 0.369598L96.5916 0.555522L114.053 10.6265C114.053 10.6265 114.053 10.6265 114.053 10.5878L115.967 6.59812L107.577 1.77954Z" fill="white"/>
<path opacity="0.25" d="M105.764 26.5692L107.995 23.881L82.5461 9.24707C81.7404 10.0476 80.9502 10.8894 80.1755 11.7726L105.764 26.5692Z" fill="white"/>
<path opacity="0.25" d="M74.7683 18.9698L96.8393 31.698L99.2641 25.3533L78.7347 13.5005C77.3153 15.251 75.9913 17.0768 74.7683 18.9698Z" fill="white"/>
<path opacity="0.4" d="M107.577 1.77954C106.588 1.20493 105.528 0.76218 104.424 0.46256C104.036 0.36185 103.649 0.276636 103.254 0.206913C101.299 -0.115816 99.3002 -0.0605905 97.3661 0.369598C96.648 0.519153 95.9393 0.710569 95.2435 0.942868C94.4987 1.18357 93.7669 1.46284 93.0511 1.77954C92.0844 2.20857 91.143 2.69224 90.2312 3.22821C89.2184 3.81762 88.2382 4.46156 87.2951 5.15719C86.5669 5.68398 85.8542 6.24951 85.1415 6.84602C75.4733 15.0113 67.7264 29.1262 64.9995 43.1636L100.403 63.6077C107.696 54.7654 112.672 44.2462 114.882 32.9996C115.253 31.0934 115.527 29.1698 115.703 27.2359C115.843 25.64 115.92 24.0597 115.912 22.5025C115.913 20.2524 115.729 18.006 115.362 15.786C115.066 14.0182 114.609 12.2809 113.999 10.5955L115.912 6.60587L107.577 1.77954Z" fill="white"/>
<path opacity="0.1" d="M81.0587 79.3884L82.8095 75.7396C83.2743 75.6389 83.7391 75.5149 84.2117 75.3755C86.1373 74.7815 87.9861 73.9624 89.7198 72.9352C90.8345 72.2786 91.9129 71.5623 92.9502 70.7893C94.3428 69.746 95.6676 68.6153 96.9167 67.4039C98.1535 66.208 99.3275 64.9487 100.434 63.6311L65.0303 43.187C64.8289 44.2174 64.6585 45.2554 64.519 46.2858C64.3796 47.3161 64.2634 48.3232 64.1782 49.3381C64.0542 50.7945 64 52.2354 64 53.6531C64 54.8229 64.0542 55.9772 64.1394 57.0385C64.2169 57.9836 64.3254 58.8978 64.4571 59.7809C64.5888 60.6641 64.7592 61.5007 64.9529 62.3219C65.4669 64.5733 66.2908 66.7424 67.4009 68.7673C67.6256 69.1702 67.858 69.542 68.1059 69.9294C69.0957 71.4713 70.3492 72.827 71.8089 73.9345C72.2472 74.2556 72.7023 74.553 73.1723 74.8254L81.0587 79.3884Z" fill="black"/>
<path opacity="0.1" d="M67.4009 68.767C67.6255 69.1699 67.858 69.5417 68.1059 69.9291C69.0957 71.471 70.3492 72.8267 71.8089 73.9342C72.2472 74.2553 72.7023 74.5527 73.1723 74.8251L81.082 79.3881L82.8328 75.7393H82.9025L83.0264 74.2441L65.4409 64.0879C65.9252 65.7132 66.5822 67.2818 67.4009 68.767Z" fill="black"/>
<path d="M124.333 20.9685C123.972 18.6731 123.324 16.4322 122.404 14.2984C121.288 11.6415 119.521 9.30789 117.268 7.51206C115.886 6.44887 114.305 5.67195 112.62 5.22672C112.232 5.12601 111.845 5.04079 111.442 4.97107C109.487 4.64834 107.488 4.70357 105.554 5.13376C104.837 5.28527 104.128 5.47665 103.432 5.70703C102.687 5.94903 101.956 6.22828 101.239 6.5437C100.281 6.96823 99.3471 7.44672 98.4427 7.97688C97.4256 8.56347 96.4427 9.20751 95.4988 9.90586C94.7784 10.4327 94.0579 10.9982 93.3529 11.5947C82.9721 20.3565 74.7603 35.982 72.7229 51.011C72.5834 52.0336 72.4672 53.0485 72.3898 54.0633C72.2658 55.512 72.2038 56.9606 72.2116 58.3783C72.2116 59.5481 72.2581 60.7024 72.351 61.7637C72.4285 62.7089 72.5292 63.623 72.6687 64.5061C72.8081 65.3893 72.9708 66.226 73.1645 67.0471C73.6641 69.2994 74.4805 71.4695 75.5892 73.4926C75.8165 73.8954 76.0489 74.2828 76.2865 74.6546C77.279 76.1969 78.5351 77.5526 79.9972 78.6598C82.1162 80.248 84.6648 81.1605 87.3103 81.2782C89.2904 81.3678 91.2707 81.1055 93.1593 80.5035C95.0856 79.9115 96.9346 79.0923 98.6673 78.0633C99.7837 77.4094 100.862 76.693 101.898 75.9174C103.29 74.8741 104.615 73.7433 105.864 72.532C114.533 64.1963 121.358 51.1427 123.86 38.1511C124.228 36.2448 124.5 34.3211 124.674 32.3874C124.821 30.838 124.891 29.2112 124.891 27.6541C124.891 25.4139 124.704 23.1776 124.333 20.9685Z" fill="#79D7BE"/>
<path opacity="0.05" d="M73.2419 47.9048C73.0405 48.9429 72.8701 49.9887 72.7229 51.0036C72.5757 52.0184 72.4672 53.041 72.3898 54.0558C72.2658 55.5045 72.2038 56.9532 72.2116 58.3709C72.2116 59.5407 72.2581 60.6949 72.351 61.7563C72.4285 62.7014 72.5292 63.6155 72.6687 64.4987C72.8081 65.3818 72.9708 66.2185 73.1645 67.0397C73.6641 69.2919 74.4805 71.462 75.5892 73.4851C75.8165 73.888 76.0489 74.2753 76.2865 74.6471C77.279 76.1894 78.5351 77.5451 79.9972 78.6523C82.1162 80.2405 84.6648 81.153 87.3103 81.2708C89.2904 81.3603 91.2707 81.098 93.1593 80.4961C95.0856 79.904 96.9346 79.0848 98.6673 78.0558C99.6357 77.4903 100.596 76.8473 101.541 76.1656L73.2419 47.9048Z" fill="black"/>
<path opacity="0.05" d="M73.6533 68.8833C74.1305 70.4976 74.7798 72.0559 75.5901 73.5314C75.8173 73.9343 76.0497 74.3216 76.2873 74.6935C77.2798 76.2358 78.5359 77.5915 79.998 78.6986C81.7362 79.9992 83.7698 80.8484 85.9167 81.1699L73.6533 68.8833Z" fill="black"/>
<path opacity="0.1" d="M76.8448 35.6802C76.0004 37.8028 75.2954 39.9642 74.6292 42.1411L105.446 72.9583L105.865 72.5633C107.199 71.2731 108.461 69.9101 109.645 68.4806L76.8448 35.6802Z" fill="white"/>
<path opacity="0.1" d="M86.9159 18.2417C85.5045 19.991 84.1907 21.8169 82.9805 23.711L116.896 57.6348C117.997 55.5664 119.004 53.4205 119.91 51.2358L86.9159 18.2417Z" fill="white"/>
<path opacity="0.1" d="M90.7661 13.981C89.9914 14.7556 89.1548 15.6388 88.3723 16.5219L120.801 48.9506C121.255 47.742 121.679 46.518 122.071 45.2785L90.7661 13.981Z" fill="white"/>
<path opacity="0.1" d="M124.814 25.3377C124.814 24.7102 124.729 24.0982 124.667 23.494C124.667 23.3003 124.667 23.0989 124.605 22.8974L124.535 22.2854C124.473 21.8439 124.411 21.4023 124.334 20.9685C123.972 18.6731 123.324 16.4322 122.405 14.2984C121.288 11.6415 119.522 9.30789 117.268 7.51206C115.886 6.44887 114.306 5.67195 112.62 5.22672C112.233 5.12601 111.845 5.04079 111.443 4.97107C109.488 4.64834 107.489 4.70357 105.555 5.13376L104.78 5.31968L124.814 25.3377Z" fill="white"/>
<path d="M118.175 31.7134C118.175 45.5726 110.094 61.5855 99.8686 68.3873C99.4347 68.6817 98.9932 68.9528 98.5516 69.2085C87.7059 75.468 78.9209 68.8289 78.9209 54.3731C78.9209 39.9174 87.7059 23.1298 98.5516 16.8703C98.9932 16.6224 99.4347 16.3822 99.8686 16.1731C110.094 11.1686 118.175 17.8464 118.175 31.7134Z" fill="#79D7BE"/>
<path opacity="0.4" d="M118.175 31.7134C118.175 45.5726 110.094 61.5855 99.8686 68.3873C99.4347 68.6817 98.9932 68.9528 98.5516 69.2085C87.7059 75.468 78.9209 68.8289 78.9209 54.3731C78.9209 39.9174 87.7059 23.1298 98.5516 16.8703C98.9932 16.6224 99.4347 16.3822 99.8686 16.1731C110.094 11.1686 118.175 17.8464 118.175 31.7134Z" fill="black"/>
<path d="M117.307 32.2176C117.307 32.667 117.307 33.1163 117.307 33.5656C116.811 46.4875 109.281 60.9742 99.8377 67.2647L99.582 67.4351C99.2489 67.6443 98.9158 67.8535 98.5827 68.0471C96.7754 69.1382 94.773 69.867 92.6873 70.193C88.287 70.7895 84.6072 68.8606 82.3296 64.9174C80.8429 62.1732 80.0005 59.1266 79.8661 56.0084C79.8196 55.3267 79.7964 54.6295 79.7964 53.9013C79.7964 53.1731 79.7964 52.5765 79.8584 51.9026C79.9401 50.4749 80.0979 49.0526 80.3309 47.6418C81.9888 37.656 87.3031 27.4998 94.0895 21.3642C95.0267 20.5073 96.0234 19.7177 97.072 19.0014C97.5601 18.6683 98.0559 18.3584 98.5517 18.0718C99.0475 17.7851 99.3961 17.6069 99.8067 17.3978L100.155 17.2351C102.543 16.0166 105.255 15.5854 107.902 16.0033C111.853 16.778 114.874 19.8768 116.354 24.9355C117.009 27.3067 117.33 29.7577 117.307 32.2176Z" fill="#79D7BE"/>
<path opacity="0.5" d="M117.307 32.2176C117.307 32.667 117.307 33.1163 117.307 33.5656C116.811 46.4875 109.281 60.9742 99.8377 67.2647L99.582 67.4351C99.2489 67.6443 98.9158 67.8535 98.5827 68.0471C96.7754 69.1382 94.773 69.867 92.6873 70.193C88.287 70.7895 84.6072 68.8606 82.3296 64.9174C80.8429 62.1732 80.0005 59.1266 79.8661 56.0084C79.8196 55.3267 79.7964 54.6295 79.7964 53.9013C79.7964 53.1731 79.7964 52.5765 79.8584 51.9026C79.9401 50.4749 80.0979 49.0526 80.3309 47.6418C81.9888 37.656 87.3031 27.4998 94.0895 21.3642C95.0267 20.5073 96.0234 19.7177 97.072 19.0014C97.5601 18.6683 98.0559 18.3584 98.5517 18.0718C99.0475 17.7851 99.3961 17.6069 99.8067 17.3978L100.155 17.2351C102.543 16.0166 105.255 15.5854 107.902 16.0033C111.853 16.778 114.874 19.8768 116.354 24.9355C117.009 27.3067 117.33 29.7577 117.307 32.2176Z" fill="black"/>
<path d="M114.162 31.7603C114.162 31.3032 114.162 30.8539 114.162 30.4046C114.19 27.9347 113.872 25.4731 113.217 23.0915C112.569 20.4981 111.186 18.147 109.235 16.3207C108.81 16.1719 108.375 16.0553 107.933 15.9721C105.286 15.5542 102.574 15.9854 100.186 17.2038L99.8377 17.3665C99.4271 17.5757 99.001 17.7926 98.5827 18.0405C98.1644 18.2884 97.5911 18.637 97.103 18.9701C96.0544 19.6864 95.0577 20.476 94.1205 21.333C87.3419 27.4453 82.0198 37.6015 80.3619 47.6105C80.1289 49.0214 79.9712 50.4437 79.8894 51.8713C79.8429 52.5453 79.8274 53.2115 79.8274 53.87C79.8274 54.5285 79.8274 55.2954 79.8971 55.9772C80.0172 59.1034 80.8492 62.161 82.3296 64.9171C82.9758 66.0596 83.8085 67.086 84.7932 67.9539C86.3306 68.4707 87.9684 68.6167 89.573 68.38C91.6582 68.0564 93.6605 67.3302 95.4684 66.2418C95.8015 66.0482 96.1424 65.839 96.4678 65.6221L96.7234 65.4517C106.136 59.1689 113.666 44.6822 114.162 31.7603Z" fill="#79D7BE"/>
<path opacity="0.25" d="M114.162 31.7603C114.162 31.3032 114.162 30.8539 114.162 30.4046C114.19 27.9347 113.872 25.4731 113.217 23.0915C112.569 20.4981 111.186 18.147 109.235 16.3207C108.81 16.1719 108.375 16.0553 107.933 15.9721C105.286 15.5542 102.574 15.9854 100.186 17.2038L99.8377 17.3665C99.4271 17.5757 99.001 17.7926 98.5827 18.0405C98.1644 18.2884 97.5911 18.637 97.103 18.9701C96.0544 19.6864 95.0577 20.476 94.1205 21.333C87.3419 27.4453 82.0198 37.6015 80.3619 47.6105C80.1289 49.0214 79.9712 50.4437 79.8894 51.8713C79.8429 52.5453 79.8274 53.2115 79.8274 53.87C79.8274 54.5285 79.8274 55.2954 79.8971 55.9772C80.0172 59.1034 80.8492 62.161 82.3296 64.9171C82.9758 66.0596 83.8085 67.086 84.7932 67.9539C86.3306 68.4707 87.9684 68.6167 89.573 68.38C91.6582 68.0564 93.6605 67.3302 95.4684 66.2418C95.8015 66.0482 96.1424 65.839 96.4678 65.6221L96.7234 65.4517C106.136 59.1689 113.666 44.6822 114.162 31.7603Z" fill="black"/>
<path d="M111.458 4.97136C100.125 3.69312 90.9057 13.0824 84.7546 21.5188C75.8689 34.6188 70.2369 51.205 73.3124 67.0629C74.3195 71.4709 76.3337 75.9022 80.0058 78.6833C76.2563 75.9332 74.0794 71.5097 73.0335 67.0629C70.1982 54.0791 73.7618 40.4368 79.7036 28.8241C86.0484 17.3587 96.8398 3.40649 111.458 4.97136Z" fill="#F5F5F5"/>
<path opacity="0.35" d="M102.882 35.6956L99.1167 33.5187L106.399 27.3057L110.164 29.4826L102.882 35.6956Z" fill="black"/>
<path opacity="0.35" d="M105.198 37.1293C103.269 35.7658 99.9304 36.7962 97.095 37.6871C96.4133 37.9195 95.8013 38.1209 95.2435 38.2913C95.067 38.7084 94.9723 39.1555 94.9646 39.6083C94.9646 41.8007 96.8239 41.1577 100.868 39.8717C102.231 39.4039 103.627 39.0362 105.043 38.7716C105.167 39.8872 105.942 40.902 108.963 39.3062L105.198 37.1293Z" fill="black"/>
<path opacity="0.45" d="M95.8707 65.6842L92.1057 63.5073V59.0605L95.8707 61.2374V65.6842Z" fill="black"/>
<path opacity="0.35" d="M102.262 48.8033C102.262 50.5696 100.937 52.15 98.9697 53.2965C95.8709 55.117 94.6081 53.6296 94.3215 52.1809L93.6553 51.7936C94.1974 51.6334 94.7178 51.407 95.2047 51.1196C96.5677 50.4219 97.6485 49.2755 98.2647 47.8737C100.573 47.1145 102.262 46.8201 102.262 48.8033Z" fill="black"/>
<path opacity="0.35" d="M88.2477 59.7032C87.833 59.4605 87.3563 59.3446 86.8764 59.3701C86.7956 59.1393 86.7283 58.9039 86.675 58.6652L82.8945 56.4883C82.9962 57.1434 83.2368 57.7693 83.6002 58.3238C83.9636 58.8783 84.4415 59.3486 85.0017 59.7032L88.7589 61.8801C88.9365 61.5137 88.9826 61.0974 88.8895 60.701C88.7964 60.3046 88.5697 59.9523 88.2477 59.7032Z" fill="black"/>
<path d="M100.868 39.8712C96.8237 41.196 94.9645 41.8002 94.9645 39.6079C94.9722 39.155 95.0668 38.7079 95.2434 38.2909C92.4855 39.143 91.1995 39.2515 91.1995 37.431C91.1995 36.0907 92.1059 34.4407 94.6004 32.992C97.2576 31.4426 98.745 31.8067 99.1168 33.5188L106.399 27.3212C106.399 27.2283 106.337 27.1431 106.298 27.0501C106.752 26.9511 107.188 26.7839 107.592 26.5543L104.586 24.757L104.3 24.5866H104.253C103.366 24.155 102.373 23.9908 101.394 24.114C100.089 24.2553 98.8142 24.5977 97.6139 25.1289V25.0204L101.379 22.828L97.6139 20.6821L95.0652 22.1695L91.6101 24.176V28.615C86.5048 32.3335 83.3209 37.1831 83.3209 42.4355C83.3209 44.8215 83.9639 46.1772 85.0097 46.8667H85.0562C85.1457 46.9242 85.2389 46.976 85.3351 47.0217L88.4881 48.7957C88.5748 48.3269 88.5153 47.8428 88.3176 47.409C89.3184 47.2817 90.3061 47.0665 91.2692 46.766C95.0962 45.6117 98.4971 43.7912 98.4971 46.6266C98.4987 47.0532 98.4199 47.4764 98.2647 47.8738C100.589 47.0991 102.262 46.8202 102.262 48.8034C102.262 50.5697 100.937 52.1501 98.9696 53.2967C95.8709 55.1172 94.6081 53.6298 94.3215 52.1811L93.6552 51.7938L90.5565 50.0042L82.8948 56.4884L86.6598 58.6653C86.7793 59.2203 86.9721 59.7569 87.233 60.2611C88.9178 60.2016 90.5719 59.7927 92.0904 59.0604V60.8577L98.04 60.0442V55.6052C103.199 51.8015 106.755 46.6808 106.755 41.3277C106.786 40.4152 106.641 39.5052 106.329 38.6472C104.463 38.812 102.626 39.2236 100.868 39.8712Z" fill="#79D7BE"/>
<path opacity="0.15" d="M100.868 39.8712C96.8237 41.196 94.9645 41.8002 94.9645 39.6079C94.9722 39.155 95.0668 38.7079 95.2434 38.2909C92.4855 39.143 91.1995 39.2515 91.1995 37.431C91.1995 36.0907 92.1059 34.4407 94.6004 32.992C97.2576 31.4426 98.745 31.8067 99.1168 33.5188L106.399 27.3212C106.399 27.2283 106.337 27.1431 106.298 27.0501C106.752 26.9511 107.188 26.7839 107.592 26.5543L104.586 24.757L104.3 24.5866H104.253C103.366 24.155 102.373 23.9908 101.394 24.114C100.089 24.2553 98.8142 24.5977 97.6139 25.1289V25.0204L101.379 22.828L97.6139 20.6821L95.0652 22.1695L91.6101 24.176V28.615C86.5048 32.3335 83.3209 37.1831 83.3209 42.4355C83.3209 44.8215 83.9639 46.1772 85.0097 46.8667H85.0562C85.1457 46.9242 85.2389 46.976 85.3351 47.0217L88.4881 48.7957C88.5748 48.3269 88.5153 47.8428 88.3176 47.409C89.3184 47.2817 90.3061 47.0665 91.2692 46.766C95.0962 45.6117 98.4971 43.7912 98.4971 46.6266C98.4987 47.0532 98.4199 47.4764 98.2647 47.8738C100.589 47.0991 102.262 46.8202 102.262 48.8034C102.262 50.5697 100.937 52.1501 98.9696 53.2967C95.8709 55.1172 94.6081 53.6298 94.3215 52.1811L93.6552 51.7938L90.5565 50.0042L82.8948 56.4884L86.6598 58.6653C86.7793 59.2203 86.9721 59.7569 87.233 60.2611C88.9178 60.2016 90.5719 59.7927 92.0904 59.0604V60.8577L98.04 60.0442V55.6052C103.199 51.8015 106.755 46.6808 106.755 41.3277C106.786 40.4152 106.641 39.5052 106.329 38.6472C104.463 38.812 102.626 39.2236 100.868 39.8712Z" fill="black"/>
<g opacity="0.2">
<path d="M91.6254 28.6152C88.7582 30.7945 86.4309 33.6042 84.8236 36.827C84.0701 38.4441 83.6311 40.1898 83.5299 41.9709C83.4442 42.8561 83.4912 43.7491 83.6693 44.6204C83.8203 45.5083 84.2951 46.3087 85.0018 46.867C84.2276 46.3609 83.674 45.5803 83.4524 44.6823C83.22 43.7929 83.1208 42.874 83.158 41.9554C83.2272 40.1158 83.6645 38.3088 84.444 36.641C85.2427 34.9876 86.2875 33.4648 87.5428 32.1246C88.7577 30.795 90.1285 29.6167 91.6254 28.6152Z" fill="black"/>
</g>
<path d="M106.345 38.6471C104.473 38.8105 102.631 39.2221 100.868 39.8711C96.8237 41.1958 94.9645 41.8001 94.9645 39.6077C94.9722 39.1549 95.0669 38.7078 95.2434 38.2907C95.9204 36.9545 97.0059 35.869 98.3421 35.192C100.999 33.6426 102.487 34.0145 102.859 35.7265L110.141 29.529C109.909 28.5895 109.365 27.7566 108.598 27.1668C107.831 26.5771 106.886 26.2654 105.919 26.283C104.346 26.32 102.798 26.6813 101.371 27.3444V22.8589L97.6139 25.0203L95.3751 26.3218V30.7607C90.2698 34.4793 87.0859 39.3366 87.0859 44.5735C87.0528 45.5646 87.2079 46.553 87.5429 47.4863C88.674 50.2985 91.7573 49.9111 95.011 48.9583C96.1498 48.6174 97.2576 48.1836 98.2414 47.8892C100.566 47.1145 102.239 46.8356 102.239 48.8188C102.239 50.5851 100.914 52.1655 98.9464 53.312C95.8476 55.1325 94.5849 53.6451 94.2982 52.1965L86.6443 58.6806C86.7638 59.2356 86.9566 59.7723 87.2176 60.2765C88.2169 62.1435 89.9987 62.6626 92.0749 62.3837C93.3769 62.1857 94.6444 61.805 95.8399 61.2526V65.6994L101.79 62.2597V57.7897C106.949 53.9938 110.505 48.873 110.505 43.5199C110.536 39.6542 108.708 38.5929 106.345 38.6471Z" fill="#79D7BE"/>
<g opacity="0.1">
<path d="M106.345 38.6471C104.473 38.8105 102.631 39.2221 100.868 39.8711C96.8237 41.1958 94.9645 41.8001 94.9645 39.6077C94.9722 39.1549 95.0669 38.7078 95.2434 38.2907C95.9204 36.9545 97.0059 35.869 98.3421 35.192C100.999 33.6426 102.487 34.0145 102.859 35.7265L110.141 29.529C109.909 28.5895 109.365 27.7566 108.598 27.1668C107.831 26.5771 106.886 26.2654 105.919 26.283C104.346 26.32 102.798 26.6813 101.371 27.3444V22.8589L97.6139 25.0203L95.3751 26.3218V30.7607C90.2698 34.4793 87.0859 39.3366 87.0859 44.5735C87.0528 45.5646 87.2079 46.553 87.5429 47.4863C88.674 50.2985 91.7573 49.9111 95.011 48.9583C96.1498 48.6174 97.2576 48.1836 98.2414 47.8892C100.566 47.1145 102.239 46.8356 102.239 48.8188C102.239 50.5851 100.914 52.1655 98.9464 53.312C95.8476 55.1325 94.5849 53.6451 94.2982 52.1965L86.6443 58.6806C86.7638 59.2356 86.9566 59.7723 87.2176 60.2765C88.2169 62.1435 89.9987 62.6626 92.0749 62.3837C93.3769 62.1857 94.6444 61.805 95.8399 61.2526V65.6994L101.79 62.2597V57.7897C106.949 53.9938 110.505 48.873 110.505 43.5199C110.536 39.6542 108.708 38.5929 106.345 38.6471Z" fill="white"/>
</g>
<path opacity="0.1" d="M93.7947 52.6304L89.0923 56.6045L94.3137 61.8337C94.825 61.6633 95.3441 61.4696 95.8631 61.2372V63.3831L97.3195 64.8395L101.813 62.2443V60.6949L93.7947 52.6304Z" fill="white"/>
<path opacity="0.1" d="M106.344 38.6472C104.473 38.8106 102.631 39.2222 100.867 39.8712L99.5581 40.2973L108.971 49.702C109.966 47.7863 110.497 45.6633 110.52 43.5045C110.526 42.896 110.469 42.2885 110.35 41.6917L107.367 38.7092C107.029 38.6574 106.686 38.6367 106.344 38.6472Z" fill="white"/>
<path opacity="0.1" d="M96.1652 36.8967C96.8118 36.2064 97.5619 35.6209 98.3886 35.1614C101.046 33.612 102.533 33.9839 102.905 35.696L103.68 35.0142L95.3905 26.7173V30.7922C94.3695 31.5377 93.4014 32.3531 92.4932 33.2324L96.1652 36.8967Z" fill="white"/>
<path opacity="0.1" d="M103.393 26.6087C102.714 26.7995 102.047 27.0297 101.394 27.2982V24.61L100.286 23.4712L97.6138 25.0206L97.1567 25.284L105.399 33.5422L108.064 31.2723L103.393 26.6087Z" fill="white"/>
<path opacity="0.1" d="M90.7966 49.6327L87.1943 46.0381C87.2533 46.533 87.3703 47.0192 87.5429 47.4868C87.7932 48.1395 88.2416 48.6974 88.8252 49.0822C89.4087 49.4671 90.0981 49.6596 90.7966 49.6327Z" fill="white"/>
<path d="M95.391 30.7916L91.626 28.6148V24.1758L95.391 26.3527V30.7916Z" fill="#79D7BE"/>
<path opacity="0.35" d="M95.391 30.7916L91.626 28.6148V24.1758L95.391 26.3527V30.7916Z" fill="black"/>
<path d="M101.821 57.7744C101.821 57.7744 102.037 57.6118 102.402 57.3096C102.631 57.1407 102.85 56.9597 103.06 56.7673C103.308 56.5504 103.602 56.318 103.897 56.0391C104.191 55.7602 104.516 55.4659 104.842 55.1327L105.338 54.6214C105.508 54.4433 105.671 54.2573 105.841 54.0714C106.012 53.8855 106.182 53.6918 106.345 53.4904C106.507 53.289 106.686 53.0876 106.848 52.8784C107.166 52.4523 107.499 52.0262 107.786 51.5692C108.072 51.1121 108.359 50.655 108.63 50.198C108.882 49.7431 109.11 49.275 109.312 48.7958C109.529 48.3387 109.676 47.8739 109.846 47.4401C109.908 47.218 109.97 47.0011 110.032 46.7893L110.125 46.4794C110.125 46.3787 110.172 46.278 110.187 46.1773C110.272 45.7822 110.358 45.4026 110.396 45.0927C110.435 44.7829 110.489 44.4807 110.497 44.2483C110.497 43.7758 110.536 43.4736 110.536 43.4736C110.536 43.4736 110.536 43.7448 110.536 44.2483C110.528 44.5335 110.505 44.818 110.466 45.1005C110.431 45.4702 110.374 45.8375 110.296 46.2005C110.296 46.3013 110.296 46.402 110.234 46.5027C110.172 46.6034 110.179 46.7118 110.148 46.8203C110.118 46.9288 110.032 47.2541 109.97 47.4788C109.823 47.9443 109.653 48.402 109.459 48.85C109.265 49.3303 109.025 49.7951 108.777 50.2677C108.529 50.7402 108.251 51.2128 107.933 51.6544C107.615 52.096 107.305 52.5453 106.98 52.9714C106.817 53.1805 106.639 53.3819 106.476 53.5834L105.965 54.1644L105.454 54.7144L104.935 55.218C104.609 55.5433 104.269 55.83 103.966 56.1011C103.664 56.3723 103.37 56.6047 103.114 56.8138C102.859 57.023 102.626 57.1934 102.44 57.3329L101.821 57.7744Z" fill="white"/>
<path d="M95.3906 26.3527L101.394 22.8589V27.2979L100.992 23.5794L95.3906 26.3527Z" fill="#FAFAFA"/>
<path d="M95.8711 61.2378L96.1887 65.0958L101.821 62.2449L95.8711 65.6845V61.2378Z" fill="#FAFAFA"/>
<path d="M114.201 8.92258L114.704 2.31445L115.208 8.92258L121.816 9.42613L115.208 9.92968L114.704 16.5378L114.201 9.92968L107.593 9.42613L114.201 8.92258Z" fill="white"/>
<path d="M119.74 14.5539L119.98 11.3467L120.228 14.5539L123.427 14.7941L120.228 15.042L119.98 18.2414L119.74 15.042L116.532 14.7941L119.74 14.5539Z" fill="white"/>
<path d="M41.502 172.262L42.6303 169.909L37.6966 167.049C37.1133 166.711 36.4883 166.449 35.8373 166.273C35.6089 166.213 35.3805 166.163 35.1475 166.122C33.9947 165.932 32.8161 165.964 31.6756 166.218C31.2521 166.306 30.8342 166.419 30.4239 166.556C29.9847 166.698 29.5532 166.863 29.1311 167.049C28.561 167.302 28.0058 167.588 27.4682 167.904C26.8709 168.251 26.293 168.631 25.7368 169.041C25.3074 169.352 24.8871 169.685 24.4668 170.037C18.3453 175.217 13.5486 184.432 12.3061 193.294C12.2193 193.897 12.1553 194.496 12.1051 195.094C12.032 195.953 12 196.803 12 197.639C12 198.328 12.032 199.009 12.0822 199.635C12.1279 200.192 12.1919 200.731 12.2695 201.252C12.3472 201.773 12.4477 202.266 12.5619 202.751C12.865 204.078 13.3508 205.357 14.0055 206.551C14.138 206.789 14.275 207.008 14.4212 207.237C15.0049 208.146 15.744 208.945 16.6048 209.598C16.8633 209.788 17.1317 209.963 17.4088 210.124L22.0731 212.814L23.1055 210.663C23.3796 210.603 23.6537 210.53 23.9324 210.448C25.0679 210.098 26.1581 209.615 27.1804 209.009C27.8377 208.622 28.4736 208.199 29.0854 207.744C29.9065 207.128 30.6878 206.462 31.4243 205.747C36.5363 200.827 40.5609 193.134 42.0365 185.473C42.255 184.349 42.4166 183.215 42.5207 182.074C42.6029 181.133 42.6486 180.201 42.644 179.283C42.6444 177.956 42.536 176.632 42.3197 175.323C42.1403 174.28 41.8666 173.255 41.502 172.262Z" fill="#79D7BE"/>
<path opacity="0.25" d="M13.4302 188.063L23.4393 193.842L24.7549 190.032L14.7367 184.24C14.2388 185.491 13.8002 186.766 13.4302 188.063Z" fill="white"/>
<path opacity="0.25" d="M37.6968 167.049C37.1136 166.711 36.4885 166.449 35.8375 166.273C35.6091 166.213 35.3807 166.163 35.1477 166.122C33.9949 165.932 32.8163 165.964 31.6758 166.218L31.219 166.328L41.5159 172.266C41.5159 172.266 41.5159 172.266 41.5159 172.244L42.6443 169.891L37.6968 167.049Z" fill="white"/>
<path opacity="0.25" d="M36.6279 181.668L37.9435 180.083L22.9367 171.453C22.4616 171.925 21.9956 172.422 21.5388 172.942L36.6279 181.668Z" fill="white"/>
<path opacity="0.25" d="M18.3501 177.186L31.3651 184.692L32.795 180.95L20.6891 173.961C19.8521 174.993 19.0713 176.07 18.3501 177.186Z" fill="white"/>
<path opacity="0.4" d="M37.6969 167.049C37.1136 166.711 36.4886 166.449 35.8376 166.273C35.6092 166.213 35.3808 166.163 35.1478 166.122C33.995 165.932 32.8164 165.964 31.6759 166.218C31.2524 166.306 30.8345 166.419 30.4242 166.556C29.985 166.698 29.5535 166.863 29.1314 167.049C28.5613 167.302 28.0061 167.588 27.4685 167.904C26.8712 168.251 26.2932 168.631 25.7371 169.041C25.3077 169.352 24.8874 169.685 24.4671 170.037C18.7659 174.852 14.1976 183.175 12.5896 191.453L33.4667 203.509C37.7671 198.295 40.7014 192.092 42.0048 185.46C42.2233 184.336 42.385 183.201 42.489 182.061C42.5712 181.12 42.6169 180.188 42.6124 179.27C42.6127 177.943 42.5043 176.618 42.288 175.309C42.1131 174.266 41.8439 173.242 41.484 172.248L42.6124 169.895L37.6969 167.049Z" fill="white"/>
<path opacity="0.1" d="M22.0596 212.814L23.092 210.663C23.3661 210.603 23.6402 210.53 23.9189 210.448C25.0544 210.098 26.1446 209.615 27.1669 209.009C27.8243 208.622 28.4602 208.199 29.0719 207.744C29.8931 207.128 30.6743 206.462 31.4109 205.747C32.1403 205.042 32.8325 204.299 33.4849 203.522L12.6078 191.467C12.4891 192.074 12.3885 192.687 12.3063 193.294C12.2241 193.902 12.1556 194.496 12.1053 195.094C12.0322 195.953 12.0002 196.803 12.0002 197.639C12.0002 198.328 12.0322 199.009 12.0825 199.635C12.1282 200.192 12.1921 200.731 12.2698 201.252C12.3474 201.773 12.4479 202.266 12.5621 202.75C12.8653 204.078 13.3511 205.357 14.0057 206.551C14.1382 206.789 14.2753 207.008 14.4214 207.237C15.0051 208.146 15.7443 208.945 16.6051 209.598C16.8635 209.788 17.1319 209.963 17.4091 210.124L22.0596 212.814Z" fill="black"/>
<path opacity="0.1" d="M14.0056 206.551C14.1381 206.789 14.2752 207.008 14.4213 207.236C15.005 208.146 15.7442 208.945 16.605 209.598C16.8634 209.788 17.1318 209.963 17.409 210.124L22.0732 212.814L23.1056 210.663H23.1468L23.2199 209.781L12.8499 203.792C13.1354 204.75 13.5229 205.675 14.0056 206.551Z" fill="black"/>
<path d="M47.5781 178.365C47.365 177.012 46.9829 175.69 46.4406 174.432C45.7824 172.865 44.7409 171.489 43.4118 170.43C42.5968 169.803 41.665 169.345 40.6708 169.082C40.4424 169.023 40.214 168.973 39.9765 168.932C38.8237 168.741 37.6451 168.774 36.5046 169.028C36.0814 169.117 35.6635 169.23 35.2528 169.366C34.8139 169.508 34.3824 169.673 33.96 169.859C33.3948 170.109 32.8442 170.391 32.3109 170.704C31.7111 171.05 31.1315 171.43 30.5749 171.842C30.1501 172.152 29.7252 172.486 29.3095 172.837C23.188 178.004 18.3456 187.218 17.1442 196.081C17.0619 196.684 16.9934 197.282 16.9477 197.881C16.8746 198.735 16.8381 199.589 16.8427 200.425C16.8427 201.115 16.8701 201.796 16.9249 202.422C16.9706 202.979 17.03 203.518 17.1122 204.039C17.1944 204.56 17.2904 205.053 17.4046 205.537C17.6992 206.865 18.1806 208.145 18.8344 209.338C18.9684 209.576 19.1055 209.804 19.2456 210.023C19.8309 210.933 20.5716 211.732 21.4338 212.385C22.6833 213.322 24.1862 213.86 25.7462 213.929C26.9139 213.982 28.0817 213.827 29.1953 213.472C30.3312 213.123 31.4216 212.64 32.4434 212.033C33.1017 211.648 33.7377 211.225 34.3483 210.768C35.1695 210.153 35.9507 209.486 36.6873 208.772C41.7992 203.856 45.8239 196.159 47.2994 188.498C47.5165 187.373 47.6766 186.239 47.7791 185.099C47.8659 184.185 47.907 183.226 47.907 182.308C47.907 180.987 47.797 179.668 47.5781 178.365Z" fill="#79D7BE"/>
<path opacity="0.05" d="M17.4502 194.249C17.3315 194.861 17.231 195.478 17.1442 196.076C17.0574 196.675 16.9934 197.278 16.9477 197.876C16.8746 198.731 16.8381 199.585 16.8427 200.421C16.8427 201.111 16.8701 201.791 16.9249 202.417C16.9706 202.974 17.03 203.514 17.1122 204.034C17.1944 204.555 17.2904 205.048 17.4046 205.533C17.6992 206.861 18.1806 208.14 18.8344 209.333C18.9684 209.571 19.1055 209.799 19.2456 210.019C19.8309 210.928 20.5716 211.728 21.4338 212.381C22.6833 213.317 24.1862 213.855 25.7463 213.925C26.9139 213.977 28.0817 213.823 29.1953 213.468C30.3312 213.119 31.4216 212.636 32.4434 212.029C33.0144 211.695 33.5809 211.316 34.1382 210.914L17.4502 194.249Z" fill="black"/>
<path opacity="0.05" d="M17.6926 206.62C17.974 207.572 18.3569 208.49 18.8347 209.361C18.9687 209.598 19.1057 209.827 19.2458 210.046C19.8311 210.955 20.5718 211.755 21.4341 212.408C22.459 213.175 23.6582 213.675 24.9242 213.865L17.6926 206.62Z" fill="black"/>
<path opacity="0.1" d="M19.5746 187.04C19.0767 188.292 18.6609 189.566 18.2681 190.85L36.4407 209.023L36.6874 208.79C37.4743 208.029 38.2185 207.225 38.9167 206.382L19.5746 187.04Z" fill="white"/>
<path opacity="0.1" d="M25.5136 176.757C24.6812 177.788 23.9065 178.865 23.1929 179.982L43.1928 199.987C43.8415 198.767 44.4354 197.501 44.9699 196.213L25.5136 176.757Z" fill="white"/>
<path opacity="0.1" d="M27.7839 174.245C27.3271 174.701 26.8337 175.222 26.3723 175.743L45.4951 194.866C45.7631 194.153 46.0129 193.431 46.2443 192.7L27.7839 174.245Z" fill="white"/>
<path opacity="0.1" d="M47.8614 180.942C47.8614 180.572 47.8112 180.211 47.7746 179.854C47.7746 179.74 47.7746 179.621 47.7381 179.503L47.697 179.142C47.6604 178.881 47.6239 178.621 47.5782 178.365C47.3652 177.012 46.983 175.69 46.4407 174.432C45.7825 172.865 44.741 171.489 43.4119 170.43C42.5969 169.803 41.6651 169.345 40.671 169.082C40.4425 169.023 40.2141 168.973 39.9766 168.932C38.8238 168.741 37.6452 168.774 36.5047 169.028L36.0479 169.137L47.8614 180.942Z" fill="white"/>
<path d="M43.9463 184.701C43.9463 192.874 39.1816 202.316 33.1515 206.327C32.8956 206.501 32.6353 206.661 32.3749 206.811C25.9793 210.503 20.7988 206.588 20.7988 198.063C20.7988 189.539 25.9793 179.639 32.3749 175.948C32.6353 175.802 32.8956 175.66 33.1515 175.537C39.1816 172.586 43.9463 176.524 43.9463 184.701Z" fill="#79D7BE"/>
<path opacity="0.4" d="M43.9463 184.701C43.9463 192.874 39.1816 202.316 33.1515 206.327C32.8956 206.501 32.6353 206.661 32.3749 206.811C25.9793 210.503 20.7988 206.588 20.7988 198.063C20.7988 189.539 25.9793 179.639 32.3749 175.948C32.6353 175.802 32.8956 175.66 33.1515 175.537C39.1816 172.586 43.9463 176.524 43.9463 184.701Z" fill="black"/>
<path d="M43.4348 184.998C43.4348 185.263 43.4348 185.528 43.4348 185.793C43.1424 193.413 38.7021 201.956 33.1333 205.665L32.9826 205.766C32.7861 205.889 32.5897 206.012 32.3933 206.126C31.3275 206.77 30.1468 207.2 28.9168 207.392C26.322 207.744 24.1521 206.606 22.809 204.281C21.9323 202.663 21.4355 200.866 21.3563 199.027C21.3289 198.625 21.3152 198.214 21.3152 197.785C21.3152 197.355 21.3152 197.004 21.3517 196.606C21.4 195.764 21.493 194.926 21.6304 194.094C22.608 188.205 25.7419 182.216 29.7437 178.598C30.2963 178.093 30.8841 177.627 31.5025 177.205C31.7903 177.008 32.0826 176.825 32.375 176.656C32.6674 176.487 32.8729 176.382 33.1151 176.259L33.3206 176.163C34.7285 175.445 36.3277 175.19 37.8889 175.437C40.2187 175.894 42.0004 177.721 42.8729 180.704C43.2592 182.102 43.4484 183.548 43.4348 184.998Z" fill="#79D7BE"/>
<path opacity="0.5" d="M43.4348 184.998C43.4348 185.263 43.4348 185.528 43.4348 185.793C43.1424 193.413 38.7021 201.956 33.1333 205.665L32.9826 205.766C32.7861 205.889 32.5897 206.012 32.3933 206.126C31.3275 206.77 30.1468 207.2 28.9168 207.392C26.322 207.744 24.1521 206.606 22.809 204.281C21.9323 202.663 21.4355 200.866 21.3563 199.027C21.3289 198.625 21.3152 198.214 21.3152 197.785C21.3152 197.355 21.3152 197.004 21.3517 196.606C21.4 195.764 21.493 194.926 21.6304 194.094C22.608 188.205 25.7419 182.216 29.7437 178.598C30.2963 178.093 30.8841 177.627 31.5025 177.205C31.7903 177.008 32.0826 176.825 32.375 176.656C32.6674 176.487 32.8729 176.382 33.1151 176.259L33.3206 176.163C34.7285 175.445 36.3277 175.19 37.8889 175.437C40.2187 175.894 42.0004 177.721 42.8729 180.704C43.2592 182.102 43.4484 183.548 43.4348 184.998Z" fill="black"/>
<path d="M41.5801 184.729C41.5801 184.459 41.5801 184.194 41.5801 183.929C41.5966 182.473 41.409 181.021 41.0228 179.617C40.641 178.088 39.8257 176.701 38.6747 175.624C38.4244 175.536 38.1679 175.468 37.9072 175.419C36.346 175.172 34.7468 175.427 33.3389 176.145L33.1334 176.241C32.8912 176.364 32.64 176.492 32.3933 176.638C32.1466 176.785 31.8086 176.99 31.5208 177.187C30.9024 177.609 30.3147 178.075 29.762 178.58C25.7647 182.184 22.6263 188.173 21.6487 194.076C21.5113 194.908 21.4183 195.746 21.37 196.588C21.3426 196.986 21.3335 197.378 21.3335 197.767C21.3335 198.155 21.3335 198.607 21.3746 199.009C21.4454 200.853 21.936 202.656 22.809 204.281C23.1901 204.955 23.6811 205.56 24.2618 206.072C25.1684 206.377 26.1342 206.463 27.0804 206.323C28.31 206.132 29.4908 205.704 30.5569 205.062C30.7533 204.948 30.9543 204.825 31.1462 204.697L31.2969 204.596C36.8474 200.891 41.2878 192.349 41.5801 184.729Z" fill="#79D7BE"/>
<path opacity="0.25" d="M41.5801 184.729C41.5801 184.459 41.5801 184.194 41.5801 183.929C41.5966 182.473 41.409 181.021 41.0228 179.617C40.641 178.088 39.8257 176.701 38.6747 175.624C38.4244 175.536 38.1679 175.468 37.9072 175.419C36.346 175.172 34.7468 175.427 33.3389 176.145L33.1334 176.241C32.8912 176.364 32.64 176.492 32.3933 176.638C32.1466 176.785 31.8086 176.99 31.5208 177.187C30.9024 177.609 30.3147 178.075 29.762 178.58C25.7647 182.184 22.6263 188.173 21.6487 194.076C21.5113 194.908 21.4183 195.746 21.37 196.588C21.3426 196.986 21.3335 197.378 21.3335 197.767C21.3335 198.155 21.3335 198.607 21.3746 199.009C21.4454 200.853 21.936 202.656 22.809 204.281C23.1901 204.955 23.6811 205.56 24.2618 206.072C25.1684 206.377 26.1342 206.463 27.0804 206.323C28.31 206.132 29.4908 205.704 30.5569 205.062C30.7533 204.948 30.9543 204.825 31.1462 204.697L31.2969 204.596C36.8474 200.891 41.2878 192.349 41.5801 184.729Z" fill="black"/>
<path d="M39.9859 168.932C33.3025 168.178 27.8663 173.715 24.2391 178.689C18.9992 186.414 15.6781 196.195 17.4917 205.546C18.0856 208.146 19.2733 210.759 21.4387 212.399C19.2276 210.777 17.944 208.169 17.3272 205.546C15.6553 197.89 17.7567 189.845 21.2605 182.997C25.002 176.236 31.3656 168.009 39.9859 168.932Z" fill="#F5F5F5"/>
<path opacity="0.35" d="M34.9287 187.05L32.7085 185.766L37.0027 182.102L39.2229 183.386L34.9287 187.05Z" fill="black"/>
<path opacity="0.35" d="M36.295 187.895C35.1574 187.091 33.1885 187.698 31.5165 188.224C31.1145 188.361 30.7536 188.48 30.4247 188.58C30.3206 188.826 30.2648 189.09 30.2603 189.357C30.2603 190.65 31.3566 190.27 33.7413 189.512C34.5452 189.236 35.3681 189.019 36.2036 188.863C36.2767 189.521 36.7335 190.12 38.5151 189.179L36.295 187.895Z" fill="black"/>
<path opacity="0.45" d="M30.7944 204.733L28.5742 203.449V200.827L30.7944 202.111V204.733Z" fill="black"/>
<path opacity="0.35" d="M34.5634 194.779C34.5634 195.82 33.7822 196.752 32.6219 197.428C30.7946 198.502 30.0499 197.625 29.8809 196.77L29.488 196.542C29.8077 196.447 30.1146 196.314 30.4017 196.144C31.2055 195.733 31.8428 195.057 32.2062 194.23C33.5675 193.783 34.5634 193.609 34.5634 194.779Z" fill="black"/>
<path opacity="0.35" d="M26.2993 201.206C26.0548 201.063 25.7736 200.995 25.4907 201.01C25.443 200.874 25.4033 200.735 25.3719 200.594L23.1426 199.311C23.2025 199.697 23.3444 200.066 23.5587 200.393C23.773 200.72 24.0548 200.997 24.3852 201.206L26.6008 202.49C26.7055 202.274 26.7326 202.028 26.6777 201.795C26.6228 201.561 26.4892 201.353 26.2993 201.206Z" fill="black"/>
<path d="M33.7407 189.512C31.3561 190.293 30.2597 190.649 30.2597 189.357C30.2643 189.09 30.3201 188.826 30.4242 188.58C28.7979 189.083 28.0395 189.146 28.0395 188.073C28.0395 187.283 28.574 186.31 30.045 185.455C31.6119 184.542 32.489 184.756 32.7083 185.766L37.0025 182.111C37.0025 182.056 36.966 182.006 36.9431 181.951C37.2107 181.893 37.4679 181.794 37.706 181.659L35.9335 180.599L35.7645 180.499H35.7371C35.2141 180.244 34.6284 180.147 34.0514 180.22C33.2819 180.303 32.5299 180.505 31.8221 180.818V180.755L34.0423 179.462L31.8221 178.196L30.3191 179.073L28.2817 180.257V182.874C25.2712 185.067 23.3936 187.927 23.3936 191.024C23.3936 192.431 23.7728 193.231 24.3895 193.637H24.4169C24.4697 193.671 24.5246 193.702 24.5813 193.728L26.4406 194.775C26.4918 194.498 26.4567 194.213 26.3401 193.957C26.9303 193.882 27.5127 193.755 28.0806 193.578C30.3374 192.897 32.3429 191.823 32.3429 193.495C32.3438 193.747 32.2973 193.997 32.2058 194.231C33.5763 193.774 34.563 193.61 34.563 194.779C34.563 195.821 33.7819 196.753 32.6215 197.429C30.7942 198.502 30.0496 197.625 29.8806 196.771L29.4877 196.543L27.6604 195.487L23.1423 199.311L25.3625 200.595C25.433 200.922 25.5467 201.238 25.7006 201.536C26.6941 201.501 27.6695 201.259 28.5649 200.828V201.887L32.0733 201.408V198.79C35.1158 196.547 37.2126 193.527 37.2126 190.371C37.2308 189.833 37.1455 189.296 36.9614 188.79C35.8607 188.887 34.7777 189.13 33.7407 189.512Z" fill="#79D7BE"/>
<path opacity="0.15" d="M33.7407 189.512C31.3561 190.293 30.2597 190.649 30.2597 189.357C30.2643 189.09 30.3201 188.826 30.4242 188.58C28.7979 189.083 28.0395 189.146 28.0395 188.073C28.0395 187.283 28.574 186.31 30.045 185.455C31.6119 184.542 32.489 184.756 32.7083 185.766L37.0025 182.111C37.0025 182.056 36.966 182.006 36.9431 181.951C37.2107 181.893 37.4679 181.794 37.706 181.659L35.9335 180.599L35.7645 180.499H35.7371C35.2141 180.244 34.6284 180.147 34.0514 180.22C33.2819 180.303 32.5299 180.505 31.8221 180.818V180.755L34.0423 179.462L31.8221 178.196L30.3191 179.073L28.2817 180.257V182.874C25.2712 185.067 23.3936 187.927 23.3936 191.024C23.3936 192.431 23.7728 193.231 24.3895 193.637H24.4169C24.4697 193.671 24.5246 193.702 24.5813 193.728L26.4406 194.775C26.4918 194.498 26.4567 194.213 26.3401 193.957C26.9303 193.882 27.5127 193.755 28.0806 193.578C30.3374 192.897 32.3429 191.823 32.3429 193.495C32.3438 193.747 32.2973 193.997 32.2058 194.231C33.5763 193.774 34.563 193.61 34.563 194.779C34.563 195.821 33.7819 196.753 32.6215 197.429C30.7942 198.502 30.0496 197.625 29.8806 196.771L29.4877 196.543L27.6604 195.487L23.1423 199.311L25.3625 200.595C25.433 200.922 25.5467 201.238 25.7006 201.536C26.6941 201.501 27.6695 201.259 28.5649 200.828V201.887L32.0733 201.408V198.79C35.1158 196.547 37.2126 193.527 37.2126 190.371C37.2308 189.833 37.1455 189.296 36.9614 188.79C35.8607 188.887 34.7777 189.13 33.7407 189.512Z" fill="black"/>
<g opacity="0.2">
<path d="M28.2911 182.874C26.6003 184.159 25.228 185.816 24.2801 187.716C23.8358 188.67 23.5769 189.699 23.5172 190.75C23.4667 191.272 23.4944 191.798 23.5995 192.312C23.6885 192.836 23.9685 193.308 24.3852 193.637C23.9287 193.338 23.6022 192.878 23.4716 192.349C23.3345 191.824 23.276 191.282 23.298 190.741C23.3388 189.656 23.5966 188.59 24.0563 187.607C24.5273 186.632 25.1434 185.734 25.8836 184.943C26.6 184.159 27.4084 183.465 28.2911 182.874Z" fill="black"/>
</g>
<path d="M36.9709 188.79C35.8671 188.886 34.781 189.129 33.7411 189.511C31.3565 190.293 30.2601 190.649 30.2601 189.356C30.2646 189.089 30.3205 188.825 30.4246 188.58C30.8238 187.792 31.4639 187.151 32.2519 186.752C33.8188 185.839 34.6959 186.058 34.9152 187.067L39.2094 183.413C39.0728 182.859 38.752 182.368 38.2996 182.02C37.8473 181.672 37.2902 181.488 36.7197 181.499C35.7922 181.52 34.8793 181.734 34.0381 182.125V179.479L31.8225 180.754L30.5022 181.522V184.139C27.4917 186.332 25.6142 189.196 25.6142 192.284C25.5947 192.869 25.6861 193.452 25.8837 194.002C26.5507 195.66 28.3688 195.432 30.2875 194.87C30.959 194.669 31.6123 194.413 32.1925 194.24C33.563 193.783 34.5497 193.618 34.5497 194.788C34.5497 195.829 33.7685 196.761 32.6082 197.437C30.7809 198.511 30.0363 197.634 29.8672 196.78L25.3538 200.603C25.4242 200.931 25.5379 201.247 25.6918 201.544C26.2811 202.645 27.3318 202.951 28.5561 202.787C29.3239 202.67 30.0713 202.446 30.7763 202.12V204.742L34.2848 202.714V200.078C37.3272 197.839 39.4241 194.82 39.4241 191.663C39.4423 189.384 38.3642 188.758 36.9709 188.79Z" fill="#79D7BE"/>
<g opacity="0.1">
<path d="M36.9709 188.79C35.8671 188.886 34.781 189.129 33.7411 189.511C31.3565 190.293 30.2601 190.649 30.2601 189.356C30.2646 189.089 30.3205 188.825 30.4246 188.58C30.8238 187.792 31.4639 187.151 32.2519 186.752C33.8188 185.839 34.6959 186.058 34.9152 187.067L39.2094 183.413C39.0728 182.859 38.752 182.368 38.2996 182.02C37.8473 181.672 37.2902 181.488 36.7197 181.499C35.7922 181.52 34.8793 181.734 34.0381 182.125V179.479L31.8225 180.754L30.5022 181.522V184.139C27.4917 186.332 25.6142 189.196 25.6142 192.284C25.5947 192.869 25.6861 193.452 25.8837 194.002C26.5507 195.66 28.3688 195.432 30.2875 194.87C30.959 194.669 31.6123 194.413 32.1925 194.24C33.563 193.783 34.5497 193.618 34.5497 194.788C34.5497 195.829 33.7685 196.761 32.6082 197.437C30.7809 198.511 30.0363 197.634 29.8672 196.78L25.3538 200.603C25.4242 200.931 25.5379 201.247 25.6918 201.544C26.2811 202.645 27.3318 202.951 28.5561 202.787C29.3239 202.67 30.0713 202.446 30.7763 202.12V204.742L34.2848 202.714V200.078C37.3272 197.839 39.4241 194.82 39.4241 191.663C39.4423 189.384 38.3642 188.758 36.9709 188.79Z" fill="white"/>
</g>
<path opacity="0.1" d="M29.5703 197.036L26.7974 199.379L29.8764 202.463C30.1779 202.362 30.484 202.248 30.79 202.111V203.376L31.6489 204.235L34.2985 202.705V201.791L29.5703 197.036Z" fill="white"/>
<path opacity="0.1" d="M36.9708 188.79C35.867 188.886 34.7809 189.129 33.741 189.511L32.969 189.763L38.5195 195.309C39.1064 194.179 39.4193 192.927 39.4331 191.654C39.4365 191.295 39.4028 190.937 39.3326 190.585L37.5738 188.826C37.3744 188.796 37.1725 188.783 36.9708 188.79Z" fill="white"/>
<path opacity="0.1" d="M30.9681 187.758C31.3494 187.351 31.7917 187.005 32.2792 186.734C33.8461 185.821 34.7232 186.04 34.9425 187.05L35.3993 186.648L30.5113 181.755V184.158C29.9092 184.597 29.3383 185.078 28.8027 185.597L30.9681 187.758Z" fill="white"/>
<path opacity="0.1" d="M35.2302 181.691C34.8298 181.803 34.4362 181.939 34.0516 182.098V180.512L33.3983 179.841L31.8223 180.754L31.5527 180.91L36.4134 185.78L37.9849 184.441L35.2302 181.691Z" fill="white"/>
<path opacity="0.1" d="M27.8025 195.268L25.6782 193.148C25.713 193.44 25.782 193.727 25.8838 194.002C26.0314 194.387 26.2958 194.716 26.6399 194.943C26.984 195.17 27.3906 195.284 27.8025 195.268Z" fill="white"/>
<path d="M30.5114 184.157L28.2913 182.873V180.256L30.5114 181.54V184.157Z" fill="#79D7BE"/>
<path opacity="0.35" d="M30.5114 184.157L28.2913 182.873V180.256L30.5114 181.54V184.157Z" fill="black"/>
<path d="M34.303 200.069C34.303 200.069 34.4309 199.973 34.6456 199.795C34.7806 199.695 34.9103 199.588 35.0339 199.475C35.1801 199.347 35.3537 199.21 35.5273 199.045C35.7009 198.881 35.8927 198.707 36.0846 198.511L36.377 198.21C36.4775 198.104 36.5734 197.995 36.6739 197.885C36.7744 197.776 36.8749 197.661 36.9709 197.543C37.0668 197.424 37.1719 197.305 37.2678 197.182C37.4551 196.93 37.6515 196.679 37.8206 196.41C37.9896 196.14 38.1586 195.871 38.3185 195.601C38.4672 195.333 38.6014 195.057 38.7205 194.774C38.8484 194.505 38.9352 194.231 39.0357 193.975C39.0723 193.844 39.1088 193.716 39.1454 193.591L39.2002 193.408C39.2002 193.349 39.2276 193.289 39.2367 193.23C39.287 192.997 39.3372 192.773 39.3601 192.591C39.3829 192.408 39.4149 192.23 39.4195 192.093C39.4195 191.814 39.4423 191.636 39.4423 191.636C39.4423 191.636 39.4423 191.796 39.4423 192.093C39.438 192.261 39.4242 192.428 39.4012 192.595C39.3803 192.813 39.3467 193.03 39.3007 193.244C39.3007 193.303 39.3007 193.363 39.2641 193.422C39.2276 193.481 39.2322 193.545 39.2139 193.609C39.1956 193.673 39.1454 193.865 39.1088 193.998C39.0222 194.272 38.9215 194.542 38.8073 194.806C38.6931 195.089 38.5515 195.363 38.4053 195.642C38.2591 195.921 38.0947 196.199 37.9074 196.46C37.7201 196.72 37.5373 196.985 37.3455 197.236C37.2495 197.36 37.1445 197.479 37.0485 197.597L36.747 197.94L36.4455 198.264L36.1394 198.561C35.9476 198.753 35.7466 198.922 35.5684 199.082C35.3902 199.242 35.2166 199.379 35.0659 199.502C34.9151 199.626 34.7781 199.726 34.6684 199.808L34.303 200.069Z" fill="white"/>
<path d="M30.5112 181.54L34.0516 179.479V182.097L33.8141 179.904L30.5112 181.54Z" fill="#FAFAFA"/>
<path d="M30.7947 202.111L30.982 204.386L34.3031 202.705L30.7947 204.734V202.111Z" fill="#FAFAFA"/>
<path d="M41.603 171.261L41.9 167.365L42.1969 171.261L46.0937 171.558L42.1969 171.855L41.9 175.752L41.603 171.855L37.7063 171.558L41.603 171.261Z" fill="white"/>
<path d="M44.8693 174.582L45.0109 172.691L45.1571 174.582L47.0438 174.724L45.1571 174.87L45.0109 176.757L44.8693 174.87L42.978 174.724L44.8693 174.582Z" fill="white"/>
<path d="M39.3484 78.3517L40.8534 75.2138L34.273 71.3996C33.4951 70.9477 32.6614 70.5995 31.7931 70.3638C31.4885 70.2846 31.1838 70.2176 30.8731 70.1627C29.3356 69.9089 27.7636 69.9523 26.2424 70.2907C25.6776 70.4083 25.1202 70.5589 24.573 70.7416C23.9872 70.9309 23.4116 71.1505 22.8487 71.3996C22.0884 71.737 21.3479 72.1175 20.6308 72.539C19.8342 73.0026 19.0633 73.509 18.3216 74.0561C17.7488 74.4705 17.1883 74.9153 16.6277 75.3844C8.46314 82.2939 2.06552 94.5834 0.408228 106.404C0.292462 107.208 0.207159 108.006 0.140136 108.804C0.0426482 109.95 0 111.083 0 112.198C0 113.118 0.042651 114.026 0.109674 114.861C0.170604 115.604 0.255903 116.323 0.359483 117.018C0.463064 117.712 0.597109 118.37 0.749433 119.016C1.15371 120.787 1.80168 122.493 2.67482 124.086C2.85151 124.402 3.0343 124.695 3.22928 125C4.00779 126.212 4.99364 127.279 6.14172 128.15C6.48642 128.402 6.84439 128.636 7.21408 128.85L13.435 132.439L14.812 129.569C15.1776 129.49 15.5432 129.393 15.9149 129.283C17.4293 128.816 18.8834 128.171 20.247 127.364C21.1237 126.847 21.9718 126.284 22.7877 125.676C23.883 124.855 24.9249 123.966 25.9073 123.013C32.7254 116.451 38.0933 106.19 40.0613 95.9726C40.3528 94.4734 40.5684 92.9604 40.7072 91.4394C40.8168 90.1843 40.8778 88.9413 40.8717 87.7166C40.8722 85.9469 40.7275 84.1801 40.4391 82.434C40.1998 81.043 39.8348 79.6767 39.3484 78.3517Z" fill="#79D7BE"/>
<path opacity="0.25" d="M1.90723 99.427L15.2569 107.135L17.0117 102.053L3.64982 94.3271C2.98568 95.9966 2.40076 97.6966 1.90723 99.427Z" fill="white"/>
<path opacity="0.25" d="M34.2734 71.3996C33.4955 70.9477 32.6618 70.5995 31.7935 70.3638C31.4889 70.2846 31.1842 70.2176 30.8735 70.1627C29.336 69.9089 27.764 69.9523 26.2428 70.2907L25.6335 70.4369L39.3671 78.3578C39.3671 78.3578 39.3671 78.3578 39.3671 78.3273L40.8721 75.1894L34.2734 71.3996Z" fill="white"/>
<path opacity="0.25" d="M32.847 90.8968L34.6018 88.7826L14.5864 77.2729C13.9527 77.9026 13.3312 78.5647 12.7219 79.2593L32.847 90.8968Z" fill="white"/>
<path opacity="0.25" d="M8.46924 84.9198L25.8281 94.9306L27.7352 89.9404L11.5888 80.6182C10.4725 81.995 9.4311 83.4309 8.46924 84.9198Z" fill="white"/>
<path opacity="0.4" d="M34.2736 71.3996C33.4957 70.9477 32.662 70.5995 31.7938 70.3638C31.4891 70.2846 31.1845 70.2176 30.8737 70.1627C29.3362 69.9089 27.7642 69.9523 26.2431 70.2907C25.6783 70.4083 25.1208 70.5589 24.5736 70.7416C23.9878 70.9309 23.4123 71.1505 22.8493 71.3996C22.089 71.737 21.3485 72.1175 20.6314 72.539C19.8348 73.0026 19.0639 73.509 18.3222 74.0561C17.7495 74.4705 17.1889 74.9153 16.6284 75.3844C9.02432 81.8064 2.93135 92.9078 0.786621 103.948L28.6315 120.028C34.3673 113.073 38.2809 104.8 40.0193 95.9543C40.3108 94.4551 40.5264 92.9421 40.6651 91.4211C40.7748 90.166 40.8357 88.923 40.8297 87.6983C40.8302 85.9286 40.6855 84.1618 40.3971 82.4157C40.1637 81.0253 39.8048 79.659 39.3247 78.3334L40.8297 75.1955L34.2736 71.3996Z" fill="white"/>
<path opacity="0.1" d="M13.4165 132.439L14.7935 129.569C15.1591 129.49 15.5247 129.392 15.8963 129.283C17.4108 128.815 18.8649 128.171 20.2284 127.363C21.1051 126.847 21.9533 126.284 22.7692 125.676C23.8644 124.855 24.9064 123.966 25.8888 123.013C26.8616 122.072 27.7849 121.082 28.655 120.046L0.810123 103.966C0.651705 104.777 0.517658 105.593 0.407984 106.403C0.298311 107.214 0.206914 108.006 0.139892 108.804C0.0424041 109.95 -0.000244141 111.083 -0.000244141 112.198C-0.000244141 113.118 0.0424069 114.026 0.10943 114.861C0.170359 115.604 0.255659 116.323 0.359239 117.017C0.46282 117.712 0.596865 118.37 0.749189 119.016C1.15347 120.787 1.80144 122.493 2.67457 124.085C2.85127 124.402 3.03406 124.695 3.22903 124.999C4.00755 126.212 4.99339 127.278 6.14148 128.149C6.48618 128.402 6.84414 128.636 7.21384 128.85L13.4165 132.439Z" fill="black"/>
<path opacity="0.1" d="M2.67507 124.085C2.85176 124.402 3.03455 124.695 3.22953 124.999C4.00804 126.212 4.99389 127.278 6.14197 128.149C6.48667 128.402 6.84464 128.636 7.21433 128.85L13.4353 132.439L14.8123 129.569H14.8671L14.9646 128.393L1.13354 120.405C1.5144 121.684 2.03119 122.917 2.67507 124.085Z" fill="black"/>
<path d="M47.4523 86.4918C47.1682 84.6865 46.6584 82.924 45.9351 81.2458C45.0573 79.1561 43.6681 77.3207 41.8955 75.9083C40.8085 75.0721 39.5657 74.461 38.2397 74.1109C37.9351 74.0317 37.6304 73.9646 37.3136 73.9098C35.7761 73.656 34.2041 73.6994 32.6829 74.0378C32.1185 74.1569 31.5611 74.3074 31.0134 74.4886C30.428 74.679 29.8525 74.8986 29.2891 75.1467C28.5352 75.4806 27.8009 75.8569 27.0896 76.2739C26.2896 76.7352 25.5166 77.2418 24.7742 77.791C24.2076 78.2054 23.641 78.6501 23.0865 79.1193C14.9219 86.0105 8.46335 98.3 6.8609 110.12C6.75123 110.925 6.65983 111.723 6.5989 112.521C6.50141 113.66 6.45267 114.8 6.45876 115.915C6.45876 116.835 6.49532 117.743 6.56843 118.577C6.62936 119.321 6.70858 120.04 6.81825 120.734C6.92792 121.429 7.05587 122.087 7.2082 122.733C7.60116 124.504 8.24324 126.211 9.1153 127.802C9.29403 128.119 9.47682 128.424 9.66367 128.716C10.4443 129.929 11.4322 130.995 12.5822 131.866C14.2488 133.115 16.2533 133.833 18.334 133.926C19.8913 133.996 21.4488 133.79 22.9342 133.316C24.4492 132.851 25.9035 132.206 27.2663 131.397C28.1443 130.883 28.9926 130.319 29.807 129.709C30.9023 128.889 31.9442 127.999 32.9266 127.047C39.7447 120.491 45.1126 110.224 47.0806 100.006C47.3701 98.5067 47.5837 96.9937 47.7204 95.4729C47.8361 94.2543 47.891 92.9747 47.891 91.75C47.8911 89.9882 47.7443 88.2293 47.4523 86.4918Z" fill="#79D7BE"/>
<path opacity="0.05" d="M7.26913 107.677C7.11071 108.494 6.97667 109.316 6.8609 110.114C6.74513 110.913 6.65983 111.717 6.5989 112.515C6.50141 113.654 6.45267 114.794 6.45876 115.909C6.45876 116.829 6.49532 117.737 6.56843 118.571C6.62936 119.315 6.70858 120.034 6.81825 120.728C6.92792 121.423 7.05587 122.081 7.2082 122.727C7.60116 124.498 8.24324 126.205 9.1153 127.796C9.29403 128.113 9.47682 128.418 9.66367 128.71C10.4443 129.923 11.4322 130.989 12.5822 131.86C14.2488 133.109 16.2533 133.827 18.334 133.92C19.8913 133.99 21.4488 133.784 22.9342 133.31C24.4492 132.845 25.9035 132.2 27.2663 131.391C28.0279 130.946 28.7834 130.441 29.5268 129.904L7.26913 107.677Z" fill="black"/>
<path opacity="0.05" d="M7.59204 124.177C7.96737 125.446 8.47805 126.672 9.11528 127.833C9.29401 128.149 9.4768 128.454 9.66365 128.746C10.4443 129.959 11.4322 131.026 12.5822 131.897C13.9492 132.919 15.5487 133.587 17.2372 133.84L7.59204 124.177Z" fill="black"/>
<path opacity="0.1" d="M10.1025 98.0625C9.43832 99.732 8.88386 101.432 8.35986 103.144L32.5977 127.382L32.9267 127.071C33.9763 126.056 34.9689 124.984 35.9001 123.86L10.1025 98.0625Z" fill="white"/>
<path opacity="0.1" d="M18.0237 84.3472C16.9136 85.723 15.8803 87.1591 14.9285 88.6488L41.6035 115.33C42.4687 113.703 43.2608 112.015 43.9737 110.297L18.0237 84.3472Z" fill="white"/>
<path opacity="0.1" d="M21.0519 80.9961C20.4426 81.6054 19.7846 82.3 19.1692 82.9946L44.6744 108.5C45.0318 107.549 45.3649 106.587 45.6736 105.612L21.0519 80.9961Z" fill="white"/>
<path opacity="0.1" d="M47.8302 89.9282C47.8302 89.4347 47.7631 88.9534 47.7144 88.4781C47.7144 88.3258 47.7144 88.1674 47.6657 88.009L47.6108 87.5276C47.5621 87.1803 47.5133 86.833 47.4524 86.4918C47.1683 84.6865 46.6586 82.924 45.9353 81.2458C45.0574 79.1561 43.6683 77.3207 41.8956 75.9083C40.8086 75.0721 39.5658 74.461 38.2398 74.1109C37.9352 74.0317 37.6305 73.9646 37.3137 73.9098C35.7762 73.656 34.2042 73.6994 32.683 74.0378L32.0737 74.184L47.8302 89.9282Z" fill="white"/>
<path d="M42.6084 94.9426C42.6084 105.843 36.2535 118.437 28.2108 123.787C27.8696 124.018 27.5223 124.232 27.175 124.433C18.6448 129.356 11.7354 124.134 11.7354 112.765C11.7354 101.395 18.6448 88.1916 27.175 83.2685C27.5223 83.0735 27.8696 82.8846 28.2108 82.7201C36.2535 78.7841 42.6084 84.0362 42.6084 94.9426Z" fill="#79D7BE"/>
<path opacity="0.4" d="M42.6084 94.9426C42.6084 105.843 36.2535 118.437 28.2108 123.787C27.8696 124.018 27.5223 124.232 27.175 124.433C18.6448 129.356 11.7354 124.134 11.7354 112.765C11.7354 101.395 18.6448 88.1916 27.175 83.2685C27.5223 83.0735 27.8696 82.8846 28.2108 82.7201C36.2535 78.7841 42.6084 84.0362 42.6084 94.9426Z" fill="black"/>
<path d="M41.9258 95.339C41.9258 95.6924 41.9258 96.0458 41.9258 96.3992C41.5358 106.562 35.6134 117.956 28.1861 122.904L27.985 123.038C27.723 123.202 27.461 123.367 27.199 123.519C25.7776 124.377 24.2027 124.95 22.5623 125.207C19.1015 125.676 16.2073 124.159 14.416 121.057C13.2467 118.899 12.5841 116.503 12.4784 114.051C12.4419 113.514 12.4236 112.966 12.4236 112.393C12.4236 111.821 12.4236 111.351 12.4723 110.821C12.5367 109.698 12.6607 108.58 12.844 107.47C14.1479 99.6163 18.3277 91.6284 23.6651 86.8028C24.4023 86.1288 25.1861 85.5078 26.0109 84.9444C26.3948 84.6824 26.7847 84.4387 27.1747 84.2132C27.5646 83.9878 27.8388 83.8477 28.1617 83.6832L28.4359 83.5552C30.3136 82.5969 32.4466 82.2577 34.5289 82.5864C37.6363 83.1957 40.0126 85.6329 41.1763 89.6116C41.6916 91.4765 41.9439 93.4043 41.9258 95.339Z" fill="#79D7BE"/>
<path opacity="0.5" d="M41.9258 95.339C41.9258 95.6924 41.9258 96.0458 41.9258 96.3992C41.5358 106.562 35.6134 117.956 28.1861 122.904L27.985 123.038C27.723 123.202 27.461 123.367 27.199 123.519C25.7776 124.377 24.2027 124.95 22.5623 125.207C19.1015 125.676 16.2073 124.159 14.416 121.057C13.2467 118.899 12.5841 116.503 12.4784 114.051C12.4419 113.514 12.4236 112.966 12.4236 112.393C12.4236 111.821 12.4236 111.351 12.4723 110.821C12.5367 109.698 12.6607 108.58 12.844 107.47C14.1479 99.6163 18.3277 91.6284 23.6651 86.8028C24.4023 86.1288 25.1861 85.5078 26.0109 84.9444C26.3948 84.6824 26.7847 84.4387 27.1747 84.2132C27.5646 83.9878 27.8388 83.8477 28.1617 83.6832L28.4359 83.5552C30.3136 82.5969 32.4466 82.2577 34.5289 82.5864C37.6363 83.1957 40.0126 85.6329 41.1763 89.6116C41.6916 91.4765 41.9439 93.4043 41.9258 95.339Z" fill="black"/>
<path d="M39.4526 94.9795C39.4526 94.62 39.4526 94.2666 39.4526 93.9132C39.4745 91.9707 39.2243 90.0346 38.7092 88.1614C38.2 86.1217 37.1125 84.2725 35.5774 82.8362C35.2436 82.7191 34.9014 82.6275 34.5538 82.562C32.4715 82.2333 30.3385 82.5725 28.4608 83.5308L28.1866 83.6587C27.8637 83.8232 27.5286 83.9939 27.1996 84.1888C26.8706 84.3838 26.4197 84.658 26.0358 84.92C25.211 85.4833 24.4272 86.1043 23.69 86.7783C18.3587 91.5857 14.1728 99.5736 12.8689 107.446C12.6856 108.555 12.5616 109.674 12.4972 110.797C12.4607 111.327 12.4485 111.851 12.4485 112.369C12.4485 112.887 12.4485 113.49 12.5033 114.026C12.5978 116.485 13.2521 118.89 14.4165 121.057C14.9247 121.956 15.5796 122.763 16.3541 123.446C17.5633 123.852 18.8514 123.967 20.1135 123.781C21.7535 123.526 23.3283 122.955 24.7502 122.099C25.0122 121.947 25.2803 121.782 25.5362 121.612L25.7373 121.478C33.1402 116.536 39.0626 105.143 39.4526 94.9795Z" fill="#79D7BE"/>
<path opacity="0.25" d="M39.4526 94.9795C39.4526 94.62 39.4526 94.2666 39.4526 93.9132C39.4745 91.9707 39.2243 90.0346 38.7092 88.1614C38.2 86.1217 37.1125 84.2725 35.5774 82.8362C35.2436 82.7191 34.9014 82.6275 34.5538 82.562C32.4715 82.2333 30.3385 82.5725 28.4608 83.5308L28.1866 83.6587C27.8637 83.8232 27.5286 83.9939 27.1996 84.1888C26.8706 84.3838 26.4197 84.658 26.0358 84.92C25.211 85.4833 24.4272 86.1043 23.69 86.7783C18.3587 91.5857 14.1728 99.5736 12.8689 107.446C12.6856 108.555 12.5616 109.674 12.4972 110.797C12.4607 111.327 12.4485 111.851 12.4485 112.369C12.4485 112.887 12.4485 113.49 12.5033 114.026C12.5978 116.485 13.2521 118.89 14.4165 121.057C14.9247 121.956 15.5796 122.763 16.3541 123.446C17.5633 123.852 18.8514 123.967 20.1135 123.781C21.7535 123.526 23.3283 122.955 24.7502 122.099C25.0122 121.947 25.2803 121.782 25.5362 121.612L25.7373 121.478C33.1402 116.536 39.0626 105.143 39.4526 94.9795Z" fill="black"/>
<path d="M37.3263 73.9099C28.4122 72.9046 21.1616 80.2893 16.3238 86.9245C9.33514 97.2278 4.90555 110.273 7.32446 122.745C8.11654 126.212 9.70072 129.697 12.5888 131.885C9.63979 129.722 7.92766 126.243 7.10511 122.745C4.87508 112.533 7.67785 101.804 12.3512 92.6702C17.3413 83.6526 25.8288 72.6792 37.3263 73.9099Z" fill="#F5F5F5"/>
<path opacity="0.35" d="M30.5808 98.0748L27.6196 96.3626L33.347 91.4761L36.3082 93.1882L30.5808 98.0748Z" fill="black"/>
<path opacity="0.35" d="M32.4023 99.2026C30.8852 98.1302 28.2591 98.9406 26.0291 99.6413C25.4929 99.8241 25.0116 99.9825 24.5729 100.117C24.434 100.445 24.3596 100.796 24.3535 101.152C24.3535 102.877 25.8158 102.371 28.9964 101.36C30.0686 100.992 31.1662 100.702 32.2805 100.494C32.378 101.372 32.9873 102.17 35.3635 100.915L32.4023 99.2026Z" fill="black"/>
<path opacity="0.45" d="M25.0667 121.66L22.1055 119.948V116.451L25.0667 118.163V121.66Z" fill="black"/>
<path opacity="0.35" d="M30.0933 108.383C30.0933 109.773 29.0514 111.015 27.5038 111.917C25.0666 113.349 24.0734 112.179 23.848 111.04L23.324 110.735C23.7504 110.609 24.1597 110.431 24.5426 110.205C25.6146 109.656 26.4647 108.755 26.9493 107.652C28.765 107.055 30.0933 106.824 30.0933 108.383Z" fill="black"/>
<path opacity="0.35" d="M19.0706 116.957C18.7445 116.766 18.3695 116.675 17.9921 116.695C17.9285 116.513 17.8756 116.328 17.8337 116.14L14.8604 114.428C14.9403 114.944 15.1295 115.436 15.4154 115.872C15.7012 116.308 16.077 116.678 16.5176 116.957L19.4727 118.669C19.6124 118.381 19.6486 118.053 19.5754 117.742C19.5022 117.43 19.3239 117.153 19.0706 116.957Z" fill="black"/>
<path d="M28.9963 101.359C25.8158 102.401 24.3535 102.877 24.3535 101.152C24.3595 100.796 24.434 100.444 24.5728 100.116C22.4037 100.787 21.3923 100.872 21.3923 99.4401C21.3923 98.386 22.1051 97.0882 24.0671 95.9488C26.157 94.7302 27.3268 95.0166 27.6193 96.3632L33.3467 91.4888C33.3467 91.4157 33.2979 91.3486 33.2675 91.2755C33.6244 91.1976 33.9675 91.0662 34.285 90.8856L31.9209 89.472L31.6955 89.338H31.6589C30.9614 88.9985 30.1802 88.8694 29.4106 88.9663C28.3843 89.0774 27.3813 89.3467 26.4372 89.7645V89.6792L29.3984 87.9548L26.4372 86.2671L24.4327 87.4369L21.7152 89.015V92.5063C17.6999 95.4309 15.1957 99.2451 15.1957 103.376C15.1957 105.253 15.7014 106.319 16.524 106.861H16.5605C16.631 106.907 16.7043 106.947 16.7799 106.983L19.2597 108.378C19.328 108.01 19.2812 107.629 19.1257 107.288C19.9128 107.188 20.6896 107.018 21.4471 106.782C24.457 105.874 27.1318 104.442 27.1318 106.672C27.1331 107.008 27.0711 107.341 26.9491 107.653C28.7769 107.044 30.093 106.825 30.093 108.385C30.093 109.774 29.0511 111.017 27.5035 111.919C25.0663 113.35 24.0732 112.181 23.8477 111.041L23.3237 110.736L20.8865 109.329L14.8606 114.429L17.8218 116.141C17.9158 116.577 18.0674 117 18.2727 117.396C19.5978 117.349 20.8987 117.028 22.093 116.452V117.865L26.7724 117.225V113.734C30.8303 110.743 33.627 106.715 33.627 102.505C33.6512 101.787 33.5374 101.072 33.2918 100.397C31.8237 100.526 30.3793 100.85 28.9963 101.359Z" fill="#79D7BE"/>
<path opacity="0.15" d="M28.9963 101.359C25.8158 102.401 24.3535 102.877 24.3535 101.152C24.3595 100.796 24.434 100.444 24.5728 100.116C22.4037 100.787 21.3923 100.872 21.3923 99.4401C21.3923 98.386 22.1051 97.0882 24.0671 95.9488C26.157 94.7302 27.3268 95.0166 27.6193 96.3632L33.3467 91.4888C33.3467 91.4157 33.2979 91.3486 33.2675 91.2755C33.6244 91.1976 33.9675 91.0662 34.285 90.8856L31.9209 89.472L31.6955 89.338H31.6589C30.9614 88.9985 30.1802 88.8694 29.4106 88.9663C28.3843 89.0774 27.3813 89.3467 26.4372 89.7645V89.6792L29.3984 87.9548L26.4372 86.2671L24.4327 87.4369L21.7152 89.015V92.5063C17.6999 95.4309 15.1957 99.2451 15.1957 103.376C15.1957 105.253 15.7014 106.319 16.524 106.861H16.5605C16.631 106.907 16.7043 106.947 16.7799 106.983L19.2597 108.378C19.328 108.01 19.2812 107.629 19.1257 107.288C19.9128 107.188 20.6896 107.018 21.4471 106.782C24.457 105.874 27.1318 104.442 27.1318 106.672C27.1331 107.008 27.0711 107.341 26.9491 107.653C28.7769 107.044 30.093 106.825 30.093 108.385C30.093 109.774 29.0511 111.017 27.5035 111.919C25.0663 113.35 24.0732 112.181 23.8477 111.041L23.3237 110.736L20.8865 109.329L14.8606 114.429L17.8218 116.141C17.9158 116.577 18.0674 117 18.2727 117.396C19.5978 117.349 20.8987 117.028 22.093 116.452V117.865L26.7724 117.225V113.734C30.8303 110.743 33.627 106.715 33.627 102.505C33.6512 101.787 33.5374 101.072 33.2918 100.397C31.8237 100.526 30.3793 100.85 28.9963 101.359Z" fill="black"/>
<g opacity="0.2">
<path d="M21.7271 92.5059C19.4721 94.2198 17.6417 96.4297 16.3775 98.9644C15.7849 100.236 15.4396 101.609 15.36 103.01C15.2926 103.706 15.3296 104.409 15.4697 105.094C15.5884 105.792 15.9618 106.422 16.5177 106.861C15.9088 106.463 15.4733 105.849 15.2991 105.143C15.1163 104.443 15.0382 103.72 15.0675 102.998C15.122 101.551 15.4659 100.13 16.079 98.8182C16.7072 97.5177 17.5289 96.3201 18.5162 95.266C19.4717 94.2203 20.5498 93.2935 21.7271 92.5059Z" fill="black"/>
</g>
<path d="M33.3043 100.396C31.832 100.525 30.3834 100.848 28.9965 101.359C25.816 102.401 24.3537 102.876 24.3537 101.152C24.3597 100.795 24.4342 100.444 24.573 100.116C25.1055 99.0648 25.9593 98.211 27.0102 97.6785C29.1001 96.4599 30.27 96.7524 30.5624 98.0989L36.2898 93.2246C36.1076 92.4857 35.6798 91.8306 35.0764 91.3667C34.4731 90.9029 33.7301 90.6578 32.9691 90.6716C31.7322 90.7007 30.5146 90.9849 29.3926 91.5063V87.9785L26.4375 89.6785L24.6766 90.7021V94.1934C20.6613 97.118 18.1571 100.938 18.1571 105.057C18.1311 105.837 18.2531 106.614 18.5166 107.348C19.4062 109.56 21.8312 109.255 24.3902 108.506C25.2859 108.238 26.1572 107.896 26.931 107.665C28.7589 107.056 30.075 106.836 30.075 108.396C30.075 109.785 29.0331 111.028 27.4855 111.93C25.0483 113.362 24.0551 112.192 23.8297 111.053L17.8098 116.152C17.9038 116.589 18.0555 117.011 18.2607 117.408C19.0467 118.876 20.4481 119.284 22.081 119.065C23.105 118.909 24.1019 118.61 25.0422 118.175V121.673L29.7216 118.967V115.452C33.7795 112.466 36.5762 108.439 36.5762 104.228C36.6006 101.188 35.1626 100.353 33.3043 100.396Z" fill="#79D7BE"/>
<g opacity="0.1">
<path d="M33.3043 100.396C31.832 100.525 30.3834 100.848 28.9965 101.359C25.816 102.401 24.3537 102.876 24.3537 101.152C24.3597 100.795 24.4342 100.444 24.573 100.116C25.1055 99.0648 25.9593 98.211 27.0102 97.6785C29.1001 96.4599 30.27 96.7524 30.5624 98.0989L36.2898 93.2246C36.1076 92.4857 35.6798 91.8306 35.0764 91.3667C34.4731 90.9029 33.7301 90.6578 32.9691 90.6716C31.7322 90.7007 30.5146 90.9849 29.3926 91.5063V87.9785L26.4375 89.6785L24.6766 90.7021V94.1934C20.6613 97.118 18.1571 100.938 18.1571 105.057C18.1311 105.837 18.2531 106.614 18.5166 107.348C19.4062 109.56 21.8312 109.255 24.3902 108.506C25.2859 108.238 26.1572 107.896 26.931 107.665C28.7589 107.056 30.075 106.836 30.075 108.396C30.075 109.785 29.0331 111.028 27.4855 111.93C25.0483 113.362 24.0551 112.192 23.8297 111.053L17.8098 116.152C17.9038 116.589 18.0555 117.011 18.2607 117.408C19.0467 118.876 20.4481 119.284 22.081 119.065C23.105 118.909 24.1019 118.61 25.0422 118.175V121.673L29.7216 118.967V115.452C33.7795 112.466 36.5762 108.439 36.5762 104.228C36.6006 101.188 35.1626 100.353 33.3043 100.396Z" fill="white"/>
</g>
<path opacity="0.1" d="M23.4333 111.394L19.7349 114.52L23.8415 118.632C24.2437 118.498 24.6519 118.346 25.0601 118.163V119.851L26.2056 120.997L29.7395 118.955V117.737L23.4333 111.394Z" fill="white"/>
<path opacity="0.1" d="M33.3042 100.396C31.832 100.524 30.3834 100.848 28.9965 101.358L27.9668 101.693L35.3698 109.09C36.1526 107.584 36.57 105.914 36.5884 104.216C36.5928 103.737 36.5479 103.26 36.4543 102.79L34.1085 100.444C33.8425 100.404 33.5733 100.387 33.3042 100.396Z" fill="white"/>
<path opacity="0.1" d="M25.2977 99.0194C25.8063 98.4764 26.3962 98.0159 27.0464 97.6545C29.1363 96.4359 30.3062 96.7284 30.5986 98.0749L31.2079 97.5388L24.6884 91.0132V94.2181C23.8854 94.8044 23.124 95.4457 22.4097 96.1374L25.2977 99.0194Z" fill="white"/>
<path opacity="0.1" d="M30.983 90.9281C30.4489 91.0782 29.924 91.2592 29.411 91.4704V89.3561L28.5397 88.4604L26.4376 89.679L26.0781 89.8862L32.5611 96.3813L34.657 94.5961L30.983 90.9281Z" fill="white"/>
<path opacity="0.1" d="M21.0757 109.036L18.2424 106.209C18.2888 106.598 18.3808 106.981 18.5166 107.348C18.7135 107.862 19.0661 108.301 19.5251 108.603C19.9841 108.906 20.5263 109.057 21.0757 109.036Z" fill="white"/>
<path d="M24.689 94.2171L21.7278 92.5049V89.0137L24.689 90.7258V94.2171Z" fill="#79D7BE"/>
<path opacity="0.35" d="M24.689 94.2171L21.7278 92.5049V89.0137L24.689 90.7258V94.2171Z" fill="black"/>
<path d="M29.7458 115.44C29.7458 115.44 29.9165 115.312 30.2028 115.074C30.3829 114.941 30.5558 114.799 30.7207 114.647C30.9157 114.477 31.1472 114.294 31.3788 114.075C31.6103 113.855 31.8662 113.624 32.1221 113.362L32.5121 112.96C32.6461 112.82 32.7741 112.673 32.9081 112.527C33.0422 112.381 33.1762 112.229 33.3042 112.07C33.4321 111.912 33.5722 111.753 33.7002 111.589C33.95 111.254 34.212 110.919 34.4374 110.559C34.6629 110.2 34.8883 109.84 35.1016 109.481C35.2999 109.123 35.4789 108.755 35.6378 108.378C35.8084 108.018 35.9241 107.653 36.0582 107.311C36.1069 107.137 36.1557 106.966 36.2044 106.8L36.2775 106.556C36.2775 106.477 36.3141 106.398 36.3263 106.318C36.3933 106.008 36.4603 105.709 36.4908 105.465C36.5212 105.222 36.5639 104.984 36.57 104.801C36.57 104.43 36.6004 104.192 36.6004 104.192C36.6004 104.192 36.6004 104.405 36.6004 104.801C36.5947 105.025 36.5764 105.249 36.5456 105.471C36.5177 105.762 36.4729 106.051 36.4116 106.337C36.4116 106.416 36.4116 106.495 36.3628 106.574C36.3141 106.653 36.3202 106.739 36.2958 106.824C36.2714 106.909 36.2044 107.165 36.1557 107.342C36.0401 107.708 35.9059 108.068 35.7535 108.42C35.6012 108.798 35.4123 109.164 35.2173 109.535C35.0224 109.907 34.803 110.279 34.5532 110.626C34.3034 110.973 34.0597 111.327 33.8038 111.662C33.6758 111.826 33.5357 111.985 33.4077 112.143L33.0056 112.6L32.6035 113.033L32.1952 113.429C31.9393 113.685 31.6712 113.91 31.4336 114.123C31.196 114.337 30.9645 114.519 30.7634 114.684C30.5623 114.849 30.3795 114.983 30.2333 115.092L29.7458 115.44Z" fill="white"/>
<path d="M24.689 90.7264L29.411 87.9785V91.4698L29.0942 88.5452L24.689 90.7264Z" fill="#FAFAFA"/>
<path d="M25.0667 118.164L25.3165 121.198L29.7461 118.956L25.0667 121.661V118.164Z" fill="#FAFAFA"/>
<path d="M39.4827 77.0176L39.8787 71.8203L40.2748 77.0176L45.4721 77.4137L40.2748 77.8097L39.8787 83.007L39.4827 77.8097L34.2854 77.4137L39.4827 77.0176Z" fill="white"/>
<path d="M43.8394 81.4463L44.0283 78.9238L44.2232 81.4463L46.7396 81.6352L44.2232 81.8302L44.0283 84.3466L43.8394 81.8302L41.3169 81.6352L43.8394 81.4463Z" fill="white"/>
<path d="M86.7822 319.582L139.151 349.872L139.339 349.753L140.803 348.917L142.197 348.108C149.169 344.072 154.097 341.095 153.721 338.822C153.442 337.101 150.326 336.125 147.753 335.818C146.361 335.706 145.006 335.31 143.773 334.654C143.309 334.443 142.912 334.109 142.624 333.689C142.337 333.269 142.17 332.778 142.141 332.269C142.141 331.21 142.922 330.094 144.435 329.216C147.224 327.613 151.406 327.438 153.846 328.84C154.767 329.342 155.481 330.155 155.861 331.133C156.398 332.625 158.092 334.424 161.076 334.577C165.196 334.8 169.811 332.137 177.416 327.731L179.222 326.685L126.937 296.423L86.7822 319.582ZM226.369 353.915C224.724 354.85 223.134 355.735 221.573 356.599C215.299 360.085 210.781 362.581 211.116 364.637C211.229 365.149 211.527 365.6 211.952 365.906C213.11 366.847 215.229 367.419 217.083 367.635C218.475 367.747 219.829 368.14 221.064 368.792C221.528 369.007 221.925 369.344 222.213 369.766C222.501 370.188 222.67 370.68 222.702 371.19C222.677 371.776 222.464 372.338 222.096 372.794C221.626 373.38 221.046 373.868 220.388 374.23C217.599 375.84 213.416 376 210.983 374.613C210.066 374.108 209.355 373.296 208.976 372.32C208.432 370.828 206.745 369.029 203.754 368.869C200.268 368.674 196.678 370.849 191.206 374.16C189.749 375.045 188.096 376.042 186.326 377.109L189.038 378.664L251.975 414.97C268.106 411.403 283.762 405.951 298.62 398.727C299.605 398.262 300.581 397.767 301.548 397.242L226.369 353.915Z" fill="#79D7BE"/>
<path opacity="0.2" d="M86.7822 319.582L139.151 349.872L139.339 349.753L140.803 348.917L142.197 348.108C149.169 344.072 154.097 341.095 153.721 338.822C153.442 337.101 150.326 336.125 147.753 335.818C146.361 335.706 145.006 335.31 143.773 334.654C143.309 334.443 142.912 334.109 142.624 333.689C142.337 333.269 142.17 332.778 142.141 332.269C142.141 331.21 142.922 330.094 144.435 329.216C147.224 327.613 151.406 327.438 153.846 328.84C154.767 329.342 155.481 330.155 155.861 331.133C156.398 332.625 158.092 334.424 161.076 334.577C165.196 334.8 169.811 332.137 177.416 327.731L179.222 326.685L126.937 296.423L86.7822 319.582ZM226.369 353.915C224.724 354.85 223.134 355.735 221.573 356.599C215.299 360.085 210.781 362.581 211.116 364.637C211.229 365.149 211.527 365.6 211.952 365.906C213.11 366.847 215.229 367.419 217.083 367.635C218.475 367.747 219.829 368.14 221.064 368.792C221.528 369.007 221.925 369.344 222.213 369.766C222.501 370.188 222.67 370.68 222.702 371.19C222.677 371.776 222.464 372.338 222.096 372.794C221.626 373.38 221.046 373.868 220.388 374.23C217.599 375.84 213.416 376 210.983 374.613C210.066 374.108 209.355 373.296 208.976 372.32C208.432 370.828 206.745 369.029 203.754 368.869C200.268 368.674 196.678 370.849 191.206 374.16C189.749 375.045 188.096 376.042 186.326 377.109L189.038 378.664L251.975 414.97C268.106 411.403 283.762 405.951 298.62 398.727C299.605 398.262 300.581 397.767 301.548 397.242L226.369 353.915Z" fill="white"/>
<path d="M140.678 228.536L106.839 194L73 267.61L86.7823 259.656V319.588L126.895 296.423V236.49L140.678 228.536Z" fill="#79D7BE"/>
</svg>
