<svg width="25" height="24" viewBox="0 0 25 24" fill="none" xmlns="http://www.w3.org/2000/svg">
<path fill-rule="evenodd" clip-rule="evenodd" d="M8.37012 6.99988C8.37012 5.93901 8.79154 4.9216 9.54169 4.17145C10.2918 3.42131 11.3093 2.99988 12.3701 2.99988C13.431 2.99988 14.4484 3.42131 15.1985 4.17145C15.9487 4.9216 16.3701 5.93901 16.3701 6.99988C16.3701 8.06074 15.9487 9.07816 15.1985 9.82831C14.4484 10.5785 13.431 10.9999 12.3701 10.9999C11.3093 10.9999 10.2918 10.5785 9.54169 9.82831C8.79154 9.07816 8.37012 8.06074 8.37012 6.99988ZM8.37012 12.9999C7.04403 12.9999 5.77227 13.5267 4.83458 14.4643C3.8969 15.402 3.37012 16.6738 3.37012 17.9999C3.37012 18.7955 3.68619 19.5586 4.2488 20.1212C4.81141 20.6838 5.57447 20.9999 6.37012 20.9999H18.3701C19.1658 20.9999 19.9288 20.6838 20.4914 20.1212C21.054 19.5586 21.3701 18.7955 21.3701 17.9999C21.3701 16.6738 20.8433 15.402 19.9057 14.4643C18.968 13.5267 17.6962 12.9999 16.3701 12.9999H8.37012Z" fill="#2E5077"/>
</svg>
