<svg width="33" height="32" viewBox="0 0 33 32" fill="none" xmlns="http://www.w3.org/2000/svg">
<g clip-path="url(#clip0_808_43)">
<path d="M32.1682 13.3926L22.5215 21.3059L32.0215 30.8059C32.1148 30.6126 32.1682 30.3926 32.1682 30.1659V13.3926Z" fill="#16423C"/>
<path d="M0.833984 13.3926V30.1659C0.833984 30.3992 0.887318 30.6126 0.980651 30.8059L10.4807 21.3059L0.833984 13.3926Z" fill="#16423C"/>
<path d="M21.74 21.9463L17.7667 25.2063C17.4 25.5063 16.9467 25.6596 16.5 25.6596C16.0534 25.6596 15.6 25.5063 15.2334 25.2063L11.26 21.9463L1.69336 31.5196C1.88669 31.613 2.10669 31.6663 2.33336 31.6663H30.6667C30.9 31.6663 31.1134 31.613 31.3067 31.5196L21.74 21.9463Z" fill="#16423C"/>
<path d="M18.2666 11.753V17.2663H15.2666V11.753C15.2666 8.00634 17.5866 4.79967 20.8599 3.47301L17.4466 0.673008C16.8932 0.219674 16.0999 0.219674 15.5466 0.673008L1.22656 12.4197L15.8666 24.4263C16.2332 24.7263 16.7666 24.7263 17.1332 24.4263L31.7732 12.4197L23.7532 5.83967C20.6932 6.07301 18.2666 8.63301 18.2666 11.753Z" fill="#16423C"/>
<path d="M28.5476 0.919922L27.8409 1.62659L30.0342 3.81992H24.2076C19.8342 3.81992 16.2676 7.37992 16.2676 11.7533V16.2666H17.2676V11.7533C17.2676 7.92659 20.3809 4.81992 24.2076 4.81992H30.0342L27.8409 7.01326L28.5476 7.71992L31.5942 4.67326C31.7876 4.47992 31.7876 4.15992 31.5942 3.96659L28.5476 0.919922Z" fill="#16423C"/>
</g>
<defs>
<clipPath id="clip0_808_43">
<rect width="32" height="32" fill="white" transform="translate(0.5)"/>
</clipPath>
</defs>
</svg>
