<svg width="32" height="32" viewBox="0 0 32 32" fill="none" xmlns="http://www.w3.org/2000/svg">
<path d="M16 13.708L1.908 2.212C2.248 2.08 2.614 2 3 2H29C29.386 2 29.752 2.08 30.092 2.212L16 13.708ZM31.612 3.552L16.632 15.774C16.448 15.924 16.224 16 16 16C15.776 16 15.552 15.924 15.368 15.774L0.388 3.552C0.148 3.984 0 4.472 0 5V23C0 24.654 1.346 26 3 26H16.554C16.216 25.058 16 24.056 16 23C16 18.038 20.038 14 25 14C27.842 14 30.35 15.35 32 17.414V5C32 4.472 31.852 3.984 31.612 3.552ZM32 23C32 26.86 28.86 30 25 30C21.14 30 18 26.86 18 23C18 19.14 21.14 16 25 16C28.86 16 32 19.14 32 23ZM28.708 23.292C28.512 23.098 28.256 23 28 23C27.744 23 27.488 23.098 27.292 23.292L26 24.586V19C26 18.448 25.552 18 25 18C24.448 18 24 18.448 24 19V24.586L22.708 23.294C22.318 22.904 21.684 22.904 21.294 23.294C20.904 23.684 20.904 24.318 21.294 24.708L24.292 27.706C24.384 27.798 24.496 27.872 24.618 27.924C24.862 28.026 25.138 28.026 25.382 27.924C25.506 27.874 25.616 27.8 25.708 27.706L28.706 24.708C29.098 24.316 29.098 23.684 28.708 23.292Z" fill="#16423C"/>
</svg>
