<svg width="33" height="32" viewBox="0 0 33 32" fill="none" xmlns="http://www.w3.org/2000/svg">
<path d="M9.56836 22.3049V26.3718H23.3796V22.3049C23.3796 21.8931 23.3455 21.4866 23.2793 21.0889H9.6687C9.60254 21.4866 9.56836 21.8931 9.56836 22.3049Z" fill="#16423C"/>
<path d="M13.0771 16C11.8245 16.7769 10.8459 17.9019 10.2439 19.2141H22.7041C22.1021 17.9019 21.1235 16.7769 19.8708 16C22.0322 14.6594 23.3796 12.2844 23.3796 9.69482V5.62793H9.56836V9.69482C9.56836 12.2844 10.9158 14.6594 13.0771 16Z" fill="#16423C"/>
<path d="M29.947 1.875V0H3V1.875H4.8772V30.125H3V32H29.947V30.125H28.0698V1.875H29.947ZM26.1948 28.2471H6.7522V3.75293H26.1948V28.2471Z" fill="#16423C"/>
</svg>
