<svg width="32" height="24" viewBox="0 0 32 24" fill="none" xmlns="http://www.w3.org/2000/svg">
<path d="M29.0823 0H2.41602C1.28514 0 0.416016 0.864 0.416016 2C0.996072 1.57312 1.69585 1.33979 2.41602 1.33312H29.0823C29.8024 1.33979 30.5022 1.57312 31.0823 2C31.0823 0.864 30.2131 0 29.0823 0Z" fill="#16423C"/>
<path d="M29.0823 2.66699H2.41602C1.28258 2.66699 0.416016 3.53355 0.416016 4.66699V22.0001C0.416016 23.1361 1.28514 24.0001 2.41602 24.0001H29.0823C30.2157 24.0001 31.0823 23.1336 31.0823 22.0001V4.66699C31.0823 3.53355 30.2131 2.66699 29.0823 2.66699ZM28.416 18.0001C28.416 18.4001 28.1491 18.667 27.7491 18.667C26.6157 18.667 25.7491 19.5336 25.7491 20.667C25.7491 21.067 25.4823 21.3339 25.0823 21.3339H6.41602C6.01602 21.3339 5.74914 21.067 5.74914 20.667C5.74914 19.5336 4.88258 18.667 3.74914 18.667C3.34914 18.667 3.08226 18.4001 3.08226 18.0001V8.66699C3.08226 8.26699 3.34914 8.00011 3.74914 8.00011C4.88258 8.00011 5.74914 7.13355 5.74914 6.00011C5.74914 5.60011 6.01602 5.33323 6.41602 5.33323H25.0823C25.4823 5.33323 25.7491 5.60011 25.7491 6.00011C25.7491 7.13355 26.6157 8.00011 27.7491 8.00011C28.1491 8.00011 28.416 8.26699 28.416 8.66699V18.0001Z" fill="#16423C"/>
<path d="M24.4832 6.66699H7.01634C6.89357 7.31117 6.57998 7.90356 6.11628 8.36726C5.65258 8.83096 5.06019 9.14454 4.41602 9.26731V17.4004C5.0601 17.5232 5.65243 17.8367 6.11612 18.3002C6.57981 18.7638 6.89345 19.3561 7.01634 20.0001H24.4832C24.6061 19.3561 24.9197 18.7638 25.3834 18.3002C25.8471 17.8367 26.4394 17.5232 27.0835 17.4004V9.26667C26.4394 9.14395 25.8471 8.83045 25.3834 8.36688C24.9197 7.9033 24.6061 7.31105 24.4832 6.66699ZM8.41922 14.667C8.15555 14.667 7.8978 14.5888 7.67857 14.4423C7.45934 14.2958 7.28847 14.0876 7.18757 13.844C7.08667 13.6004 7.06027 13.3324 7.11171 13.0738C7.16315 12.8152 7.29012 12.5777 7.47656 12.3912C7.663 12.2048 7.90054 12.0778 8.15914 12.0264C8.41774 11.9749 8.68578 12.0013 8.92938 12.1022C9.17297 12.2031 9.38118 12.374 9.52766 12.5932C9.67415 12.8125 9.75234 13.0702 9.75234 13.3339C9.75132 13.6876 9.61019 14.0265 9.35985 14.2763C9.1095 14.5262 8.77035 14.6667 8.41666 14.667H8.41922ZM15.7498 16.667C15.0905 16.667 14.4461 16.4715 13.898 16.1053C13.3499 15.739 12.9227 15.2184 12.6704 14.6094C12.4181 14.0004 12.3521 13.3302 12.4807 12.6836C12.6093 12.0371 12.9268 11.4431 13.3929 10.977C13.859 10.5109 14.453 10.1934 15.0995 10.0648C15.7461 9.93619 16.4163 10.0022 17.0253 10.2545C17.6344 10.5067 18.1549 10.934 18.5212 11.4821C18.8874 12.0302 19.0829 12.6746 19.0829 13.3339C19.0872 13.7728 19.0039 14.2081 18.8379 14.6144C18.6719 15.0208 18.4265 15.3899 18.1162 15.7003C17.8058 16.0106 17.4367 16.256 17.0303 16.422C16.624 16.588 16.1887 16.6713 15.7498 16.667ZM23.0829 14.667C22.8192 14.667 22.5615 14.5888 22.3423 14.4423C22.123 14.2958 21.9522 14.0876 21.8513 13.844C21.7504 13.6004 21.724 13.3324 21.7754 13.0738C21.8268 12.8152 21.9538 12.5777 22.1402 12.3912C22.3267 12.2048 22.5642 12.0778 22.8228 12.0264C23.0814 11.9749 23.3495 12.0013 23.5931 12.1022C23.8367 12.2031 24.0449 12.374 24.1913 12.5932C24.3378 12.8125 24.416 13.0702 24.416 13.3339C24.415 13.6871 24.2742 14.0256 24.0244 14.2754C23.7746 14.5252 23.4361 14.666 23.0829 14.667Z" fill="#16423C"/>
</svg>
