<svg width="59" height="72" viewBox="0 0 59 72" fill="none" xmlns="http://www.w3.org/2000/svg">
<path d="M47.1543 56.1465H59.002V71.0879H47.1543V56.1465Z" fill="black" fill-opacity="0.4"/>
<path d="M47.8574 56.8496H58.2988V70.3848H47.8574V56.8496Z" fill="#CBC8B8" fill-opacity="0.2"/>
<path d="M31.6621 49.0332H43.5098V71.0879H31.6621V49.0332Z" fill="black" fill-opacity="0.4"/>
<path d="M32.3535 49.7363H42.7949V70.3848H32.3535V49.7363Z" fill="#CBC8B8" fill-opacity="0.2"/>
<path d="M16.1582 40.3613H28.0059V71.0879H16.1582V40.3613Z" fill="black" fill-opacity="0.4"/>
<path d="M16.8613 41.0645H27.3145V70.3965H16.8613V41.0645Z" fill="#CBC8B8" fill-opacity="0.2"/>
<path d="M0.666016 29.1348H12.5137V71.0879H0.666016V29.1348Z" fill="black" fill-opacity="0.4"/>
<path d="M1.36914 29.8262H11.8223V70.3848H1.36914V29.8262Z" fill="#CBC8B8" fill-opacity="0.2"/>
<path d="M14.8405 21.3666L18.3438 17.66L49.7149 47.3415L54.7572 42.0064L23.3861 12.3249L26.9107 8.60301L12.196 6.76593L14.8405 21.3666Z" fill="black" fill-opacity="0.4"/>
<path d="M15.2763 19.8826L18.3136 16.6677L49.6847 46.3492L53.7661 42.0377L22.395 12.3562L25.4537 9.12595L13.0556 7.58754L15.2763 19.8826Z" fill="#8E8684" fill-opacity="0.2"/>
</svg>
