<svg width="49" height="60" viewBox="0 0 49 60" fill="none" xmlns="http://www.w3.org/2000/svg">
<path fill-rule="evenodd" clip-rule="evenodd" d="M24.4999 52.6088C21.441 52.6088 18.5502 51.8731 15.9956 50.569L11.5045 58.3487L37.5072 58.3488L33.0133 50.5645C30.4564 51.8713 27.5624 52.6088 24.4999 52.6088ZM10.068 59.9888H1.30587C0.849018 59.9888 0.48584 59.6256 0.48584 59.1688C0.48584 58.7119 0.848985 58.3487 1.30587 58.3487H4.36589L11.0003 46.8657C7.74196 43.4895 5.73383 38.8982 5.73383 33.8428C5.73383 23.7737 13.7044 15.5264 23.6799 15.0956V2.77681C23.6799 1.94645 24.7603 1.65732 25.2028 2.33169C25.8119 3.25712 26.421 3.77257 27.0419 3.87798C28.0961 4.0537 29.3847 3.06967 30.6264 2.12085C32.1493 0.961123 33.719 -0.245406 35.4761 0.0591118C36.5772 0.246564 37.5378 0.996273 38.4046 2.33166C38.4866 2.46051 38.5334 2.62451 38.5334 2.77679V11.5039C38.5334 12.317 37.4647 12.6299 37.0223 11.949C36.4249 11.0236 35.804 10.5081 35.1832 10.4027C34.1289 10.227 32.8521 11.1993 31.6104 12.1599C30.1248 13.2931 28.4758 14.5304 26.749 14.2216C26.2447 14.1357 25.7699 13.9343 25.3199 13.6118V15.0957C35.2849 15.527 43.266 23.7741 43.266 33.8428C43.266 38.8946 41.261 43.483 38.0068 46.8583L44.6411 58.349H47.694C48.1508 58.349 48.514 58.7121 48.514 59.1689C48.514 59.6258 48.1509 59.9889 47.694 59.9889L10.068 59.9888ZM6.26097 58.3487H9.59953L14.5627 49.7553C13.7403 49.24 12.9597 48.6638 12.2292 48.0312L6.26097 58.3487ZM36.7782 48.0246C36.048 48.6575 35.2678 49.2342 34.4458 49.7499L39.4121 58.3488L42.7389 58.3371L36.7782 48.0246ZM16.06 48.7395L16.1107 48.7678C18.5918 50.1682 21.4541 50.9689 24.4999 50.9689C33.9415 50.9689 41.626 43.2843 41.626 33.8428C41.626 24.6761 34.3823 17.1663 25.3199 16.7366V20.8314C32.1322 21.2565 37.5495 26.9374 37.5495 33.8544C37.5495 41.0352 31.6925 46.8923 24.4999 46.8923C17.3074 46.8923 11.4504 41.0469 11.4504 33.8544C11.4504 26.9374 16.8677 21.2565 23.6799 20.8314V16.7366C14.6175 17.1663 7.37388 24.676 7.37388 33.8428C7.37388 40.2179 10.8777 45.7912 16.06 48.7395ZM25.3199 11.2578C25.8822 12.0544 26.4562 12.5112 27.0185 12.6049C28.0727 12.7806 29.3613 11.7966 30.603 10.8478C32.1258 9.68806 33.6956 8.48153 35.4526 8.78605C35.9564 8.86806 36.4249 9.07893 36.8818 9.39521V3.02273C36.3195 2.22616 35.7455 1.7693 35.1832 1.6639C34.129 1.48817 32.8521 2.46048 31.6104 3.42106C30.0876 4.58075 28.5179 5.78728 26.7608 5.49446C26.2571 5.41248 25.7885 5.2016 25.3316 4.88533V11.2578H25.3199ZM24.4999 34.6744C24.0431 34.6744 23.6799 34.3113 23.6799 33.8544V28.2206C20.9278 28.6193 18.8068 30.9934 18.8068 33.8544C18.8068 36.9938 21.3605 39.5358 24.4999 39.5358C27.6393 39.5358 30.193 36.9821 30.193 33.8544C30.193 30.9934 28.0721 28.6193 25.3199 28.2206V33.8544C25.3199 34.2996 24.9568 34.6744 24.4999 34.6744ZM23.6799 26.5675V22.4746C17.7706 22.8964 13.0903 27.8396 13.0903 33.8544C13.0903 40.1449 18.2094 45.2523 24.4999 45.2523C30.7905 45.2523 35.9096 40.1332 35.9096 33.8544C35.9096 27.8396 31.2293 22.8964 25.32 22.4746V26.5675C28.9772 26.9769 31.833 30.0902 31.833 33.8544C31.833 37.8841 28.5413 41.1758 24.5 41.1758C20.4586 41.1758 17.1669 37.8958 17.1669 33.8544C17.1669 30.0902 20.0226 26.9769 23.6799 26.5675Z" fill="url(#paint0_linear_671_187)"/>
<defs>
<linearGradient id="paint0_linear_671_187" x1="0.482035" y1="29.8688" x2="48.5167" y2="29.8688" gradientUnits="userSpaceOnUse">
<stop stop-color="#16423C"/>
<stop offset="1" stop-color="#FEEA01"/>
</linearGradient>
</defs>
</svg>
