<svg width="12" height="18" viewBox="0 0 12 18" fill="none" xmlns="http://www.w3.org/2000/svg">
<path d="M5.99935 8.58332C5.44682 8.58332 4.91691 8.36383 4.52621 7.97313C4.13551 7.58243 3.91602 7.05252 3.91602 6.49999C3.91602 5.94746 4.13551 5.41755 4.52621 5.02685C4.91691 4.63615 5.44682 4.41666 5.99935 4.41666C6.55188 4.41666 7.08179 4.63615 7.47249 5.02685C7.86319 5.41755 8.08268 5.94746 8.08268 6.49999C8.08268 6.77358 8.0288 7.04449 7.9241 7.29725C7.8194 7.55001 7.66594 7.77967 7.47249 7.97313C7.27903 8.16658 7.04937 8.32004 6.79661 8.42474C6.54385 8.52944 6.27294 8.58332 5.99935 8.58332ZM5.99935 0.666656C4.45225 0.666656 2.96852 1.28124 1.87456 2.3752C0.780597 3.46916 0.166016 4.95289 0.166016 6.49999C0.166016 10.875 5.99935 17.3333 5.99935 17.3333C5.99935 17.3333 11.8327 10.875 11.8327 6.49999C11.8327 4.95289 11.2181 3.46916 10.1241 2.3752C9.03018 1.28124 7.54645 0.666656 5.99935 0.666656Z" fill="#8D8A8A"/>
</svg>
