<svg width="130" height="65" viewBox="0 0 130 65" fill="none" xmlns="http://www.w3.org/2000/svg">
<path d="M77.3044 11.7682C77.3044 19.3959 76.5796 27.3505 75.2337 33.8886C74.1983 39.446 73.5771 44.4585 74.0948 45.0033C74.5089 45.4392 79.2716 46.8558 84.6555 47.9455C93.249 49.7979 94.4914 49.9069 95.5268 48.4903C96.148 47.6186 97.494 46.8558 98.4258 46.8558C99.8753 46.8558 100.082 45.3302 100.082 36.7218C100.082 30.7285 100.911 22.2291 102.153 16.3448C104.224 5.88389 104.12 4.35835 101.532 4.35835C100.704 4.35835 100.082 3.37764 100.082 2.17899C100.082 0.108601 99.3576 -0.000366211 88.6934 -0.000366211H77.3044V11.7682ZM80.7211 5.77493C79.6857 11.6592 78.6504 12.5309 78.6504 7.51841C78.5468 2.17899 79.0645 0.762409 80.4105 1.63415C80.9282 1.96105 81.1352 3.81351 80.7211 5.77493ZM98.5293 2.17899C99.3576 3.59557 94.9056 3.59557 92.8348 2.17899C91.6959 1.41621 92.1101 1.08931 94.595 1.08931C96.3551 1.08931 98.2187 1.52518 98.5293 2.17899ZM93.3525 4.03144C97.9081 5.01215 101.842 5.99286 101.946 6.10183C102.36 6.31976 101.014 13.7296 97.494 32.1451C96.6657 36.2859 95.7339 41.6253 95.3197 43.8047C95.0091 46.093 94.1808 47.9455 93.4561 47.9455C89.3146 47.9455 75.2337 44.1316 75.2337 43.0419C75.2337 42.2791 75.8549 38.3563 76.6832 34.2155C77.5115 30.0747 79.168 21.1394 80.514 14.3834C81.7565 7.73635 83.3095 2.17899 83.9307 2.17899C84.5519 2.17899 88.7969 3.05073 93.3525 4.03144ZM98.1152 45.0033C96.7692 46.4199 96.5621 43.4778 97.8046 38.0294L98.5293 34.3245L98.8399 39.1191C99.047 41.7343 98.6329 44.4585 98.1152 45.0033Z" fill="#FFD70E"/>
<path d="M83.4152 19.5035C81.7586 21.247 80.4126 23.7533 80.4126 25.0609C80.4126 28.112 85.7965 33.7783 88.6955 33.7783C91.5945 33.7783 96.9784 28.112 96.9784 25.0609C96.9784 22.0098 91.5945 16.3435 88.6955 16.3435C87.4531 16.3435 85.0717 17.7601 83.4152 19.5035ZM93.044 20.3753C96.9784 24.0802 94.1829 31.599 88.9026 31.599C83.3116 31.599 80.5161 24.843 84.2434 20.4843C86.3142 18.087 90.5592 17.978 93.044 20.3753Z" fill="white"/>
<path d="M85.6918 22.7735C83.9317 23.9721 84.967 27.2412 87.0378 27.2412C87.7625 27.2412 88.7979 26.4784 89.1085 25.4977C89.4191 24.6259 90.2474 24.1901 90.7651 24.517C91.5934 25.0618 91.4898 25.7156 90.6615 26.8053C89.6262 28.1129 89.7297 28.2219 91.1792 27.677C93.3535 26.8053 93.3535 24.0811 91.1792 23.2093C90.0403 22.7735 88.7979 23.3183 87.866 24.6259C86.4165 26.5873 86.4165 26.5873 86.9342 24.1901C87.2448 22.8824 87.3484 21.7928 87.3484 21.7928C87.2448 21.7928 86.5201 22.2286 85.6918 22.7735Z" fill="white"/>
<path d="M77.8232 39.6636C77.3055 40.9712 77.5126 41.952 78.4444 42.6058C80.4116 43.9134 81.447 43.8044 81.447 42.4968C81.447 41.843 81.0329 41.4071 80.5152 41.4071C79.9975 41.4071 79.3763 40.5354 79.0657 39.4457C78.6515 37.7022 78.6515 37.7022 77.8232 39.6636Z" fill="white"/>
<path d="M92.2135 41.8429C91.9029 42.8236 90.8675 43.5864 90.0392 43.5864C89.2109 43.5864 88.9003 44.0222 89.2109 44.676C90.3498 46.5285 92.6276 45.8747 93.3524 43.4774C94.1807 40.7532 93.1453 39.2277 92.2135 41.8429Z" fill="white"/>
<path d="M59.1861 8.93425C55.3552 11.1136 51.3173 15.7992 48.2112 21.4655C46.4511 24.6256 44.898 27.2408 44.5874 27.2408C44.3804 27.2408 43.2415 26.696 42.2061 25.9332C40.5495 24.9525 39.8248 25.2794 37.3399 28.2215C33.4055 32.9072 26.9863 33.9968 24.0872 30.6188C22.0165 28.2215 21.4988 21.1386 22.9483 16.3441C23.466 14.6006 23.259 14.0557 22.3271 14.3826C21.4988 14.7095 20.3599 17.3248 19.7387 20.2669C17.5645 30.4009 13.3195 35.8493 4.62242 39.7721C-1.38269 42.3873 -1.58976 44.0219 4.31181 43.2591C7.00375 42.8232 9.90277 42.4963 10.6275 42.4963C11.3523 42.4963 13.1124 40.8618 14.4584 38.7914L16.8397 34.9775L19.6352 38.7914C23.7766 44.2398 29.7817 43.477 35.6833 36.721L38.0646 34.1058L41.999 36.1762C45.4157 37.9197 46.6582 38.0286 50.6961 37.0479C56.7012 35.4134 62.2921 30.5099 65.3982 23.8628C68.7114 17.1068 68.8149 11.6584 65.7088 9.37012C63.0169 7.29974 61.9815 7.29974 59.1861 8.93425ZM63.6381 16.562C67.3654 20.4848 60.8426 27.2408 52.4562 28.1126C45.8299 28.7664 45.7263 27.1319 51.7314 20.2669C56.3906 15.0364 60.8426 13.6199 63.6381 16.562Z" fill="white"/>
<path d="M126.07 21.683C123.689 29.8556 119.547 34.8681 111.472 39.2268C105.467 42.4958 106.088 44.0214 113.232 43.0407C116.441 42.6048 119.651 42.06 120.376 41.7331C122.964 40.7523 125.863 34.2143 128.037 24.952C130.419 14.4911 130.419 14.1642 129.176 14.1642C128.659 14.1642 127.313 17.5422 126.07 21.683Z" fill="white"/>
<path d="M48.3158 56.7713C40.9647 60.4762 37.0304 63.6363 38.1693 64.9439C38.9976 65.7067 53.8032 58.4058 55.3563 56.3354C58.2553 52.7395 55.874 52.8485 48.3158 56.7713Z" fill="white"/>
</svg>
