<svg width="80" height="40" viewBox="0 0 80 40" fill="none" xmlns="http://www.w3.org/2000/svg">
<path d="M47.5721 7.24233C47.5721 11.9363 47.1261 16.8314 46.2978 20.8549C45.6606 24.2747 45.2784 27.3594 45.5969 27.6946C45.8518 27.9629 48.7827 28.8346 52.0958 29.5052C57.3842 30.6451 58.1487 30.7122 58.7859 29.8405C59.1682 29.304 59.9965 28.8346 60.5699 28.8346C61.4619 28.8346 61.5893 27.8958 61.5893 22.5983C61.5893 18.9102 62.099 13.6798 62.8636 10.0587C64.1379 3.62126 64.0742 2.68247 62.4813 2.68247C61.9716 2.68247 61.5893 2.07895 61.5893 1.34133C61.5893 0.0672531 61.1433 0.00019455 54.5807 0.00019455H47.5721V7.24233ZM49.6747 3.5542C49.0375 7.17527 48.4004 7.71173 48.4004 4.62711C48.3367 1.34133 48.6552 0.469593 49.4835 1.00605C49.8021 1.20722 49.9295 2.34718 49.6747 3.5542ZM60.6336 1.34133C61.1433 2.21307 58.4036 2.21307 57.1293 1.34133C56.4284 0.871933 56.6833 0.670763 58.2124 0.670763C59.2956 0.670763 60.4425 0.93899 60.6336 1.34133ZM57.4479 2.4813C60.2513 3.08481 62.6725 3.68832 62.7362 3.75537C62.991 3.88949 62.1628 8.44935 59.9965 19.7819C59.4867 22.3301 58.9133 25.6159 58.6584 26.957C58.4673 28.3652 57.9576 29.5052 57.5116 29.5052C54.963 29.5052 46.2978 27.1582 46.2978 26.4876C46.2978 26.0182 46.6801 23.6042 47.1898 21.056C47.6995 18.5079 48.719 13.0092 49.5472 8.85169C50.3118 4.76123 51.2675 1.34133 51.6498 1.34133C52.0321 1.34133 54.6444 1.87778 57.4479 2.4813ZM60.3787 27.6946C59.5505 28.5664 59.423 26.7558 60.1876 23.403L60.6336 21.1231L60.8247 24.0736C60.9522 25.6829 60.6973 27.3594 60.3787 27.6946Z" fill="#16423C"/>
<path d="M51.3321 12.0031C50.3127 13.076 49.4844 14.6183 49.4844 15.423C49.4844 17.3006 52.7975 20.7875 54.5816 20.7875C56.3656 20.7875 59.6787 17.3006 59.6787 15.423C59.6787 13.5454 56.3656 10.0584 54.5816 10.0584C53.817 10.0584 52.3515 10.9302 51.3321 12.0031ZM57.2576 12.5395C59.6787 14.8195 57.9584 19.4464 54.709 19.4464C51.2684 19.4464 49.5481 15.2889 51.8418 12.6066C53.1161 11.1313 55.7284 11.0643 57.2576 12.5395Z" fill="black"/>
<path d="M52.7333 14.0147C51.6501 14.7523 52.2873 16.764 53.5615 16.764C54.0075 16.764 54.6447 16.2946 54.8358 15.6911C55.027 15.1546 55.5367 14.8864 55.8553 15.0876C56.365 15.4229 56.3013 15.8252 55.7916 16.4958C55.1544 17.3004 55.2181 17.3675 56.1101 17.0322C57.4481 16.4958 57.4481 14.8193 56.1101 14.2829C55.4093 14.0147 54.6447 14.3499 54.0713 15.1546C53.1793 16.3617 53.1793 16.3617 53.4978 14.8864C53.689 14.0817 53.7527 13.4112 53.7527 13.4112C53.689 13.4112 53.243 13.6794 52.7333 14.0147Z" fill="black"/>
<path d="M47.8914 24.4087C47.5728 25.2134 47.7002 25.8169 48.2737 26.2192C49.4842 27.0239 50.1214 26.9568 50.1214 26.1522C50.1214 25.7498 49.8665 25.4816 49.548 25.4816C49.2294 25.4816 48.8471 24.9451 48.6559 24.2746C48.4011 23.2017 48.4011 23.2017 47.8914 24.4087Z" fill="black"/>
<path d="M56.7466 25.7498C56.5555 26.3533 55.9183 26.8227 55.4086 26.8227C54.8989 26.8227 54.7077 27.0909 54.8989 27.4933C55.5997 28.6332 57.0015 28.2309 57.4475 26.7557C57.9572 25.0792 57.32 24.1404 56.7466 25.7498Z" fill="black"/>
<path d="M36.4222 5.49882C34.0648 6.83996 31.5799 9.7234 29.6685 13.2104C28.5853 15.155 27.6296 16.7644 27.4384 16.7644C27.311 16.7644 26.6102 16.4291 25.973 15.9597C24.9536 15.3562 24.5076 15.5573 22.9784 17.3679C20.5573 20.2513 16.6069 20.9219 14.8229 18.8431C13.5486 17.3679 13.2301 13.0092 14.1221 10.0587C14.4406 8.98577 14.3132 8.65049 13.7398 8.85166C13.2301 9.05283 12.5292 10.6622 12.1469 12.4727C10.8089 18.709 8.1966 22.0618 2.84457 24.4759C-0.850886 26.0852 -0.978315 27.0911 2.65342 26.6217C4.31001 26.3535 6.09402 26.1523 6.54002 26.1523C6.98602 26.1523 8.06917 25.1465 8.89746 23.8724L10.3629 21.5254L12.0832 23.8724C14.6318 27.2252 18.3272 26.7558 21.959 22.5983L23.4244 20.9889L25.8456 22.263C27.9482 23.3359 28.7127 23.403 31.1976 22.7995C34.8931 21.7936 38.3337 18.7761 40.2451 14.6856C42.284 10.5281 42.3477 7.17524 40.4362 5.76705C38.7797 4.49297 38.1425 4.49297 36.4222 5.49882ZM39.162 10.1928C41.4557 12.6068 37.4417 16.7644 32.2808 17.3008C28.203 17.7032 28.1393 16.6973 31.8348 12.4727C34.7019 9.254 37.4417 8.38226 39.162 10.1928Z" fill="black"/>
<path d="M77.5816 13.344C76.1161 18.3733 73.5675 21.4579 68.5978 24.1402C64.9023 26.1519 65.2846 27.0907 69.6809 26.4872C71.6561 26.2189 73.6313 25.8837 74.0773 25.6825C75.6701 25.079 77.4541 21.0556 78.7921 15.3557C80.2576 8.91829 80.2576 8.71712 79.493 8.71712C79.1744 8.71712 78.3461 10.7959 77.5816 13.344Z" fill="black"/>
<path d="M29.7327 34.9365C25.2089 37.2164 22.7878 39.1611 23.4886 39.9658C23.9983 40.4352 33.1095 35.9424 34.0653 34.6683C35.8493 32.4554 34.3838 32.5225 29.7327 34.9365Z" fill="black"/>
</svg>
