<svg width="35" height="35" viewBox="0 0 35 35" fill="none" xmlns="http://www.w3.org/2000/svg">
<rect y="0.637695" width="35" height="34" rx="17" fill="#A19F9F"/>
<path d="M18.3498 11.0108C18.5507 10.7719 18.8232 10.6377 19.1073 10.6377C19.3914 10.6377 19.6639 10.7719 19.8648 11.0108L24.6863 16.7445C24.8872 16.9835 25 17.3075 25 17.6454C25 17.9833 24.8872 18.3073 24.6863 18.5462L19.8648 24.28C19.6627 24.5121 19.3921 24.6405 19.1111 24.6376C18.8302 24.6347 18.5615 24.5007 18.3628 24.2645C18.1642 24.0283 18.0515 23.7087 18.049 23.3746C18.0466 23.0405 18.1546 22.7186 18.3498 22.4783L21.2502 18.9196H11.0714C10.7873 18.9196 10.5148 18.7853 10.3138 18.5464C10.1129 18.3074 10 17.9833 10 17.6454C10 17.3075 10.1129 16.9834 10.3138 16.7444C10.5148 16.5055 10.7873 16.3712 11.0714 16.3712H21.2502L18.3498 12.8124C18.1489 12.5735 18.0361 12.2495 18.0361 11.9116C18.0361 11.5737 18.1489 11.2497 18.3498 11.0108Z" fill="white"/>
</svg>
