<svg width="35" height="35" viewBox="0 0 35 35" fill="none" xmlns="http://www.w3.org/2000/svg">
<rect width="35" height="34" rx="17" transform="matrix(-1 0 0 1 35 0.637695)" fill="#A19F9F"/>
<path d="M16.6502 11.0108C16.4493 10.7719 16.1768 10.6377 15.8927 10.6377C15.6086 10.6377 15.3361 10.7719 15.1352 11.0108L10.3137 16.7445C10.1128 16.9835 10 17.3075 10 17.6454C10 17.9833 10.1128 18.3073 10.3137 18.5462L15.1352 24.28C15.3373 24.5121 15.6079 24.6405 15.8889 24.6376C16.1698 24.6347 16.4385 24.5007 16.6372 24.2645C16.8358 24.0283 16.9485 23.7087 16.951 23.3746C16.9534 23.0405 16.8454 22.7186 16.6502 22.4783L13.7498 18.9196H23.9286C24.2127 18.9196 24.4852 18.7853 24.6862 18.5464C24.8871 18.3074 25 17.9833 25 17.6454C25 17.3075 24.8871 16.9834 24.6862 16.7444C24.4852 16.5055 24.2127 16.3712 23.9286 16.3712H13.7498L16.6502 12.8124C16.8511 12.5735 16.9639 12.2495 16.9639 11.9116C16.9639 11.5737 16.8511 11.2497 16.6502 11.0108Z" fill="white"/>
</svg>
