<svg width="23" height="18" viewBox="0 0 23 18" fill="none" xmlns="http://www.w3.org/2000/svg">
<path fill-rule="evenodd" clip-rule="evenodd" d="M17.9971 7.74988V4.99988H19.4971V7.74988H22.2471V9.24988H19.4971V11.9999H17.9971V9.24988H15.2471V7.74988H17.9971ZM7.07907 9.34988C6.34307 8.47788 5.74707 6.84988 5.74707 5.70988V3.99988C5.74707 2.93901 6.1685 1.9216 6.91864 1.17145C7.66879 0.421305 8.6862 -0.00012207 9.74707 -0.00012207C10.8079 -0.00012207 11.8254 0.421305 12.5755 1.17145C13.3256 1.9216 13.7471 2.93901 13.7471 3.99988V5.70988C13.7471 6.84988 13.1471 8.48288 12.4151 9.35188L12.0541 9.77988C11.4641 10.4789 11.6481 11.3679 12.4731 11.7699L18.1331 14.5319C18.7481 14.8319 19.2471 15.6249 19.2471 16.3149V17.0019C19.2465 17.2669 19.1408 17.5209 18.9531 17.708C18.7654 17.8952 18.5111 18.0001 18.2461 17.9999H1.24707C0.9822 17.9999 0.728149 17.8948 0.54067 17.7077C0.353191 17.5206 0.2476 17.2667 0.24707 17.0019V16.3149C0.24707 15.6299 0.74507 14.8319 1.36107 14.5309L7.02107 11.7689C7.84207 11.3689 8.03307 10.4809 7.44107 9.77888L7.07907 9.34988Z" fill="#2E5077"/>
</svg>
