<svg width="189" height="334" viewBox="0 0 189 334" fill="none" xmlns="http://www.w3.org/2000/svg">
<path d="M66.674 183.033C67.204 181.783 68.574 180.873 70.674 180.623C72.9354 180.477 75.1995 180.864 77.2838 181.754C79.3681 182.643 81.2144 184.009 82.674 185.743C83.924 187.413 84.214 189.023 83.674 190.283L49.354 280.203C48.684 282.093 46.744 283.473 43.714 283.843C37.924 284.543 30.404 281.333 26.904 276.683C25.064 274.233 24.714 271.883 25.614 270.093L66.674 183.033Z" fill="#455A64"/>
<path d="M82.6739 185.743C85.1739 189.083 83.8539 192.193 79.6739 192.693C77.4124 192.839 75.1481 192.452 73.0637 191.563C70.9792 190.674 69.133 189.307 67.6739 187.573C65.1639 184.233 66.4939 181.123 70.6739 180.623C72.9353 180.477 75.1994 180.864 77.2837 181.754C79.368 182.643 81.2143 184.009 82.6739 185.743Z" fill="#37474F"/>
<path d="M83.5641 156.893C84.9346 156.799 86.3078 157.031 87.5715 157.57C88.8351 158.109 89.9531 158.939 90.8341 159.993C91.1725 160.353 91.4077 160.797 91.5151 161.279C91.6224 161.761 91.5979 162.264 91.4441 162.733L80.3141 188.853C80.0785 189.286 79.732 189.648 79.3103 189.903C78.8886 190.157 78.4068 190.296 77.9141 190.303C76.5432 190.396 75.1695 190.165 73.9046 189.628C72.6397 189.092 71.5192 188.264 70.6341 187.213C70.2976 186.85 70.0638 186.404 69.9566 185.921C69.8494 185.437 69.8727 184.934 70.0241 184.463L81.1641 158.383C81.3928 157.941 81.7366 157.57 82.159 157.308C82.5815 157.045 83.067 156.902 83.5641 156.893Z" fill="#2E5077"/>
<path opacity="0.2" d="M83.5641 156.893C84.9346 156.799 86.3078 157.031 87.5715 157.57C88.8351 158.109 89.9531 158.939 90.8341 159.993C91.1725 160.353 91.4077 160.797 91.5151 161.279C91.6224 161.761 91.5979 162.264 91.4441 162.733L80.3141 188.853C80.0785 189.286 79.732 189.648 79.3103 189.903C78.8886 190.157 78.4068 190.296 77.9141 190.303C76.5432 190.396 75.1695 190.165 73.9046 189.628C72.6397 189.092 71.5192 188.264 70.6341 187.213C70.2976 186.85 70.0638 186.404 69.9566 185.921C69.8494 185.437 69.8727 184.934 70.0241 184.463L81.1641 158.383C81.3928 157.941 81.7366 157.57 82.159 157.308C82.5815 157.045 83.067 156.902 83.5641 156.893Z" fill="black"/>
<path opacity="0.2" d="M76.0339 170.383L76.8039 170.833L76.9239 170.903L77.0739 170.983L77.2339 171.073C77.7269 171.362 78.2342 171.626 78.7539 171.863C79.3839 172.183 80.0339 172.463 80.6739 172.713C81.2493 172.959 81.8367 173.176 82.4339 173.363C83.0999 173.559 83.7666 173.752 84.4339 173.943C84.7839 174.043 85.1139 174.133 85.4339 174.203C85.6874 174.271 85.9445 174.324 86.2039 174.363L86.4539 174.413L91.4539 162.723C91.6077 162.254 91.6322 161.752 91.5249 161.269C91.4175 160.787 91.1823 160.343 90.8439 159.983C90.5382 159.586 90.1857 159.226 89.7939 158.913C86.6884 159.872 83.4715 160.423 80.2239 160.553L76.0339 170.383Z" fill="black"/>
<path opacity="0.15" d="M75.6539 192.383L39.4438 283.683C40.8547 283.919 42.2912 283.963 43.7139 283.813C46.7139 283.443 48.7139 282.073 49.3539 280.163L83.6738 190.263C83.1338 191.523 81.7638 192.413 79.6738 192.663C78.3277 192.8 76.9679 192.706 75.6539 192.383Z" fill="black"/>
<path d="M188.804 48.7831C188.804 48.0331 188.754 47.2931 188.694 46.5531C188.634 45.8131 188.604 45.0931 188.524 44.3731C188.524 43.8831 188.434 43.3731 188.374 42.9231C188.254 41.6731 188.074 40.4331 187.864 39.2531C187.774 38.7131 187.674 38.1631 187.564 37.6231C187.454 37.0831 187.354 36.6231 187.254 36.1031C186.934 34.7331 186.604 33.4031 186.254 32.1031C186.054 31.4931 185.864 30.8931 185.664 30.2931C185.62 30.2047 185.59 30.1104 185.574 30.0131C185.354 29.4231 185.144 28.8531 184.924 28.2931C184.704 27.7331 184.404 26.9931 184.114 26.3831C183.824 25.7731 183.704 25.4831 183.464 25.0431C183.33 24.6979 183.17 24.3636 182.984 24.0431C182.794 23.6531 182.594 23.2531 182.374 22.8831C182.329 22.7948 182.275 22.7111 182.214 22.6331C182.034 22.3031 181.834 21.9631 181.634 21.6331C181.434 21.3031 181.354 21.2131 181.224 21.0031C180.28 19.5094 179.217 18.0948 178.044 16.7731C177.844 16.5431 177.634 16.3231 177.454 16.1031C177.274 15.8831 177.124 15.7531 176.954 15.5831C176.784 15.4131 176.524 15.1631 176.304 14.9331C175.701 14.3199 175.06 13.7454 174.384 13.2131C174.064 12.9431 173.734 12.6831 173.384 12.4431C173.034 12.2031 172.714 11.9431 172.384 11.7031C171.853 11.3143 171.303 10.9538 170.734 10.6231L170.294 10.3531L170.204 10.2731L159.804 4.25311L159.654 4.16311C154.624 1.36465 148.95 -0.069471 143.194 0.00311275C134.604 0.00311275 124.914 2.81312 114.654 8.73312C79.364 29.1031 50.804 78.6131 50.804 119.383C50.804 139.693 57.904 153.983 69.394 160.673L69.494 160.733L79.804 166.773L79.924 166.853L80.074 166.933L80.2339 167.023C80.7269 167.312 81.2342 167.576 81.754 167.813C82.3789 168.129 83.0198 168.413 83.674 168.663C84.2486 168.911 84.8362 169.128 85.434 169.313C85.744 169.423 86.054 169.513 86.374 169.593C86.6995 169.715 87.0338 169.812 87.374 169.883C87.7025 169.987 88.0363 170.074 88.374 170.143C88.6227 170.219 88.8767 170.276 89.134 170.313C89.584 170.403 90.054 170.503 90.524 170.553C90.6297 170.573 90.7382 170.573 90.8439 170.553C91.3939 170.643 91.954 170.723 92.494 170.783C102.014 171.783 113.074 169.093 124.904 162.273C160.184 141.903 188.784 92.3631 188.784 51.6531C188.874 50.7131 188.854 49.7531 188.804 48.7831ZM72.4539 144.883C70.9806 139.437 70.254 133.815 70.294 128.173C70.294 89.5731 98.534 40.6631 131.954 21.3631C136.834 18.4754 142.1 16.2968 147.594 14.8931C150.212 14.2468 152.897 13.9112 155.594 13.8931C156.96 13.8889 158.325 13.996 159.674 14.2131H159.784C166.624 22.3031 167.634 35.2731 167.634 42.2131C167.634 80.8031 139.424 129.713 105.984 149.003C97.4839 153.913 89.304 156.503 82.294 156.503C80.8392 156.512 79.3898 156.327 77.9839 155.953C75.4016 152.681 73.5194 148.913 72.4539 144.883Z" fill="#37474F"/>
<path opacity="0.25" d="M179.694 48.9532C179.694 69.4632 171.694 92.8632 159.244 113.213C158.654 114.213 158.054 115.123 157.434 116.073C156.814 117.023 156.384 117.713 155.834 118.523C154.664 120.263 153.474 121.983 152.234 123.663C151.644 124.463 151.054 125.253 150.444 126.033C149.834 126.813 149.124 127.753 148.444 128.603C147.157 130.223 145.824 131.8 144.444 133.333C143.554 134.333 142.644 135.333 141.734 136.333C134.825 143.939 126.824 150.477 117.994 155.733C116.394 156.653 114.814 157.503 113.244 158.253C108.164 160.837 102.659 162.484 96.9939 163.113C96.0739 163.203 95.1739 163.233 94.3039 163.233C93.8439 163.233 93.3939 163.233 92.9539 163.233C92.1025 163.196 91.2542 163.106 90.4139 162.963C90.0039 162.903 89.6039 162.843 89.2139 162.753C88.8239 162.663 88.4339 162.583 88.0439 162.463C84.0929 161.452 80.581 159.176 78.0439 155.983C79.4466 156.356 80.8926 156.541 82.3439 156.533C89.3439 156.533 97.5439 153.943 106.044 149.033C139.484 129.753 167.684 80.8332 167.684 42.2432C167.684 35.3032 166.684 22.3432 159.844 14.2432H159.734C168.444 15.6332 173.404 21.5632 176.194 28.4132C176.986 30.3603 177.625 32.3665 178.104 34.4132C178.104 34.5232 178.104 34.6332 178.174 34.7532C178.264 35.1132 178.354 35.4932 178.424 35.8632C178.494 36.2332 178.564 36.5832 178.634 36.9432C178.657 37.0352 178.674 37.1288 178.684 37.2232C178.764 37.6098 178.834 37.9898 178.894 38.3632C179.104 39.8032 179.284 41.1932 179.404 42.5332C179.404 42.9232 179.474 43.2832 179.494 43.6532C179.514 44.0232 179.544 44.2132 179.554 44.4832C179.554 44.6032 179.554 44.7232 179.554 44.8332C179.554 45.1332 179.554 45.4232 179.604 45.7132C179.609 45.7964 179.609 45.8799 179.604 45.9632C179.604 46.3332 179.604 46.7032 179.604 47.0532C179.684 47.6732 179.694 48.3832 179.694 48.9532Z" fill="black"/>
<path d="M78.944 166.263L69.354 160.623C57.864 153.913 50.804 139.633 50.804 119.383C50.804 101.223 56.504 81.323 65.914 63.043L76.804 69.293C67.374 87.573 61.134 107.293 61.134 125.433C61.124 145.293 67.884 159.383 78.944 166.263Z" fill="#263238"/>
<path d="M170.264 10.3829L170.174 10.3029L159.804 4.26292L159.664 4.17293C154.634 1.36405 148.955 -0.0739596 143.194 0.00292925C134.614 0.00292925 124.914 2.81293 114.644 8.73293C95.104 20.0229 77.6441 40.2729 65.9041 63.0129L76.744 69.3829L76.504 69.8329C88.254 47.3429 105.664 26.9829 124.994 14.8329C142.494 3.83292 159.104 3.65293 170.704 10.7129L170.264 10.3829Z" fill="#455A64"/>
<path opacity="0.3" d="M174.134 45.6828C174.134 84.2728 145.894 133.193 112.474 152.483C107.587 155.38 102.31 157.562 96.8043 158.963C94.1699 159.613 91.4677 159.949 88.7543 159.963C85.9659 159.999 83.1941 159.528 80.5743 158.573C76.4243 155.093 73.9242 150.053 72.4242 144.873C70.9509 139.426 70.2243 133.805 70.2643 128.163C70.2643 89.5628 98.5042 40.6528 131.924 21.3528C136.804 18.4651 142.07 16.2865 147.564 14.8828C150.182 14.2365 152.868 13.9009 155.564 13.8828C158.353 13.8514 161.125 14.3257 163.744 15.2828C167.894 18.7528 170.394 23.8028 171.894 28.9828C173.394 34.4222 174.148 40.0404 174.134 45.6828Z" fill="white"/>
<path d="M42.9441 220.863C44.8341 221.283 48.4441 221.663 48.4441 221.663L51.0341 216.173L45.2241 213.483L42.9441 220.863Z" fill="#FFA8A7"/>
<path d="M28.804 216.763C33.3667 219.118 38.3547 220.536 43.474 220.933L46.5939 216.233L30.914 205.663L28.804 216.763Z" fill="#2E5077"/>
<path opacity="0.3" d="M28.804 216.763C33.3667 219.118 38.3547 220.536 43.474 220.933L46.5939 216.233L30.914 205.663L28.804 216.763Z" fill="black"/>
<path d="M42.4939 220.853L45.1339 221.243L47.1339 215.243C47.1339 215.243 44.5439 214.003 44.4739 214.043C44.4039 214.083 42.4939 220.853 42.4939 220.853Z" fill="#2E5077"/>
<path opacity="0.4" d="M42.4939 220.853L45.1339 221.243L47.1339 215.243C47.1339 215.243 44.5439 214.003 44.4739 214.043C44.4039 214.083 42.4939 220.853 42.4939 220.853Z" fill="black"/>
<path d="M7.504 183.463C6.22268 183.292 4.91979 183.519 3.77157 184.112C2.62335 184.706 1.6852 185.638 1.08401 186.783C0.168998 188.914 -0.175625 191.247 0.0840058 193.553C0.684006 198.843 4.65401 210.393 4.65401 210.393L7.504 183.463Z" fill="#2E5077"/>
<path opacity="0.4" d="M7.504 183.463C6.22268 183.292 4.91979 183.519 3.77157 184.112C2.62335 184.706 1.6852 185.638 1.08401 186.783C0.168998 188.914 -0.175625 191.247 0.0840058 193.553C0.684006 198.843 4.65401 210.393 4.65401 210.393L7.504 183.463Z" fill="black"/>
<path d="M1.80401 307.673C1.34401 307.843 1.08402 308.673 0.884015 310.793C0.764015 312.093 0.314019 313.793 2.29402 314.863C3.01899 315.237 3.82448 315.428 4.64023 315.419C5.45598 315.41 6.2572 315.202 6.97401 314.813C8.69401 313.753 9.55401 311.813 11.564 310.203C13.334 308.823 15.564 307.803 16.974 305.283C18.384 302.763 18.174 301.093 15.244 301.093C10.544 301.093 9.13402 303.683 6.71402 303.733C5.40402 303.763 2.29401 307.503 1.80401 307.673Z" fill="#263238"/>
<path d="M1.80396 306.633V308.753C1.80396 309.753 6.20396 311.323 7.43396 308.963C7.52396 308.763 8.00395 305.863 8.00395 305.863L1.80396 306.633Z" fill="#FFA8A7"/>
<path d="M22.2139 319.973C22.2139 319.973 21.3839 319.973 21.0539 323.383C20.9239 324.683 20.6139 327.383 21.0539 328.313C21.4939 329.243 23.9039 329.703 26.6039 329.943C28.6348 330.266 30.574 331.015 32.2939 332.143C34.0518 333.144 36.0316 333.69 38.0539 333.733C40.6039 333.733 42.7639 333.483 44.5839 332.043C45.5839 331.283 46.7739 329.673 45.8739 328.453C45.4998 328.088 45.027 327.841 44.5139 327.743C43.3839 327.313 42.2339 326.923 41.0839 326.563C39.3549 326.046 37.6669 325.401 36.0339 324.633C33.6539 323.453 31.0339 322.143 29.2039 320.143L22.2139 319.973Z" fill="#263238"/>
<path d="M22.2241 318.213C22.2241 318.213 22.2241 319.783 22.2241 320.673C22.2241 321.563 23.2241 322.913 26.0041 322.833C27.9341 322.773 29.2741 322.263 29.2041 320.673V318.383L22.2241 318.213Z" fill="#FFA8A7"/>
<path d="M0.614006 278.583C1.10502 274.842 1.95906 271.158 3.16401 267.583C3.16401 267.583 2.46401 258.083 2.16401 249.073C1.88724 239.846 2.14434 230.61 2.93401 221.413C2.93401 221.413 33.544 218.513 34.044 229.753C34.544 240.993 33.814 269.603 33.424 274.543C33.034 279.483 32.624 284.113 31.584 293.293C30.684 301.213 29.224 318.383 29.224 318.383C28.1328 318.932 26.9227 319.203 25.7014 319.172C24.4801 319.14 23.2855 318.807 22.224 318.203C22.224 318.203 19.924 295.143 19.654 289.443C19.314 282.063 21.034 277.983 21.034 277.983C21.034 277.983 20.384 273.343 19.244 263.783C18.444 257.033 17.374 249.353 17.374 249.353C17.374 249.353 16.374 258.863 15.694 264.163C15.104 269.083 14.104 272.973 12.624 282.163C11.344 290.163 7.85401 306.943 7.85401 306.943C6.94479 307.517 5.88047 307.796 4.80653 307.742C3.73259 307.689 2.70144 307.305 1.85401 306.643C1.85401 306.643 -0.385994 285.483 0.614006 278.583Z" fill="#263238"/>
<path d="M17.3741 249.383L15.9241 239.983C15.9241 239.983 9.92407 238.093 6.92407 234.543C6.92407 234.543 8.53408 238.673 14.0841 240.893L16.3141 248.803L16.6941 255.333L17.3741 249.383Z" fill="black"/>
<path d="M22.3941 180.693L20.9641 190.733L11.9341 190.423L12.8041 178.693L22.3941 180.693Z" fill="#FFA8A7"/>
<path d="M28.884 168.303C28.884 168.303 31.304 171.853 31.044 172.213C30.4229 172.56 29.7462 172.797 29.044 172.913L28.884 168.303Z" fill="#F28F8F"/>
<path d="M25.0941 167.713C25.0762 167.116 25.2368 166.528 25.5554 166.023C25.8739 165.517 26.336 165.119 26.8823 164.878C27.4287 164.637 28.0345 164.565 28.6223 164.67C29.21 164.776 29.7529 165.054 30.1816 165.47C30.6102 165.885 30.905 166.42 31.0282 167.004C31.1514 167.588 31.0975 168.196 30.8733 168.749C30.6492 169.303 30.2649 169.777 29.7698 170.111C29.2747 170.444 28.6912 170.623 28.0941 170.623C27.7059 170.63 27.3202 170.56 26.9591 170.417C26.598 170.274 26.2686 170.061 25.9899 169.791C25.7112 169.521 25.4886 169.198 25.3349 168.841C25.1811 168.485 25.0993 168.101 25.0941 167.713ZM25.7441 167.713C25.7501 168.168 25.8911 168.612 26.1492 168.987C26.4074 169.362 26.771 169.652 27.1941 169.82C27.6171 169.988 28.0806 170.027 28.5258 169.932C28.971 169.836 29.3779 169.611 29.6949 169.284C30.0119 168.957 30.2248 168.544 30.3065 168.096C30.3883 167.648 30.3353 167.186 30.1542 166.768C29.9732 166.35 29.6722 165.996 29.2895 165.749C28.9067 165.503 28.4594 165.375 28.0041 165.383C27.3976 165.394 26.8198 165.643 26.3965 166.078C25.9733 166.512 25.7388 167.096 25.7441 167.703V167.713Z" fill="#263238"/>
<path d="M22.154 158.463C26.954 159.403 28.374 161.463 28.944 169.083C29.544 177.033 28.774 179.543 27.744 180.633C27.054 181.363 23.134 181.553 21.144 181.043C18.664 180.403 13.044 178.503 10.354 174.553C7.20402 169.893 6.29402 163.553 9.55402 160.863C14.134 157.103 20.194 158.083 22.154 158.463Z" fill="#FFA8A7"/>
<path d="M22.324 181.243C24.384 181.473 27.174 181.243 27.744 180.633C25.9835 180.621 24.2406 180.281 22.604 179.633L22.324 181.243Z" fill="#F28F8F"/>
<path d="M29.694 160.383L29.544 160.533C28.544 161.463 27.364 162.063 26.3741 162.943C25.2915 163.919 24.5195 165.192 24.154 166.603C23.844 167.763 23.734 169.133 22.484 169.683C22.484 169.683 21.644 166.623 19.064 167.053C16.484 167.483 16.154 170.813 17.834 172.803C19.514 174.793 21.034 174.003 21.034 174.003C21.034 174.003 21.034 178.403 19.114 180.923C17.0395 181.407 14.879 181.387 12.814 180.863C10.304 180.373 6.71404 177.293 5.16404 174.003C1.90404 167.003 1.58404 160.733 6.03404 158.763C6.47404 155.523 9.03404 154.033 11.884 153.323C16.204 152.263 20.304 154.773 24.584 153.743C25.4621 153.472 26.3532 153.245 27.254 153.063C27.3552 153.032 27.4629 153.032 27.564 153.063C27.794 153.173 27.784 153.483 27.724 153.723C27.5038 154.589 27.0824 155.39 26.494 156.063C28.1401 156.132 29.7846 155.894 31.344 155.363C31.4523 156.269 31.3607 157.188 31.0757 158.056C30.7906 158.923 30.319 159.717 29.694 160.383Z" fill="black"/>
<path d="M6.67395 160.383L3.80396 158.683C3.9123 158.493 4.05695 158.326 4.22966 158.192C4.40237 158.059 4.59976 157.96 4.81055 157.903C5.02134 157.845 5.2414 157.829 5.45818 157.857C5.67495 157.884 5.8842 157.954 6.07396 158.063C6.26372 158.171 6.43028 158.316 6.56413 158.488C6.69799 158.661 6.79651 158.858 6.85408 159.069C6.91165 159.28 6.92715 159.5 6.89967 159.717C6.8722 159.934 6.80229 160.143 6.69395 160.333L6.67395 160.383Z" fill="#263238"/>
<path d="M22.534 171.383L22.394 168.063C22.612 168.054 22.8297 168.088 23.0346 168.163C23.2395 168.238 23.4277 168.352 23.5883 168.5C23.749 168.647 23.879 168.825 23.9709 169.023C24.0628 169.221 24.1149 169.435 24.1241 169.653C24.1332 169.871 24.0994 170.089 24.0245 170.294C23.9495 170.499 23.835 170.687 23.6873 170.847C23.5397 171.008 23.3619 171.138 23.164 171.23C22.9661 171.322 22.752 171.374 22.534 171.383Z" fill="#263238"/>
<path d="M30.704 167.013L21.814 168.303L22.184 168.923L30.714 167.683L30.704 167.013Z" fill="#263238"/>
<path d="M1.9639 188.993C3.0139 184.873 4.50389 183.533 8.09389 183.433C9.94258 183.559 11.7824 183.793 13.6039 184.133C13.9839 185.883 18.4839 187.063 23.0339 186.133C24.3939 186.523 28.0339 187.503 29.1039 187.913C32.3339 189.083 33.8939 192.433 34.1039 203.053C34.1039 203.053 34.7239 228.253 34.1039 232.603C27.3526 235.223 20.0059 235.916 12.8839 234.603C3.1939 232.433 2.04391 228.403 2.04391 228.403C2.04391 228.403 2.5539 218.293 2.8839 210.603C2.3939 205.703 1.66391 202.023 1.40391 198.113C1.16191 195.061 1.35042 191.991 1.9639 188.993Z" fill="#2E5077"/>
<g opacity="0.6">
<path d="M1.9639 188.993C3.0139 184.873 4.50389 183.533 8.09389 183.433C9.94258 183.559 11.7824 183.793 13.6039 184.133C13.9839 185.883 18.4839 187.063 23.0339 186.133C24.3939 186.523 28.0339 187.503 29.1039 187.913C32.3339 189.083 33.8939 192.433 34.1039 203.053C34.1039 203.053 34.7239 228.253 34.1039 232.603C27.3526 235.223 20.0059 235.916 12.8839 234.603C3.1939 232.433 2.04391 228.403 2.04391 228.403C2.04391 228.403 2.5539 218.293 2.8839 210.603C2.3939 205.703 1.66391 202.023 1.40391 198.113C1.16191 195.061 1.35042 191.991 1.9639 188.993Z" fill="white"/>
</g>
<path d="M12.5939 181.533L12.5239 182.533C12.5239 182.533 12.9939 183.903 15.7339 184.413C20.3439 185.263 21.9539 183.833 21.9539 183.833L22.0739 183.003C22.0739 183.003 22.5139 182.823 23.2639 183.403C24.4036 184.579 25.469 185.824 26.4539 187.133C26.4539 187.133 25.5739 186.873 22.6939 188.133C19.8175 189.255 16.6468 189.375 13.6939 188.473C12.8716 188.199 12.1356 187.715 11.5599 187.067C10.9842 186.419 10.589 185.631 10.4139 184.783C10.3039 183.873 11.8039 181.183 12.5939 181.533Z" fill="#2E5077"/>
<path opacity="0.25" d="M12.5939 181.533L12.5239 182.533C12.5239 182.533 12.9939 183.903 15.7339 184.413C20.3439 185.263 21.9539 183.833 21.9539 183.833L22.0739 183.003C22.0739 183.003 22.5139 182.823 23.2639 183.403C24.4036 184.579 25.469 185.824 26.4539 187.133C26.4539 187.133 25.5739 186.873 22.6939 188.133C19.8175 189.255 16.6468 189.375 13.6939 188.473C12.8716 188.199 12.1356 187.715 11.5599 187.067C10.9842 186.419 10.589 185.631 10.4139 184.783C10.3039 183.873 11.8039 181.183 12.5939 181.533Z" fill="black"/>
<path d="M28.7439 187.703C32.8439 188.213 36.0839 189.073 37.8739 192.983C40.8739 199.603 44.1839 205.043 46.5739 207.603C49.1239 210.333 59.5739 215.133 61.9339 214.753C64.2939 214.373 66.6339 211.663 67.8539 212.363C69.0739 213.063 66.8539 215.693 66.9639 216.283C67.0739 216.873 71.3839 216.563 73.4039 215.133C75.4239 213.703 76.1739 216.653 73.5539 219.713C70.9339 222.773 66.0339 223.013 60.7039 221.943C55.3739 220.873 44.5239 218.333 40.4339 214.943C35.4339 210.853 34.5939 207.493 32.4839 203.833C24.8039 195.993 28.7439 187.703 28.7439 187.703Z" fill="#FFA8A7"/>
<path d="M28.1439 187.593C28.1439 187.593 32.5339 187.593 34.8339 188.993C37.1339 190.393 38.5839 193.403 40.4839 197.543C42.2136 201.026 44.3051 204.317 46.7239 207.363C47.7239 208.603 55.0239 212.663 55.0239 212.663C54.6308 215.267 53.9084 217.811 52.8739 220.233C52.8739 220.233 45.5339 218.393 41.1139 216.023C36.6939 213.653 29.9739 204.163 29.9739 204.163C29.9739 204.163 25.2439 197.883 28.1439 187.593Z" fill="#2E5077"/>
<path opacity="0.15" d="M28.1439 187.593C28.1439 187.593 32.5339 187.593 34.8339 188.993C37.1339 190.393 38.5839 193.403 40.4839 197.543C42.2136 201.026 44.3051 204.317 46.7239 207.363C47.7239 208.603 55.0239 212.663 55.0239 212.663C54.6308 215.267 53.9084 217.811 52.8739 220.233C52.8739 220.233 45.5339 218.393 41.1139 216.023C36.6939 213.653 29.9739 204.163 29.9739 204.163C29.9739 204.163 25.2439 197.883 28.1439 187.593Z" fill="black"/>
<path d="M54.5739 212.383C54.4233 215.084 53.6388 217.711 52.2839 220.053C53.5784 220.404 54.8902 220.687 56.2139 220.903C56.2139 220.903 58.5139 218.593 58.3839 213.983L54.5739 212.383Z" fill="#2E5077"/>
<path opacity="0.3" d="M54.5739 212.383C54.4233 215.084 53.6388 217.711 52.2839 220.053C53.5784 220.404 54.8902 220.687 56.2139 220.903C56.2139 220.903 58.5139 218.593 58.3839 213.983L54.5739 212.383Z" fill="black"/>
<path d="M56.804 214.513C56.8015 214.634 56.7522 214.75 56.6665 214.835C56.5807 214.921 56.4652 214.97 56.344 214.973C56.2324 214.957 56.1304 214.901 56.0567 214.815C55.983 214.73 55.9424 214.621 55.9424 214.508C55.9424 214.395 55.983 214.286 56.0567 214.201C56.1304 214.115 56.2324 214.059 56.344 214.043C56.4669 214.046 56.5839 214.096 56.6699 214.184C56.7559 214.272 56.804 214.39 56.804 214.513Z" fill="#455A64"/>
</svg>
