<svg width="45" height="45" viewBox="0 0 45 45" fill="none" xmlns="http://www.w3.org/2000/svg">
<g clip-path="url(#clip0_799_1399)">
<path d="M39.9509 4.82874V20.6868C39.9509 22.2346 38.6958 23.4897 37.1472 23.4897H27.7613C26.2136 23.4897 24.9585 22.2346 24.9585 20.6868V4.82874L32.5785 4.42383L39.9509 4.82874Z" fill="#DDEAFB"/>
<path d="M39.9507 4.82864V20.6867C39.9507 22.2345 38.6956 23.4896 37.147 23.4896H35.2134C36.762 23.4896 38.0171 22.2345 38.0171 20.6867V4.82864L38.918 4.20312L39.9507 4.82864Z" fill="#CBE2FF"/>
<path d="M39.9509 3.46201V4.82871H24.9585V3.46201C24.9585 1.91426 26.2136 0.65918 27.7613 0.65918H37.1472C38.6958 0.65918 39.9509 1.91426 39.9509 3.46201Z" fill="#528FD8"/>
<path d="M39.9507 3.46201V4.82871H38.0171V3.46201C38.0171 1.91426 36.762 0.65918 35.2134 0.65918H37.147C38.6956 0.65918 39.9507 1.91426 39.9507 3.46201Z" fill="#263238"/>
<path d="M27.6094 7.67822H30.2157V10.2845H27.6094V7.67822Z" fill="#263238"/>
<path d="M27.6094 13.1343H30.2157V15.7406H27.6094V13.1343Z" fill="#263238"/>
<path d="M20.0417 2.11025V8.62295L18.4691 11.1904L15.9469 12.9401H9.21182C8.41025 12.9401 7.76074 12.2906 7.76074 11.4891V2.11025C7.76074 1.30869 8.41025 0.65918 9.21182 0.65918H18.5915C19.3922 0.65918 20.0417 1.30869 20.0417 2.11025Z" fill="#FFF9DF"/>
<path d="M20.0418 2.11025V8.62295L18.4692 11.1904L17.6758 11.1173V2.11025C17.6758 1.30869 17.0263 0.65918 16.2256 0.65918H18.5916C19.3923 0.65918 20.0418 1.30869 20.0418 2.11025Z" fill="#FFF0AD"/>
<path d="M20.0416 8.62305V11.4892C20.0416 12.2907 19.3921 12.9402 18.5914 12.9402H15.9468L17.6756 11.1174L20.0416 8.62305Z" fill="#FFC344"/>
<path d="M16.8592 37.1102C16.7027 37.4319 16.6219 37.7843 16.6219 38.1421V40.0669L11.3832 40.6935L6.14443 40.0669V36.4475C6.14443 35.5924 5.87461 34.7591 5.37275 34.0666L4.18975 32.4336C3.04277 30.8507 2.42578 28.9469 2.42578 26.9923V18.6005C2.42578 18.0424 2.69297 17.5326 3.10605 17.2091C3.39961 16.9806 3.76523 16.8453 4.16162 16.8523C5.08711 16.8699 5.83154 17.6257 5.83154 18.5556L6.71924 26.4552C6.92754 28.3036 8.37686 29.738 10.1777 29.9665C9.91318 29.5841 9.76904 29.128 9.76904 28.6569V24.1094C9.76904 23.7447 9.90527 23.4054 10.1329 23.1488C10.3676 22.8825 10.6998 22.7067 11.0769 22.6847C11.4495 22.6628 11.7984 22.7893 12.063 23.0161C12.3064 23.2244 12.4787 23.5171 12.5332 23.8563L12.9639 26.588C13.0491 27.1267 13.3022 27.6251 13.689 28.0118L15.7078 30.0298C15.7641 30.0869 15.8194 30.144 15.8739 30.202C17.6124 32.0591 17.9719 34.8224 16.8592 37.1102Z" fill="#FFCEBF"/>
<path d="M10.1776 29.9665C6.85537 29.9665 4.86201 28.3036 4.65371 26.4552L3.76602 18.5556C3.76602 18.0081 3.50762 17.5203 3.10596 17.2091C3.39951 16.9806 3.76514 16.8453 4.16152 16.8523C5.08701 16.8699 5.83145 17.6257 5.83145 18.5556L6.71914 26.4552C6.92744 28.3036 8.37676 29.738 10.1776 29.9665Z" fill="#FFB09E"/>
<path d="M16.8591 37.1101C16.7026 37.4318 16.6218 37.7842 16.6218 38.1419V40.0667L15.6075 40.5176L14.5563 40.0667V38.1419C14.5563 37.7842 14.6372 37.4318 14.7937 37.1101C15.9063 34.8223 15.5469 32.059 13.8084 30.2019C13.7539 30.1439 13.6985 30.0867 13.6423 30.0296L11.6234 28.0116C11.2367 27.6249 10.9836 27.1266 10.8983 26.5878L10.4677 23.8562C10.4237 23.5837 10.3042 23.3411 10.1328 23.1486C10.3675 22.8823 10.6997 22.7066 11.0768 22.6846C11.4494 22.6626 11.7983 22.7892 12.0629 23.0159C12.3063 23.2242 12.4786 23.5169 12.5331 23.8562L12.9638 26.5878C13.049 27.1266 13.3021 27.6249 13.6889 28.0116L15.7077 30.0296C15.764 30.0867 15.8193 30.1439 15.8738 30.2019C17.6123 32.059 17.9718 34.8223 16.8591 37.1101Z" fill="#FFB09E"/>
<path d="M42.5741 18.6005V26.9923C42.5741 28.947 41.9572 30.8507 40.8102 32.4336L39.6272 34.0666C39.1253 34.7592 38.8555 35.5924 38.8555 36.4475V40.0669L33.6168 40.6935L28.3781 40.0669V38.1421C28.3781 37.7844 28.2972 37.4319 28.1408 37.1102C27.0281 34.8224 27.3875 32.0592 29.126 30.202C29.1805 30.144 29.2359 30.0869 29.2921 30.0298L31.311 28.0118C31.6977 27.6251 31.9508 27.1267 32.0361 26.588L32.4667 23.8563C32.5212 23.5171 32.6935 23.2244 32.9369 23.0161C33.2015 22.7893 33.5504 22.6628 33.9231 22.6848C34.664 22.7278 35.2309 23.3668 35.2309 24.1095V28.6569C35.2309 29.128 35.0867 29.5842 34.8222 29.9665C36.6231 29.738 38.0724 28.3036 38.2807 26.4553L39.1684 18.5557C39.1684 18.0019 39.4329 17.5089 39.8425 17.1986C40.1202 16.9868 40.4639 16.8594 40.8383 16.8523C41.7937 16.8348 42.5741 17.646 42.5741 18.6005Z" fill="#FFCEBF"/>
<path d="M42.5743 18.6005V26.9923C42.5743 28.947 41.9573 30.8507 40.8103 32.4336L39.6273 34.0666C39.1255 34.7592 38.8557 35.5924 38.8557 36.4475V40.0669L37.8854 40.6935L36.8184 40.0669V36.4475C36.8184 35.5924 37.0882 34.7592 37.59 34.0666L38.773 32.4336C39.92 30.8507 40.537 28.947 40.537 26.9923V18.6005C40.537 18.0362 40.2637 17.5212 39.8427 17.1986C40.1204 16.9868 40.4641 16.8594 40.8385 16.8523C41.7938 16.8348 42.5743 17.646 42.5743 18.6005Z" fill="#FFB09E"/>
<path d="M5.04932 40.0669H17.717V44.341H5.04932V40.0669Z" fill="#DDEAFB"/>
<path d="M15.6074 40.0669H17.7168V44.341H15.6074V40.0669Z" fill="#CBE2FF"/>
<path d="M27.2832 40.0669H39.9509V44.341H27.2832V40.0669Z" fill="#DDEAFB"/>
<path d="M37.8853 40.0669H39.9507V44.341H37.8853V40.0669Z" fill="#CBE2FF"/>
<path d="M29.0473 24.6297V23.7168C29.0473 23.3452 28.7986 23.0194 28.4401 22.9215L27.7143 22.7233C27.4687 22.6563 27.2681 22.4793 27.1707 22.2442C27.1696 22.2417 27.1686 22.2392 27.1676 22.2368C27.0695 22.001 27.0858 21.7335 27.2124 21.5118L27.5855 20.8585C27.7698 20.5356 27.7153 20.1295 27.4525 19.8667L26.8071 19.2212C26.5443 18.9584 26.138 18.904 25.8152 19.0883L25.1618 19.4614C24.9402 19.5879 24.6725 19.6043 24.4368 19.5062C24.4344 19.5051 24.4319 19.5042 24.4294 19.5031C24.1942 19.4056 24.0173 19.2052 23.9503 18.9595L23.7521 18.2337C23.6542 17.8751 23.3284 17.6265 22.9567 17.6265H22.0439C21.6722 17.6265 21.3465 17.8752 21.2486 18.2337L21.0504 18.9595C20.9833 19.2051 20.8064 19.4056 20.5712 19.5031C20.5687 19.5042 20.5663 19.5051 20.5639 19.5062C20.3282 19.6043 20.0607 19.588 19.839 19.4614L19.1856 19.0883C18.8628 18.904 18.4567 18.9584 18.1939 19.2212L17.5484 19.8667C17.2856 20.1295 17.2311 20.5357 17.4154 20.8585L17.7885 21.5118C17.9151 21.7335 17.9313 22.0011 17.8333 22.2368C17.8323 22.2392 17.8313 22.2417 17.8303 22.2442C17.7328 22.4793 17.5323 22.6563 17.2866 22.7233L16.5608 22.9215C16.2023 23.0194 15.9536 23.3452 15.9536 23.7168V24.6297C15.9536 25.0014 16.2023 25.3271 16.5608 25.425L17.2866 25.6232C17.5322 25.6903 17.7328 25.8672 17.8303 26.1024C17.8313 26.1048 17.8323 26.1073 17.8333 26.1098C17.9314 26.3455 17.9152 26.613 17.7885 26.8347L17.4154 27.4881C17.2311 27.8109 17.2856 28.217 17.5484 28.4798L18.1939 29.1253C18.4567 29.3881 18.8629 29.4426 19.1856 29.2583L19.839 28.8852C20.0607 28.7586 20.3283 28.7423 20.5639 28.8403C20.5664 28.8414 20.5688 28.8424 20.5712 28.8434C20.8064 28.9409 20.9833 29.1414 21.0504 29.387L21.2486 30.1128C21.3465 30.4714 21.6722 30.7201 22.0439 30.7201H22.9567C23.3284 30.7201 23.6542 30.4713 23.7521 30.1128L23.9503 29.387C24.0173 29.1415 24.1942 28.9409 24.4294 28.8434C24.4319 28.8424 24.4344 28.8414 24.4368 28.8403C24.6725 28.7423 24.9401 28.7585 25.1617 28.8852L25.8151 29.2583C26.1379 29.4426 26.5441 29.3881 26.8069 29.1253L27.4523 28.4798C27.7151 28.217 27.7696 27.8108 27.5853 27.4881L27.2122 26.8347C27.0857 26.613 27.0694 26.3454 27.1674 26.1097C27.1685 26.1072 27.1694 26.1047 27.1705 26.1023C27.2679 25.8671 27.4684 25.6902 27.7141 25.6231L28.4399 25.4249C28.7986 25.3271 29.0473 25.0014 29.0473 24.6297Z" fill="#CBE2FF"/>
<path d="M24.9581 24.1736C24.9581 25.5307 23.8577 26.6311 22.4998 26.6311C22.157 26.6311 21.8301 26.5607 21.533 26.4333C20.6559 26.058 20.0415 25.1879 20.0415 24.1736C20.0415 23.1594 20.6559 22.2884 21.533 21.9131C21.8301 21.7856 22.157 21.7153 22.4998 21.7153C23.8577 21.7153 24.9581 22.8157 24.9581 24.1736Z" fill="#5A5A5A"/>
<path d="M24.9583 24.1736C24.9583 25.5307 23.8579 26.6311 22.5 26.6311C22.1572 26.6311 21.8303 26.5607 21.5332 26.4333C22.4104 26.058 23.0247 25.1879 23.0247 24.1736C23.0247 23.1594 22.4104 22.2884 21.5332 21.9131C21.8303 21.7856 22.1572 21.7153 22.5 21.7153C23.8579 21.7153 24.9583 22.8157 24.9583 24.1736Z" fill="#444444"/>
<path d="M17.7167 39.4074H17.2812C17.2812 38.7962 17.1747 37.9695 17.4524 37.3986C18.1894 35.8821 18.353 34.1593 17.913 32.5474C17.8172 32.1963 17.4545 31.9889 17.1035 32.085C16.7523 32.1809 16.5452 32.5432 16.6411 32.8945C16.997 34.1982 16.8639 35.5931 16.2666 36.8222C15.8772 37.6233 15.9629 38.5445 15.9629 39.4074H6.80379V36.4477C6.80379 34.6736 5.70313 33.3989 4.72368 32.0463C3.65177 30.567 3.08514 28.8193 3.08514 26.9921V18.6007C3.08514 17.1716 5.02251 17.2599 5.17685 18.6294L6.0641 26.5291C6.29464 28.5727 7.81884 30.1988 9.81431 30.5751C9.86669 30.6367 11.5314 32.3079 11.5314 32.3079C11.6601 32.4367 11.8288 32.5011 11.9976 32.5011C12.1663 32.5011 12.3349 32.4367 12.4636 32.3081C12.7211 32.0507 12.7212 31.6333 12.4638 31.376C12.4638 31.376 10.7786 29.676 10.7229 29.5959C10.534 29.3212 10.4288 28.9911 10.4288 28.657V24.1091C10.4288 23.2195 11.7402 23.0699 11.8822 23.9588L12.3129 26.6908C12.4209 27.3722 12.7358 27.9902 13.2234 28.4779L15.2417 30.4962C15.4992 30.7535 15.9166 30.7535 16.1739 30.4962C16.4313 30.2387 16.4313 29.8214 16.1739 29.5639L14.1556 27.5457C13.8661 27.2561 13.679 26.8891 13.615 26.4849L13.1841 23.7521C13.107 23.2702 12.861 22.8308 12.4915 22.515C12.0871 22.1691 11.5707 21.9957 11.0384 22.0266C9.95722 22.0895 9.1103 23.0042 9.1103 24.1091V28.657V28.6572C9.1103 28.7573 9.11531 28.8567 9.12498 28.9549C8.17304 28.4531 7.50076 27.5052 7.37402 26.3817L6.49055 18.516C6.43904 15.477 1.7666 15.5568 1.7666 18.6008V26.9922C1.7666 29.0991 2.41998 31.1142 3.6559 32.8198C4.44832 33.9141 5.48534 35.0122 5.48534 36.4478V39.4075H5.04984C4.6858 39.4075 4.39066 39.7026 4.39066 40.0667V44.341C4.39066 44.7051 4.6858 45.0002 5.04984 45.0002H17.7166C18.0807 45.0002 18.3758 44.7051 18.3758 44.341V40.0666C18.3759 39.7026 18.0808 39.4074 17.7167 39.4074ZM17.0575 43.6818H5.70911V40.7258H17.0575V43.6818Z" fill="black"/>
<path d="M42.5044 16.869C42.0047 16.3785 41.3061 16.1296 40.6098 16.2077V3.4621C40.6098 1.55312 39.0567 0 37.1477 0H27.7613C25.8523 0 24.2992 1.55312 24.2992 3.4621V9.24522C24.2992 9.60935 24.5944 9.9044 24.9584 9.9044C25.3224 9.9044 25.6176 9.60935 25.6176 9.24522V5.48789H39.2914V16.8061C38.8215 17.2318 38.5213 17.8421 38.5099 18.5158L38.0475 22.6328C37.2994 22.9791 36.2575 22.8305 35.4604 22.8305C34.6664 21.7881 33.0145 21.7789 32.2132 22.8305H29.4109C29.2177 22.5715 28.941 22.3748 28.6137 22.2855L27.8878 22.0873C27.7847 22.0591 27.7316 21.9316 27.7849 21.8385L28.1579 21.1852C28.4887 20.6059 28.3903 19.872 27.9186 19.4003L27.2732 18.7549C26.836 18.3176 26.1735 18.2017 25.6175 18.4507V12.3926C25.6175 12.0284 25.3224 11.7334 24.9583 11.7334C24.5943 11.7334 24.2991 12.0284 24.2991 12.3926V17.8198C24.0579 17.3074 23.5372 16.967 22.9568 16.967H22.0439C21.3769 16.967 20.7883 17.4163 20.6126 18.0599L20.4144 18.7857C20.3862 18.889 20.2585 18.9417 20.1656 18.8888L19.5122 18.5156C18.933 18.1848 18.199 18.2834 17.7275 18.755L17.082 19.4004C16.6103 19.8721 16.5118 20.606 16.8426 21.1852L17.2157 21.8387C17.2685 21.9313 17.2168 22.0591 17.1127 22.0874L16.3868 22.2856C15.7433 22.4614 15.2939 23.0499 15.2939 23.7169V24.6299C15.2939 25.2968 15.7433 25.8853 16.3868 26.0611L17.1124 26.2592C17.2156 26.2874 17.2688 26.4148 17.2156 26.508L16.8425 27.1615C16.5118 27.7407 16.6102 28.4745 17.0818 28.9462L17.7273 29.5918C18.1989 30.0635 18.933 30.1618 19.512 29.8311L20.1655 29.458C20.2583 29.405 20.3861 29.4576 20.4143 29.561L20.6125 30.287C20.7883 30.9304 21.3768 31.3798 22.0437 31.3798H22.9566C23.6235 31.3798 24.2121 30.9305 24.3879 30.2869L24.586 29.5611C24.6142 29.4578 24.7416 29.405 24.8348 29.4581L25.4881 29.831C26.0675 30.162 26.8014 30.0636 27.273 29.5917L27.9184 28.9462C28.3901 28.4746 28.4885 27.7407 28.1578 27.1615L27.7847 26.508C27.7316 26.4149 27.7847 26.2874 27.8877 26.2593L28.6136 26.0611C29.257 25.8853 29.7064 25.2968 29.7064 24.6299V24.149H31.7537L31.3856 26.4843C31.1801 27.7798 29.487 28.8518 28.6453 29.7512C26.75 31.7762 26.309 34.8495 27.548 37.3986C27.7587 38.0646 27.7191 38.7188 27.7191 39.4074H27.2836C26.9196 39.4074 26.6245 39.7025 26.6245 40.0666V44.3408C26.6245 44.705 26.9196 45 27.2836 45H29.7953C30.1593 45 30.4545 44.705 30.4545 44.3408C30.4545 43.9767 30.1593 43.6816 29.7953 43.6816H27.943V40.7256H39.2914V43.6816H32.8272C32.4631 43.6816 32.168 43.9767 32.168 44.3408C32.168 44.705 32.4631 45 32.8272 45H39.9506C40.3147 45 40.6098 44.705 40.6098 44.3408V40.0664C40.6098 39.7023 40.3147 39.4073 39.9506 39.4073H39.5151V36.4475C39.5151 35.0173 40.5531 33.9124 41.3445 32.8197C42.5805 31.1141 43.2338 29.0988 43.2338 26.9919V18.6006C43.2338 17.9552 42.968 17.324 42.5044 16.869ZM25.6176 4.16944V3.46201C25.6176 2.27997 26.5793 1.31827 27.7613 1.31827H37.1477C38.3297 1.31827 39.2914 2.27988 39.2914 3.46201V4.16944H25.6176ZM37.8861 24.0696L37.6264 26.3812C37.4997 27.5051 36.8273 28.453 35.8755 28.9549C35.8852 28.8566 35.8902 28.7572 35.8902 28.6572V28.6571V28.6569V24.1488C36.5364 24.1488 37.2498 24.208 37.8861 24.0696ZM28.3882 24.6296C28.3882 24.7039 28.3381 24.7694 28.2665 24.7889L27.5405 24.9872C26.618 25.2394 26.1658 26.331 26.6401 27.1614L27.0132 27.8148C27.05 27.8793 27.0391 27.9611 26.9865 28.0137L26.341 28.6592C26.2884 28.7118 26.2068 28.7229 26.1421 28.6858L25.4888 28.3129C24.6653 27.8426 23.5641 28.2997 23.3145 29.2134L23.1164 29.9392C23.0968 30.011 23.0312 30.0611 22.957 30.0611H22.044C21.9698 30.0611 21.9041 30.011 21.8846 29.9393L21.6864 29.2133C21.4366 28.299 20.3413 27.8396 19.5123 28.3128L18.8587 28.6859C18.7942 28.7228 18.7125 28.7118 18.66 28.6593L18.0144 28.0136C17.9619 27.9611 17.951 27.8794 17.9878 27.8148L18.3608 27.1614C18.8311 26.3379 18.375 25.2373 17.4602 24.9871L16.7344 24.7889C16.6627 24.7693 16.6126 24.7038 16.6126 24.6296V23.7167C16.6126 23.6423 16.6627 23.5767 16.7343 23.5572L17.4601 23.359C18.3815 23.1076 18.8348 22.0149 18.3608 21.1848L17.9877 20.5312C17.9509 20.4668 17.9619 20.3851 18.0144 20.3325L18.66 19.687C18.7125 19.6344 18.7943 19.6237 18.8587 19.6603L19.5121 20.0333C20.3427 20.508 21.4346 20.055 21.6863 19.1327L21.8845 18.4069C21.9041 18.3353 21.9697 18.2852 22.0439 18.2852H22.9569C23.0312 18.2852 23.0968 18.3352 23.1163 18.4069L23.3145 19.1328C23.5594 20.0292 24.6848 20.4927 25.4887 20.0333L26.142 19.6603C26.2065 19.6235 26.2884 19.6344 26.3409 19.6871L26.9865 20.3325C27.039 20.3851 27.0499 20.4667 27.0131 20.5313L26.6401 21.1848C26.1665 22.0141 26.6201 23.1077 27.5407 23.359L28.2665 23.5572C28.3382 23.5768 28.3883 23.6424 28.3883 23.7167V24.6296H28.3882ZM41.9155 26.9919C41.9155 28.8192 41.3489 30.5669 40.2769 32.0462C39.2996 33.3957 38.1967 34.6784 38.1967 36.4475V39.4073H29.0376C29.0376 38.54 29.1259 37.6285 28.7338 36.8221C27.7319 34.7607 28.0831 32.2811 29.6078 30.652C30.6908 29.4966 32.4232 28.3579 32.6878 26.6901L33.1181 23.9601C33.2603 23.0705 34.5718 23.2182 34.5718 24.1089V28.6568C34.5718 29.0895 34.3954 29.5164 34.0891 29.8228L32.5367 31.3758C32.2792 31.6332 32.2793 32.0506 32.5369 32.308C32.6655 32.4366 32.8342 32.5009 33.0029 32.5009C33.1716 32.5009 33.3404 32.4366 33.469 32.3077C33.469 32.3077 35.1338 30.6366 35.1861 30.575C37.1816 30.1986 38.7059 28.5725 38.9364 26.5286L39.3181 23.1299C39.3191 23.1226 39.3199 23.1154 39.3206 23.1081L39.8237 18.6292C39.9793 17.2484 41.9154 17.153 41.9154 18.6006L41.9155 26.9919Z" fill="black"/>
<path d="M22.5 21.0562C20.7812 21.0562 19.3828 22.4545 19.3828 24.1734C19.3828 25.8922 20.7812 27.2906 22.5 27.2906C24.2189 27.2906 25.6172 25.8922 25.6172 24.1734C25.6172 22.4545 24.2189 21.0562 22.5 21.0562ZM22.5 25.9722C21.5081 25.9722 20.7012 25.1652 20.7012 24.1734C20.7012 23.1815 21.5081 22.3745 22.5 22.3745C23.492 22.3745 24.2989 23.1815 24.2989 24.1734C24.2989 25.1652 23.492 25.9722 22.5 25.9722Z" fill="black"/>
<path d="M27.6094 10.9438H30.2157C30.5797 10.9438 30.8749 10.6487 30.8749 10.2846V7.67822C30.8749 7.31409 30.5797 7.01904 30.2157 7.01904H27.6094C27.2453 7.01904 26.9502 7.31409 26.9502 7.67822V10.2845C26.9502 10.6487 27.2453 10.9438 27.6094 10.9438ZM28.2686 8.3374H29.5565V9.62535H28.2686V8.3374Z" fill="black"/>
<path d="M26.9502 15.7406C26.9502 16.1047 27.2453 16.3998 27.6094 16.3998H30.2157C30.5797 16.3998 30.8749 16.1047 30.8749 15.7406V13.1343C30.8749 12.7701 30.5797 12.4751 30.2157 12.4751H27.6094C27.2453 12.4751 26.9502 12.7701 26.9502 13.1343V15.7406ZM28.2686 13.7934H29.5565V15.0813H28.2686V13.7934Z" fill="black"/>
<path d="M32.7671 9.64062H37.1652C37.5293 9.64062 37.8244 9.34558 37.8244 8.98145C37.8244 8.61731 37.5293 8.32227 37.1652 8.32227H32.7671C32.403 8.32227 32.1079 8.61731 32.1079 8.98145C32.1079 9.34558 32.403 9.64062 32.7671 9.64062Z" fill="black"/>
<path d="M32.7671 13.7935H37.1652C37.5293 13.7935 37.8244 13.4984 37.8244 13.1343C37.8244 12.7701 37.5293 12.4751 37.1652 12.4751H32.7671C32.403 12.4751 32.1079 12.7701 32.1079 13.1343C32.1079 13.4984 32.403 13.7935 32.7671 13.7935Z" fill="black"/>
<path d="M32.7671 16.3999H35.2308C35.5949 16.3999 35.89 16.1049 35.89 15.7407C35.89 15.3766 35.5949 15.0815 35.2308 15.0815H32.7671C32.403 15.0815 32.1079 15.3766 32.1079 15.7407C32.1079 16.1049 32.403 16.3999 32.7671 16.3999Z" fill="black"/>
<path d="M9.21204 13.5992H18.5914C19.7548 13.5992 20.7014 12.6526 20.7014 11.4892V2.10999C20.7014 0.946582 19.7549 0 18.5914 0H9.21204C8.04863 0 7.10205 0.946582 7.10205 2.10999V11.4893C7.10205 12.6527 8.04863 13.5992 9.21204 13.5992ZM18.5914 12.2809H17.481L19.383 10.2757V11.4892C19.383 11.9258 19.0279 12.2809 18.5914 12.2809ZM8.42041 2.10999C8.42041 1.67344 8.77558 1.31836 9.21204 1.31836H18.5914C19.0278 1.31836 19.383 1.67344 19.383 2.10999V8.36016L15.6639 12.2809H9.21204C8.77558 12.2809 8.42041 11.9258 8.42041 11.4892V2.10999Z" fill="black"/>
<path d="M11.0645 4.8623H16.7387C17.1027 4.8623 17.3979 4.56726 17.3979 4.20312C17.3979 3.83899 17.1027 3.54395 16.7387 3.54395H11.0645C10.7004 3.54395 10.4053 3.83899 10.4053 4.20312C10.4053 4.56726 10.7004 4.8623 11.0645 4.8623Z" fill="black"/>
<path d="M11.0645 7.98975H14.7853C15.1493 7.98975 15.4445 7.6947 15.4445 7.33057C15.4445 6.96644 15.1493 6.67139 14.7853 6.67139H11.0645C10.7004 6.67139 10.4053 6.96644 10.4053 7.33057C10.4053 7.6947 10.7004 7.98975 11.0645 7.98975Z" fill="black"/>
</g>
<defs>
<clipPath id="clip0_799_1399">
<rect width="45" height="45" fill="white"/>
</clipPath>
</defs>
</svg>
