<svg width="189" height="334" viewBox="0 0 189 334" fill="none" xmlns="http://www.w3.org/2000/svg">
<path d="M66.674 183.033C67.204 181.783 68.574 180.873 70.674 180.623C72.9354 180.477 75.1995 180.864 77.2838 181.754C79.3681 182.643 81.2144 184.009 82.674 185.743C83.924 187.413 84.214 189.023 83.674 190.283L49.354 280.203C48.684 282.093 46.744 283.473 43.714 283.843C37.924 284.543 30.404 281.333 26.904 276.683C25.064 274.233 24.714 271.883 25.614 270.093L66.674 183.033Z" fill="#455A64"/>
<path d="M82.6737 185.743C85.1737 189.083 83.8537 192.193 79.6737 192.693C77.4122 192.84 75.1479 192.453 73.0634 191.563C70.979 190.674 69.1328 189.307 67.6737 187.573C65.1637 184.233 66.4937 181.123 70.6737 180.623C72.9351 180.477 75.1992 180.864 77.2835 181.754C79.3678 182.643 81.2141 184.009 82.6737 185.743Z" fill="#37474F"/>
<path d="M83.5644 156.893C84.9348 156.799 86.3081 157.031 87.5717 157.57C88.8353 158.109 89.9534 158.939 90.8344 159.993C91.1727 160.353 91.408 160.797 91.5153 161.279C91.6226 161.761 91.5981 162.264 91.4444 162.733L80.3144 188.853C80.0787 189.286 79.7323 189.648 79.3106 189.903C78.8889 190.157 78.407 190.296 77.9144 190.303C76.5434 190.396 75.1698 190.165 73.9049 189.628C72.64 189.092 71.5195 188.264 70.6344 187.213C70.2979 186.85 70.064 186.404 69.9568 185.921C69.8496 185.437 69.8729 184.934 70.0244 184.463L81.1644 158.383C81.3931 157.941 81.7368 157.57 82.1593 157.308C82.5817 157.045 83.0672 156.902 83.5644 156.893Z" fill="#16423C"/>
<path opacity="0.2" d="M83.5644 156.893C84.9348 156.799 86.3081 157.031 87.5717 157.57C88.8353 158.109 89.9534 158.939 90.8344 159.993C91.1727 160.353 91.408 160.797 91.5153 161.279C91.6226 161.761 91.5981 162.264 91.4444 162.733L80.3144 188.853C80.0787 189.286 79.7323 189.648 79.3106 189.903C78.8889 190.157 78.407 190.296 77.9144 190.303C76.5434 190.396 75.1698 190.165 73.9049 189.628C72.64 189.092 71.5195 188.264 70.6344 187.213C70.2979 186.85 70.064 186.404 69.9568 185.921C69.8496 185.437 69.8729 184.934 70.0244 184.463L81.1644 158.383C81.3931 157.941 81.7368 157.57 82.1593 157.308C82.5817 157.045 83.0672 156.902 83.5644 156.893Z" fill="black"/>
<path opacity="0.2" d="M76.0342 170.383L76.8042 170.833L76.9242 170.903L77.0742 170.983L77.2342 171.073C77.7271 171.362 78.2344 171.626 78.7542 171.863C79.3842 172.183 80.0342 172.463 80.6742 172.713C81.2495 172.959 81.8369 173.176 82.4342 173.363C83.1002 173.559 83.7668 173.752 84.4342 173.943C84.7842 174.043 85.1142 174.133 85.4342 174.203C85.6877 174.271 85.9447 174.324 86.2042 174.363L86.4542 174.413L91.4542 162.723C91.6079 162.254 91.6325 161.751 91.5251 161.269C91.4178 160.787 91.1826 160.343 90.8442 159.983C90.5384 159.585 90.1859 159.226 89.7942 158.913C86.6886 159.872 83.4717 160.423 80.2242 160.553L76.0342 170.383Z" fill="black"/>
<path opacity="0.15" d="M75.6534 192.383L39.4434 283.683C40.8542 283.919 42.2907 283.963 43.7134 283.813C46.7134 283.443 48.7134 282.073 49.3534 280.163L83.6734 190.263C83.1334 191.523 81.7634 192.413 79.6734 192.663C78.3272 192.8 76.9674 192.706 75.6534 192.383Z" fill="black"/>
<path d="M188.804 48.7829C188.804 48.0329 188.754 47.2929 188.694 46.5529C188.634 45.8129 188.604 45.0929 188.524 44.3729C188.524 43.8829 188.434 43.3729 188.374 42.9229C188.254 41.6729 188.074 40.4329 187.864 39.2529C187.774 38.7129 187.674 38.1629 187.564 37.6229C187.454 37.0829 187.354 36.6229 187.254 36.1029C186.934 34.7329 186.604 33.4029 186.254 32.1029C186.054 31.4929 185.864 30.8929 185.664 30.2929C185.62 30.2045 185.59 30.1102 185.574 30.0129C185.354 29.4229 185.144 28.8529 184.924 28.2929C184.704 27.7329 184.404 26.9929 184.114 26.3829C183.824 25.7729 183.704 25.4829 183.464 25.0429C183.33 24.6977 183.169 24.3634 182.984 24.0429C182.794 23.6529 182.594 23.2529 182.374 22.8829C182.329 22.7946 182.275 22.7109 182.214 22.6329C182.034 22.3029 181.834 21.9629 181.634 21.6329C181.434 21.3029 181.354 21.2129 181.224 21.0029C180.28 19.5092 179.216 18.0946 178.044 16.7729C177.844 16.5429 177.634 16.3229 177.454 16.1029C177.274 15.8829 177.124 15.7529 176.954 15.5829C176.784 15.4129 176.524 15.1629 176.304 14.9329C175.701 14.3197 175.059 13.7452 174.384 13.2129C174.064 12.9429 173.734 12.6829 173.384 12.4429C173.034 12.2029 172.714 11.9429 172.384 11.7029C171.853 11.3141 171.302 10.9536 170.734 10.6229L170.294 10.3529L170.204 10.2729L159.804 4.25293L159.654 4.16293C154.624 1.36447 148.949 -0.0696541 143.194 0.00292964C134.604 0.00292964 124.914 2.81293 114.654 8.73293C79.3637 29.1029 50.8037 78.6129 50.8037 119.383C50.8037 139.693 57.9037 153.983 69.3937 160.673L69.4937 160.733L79.8037 166.773L79.9237 166.853L80.0737 166.933L80.2337 167.023C80.7266 167.312 81.234 167.576 81.7537 167.813C82.3787 168.129 83.0195 168.413 83.6737 168.663C84.2484 168.911 84.8359 169.128 85.4337 169.313C85.7437 169.423 86.0537 169.513 86.3737 169.593C86.6992 169.715 87.0335 169.812 87.3737 169.883C87.7023 169.987 88.0361 170.074 88.3737 170.143C88.6224 170.219 88.8765 170.275 89.1337 170.313C89.5837 170.403 90.0537 170.503 90.5237 170.553C90.6294 170.573 90.738 170.573 90.8437 170.553C91.3937 170.643 91.9537 170.723 92.4937 170.783C102.014 171.783 113.074 169.093 124.904 162.273C160.184 141.903 188.784 92.3629 188.784 51.6529C188.874 50.7129 188.854 49.7529 188.804 48.7829ZM72.4537 144.883C70.9803 139.436 70.2537 133.815 70.2937 128.173C70.2937 89.5729 98.5337 40.6629 131.954 21.3629C136.834 18.4752 142.1 16.2967 147.594 14.8929C150.212 14.2466 152.897 13.911 155.594 13.8929C156.96 13.8888 158.325 13.9958 159.674 14.2129H159.784C166.624 22.3029 167.634 35.2729 167.634 42.2129C167.634 80.8029 139.424 129.713 105.984 149.003C97.4837 153.913 89.3037 156.503 82.2937 156.503C80.839 156.512 79.3896 156.327 77.9837 155.953C75.4014 152.681 73.5191 148.913 72.4537 144.883Z" fill="#37474F"/>
<path opacity="0.25" d="M179.694 48.9529C179.694 69.4629 171.694 92.8629 159.244 113.213C158.654 114.213 158.054 115.123 157.434 116.073C156.814 117.023 156.384 117.713 155.834 118.523C154.664 120.263 153.474 121.983 152.234 123.663C151.644 124.463 151.054 125.253 150.444 126.033C149.834 126.813 149.124 127.753 148.444 128.603C147.157 130.223 145.824 131.8 144.444 133.333C143.554 134.333 142.644 135.333 141.734 136.333C134.825 143.939 126.824 150.477 117.994 155.733C116.394 156.653 114.814 157.503 113.244 158.253C108.164 160.837 102.659 162.483 96.9939 163.113C96.0739 163.203 95.1739 163.233 94.3039 163.233C93.8439 163.233 93.3939 163.233 92.9539 163.233C92.1025 163.196 91.2542 163.105 90.4139 162.963C90.0039 162.903 89.6039 162.843 89.2139 162.753C88.8239 162.663 88.4339 162.583 88.0439 162.463C84.0929 161.452 80.581 159.176 78.0439 155.983C79.4466 156.356 80.8926 156.541 82.3439 156.533C89.3439 156.533 97.5439 153.943 106.044 149.033C139.484 129.753 167.684 80.8329 167.684 42.2429C167.684 35.3029 166.684 22.3429 159.844 14.2429H159.734C168.444 15.6329 173.404 21.5629 176.194 28.4129C176.986 30.3601 177.625 32.3662 178.104 34.4129C178.104 34.5229 178.104 34.6329 178.174 34.7529C178.264 35.1129 178.354 35.4929 178.424 35.8629C178.494 36.2329 178.564 36.5829 178.634 36.9429C178.657 37.0349 178.674 37.1285 178.684 37.2229C178.764 37.6096 178.834 37.9896 178.894 38.3629C179.104 39.8029 179.284 41.1929 179.404 42.5329C179.404 42.9229 179.474 43.2829 179.494 43.6529C179.514 44.0229 179.544 44.2129 179.554 44.4829C179.554 44.6029 179.554 44.7229 179.554 44.8329C179.554 45.1329 179.554 45.4229 179.604 45.7129C179.609 45.7962 179.609 45.8797 179.604 45.9629C179.604 46.3329 179.604 46.7029 179.604 47.0529C179.684 47.6729 179.694 48.3829 179.694 48.9529Z" fill="black"/>
<path d="M78.9437 166.263L69.3537 160.623C57.8637 153.913 50.8037 139.633 50.8037 119.383C50.8037 101.223 56.5037 81.3229 65.9137 63.0429L76.8037 69.2929C67.3737 87.5729 61.1337 107.293 61.1337 125.433C61.1237 145.293 67.8837 159.383 78.9437 166.263Z" fill="#16423C"/>
<path d="M170.264 10.3829L170.174 10.3029L159.804 4.26292L159.664 4.17293C154.634 1.36405 148.955 -0.0739596 143.194 0.00292925C134.614 0.00292925 124.914 2.81293 114.644 8.73293C95.1043 20.0229 77.6443 40.2729 65.9043 63.0129L76.7443 69.3829L76.5043 69.8329C88.2543 47.3429 105.664 26.9829 124.994 14.8329C142.494 3.83292 159.104 3.65293 170.704 10.7129L170.264 10.3829Z" fill="#455A64"/>
<path opacity="0.3" d="M174.134 45.6828C174.134 84.2728 145.894 133.193 112.474 152.483C107.587 155.38 102.31 157.562 96.8043 158.963C94.1699 159.613 91.4677 159.949 88.7543 159.963C85.9659 159.999 83.1941 159.528 80.5743 158.573C76.4243 155.093 73.9242 150.053 72.4242 144.873C70.9509 139.426 70.2243 133.805 70.2643 128.163C70.2643 89.5628 98.5042 40.6528 131.924 21.3528C136.804 18.4651 142.07 16.2865 147.564 14.8828C150.182 14.2365 152.868 13.9009 155.564 13.8828C158.353 13.8514 161.125 14.3257 163.744 15.2828C167.894 18.7528 170.394 23.8028 171.894 28.9828C173.394 34.4222 174.148 40.0404 174.134 45.6828Z" fill="white"/>
<path d="M42.9443 220.863C44.8343 221.283 48.4443 221.663 48.4443 221.663L51.0343 216.173L45.2243 213.483L42.9443 220.863Z" fill="#FFA8A7"/>
<path d="M28.8037 216.763C33.3664 219.118 38.3544 220.536 43.4737 220.933L46.5937 216.233L30.9137 205.663L28.8037 216.763Z" fill="#16423C"/>
<path opacity="0.3" d="M28.8037 216.763C33.3664 219.118 38.3544 220.536 43.4737 220.933L46.5937 216.233L30.9137 205.663L28.8037 216.763Z" fill="black"/>
<path d="M42.4941 220.853L45.1341 221.243L47.1341 215.243C47.1341 215.243 44.5441 214.003 44.4741 214.043C44.4041 214.083 42.4941 220.853 42.4941 220.853Z" fill="#16423C"/>
<path opacity="0.4" d="M42.4941 220.853L45.1341 221.243L47.1341 215.243C47.1341 215.243 44.5441 214.003 44.4741 214.043C44.4041 214.083 42.4941 220.853 42.4941 220.853Z" fill="black"/>
<path d="M7.504 183.463C6.22268 183.292 4.91979 183.519 3.77157 184.113C2.62335 184.706 1.6852 185.639 1.08401 186.783C0.168998 188.915 -0.175625 191.248 0.0840058 193.553C0.684006 198.843 4.65401 210.393 4.65401 210.393L7.504 183.463Z" fill="#16423C"/>
<path opacity="0.4" d="M7.504 183.463C6.22268 183.292 4.91979 183.519 3.77157 184.113C2.62335 184.706 1.6852 185.639 1.08401 186.783C0.168998 188.915 -0.175625 191.248 0.0840058 193.553C0.684006 198.843 4.65401 210.393 4.65401 210.393L7.504 183.463Z" fill="black"/>
<path d="M1.80401 307.673C1.34401 307.843 1.08402 308.673 0.884015 310.793C0.764015 312.093 0.314019 313.793 2.29402 314.863C3.01899 315.237 3.82448 315.428 4.64023 315.419C5.45598 315.411 6.2572 315.202 6.97401 314.813C8.69401 313.753 9.55401 311.813 11.564 310.203C13.334 308.823 15.564 307.803 16.974 305.283C18.384 302.763 18.174 301.093 15.244 301.093C10.544 301.093 9.13402 303.683 6.71402 303.733C5.40402 303.763 2.29401 307.503 1.80401 307.673Z" fill="#16423C"/>
<path d="M1.80371 306.633V308.753C1.80371 309.753 6.20372 311.323 7.43372 308.963C7.52372 308.763 8.00371 305.863 8.00371 305.863L1.80371 306.633Z" fill="#FFA8A7"/>
<path d="M22.2139 319.973C22.2139 319.973 21.3839 319.973 21.0539 323.383C20.9239 324.683 20.6139 327.383 21.0539 328.313C21.4939 329.243 23.9039 329.703 26.6039 329.943C28.6348 330.266 30.574 331.016 32.2939 332.143C34.0518 333.144 36.0316 333.69 38.0539 333.733C40.6039 333.733 42.7639 333.483 44.5839 332.043C45.5839 331.283 46.7739 329.673 45.8739 328.453C45.4998 328.088 45.027 327.841 44.5139 327.743C43.3839 327.313 42.2339 326.923 41.0839 326.563C39.3549 326.046 37.6669 325.401 36.0339 324.633C33.6539 323.453 31.0339 322.143 29.2039 320.143L22.2139 319.973Z" fill="#16423C"/>
<path d="M22.2236 318.213C22.2236 318.213 22.2236 319.783 22.2236 320.673C22.2236 321.563 23.2236 322.913 26.0036 322.833C27.9336 322.773 29.2736 322.263 29.2036 320.673V318.383L22.2236 318.213Z" fill="#FFA8A7"/>
<path d="M0.614494 278.583C1.10551 274.842 1.95954 271.158 3.1645 267.583C3.1645 267.583 2.4645 258.083 2.1645 249.073C1.88773 239.846 2.14483 230.61 2.9345 221.413C2.9345 221.413 33.5445 218.513 34.0445 229.753C34.5445 240.993 33.8145 269.603 33.4245 274.543C33.0345 279.483 32.6245 284.113 31.5845 293.293C30.6845 301.213 29.2245 318.383 29.2245 318.383C28.1333 318.932 26.9232 319.203 25.7019 319.172C24.4806 319.14 23.286 318.808 22.2245 318.203C22.2245 318.203 19.9245 295.143 19.6545 289.443C19.3145 282.063 21.0345 277.983 21.0345 277.983C21.0345 277.983 20.3845 273.343 19.2445 263.783C18.4445 257.033 17.3745 249.353 17.3745 249.353C17.3745 249.353 16.3745 258.863 15.6945 264.163C15.1045 269.083 14.1045 272.973 12.6245 282.163C11.3445 290.163 7.8545 306.943 7.8545 306.943C6.94528 307.517 5.88095 307.796 4.80701 307.743C3.73307 307.689 2.70192 307.305 1.8545 306.643C1.8545 306.643 -0.385506 285.483 0.614494 278.583Z" fill="#16423C"/>
<path d="M17.3738 249.383L15.9238 239.983C15.9238 239.983 9.92383 238.093 6.92383 234.543C6.92383 234.543 8.53383 238.673 14.0838 240.893L16.3138 248.803L16.6938 255.333L17.3738 249.383Z" fill="black"/>
<path d="M22.3936 180.693L20.9636 190.733L11.9336 190.423L12.8036 178.693L22.3936 180.693Z" fill="#FFA8A7"/>
<path d="M28.8838 168.303C28.8838 168.303 31.3038 171.853 31.0438 172.213C30.4226 172.56 29.7459 172.797 29.0438 172.913L28.8838 168.303Z" fill="#F28F8F"/>
<path d="M25.0941 167.713C25.0762 167.116 25.2368 166.528 25.5554 166.023C25.8739 165.518 26.336 165.119 26.8823 164.878C27.4287 164.637 28.0345 164.565 28.6223 164.67C29.21 164.776 29.7529 165.054 30.1816 165.47C30.6102 165.886 30.905 166.42 31.0282 167.004C31.1514 167.588 31.0975 168.196 30.8733 168.749C30.6492 169.303 30.2649 169.777 29.7698 170.111C29.2747 170.444 28.6912 170.623 28.0941 170.623C27.7059 170.63 27.3202 170.56 26.9591 170.417C26.598 170.274 26.2686 170.061 25.9899 169.791C25.7112 169.521 25.4886 169.198 25.3349 168.841C25.1811 168.485 25.0993 168.101 25.0941 167.713ZM25.7441 167.713C25.7501 168.168 25.8911 168.612 26.1492 168.987C26.4074 169.362 26.771 169.652 27.1941 169.82C27.6171 169.988 28.0806 170.027 28.5258 169.932C28.971 169.836 29.3779 169.611 29.6949 169.284C30.0119 168.957 30.2248 168.544 30.3065 168.096C30.3883 167.648 30.3353 167.186 30.1542 166.768C29.9732 166.35 29.6722 165.996 29.2895 165.749C28.9067 165.503 28.4594 165.375 28.0041 165.383C27.3976 165.394 26.8198 165.643 26.3965 166.078C25.9733 166.512 25.7388 167.097 25.7441 167.703V167.713Z" fill="#16423C"/>
<path d="M22.1538 158.463C26.9538 159.403 28.3738 161.463 28.9438 169.083C29.5438 177.033 28.7738 179.543 27.7438 180.633C27.0538 181.363 23.1338 181.553 21.1438 181.043C18.6638 180.403 13.0438 178.503 10.3538 174.553C7.20377 169.893 6.29377 163.553 9.55377 160.863C14.1338 157.103 20.1938 158.083 22.1538 158.463Z" fill="#FFA8A7"/>
<path d="M22.3242 181.243C24.3842 181.473 27.1742 181.243 27.7442 180.633C25.9838 180.621 24.2409 180.282 22.6042 179.633L22.3242 181.243Z" fill="#F28F8F"/>
<path d="M29.694 160.383L29.544 160.533C28.544 161.463 27.364 162.063 26.3741 162.943C25.2915 163.919 24.5195 165.192 24.154 166.603C23.844 167.763 23.734 169.133 22.484 169.683C22.484 169.683 21.644 166.623 19.064 167.053C16.484 167.483 16.154 170.813 17.834 172.803C19.514 174.793 21.034 174.003 21.034 174.003C21.034 174.003 21.034 178.403 19.114 180.923C17.0395 181.407 14.879 181.387 12.814 180.863C10.304 180.373 6.71404 177.293 5.16404 174.003C1.90404 167.003 1.58404 160.733 6.03404 158.763C6.47404 155.523 9.03404 154.033 11.884 153.323C16.204 152.263 20.304 154.773 24.584 153.743C25.4621 153.472 26.3532 153.245 27.254 153.063C27.3552 153.033 27.4629 153.033 27.564 153.063C27.794 153.173 27.784 153.483 27.724 153.723C27.5038 154.589 27.0824 155.39 26.494 156.063C28.1401 156.132 29.7846 155.894 31.344 155.363C31.4523 156.269 31.3607 157.189 31.0757 158.056C30.7906 158.923 30.319 159.717 29.694 160.383Z" fill="black"/>
<path d="M6.67371 160.383L3.80371 158.683C3.91205 158.493 4.0567 158.327 4.22942 158.193C4.40213 158.059 4.59951 157.96 4.8103 157.903C5.02109 157.845 5.24116 157.83 5.45793 157.857C5.67471 157.885 5.88396 157.955 6.07372 158.063C6.26348 158.171 6.43003 158.316 6.56389 158.489C6.69774 158.661 6.79626 158.859 6.85384 159.07C6.91141 159.28 6.9269 159.5 6.89943 159.717C6.87195 159.934 6.80205 160.143 6.69371 160.333L6.67371 160.383Z" fill="#16423C"/>
<path d="M22.5336 171.383L22.3936 168.063C22.6115 168.054 22.8292 168.088 23.0341 168.163C23.2391 168.238 23.4272 168.352 23.5879 168.5C23.7485 168.647 23.8785 168.825 23.9704 169.023C24.0623 169.221 24.1144 169.435 24.1236 169.653C24.1328 169.871 24.0989 170.089 24.024 170.294C23.9491 170.499 23.8345 170.687 23.6869 170.847C23.5392 171.008 23.3614 171.138 23.1635 171.23C22.9656 171.322 22.7515 171.374 22.5336 171.383Z" fill="#16423C"/>
<path d="M30.7045 167.013L21.8145 168.303L22.1845 168.923L30.7145 167.683L30.7045 167.013Z" fill="#16423C"/>
<path d="M1.9639 188.993C3.0139 184.873 4.50389 183.533 8.09389 183.433C9.94258 183.559 11.7824 183.793 13.6039 184.133C13.9839 185.883 18.4839 187.063 23.0339 186.133C24.3939 186.523 28.0339 187.503 29.1039 187.913C32.3339 189.083 33.8939 192.433 34.1039 203.053C34.1039 203.053 34.7239 228.253 34.1039 232.603C27.3526 235.223 20.0059 235.916 12.8839 234.603C3.1939 232.433 2.04391 228.403 2.04391 228.403C2.04391 228.403 2.5539 218.293 2.8839 210.603C2.3939 205.703 1.66391 202.023 1.40391 198.113C1.16191 195.062 1.35042 191.992 1.9639 188.993Z" fill="#16423C"/>
<g opacity="0.6">
<path d="M1.9639 188.993C3.0139 184.873 4.50389 183.533 8.09389 183.433C9.94258 183.559 11.7824 183.793 13.6039 184.133C13.9839 185.883 18.4839 187.063 23.0339 186.133C24.3939 186.523 28.0339 187.503 29.1039 187.913C32.3339 189.083 33.8939 192.433 34.1039 203.053C34.1039 203.053 34.7239 228.253 34.1039 232.603C27.3526 235.223 20.0059 235.916 12.8839 234.603C3.1939 232.433 2.04391 228.403 2.04391 228.403C2.04391 228.403 2.5539 218.293 2.8839 210.603C2.3939 205.703 1.66391 202.023 1.40391 198.113C1.16191 195.062 1.35042 191.992 1.9639 188.993Z" fill="white"/>
</g>
<path d="M12.5939 181.533L12.5239 182.533C12.5239 182.533 12.9939 183.903 15.7339 184.413C20.3439 185.263 21.9539 183.833 21.9539 183.833L22.0739 183.003C22.0739 183.003 22.5139 182.823 23.2639 183.403C24.4036 184.579 25.469 185.825 26.4539 187.133C26.4539 187.133 25.5739 186.873 22.6939 188.133C19.8175 189.255 16.6468 189.375 13.6939 188.473C12.8716 188.2 12.1356 187.715 11.5599 187.067C10.9842 186.419 10.589 185.632 10.4139 184.783C10.3039 183.873 11.8039 181.183 12.5939 181.533Z" fill="#16423C"/>
<path opacity="0.25" d="M12.5939 181.533L12.5239 182.533C12.5239 182.533 12.9939 183.903 15.7339 184.413C20.3439 185.263 21.9539 183.833 21.9539 183.833L22.0739 183.003C22.0739 183.003 22.5139 182.823 23.2639 183.403C24.4036 184.579 25.469 185.825 26.4539 187.133C26.4539 187.133 25.5739 186.873 22.6939 188.133C19.8175 189.255 16.6468 189.375 13.6939 188.473C12.8716 188.2 12.1356 187.715 11.5599 187.067C10.9842 186.419 10.589 185.632 10.4139 184.783C10.3039 183.873 11.8039 181.183 12.5939 181.533Z" fill="black"/>
<path d="M28.7439 187.703C32.8439 188.213 36.0839 189.073 37.8739 192.983C40.8739 199.603 44.1839 205.043 46.5739 207.603C49.1239 210.333 59.5739 215.133 61.9339 214.753C64.2939 214.373 66.6339 211.663 67.8539 212.363C69.0739 213.063 66.8539 215.693 66.9639 216.283C67.0739 216.873 71.3839 216.563 73.4039 215.133C75.4239 213.703 76.1739 216.653 73.5539 219.713C70.9339 222.773 66.0339 223.013 60.7039 221.943C55.3739 220.873 44.5239 218.333 40.4339 214.943C35.4339 210.853 34.5939 207.493 32.4839 203.833C24.8039 195.993 28.7439 187.703 28.7439 187.703Z" fill="#FFA8A7"/>
<path d="M28.1439 187.593C28.1439 187.593 32.5339 187.593 34.8339 188.993C37.1339 190.393 38.5839 193.403 40.4839 197.543C42.2136 201.026 44.3051 204.318 46.7239 207.363C47.7239 208.603 55.0239 212.663 55.0239 212.663C54.6308 215.267 53.9084 217.811 52.8739 220.233C52.8739 220.233 45.5339 218.393 41.1139 216.023C36.6939 213.653 29.9739 204.163 29.9739 204.163C29.9739 204.163 25.2439 197.883 28.1439 187.593Z" fill="#16423C"/>
<path opacity="0.15" d="M28.1439 187.593C28.1439 187.593 32.5339 187.593 34.8339 188.993C37.1339 190.393 38.5839 193.403 40.4839 197.543C42.2136 201.026 44.3051 204.318 46.7239 207.363C47.7239 208.603 55.0239 212.663 55.0239 212.663C54.6308 215.267 53.9084 217.811 52.8739 220.233C52.8739 220.233 45.5339 218.393 41.1139 216.023C36.6939 213.653 29.9739 204.163 29.9739 204.163C29.9739 204.163 25.2439 197.883 28.1439 187.593Z" fill="black"/>
<path d="M54.5742 212.383C54.4236 215.084 53.639 217.712 52.2842 220.053C53.5787 220.404 54.8904 220.688 56.2142 220.903C56.2142 220.903 58.5142 218.593 58.3842 213.983L54.5742 212.383Z" fill="#16423C"/>
<path opacity="0.3" d="M54.5742 212.383C54.4236 215.084 53.639 217.712 52.2842 220.053C53.5787 220.404 54.8904 220.688 56.2142 220.903C56.2142 220.903 58.5142 218.593 58.3842 213.983L54.5742 212.383Z" fill="black"/>
<path d="M56.804 214.513C56.8015 214.634 56.7522 214.75 56.6665 214.835C56.5807 214.921 56.4652 214.97 56.344 214.973C56.2324 214.956 56.1304 214.9 56.0567 214.815C55.983 214.73 55.9424 214.621 55.9424 214.508C55.9424 214.395 55.983 214.286 56.0567 214.201C56.1304 214.115 56.2324 214.059 56.344 214.043C56.4669 214.046 56.5839 214.096 56.6699 214.184C56.7559 214.272 56.804 214.39 56.804 214.513Z" fill="#455A64"/>
</svg>
