<svg width="25" height="24" viewBox="0 0 25 24" fill="none" xmlns="http://www.w3.org/2000/svg">
<g clip-path="url(#clip0_747_1659)">
<path fill-rule="evenodd" clip-rule="evenodd" d="M2.51127 8.39062H11.8776C12.7775 8.39062 13.5139 9.12698 13.5139 10.0269V13.1722C12.364 14.3614 11.6562 15.9808 11.6562 17.7656C11.6562 19.5326 12.3496 21.1376 13.4791 22.3234C13.3236 23.0643 12.6629 23.625 11.8776 23.625H2.51127C1.61131 23.625 0.875 22.8887 0.875 21.9887V10.0269C0.875 9.12694 1.61131 8.39062 2.51127 8.39062ZM3.05666 10.7393C2.84947 10.7393 2.68048 10.9082 2.68048 11.1154V12.5918C2.68048 12.799 2.84947 12.968 3.05666 12.968H11.3322C11.5393 12.968 11.7083 12.799 11.7083 12.5918V11.1154C11.7083 10.9082 11.5393 10.7393 11.3322 10.7393H3.05666ZM3.40227 14.7594C3.19508 14.7594 3.02609 14.9284 3.02609 15.1356V15.6246C3.02609 15.8318 3.19508 16.0008 3.40227 16.0008H4.80819C5.01537 16.0008 5.18431 15.8318 5.18431 15.6246V15.1356C5.18431 14.9284 5.01533 14.7594 4.80819 14.7594H3.40227ZM9.58067 20.035C9.37348 20.035 9.2045 20.204 9.2045 20.4112V20.9002C9.2045 21.1074 9.37348 21.2764 9.58067 21.2764H10.9866C11.1938 21.2764 11.3628 21.1074 11.3628 20.9002V20.4112C11.3628 20.204 11.1938 20.035 10.9866 20.035H9.58067ZM6.49147 20.035C6.28428 20.035 6.11534 20.204 6.11534 20.4112V20.9002C6.11534 21.1074 6.28428 21.2764 6.49147 21.2764H7.89739C8.10458 21.2764 8.27356 21.1074 8.27356 20.9002V20.4112C8.27356 20.204 8.10458 20.035 7.89739 20.035H6.49147ZM3.40227 20.035C3.19508 20.035 3.02609 20.204 3.02609 20.4112V20.9002C3.02609 21.1074 3.19508 21.2764 3.40227 21.2764H4.80819C5.01537 21.2764 5.18431 21.1074 5.18431 20.9002V20.4112C5.18431 20.204 5.01533 20.035 4.80819 20.035H3.40227ZM9.58067 17.3972C9.37348 17.3972 9.2045 17.5662 9.2045 17.7734V18.2625C9.2045 18.4696 9.37348 18.6386 9.58067 18.6386H10.9866C11.1938 18.6386 11.3628 18.4696 11.3628 18.2625V17.7734C11.3628 17.5662 11.1938 17.3972 10.9866 17.3972H9.58067ZM6.49147 17.3972C6.28428 17.3972 6.11534 17.5662 6.11534 17.7734V18.2625C6.11534 18.4696 6.28428 18.6386 6.49147 18.6386H7.89739C8.10458 18.6386 8.27356 18.4696 8.27356 18.2625V17.7734C8.27356 17.5662 8.10458 17.3972 7.89739 17.3972H6.49147ZM3.40227 17.3972C3.19508 17.3972 3.02609 17.5662 3.02609 17.7734V18.2625C3.02609 18.4696 3.19508 18.6386 3.40227 18.6386H4.80819C5.01537 18.6386 5.18431 18.4696 5.18431 18.2625V17.7734C5.18431 17.5662 5.01533 17.3972 4.80819 17.3972H3.40227ZM9.58067 14.7594C9.37348 14.7594 9.2045 14.9284 9.2045 15.1356V15.6246C9.2045 15.8318 9.37348 16.0008 9.58067 16.0008H10.9866C11.1938 16.0008 11.3628 15.8318 11.3628 15.6246V15.1356C11.3628 14.9284 11.1938 14.7594 10.9866 14.7594H9.58067ZM6.49147 14.7594C6.28428 14.7594 6.11534 14.9284 6.11534 15.1356V15.6246C6.11534 15.8318 6.28428 16.0008 6.49147 16.0008H7.89739C8.10458 16.0008 8.27356 15.8318 8.27356 15.6246V15.1356C8.27356 14.9284 8.10458 14.7594 7.89739 14.7594H6.49147ZM6.93889 0.375C6.70855 0.375 6.52072 0.562828 6.52072 0.793172V2.13408H17.2484C17.5624 2.13408 17.8523 2.25417 18.0744 2.47622L20.4222 4.824C20.6442 5.04605 20.7643 5.33597 20.7643 5.64998V11.6454C21.4076 11.9085 22.0002 12.2697 22.5234 12.7109V3.7177H20.1397C19.6106 3.7177 19.1806 3.28777 19.1806 2.75864V0.375H6.93889ZM17.4216 2.92031C17.466 2.94061 17.5069 2.96934 17.5441 3.00652L19.8919 5.3543C19.929 5.39147 19.9578 5.43234 19.9781 5.47678H17.6307C17.5155 5.47678 17.4216 5.38284 17.4216 5.26772V2.92031ZM4.42986 2.88408C4.19952 2.88408 4.01169 3.07191 4.01169 3.30225V7.64062H11.8776C12.8104 7.64062 13.6225 8.18316 14.0143 8.96813H16.7487C16.9334 8.96813 17.0833 9.11789 17.0833 9.30267C17.0833 9.48745 16.9335 9.63722 16.7487 9.63722H14.2316C14.2527 9.76411 14.2638 9.89428 14.2638 10.0269V11.7594H15.5043C16.3445 11.3723 17.2798 11.1562 18.2656 11.1562C18.871 11.1562 19.4574 11.238 20.0143 11.3906V6.22678H17.6307C17.1015 6.22678 16.6716 5.79684 16.6716 5.26772V2.88408H4.42986ZM15.2055 23.625H13.6104C13.8118 23.4118 13.9747 23.1619 14.0874 22.8867C14.4328 23.1687 14.8072 23.4165 15.2055 23.625ZM14.2639 12.5055V12.4284H14.3672C14.3325 12.4538 14.298 12.4795 14.2639 12.5055ZM7.27733 6.84595C7.09259 6.84595 6.94278 6.69614 6.94278 6.51141C6.94278 6.32667 7.09255 6.17691 7.27733 6.17691H14.0764C14.2611 6.17691 14.4109 6.32667 14.4109 6.51141C14.4109 6.69614 14.2611 6.84595 14.0764 6.84595H7.27733ZM19.9307 0.411234C19.9751 0.431531 20.0159 0.460266 20.0532 0.497438L22.4009 2.84522C22.4381 2.88239 22.4669 2.92327 22.4871 2.9677H20.1397C20.0246 2.9677 19.9307 2.87377 19.9307 2.75864V0.411234ZM18.2656 11.9062C15.0296 11.9062 12.4062 14.5296 12.4062 17.7656C12.4062 21.0017 15.0295 23.625 18.2656 23.625C21.5016 23.625 24.125 21.0017 24.125 17.7656C24.125 14.5296 21.5016 11.9062 18.2656 11.9062ZM18.2656 12.9164C16.9265 12.9164 15.7142 13.4592 14.8367 14.3367C13.9591 15.2143 13.4164 16.4266 13.4164 17.7656C13.4164 19.1047 13.9591 20.317 14.8367 21.1945C15.7142 22.0721 16.9265 22.6148 18.2656 22.6148C19.6046 22.6148 20.8169 22.0721 21.6945 21.1945C22.572 20.317 23.1148 19.1047 23.1148 17.7656C23.1148 16.4266 22.572 15.2143 21.6945 14.3367C20.8169 13.4592 19.6046 12.9164 18.2656 12.9164ZM21.1642 14.867C21.906 15.6088 22.3648 16.6336 22.3648 17.7656C22.3648 18.8976 21.906 19.9225 21.1642 20.6642C20.4224 21.406 19.3976 21.8648 18.2656 21.8648C17.1335 21.8648 16.1087 21.406 15.367 20.6642C14.6252 19.9224 14.1664 18.8976 14.1664 17.7656C14.1664 16.6336 14.6252 15.6088 15.367 14.867C16.1087 14.1252 17.1335 13.6664 18.2656 13.6664C19.3976 13.6664 20.4224 14.1252 21.1642 14.867ZM19.9288 16.2614C20.0089 16.4523 19.919 16.672 19.7281 16.7521C19.5372 16.8322 19.3175 16.7424 19.2374 16.5515C19.1034 16.2322 18.8488 16.0479 18.5692 15.9771C18.3931 15.9324 18.2088 15.9297 18.0371 15.9643C17.8699 15.998 17.7157 16.0663 17.5948 16.1646C17.4404 16.2901 17.3424 16.4712 17.3533 16.6957C17.3634 16.9032 17.471 17.0451 17.6212 17.1431C17.8148 17.2695 18.0791 17.3392 18.33 17.3804C18.6777 17.4375 19.057 17.5326 19.3732 17.7235C19.7331 17.9408 20.0045 18.2673 20.0654 18.7691C20.0702 18.8085 20.0732 18.8546 20.0744 18.907C20.0854 19.3648 19.8764 19.706 19.5625 19.9443C19.301 20.1427 18.9678 20.262 18.6409 20.3117V20.5969C18.6409 20.804 18.473 20.9719 18.2659 20.9719C18.0588 20.9719 17.8909 20.804 17.8909 20.5969V20.3046C17.6217 20.2572 17.3648 20.1598 17.1436 20.0125C16.82 19.797 16.5721 19.479 16.4672 19.0585C16.4179 18.8579 16.5405 18.6553 16.7412 18.6059C16.9418 18.5565 17.1444 18.6792 17.1938 18.8798C17.2494 19.1028 17.3825 19.2725 17.5566 19.3885C17.7687 19.5298 18.0403 19.5971 18.3155 19.5906C18.3623 19.5894 18.4176 19.5851 18.4808 19.5774C18.7133 19.5492 18.9457 19.4752 19.1112 19.3496C19.2436 19.2492 19.3317 19.1088 19.3273 18.9246C19.327 18.9102 19.325 18.8878 19.3212 18.857C19.2931 18.6254 19.1615 18.4708 18.9864 18.3651C18.7676 18.233 18.4796 18.163 18.2098 18.1187C17.8742 18.0636 17.5102 17.9635 17.2139 17.77C16.874 17.5482 16.6299 17.22 16.6062 16.7309C16.5825 16.244 16.7922 15.8535 17.123 15.5845C17.3384 15.4094 17.6058 15.2893 17.8906 15.2319L17.8908 15.2318V14.9344C17.8908 14.7273 18.0587 14.5594 18.2658 14.5594C18.4729 14.5594 18.6408 14.7273 18.6408 14.9344V15.2262C18.6777 15.2332 18.7144 15.2413 18.7508 15.2505C19.2442 15.3756 19.6931 15.7 19.9288 16.2614Z" fill="#16423C"/>
</g>
<defs>
<clipPath id="clip0_747_1659">
<rect width="24" height="24" fill="white" transform="translate(0.5)"/>
</clipPath>
</defs>
</svg>
