<svg width="25" height="24" viewBox="0 0 25 24" fill="none" xmlns="http://www.w3.org/2000/svg">
<path d="M12.3701 15.9999C11.8201 15.9999 11.3495 15.8042 10.9581 15.4129C10.5668 15.0215 10.3708 14.5505 10.3701 13.9999C10.3695 13.4492 10.5655 12.9785 10.9581 12.5879C11.3508 12.1972 11.8215 12.0012 12.3701 11.9999C12.9188 11.9985 13.3898 12.1945 13.7831 12.5879C14.1765 12.9812 14.3721 13.4519 14.3701 13.9999C14.3681 14.5479 14.1725 15.0189 13.7831 15.4129C13.3938 15.8069 12.9228 16.0025 12.3701 15.9999ZM7.74512 6.99988H16.9951L18.9951 2.99988H5.74512L7.74512 6.99988ZM8.77012 20.9999H15.9701C17.4701 20.9999 18.7451 20.4792 19.7951 19.4379C20.8451 18.3965 21.3701 17.1172 21.3701 15.5999C21.3701 14.9665 21.2618 14.3499 21.0451 13.7499C20.8284 13.1499 20.5201 12.6082 20.1201 12.1249L17.5201 8.99988H7.22012L4.62012 12.1249C4.22012 12.6082 3.91178 13.1499 3.69512 13.7499C3.47845 14.3499 3.37012 14.9665 3.37012 15.5999C3.37012 17.1165 3.89112 18.3959 4.93312 19.4379C5.97512 20.4799 7.25412 21.0005 8.77012 20.9999Z" fill="#2E5077"/>
</svg>
