<svg width="70" height="70" viewBox="0 0 70 70" fill="none" xmlns="http://www.w3.org/2000/svg">
<path d="M52.5002 43.7499H17.5002L5.8335 55.4166V8.74992C5.8335 7.97637 6.14079 7.2345 6.68777 6.68752C7.23475 6.14054 7.97661 5.83325 8.75016 5.83325H52.5002C53.2737 5.83325 54.0156 6.14054 54.5626 6.68752C55.1095 7.2345 55.4168 7.97637 55.4168 8.74992V40.8333C55.4168 41.6068 55.1095 42.3487 54.5626 42.8956C54.0156 43.4426 53.2737 43.7499 52.5002 43.7499ZM67.0835 26.2499V67.0833L55.4168 55.4166H23.3335C22.5599 55.4166 21.8181 55.1093 21.2711 54.5623C20.7241 54.0153 20.4168 53.2735 20.4168 52.4999V49.5833H61.2502V23.3333H64.1668C64.9404 23.3333 65.6822 23.6405 66.2292 24.1875C66.7762 24.7345 67.0835 25.4764 67.0835 26.2499ZM23.8877 11.6666C21.3502 11.6666 19.3085 12.2499 17.7335 13.3874C16.2168 14.5833 15.4585 16.2458 15.4877 18.5499L15.5168 18.6374H21.146C21.1752 17.7624 21.4377 17.0916 21.9627 16.6249C22.5028 16.177 23.1862 15.9389 23.8877 15.9541C24.7918 15.9541 25.5502 16.2458 26.0752 16.7708C26.6002 17.3249 26.8335 18.0833 26.8335 18.9583C26.8335 19.8916 26.6293 20.6791 26.1627 21.3499C25.7543 22.0208 25.1418 22.6041 24.3835 23.0708C22.896 24.0624 21.8752 24.9374 21.321 25.7249C20.7377 26.4833 20.4168 27.7083 20.4168 29.1666H26.2502C26.2502 28.2624 26.3668 27.5333 26.6293 27.0083C26.8918 26.4833 27.3877 25.9583 28.1168 25.4916C29.4293 24.7916 30.5085 23.9458 31.3543 22.7791C32.2002 21.6124 32.6377 20.4166 32.6377 18.9583C32.6377 16.7416 31.8502 14.9624 30.2752 13.6499C28.7293 12.3374 26.6002 11.6666 23.8877 11.6666ZM20.4168 32.0833V37.9166H26.2502V32.0833H20.4168ZM37.9168 37.9166H43.7502V32.0833H37.9168V37.9166ZM37.9168 11.6666V29.1666H43.7502V11.6666H37.9168Z" fill="#79D7BE"/>
</svg>
