<svg width="25" height="24" viewBox="0 0 25 24" fill="none" xmlns="http://www.w3.org/2000/svg">
<path d="M21.7129 19V20H3.71291V19L5.71291 17V11C5.71291 7.9 7.74291 5.17 10.7129 4.29V4C10.7129 3.46957 10.9236 2.96086 11.2987 2.58579C11.6738 2.21071 12.1825 2 12.7129 2C13.2433 2 13.7521 2.21071 14.1271 2.58579C14.5022 2.96086 14.7129 3.46957 14.7129 4V4.29C17.6829 5.17 19.7129 7.9 19.7129 11V17L21.7129 19ZM14.7129 21C14.7129 21.5304 14.5022 22.0391 14.1271 22.4142C13.7521 22.7893 13.2433 23 12.7129 23C12.1825 23 11.6738 22.7893 11.2987 22.4142C10.9236 22.0391 10.7129 21.5304 10.7129 21M20.4629 3.19L19.0429 4.61C19.8888 5.44535 20.5603 6.44034 21.0187 7.53726C21.477 8.63417 21.713 9.81118 21.7129 11H23.7129C23.7129 8.07 22.5529 5.25 20.4629 3.19ZM1.71291 11H3.71291C3.71291 8.6 4.67291 6.3 6.38291 4.61L4.96291 3.19C3.93079 4.21157 3.11198 5.42807 2.55405 6.76881C1.99612 8.10955 1.71021 9.54781 1.71291 11Z" fill="white"/>
</svg>
