<svg width="30" height="31" viewBox="0 0 30 31" fill="none" xmlns="http://www.w3.org/2000/svg">
<path d="M12.5 9.51422H17.5V22.0142H15V12.0142H12.5V9.51422ZM15 3.26422C16.6415 3.26422 18.267 3.58754 19.7835 4.21573C21.3001 4.84391 22.6781 5.76465 23.8388 6.92539C24.9996 8.08612 25.9203 9.46411 26.5485 10.9807C27.1767 12.4972 27.5 14.1227 27.5 15.7642C27.5 19.0794 26.183 22.2589 23.8388 24.6031C21.4946 26.9473 18.3152 28.2642 15 28.2642C13.3585 28.2642 11.733 27.9409 10.2165 27.3127C8.69989 26.6845 7.3219 25.7638 6.16116 24.6031C3.81696 22.2589 2.5 19.0794 2.5 15.7642C2.5 12.449 3.81696 9.26959 6.16116 6.92539C8.50537 4.58118 11.6848 3.26422 15 3.26422ZM15 5.76422C12.3478 5.76422 9.8043 6.81779 7.92893 8.69315C6.05357 10.5685 5 13.1121 5 15.7642C5 18.4164 6.05357 20.9599 7.92893 22.8353C9.8043 24.7107 12.3478 25.7642 15 25.7642C17.6522 25.7642 20.1957 24.7107 22.0711 22.8353C23.9464 20.9599 25 18.4164 25 15.7642C25 13.1121 23.9464 10.5685 22.0711 8.69315C20.1957 6.81779 17.6522 5.76422 15 5.76422Z" fill="black"/>
</svg>
