<svg width="25" height="24" viewBox="0 0 25 24" fill="none" xmlns="http://www.w3.org/2000/svg">
<path d="M12.3701 15.9998C11.8201 15.9998 11.3495 15.8041 10.9581 15.4128C10.5668 15.0214 10.3708 14.5504 10.3701 13.9998C10.3695 13.4491 10.5655 12.9784 10.9581 12.5878C11.3508 12.1971 11.8215 12.0011 12.3701 11.9998C12.9188 11.9984 13.3898 12.1944 13.7831 12.5878C14.1765 12.9811 14.3721 13.4518 14.3701 13.9998C14.3681 14.5478 14.1725 15.0188 13.7831 15.4128C13.3938 15.8068 12.9228 16.0024 12.3701 15.9998ZM7.74512 6.99976H16.9951L18.9951 2.99976H5.74512L7.74512 6.99976ZM8.77012 20.9998H15.9701C17.4701 20.9998 18.7451 20.4791 19.7951 19.4378C20.8451 18.3964 21.3701 17.1171 21.3701 15.5998C21.3701 14.9664 21.2618 14.3498 21.0451 13.7498C20.8284 13.1498 20.5201 12.6081 20.1201 12.1248L17.5201 8.99976H7.22012L4.62012 12.1248C4.22012 12.6081 3.91178 13.1498 3.69512 13.7498C3.47845 14.3498 3.37012 14.9664 3.37012 15.5998C3.37012 17.1164 3.89112 18.3958 4.93312 19.4378C5.97512 20.4798 7.25412 21.0004 8.77012 20.9998Z" fill="#79D7BE"/>
</svg>
