<svg width="12" height="18" viewBox="0 0 12 18" fill="none" xmlns="http://www.w3.org/2000/svg">
<path d="M5.99997 2.4375C6.24674 2.44035 6.48243 2.54037 6.65592 2.71587C6.82942 2.89138 6.92672 3.1282 6.92672 3.37499C6.92673 3.62177 6.82943 3.8586 6.65594 4.03411C6.48246 4.20962 6.24677 4.30965 6 4.3125C5.75324 4.30965 5.51754 4.20963 5.34405 4.03413C5.17055 3.85863 5.07325 3.6218 5.07325 3.37501C5.07325 3.12823 5.17054 2.8914 5.34403 2.71589C5.51752 2.54038 5.75321 2.44035 5.99997 2.4375ZM11.625 3.85V16.8125C11.6243 17.0609 11.5253 17.299 11.3496 17.4746C11.174 17.6503 10.9359 17.7493 10.6875 17.75H1.3125C1.06408 17.7493 0.82605 17.6503 0.650392 17.4746C0.474734 17.299 0.375728 17.0609 0.375 16.8125V3.85C0.374808 3.63342 0.449931 3.42352 0.5875 3.25625L2.78125 0.590625C2.86975 0.484186 2.98056 0.398503 3.10585 0.33964C3.23113 0.280778 3.36783 0.250176 3.50625 0.25H8.49375C8.63217 0.250176 8.76887 0.280778 8.89415 0.33964C9.01944 0.398503 9.13025 0.484186 9.21875 0.590625L11.4125 3.25625C11.5501 3.42352 11.6252 3.63342 11.625 3.85ZM5.99997 4.9375C8.06472 4.87344 8.0652 1.87688 6 1.8125C3.93528 1.87656 3.9348 4.87313 5.99997 4.9375ZM10.0625 6.8125C10.0623 6.7297 10.0293 6.65035 9.9707 6.5918C9.91215 6.53325 9.8328 6.50025 9.75 6.5H2.25C2.1672 6.50025 2.08785 6.53325 2.0293 6.5918C1.97075 6.65035 1.93775 6.7297 1.9375 6.8125V15.875C1.93775 15.9578 1.97075 16.0371 2.0293 16.0957C2.08785 16.1543 2.1672 16.1873 2.25 16.1875H9.75C9.8328 16.1873 9.91215 16.1543 9.9707 16.0957C10.0293 16.0371 10.0623 15.9578 10.0625 15.875V6.8125ZM2.5625 7.125H9.4375V15.5625H2.5625V7.125ZM3.8125 9.39062H8.1875C8.27038 9.39062 8.34987 9.3577 8.40847 9.2991C8.46708 9.24049 8.5 9.16101 8.5 9.07812C8.5 8.99524 8.46708 8.91576 8.40847 8.85715C8.34987 8.79855 8.27038 8.76562 8.1875 8.76562H3.8125C3.73046 8.7669 3.65221 8.80038 3.59464 8.85885C3.53707 8.91731 3.5048 8.99607 3.5048 9.07812C3.5048 9.16018 3.53707 9.23894 3.59464 9.2974C3.65221 9.35587 3.73046 9.38935 3.8125 9.39062ZM3.8125 11.6562H8.1875C8.27038 11.6562 8.34987 11.6233 8.40847 11.5647C8.46708 11.5061 8.5 11.4266 8.5 11.3438C8.5 11.2609 8.46708 11.1814 8.40847 11.1228C8.34987 11.0642 8.27038 11.0312 8.1875 11.0312H3.8125C3.73046 11.0325 3.65221 11.066 3.59464 11.1245C3.53707 11.1829 3.5048 11.2617 3.5048 11.3438C3.5048 11.4258 3.53707 11.5046 3.59464 11.563C3.65221 11.6215 3.73046 11.655 3.8125 11.6562ZM3.8125 13.9219H8.1875C8.27038 13.9219 8.34987 13.889 8.40847 13.8303C8.46708 13.7717 8.5 13.6923 8.5 13.6094C8.5 13.5265 8.46708 13.447 8.40847 13.3884C8.34987 13.3298 8.27038 13.2969 8.1875 13.2969H3.8125C3.73046 13.2981 3.65221 13.3316 3.59464 13.3901C3.53707 13.4486 3.5048 13.5273 3.5048 13.6094C3.5048 13.6914 3.53707 13.7702 3.59464 13.8287C3.65221 13.8871 3.73046 13.9206 3.8125 13.9219Z" fill="#FFEB00"/>
</svg>
