<svg width="20" height="20" viewBox="0 0 20 20" fill="none" xmlns="http://www.w3.org/2000/svg">
<path d="M9.99997 3.4375C10.2467 3.44035 10.4824 3.54037 10.6559 3.71587C10.8294 3.89138 10.9267 4.1282 10.9267 4.37499C10.9267 4.62177 10.8294 4.8586 10.6559 5.03411C10.4825 5.20962 10.2468 5.30965 10 5.3125C9.75324 5.30965 9.51754 5.20963 9.34405 5.03413C9.17055 4.85863 9.07325 4.6218 9.07325 4.37501C9.07325 4.12823 9.17054 3.8914 9.34403 3.71589C9.51752 3.54038 9.75321 3.44035 9.99997 3.4375ZM15.625 4.85V17.8125C15.6243 18.0609 15.5253 18.299 15.3496 18.4746C15.174 18.6503 14.9359 18.7493 14.6875 18.75H5.3125C5.06408 18.7493 4.82605 18.6503 4.65039 18.4746C4.47473 18.299 4.37573 18.0609 4.375 17.8125V4.85C4.37481 4.63342 4.44993 4.42352 4.5875 4.25625L6.78125 1.59063C6.86975 1.48419 6.98056 1.3985 7.10585 1.33964C7.23113 1.28078 7.36783 1.25018 7.50625 1.25H12.4938C12.6322 1.25018 12.7689 1.28078 12.8942 1.33964C13.0194 1.3985 13.1303 1.48419 13.2188 1.59063L15.4125 4.25625C15.5501 4.42352 15.6252 4.63342 15.625 4.85ZM9.99997 5.9375C12.0647 5.87344 12.0652 2.87688 10 2.8125C7.93528 2.87656 7.9348 5.87313 9.99997 5.9375ZM14.0625 7.8125C14.0623 7.7297 14.0293 7.65035 13.9707 7.5918C13.9121 7.53325 13.8328 7.50025 13.75 7.5H6.25C6.1672 7.50025 6.08785 7.53325 6.0293 7.5918C5.97075 7.65035 5.93775 7.7297 5.9375 7.8125V16.875C5.93775 16.9578 5.97075 17.0371 6.0293 17.0957C6.08785 17.1543 6.1672 17.1873 6.25 17.1875H13.75C13.8328 17.1873 13.9121 17.1543 13.9707 17.0957C14.0293 17.0371 14.0623 16.9578 14.0625 16.875V7.8125ZM6.5625 8.125H13.4375V16.5625H6.5625V8.125ZM7.8125 10.3906H12.1875C12.2704 10.3906 12.3499 10.3577 12.4085 10.2991C12.4671 10.2405 12.5 10.161 12.5 10.0781C12.5 9.99524 12.4671 9.91576 12.4085 9.85715C12.3499 9.79855 12.2704 9.76562 12.1875 9.76562H7.8125C7.73046 9.7669 7.65221 9.80038 7.59464 9.85885C7.53707 9.91731 7.5048 9.99607 7.5048 10.0781C7.5048 10.1602 7.53707 10.2389 7.59464 10.2974C7.65221 10.3559 7.73046 10.3894 7.8125 10.3906ZM7.8125 12.6562H12.1875C12.2704 12.6562 12.3499 12.6233 12.4085 12.5647C12.4671 12.5061 12.5 12.4266 12.5 12.3438C12.5 12.2609 12.4671 12.1814 12.4085 12.1228C12.3499 12.0642 12.2704 12.0312 12.1875 12.0312H7.8125C7.73046 12.0325 7.65221 12.066 7.59464 12.1245C7.53707 12.1829 7.5048 12.2617 7.5048 12.3438C7.5048 12.4258 7.53707 12.5046 7.59464 12.563C7.65221 12.6215 7.73046 12.655 7.8125 12.6562ZM7.8125 14.9219H12.1875C12.2704 14.9219 12.3499 14.889 12.4085 14.8303C12.4671 14.7717 12.5 14.6923 12.5 14.6094C12.5 14.5265 12.4671 14.447 12.4085 14.3884C12.3499 14.3298 12.2704 14.2969 12.1875 14.2969H7.8125C7.73046 14.2981 7.65221 14.3316 7.59464 14.3901C7.53707 14.4486 7.5048 14.5273 7.5048 14.6094C7.5048 14.6914 7.53707 14.7702 7.59464 14.8287C7.65221 14.8871 7.73046 14.9206 7.8125 14.9219Z" fill="#16423C"/>
</svg>
