<svg width="40" height="41" viewBox="0 0 40 41" fill="none" xmlns="http://www.w3.org/2000/svg">
<path d="M34.0925 6.67171L38.2825 7.50921C38.5075 7.55421 38.6925 7.71921 38.7575 7.94171C38.7903 8.0498 38.7933 8.16476 38.766 8.27437C38.7387 8.38398 38.6822 8.48414 38.6025 8.56421L35.17 11.9992C34.7587 12.4082 34.2025 12.6382 33.6225 12.6392H30.775L23.625 19.7917C23.7614 20.3068 23.7865 20.845 23.6986 21.3705C23.6107 21.896 23.4118 22.3967 23.1152 22.8394C22.8186 23.282 22.431 23.6563 21.9784 23.9374C21.5258 24.2185 21.0185 24.3999 20.4902 24.4696C19.962 24.5393 19.425 24.4955 18.9149 24.3414C18.4049 24.1872 17.9336 23.9261 17.5324 23.5755C17.1312 23.2249 16.8093 22.7929 16.5882 22.3081C16.3671 21.8233 16.2518 21.297 16.25 20.7642C16.2499 20.1888 16.3822 19.621 16.6367 19.1049C16.8912 18.5888 17.261 18.1382 17.7176 17.788C18.1742 17.4377 18.7053 17.1973 19.2697 17.0852C19.8341 16.9732 20.4167 16.9925 20.9725 17.1417L28.125 9.98671V7.14421C28.125 6.56421 28.355 6.00671 28.765 5.59671L32.2 2.16171C32.2801 2.08204 32.3802 2.02555 32.4898 1.99825C32.5995 1.97096 32.7144 1.97388 32.8225 2.00671C33.045 2.07171 33.21 2.25671 33.255 2.48171L34.0925 6.67171Z" fill="#2E5077"/>
<path d="M5.00023 20.7642C5.0028 22.9091 5.46534 25.0285 6.35665 26.9795C7.24796 28.9304 8.54731 30.6675 10.167 32.0736C11.7868 33.4797 13.6892 34.522 15.7461 35.1303C17.8029 35.7387 19.9663 35.8988 22.0903 35.5999C24.2142 35.3011 26.2494 34.5502 28.0585 33.3979C29.8676 32.2456 31.4086 30.7187 32.5774 28.9203C33.7462 27.1218 34.5158 25.0936 34.8341 22.9724C35.1524 20.8513 35.0122 18.6865 34.4227 16.6242C34.34 16.3833 34.3071 16.128 34.3262 15.874C34.3452 15.6199 34.4158 15.3724 34.5335 15.1465C34.6513 14.9206 34.8138 14.721 35.0111 14.5599C35.2085 14.3988 35.4366 14.2795 35.6815 14.2094C35.9264 14.1393 36.183 14.1197 36.4357 14.1519C36.6884 14.1841 36.9319 14.2674 37.1514 14.3967C37.3709 14.526 37.5618 14.6987 37.7125 14.9041C37.8631 15.1095 37.9704 15.3435 38.0277 15.5917C39.169 19.5855 38.9522 23.8452 37.4114 27.7025C35.8705 31.5599 33.0927 34.7965 29.5138 36.9047C25.9349 39.0129 21.7573 39.8734 17.6366 39.3512C13.5159 38.829 9.68508 36.9536 6.74523 34.0192C3.80858 31.0801 1.93117 27.2489 1.40774 23.1272C0.884309 19.0056 1.74451 14.8267 3.85329 11.2469C5.96206 7.66704 9.19999 4.88887 13.0587 3.34856C16.9174 1.80826 21.1784 1.59304 25.1727 2.73671C25.6483 2.87574 26.0496 3.19738 26.2887 3.63134C26.5279 4.0653 26.5856 4.57629 26.4492 5.05265C26.3127 5.52901 25.9933 5.93199 25.5606 6.17353C25.128 6.41508 24.6173 6.47554 24.1402 6.34171C21.9067 5.70033 19.5546 5.58668 17.2696 6.00971C14.9846 6.43275 12.8291 7.3809 10.9732 8.77938C9.11729 10.1779 7.61168 11.9884 6.57512 14.0683C5.53857 16.1481 4.99943 18.4404 5.00023 20.7642Z" fill="#2E5077"/>
<path d="M12.5002 20.7642C12.5004 22.1307 12.8736 23.4712 13.5796 24.6412C14.2857 25.8111 15.2977 26.7661 16.5066 27.4031C17.7156 28.0401 19.0755 28.3349 20.4396 28.2558C21.8038 28.1767 23.1205 27.7267 24.2477 26.9542C25.3747 26.1798 26.2685 25.1121 26.8325 23.8664C27.3966 22.6207 27.6093 21.2446 27.4477 19.8867C27.404 19.5572 27.4489 19.2221 27.5778 18.9157C27.7067 18.6093 27.915 18.3428 28.1811 18.1437C28.4472 17.9446 28.7616 17.8199 29.0919 17.7827C29.4222 17.7454 29.7564 17.7969 30.0602 17.9317C30.3639 18.0649 30.6269 18.2761 30.8224 18.544C31.0178 18.8119 31.1387 19.1269 31.1727 19.4567C31.4444 21.777 30.987 24.1243 29.864 26.1728C28.741 28.2212 27.0082 29.8693 24.9061 30.8883C22.8039 31.9073 20.4367 32.2466 18.133 31.8591C15.8292 31.4716 13.7033 30.3765 12.0501 28.7259C10.397 27.0753 9.29872 24.951 8.90773 22.6478C8.51673 20.3447 8.85241 17.9769 9.86818 15.8732C10.884 13.7695 12.5294 12.0342 14.5762 10.9082C16.623 9.78209 18.9696 9.32113 21.2902 9.58925C21.5387 9.6123 21.7801 9.68473 22.0002 9.80228C22.2204 9.91984 22.4148 10.0802 22.5722 10.2738C22.7296 10.4675 22.8467 10.6907 22.9167 10.9302C22.9867 11.1697 23.0082 11.4208 22.9799 11.6688C22.9516 11.9167 22.8741 12.1565 22.7519 12.3741C22.6298 12.5917 22.4654 12.7828 22.2684 12.936C22.0715 13.0893 21.8459 13.2017 21.605 13.2666C21.364 13.3316 21.1125 13.3478 20.8652 13.3142C19.8144 13.1922 18.7496 13.2939 17.7408 13.6126C16.732 13.9313 15.8021 14.4598 15.0121 15.1634C14.2221 15.867 13.5898 16.7298 13.1569 17.6951C12.724 18.6604 12.5002 19.7063 12.5002 20.7642Z" fill="#2E5077"/>
</svg>
