<svg width="51" height="51" viewBox="0 0 51 51" fill="none" xmlns="http://www.w3.org/2000/svg">
<path d="M42.2309 13.9758L25.8847 6.70652C25.7644 6.64994 25.633 6.62061 25.5001 6.62061C25.3671 6.62061 25.2358 6.64994 25.1155 6.70652L8.76931 13.9758C8.60028 14.0495 8.45603 14.1703 8.35374 14.3237C8.25145 14.4771 8.19544 14.6568 8.19238 14.8411V19.995C8.19238 29.4565 13.8462 40.9181 25.1539 44.8796C25.3784 44.9558 25.6218 44.9558 25.8462 44.8796C37.1539 40.9181 42.8078 29.4565 42.8078 19.995V14.8411C42.8047 14.6568 42.7487 14.4771 42.6464 14.3237C42.5441 14.1703 42.3999 14.0495 42.2309 13.9758ZM34.5155 20.3411L24.3616 33.2681C24.214 33.4544 24.0288 33.6076 23.8181 33.7176C23.6074 33.8276 23.3758 33.892 23.1385 33.9065L23.0385 33.9104C22.5914 33.9096 22.1628 33.7319 21.8462 33.4161L16.6155 28.1854C16.3 27.8692 16.1231 27.4406 16.1236 26.9939C16.1242 26.5472 16.3021 26.1191 16.6183 25.8036C16.9346 25.4882 17.3631 25.3113 17.8098 25.3118C18.2565 25.3124 18.6846 25.4903 19.0001 25.8065L22.8885 29.695L31.8693 18.2623C32.1501 17.9258 32.5509 17.712 32.9867 17.6662C33.4225 17.6204 33.859 17.7462 34.2036 18.017C34.5482 18.2877 34.7737 18.6821 34.8323 19.1164C34.8908 19.5507 34.7779 19.9907 34.5174 20.3431L34.5155 20.3411Z" fill="#79D7BE"/>
</svg>
