<svg width="40" height="41" viewBox="0 0 40 41" fill="none" xmlns="http://www.w3.org/2000/svg">
<path d="M34.0925 6.67147L38.2825 7.50897C38.5075 7.55397 38.6925 7.71897 38.7575 7.94147C38.7903 8.04955 38.7933 8.16451 38.766 8.27412C38.7387 8.38373 38.6822 8.4839 38.6025 8.56397L35.17 11.999C34.7587 12.408 34.2025 12.638 33.6225 12.639H30.775L23.625 19.7915C23.7614 20.3065 23.7865 20.8447 23.6986 21.3702C23.6107 21.8958 23.4118 22.3965 23.1152 22.8391C22.8186 23.2817 22.431 23.6561 21.9784 23.9372C21.5258 24.2183 21.0185 24.3997 20.4902 24.4694C19.962 24.539 19.425 24.4953 18.9149 24.3411C18.4049 24.187 17.9336 23.9259 17.5324 23.5753C17.1312 23.2247 16.8093 22.7926 16.5882 22.3079C16.3671 21.8231 16.2518 21.2968 16.25 20.764C16.2499 20.1885 16.3822 19.6208 16.6367 19.1047C16.8912 18.5886 17.261 18.138 17.7176 17.7877C18.1742 17.4375 18.7053 17.197 19.2697 17.085C19.8341 16.9729 20.4167 16.9922 20.9725 17.1415L28.125 9.98647V7.14397C28.125 6.56397 28.355 6.00647 28.765 5.59647L32.2 2.16147C32.2801 2.08179 32.3802 2.0253 32.4898 1.99801C32.5995 1.97072 32.7144 1.97364 32.8225 2.00647C33.045 2.07147 33.21 2.25647 33.255 2.48147L34.0925 6.67147Z" fill="#79D7BE"/>
<path d="M5.00023 20.7641C5.0028 22.9091 5.46534 25.0285 6.35665 26.9794C7.24796 28.9303 8.54731 30.6674 10.167 32.0735C11.7868 33.4796 13.6892 34.522 15.7461 35.1303C17.8029 35.7386 19.9663 35.8987 22.0903 35.5999C24.2142 35.301 26.2494 34.5501 28.0585 33.3978C29.8676 32.2455 31.4086 30.7187 32.5774 28.9202C33.7462 27.1217 34.5158 25.0935 34.8341 22.9724C35.1524 20.8512 35.0122 18.6865 34.4227 16.6241C34.34 16.3832 34.3071 16.1279 34.3262 15.8739C34.3452 15.6199 34.4158 15.3723 34.5335 15.1464C34.6513 14.9205 34.8138 14.7209 35.0111 14.5598C35.2085 14.3987 35.4366 14.2795 35.6815 14.2093C35.9264 14.1392 36.183 14.1196 36.4357 14.1518C36.6884 14.184 36.9319 14.2673 37.1514 14.3966C37.3709 14.526 37.5618 14.6986 37.7125 14.904C37.8631 15.1095 37.9704 15.3434 38.0277 15.5917C39.169 19.5855 38.9522 23.8452 37.4114 27.7025C35.8705 31.5598 33.0927 34.7964 29.5138 36.9047C25.9349 39.0129 21.7573 39.8734 17.6366 39.3511C13.5159 38.8289 9.68508 36.9535 6.74523 34.0191C3.80858 31.08 1.93117 27.2489 1.40774 23.1272C0.884309 19.0055 1.74451 14.8267 3.85329 11.2468C5.96206 7.66698 9.19999 4.8888 13.0587 3.3485C16.9174 1.80819 21.1784 1.59298 25.1727 2.73665C25.6483 2.87568 26.0496 3.19732 26.2887 3.63128C26.5279 4.06524 26.5856 4.57623 26.4492 5.05259C26.3127 5.52895 25.9933 5.93193 25.5606 6.17347C25.128 6.41502 24.6173 6.47548 24.1402 6.34165C21.9067 5.70027 19.5546 5.58662 17.2696 6.00965C14.9846 6.43268 12.8291 7.38084 10.9732 8.77932C9.11729 10.1778 7.61168 11.9884 6.57512 14.0682C5.53857 16.1481 4.99943 18.4403 5.00023 20.7641Z" fill="#79D7BE"/>
<path d="M12.5002 20.764C12.5004 22.1305 12.8736 23.471 13.5796 24.6409C14.2857 25.8109 15.2977 26.7658 16.5066 27.4028C17.7156 28.0398 19.0755 28.3347 20.4396 28.2556C21.8038 28.1765 23.1205 27.7265 24.2477 26.954C25.3747 26.1796 26.2685 25.1118 26.8325 23.8662C27.3966 22.6205 27.6093 21.2443 27.4477 19.8865C27.404 19.557 27.4489 19.2218 27.5778 18.9154C27.7067 18.6091 27.915 18.3426 28.1811 18.1435C28.4472 17.9443 28.7616 17.8197 29.0919 17.7824C29.4222 17.7452 29.7564 17.7966 30.0602 17.9315C30.3639 18.0646 30.6269 18.2759 30.8224 18.5438C31.0178 18.8117 31.1387 19.1266 31.1727 19.4565C31.4444 21.7768 30.987 24.124 29.864 26.1725C28.741 28.221 27.0082 29.8691 24.9061 30.8881C22.8039 31.907 20.4367 32.2463 18.133 31.8588C15.8292 31.4713 13.7033 30.3763 12.0501 28.7257C10.397 27.075 9.29872 24.9507 8.90773 22.6476C8.51673 20.3444 8.85241 17.9767 9.86818 15.873C10.884 13.7693 12.5294 12.034 14.5762 10.9079C16.623 9.78185 18.9696 9.32088 21.2902 9.589C21.5387 9.61206 21.7801 9.68449 22.0002 9.80204C22.2204 9.91959 22.4148 10.0799 22.5722 10.2736C22.7296 10.4673 22.8467 10.6904 22.9167 10.9299C22.9867 11.1695 23.0082 11.4206 22.9799 11.6685C22.9516 11.9165 22.8741 12.1563 22.7519 12.3739C22.6298 12.5915 22.4654 12.7825 22.2684 12.9358C22.0715 13.089 21.8459 13.2014 21.605 13.2664C21.364 13.3313 21.1125 13.3475 20.8652 13.314C19.8144 13.192 18.7496 13.2937 17.7408 13.6124C16.732 13.9311 15.8021 14.4596 15.0121 15.1632C14.2221 15.8668 13.5898 16.7296 13.1569 17.6949C12.724 18.6601 12.5002 19.7061 12.5002 20.764Z" fill="#79D7BE"/>
</svg>
