<svg width="41" height="41" viewBox="0 0 41 41" fill="none" xmlns="http://www.w3.org/2000/svg">
<path d="M4.6665 12.4307C4.6665 13.4156 4.8605 14.3908 5.23741 15.3008C5.61432 16.2107 6.16676 17.0375 6.8632 17.734C7.55964 18.4304 8.38644 18.9829 9.29638 19.3598C10.2063 19.7367 11.1816 19.9307 12.1665 19.9307C13.1514 19.9307 14.1267 19.7367 15.0366 19.3598C15.9466 18.9829 16.7734 18.4304 17.4698 17.734C18.1662 17.0375 18.7187 16.2107 19.0956 15.3008C19.4725 14.3908 19.6665 13.4156 19.6665 12.4307C19.6665 10.4415 18.8763 8.53389 17.4698 7.12736C16.0633 5.72084 14.1556 4.93066 12.1665 4.93066C10.1774 4.93066 8.26973 5.72084 6.8632 7.12736C5.45668 8.53389 4.6665 10.4415 4.6665 12.4307ZM4.6665 29.0973C4.6665 30.0822 4.8605 31.0575 5.23741 31.9675C5.61432 32.8774 6.16676 33.7042 6.8632 34.4006C7.55964 35.0971 8.38644 35.6495 9.29638 36.0264C10.2063 36.4033 11.1816 36.5973 12.1665 36.5973C13.1514 36.5973 14.1267 36.4033 15.0366 36.0264C15.9466 35.6495 16.7734 35.0971 17.4698 34.4006C18.1662 33.7042 18.7187 32.8774 19.0956 31.9675C19.4725 31.0575 19.6665 30.0822 19.6665 29.0973C19.6665 27.1082 18.8763 25.2006 17.4698 23.794C16.0633 22.3875 14.1556 21.5973 12.1665 21.5973C10.1774 21.5973 8.26973 22.3875 6.8632 23.794C5.45668 25.2006 4.6665 27.1082 4.6665 29.0973ZM21.3332 29.0973C21.3332 31.0865 22.1233 32.9941 23.5299 34.4006C24.9364 35.8072 26.844 36.5973 28.8332 36.5973C30.8223 36.5973 32.7299 35.8072 34.1365 34.4006C35.543 32.9941 36.3332 31.0865 36.3332 29.0973C36.3332 27.1082 35.543 25.2006 34.1365 23.794C32.7299 22.3875 30.8223 21.5973 28.8332 21.5973C26.844 21.5973 24.9364 22.3875 23.5299 23.794C22.1233 25.2006 21.3332 27.1082 21.3332 29.0973ZM29.7082 19.3557L30.1715 18.2957C30.9806 16.4172 32.4651 14.9106 34.3315 14.074L35.7548 13.4407C36.5265 13.099 36.5265 11.9773 35.7548 11.6357L34.4115 11.0373C32.4962 10.1798 30.9844 8.61796 30.1898 6.67566L29.7148 5.529C29.6442 5.35295 29.5225 5.20209 29.3653 5.09583C29.2082 4.98957 29.0229 4.93278 28.8332 4.93278C28.6435 4.93278 28.4581 4.98957 28.301 5.09583C28.1439 5.20209 28.0221 5.35295 27.9515 5.529L27.4765 6.67566C26.6819 8.61796 25.1702 10.1798 23.2548 11.0373L21.9115 11.6357C21.1398 11.9773 21.1398 13.099 21.9115 13.4407L23.3348 14.074C25.2012 14.9106 26.6858 16.4172 27.4948 18.2957L27.9582 19.3557C28.0309 19.5276 28.1527 19.6744 28.3083 19.7775C28.4639 19.8807 28.6465 19.9357 28.8332 19.9357C29.0199 19.9357 29.2024 19.8807 29.3581 19.7775C29.5137 19.6744 29.6355 19.5276 29.7082 19.3557Z" fill="#79D7BE"/>
</svg>
