<svg width="24" height="22" viewBox="0 0 24 22" fill="none" xmlns="http://www.w3.org/2000/svg">
<path d="M6.06934 9.94857H6.65134C6.7591 10.3088 7.17235 10.57 7.68024 10.57C8.2726 10.57 8.73657 10.2147 8.73657 9.76107C8.73657 9.52585 9.04871 9.32715 9.41813 9.32715C9.7876 9.32715 10.0997 9.52585 10.0997 9.76107C10.0997 9.99629 9.7876 10.195 9.41813 10.195C9.31459 10.195 9.23063 10.2789 9.23063 10.3825C9.23063 10.486 9.31459 10.57 9.41813 10.57C9.92598 10.57 10.3392 10.3088 10.447 9.94857H11.0288C11.1324 9.94857 11.2163 9.86462 11.2163 9.76107C11.2163 9.65752 11.1324 9.57357 11.0288 9.57357H10.447C10.3392 9.21329 9.92598 8.95215 9.41813 8.95215C8.82568 8.95215 8.36157 9.30746 8.36157 9.76107C8.36157 9.99629 8.04957 10.195 7.68024 10.195C7.31077 10.195 6.99859 9.99629 6.99859 9.76107C6.99859 9.52585 7.31073 9.32715 7.68024 9.32715C7.78379 9.32715 7.86774 9.2432 7.86774 9.13965C7.86774 9.0361 7.78379 8.95215 7.68024 8.95215C7.17235 8.95215 6.7591 9.21329 6.65134 9.57357H6.06934C5.96579 9.57357 5.88184 9.65752 5.88184 9.76107C5.88184 9.86462 5.96579 9.94857 6.06934 9.94857Z" fill="black"/>
<path d="M22.5018 15.9308C22.2788 15.9308 22.059 15.9734 21.8479 16.0568C21.9827 15.8551 22.0555 15.6393 22.0555 15.414V14.0104C22.0555 13.8859 22.0332 13.7642 21.9907 13.6462C22.0333 13.5282 22.0555 13.4066 22.0555 13.282V11.8785C22.0555 11.754 22.0332 11.6323 21.9907 11.5143C22.0332 11.3963 22.0555 11.2748 22.0555 11.1502V9.74663C22.0555 9.62208 22.0332 9.50044 21.9907 9.38246C22.0332 9.26447 22.0555 9.14283 22.0555 9.01828V7.61475C22.0555 7.49021 22.0332 7.36857 21.9907 7.25058C22.0332 7.1326 22.0555 7.01096 22.0555 6.88641V5.48297C22.0555 5.35843 22.0332 5.23679 21.9907 5.1188C22.0332 5.00082 22.0555 4.87918 22.0555 4.75463V3.3511C22.0555 2.18958 20.1298 1.27979 17.6714 1.27979C15.213 1.27979 13.2873 2.18963 13.2873 3.3511V4.75463C13.2873 4.87918 13.3096 5.00082 13.3522 5.1188C13.3096 5.23674 13.2873 5.35838 13.2873 5.48297V6.8865C13.2873 7.01105 13.3096 7.13269 13.3522 7.25068C13.3096 7.36861 13.2873 7.49025 13.2873 7.61485V9.01838C13.2873 9.14293 13.3096 9.26457 13.3522 9.38255C13.3096 9.50049 13.2873 9.62213 13.2873 9.74672V11.1503C13.2873 11.2748 13.3096 11.3964 13.3522 11.5144C13.3096 11.6324 13.2873 11.754 13.2873 11.8786V13.2821C13.2873 13.4066 13.3096 13.5283 13.3522 13.6463C13.3096 13.7643 13.2873 13.8859 13.2873 14.0105V15.4141C13.2873 15.5466 13.3127 15.6758 13.3607 15.8008L12.9292 15.4956C12.9313 15.4686 12.9327 15.4414 12.9327 15.4141V14.0105C12.9327 13.891 12.912 13.7743 12.8728 13.6609C12.912 13.5475 12.9327 13.4308 12.9327 13.3113V11.9077C12.9327 11.7882 12.912 11.6715 12.8728 11.5581C12.912 11.4447 12.9327 11.328 12.9327 11.2086V9.80503C12.9327 8.64352 11.007 7.73372 8.54859 7.73372C6.09023 7.73372 4.16452 8.64357 4.16452 9.80503V11.2086C4.16452 11.328 4.18519 11.4447 4.22442 11.5581C4.18519 11.6715 4.16452 11.7882 4.16452 11.9077V12.3344H3.49913V11.8099C3.49913 11.315 3.09647 10.9123 2.60152 10.9122L0.897469 10.912C0.402609 10.912 0 11.3146 0 11.8096L9.375e-05 19.1774C9.375e-05 19.6723 0.40275 20.075 0.89775 20.0752H2.60128H2.60147C2.84044 20.0752 3.06558 19.9816 3.23545 19.8117C3.40538 19.6418 3.49894 19.4166 3.49894 19.1776V18.6338L9.39202 21.0407C9.41452 21.0499 9.43861 21.0546 9.46289 21.0546L17.3388 21.0548C17.3631 21.0548 17.3871 21.0501 17.4095 21.041L22.9387 18.7902C23.7756 18.4493 24.2078 17.5606 23.902 16.809C23.6849 16.2756 23.1353 15.9308 22.5018 15.9308ZM9.49978 20.6796L3.49898 18.2287L3.49913 12.7094H8.33986L13.1463 16.1083C13.3029 16.241 13.4258 16.4008 13.5114 16.5837C13.512 16.5849 13.5128 16.5859 13.5135 16.5871C13.7054 16.9999 13.6643 17.4476 13.4057 17.7565C13.2193 17.9791 12.9427 18.105 12.6264 18.1113C12.6247 18.1112 12.6232 18.1108 12.6215 18.1109C12.305 18.1172 11.989 18.0002 11.7324 17.7854C11.7263 17.7803 11.7199 17.7756 11.7132 17.7713L8.50055 15.7139C8.41336 15.6581 8.29739 15.6835 8.24152 15.7707C8.18564 15.8579 8.21109 15.9738 8.29828 16.0297L11.5011 18.0808C11.8184 18.3428 12.208 18.4861 12.6022 18.4861C12.6075 18.4861 12.6129 18.486 12.6182 18.486C12.6203 18.486 12.6223 18.4866 12.6244 18.4866H16.8363C16.8605 18.4866 16.8845 18.4818 16.907 18.4727L21.4979 16.6041C21.4992 16.6036 21.5003 16.6027 21.5017 16.6021L21.9705 16.4113C22.1423 16.3414 22.321 16.3059 22.5019 16.3059C22.9822 16.3059 23.3955 16.5589 23.5549 16.9503C23.7827 17.5104 23.4429 18.18 22.7974 18.4428L17.3023 20.6798L9.49978 20.6796ZM2.60152 19.7002H2.60133H0.897797C0.609563 19.7001 0.375094 19.4656 0.375094 19.1774L0.375 11.8096C0.375 11.5215 0.609375 11.287 0.897609 11.287L2.60142 11.2872C2.88961 11.2872 3.12413 11.5217 3.12413 11.8099L3.12394 19.1776C3.12394 19.3165 3.06938 19.4475 2.97033 19.5466C2.87128 19.6456 2.74027 19.7002 2.60152 19.7002ZM4.53947 11.2086V10.6578C5.21527 11.3824 6.73725 11.8763 8.54855 11.8763C10.3598 11.8763 11.8818 11.3824 12.5577 10.6578V11.2086C12.5577 12.0301 11.0918 12.7378 9.22941 12.8792L8.50767 12.3688C8.47603 12.3464 8.4382 12.3344 8.39939 12.3344H5.57864C4.93613 12.0323 4.53947 11.6359 4.53947 11.2086ZM8.54859 8.10868C10.7218 8.10868 12.5577 8.88549 12.5577 9.80499C12.5577 10.7245 10.7218 11.5013 8.54859 11.5013C6.37542 11.5013 4.53952 10.7245 4.53952 9.80499C4.53952 8.88549 6.37542 8.10868 8.54859 8.10868ZM4.84814 12.3344H4.67381C4.62216 12.2535 4.5847 12.1704 4.56272 12.0857C4.64616 12.1721 4.74145 12.2551 4.84814 12.3344ZM10.0684 13.4724L9.69811 13.2106C10.971 13.0531 12.0007 12.6384 12.5345 12.0857C12.3738 12.7044 11.3886 13.2357 10.0684 13.4724ZM12.0149 14.8489L11.8141 14.707C12.1065 14.5538 12.3501 14.3793 12.5345 14.1884C12.473 14.4252 12.2907 14.6493 12.0149 14.8489ZM12.331 15.0725C12.4146 15.0052 12.4904 14.9354 12.5577 14.8632V15.2328L12.331 15.0725ZM11.4663 14.461L10.4916 13.7717C11.4124 13.5615 12.1438 13.2043 12.5577 12.7606V13.3112C12.5577 13.75 12.1395 14.1562 11.4663 14.461ZM13.6623 13.282V12.7314C14.3381 13.4559 15.8601 13.9499 17.6714 13.9499C19.4827 13.9499 21.0047 13.4559 21.6805 12.7313V13.282C21.6805 14.2016 19.8445 14.9784 17.6714 14.9784C15.4982 14.9784 13.6623 14.2016 13.6623 13.282ZM13.6623 11.1502V10.5995C14.3381 11.3241 15.8601 11.818 17.6714 11.818C19.4827 11.818 21.0047 11.3241 21.6805 10.5995V11.1502C21.6805 12.0697 19.8445 12.8465 17.6714 12.8465C15.4982 12.8466 13.6623 12.0697 13.6623 11.1502ZM13.6623 9.01833V8.46764C14.3381 9.19224 15.8601 9.68616 17.6714 9.68616C19.4827 9.68616 21.0047 9.19219 21.6805 8.4676V9.01833C21.6805 9.93783 19.8445 10.7147 17.6714 10.7147C15.4982 10.7147 13.6623 9.93783 13.6623 9.01833ZM13.6623 6.8865V6.33582C14.3381 7.06041 15.8601 7.55433 17.6714 7.55433C19.4827 7.55433 21.0047 7.06036 21.6805 6.33577V6.8865C21.6805 7.806 19.8445 8.58286 17.6714 8.58286C15.4982 8.58286 13.6623 7.806 13.6623 6.8865ZM13.6623 4.75463V4.20389C14.3381 4.92849 15.8601 5.42241 17.6714 5.42241C19.4827 5.42241 21.0047 4.92844 21.6805 4.20389V4.75463C21.6805 5.67413 19.8445 6.45099 17.6714 6.45099C15.4982 6.45099 13.6623 5.67413 13.6623 4.75463ZM17.6714 1.65474C19.8445 1.65474 21.6805 2.43155 21.6805 3.35105C21.6805 4.2706 19.8445 5.04741 17.6714 5.04741C15.4982 5.04741 13.6623 4.2706 13.6623 3.35105C13.6623 2.4316 15.4982 1.65474 17.6714 1.65474ZM17.6714 7.17933C15.6093 7.17933 13.8511 6.47986 13.6767 5.62275C14.3596 6.33896 15.8729 6.82599 17.6714 6.82599C19.4699 6.82599 20.9832 6.33896 21.666 5.62275C21.4916 6.47982 19.7334 7.17933 17.6714 7.17933ZM17.6714 9.31116C15.6093 9.31116 13.8511 8.61169 13.6767 7.75458C14.3596 8.47079 15.8729 8.95782 17.6714 8.95782C19.4699 8.95782 20.9832 8.47079 21.666 7.75458C21.4916 8.61169 19.7334 9.31116 17.6714 9.31116ZM17.6714 11.443C15.6093 11.443 13.8511 10.7436 13.6767 9.88646C14.3596 10.6027 15.8729 11.0897 17.6714 11.0897C19.4699 11.0897 20.9832 10.6027 21.666 9.88646C21.4916 10.7435 19.7334 11.443 17.6714 11.443ZM17.6714 13.5749C15.6093 13.5749 13.8511 12.8754 13.6767 12.0183C14.3596 12.7345 15.8729 13.2216 17.6714 13.2216C19.4699 13.2216 20.9832 12.7345 21.666 12.0183C21.4916 12.8754 19.7334 13.5749 17.6714 13.5749ZM17.6714 15.7067C15.6093 15.7067 13.851 15.0072 13.6767 14.1502C14.3596 14.8664 15.8729 15.3534 17.6714 15.3534C19.4699 15.3534 20.9832 14.8664 21.666 14.1502C21.4917 15.0072 19.7335 15.7067 17.6714 15.7067ZM13.6623 14.8632C14.3381 15.5878 15.8601 16.0817 17.6714 16.0817C19.4827 16.0817 21.0047 15.5878 21.6805 14.8632V15.414C21.6805 16.3334 19.8445 17.1103 17.6714 17.1103C15.4982 17.1103 13.6623 16.3335 13.6623 15.414V14.8632ZM13.9157 16.5838L13.9799 16.5462C14.3151 16.7929 14.7588 17.0022 15.2817 17.1601L14.7175 17.4913L13.9192 17.6071C14.0373 17.2915 14.0381 16.9315 13.9157 16.5838ZM13.671 18.0222L14.8077 17.8571C14.8317 17.8536 14.8548 17.8455 14.8757 17.8332L15.796 17.293C16.3618 17.4166 16.9964 17.4853 17.6713 17.4853C17.9226 17.4853 18.1682 17.4756 18.4069 17.4573L16.7995 18.1116H13.5855C13.6154 18.0833 13.6436 18.0533 13.671 18.0222Z" fill="black"/>
<path d="M2.80067 18.083C2.80067 17.5036 2.3293 17.0322 1.74992 17.0322C1.17055 17.0322 0.699219 17.5036 0.699219 18.083C0.699219 18.6624 1.17055 19.1337 1.74992 19.1337C2.3293 19.1337 2.80067 18.6624 2.80067 18.083ZM1.74992 18.7588C1.37736 18.7588 1.07422 18.4556 1.07422 18.083C1.07422 17.7104 1.37736 17.4073 1.74992 17.4073C2.12253 17.4073 2.42567 17.7104 2.42567 18.083C2.42567 18.4556 2.12253 18.7588 1.74992 18.7588Z" fill="black"/>
<path d="M5.56543 5.9406C5.56543 6.19996 5.66645 6.44375 5.84982 6.62713C6.0332 6.81055 6.27704 6.91152 6.5364 6.91152C6.79576 6.91152 7.03955 6.8105 7.22298 6.62713L9.56016 4.28994L10.306 5.03581C10.354 5.08377 10.4243 5.1021 10.4895 5.08367C10.5549 5.06525 10.6051 5.01299 10.6209 4.94699L11.5263 1.17664C11.5416 1.11317 11.5227 1.04642 11.4766 1.00025C11.4305 0.954127 11.3636 0.935237 11.3002 0.950518L7.52977 1.85586C7.46377 1.87171 7.41151 1.922 7.39309 1.9873C7.37466 2.05264 7.39299 2.12281 7.44095 2.17081L8.18696 2.91678L5.84973 5.25397C5.66645 5.43744 5.56543 5.68124 5.56543 5.9406ZM8.58484 3.04944C8.61999 3.01428 8.63973 2.96656 8.63973 2.91683C8.63973 2.8671 8.61999 2.81942 8.58484 2.78422L7.94302 2.14241L11.0904 1.38669L10.3345 4.53397L9.69282 3.89225C9.6196 3.81908 9.50091 3.81908 9.42765 3.89225L6.9579 6.362C6.8453 6.47455 6.69563 6.53656 6.53645 6.53656C6.37726 6.53656 6.22759 6.4746 6.11504 6.362C6.00249 6.24946 5.94048 6.09978 5.94048 5.9406C5.94048 5.78141 6.00245 5.63174 6.11504 5.51919L8.58484 3.04944Z" fill="black"/>
<path d="M15.1914 3.49447H15.7735C15.8812 3.85475 16.2945 4.11589 16.8023 4.11589C17.3947 4.11589 17.8586 3.76058 17.8586 3.30697C17.8586 3.07175 18.1707 2.87305 18.5402 2.87305C18.9097 2.87305 19.2218 3.07175 19.2218 3.30697C19.2218 3.54219 18.9097 3.74089 18.5402 3.74089C18.4367 3.74089 18.3527 3.82484 18.3527 3.92839C18.3527 4.03194 18.4367 4.11589 18.5402 4.11589C19.048 4.11589 19.4613 3.85475 19.5691 3.49447H20.1509C20.2545 3.49447 20.3384 3.41052 20.3384 3.30697C20.3384 3.20342 20.2545 3.11947 20.1509 3.11947H19.5691C19.4613 2.75919 19.0481 2.49805 18.5402 2.49805C17.9477 2.49805 17.4836 2.85341 17.4836 3.30697C17.4836 3.54219 17.1716 3.74089 16.8023 3.74089C16.4328 3.74089 16.1207 3.54219 16.1207 3.30697C16.1207 3.07175 16.4328 2.87305 16.8023 2.87305C16.9059 2.87305 16.9898 2.78909 16.9898 2.68555C16.9898 2.582 16.9059 2.49805 16.8023 2.49805C16.2945 2.49805 15.8812 2.75923 15.7735 3.11947H15.1914C15.0879 3.11947 15.0039 3.20342 15.0039 3.30697C15.0039 3.41052 15.0879 3.49447 15.1914 3.49447Z" fill="black"/>
</svg>
