<svg width="18" height="20" viewBox="0 0 18 20" fill="none" xmlns="http://www.w3.org/2000/svg">
<path d="M5.5141 12.9814L9.65781 15.3733L9.17281 16.2138L5.0291 13.822L5.5141 12.9814ZM6.58051 15.9193C6.64315 15.9556 6.68882 16.0153 6.70751 16.0852C6.7262 16.1552 6.71637 16.2297 6.6802 16.2924L5.32367 18.6422L8.80199 16.628L4.85668 14.3513L4.85227 18.3687L6.20824 16.0189C6.22611 15.9879 6.24992 15.9607 6.27831 15.9389C6.3067 15.9171 6.33911 15.9011 6.37368 15.8919C6.40826 15.8826 6.44432 15.8803 6.4798 15.885C6.51529 15.8897 6.54953 15.9013 6.58051 15.9193ZM5.14094 10.367C5.17184 10.3848 5.20596 10.3964 5.24134 10.4011C5.27672 10.4057 5.31267 10.4033 5.34714 10.3941C5.3816 10.3848 5.4139 10.3689 5.4422 10.3471C5.47049 10.3254 5.49422 10.2983 5.51203 10.2673L10.7641 1.17156L11.9405 1.85125L5.78637 12.5097L9.93008 14.9027L16.4712 3.57457C16.7831 3.02542 16.8652 2.37523 16.6997 1.76575C16.5342 1.15627 16.1345 0.636943 15.5876 0.320985C15.0408 0.00502635 14.3912 -0.0819349 13.7806 0.0790604C13.1699 0.240056 12.6476 0.63595 12.3276 1.18043V1.18152L12.2136 1.37863L16.3573 3.77172L16.0849 4.24344L11.9412 1.85149L12.2136 1.37883L10.8006 0.563634C10.7697 0.545596 10.7356 0.533839 10.7001 0.529038C10.6647 0.524238 10.6286 0.526488 10.5941 0.535661C10.5595 0.544833 10.5271 0.560747 10.4987 0.582488C10.4703 0.604228 10.4464 0.631367 10.4286 0.662345C10.4252 0.667298 10.4222 0.672524 10.4196 0.67797L5.04027 9.99606C5.02241 10.027 5.01084 10.0612 5.00623 10.0966C5.00163 10.132 5.00407 10.168 5.01343 10.2025C5.02278 10.2369 5.03887 10.2692 5.06075 10.2975C5.08263 10.3257 5.10989 10.3493 5.14094 10.367ZM11.1616 19.4406H1.04152C0.969128 19.4406 0.899697 19.4694 0.848505 19.5206C0.797314 19.5718 0.768555 19.6412 0.768555 19.7136C0.768555 19.786 0.797314 19.8554 0.848505 19.9066C0.899697 19.9578 0.969128 19.9866 1.04152 19.9866H11.1616C11.234 19.9866 11.3034 19.9578 11.3546 19.9066C11.4058 19.8554 11.4346 19.786 11.4346 19.7136C11.4346 19.6412 11.4058 19.5718 11.3546 19.5206C11.3034 19.4694 11.234 19.4406 11.1616 19.4406ZM18 15.1032C17.9998 15.813 17.7535 16.5008 17.303 17.0494C16.8526 17.598 16.2258 17.9734 15.5296 18.1117C14.8333 18.25 14.1107 18.1426 13.4848 17.8078C12.8588 17.473 12.3683 16.9316 12.0969 16.2757C11.8254 15.6198 11.7898 14.8901 11.996 14.2109C12.2022 13.5316 12.6376 12.9449 13.2279 12.5507C13.8182 12.1565 14.527 11.9792 15.2334 12.049C15.9398 12.1187 16.6002 12.4313 17.102 12.9333C17.3876 13.2177 17.6141 13.5559 17.7682 13.9283C17.9224 14.3008 18.0012 14.7001 18 15.1032ZM17.1197 15.1032C17.1197 15.0318 17.0915 14.9634 17.0411 14.9129C16.9908 14.8624 16.9225 14.8339 16.8512 14.8336H15.2007V13.1841C15.2007 13.1126 15.1723 13.044 15.1217 12.9934C15.0711 12.9429 15.0025 12.9145 14.931 12.9145C14.8595 12.9145 14.7909 12.9429 14.7403 12.9934C14.6898 13.044 14.6614 13.1126 14.6614 13.1841V14.8335H13.012C12.9404 14.8335 12.8719 14.8619 12.8213 14.9125C12.7707 14.9631 12.7423 15.0316 12.7423 15.1031C12.7423 15.1747 12.7707 15.2432 12.8213 15.2938C12.8719 15.3444 12.9404 15.3728 13.012 15.3728H14.6614V17.0233C14.6614 17.0948 14.6898 17.1634 14.7403 17.214C14.7909 17.2645 14.8595 17.2929 14.931 17.2929C15.0025 17.2929 15.0711 17.2645 15.1217 17.214C15.1723 17.1634 15.2007 17.0948 15.2007 17.0233V15.3728H16.8512C16.9225 15.3725 16.9908 15.344 17.0412 15.2935C17.0915 15.2429 17.1197 15.1745 17.1197 15.1032Z" fill="#FFEB00"/>
</svg>
