<svg width="25" height="20" viewBox="0 0 25 20" fill="none" xmlns="http://www.w3.org/2000/svg">
<g clip-path="url(#clip0_953_463)">
<path d="M7.91289 10C10.2341 10 12.1129 8.14082 12.1129 5.84375C12.1129 3.54668 10.2341 1.6875 7.91289 1.6875C5.59164 1.6875 3.71289 3.54668 3.71289 5.84375C3.71289 8.14082 5.59164 10 7.91289 10ZM10.7929 11.1875H10.4816C9.70164 11.5586 8.83539 11.7812 7.91289 11.7812C6.99039 11.7812 6.12789 11.5586 5.34414 11.1875H5.03289C2.64789 11.1875 0.712891 13.1023 0.712891 15.4625V16.5312C0.712891 17.5146 1.51914 18.3125 2.51289 18.3125H13.3129C14.3066 18.3125 15.1129 17.5146 15.1129 16.5312V15.4625C15.1129 13.1023 13.1779 11.1875 10.7929 11.1875ZM18.7129 10C20.7004 10 22.3129 8.4043 22.3129 6.4375C22.3129 4.4707 20.7004 2.875 18.7129 2.875C16.7254 2.875 15.1129 4.4707 15.1129 6.4375C15.1129 8.4043 16.7254 10 18.7129 10ZM20.5129 11.1875H20.3704C19.8491 11.3656 19.2979 11.4844 18.7129 11.4844C18.1279 11.4844 17.5766 11.3656 17.0554 11.1875H16.9129C16.1479 11.1875 15.4429 11.4064 14.8241 11.759C15.7391 12.735 16.3129 14.0301 16.3129 15.4625V16.8875C16.3129 16.9691 16.2941 17.0471 16.2904 17.125H22.9129C23.9066 17.125 24.7129 16.3271 24.7129 15.3438C24.7129 13.0467 22.8341 11.1875 20.5129 11.1875Z" fill="#938F8F"/>
</g>
<defs>
<clipPath id="clip0_953_463">
<rect width="24" height="19" fill="white" transform="translate(0.712891 0.5)"/>
</clipPath>
</defs>
</svg>
