<svg width="19" height="18" viewBox="0 0 19 18" fill="none" xmlns="http://www.w3.org/2000/svg">
<path fill-rule="evenodd" clip-rule="evenodd" d="M5.37012 3.99988C5.37012 2.93901 5.79154 1.9216 6.54169 1.17145C7.29184 0.421305 8.30925 -0.00012207 9.37012 -0.00012207C10.431 -0.00012207 11.4484 0.421305 12.1985 1.17145C12.9487 1.9216 13.3701 2.93901 13.3701 3.99988C13.3701 5.06074 12.9487 6.07816 12.1985 6.82831C11.4484 7.57845 10.431 7.99988 9.37012 7.99988C8.30925 7.99988 7.29184 7.57845 6.54169 6.82831C5.79154 6.07816 5.37012 5.06074 5.37012 3.99988ZM5.37012 9.99988C4.04403 9.99988 2.77227 10.5267 1.83458 11.4643C0.896901 12.402 0.370117 13.6738 0.370117 14.9999C0.370117 15.7955 0.686188 16.5586 1.2488 17.1212C1.81141 17.6838 2.57447 17.9999 3.37012 17.9999H15.3701C16.1658 17.9999 16.9288 17.6838 17.4914 17.1212C18.054 16.5586 18.3701 15.7955 18.3701 14.9999C18.3701 13.6738 17.8433 12.402 16.9057 11.4643C15.968 10.5267 14.6962 9.99988 13.3701 9.99988H5.37012Z" fill="#2E5077"/>
</svg>
