<svg width="20" height="20" viewBox="0 0 20 20" fill="none" xmlns="http://www.w3.org/2000/svg">
<path fill-rule="evenodd" clip-rule="evenodd" d="M13.7925 18.4442C12.5925 18.4 9.19169 17.93 5.63002 14.3692C2.06919 10.8075 1.60002 7.4075 1.55502 6.20666C1.48835 4.37666 2.89002 2.59916 4.50919 1.905C4.70417 1.8208 4.91769 1.78875 5.12879 1.81198C5.3399 1.83521 5.54134 1.91292 5.71335 2.0375C7.04669 3.00916 7.96669 4.47916 8.75669 5.635C8.93051 5.88894 9.00483 6.19795 8.96548 6.50316C8.92614 6.80837 8.77589 7.08844 8.54335 7.29L6.91752 8.4975C6.83897 8.55422 6.78368 8.63752 6.76192 8.73193C6.74015 8.82634 6.7534 8.92545 6.79919 9.01083C7.16752 9.68 7.82252 10.6767 8.57252 11.4267C9.32252 12.1767 10.3667 12.875 11.0825 13.285C11.1723 13.3354 11.2779 13.3495 11.3777 13.3244C11.4775 13.2992 11.564 13.2368 11.6192 13.15L12.6775 11.5392C12.8721 11.2807 13.1591 11.1076 13.4785 11.056C13.7979 11.0044 14.1248 11.0784 14.3909 11.2625C15.5634 12.0742 16.9317 12.9783 17.9334 14.2608C18.068 14.4341 18.1537 14.6403 18.1814 14.858C18.2091 15.0757 18.1779 15.2969 18.0909 15.4983C17.3934 17.1258 15.6284 18.5117 13.7925 18.4442Z" fill="#8D8A8A"/>
</svg>
