<svg width="24" height="24" viewBox="0 0 24 24" fill="none" xmlns="http://www.w3.org/2000/svg">
<g clip-path="url(#clip0_1698_714)">
<path d="M23 20V22H22V23H2V22H1V15H2V16H3V17H4V18H5V19H6V20H7V21H8V20H9V19H10V18H11V17H12V16H13V15H14V14H15V13H16V14H17V15H18V16H19V17H20V18H21V19H22V20H23Z" fill="#938B8B"/>
<path d="M22 2V1H2V2H1V12H2V13H3V14H4V15H5V16H6V17H7V18H8V17H9V16H10V15H11V14H12V13H13V12H14V11H15V10H16V11H17V12H18V13H19V14H20V15H21V16H22V17H23V2H22ZM9 6V9H8V10H5V9H4V6H5V5H8V6H9Z" fill="#938B8B"/>
</g>
<defs>
<clipPath id="clip0_1698_714">
<rect width="24" height="24" fill="white"/>
</clipPath>
</defs>
</svg>
