<svg width="51" height="51" viewBox="0 0 51 51" fill="none" xmlns="http://www.w3.org/2000/svg">
<path d="M43.1836 5.22559H33.4658V4.93262C33.4648 4.59356 33.3295 4.26872 33.0896 4.02916C32.8497 3.78959 32.5246 3.65481 32.1856 3.6543H29.0605C28.7041 2.2832 27.1943 1.28125 25.333 1.28125C23.4717 1.28125 21.9619 2.2832 21.6074 3.6543H18.4824C18.1429 3.65481 17.8174 3.79 17.5774 4.0302C17.3373 4.27039 17.2024 4.59599 17.2021 4.93555V5.22852H7.48242C7.07672 5.22903 6.68773 5.39022 6.40058 5.67683C6.11342 5.96343 5.95149 6.35211 5.9502 6.75781V48.1865C5.95071 48.5927 6.11231 48.9822 6.39954 49.2694C6.68678 49.5566 7.07621 49.7182 7.48242 49.7188H43.1836C43.5898 49.7182 43.9792 49.5566 44.2665 49.2694C44.5537 48.9822 44.7153 48.5927 44.7158 48.1865V6.75781C44.7153 6.3516 44.5537 5.96217 44.2665 5.67494C43.9792 5.3877 43.5898 5.2261 43.1836 5.22559ZM18.7627 5.2168H22.3184C22.4276 5.2173 22.5357 5.1949 22.6358 5.15102C22.7358 5.10714 22.8256 5.04277 22.8992 4.96206C22.9728 4.88136 23.0287 4.7861 23.0632 4.68246C23.0977 4.57882 23.1101 4.46909 23.0996 4.36035C23.0982 4.33205 23.0982 4.30369 23.0996 4.27539C23.0918 3.49902 24.1182 2.84375 25.333 2.84375C26.5479 2.84375 27.5791 3.49902 27.5791 4.27539V4.36133C27.5687 4.46999 27.5812 4.57961 27.6158 4.68314C27.6504 4.78666 27.7063 4.88179 27.7799 4.96239C27.8535 5.04299 27.9432 5.10727 28.0432 5.15109C28.1432 5.19491 28.2512 5.21729 28.3604 5.2168H31.916V9.53613H18.7627V5.2168ZM32.1856 11.0986C32.5033 11.098 32.8096 10.9796 33.045 10.7661C33.2804 10.5527 33.4283 10.2595 33.46 9.94336H40.4189V45.002H10.2432V9.94336H17.2021C17.2338 10.2595 17.3817 10.5527 17.6171 10.7661C17.8526 10.9796 18.1588 11.098 18.4766 11.0986H32.1856ZM43.1533 48.1562H7.50879V6.78809H17.1963V8.38086H10.1064C9.72942 8.38112 9.36791 8.53101 9.10131 8.7976C8.83472 9.0642 8.68483 9.42571 8.68457 9.80273V45.1416C8.68483 45.5186 8.83472 45.8801 9.10131 46.1467C9.36791 46.4133 9.72942 46.5632 10.1064 46.5635H40.5596C40.9366 46.5632 41.2981 46.4133 41.5647 46.1467C41.8313 45.8801 41.9812 45.5186 41.9814 45.1416V9.80273C41.9812 9.42571 41.8313 9.0642 41.5647 8.7976C41.2981 8.53101 40.9366 8.38112 40.5596 8.38086H33.4658V6.78809H43.1533V48.1562ZM26.4668 5.16504C26.4668 5.38928 26.4003 5.60849 26.2757 5.79494C26.1511 5.98139 25.9741 6.12671 25.7669 6.21252C25.5597 6.29834 25.3318 6.32079 25.1118 6.27704C24.8919 6.2333 24.6899 6.12531 24.5313 5.96675C24.3727 5.80819 24.2648 5.60616 24.221 5.38623C24.1773 5.1663 24.1997 4.93833 24.2855 4.73116C24.3713 4.52398 24.5167 4.34691 24.7031 4.22233C24.8896 4.09775 25.1088 4.03125 25.333 4.03125C25.6335 4.03202 25.9214 4.15172 26.1339 4.36418C26.3463 4.57664 26.466 4.86458 26.4668 5.16504ZM13.2324 16.8389V21.5264C13.2324 21.9408 13.397 22.3382 13.6901 22.6312C13.9831 22.9242 14.3805 23.0889 14.7949 23.0889H16.3574V25.5547H13.4785C13.2713 25.5547 13.0726 25.637 12.9261 25.7835C12.7796 25.93 12.6973 26.1287 12.6973 26.3359V28.6475C12.6973 28.8547 12.7796 29.0534 12.9261 29.1999C13.0726 29.3464 13.2713 29.4287 13.4785 29.4287H20.7969C21.0041 29.4287 21.2028 29.3464 21.3493 29.1999C21.4958 29.0534 21.5781 28.8547 21.5781 28.6475V26.334C21.5781 26.1268 21.4958 25.9281 21.3493 25.7816C21.2028 25.635 21.0041 25.5527 20.7969 25.5527H17.9189V23.0869H19.4814C19.8958 23.0869 20.2933 22.9223 20.5863 22.6293C20.8793 22.3362 21.0439 21.9388 21.0439 21.5244V19.9619H27.8125V22.9609H26.25C25.8356 22.9609 25.4382 23.1256 25.1451 23.4186C24.8521 23.7116 24.6875 24.109 24.6875 24.5234V29.2109C24.6875 29.6253 24.8521 30.0228 25.1451 30.3158C25.4382 30.6088 25.8356 30.7734 26.25 30.7734H27.8125V31.624H23.3857C23.1785 31.624 22.9798 31.7063 22.8333 31.8528C22.6868 31.9994 22.6045 32.1981 22.6045 32.4053V34.6787H21.042C20.6276 34.6787 20.2302 34.8433 19.9371 35.1364C19.6441 35.4294 19.4795 35.8268 19.4795 36.2412V37.8037H16.0127C15.8284 37.2824 15.4658 36.8431 14.9889 36.5634C14.512 36.2836 13.9516 36.1815 13.4067 36.275C12.8617 36.3685 12.3674 36.6516 12.0111 37.0743C11.6547 37.497 11.4592 38.0321 11.4592 38.585C11.4592 39.1378 11.6547 39.6729 12.0111 40.0956C12.3674 40.5183 12.8617 40.8015 13.4067 40.895C13.9516 40.9885 14.512 40.8863 14.9889 40.6065C15.4658 40.3268 15.8284 39.8875 16.0127 39.3662H19.4795V40.9287C19.4795 41.3431 19.6441 41.7405 19.9371 42.0336C20.2302 42.3266 20.6276 42.4912 21.042 42.4912H25.7295C26.1439 42.4912 26.5413 42.3266 26.8343 42.0336C27.1274 41.7405 27.292 41.3431 27.292 40.9287V36.2412C27.292 35.8268 27.1274 35.4294 26.8343 35.1364C26.5413 34.8433 26.1439 34.6787 25.7295 34.6787H24.167V33.1797H33.0186V34.6719H31.4561C31.0417 34.6719 30.6442 34.8365 30.3512 35.1295C30.0582 35.4225 29.8936 35.82 29.8936 36.2344V40.9219C29.8936 41.3363 30.0582 41.7337 30.3512 42.0267C30.6442 42.3198 31.0417 42.4844 31.4561 42.4844H36.1436C36.558 42.4844 36.9554 42.3198 37.2484 42.0267C37.5414 41.7337 37.7061 41.3363 37.7061 40.9219V36.2344C37.7061 35.82 37.5414 35.4225 37.2484 35.1295C36.9554 34.8365 36.558 34.6719 36.1436 34.6719H34.5811V32.3984C34.5811 32.1912 34.4987 31.9925 34.3522 31.846C34.2057 31.6995 34.007 31.6172 33.7998 31.6172H29.374V30.7666H30.9365C31.3509 30.7666 31.7484 30.602 32.0414 30.309C32.3344 30.0159 32.499 29.6185 32.499 29.2041V27.6416H35.3857C35.5929 27.6416 35.7917 27.5593 35.9382 27.4128C36.0847 27.2663 36.167 27.0676 36.167 26.8604V20.6299H39.0439C39.2511 20.6299 39.4499 20.5476 39.5964 20.4011C39.7429 20.2545 39.8252 20.0558 39.8252 19.8486V17.5381C39.8252 17.3309 39.7429 17.1322 39.5964 16.9857C39.4499 16.8391 39.2511 16.7568 39.0439 16.7568H31.7256C31.5184 16.7568 31.3197 16.8391 31.1732 16.9857C31.0266 17.1322 30.9443 17.3309 30.9443 17.5381V19.8486C30.9443 20.0558 31.0266 20.2545 31.1732 20.4011C31.3197 20.5476 31.5184 20.6299 31.7256 20.6299H34.6035V26.0801H32.498V24.5234C32.498 24.109 32.3334 23.7116 32.0404 23.4186C31.7474 23.1256 31.3499 22.9609 30.9355 22.9609H29.373V19.1816C29.373 18.9744 29.2907 18.7757 29.1442 18.6292C28.9977 18.4827 28.799 18.4004 28.5918 18.4004H21.043V16.8379C21.043 16.4235 20.8784 16.0261 20.5853 15.733C20.2923 15.44 19.8949 15.2754 19.4805 15.2754H14.793C14.3787 15.2759 13.9817 15.4409 13.689 15.7341C13.3964 16.0273 13.2322 16.4246 13.2324 16.8389ZM20.0156 27.8643H14.2598V27.1152H20.0156V27.8643ZM13.8096 39.3574C13.6551 39.3574 13.504 39.3116 13.3755 39.2258C13.2471 39.1399 13.1469 39.0179 13.0878 38.8751C13.0287 38.7324 13.0132 38.5753 13.0433 38.4238C13.0735 38.2722 13.1479 38.133 13.2571 38.0237C13.3664 37.9145 13.5056 37.8401 13.6572 37.8099C13.8087 37.7798 13.9658 37.7953 14.1085 37.8544C14.2513 37.9135 14.3733 38.0137 14.4592 38.1421C14.545 38.2706 14.5908 38.4217 14.5908 38.5762C14.5908 38.7834 14.5085 38.9821 14.362 39.1286C14.2155 39.2751 14.0168 39.3574 13.8096 39.3574ZM25.7344 40.9199H21.0469V36.2324H25.7344V40.9199ZM36.1475 40.9199H31.46V36.2324H36.1475V40.9199ZM32.5068 18.3193H38.2627V19.0674H32.5068V18.3193ZM30.9355 26.8584V29.2021H26.248V24.5234H30.9355V26.8584ZM19.4805 19.1797V21.5234H14.793V16.8359H19.4805V19.1797Z" fill="url(#paint0_linear_678_363)"/>
<defs>
<linearGradient id="paint0_linear_678_363" x1="5.9502" y1="25.5" x2="44.7158" y2="25.5" gradientUnits="userSpaceOnUse">
<stop stop-color="#FFEB00"/>
<stop offset="1" stop-color="#16423C"/>
</linearGradient>
</defs>
</svg>
