<svg width="25" height="24" viewBox="0 0 25 24" fill="none" xmlns="http://www.w3.org/2000/svg">
<path fill-rule="evenodd" clip-rule="evenodd" d="M8.37012 6.99976C8.37012 5.93889 8.79154 4.92147 9.54169 4.17133C10.2918 3.42118 11.3093 2.99976 12.3701 2.99976C13.431 2.99976 14.4484 3.42118 15.1985 4.17133C15.9487 4.92147 16.3701 5.93889 16.3701 6.99976C16.3701 8.06062 15.9487 9.07804 15.1985 9.82818C14.4484 10.5783 13.431 10.9998 12.3701 10.9998C11.3093 10.9998 10.2918 10.5783 9.54169 9.82818C8.79154 9.07804 8.37012 8.06062 8.37012 6.99976ZM8.37012 12.9998C7.04403 12.9998 5.77227 13.5265 4.83458 14.4642C3.8969 15.4019 3.37012 16.6737 3.37012 17.9998C3.37012 18.7954 3.68619 19.5585 4.2488 20.1211C4.81141 20.6837 5.57447 20.9998 6.37012 20.9998H18.3701C19.1658 20.9998 19.9288 20.6837 20.4914 20.1211C21.054 19.5585 21.3701 18.7954 21.3701 17.9998C21.3701 16.6737 20.8433 15.4019 19.9057 14.4642C18.968 13.5265 17.6962 12.9998 16.3701 12.9998H8.37012Z" fill="#79D7BE"/>
</svg>
