<svg width="60" height="60" viewBox="0 0 60 60" fill="none" xmlns="http://www.w3.org/2000/svg">
<g clip-path="url(#clip0_872_292)">
<path d="M2.10938 9.375H3.75V11.0156C3.75087 11.5748 3.97338 12.1108 4.36878 12.5062C4.76418 12.9016 5.3002 13.1241 5.85938 13.125H7.26562C7.8248 13.1241 8.36082 12.9016 8.75622 12.5062C9.15162 12.1108 9.37413 11.5748 9.375 11.0156V9.375H11.0156C11.5748 9.37413 12.1108 9.15162 12.5062 8.75622C12.9016 8.36082 13.1241 7.8248 13.125 7.26562V5.85938C13.1241 5.3002 12.9016 4.76418 12.5062 4.36878C12.1108 3.97338 11.5748 3.75087 11.0156 3.75H9.375V2.10938C9.37413 1.5502 9.15162 1.01418 8.75622 0.61878C8.36082 0.223384 7.8248 0.000867804 7.26562 0L5.85938 0C5.3002 0.000867804 4.76418 0.223384 4.36878 0.61878C3.97338 1.01418 3.75087 1.5502 3.75 2.10938V3.75H2.10938C1.5502 3.75087 1.01418 3.97338 0.61878 4.36878C0.223384 4.76418 0.000867804 5.3002 0 5.85938L0 7.26562C0.000867804 7.8248 0.223384 8.36082 0.61878 8.75622C1.01418 9.15162 1.5502 9.37413 2.10938 9.375Z" fill="#C7C7C7" fill-opacity="0.4"/>
<path d="M58.2 24.6094H57.1875V23.5969C57.1874 23.1195 56.9977 22.6618 56.6602 22.3242C56.3226 21.9867 55.8649 21.797 55.3875 21.7969H54.3C53.8226 21.797 53.3649 21.9867 53.0273 22.3242C52.6898 22.6618 52.5001 23.1195 52.5 23.5969V24.6094H51.4875C51.0101 24.6095 50.5524 24.7992 50.2148 25.1367C49.8773 25.4743 49.6876 25.932 49.6875 26.4094V27.4969C49.6876 27.9742 49.8773 28.432 50.2148 28.7695C50.5524 29.1071 51.0101 29.2968 51.4875 29.2969H52.5V30.3094C52.5001 30.7867 52.6898 31.2445 53.0273 31.582C53.3649 31.9196 53.8226 32.1093 54.3 32.1094H55.3875C55.8649 32.1093 56.3226 31.9196 56.6602 31.582C56.9977 31.2445 57.1874 30.7867 57.1875 30.3094V29.2969H58.2C58.6774 29.2968 59.1351 29.1071 59.4727 28.7695C59.8102 28.432 59.9999 27.9742 60 27.4969V26.4094C59.9999 25.932 59.8102 25.4743 59.4727 25.1367C59.1351 24.7992 58.6774 24.6095 58.2 24.6094Z" fill="#C7C7C7" fill-opacity="0.4"/>
<path d="M1.3023 59.7257C1.56223 59.8343 1.84095 59.8906 2.12261 59.8917C2.39806 59.8909 2.6706 59.8354 2.9244 59.7283C3.17821 59.6213 3.40821 59.4649 3.60105 59.2682L8.24824 54.6211C8.36076 54.5084 8.43173 54.3609 8.44952 54.2027C8.46732 54.0445 8.4309 53.8849 8.34621 53.7501C6.46886 50.7618 5.63449 46.8281 5.86746 42.06C6.10616 38.625 7.07524 35.2805 8.70996 32.25C8.78567 32.1016 8.80626 31.9312 8.76805 31.7691C8.72984 31.6069 8.63531 31.4636 8.50132 31.3647C8.36732 31.2658 8.20255 31.2176 8.03636 31.2288C7.87018 31.24 7.71337 31.3099 7.59387 31.4259L1.05855 37.8098C0.72441 38.138 0.458784 38.5294 0.277088 38.9611C0.0953931 39.3928 0.00124715 39.8563 0.000114217 40.3247V57.7772C-0.00427068 58.1953 0.117692 58.605 0.350037 58.9527C0.582383 59.3004 0.914286 59.5698 1.3023 59.7257Z" fill="#C7C7C7" fill-opacity="0.4"/>
<path d="M56.9526 6.05985e-06H42.495C41.9836 -0.00513031 41.4826 0.144268 41.0575 0.428642C40.6325 0.713015 40.3032 1.11911 40.1128 1.59376C39.9124 2.06388 39.8585 2.58355 39.9583 3.08478C40.0581 3.58601 40.3068 4.04545 40.672 4.40297L42.4884 6.21985L41.5003 7.23282C41.4092 7.32634 41.346 7.44335 41.3177 7.57076C41.2894 7.69817 41.2971 7.83095 41.34 7.95422C41.7106 9.03104 41.682 10.2052 41.2593 11.2627C41.0189 11.8875 40.5614 12.9033 39.9 14.2823C39.8412 14.4041 39.8188 14.5403 39.8354 14.6744C39.852 14.8086 39.907 14.9352 39.9937 15.0389C40.4102 15.5349 40.7099 16.1182 40.8705 16.7457C41.0312 17.3731 41.0487 18.0286 40.9218 18.6638C40.8987 18.7809 40.9057 18.902 40.9423 19.0157C40.9788 19.1293 41.0438 19.2318 41.1309 19.3134C42.8648 20.9304 44.5009 22.6491 46.0308 24.4603C46.0945 24.5357 46.1733 24.5969 46.2621 24.6399C46.3509 24.6829 46.4477 24.7069 46.5464 24.7102H46.5703C46.6648 24.7102 46.7583 24.6911 46.8453 24.6541C46.9323 24.6172 47.0109 24.5631 47.0765 24.495L53.7979 17.527L55.5984 19.3275C55.959 19.688 56.4183 19.9336 56.9184 20.033C57.4185 20.1325 57.9369 20.0815 58.408 19.8863C58.8791 19.6912 59.2817 19.3608 59.565 18.9368C59.8483 18.5129 59.9995 18.0144 59.9995 17.5045V3.04688C59.9985 2.2391 59.6772 1.4647 59.106 0.893511C58.5348 0.322326 57.7604 0.000998416 56.9526 6.05985e-06Z" fill="#C7C7C7" fill-opacity="0.4"/>
<path d="M39.0617 7.01248C38.5419 6.56793 37.8924 6.30314 37.21 6.25753C36.5275 6.21192 35.8486 6.38793 35.2742 6.75935C34.7518 7.11666 34.1467 7.3345 33.5164 7.39216C32.6773 7.39216 32.4992 7.25482 32.3258 6.91404C31.6789 5.64373 28.3241 5.64373 27.6758 6.91404C27.5019 7.25482 27.3242 7.39216 26.4852 7.39216C25.855 7.33368 25.2502 7.11592 24.7273 6.75935C24.1538 6.38809 23.4756 6.21215 22.7939 6.25777C22.1122 6.30338 21.4635 6.56811 20.9445 7.01248C20.4227 7.46496 20.0561 8.06981 19.8963 8.74175C19.7365 9.4137 19.7916 10.1188 20.0539 10.7578C20.3727 11.5828 21.0711 13.0828 21.7648 14.5125L17.7898 12.7125C17.5087 12.5822 17.2046 12.5088 16.895 12.4966C16.5854 12.4844 16.2765 12.5337 15.986 12.6414C15.6955 12.7492 15.4292 12.9135 15.2025 13.1247C14.9758 13.3359 14.7932 13.5898 14.6651 13.872C14.537 14.1541 14.4661 14.4588 14.4563 14.7685C14.4466 15.0782 14.4982 15.3867 14.6083 15.6763C14.7184 15.966 14.8847 16.2309 15.0977 16.456C15.3107 16.681 15.5661 16.8616 15.8492 16.9875L18.268 18.089L14.1383 19.5797C13.519 19.8047 13.0143 20.2662 12.7349 20.8629C12.4554 21.4595 12.4241 22.1427 12.6477 22.7625C12.7699 23.091 12.9593 23.3905 13.2037 23.6418C13.4481 23.8932 13.7422 24.0909 14.0672 24.2223C14.3922 24.3537 14.741 24.416 15.0914 24.4051C15.4418 24.3943 15.7861 24.3106 16.1023 24.1594C12.0148 28.7672 7.6086 35.264 7.2711 42.1265C6.99453 47.775 8.19922 51.9328 10.9508 54.8344C14.9633 59.0672 21.4695 59.9625 29.9961 60H30.5398C38.7805 60 45.0805 59.114 49.0086 55.0125C51.7883 52.1062 53.007 47.8922 52.7305 42.1312C52.257 32.3297 43.4492 23.264 39.1461 19.3969C39.3715 19.0455 39.5187 18.6498 39.5778 18.2365C39.6369 17.8233 39.6066 17.4022 39.4888 17.0017C39.371 16.6012 39.1685 16.2307 38.8951 15.9153C38.6217 15.5998 38.2836 15.3468 37.9039 15.1734C38.6961 13.5656 39.5773 11.7187 39.9477 10.7578C40.2101 10.1193 40.2658 9.41451 40.1069 8.74268C39.948 8.07085 39.5825 7.46574 39.0617 7.01248ZM18.2164 21.9L15.3523 22.9359C15.084 23.0275 14.7904 23.0102 14.5348 22.8875C14.2791 22.7649 14.0819 22.5467 13.9854 22.2801C13.889 22.0135 13.901 21.7196 14.019 21.4618C14.137 21.204 14.3516 21.0028 14.6164 20.9015L20.5508 18.7547C20.6221 18.978 20.723 19.1909 20.8508 19.3875C20.0867 20.0672 19.1914 20.9156 18.2164 21.9ZM20.443 17.3015L20.1617 17.4L16.4258 15.7078C16.3131 15.6567 16.2116 15.5839 16.1271 15.4936C16.0425 15.4033 15.9766 15.2973 15.9331 15.1815C15.8896 15.0657 15.8693 14.9424 15.8734 14.8188C15.8775 14.6952 15.9059 14.5736 15.957 14.4609C16.0624 14.2341 16.2527 14.0579 16.4868 13.9702C16.721 13.8825 16.9802 13.8904 17.2086 13.9922L21.207 15.8062C20.811 16.2188 20.5452 16.7389 20.443 17.3015ZM29.5123 36.4176H30.4892C31.3065 36.4145 32.0929 36.7298 32.6817 37.2966C33.2705 37.8635 33.6154 38.6373 33.6433 39.4541C33.6712 40.2709 33.38 41.0665 32.8312 41.6722C32.2825 42.278 31.5195 42.6462 30.7039 42.6989V43.9594C30.7039 44.1458 30.6298 44.3247 30.498 44.4565C30.3661 44.5884 30.1873 44.6625 30.0008 44.6625C29.8143 44.6625 29.6355 44.5884 29.5036 44.4565C29.3717 44.3247 29.2977 44.1458 29.2977 43.9594V42.7087H29.0239C28.3194 42.7079 27.6441 42.4276 27.146 41.9294C26.6479 41.4312 26.3678 40.7558 26.367 40.0514C26.367 39.8649 26.4411 39.6861 26.573 39.5542C26.7048 39.4223 26.8837 39.3483 27.0702 39.3483C27.2566 39.3483 27.4355 39.4223 27.5673 39.5542C27.6992 39.6861 27.7733 39.8649 27.7733 40.0514C27.7735 40.383 27.9054 40.701 28.1398 40.9356C28.3743 41.1702 28.6923 41.3021 29.0239 41.3025H30.4892C30.9456 41.295 31.3807 41.1084 31.7008 40.7831C32.0208 40.4577 32.2002 40.0196 32.2002 39.5632C32.2002 39.1068 32.0208 38.6686 31.7008 38.3433C31.3807 38.0179 30.9456 37.8314 30.4892 37.8239H29.5123C28.6923 37.8314 27.9017 37.5182 27.3094 36.951C26.717 36.3838 26.3698 35.6076 26.3418 34.788C26.3138 33.9683 26.6072 33.1702 27.1594 32.5639C27.7117 31.9576 28.479 31.5911 29.2977 31.5426V30.2812C29.2977 30.0947 29.3717 29.9159 29.5036 29.784C29.6355 29.6522 29.8143 29.5781 30.0008 29.5781C30.1873 29.5781 30.3661 29.6522 30.498 29.784C30.6298 29.9159 30.7039 30.0947 30.7039 30.2812V31.5319H30.9777C31.6821 31.5326 32.3574 31.8128 32.8555 32.3109C33.3536 32.809 33.6338 33.4843 33.6345 34.1887C33.6345 34.3752 33.5605 34.554 33.4286 34.6859C33.2967 34.8178 33.1179 34.8918 32.9314 34.8918C32.7449 34.8918 32.5661 34.8178 32.4342 34.6859C32.3024 34.554 32.2283 34.3752 32.2283 34.1887C32.2279 33.8572 32.096 33.5393 31.8616 33.3048C31.6271 33.0704 31.3092 32.9385 30.9777 32.9381H29.5123C29.0511 32.9381 28.6088 33.1213 28.2826 33.4475C27.9565 33.7736 27.7733 34.2159 27.7733 34.6772C27.7733 35.1384 27.9565 35.5807 28.2826 35.9069C28.6088 36.233 29.0511 36.4162 29.5123 36.4162V36.4176ZM38.082 17.2359C38.1665 17.4423 38.2051 17.6645 38.1951 17.8872C38.1851 18.11 38.1268 18.3279 38.0243 18.5259C37.9217 18.7238 37.7773 18.8971 37.6012 19.0338C37.425 19.1704 37.2212 19.2671 37.0039 19.3172C32.3901 20.3297 27.6115 20.3297 22.9977 19.3172C22.6093 19.2323 22.2693 18.9993 22.05 18.6677C21.8307 18.3361 21.7494 17.9321 21.8232 17.5415C21.8971 17.1509 22.1203 16.8045 22.4455 16.5758C22.7707 16.3472 23.1723 16.2544 23.5648 16.3172C27.8297 16.9828 32.1719 16.9828 36.4367 16.3172C36.7743 16.2638 37.1199 16.3253 37.4183 16.492C37.7167 16.6586 37.9504 16.9206 38.082 17.2359Z" fill="#C7C7C7" fill-opacity="0.4"/>
</g>
<defs>
<clipPath id="clip0_872_292">
<rect width="60" height="60" fill="white"/>
</clipPath>
</defs>
</svg>
