<svg width="24" height="24" viewBox="0 0 24 24" fill="none" xmlns="http://www.w3.org/2000/svg">
<g clip-path="url(#clip0_795_295)">
<path d="M17.8892 1.26318H6.1103C3.08436 1.26318 0.631348 3.71619 0.631348 6.74213V18.5211C0.631348 21.547 3.08436 24 6.1103 24H17.8892C20.9152 24 23.3682 21.547 23.3682 18.5211V6.74213C23.3682 3.71619 20.9152 1.26318 17.8892 1.26318Z" fill="#16423C"/>
<path d="M17.8892 0H6.1103C3.08436 0 0.631348 2.45301 0.631348 5.47895V17.2579C0.631348 20.2838 3.08436 22.7368 6.1103 22.7368H17.8892C20.9152 22.7368 23.3682 20.2838 23.3682 17.2579V5.47895C23.3682 2.45301 20.9152 0 17.8892 0Z" fill="#889D2E"/>
<path d="M12.1356 15.7897H11.8767C11.617 15.7897 11.368 15.6865 11.1845 15.503C11.0009 15.3194 10.8977 15.0704 10.8977 14.8107V14.2834C10.8764 13.8643 10.9868 13.4491 11.2135 13.096C11.6043 12.628 12.0544 12.213 12.5525 11.8613C13.6051 11.0528 14.1314 10.1971 14.1314 9.2939C14.1444 8.99434 14.0949 8.69537 13.9862 8.41594C13.8775 8.13652 13.7119 7.88275 13.4998 7.67074C13.2858 7.46904 13.0337 7.31208 12.7582 7.20906C12.4827 7.10603 12.1895 7.059 11.8956 7.07074C10.6072 7.07074 9.7651 7.82232 9.36931 9.32548C9.3098 9.56801 9.16097 9.77915 8.95256 9.91673C8.74415 10.0543 8.4915 10.1082 8.2451 10.0676L7.72089 9.976C7.59208 9.952 7.46942 9.90231 7.36023 9.82988C7.25104 9.75745 7.15756 9.66378 7.08536 9.55444C7.01315 9.4451 6.96371 9.32235 6.93997 9.19349C6.91624 9.06463 6.9187 8.93231 6.9472 8.80442C7.17506 7.75573 7.72753 6.80549 8.52615 6.08863C9.53347 5.19503 10.8398 4.71262 12.1862 4.73705C13.3173 4.70399 14.4275 5.04596 15.344 5.70969C15.8841 6.11364 16.3225 6.63792 16.6246 7.2409C16.9266 7.84388 17.0839 8.50897 17.084 9.18337C17.0788 9.77648 16.9486 10.3618 16.7019 10.9013C16.4966 11.3871 16.1997 11.8289 15.8272 12.2023C15.5009 12.5076 14.8125 13.0465 13.7619 13.8192C13.5183 13.9738 13.3217 14.1922 13.1935 14.4507C13.146 14.5928 13.1163 14.7403 13.1051 14.8897C13.0833 15.133 12.9721 15.3596 12.7931 15.5258C12.6141 15.692 12.3799 15.786 12.1356 15.7897ZM13.5093 18.6728V18.8402C13.5093 19.1869 13.3716 19.5195 13.1264 19.7647C12.8812 20.0098 12.5487 20.1476 12.2019 20.1476C12.0304 20.1476 11.8605 20.1137 11.7021 20.048C11.5437 19.9823 11.3998 19.8859 11.2786 19.7645C11.1575 19.643 11.0615 19.4989 10.9961 19.3403C10.9307 19.1817 10.8973 19.0117 10.8977 18.8402V18.6728C10.8977 18.5016 10.9315 18.332 10.997 18.1737C11.0625 18.0155 11.1586 17.8717 11.2797 17.7506C11.4008 17.6295 11.5446 17.5335 11.7028 17.4679C11.8611 17.4024 12.0307 17.3686 12.2019 17.3686C12.5473 17.3678 12.8789 17.504 13.124 17.7473C13.3691 17.9906 13.5076 18.3212 13.5093 18.6665V18.6728Z" fill="#16423C"/>
<path d="M12.1356 14.9054H11.8767C11.7483 14.9059 11.621 14.8809 11.5023 14.8321C11.3835 14.7832 11.2756 14.7114 11.1846 14.6208C11.0937 14.5301 11.0215 14.4224 10.9723 14.3038C10.9231 14.1852 10.8977 14.0581 10.8977 13.9297V13.4054C10.8768 12.9864 10.9872 12.5713 11.2135 12.2181C11.6043 11.7501 12.0544 11.335 12.5525 10.9833C13.604 10.1781 14.1314 9.31912 14.1314 8.41597C14.1444 8.11641 14.0949 7.81744 13.9862 7.53801C13.8775 7.25859 13.7119 7.00482 13.4998 6.79281C13.2858 6.59111 13.0337 6.43415 12.7582 6.33113C12.4827 6.2281 12.1895 6.18107 11.8956 6.19281C10.6072 6.19281 9.7651 6.94439 9.36931 8.44755C9.31047 8.69066 9.16192 8.90256 8.95344 9.04077C8.74495 9.17898 8.49194 9.23328 8.2451 9.19281L7.72089 9.09807C7.59208 9.07407 7.46942 9.02438 7.36023 8.95195C7.25104 8.87952 7.15756 8.78585 7.08536 8.67651C7.01315 8.56717 6.96371 8.44442 6.93997 8.31556C6.91624 8.1867 6.9187 8.05438 6.9472 7.92649C7.17587 6.87812 7.7282 5.9281 8.52615 5.2107C9.53427 4.31636 10.8419 3.83389 12.1893 3.85912C13.3204 3.82606 14.4307 4.16803 15.3472 4.83176C15.8871 5.23588 16.3254 5.76019 16.6274 6.36314C16.9294 6.96608 17.0868 7.63108 17.0872 8.30544C17.0819 8.89855 16.9517 9.4839 16.7051 10.0233C16.5003 10.5095 16.2032 10.9513 15.8304 11.3244C15.5062 11.6381 14.8177 12.1791 13.7651 12.9475C13.5215 13.1022 13.3249 13.3206 13.1967 13.5791C13.1492 13.7223 13.1195 13.8708 13.1083 14.0212C13.0834 14.2625 12.9704 14.4861 12.7909 14.6492C12.6115 14.8124 12.3782 14.9036 12.1356 14.9054ZM13.5093 17.7918V17.9591C13.5093 18.1307 13.4755 18.3005 13.4097 18.459C13.344 18.6174 13.2476 18.7613 13.1262 18.8825C13.0048 19.0036 12.8606 19.0996 12.702 19.165C12.5434 19.2303 12.3735 19.2638 12.2019 19.2633C12.0307 19.2633 11.8611 19.2296 11.7028 19.1641C11.5446 19.0985 11.4008 19.0024 11.2797 18.8813C11.1586 18.7602 11.0625 18.6165 10.997 18.4582C10.9315 18.3 10.8977 18.1304 10.8977 17.9591V17.7918C10.8973 17.6202 10.9307 17.4503 10.9961 17.2917C11.0615 17.1331 11.1575 16.9889 11.2786 16.8675C11.3998 16.7461 11.5437 16.6497 11.7021 16.584C11.8605 16.5182 12.0304 16.4844 12.2019 16.4844C12.3736 16.4844 12.5436 16.5182 12.7022 16.5839C12.8609 16.6496 13.005 16.7459 13.1264 16.8673C13.2478 16.9887 13.3441 17.1328 13.4098 17.2914C13.4755 17.4501 13.5093 17.6201 13.5093 17.7918Z" fill="white"/>
</g>
<defs>
<clipPath id="clip0_795_295">
<rect width="24" height="24" fill="white"/>
</clipPath>
</defs>
</svg>
