<svg width="41" height="41" viewBox="0 0 41 41" fill="none" xmlns="http://www.w3.org/2000/svg">
<path d="M4.6665 12.4309C4.6665 13.4158 4.8605 14.3911 5.23741 15.301C5.61432 16.211 6.16676 17.0378 6.8632 17.7342C7.55964 18.4306 8.38644 18.9831 9.29638 19.36C10.2063 19.7369 11.1816 19.9309 12.1665 19.9309C13.1514 19.9309 14.1267 19.7369 15.0366 19.36C15.9466 18.9831 16.7734 18.4306 17.4698 17.7342C18.1662 17.0378 18.7187 16.211 19.0956 15.301C19.4725 14.3911 19.6665 13.4158 19.6665 12.4309C19.6665 10.4418 18.8763 8.53413 17.4698 7.12761C16.0633 5.72108 14.1556 4.93091 12.1665 4.93091C10.1774 4.93091 8.26973 5.72108 6.8632 7.12761C5.45668 8.53413 4.6665 10.4418 4.6665 12.4309ZM4.6665 29.0976C4.6665 30.0825 4.8605 31.0578 5.23741 31.9677C5.61432 32.8776 6.16676 33.7044 6.8632 34.4009C7.55964 35.0973 8.38644 35.6498 9.29638 36.0267C10.2063 36.4036 11.1816 36.5976 12.1665 36.5976C13.1514 36.5976 14.1267 36.4036 15.0366 36.0267C15.9466 35.6498 16.7734 35.0973 17.4698 34.4009C18.1662 33.7044 18.7187 32.8776 19.0956 31.9677C19.4725 31.0578 19.6665 30.0825 19.6665 29.0976C19.6665 27.1085 18.8763 25.2008 17.4698 23.7943C16.0633 22.3878 14.1556 21.5976 12.1665 21.5976C10.1774 21.5976 8.26973 22.3878 6.8632 23.7943C5.45668 25.2008 4.6665 27.1085 4.6665 29.0976ZM21.3332 29.0976C21.3332 31.0867 22.1233 32.9944 23.5299 34.4009C24.9364 35.8074 26.844 36.5976 28.8332 36.5976C30.8223 36.5976 32.7299 35.8074 34.1365 34.4009C35.543 32.9944 36.3332 31.0867 36.3332 29.0976C36.3332 27.1085 35.543 25.2008 34.1365 23.7943C32.7299 22.3878 30.8223 21.5976 28.8332 21.5976C26.844 21.5976 24.9364 22.3878 23.5299 23.7943C22.1233 25.2008 21.3332 27.1085 21.3332 29.0976ZM29.7082 19.3559L30.1715 18.2959C30.9806 16.4174 32.4651 14.9109 34.3315 14.0742L35.7548 13.4409C36.5265 13.0992 36.5265 11.9776 35.7548 11.6359L34.4115 11.0376C32.4962 10.1801 30.9844 8.6182 30.1898 6.67591L29.7148 5.52924C29.6442 5.3532 29.5225 5.20233 29.3653 5.09607C29.2082 4.98981 29.0229 4.93303 28.8332 4.93303C28.6435 4.93303 28.4581 4.98981 28.301 5.09607C28.1439 5.20233 28.0221 5.3532 27.9515 5.52924L27.4765 6.67591C26.6819 8.6182 25.1702 10.1801 23.2548 11.0376L21.9115 11.6359C21.1398 11.9776 21.1398 13.0992 21.9115 13.4409L23.3348 14.0742C25.2012 14.9109 26.6858 16.4174 27.4948 18.2959L27.9582 19.3559C28.0309 19.5279 28.1527 19.6746 28.3083 19.7778C28.4639 19.8809 28.6465 19.9359 28.8332 19.9359C29.0199 19.9359 29.2024 19.8809 29.3581 19.7778C29.5137 19.6746 29.6355 19.5279 29.7082 19.3559Z" fill="#2E5077"/>
</svg>
