<svg width="61" height="61" viewBox="0 0 61 61" fill="none" xmlns="http://www.w3.org/2000/svg">
<g clip-path="url(#clip0_671_194)">
<path d="M33.4629 30.2448C32.6876 30.2445 31.9297 30.474 31.2849 30.9045C30.6401 31.3349 30.1374 31.9469 29.8404 32.663C29.5434 33.3791 29.4654 34.1672 29.6163 34.9277C29.7672 35.6881 30.1403 36.3867 30.6882 36.9351C31.2362 37.4836 31.9345 37.8572 32.6948 38.0088C33.4551 38.1604 34.2433 38.0831 34.9597 37.7867C35.676 37.4903 36.2884 36.9882 36.7194 36.3437C37.1504 35.6993 37.3806 34.9415 37.381 34.1663C37.3798 33.1272 36.9668 32.1309 36.2323 31.3959C35.4979 30.6608 34.502 30.2469 33.4629 30.2448ZM33.4629 36.2077C33.0587 36.208 32.6634 36.0885 32.3272 35.8641C31.991 35.6397 31.7288 35.3207 31.574 34.9473C31.4191 34.5739 31.3785 34.163 31.4573 33.7665C31.536 33.3701 31.7306 33.0059 32.0165 32.72C32.3023 32.4342 32.6665 32.2396 33.0629 32.1608C33.4594 32.082 33.8703 32.1226 34.2437 32.2774C34.6171 32.4322 34.9362 32.6944 35.1606 33.0306C35.3849 33.3668 35.5045 33.762 35.5042 34.1663C35.5031 34.7073 35.2877 35.2259 34.9051 35.6085C34.5225 35.9911 34.004 36.2066 33.4629 36.2077ZM31.3983 40.7663C31.3983 40.8895 31.3741 41.0115 31.3269 41.1254C31.2798 41.2392 31.2106 41.3427 31.1235 41.4298C31.0364 41.517 30.9329 41.5861 30.8191 41.6333C30.7052 41.6804 30.5832 41.7047 30.46 41.7047H23.0922C22.8433 41.7047 22.6046 41.6058 22.4286 41.4298C22.2526 41.2539 22.1537 41.0152 22.1537 40.7663C22.1537 40.5174 22.2526 40.2787 22.4286 40.1027C22.6046 39.9267 22.8433 39.8278 23.0922 39.8278H30.46C30.5833 39.8278 30.7053 39.8521 30.8192 39.8993C30.9331 39.9465 31.0366 40.0157 31.1237 40.1029C31.2109 40.1901 31.28 40.2936 31.3271 40.4076C31.3742 40.5215 31.3984 40.6436 31.3983 40.7669V40.7663ZM24.0076 34.1663C24.008 33.3909 23.7783 32.6328 23.3477 31.9879C22.9171 31.3431 22.305 30.8404 21.5886 30.5435C20.8723 30.2466 20.084 30.1689 19.3235 30.3201C18.563 30.4713 17.8644 30.8446 17.3161 31.3929C16.7678 31.9412 16.3945 32.6398 16.2433 33.4003C16.0921 34.1608 16.1698 34.9491 16.4667 35.6654C16.7636 36.3817 17.2663 36.9939 17.9111 37.4245C18.556 37.8551 19.3141 38.0848 20.0895 38.0844C21.1281 38.0828 22.1238 37.6695 22.8583 36.9351C23.5927 36.2006 24.006 35.2049 24.0076 34.1663ZM20.0895 36.2077C19.6853 36.208 19.29 36.0884 18.9538 35.864C18.6176 35.6397 18.3555 35.3206 18.2006 34.9472C18.0458 34.5738 18.0052 34.1629 18.084 33.7665C18.1627 33.37 18.3574 33.0058 18.6432 32.72C18.929 32.4342 19.2932 32.2395 19.6897 32.1608C20.0861 32.082 20.497 32.1226 20.8704 32.2774C21.2438 32.4323 21.5629 32.6944 21.7872 33.0306C22.0116 33.3668 22.1312 33.7621 22.1309 34.1663C22.1298 34.7074 21.9143 35.2261 21.5316 35.6087C21.149 35.9913 20.6303 36.2067 20.0891 36.2077H20.0895ZM34.1808 27.6638H19.3683C17.0655 27.6806 14.8627 28.6073 13.2403 30.2416C11.6179 31.876 10.7074 34.0855 10.7074 36.3884C10.7074 38.6913 11.6179 40.9008 13.2403 42.5351C14.8627 44.1695 17.0655 45.0961 19.3683 45.113H34.1808C36.4836 45.0961 38.6864 44.1695 40.3088 42.5351C41.9312 40.9008 42.8417 38.6913 42.8417 36.3884C42.8417 34.0855 41.9312 31.876 40.3088 30.2416C38.6864 28.6073 36.4836 27.6806 34.1808 27.6638ZM34.1808 43.2366H19.3683C17.5521 43.2366 15.8103 42.5151 14.5261 41.2309C13.2418 39.9466 12.5203 38.2048 12.5203 36.3886C12.5203 34.5724 13.2418 32.8306 14.5261 31.5464C15.8103 30.2621 17.5521 29.5406 19.3683 29.5406H34.1808C35.997 29.5406 37.7388 30.2621 39.023 31.5464C40.3073 32.8306 41.0288 34.5724 41.0288 36.3886C41.0288 38.2048 40.3073 39.9466 39.023 41.2309C37.7388 42.5151 35.997 43.2366 34.1808 43.2366ZM41.7729 13.0592C41.7729 13.308 41.674 13.5467 41.498 13.7227C41.3221 13.8987 41.0834 13.9976 40.8345 13.9976H40.0538C39.9297 13.999 39.8065 13.9757 39.6914 13.9292C39.5764 13.8827 39.4717 13.8138 39.3834 13.7265C39.2952 13.6392 39.2251 13.5353 39.1773 13.4208C39.1295 13.3062 39.1048 13.1833 39.1048 13.0592C39.1048 12.9351 39.1295 12.8122 39.1773 12.6977C39.2251 12.5831 39.2952 12.4792 39.3834 12.3919C39.4717 12.3047 39.5764 12.2358 39.6914 12.1892C39.8065 12.1427 39.9297 12.1195 40.0538 12.1208H40.8345C41.0833 12.1209 41.3219 12.2198 41.4978 12.3957C41.6737 12.5717 41.7726 12.8103 41.7726 13.0592H41.7729ZM58.7159 3.71767C57.7801 2.91963 56.6381 2.58025 55.5015 2.76154L35.9393 5.8874C33.126 6.33588 31.2356 8.28084 31.2356 10.7272V14.498C26.0759 13.3291 20.6631 14.2533 16.1835 17.0679C11.7038 19.8825 8.52246 24.358 7.33654 29.5139H5.40166V22.4072C6.33123 22.1779 7.1447 21.6162 7.68848 20.8282C8.23226 20.0402 8.46873 19.0804 8.35324 18.1299C8.23776 17.1795 7.77831 16.3042 7.06163 15.6694C6.34496 15.0345 5.42065 14.684 4.46322 14.684C3.50579 14.684 2.58149 15.0345 1.86481 15.6694C1.14814 16.3042 0.688688 17.1795 0.573201 18.1299C0.457715 19.0804 0.694185 20.0402 1.23797 20.8282C1.78175 21.6162 2.59521 22.1779 3.52478 22.4072V29.6104C2.66628 29.8054 1.89939 30.286 1.34964 30.9737C0.799877 31.6613 0.499807 32.5152 0.498535 33.3955V39.3783C0.499248 40.4078 0.908325 41.3951 1.63602 42.1234C2.36371 42.8517 3.35059 43.2616 4.38014 43.2632H6.84658V48.7326C6.84959 51.398 7.90978 53.9534 9.79455 55.8382C11.6793 57.7229 14.2348 58.7831 16.9002 58.7861H36.6485C39.3144 58.7836 41.8705 57.7237 43.7559 55.8389C45.6413 53.9541 46.702 51.3985 46.7054 48.7326V43.2632H49.1686C50.1986 43.262 51.186 42.8523 51.9143 42.124C52.6426 41.3957 53.0523 40.4083 53.0535 39.3783V33.3955C53.0519 32.366 52.642 31.3791 51.9137 30.6514C51.1854 29.9238 50.1981 29.5147 49.1686 29.5139H46.2089C45.5667 26.7069 44.3224 24.0729 42.5622 21.794H55.6495C56.9358 21.7925 58.169 21.2809 59.0785 20.3714C59.9881 19.4619 60.4997 18.2287 60.5011 16.9424V7.60467C60.4938 6.86764 60.3309 6.14045 60.0233 5.47065C59.7157 4.80085 59.2702 4.20351 58.7159 3.71767ZM2.4217 18.6001C2.42202 18.1961 2.54216 17.8012 2.76691 17.4654C2.99166 17.1296 3.31093 16.8681 3.68435 16.7137C4.05777 16.5594 4.46857 16.5193 4.86479 16.5984C5.26102 16.6776 5.62488 16.8724 5.91036 17.1584C6.19584 17.4443 6.39011 17.8085 6.46862 18.2048C6.54713 18.6012 6.50634 19.0119 6.35142 19.3851C6.1965 19.7583 5.93439 20.0771 5.59826 20.3013C5.26212 20.5255 4.86704 20.645 4.46299 20.6447C3.92123 20.6441 3.40188 20.4284 3.0191 20.045C2.63633 19.6616 2.42145 19.1419 2.4217 18.6001ZM6.84658 33.9172V41.3863H4.38014C3.8481 41.3854 3.33816 41.1735 2.96221 40.797C2.58626 40.4206 2.37501 39.9103 2.37482 39.3783V33.3955C2.37548 32.864 2.58691 32.3545 2.96276 31.9786C3.3386 31.6028 3.84816 31.3914 4.37967 31.3908H7.00643C6.9 32.2287 6.84661 33.0726 6.84658 33.9172ZM49.1686 31.3908C49.7006 31.391 50.2107 31.6021 50.5872 31.978C50.9636 32.3538 51.1756 32.8636 51.1767 33.3955V39.3783C51.1761 39.9107 50.9643 40.4211 50.5878 40.7975C50.2114 41.1739 49.701 41.3857 49.1686 41.3863H46.7054V33.9172C46.7051 33.0725 46.6506 32.2286 46.5424 31.3908H49.1686ZM44.5294 30.6563C44.7284 31.7318 44.8286 32.8232 44.8286 33.917V48.7326C44.8257 50.9008 43.9629 52.9793 42.4294 54.5122C40.896 56.0451 38.8171 56.9072 36.6489 56.9093H16.9002C14.7323 56.9069 12.6539 56.0446 11.121 54.5117C9.58807 52.9788 8.72579 50.9004 8.72334 48.7326V48.6797C9.39634 49.4211 10.2171 50.0135 11.1327 50.4188C12.0484 50.8241 13.0387 51.0332 14.04 51.0328H22.9689C23.1982 51.9623 23.7598 52.7758 24.5478 53.3195C25.3357 53.8633 26.2955 54.0997 27.2459 53.9842C28.1963 53.8688 29.0715 53.4093 29.7063 52.6927C30.3412 51.9761 30.6917 51.0518 30.6917 50.0945C30.6917 49.1371 30.3412 48.2128 29.7063 47.4962C29.0715 46.7796 28.1963 46.3201 27.2459 46.2047C26.2955 46.0892 25.3357 46.3256 24.5478 46.8694C23.7598 47.4131 23.1982 48.2266 22.9689 49.1561H14.04C12.6305 49.1545 11.2792 48.5939 10.2825 47.5972C9.2858 46.6006 8.72508 45.2494 8.72334 43.8399V33.9176C8.72324 32.8246 8.82231 31.7338 9.01935 30.6587C9.02264 30.6437 9.02545 30.6285 9.02803 30.6133C10.585 22.2332 17.9508 15.8678 26.7764 15.8678C28.2806 15.867 29.7789 16.0551 31.2361 16.4278V16.9425C31.2376 18.1934 31.7216 19.3955 32.5873 20.2984C33.4529 21.2014 34.6336 21.7356 35.8833 21.7897V24.7356C35.8833 24.9154 35.9349 25.0914 36.0321 25.2427C36.1292 25.3939 36.2678 25.5141 36.4312 25.5889C36.5947 25.6638 36.7763 25.69 36.9542 25.6646C37.1322 25.6393 37.2992 25.5633 37.4352 25.4458L40.7751 22.5604C42.6752 24.8878 43.9628 27.6538 44.5205 30.6062C44.5229 30.6231 44.5256 30.64 44.5294 30.6563ZM24.7314 50.0945C24.7317 49.6906 24.8518 49.2959 25.0764 48.9602C25.301 48.6245 25.6201 48.3629 25.9934 48.2085C26.3666 48.0541 26.7772 48.0138 27.1733 48.0927C27.5695 48.1716 27.9333 48.3661 28.2189 48.6517C28.5045 48.9374 28.699 49.3012 28.7779 49.6974C28.8568 50.0935 28.8165 50.5041 28.662 50.8773C28.5076 51.2506 28.246 51.5696 27.9103 51.7942C27.5746 52.0188 27.1799 52.1389 26.776 52.1392C26.2337 52.139 25.7138 51.9235 25.3304 51.5401C24.947 51.1567 24.7315 50.6367 24.7314 50.0945ZM58.6248 16.9425C58.6239 17.7312 58.3102 18.4873 57.7525 19.045C57.1948 19.6027 56.4387 19.9163 55.65 19.9172H41.3125C41.0872 19.9172 40.8695 19.9982 40.699 20.1455L37.7597 22.6848V20.8556C37.7597 20.6068 37.6608 20.3681 37.4848 20.1921C37.3088 20.0161 37.0702 19.9172 36.8213 19.9172H36.0871C35.2984 19.9163 34.5423 19.6027 33.9846 19.045C33.427 18.4873 33.1133 17.7312 33.1124 16.9425V15.7083C33.1124 15.705 33.1124 15.7017 33.1124 15.6986V10.7274C33.1124 8.89033 34.7945 7.97053 36.2352 7.74084L55.7977 4.61498C56.1026 4.57321 56.4131 4.59911 56.7069 4.69084C57.0007 4.78257 57.2708 4.93787 57.4978 5.14572C57.8481 5.45323 58.1295 5.8312 58.3237 6.25492C58.5179 6.67864 58.6205 7.13858 58.6248 7.60467V16.9425ZM47.1975 13.0592C47.1975 13.308 47.0986 13.5467 46.9227 13.7227C46.7467 13.8987 46.508 13.9976 46.2591 13.9976H45.4785C45.3544 13.999 45.2312 13.9757 45.1162 13.9292C45.0011 13.8827 44.8964 13.8138 44.8081 13.7265C44.7199 13.6392 44.6498 13.5353 44.602 13.4208C44.5542 13.3062 44.5296 13.1833 44.5296 13.0592C44.5296 12.9351 44.5542 12.8122 44.602 12.6977C44.6498 12.5831 44.7199 12.4792 44.8081 12.3919C44.8964 12.3047 45.0011 12.2358 45.1162 12.1892C45.2312 12.1427 45.3544 12.1195 45.4785 12.1208H46.2591C46.5079 12.1209 46.7464 12.2198 46.9223 12.3958C47.0982 12.5717 47.197 12.8104 47.197 13.0592H47.1975ZM52.6188 13.0592C52.6188 13.308 52.52 13.5467 52.344 13.7227C52.168 13.8987 51.9293 13.9976 51.6804 13.9976H50.8998C50.7757 13.999 50.6526 13.9757 50.5375 13.9292C50.4224 13.8827 50.3177 13.8138 50.2295 13.7265C50.1412 13.6392 50.0712 13.5353 50.0233 13.4208C49.9755 13.3062 49.9509 13.1833 49.9509 13.0592C49.9509 12.9351 49.9755 12.8122 50.0233 12.6977C50.0712 12.5831 50.1412 12.4792 50.2295 12.3919C50.3177 12.3047 50.4224 12.2358 50.5375 12.1892C50.6526 12.1427 50.7757 12.1195 50.8998 12.1208H51.6804C51.9292 12.1209 52.1678 12.2198 52.3437 12.3958C52.5196 12.5717 52.6184 12.8104 52.6184 13.0592H52.6188Z" fill="url(#paint0_linear_671_194)"/>
</g>
<defs>
<linearGradient id="paint0_linear_671_194" x1="0.498535" y1="30.75" x2="60.5011" y2="30.75" gradientUnits="userSpaceOnUse">
<stop stop-color="#E3D708"/>
<stop offset="1" stop-color="#16423C"/>
</linearGradient>
<clipPath id="clip0_671_194">
<rect width="60" height="60" fill="white" transform="translate(0.5 0.75)"/>
</clipPath>
</defs>
</svg>
