<svg width="24" height="24" viewBox="0 0 24 24" fill="none" xmlns="http://www.w3.org/2000/svg">
<g clip-path="url(#clip0_747_1661)">
<path d="M11.8145 15.7071L12.0152 15.8491C12.291 15.6494 12.4733 15.4254 12.5348 15.1885C12.3504 15.3795 12.1069 15.5541 11.8145 15.7071Z" fill="#4F938A"/>
<path d="M12.3311 16.0726L12.5577 16.2329V15.8633C12.4904 15.9354 12.4146 16.0053 12.3311 16.0726Z" fill="#4F938A"/>
<path d="M4.5625 13.0854C4.58448 13.1702 4.62198 13.2532 4.67359 13.3341H4.84792C4.74123 13.2549 4.64594 13.1718 4.5625 13.0854Z" fill="#4F938A"/>
<path d="M9.69824 14.2104L10.0686 14.4722C11.3887 14.2354 12.3739 13.7042 12.5346 13.0854C12.0008 13.6382 10.9712 14.0529 9.69824 14.2104Z" fill="#4F938A"/>
<path d="M12.5573 13.7607C12.1434 14.2045 11.412 14.5617 10.4912 14.7719L11.4659 15.4612C12.1391 15.1564 12.5573 14.7502 12.5573 14.3114V13.7607Z" fill="#4F938A"/>
<path d="M8.54814 12.501C10.7213 12.501 12.5573 11.7242 12.5573 10.8047C12.5573 9.88521 10.7213 9.1084 8.54814 9.1084C6.37497 9.1084 4.53906 9.88521 4.53906 10.8047C4.53906 11.7242 6.37497 12.501 8.54814 12.501ZM6.06841 10.5733H6.65041C6.75817 10.213 7.17142 9.95187 7.67931 9.95187C7.78286 9.95187 7.86681 10.0358 7.86681 10.1394C7.86681 10.2429 7.78286 10.3269 7.67931 10.3269C7.30984 10.3269 6.99766 10.5256 6.99766 10.7608C6.99766 10.996 7.3098 11.1947 7.67931 11.1947C8.04864 11.1947 8.36064 10.996 8.36064 10.7608C8.36064 10.3072 8.82475 9.95187 9.4172 9.95187C9.92505 9.95187 10.3383 10.213 10.4461 10.5733H11.0279C11.1314 10.5733 11.2154 10.6572 11.2154 10.7608C11.2154 10.8643 11.1314 10.9483 11.0279 10.9483H10.4461C10.3383 11.3085 9.92505 11.5697 9.4172 11.5697C9.31366 11.5697 9.2297 11.4858 9.2297 11.3822C9.2297 11.2787 9.31366 11.1947 9.4172 11.1947C9.78667 11.1947 10.0988 10.996 10.0988 10.7608C10.0988 10.5256 9.78667 10.3269 9.4172 10.3269C9.04778 10.3269 8.73564 10.5256 8.73564 10.7608C8.73564 11.2144 8.27167 11.5697 7.67931 11.5697C7.17142 11.5697 6.75817 11.3085 6.65041 10.9483H6.06841C5.96486 10.9483 5.88091 10.8643 5.88091 10.7608C5.88091 10.6572 5.96486 10.5733 6.06841 10.5733Z" fill="#4F938A"/>
<path d="M5.57823 13.3342H8.39898C8.43775 13.3342 8.47558 13.3463 8.50727 13.3687L9.229 13.8791C11.0914 13.7377 12.5573 13.0301 12.5573 12.2084V11.6577C11.8815 12.3823 10.3594 12.8762 8.54814 12.8762C6.73684 12.8762 5.21486 12.3823 4.53906 11.6577V12.2084C4.53902 12.6358 4.93567 13.0322 5.57823 13.3342Z" fill="#4F938A"/>
<path d="M14.7178 18.4915L15.282 18.1604C14.7591 18.0024 14.3153 17.7931 13.9801 17.5464L13.916 17.584C14.0384 17.9317 14.0376 18.2917 13.9195 18.6074L14.7178 18.4915Z" fill="#4F938A"/>
<path d="M18.4074 18.4572C18.1687 18.4755 17.923 18.4852 17.6718 18.4852C16.9968 18.4852 16.3622 18.4165 15.7964 18.293L14.8761 18.8332C14.8552 18.8454 14.8322 18.8535 14.8082 18.8571L13.6714 19.0221C13.6441 19.0532 13.6157 19.0833 13.5859 19.1115H16.7999L18.4074 18.4572Z" fill="#4F938A"/>
<path d="M23.5548 17.9504C23.3954 17.559 22.9821 17.306 22.5018 17.306C22.3209 17.306 22.1422 17.3415 21.9704 17.4114L21.5016 17.6023C21.5002 17.6028 21.4992 17.6037 21.4978 17.6042L16.9069 19.4728C16.8844 19.4819 16.8604 19.4867 16.8362 19.4867H12.6243C12.6222 19.4867 12.6202 19.4861 12.6181 19.4861C12.6128 19.4861 12.6074 19.4862 12.6021 19.4862C12.2079 19.4862 11.8183 19.3429 11.501 19.0809L8.29818 17.0298C8.21099 16.9739 8.18554 16.858 8.24141 16.7708C8.29729 16.6836 8.41326 16.6582 8.50045 16.714L11.7131 18.7714C11.7198 18.7757 11.7262 18.7804 11.7323 18.7855C11.9889 19.0003 12.3049 19.1173 12.6214 19.111C12.6231 19.1109 12.6246 19.1113 12.6263 19.1114C12.9426 19.105 13.2193 18.9793 13.4056 18.7566C13.6642 18.4477 13.7053 18 13.5134 17.5872C13.5127 17.586 13.5119 17.585 13.5113 17.5838C13.4256 17.401 13.3029 17.2411 13.1462 17.1084L8.33976 13.7095H3.49916L3.49902 19.2288L9.49982 21.6797L17.3022 21.6799L22.7973 19.4429C23.4428 19.1801 23.7826 18.5106 23.5548 17.9504Z" fill="#4F938A"/>
<path d="M3.12413 12.81C3.12413 12.5218 2.88966 12.2873 2.60142 12.2873L0.897609 12.2871C0.609375 12.2871 0.375 12.5215 0.375 12.8097L0.375094 20.1775C0.375094 20.4657 0.609562 20.7002 0.897797 20.7003H2.60128H2.60147C2.74027 20.7003 2.87123 20.6457 2.97033 20.5467C3.06942 20.4476 3.12394 20.3166 3.12394 20.1778L3.12413 12.81ZM1.74956 20.1341C1.17019 20.1341 0.698859 19.6627 0.698859 19.0833C0.698859 18.504 1.17019 18.0326 1.74956 18.0326C2.32894 18.0326 2.80031 18.504 2.80031 19.0833C2.80031 19.6627 2.32894 20.1341 1.74956 20.1341Z" fill="#16423C"/>
<path d="M1.74992 18.4072C1.37736 18.4072 1.07422 18.7104 1.07422 19.083C1.07422 19.4556 1.37736 19.7587 1.74992 19.7587C2.12253 19.7587 2.42567 19.4556 2.42567 19.083C2.42567 18.7104 2.12253 18.4072 1.74992 18.4072Z" fill="#4F938A"/>
<path d="M6.11499 7.36203C6.22754 7.47462 6.37721 7.53659 6.5364 7.53659C6.69559 7.53659 6.84526 7.47458 6.95785 7.36203L9.4276 4.89228C9.50087 4.81911 9.61955 4.81911 9.69277 4.89228L10.3345 5.534L11.0903 2.38672L7.94298 3.14244L8.58479 3.78425C8.61994 3.81941 8.63968 3.86712 8.63968 3.91686C8.63968 3.96659 8.61994 4.01427 8.58479 4.04947L6.11499 6.51927C6.0024 6.63181 5.94043 6.78148 5.94043 6.94067C5.94038 7.09981 6.0024 7.24948 6.11499 7.36203Z" fill="#16423C"/>
<path d="M21.6661 15.1504C20.9832 15.8666 19.4699 16.3537 17.6714 16.3537C15.8729 16.3537 14.3596 15.8666 13.6768 15.1504C13.8511 16.0075 15.6093 16.7069 17.6714 16.7069C19.7335 16.7069 21.4918 16.0075 21.6661 15.1504Z" fill="#4F938A"/>
<path d="M17.6712 18.1103C19.8444 18.1103 21.6803 17.3335 21.6803 16.414V15.8633C21.0045 16.5878 19.4825 17.0818 17.6712 17.0818C15.8599 17.0818 14.3379 16.5878 13.6621 15.8633V16.414C13.6621 17.3335 15.498 18.1103 17.6712 18.1103Z" fill="#4F938A"/>
<path d="M21.6661 13.0186C20.9832 13.7348 19.4699 14.2218 17.6714 14.2218C15.8729 14.2218 14.3596 13.7348 13.6768 13.0186C13.8512 13.8757 15.6094 14.5751 17.6714 14.5751C19.7335 14.5751 21.4917 13.8757 21.6661 13.0186Z" fill="#4F938A"/>
<path d="M17.6712 15.9785C19.8444 15.9785 21.6803 15.2017 21.6803 14.2821V13.7314C21.0045 14.456 19.4825 14.95 17.6712 14.95C15.8599 14.95 14.3379 14.456 13.6621 13.7315V14.2821C13.6621 15.2017 15.498 15.9785 17.6712 15.9785Z" fill="#4F938A"/>
<path d="M21.6661 10.8862C20.9832 11.6024 19.4699 12.0895 17.6714 12.0895C15.8729 12.0895 14.3596 11.6024 13.6768 10.8862C13.8512 11.7433 15.6094 12.4428 17.6714 12.4428C19.7335 12.4428 21.4917 11.7433 21.6661 10.8862Z" fill="#4F938A"/>
<path d="M17.6712 13.8467C19.8444 13.8467 21.6803 13.0698 21.6803 12.1503V11.5996C21.0045 12.3242 19.4825 12.8181 17.6712 12.8181C15.8599 12.8181 14.3379 12.3242 13.6621 11.5996V12.1503C13.6621 13.0698 15.498 13.8467 17.6712 13.8467Z" fill="#4F938A"/>
<path d="M21.6661 8.75439C20.9832 9.4706 19.4699 9.95763 17.6714 9.95763C15.8729 9.95763 14.3596 9.4706 13.6768 8.75439C13.8512 9.6115 15.6094 10.311 17.6714 10.311C19.7335 10.3109 21.4917 9.61146 21.6661 8.75439Z" fill="#4F938A"/>
<path d="M17.6712 11.7149C19.8444 11.7149 21.6803 10.938 21.6803 10.0185V9.46777C21.0045 10.1924 19.4825 10.6863 17.6712 10.6863C15.8599 10.6863 14.3379 10.1924 13.6621 9.46782V10.0185C13.6621 10.938 15.498 11.7149 17.6712 11.7149Z" fill="#4F938A"/>
<path d="M21.6661 6.62256C20.9832 7.33876 19.4699 7.82579 17.6714 7.82579C15.8729 7.82579 14.3596 7.33876 13.6768 6.62256C13.8512 7.47967 15.6094 8.17914 17.6714 8.17914C19.7335 8.17914 21.4917 7.47962 21.6661 6.62256Z" fill="#4F938A"/>
<path d="M17.6712 9.58303C19.8444 9.58303 21.6803 8.80617 21.6803 7.88667V7.33594C21.0045 8.06053 19.4825 8.5545 17.6712 8.5545C15.8599 8.5545 14.3379 8.06053 13.6621 7.33598V7.88667C13.6621 8.80617 15.498 9.58303 17.6712 9.58303Z" fill="#4F938A"/>
<path d="M17.6712 6.04746C19.8444 6.04746 21.6803 5.27064 21.6803 4.3511C21.6803 3.4316 19.8444 2.65479 17.6712 2.65479C15.498 2.65479 13.6621 3.4316 13.6621 4.3511C13.6621 5.27064 15.498 6.04746 17.6712 6.04746ZM15.1915 4.11968H15.7735C15.8813 3.75939 16.2945 3.49825 16.8024 3.49825C16.9059 3.49825 16.9899 3.58221 16.9899 3.68575C16.9899 3.7893 16.9059 3.87325 16.8024 3.87325C16.4329 3.87325 16.1207 4.07196 16.1207 4.30718C16.1207 4.54239 16.4329 4.7411 16.8024 4.7411C17.1717 4.7411 17.4837 4.54239 17.4837 4.30718C17.4837 3.85357 17.9477 3.49825 18.5402 3.49825C19.0481 3.49825 19.4613 3.75944 19.5692 4.11968H20.151C20.2545 4.11968 20.3385 4.20363 20.3385 4.30718C20.3385 4.41072 20.2545 4.49468 20.151 4.49468H19.5692C19.4614 4.85496 19.0481 5.1161 18.5402 5.1161C18.4367 5.1161 18.3527 5.03214 18.3527 4.9286C18.3527 4.82505 18.4367 4.7411 18.5402 4.7411C18.9097 4.7411 19.2219 4.54239 19.2219 4.30718C19.2219 4.07196 18.9097 3.87325 18.5402 3.87325C18.1708 3.87325 17.8587 4.07196 17.8587 4.30718C17.8587 4.76079 17.3947 5.1161 16.8024 5.1161C16.2945 5.1161 15.8813 4.85496 15.7735 4.49468H15.1915C15.0879 4.49468 15.004 4.41072 15.004 4.30718C15.004 4.20363 15.0879 4.11968 15.1915 4.11968Z" fill="#4F938A"/>
<path d="M17.6712 7.4512C19.8444 7.4512 21.6803 6.67434 21.6803 5.75484V5.2041C21.0045 5.9287 19.4825 6.42262 17.6712 6.42262C15.8599 6.42262 14.3379 5.92865 13.6621 5.2041V5.75484C13.6621 6.67434 15.498 7.4512 17.6712 7.4512Z" fill="#4F938A"/>
<path d="M6.06934 10.9486H6.65134C6.7591 11.3088 7.17235 11.57 7.68024 11.57C8.2726 11.57 8.73657 11.2147 8.73657 10.7611C8.73657 10.5259 9.04871 10.3271 9.41813 10.3271C9.7876 10.3271 10.0997 10.5259 10.0997 10.7611C10.0997 10.9963 9.7876 11.195 9.41813 11.195C9.31459 11.195 9.23063 11.2789 9.23063 11.3825C9.23063 11.486 9.31459 11.57 9.41813 11.57C9.92598 11.57 10.3392 11.3088 10.447 10.9486H11.0288C11.1324 10.9486 11.2163 10.8646 11.2163 10.7611C11.2163 10.6575 11.1324 10.5736 11.0288 10.5736H10.447C10.3392 10.2133 9.92598 9.95215 9.41813 9.95215C8.82568 9.95215 8.36157 10.3075 8.36157 10.7611C8.36157 10.9963 8.04957 11.195 7.68024 11.195C7.31077 11.195 6.99859 10.9963 6.99859 10.7611C6.99859 10.5259 7.31073 10.3271 7.68024 10.3271C7.78379 10.3271 7.86774 10.2432 7.86774 10.1396C7.86774 10.0361 7.78379 9.95215 7.68024 9.95215C7.17235 9.95215 6.7591 10.2133 6.65134 10.5736H6.06934C5.96579 10.5736 5.88184 10.6575 5.88184 10.7611C5.88184 10.8646 5.96579 10.9486 6.06934 10.9486Z" fill="black"/>
<path d="M22.5018 16.9308C22.2788 16.9308 22.059 16.9734 21.8479 17.0568C21.9827 16.8551 22.0555 16.6393 22.0555 16.414V15.0104C22.0555 14.8859 22.0332 14.7642 21.9907 14.6462C22.0333 14.5282 22.0555 14.4066 22.0555 14.282V12.8785C22.0555 12.754 22.0332 12.6323 21.9907 12.5143C22.0332 12.3963 22.0555 12.2748 22.0555 12.1502V10.7466C22.0555 10.6221 22.0332 10.5004 21.9907 10.3825C22.0332 10.2645 22.0555 10.1428 22.0555 10.0183V8.61475C22.0555 8.49021 22.0332 8.36857 21.9907 8.25058C22.0332 8.1326 22.0555 8.01096 22.0555 7.88641V6.48297C22.0555 6.35843 22.0332 6.23679 21.9907 6.1188C22.0332 6.00082 22.0555 5.87918 22.0555 5.75463V4.3511C22.0555 3.18958 20.1298 2.27979 17.6714 2.27979C15.213 2.27979 13.2873 3.18963 13.2873 4.3511V5.75463C13.2873 5.87918 13.3096 6.00082 13.3522 6.1188C13.3096 6.23674 13.2873 6.35838 13.2873 6.48297V7.8865C13.2873 8.01105 13.3096 8.13269 13.3522 8.25068C13.3096 8.36861 13.2873 8.49025 13.2873 8.61485V10.0184C13.2873 10.1429 13.3096 10.2646 13.3522 10.3826C13.3096 10.5005 13.2873 10.6221 13.2873 10.7467V12.1503C13.2873 12.2748 13.3096 12.3964 13.3522 12.5144C13.3096 12.6324 13.2873 12.754 13.2873 12.8786V14.2821C13.2873 14.4066 13.3096 14.5283 13.3522 14.6463C13.3096 14.7643 13.2873 14.8859 13.2873 15.0105V16.4141C13.2873 16.5466 13.3127 16.6758 13.3607 16.8008L12.9292 16.4956C12.9313 16.4686 12.9327 16.4414 12.9327 16.4141V15.0105C12.9327 14.891 12.912 14.7743 12.8728 14.6609C12.912 14.5475 12.9327 14.4308 12.9327 14.3113V12.9077C12.9327 12.7882 12.912 12.6715 12.8728 12.5581C12.912 12.4447 12.9327 12.328 12.9327 12.2086V10.805C12.9327 9.64352 11.007 8.73372 8.54859 8.73372C6.09023 8.73372 4.16452 9.64357 4.16452 10.805V12.2086C4.16452 12.328 4.18519 12.4447 4.22442 12.5581C4.18519 12.6715 4.16452 12.7882 4.16452 12.9077V13.3344H3.49913V12.8099C3.49913 12.315 3.09647 11.9123 2.60152 11.9122L0.897469 11.912C0.402609 11.912 0 12.3146 0 12.8096L9.375e-05 20.1774C9.375e-05 20.6723 0.40275 21.075 0.89775 21.0752H2.60128H2.60147C2.84044 21.0752 3.06558 20.9816 3.23545 20.8117C3.40538 20.6418 3.49894 20.4166 3.49894 20.1776V19.6338L9.39202 22.0407C9.41452 22.0499 9.43861 22.0546 9.46289 22.0546L17.3388 22.0548C17.3631 22.0548 17.3871 22.0501 17.4095 22.041L22.9387 19.7902C23.7756 19.4493 24.2078 18.5606 23.902 17.809C23.6849 17.2756 23.1353 16.9308 22.5018 16.9308ZM9.49978 21.6796L3.49898 19.2287L3.49913 13.7094H8.33986L13.1463 17.1083C13.3029 17.241 13.4258 17.4008 13.5114 17.5837C13.512 17.5849 13.5128 17.5859 13.5135 17.5871C13.7054 17.9999 13.6643 18.4476 13.4057 18.7565C13.2193 18.9791 12.9427 19.105 12.6264 19.1113C12.6247 19.1112 12.6232 19.1108 12.6215 19.1109C12.305 19.1172 11.989 19.0002 11.7324 18.7854C11.7263 18.7803 11.7199 18.7756 11.7132 18.7713L8.50055 16.7139C8.41336 16.6581 8.29739 16.6835 8.24152 16.7707C8.18564 16.8579 8.21109 16.9738 8.29828 17.0297L11.5011 19.0808C11.8184 19.3428 12.208 19.4861 12.6022 19.4861C12.6075 19.4861 12.6129 19.486 12.6182 19.486C12.6203 19.486 12.6223 19.4866 12.6244 19.4866H16.8363C16.8605 19.4866 16.8845 19.4818 16.907 19.4727L21.4979 17.6041C21.4992 17.6036 21.5003 17.6027 21.5017 17.6021L21.9705 17.4113C22.1423 17.3414 22.321 17.3059 22.5019 17.3059C22.9822 17.3059 23.3955 17.5589 23.5549 17.9503C23.7827 18.5104 23.4429 19.18 22.7974 19.4428L17.3023 21.6798L9.49978 21.6796ZM2.60152 20.7002H2.60133H0.897797C0.609563 20.7001 0.375094 20.4656 0.375094 20.1774L0.375 12.8096C0.375 12.5215 0.609375 12.287 0.897609 12.287L2.60142 12.2872C2.88961 12.2872 3.12413 12.5217 3.12413 12.8099L3.12394 20.1776C3.12394 20.3165 3.06938 20.4475 2.97033 20.5466C2.87128 20.6456 2.74027 20.7002 2.60152 20.7002ZM4.53947 12.2086V11.6578C5.21527 12.3824 6.73725 12.8763 8.54855 12.8763C10.3598 12.8763 11.8818 12.3824 12.5577 11.6578V12.2086C12.5577 13.0301 11.0918 13.7378 9.22941 13.8792L8.50767 13.3688C8.47603 13.3464 8.4382 13.3344 8.39939 13.3344H5.57864C4.93613 13.0323 4.53947 12.6359 4.53947 12.2086ZM8.54859 9.10868C10.7218 9.10868 12.5577 9.88549 12.5577 10.805C12.5577 11.7245 10.7218 12.5013 8.54859 12.5013C6.37542 12.5013 4.53952 11.7245 4.53952 10.805C4.53952 9.88549 6.37542 9.10868 8.54859 9.10868ZM4.84814 13.3344H4.67381C4.62216 13.2535 4.5847 13.1704 4.56272 13.0857C4.64616 13.1721 4.74145 13.2551 4.84814 13.3344ZM10.0684 14.4724L9.69811 14.2106C10.971 14.0531 12.0007 13.6384 12.5345 13.0857C12.3738 13.7044 11.3886 14.2357 10.0684 14.4724ZM12.0149 15.8489L11.8141 15.707C12.1065 15.5538 12.3501 15.3793 12.5345 15.1884C12.473 15.4252 12.2907 15.6493 12.0149 15.8489ZM12.331 16.0725C12.4146 16.0052 12.4904 15.9354 12.5577 15.8632V16.2328L12.331 16.0725ZM11.4663 15.461L10.4916 14.7717C11.4124 14.5615 12.1438 14.2043 12.5577 13.7606V14.3112C12.5577 14.75 12.1395 15.1562 11.4663 15.461ZM13.6623 14.282V13.7314C14.3381 14.4559 15.8601 14.9499 17.6714 14.9499C19.4827 14.9499 21.0047 14.4559 21.6805 13.7313V14.282C21.6805 15.2016 19.8445 15.9784 17.6714 15.9784C15.4982 15.9784 13.6623 15.2016 13.6623 14.282ZM13.6623 12.1502V11.5995C14.3381 12.3241 15.8601 12.818 17.6714 12.818C19.4827 12.818 21.0047 12.3241 21.6805 11.5995V12.1502C21.6805 13.0697 19.8445 13.8465 17.6714 13.8465C15.4982 13.8466 13.6623 13.0697 13.6623 12.1502ZM13.6623 10.0183V9.46764C14.3381 10.1922 15.8601 10.6862 17.6714 10.6862C19.4827 10.6862 21.0047 10.1922 21.6805 9.4676V10.0183C21.6805 10.9378 19.8445 11.7147 17.6714 11.7147C15.4982 11.7147 13.6623 10.9378 13.6623 10.0183ZM13.6623 7.8865V7.33582C14.3381 8.06041 15.8601 8.55433 17.6714 8.55433C19.4827 8.55433 21.0047 8.06036 21.6805 7.33577V7.8865C21.6805 8.806 19.8445 9.58286 17.6714 9.58286C15.4982 9.58286 13.6623 8.806 13.6623 7.8865ZM13.6623 5.75463V5.20389C14.3381 5.92849 15.8601 6.42241 17.6714 6.42241C19.4827 6.42241 21.0047 5.92844 21.6805 5.20389V5.75463C21.6805 6.67413 19.8445 7.45099 17.6714 7.45099C15.4982 7.45099 13.6623 6.67413 13.6623 5.75463ZM17.6714 2.65474C19.8445 2.65474 21.6805 3.43155 21.6805 4.35105C21.6805 5.2706 19.8445 6.04741 17.6714 6.04741C15.4982 6.04741 13.6623 5.2706 13.6623 4.35105C13.6623 3.4316 15.4982 2.65474 17.6714 2.65474ZM17.6714 8.17933C15.6093 8.17933 13.8511 7.47986 13.6767 6.62275C14.3596 7.33896 15.8729 7.82599 17.6714 7.82599C19.4699 7.82599 20.9832 7.33896 21.666 6.62275C21.4916 7.47982 19.7334 8.17933 17.6714 8.17933ZM17.6714 10.3112C15.6093 10.3112 13.8511 9.61169 13.6767 8.75458C14.3596 9.47079 15.8729 9.95782 17.6714 9.95782C19.4699 9.95782 20.9832 9.47079 21.666 8.75458C21.4916 9.61169 19.7334 10.3112 17.6714 10.3112ZM17.6714 12.443C15.6093 12.443 13.8511 11.7436 13.6767 10.8865C14.3596 11.6027 15.8729 12.0897 17.6714 12.0897C19.4699 12.0897 20.9832 11.6027 21.666 10.8865C21.4916 11.7435 19.7334 12.443 17.6714 12.443ZM17.6714 14.5749C15.6093 14.5749 13.8511 13.8754 13.6767 13.0183C14.3596 13.7345 15.8729 14.2216 17.6714 14.2216C19.4699 14.2216 20.9832 13.7345 21.666 13.0183C21.4916 13.8754 19.7334 14.5749 17.6714 14.5749ZM17.6714 16.7067C15.6093 16.7067 13.851 16.0072 13.6767 15.1502C14.3596 15.8664 15.8729 16.3534 17.6714 16.3534C19.4699 16.3534 20.9832 15.8664 21.666 15.1502C21.4917 16.0072 19.7335 16.7067 17.6714 16.7067ZM13.6623 15.8632C14.3381 16.5878 15.8601 17.0817 17.6714 17.0817C19.4827 17.0817 21.0047 16.5878 21.6805 15.8632V16.414C21.6805 17.3334 19.8445 18.1103 17.6714 18.1103C15.4982 18.1103 13.6623 17.3335 13.6623 16.414V15.8632ZM13.9157 17.5838L13.9799 17.5462C14.3151 17.7929 14.7588 18.0022 15.2817 18.1601L14.7175 18.4913L13.9192 18.6071C14.0373 18.2915 14.0381 17.9315 13.9157 17.5838ZM13.671 19.0222L14.8077 18.8571C14.8317 18.8536 14.8548 18.8455 14.8757 18.8332L15.796 18.293C16.3618 18.4166 16.9964 18.4853 17.6713 18.4853C17.9226 18.4853 18.1682 18.4756 18.4069 18.4573L16.7995 19.1116H13.5855C13.6154 19.0833 13.6436 19.0533 13.671 19.0222Z" fill="black"/>
<path d="M2.80067 19.083C2.80067 18.5036 2.3293 18.0322 1.74992 18.0322C1.17055 18.0322 0.699219 18.5036 0.699219 19.083C0.699219 19.6624 1.17055 20.1337 1.74992 20.1337C2.3293 20.1337 2.80067 19.6624 2.80067 19.083ZM1.74992 19.7588C1.37736 19.7588 1.07422 19.4556 1.07422 19.083C1.07422 18.7104 1.37736 18.4073 1.74992 18.4073C2.12253 18.4073 2.42567 18.7104 2.42567 19.083C2.42567 19.4556 2.12253 19.7588 1.74992 19.7588Z" fill="black"/>
<path d="M5.56543 6.9406C5.56543 7.19996 5.66645 7.44375 5.84982 7.62713C6.0332 7.81055 6.27704 7.91152 6.5364 7.91152C6.79576 7.91152 7.03955 7.8105 7.22298 7.62713L9.56016 5.28994L10.306 6.03581C10.354 6.08377 10.4243 6.1021 10.4895 6.08367C10.5549 6.06525 10.6051 6.01299 10.6209 5.94699L11.5263 2.17664C11.5416 2.11317 11.5227 2.04642 11.4766 2.00025C11.4305 1.95413 11.3636 1.93524 11.3002 1.95052L7.52977 2.85586C7.46377 2.87171 7.41151 2.922 7.39309 2.9873C7.37466 3.05264 7.39299 3.12281 7.44095 3.17081L8.18696 3.91678L5.84973 6.25397C5.66645 6.43744 5.56543 6.68124 5.56543 6.9406ZM8.58484 4.04944C8.61999 4.01428 8.63973 3.96656 8.63973 3.91683C8.63973 3.8671 8.61999 3.81942 8.58484 3.78422L7.94302 3.14241L11.0904 2.38669L10.3345 5.53397L9.69282 4.89225C9.6196 4.81908 9.50091 4.81908 9.42765 4.89225L6.9579 7.362C6.8453 7.47455 6.69563 7.53656 6.53645 7.53656C6.37726 7.53656 6.22759 7.4746 6.11504 7.362C6.00249 7.24946 5.94048 7.09978 5.94048 6.9406C5.94048 6.78141 6.00245 6.63174 6.11504 6.51919L8.58484 4.04944Z" fill="black"/>
<path d="M15.1914 4.49447H15.7735C15.8812 4.85475 16.2945 5.11589 16.8023 5.11589C17.3947 5.11589 17.8586 4.76058 17.8586 4.30697C17.8586 4.07175 18.1707 3.87305 18.5402 3.87305C18.9097 3.87305 19.2218 4.07175 19.2218 4.30697C19.2218 4.54219 18.9097 4.74089 18.5402 4.74089C18.4367 4.74089 18.3527 4.82484 18.3527 4.92839C18.3527 5.03194 18.4367 5.11589 18.5402 5.11589C19.048 5.11589 19.4613 4.85475 19.5691 4.49447H20.1509C20.2545 4.49447 20.3384 4.41052 20.3384 4.30697C20.3384 4.20342 20.2545 4.11947 20.1509 4.11947H19.5691C19.4613 3.75919 19.0481 3.49805 18.5402 3.49805C17.9477 3.49805 17.4836 3.85341 17.4836 4.30697C17.4836 4.54219 17.1716 4.74089 16.8023 4.74089C16.4328 4.74089 16.1207 4.54219 16.1207 4.30697C16.1207 4.07175 16.4328 3.87305 16.8023 3.87305C16.9059 3.87305 16.9898 3.78909 16.9898 3.68555C16.9898 3.582 16.9059 3.49805 16.8023 3.49805C16.2945 3.49805 15.8812 3.75923 15.7735 4.11947H15.1914C15.0879 4.11947 15.0039 4.20342 15.0039 4.30697C15.0039 4.41052 15.0879 4.49447 15.1914 4.49447Z" fill="black"/>
</g>
<defs>
<clipPath id="clip0_747_1661">
<rect width="24" height="24" fill="white"/>
</clipPath>
</defs>
</svg>
