<svg width="19" height="18" viewBox="0 0 19 18" fill="none" xmlns="http://www.w3.org/2000/svg">
<path d="M7.21289 13.2125C5.39622 13.2125 3.85889 12.5832 2.60089 11.3245C1.34289 10.0658 0.713558 8.52849 0.712891 6.71249C0.712224 4.89649 1.34156 3.35916 2.60089 2.10049C3.86022 0.841827 5.39756 0.212494 7.21289 0.212494C9.02822 0.212494 10.5659 0.841827 11.8259 2.10049C13.0859 3.35916 13.7149 4.89649 13.7129 6.71249C13.7129 7.44583 13.5962 8.13749 13.3629 8.78749C13.1296 9.43749 12.8129 10.0125 12.4129 10.5125L18.0129 16.1125C18.1962 16.2958 18.2879 16.5292 18.2879 16.8125C18.2879 17.0958 18.1962 17.3292 18.0129 17.5125C17.8296 17.6958 17.5962 17.7875 17.3129 17.7875C17.0296 17.7875 16.7962 17.6958 16.6129 17.5125L11.0129 11.9125C10.5129 12.3125 9.93789 12.6292 9.28789 12.8625C8.63789 13.0958 7.94622 13.2125 7.21289 13.2125ZM7.21289 11.2125C8.46289 11.2125 9.52556 10.7752 10.4009 9.90049C11.2762 9.02583 11.7136 7.96316 11.7129 6.71249C11.7122 5.46183 11.2749 4.39949 10.4009 3.52549C9.52689 2.65149 8.46422 2.21383 7.21289 2.21249C5.96156 2.21116 4.89922 2.64883 4.02589 3.52549C3.15256 4.40216 2.71489 5.46449 2.71289 6.71249C2.71089 7.96049 3.14856 9.02316 4.02589 9.90049C4.90322 10.7778 5.96556 11.2152 7.21289 11.2125Z" fill="#A9A6A6"/>
</svg>
