<svg width="25" height="25" viewBox="0 0 25 25" fill="none" xmlns="http://www.w3.org/2000/svg">
<path opacity="0.5" fill-rule="evenodd" clip-rule="evenodd" d="M22.5 12.5C22.5 18.023 18.023 22.5 12.5 22.5C6.977 22.5 2.5 18.023 2.5 12.5C2.5 6.977 6.977 2.5 12.5 2.5C18.023 2.5 22.5 6.977 22.5 12.5Z" fill="#837D7D"/>
<path fill-rule="evenodd" clip-rule="evenodd" d="M12.5 5.75C12.6989 5.75 12.8897 5.82902 13.0303 5.96967C13.171 6.11032 13.25 6.30109 13.25 6.5V6.817C14.88 7.109 16.25 8.334 16.25 10C16.25 10.1989 16.171 10.3897 16.0303 10.5303C15.8897 10.671 15.6989 10.75 15.5 10.75C15.3011 10.75 15.1103 10.671 14.9697 10.5303C14.829 10.3897 14.75 10.1989 14.75 10C14.75 9.322 14.186 8.603 13.25 8.347V11.817C14.88 12.109 16.25 13.334 16.25 15C16.25 16.666 14.88 17.891 13.25 18.183V18.5C13.25 18.6989 13.171 18.8897 13.0303 19.0303C12.8897 19.171 12.6989 19.25 12.5 19.25C12.3011 19.25 12.1103 19.171 11.9697 19.0303C11.829 18.8897 11.75 18.6989 11.75 18.5V18.183C10.12 17.891 8.75 16.666 8.75 15C8.75 14.8011 8.82902 14.6103 8.96967 14.4697C9.11032 14.329 9.30109 14.25 9.5 14.25C9.69891 14.25 9.88968 14.329 10.0303 14.4697C10.171 14.6103 10.25 14.8011 10.25 15C10.25 15.678 10.814 16.397 11.75 16.652V13.183C10.12 12.891 8.75 11.666 8.75 10C8.75 8.334 10.12 7.109 11.75 6.817V6.5C11.75 6.30109 11.829 6.11032 11.9697 5.96967C12.1103 5.82902 12.3011 5.75 12.5 5.75ZM11.75 8.347C10.814 8.603 10.25 9.322 10.25 10C10.25 10.678 10.814 11.397 11.75 11.652V8.347ZM14.75 15C14.75 14.322 14.186 13.603 13.25 13.348V16.652C14.186 16.397 14.75 15.678 14.75 15Z" fill="#837D7D"/>
</svg>
