<svg width="40" height="41" viewBox="0 0 40 41" fill="none" xmlns="http://www.w3.org/2000/svg">
<g clip-path="url(#clip0_799_1824)">
<path d="M13.2607 28.5521C13.2607 28.0828 12.8789 27.701 12.4097 27.701C11.9404 27.701 11.5586 28.0828 11.5586 28.5521C11.5586 29.0214 11.9404 29.4032 12.4097 29.4032C12.8789 29.4032 13.2607 29.0214 13.2607 28.5521Z" fill="url(#paint0_linear_799_1824)"/>
<path d="M28.506 31.0915H18.7287V32.9395C19.7133 33.2892 20.4204 34.2298 20.4204 35.3328C20.4204 36.733 19.2812 37.8722 17.8811 37.8722C16.4809 37.8722 15.3417 36.733 15.3417 35.3328C15.3417 34.2273 16.0522 33.285 17.0403 32.9372V30.2473C17.0403 29.7812 17.4183 29.4032 17.8845 29.4032H28.0556V27.7011H17.8845C17.4184 27.7011 17.0404 27.3231 17.0404 26.857V24.1671C16.0523 23.8193 15.3418 22.877 15.3418 21.7715C15.3418 20.3713 16.481 19.2321 17.8812 19.2321C19.2813 19.2321 20.4205 20.3713 20.4205 21.7715C20.4205 22.8745 19.7133 23.8151 18.7288 24.1648V26.0128H28.5061C29.0899 25.0009 30.1825 24.3177 31.4323 24.3177H36.5317V19.2286C36.5317 18.292 35.7697 17.53 34.833 17.53C34.4674 17.53 6.39102 17.53 6.01492 17.53C4.35414 17.53 2.85148 16.8427 1.77398 15.7388L1.77375 27.708H10.0152C10.364 26.7216 11.3055 26.0127 12.4098 26.0127C13.8099 26.0127 14.9491 27.152 14.9491 28.5521C14.9491 29.9523 13.8099 31.0915 12.4098 31.0915C11.3055 31.0915 10.364 30.3827 10.0152 29.3963H1.77359L1.77344 38.7233C1.77344 39.6599 2.53539 40.4219 3.47203 40.4219H34.8329C35.7695 40.4219 36.5316 39.6599 36.5316 38.7233V32.7866H31.4322C30.1824 32.7866 29.0898 32.1035 28.506 31.0915Z" fill="url(#paint1_linear_799_1824)"/>
<path d="M6.0143 15.8417H11.325C8.97023 13.6991 7.80141 10.5547 8.22094 7.35883H6.0143C3.67953 7.35883 1.78437 9.24125 1.77344 11.58V11.6197C1.78398 13.9495 3.68211 15.8417 6.0143 15.8417Z" fill="url(#paint2_linear_799_1824)"/>
<path d="M14.2803 15.8417H21.4811C24.8078 14.1766 26.6075 10.3836 25.7056 6.71625C24.8239 3.10156 21.6064 0.578125 17.8808 0.578125C13.3943 0.578125 9.8252 4.19797 9.8252 8.63375C9.8252 11.6751 11.5676 14.484 14.2803 15.8417ZM17.8808 9.05406C16.4807 9.05406 15.3414 7.91484 15.3414 6.51469C15.3414 5.41039 16.0503 4.46898 17.0367 4.12023V3.1243C17.0367 2.65812 17.4146 2.28016 17.8808 2.28016C18.347 2.28016 18.725 2.65812 18.725 3.1243V3.97539H19.576C20.0421 3.97539 20.4201 4.35336 20.4201 4.81953C20.4201 5.2857 20.0421 5.66367 19.576 5.66367H17.8808C17.4115 5.66367 17.0297 6.04547 17.0297 6.51469C17.0297 6.98398 17.4115 7.36578 17.8808 7.36578C19.281 7.36578 20.4201 8.505 20.4201 9.90516C20.4201 11.0095 19.7114 11.9509 18.725 12.2996V13.2955C18.725 13.7616 18.347 14.1396 17.8808 14.1396C17.4146 14.1396 17.0367 13.7616 17.0367 13.2955V12.4444H16.1856C15.7194 12.4444 15.3414 12.0664 15.3414 11.6002C15.3414 11.1341 15.7194 10.7561 16.1856 10.7561H17.8808C18.35 10.7561 18.7318 10.3743 18.7318 9.90508C18.7318 9.43578 18.35 9.05406 17.8808 9.05406Z" fill="url(#paint3_linear_799_1824)"/>
<path d="M24.4365 15.8417H33.9886V7.35883H27.5407C27.955 10.5159 26.8196 13.6731 24.4365 15.8417Z" fill="url(#paint4_linear_799_1824)"/>
<path d="M17.0303 35.3328C17.0303 35.8021 17.4121 36.1839 17.8814 36.1839C18.3506 36.1839 18.7324 35.8021 18.7324 35.3328C18.7324 34.8636 18.3506 34.4818 17.8814 34.4818C17.412 34.4819 17.0303 34.8636 17.0303 35.3328Z" fill="url(#paint5_linear_799_1824)"/>
<path d="M31.4324 26.0059C30.4405 26.0059 29.7441 26.8658 29.7441 27.6942V29.4101C29.7441 30.3252 30.4911 31.0983 31.4324 31.0983H38.2269V26.0059H31.4324ZM32.2902 29.3964C31.8195 29.3964 31.446 29.011 31.446 28.5522C31.446 28.092 31.8209 27.7079 32.2902 27.7076C32.756 27.7074 33.1343 28.0883 33.1343 28.5522C33.1343 29.0194 32.7526 29.3964 32.2902 29.3964Z" fill="url(#paint6_linear_799_1824)"/>
<path d="M17.8814 20.9203C17.4121 20.9203 17.0303 21.3021 17.0303 21.7714C17.0303 22.2406 17.4121 22.6224 17.8814 22.6224C18.3506 22.6224 18.7324 22.2406 18.7324 21.7714C18.7323 21.3021 18.3506 20.9203 17.8814 20.9203Z" fill="url(#paint7_linear_799_1824)"/>
</g>
<defs>
<linearGradient id="paint0_linear_799_1824" x1="12.4096" y1="27.701" x2="12.4096" y2="29.4032" gradientUnits="userSpaceOnUse">
<stop stop-color="#26503A"/>
<stop offset="1" stop-color="#A7BF2D"/>
</linearGradient>
<linearGradient id="paint1_linear_799_1824" x1="19.1526" y1="15.7388" x2="19.1526" y2="40.4219" gradientUnits="userSpaceOnUse">
<stop stop-color="#26503A"/>
<stop offset="1" stop-color="#A7BF2D"/>
</linearGradient>
<linearGradient id="paint2_linear_799_1824" x1="6.54922" y1="7.35883" x2="6.54922" y2="15.8417" gradientUnits="userSpaceOnUse">
<stop stop-color="#26503A"/>
<stop offset="1" stop-color="#A7BF2D"/>
</linearGradient>
<linearGradient id="paint3_linear_799_1824" x1="17.8812" y1="0.578125" x2="17.8812" y2="15.8417" gradientUnits="userSpaceOnUse">
<stop stop-color="#26503A"/>
<stop offset="1" stop-color="#A7BF2D"/>
</linearGradient>
<linearGradient id="paint4_linear_799_1824" x1="29.2126" y1="7.35883" x2="29.2126" y2="15.8417" gradientUnits="userSpaceOnUse">
<stop stop-color="#26503A"/>
<stop offset="1" stop-color="#A7BF2D"/>
</linearGradient>
<linearGradient id="paint5_linear_799_1824" x1="17.8813" y1="34.4818" x2="17.8813" y2="36.1839" gradientUnits="userSpaceOnUse">
<stop stop-color="#26503A"/>
<stop offset="1" stop-color="#A7BF2D"/>
</linearGradient>
<linearGradient id="paint6_linear_799_1824" x1="33.9855" y1="26.0059" x2="33.9855" y2="31.0983" gradientUnits="userSpaceOnUse">
<stop stop-color="#26503A"/>
<stop offset="1" stop-color="#A7BF2D"/>
</linearGradient>
<linearGradient id="paint7_linear_799_1824" x1="17.8813" y1="20.9203" x2="17.8813" y2="22.6224" gradientUnits="userSpaceOnUse">
<stop stop-color="#26503A"/>
<stop offset="1" stop-color="#A7BF2D"/>
</linearGradient>
<clipPath id="clip0_799_1824">
<rect width="40" height="40" fill="white" transform="translate(0 0.5)"/>
</clipPath>
</defs>
</svg>
