<svg width="19" height="18" viewBox="0 0 19 18" fill="none" xmlns="http://www.w3.org/2000/svg">
<path d="M3.95229 0.986572C6.32808 1.06188 6.32544 4.50853 3.95233 4.58345C1.57541 4.50977 1.57165 1.06135 3.95229 0.986572ZM1.60546 7.03345H6.29608C7.9145 6.83765 6.68568 4.73376 5.91485 4.20224C5.69069 4.51366 5.39569 4.76731 5.05418 4.94226C4.71268 5.11721 4.33448 5.20845 3.95077 5.20845C3.56706 5.20844 3.18886 5.1172 2.84736 4.94224C2.50586 4.76728 2.21086 4.51362 1.98671 4.2022C1.21088 4.73734 0.00129366 6.81639 1.60546 7.03345ZM9.49921 10.0584C11.8738 9.9827 11.8733 6.54007 9.49917 6.4647C7.12022 6.53954 7.12077 9.98396 9.49921 10.0584ZM6.36796 11.5647C6.34722 11.6798 6.35191 11.798 6.3817 11.9111C6.41148 12.0241 6.46564 12.1293 6.54038 12.2192C6.61511 12.3091 6.70862 12.3816 6.81433 12.4316C6.92004 12.4816 7.03541 12.5078 7.15233 12.5084H11.843C11.9625 12.5106 12.081 12.4858 12.1897 12.4361C12.2984 12.3863 12.3946 12.3128 12.4711 12.2209C13.0136 11.4641 12.0717 10.1451 11.4618 9.68345C11.2368 9.99341 10.9416 10.2456 10.6003 10.4195C10.259 10.5933 9.88143 10.6837 9.49844 10.6834C9.11545 10.6831 8.73798 10.5921 8.39699 10.4177C8.05599 10.2433 7.76117 9.99064 7.53671 9.68032C6.93408 10.1483 6.51937 10.8169 6.36796 11.5647ZM3.95233 15.5366C6.32546 15.4617 6.32809 12.015 3.95229 11.9397C1.57165 12.0145 1.57541 15.4629 3.95233 15.5366ZM5.91483 15.1584C5.71962 15.4234 5.47287 15.6462 5.18938 15.8134C4.9059 15.9805 4.59154 16.0887 4.2652 16.1313C3.93886 16.1739 3.60728 16.1501 3.29037 16.0613C2.97347 15.9725 2.67778 15.8206 2.42108 15.6146C2.2577 15.4814 2.11175 15.3282 1.98671 15.1584C1.20983 15.6898 0.00206238 17.7704 1.60546 17.9866L6.29608 17.9866C7.91374 17.7917 6.68671 15.6862 5.91483 15.1584ZM15.0461 4.58345C17.4192 4.50852 17.4218 1.06188 15.046 0.986572C12.6654 1.06135 12.6692 4.50977 15.0461 4.58345ZM12.0805 6.7397C12.1552 6.8317 12.2495 6.90584 12.3566 6.95666C12.4636 7.00749 12.5807 7.03373 12.6992 7.03345H17.3898C19.0071 6.83768 17.7796 4.73322 17.0086 4.20224C16.1271 5.52516 13.9609 5.52355 13.0805 4.20213C12.4703 4.67006 11.5253 5.98048 12.0805 6.7397ZM15.0461 15.5366C17.4192 15.4617 17.4218 12.015 15.046 11.9397C12.6654 12.0145 12.6692 15.4629 15.0461 15.5366ZM17.0086 15.1584C16.8134 15.4234 16.5666 15.6462 16.2831 15.8134C15.9997 15.9805 15.6853 16.0887 15.359 16.1313C15.0326 16.1739 14.701 16.1501 14.3841 16.0613C14.0672 15.9725 13.7715 15.8206 13.5148 15.6146C13.3514 15.4814 13.2055 15.3282 13.0805 15.1584C12.3036 15.6898 11.0958 17.7704 12.6992 17.9866L17.3898 17.9866C19.0064 17.7917 17.7806 15.6857 17.0086 15.1584ZM7.21573 4.18933H10.941L10.4016 4.65381C10.3544 4.69594 10.3209 4.75135 10.3057 4.81279C10.2904 4.87423 10.2941 4.93885 10.3161 4.99818C10.3382 5.05752 10.3776 5.10883 10.4293 5.14539C10.481 5.18195 10.5425 5.20207 10.6058 5.20312C10.6779 5.20312 11.9867 4.11365 11.9867 4.11365C12.0199 4.08378 12.0465 4.04726 12.0647 4.00645C12.0829 3.96564 12.0922 3.92147 12.0922 3.87679C12.0922 3.83212 12.0828 3.78795 12.0646 3.74715C12.0464 3.70636 12.0198 3.66986 11.9865 3.64002L10.8095 2.62637C10.7464 2.57427 10.6655 2.54897 10.5839 2.55589C10.5024 2.56282 10.4269 2.60142 10.3735 2.66341C10.3202 2.72541 10.2932 2.80585 10.2985 2.88748C10.3038 2.9691 10.3409 3.04541 10.4018 3.10001L10.941 3.56432H7.21573C7.13389 3.5659 7.05593 3.59951 6.99861 3.65795C6.94129 3.71638 6.90918 3.79497 6.90918 3.87683C6.90918 3.95868 6.94129 4.03727 6.99861 4.09571C7.05593 4.15414 7.13389 4.18776 7.21573 4.18933ZM12.0952 14.7519C12.0952 14.669 12.0623 14.5896 12.0037 14.531C11.945 14.4724 11.8656 14.4394 11.7827 14.4394H8.05744L8.59682 13.9749C8.65778 13.9203 8.69488 13.844 8.70016 13.7623C8.70543 13.6806 8.67846 13.6001 8.62503 13.5381C8.5716 13.476 8.49598 13.4375 8.41441 13.4306C8.33284 13.4237 8.25183 13.4491 8.18879 13.5013L7.01171 14.5151C6.97848 14.545 6.95191 14.5815 6.93373 14.6223C6.91555 14.6631 6.90616 14.7073 6.90618 14.752C6.9062 14.7966 6.91562 14.8408 6.93383 14.8816C6.95204 14.9224 6.97863 14.9589 7.01188 14.9887C7.01186 14.9887 8.32045 16.0781 8.39263 16.0781C8.45592 16.077 8.51742 16.0569 8.56908 16.0203C8.62075 15.9837 8.66017 15.9324 8.68221 15.8731C8.70425 15.8137 8.70787 15.7491 8.6926 15.6877C8.67733 15.6263 8.64388 15.5709 8.59662 15.5287L8.05743 15.0644H11.7827C11.8656 15.0644 11.9451 15.0315 12.0037 14.9729C12.0623 14.9143 12.0952 14.8348 12.0952 14.7519ZM15.0459 7.48477C14.9631 7.48478 14.8836 7.5177 14.825 7.5763C14.7664 7.63491 14.7334 7.71439 14.7334 7.79727V10.3341L14.269 9.79479C14.2422 9.76369 14.2095 9.73817 14.1729 9.71969C14.1362 9.70121 14.0963 9.69013 14.0553 9.68709C14.0144 9.68404 13.9733 9.68909 13.9343 9.70194C13.8953 9.71479 13.8592 9.7352 13.8281 9.76199C13.797 9.78878 13.7715 9.82144 13.753 9.85809C13.7345 9.89474 13.7235 9.93468 13.7204 9.97561C13.7174 10.0165 13.7224 10.0577 13.7353 10.0967C13.7481 10.1357 13.7685 10.1717 13.7953 10.2028L14.8091 11.3799C14.839 11.4131 14.8755 11.4397 14.9163 11.4579C14.9571 11.476 15.0013 11.4854 15.046 11.4854C15.0906 11.4854 15.1348 11.476 15.1756 11.4578C15.2164 11.4396 15.2529 11.413 15.2827 11.3797L16.2964 10.2027C16.3502 10.1398 16.3768 10.0582 16.3705 9.97574C16.3642 9.89327 16.3255 9.81666 16.2628 9.7627C16.2001 9.70874 16.1186 9.68183 16.0361 9.68788C15.9536 9.69392 15.8769 9.73243 15.8228 9.79495L15.3584 10.3342V7.79728C15.3584 7.75624 15.3504 7.71561 15.3347 7.67769C15.3189 7.63977 15.2959 7.60532 15.2669 7.5763C15.2379 7.54728 15.2034 7.52426 15.1655 7.50856C15.1276 7.49285 15.087 7.48477 15.0459 7.48477ZM3.95249 11.4884C4.03537 11.4884 4.11485 11.4554 4.17346 11.3968C4.23206 11.3382 4.26499 11.2588 4.26499 11.1759V8.639L4.72947 9.17837C4.75626 9.20947 4.78892 9.23499 4.82557 9.25346C4.86223 9.27194 4.90216 9.28302 4.9431 9.28607C4.98403 9.28911 5.02517 9.28406 5.06415 9.27121C5.10314 9.25836 5.13921 9.23795 5.17031 9.21116C5.20141 9.18437 5.22692 9.15171 5.2454 9.11506C5.26388 9.0784 5.27496 9.03847 5.278 8.99753C5.28105 8.9566 5.276 8.91546 5.26314 8.87648C5.25029 8.83749 5.22989 8.80142 5.20309 8.77032L4.1893 7.59326C4.15949 7.55994 4.12299 7.53329 4.08217 7.51505C4.04136 7.49681 3.99715 7.48739 3.95245 7.48741C3.90774 7.48742 3.86354 7.49688 3.82274 7.51514C3.78194 7.53341 3.74545 7.56009 3.71567 7.59343L2.70202 8.77048C2.64825 8.83332 2.62158 8.91493 2.62788 8.9974C2.63417 9.07987 2.6729 9.15648 2.73559 9.21044C2.79827 9.2644 2.8798 9.29131 2.96229 9.28526C3.04478 9.27922 3.12151 9.24071 3.17565 9.17819L3.63998 8.63898V11.1759C3.63998 11.2169 3.64806 11.2575 3.66376 11.2955C3.67947 11.3334 3.70249 11.3678 3.73151 11.3968C3.76052 11.4259 3.79498 11.4489 3.83289 11.4646C3.87081 11.4803 3.91145 11.4884 3.95249 11.4884Z" fill="#FFEB00"/>
</svg>
