<svg width="61" height="66" viewBox="0 0 61 66" fill="none" xmlns="http://www.w3.org/2000/svg">
<path fill-rule="evenodd" clip-rule="evenodd" d="M49.7013 41.9624L49.7074 4.94507C49.7049 2.36172 51.7982 0.252623 54.3734 0.254458L55.825 0.250002H55.8271C58.399 0.247512 60.4975 2.35923 60.5 4.94258V4.94363L60.4967 41.967C60.4967 42.151 60.4485 42.3319 60.3569 42.4912L56.0039 50.0629C55.8173 50.3873 55.4728 50.5871 55.0999 50.5871C54.727 50.5871 54.3824 50.3873 54.1959 50.0629L49.8412 42.4868C49.7486 42.326 49.7013 42.145 49.7013 41.9624ZM51.7941 10.2464L51.789 40.9142H58.4093L58.412 10.2464H51.7941ZM58.4122 8.1496L58.4124 4.94429C58.411 3.5156 57.2523 2.34573 55.8297 2.34678L54.3786 2.35123C54.377 2.35123 54.3755 2.35123 54.3739 2.35123C52.9505 2.34914 51.7935 3.51533 51.795 4.94311V4.94429L51.7945 8.1496H58.4122ZM52.553 43.011L55.1 47.4421L57.6475 43.011H52.553ZM40.1838 5.56939H42.4071C43.3934 5.56939 44.3392 5.96292 45.0368 6.66338C45.7341 7.36396 46.1259 8.31406 46.1259 9.30466V61.5147C46.1259 62.5055 45.7341 63.4554 45.0368 64.156C44.3392 64.8565 43.3934 65.25 42.4071 65.25H4.21887C3.23249 65.25 2.28656 64.8565 1.58919 64.156C0.89181 63.4554 0.5 62.5055 0.5 61.5147V9.30466C0.5 8.31406 0.89181 7.36396 1.58919 6.66338C2.28656 5.96292 3.23249 5.56939 4.21887 5.56939H6.44212V2.45096C6.44212 1.23536 7.42315 0.250002 8.63341 0.250002H12.3395C13.5496 0.250002 14.5307 1.23536 14.5307 2.45096V5.56939H19.2686V2.45096C19.2686 1.23536 20.2498 0.250002 21.4599 0.250002H25.166C26.3761 0.250002 27.3572 1.23536 27.3572 2.45096V5.56939H32.0953V2.45096C32.0953 1.23536 33.0763 0.250002 34.2864 0.250002H37.9925C39.2028 0.250002 40.1838 1.23536 40.1838 2.45096V5.56939ZM6.44212 7.66616H4.21887C3.78622 7.66616 3.37118 7.83875 3.06536 8.14606C2.7594 8.45337 2.58756 8.8701 2.58756 9.30466V61.5147C2.58756 61.9493 2.7594 62.366 3.06536 62.6733C3.37118 62.9806 3.78622 63.1532 4.21887 63.1532H42.4071C42.8397 63.1532 43.2546 62.9806 43.5606 62.6733C43.8665 62.366 44.0384 61.9493 44.0384 61.5147V9.30466C44.0384 8.8701 43.8665 8.45337 43.5606 8.14606C43.2546 7.83875 42.8397 7.66616 42.4071 7.66616H40.1838V10.7847C40.1838 12.0002 39.2028 12.9855 37.9925 12.9855H34.2864C33.0763 12.9855 32.0953 12.0002 32.0953 10.7847V7.66616H27.3572V10.7847C27.3572 12.0002 26.3761 12.9855 25.166 12.9855H21.4599C20.2498 12.9855 19.2686 12.0002 19.2686 10.7847V7.66616H14.5307V10.7847C14.5307 12.0002 13.5496 12.9855 12.3395 12.9855H8.63341C7.42315 12.9855 6.44212 12.0002 6.44212 10.7847V7.66616ZM25.166 2.34678H21.4599C21.4027 2.34678 21.3562 2.39343 21.3562 2.45096V10.7847C21.3562 10.8422 21.4027 10.8888 21.4599 10.8888H25.166C25.2233 10.8888 25.2696 10.8422 25.2696 10.7847V2.45096C25.2696 2.39343 25.2233 2.34678 25.166 2.34678ZM37.9925 2.34678H34.2864C34.2292 2.34678 34.1829 2.39343 34.1829 2.45096V10.7847C34.1829 10.8422 34.2292 10.8888 34.2864 10.8888H37.9925C38.0498 10.8888 38.0963 10.8422 38.0963 10.7847V2.45096C38.0963 2.39343 38.0498 2.34678 37.9925 2.34678ZM12.3395 2.34678H8.63328C8.57613 2.34678 8.52969 2.39343 8.52969 2.45096V10.7847C8.52969 10.8422 8.57613 10.8888 8.63341 10.8888H12.3395C12.3966 10.8888 12.4431 10.8422 12.4431 10.7847V2.45096C12.4431 2.39343 12.3966 2.34678 12.3395 2.34678ZM21.0796 41.1467C20.5034 41.1467 20.0358 40.6769 20.0358 40.0983C20.0358 39.5197 20.5034 39.0499 21.0796 39.0499H36.2883C36.8643 39.0499 37.3321 39.5197 37.3321 40.0983C37.3321 40.6769 36.8643 41.1467 36.2883 41.1467H21.0796ZM21.0796 52.8883C20.5034 52.8883 20.0358 52.4185 20.0358 51.84C20.0358 51.2614 20.5034 50.7916 21.0796 50.7916H30.9122C31.4882 50.7916 31.9559 51.2614 31.9559 51.84C31.9559 52.4185 31.4882 52.8883 30.9122 52.8883H21.0796ZM21.0796 25.3472C20.5034 25.3472 20.0358 24.8775 20.0358 24.2988C20.0358 23.7202 20.5034 23.2504 21.0796 23.2504H36.2883C36.8643 23.2504 37.3321 23.7202 37.3321 24.2988C37.3321 24.8775 36.8643 25.3472 36.2883 25.3472H21.0796ZM21.0796 37.089C20.5034 37.089 20.0358 36.6192 20.0358 36.0406C20.0358 35.4619 20.5034 34.9922 21.0796 34.9922H30.9122C31.4882 34.9922 31.9559 35.4619 31.9559 36.0406C31.9559 36.6192 31.4882 37.089 30.9122 37.089H21.0796ZM21.0796 56.946C20.5034 56.946 20.0358 56.4763 20.0358 55.8976C20.0358 55.319 20.5034 54.8492 21.0796 54.8492H36.2883C36.8643 54.8492 37.3321 55.319 37.3321 55.8976C37.3321 56.4763 36.8643 56.946 36.2883 56.946H21.0796ZM21.0796 21.2896C20.5034 21.2896 20.0358 20.8197 20.0358 20.2412C20.0358 19.6626 20.5034 19.1928 21.0796 19.1928H30.9122C31.4882 19.1928 31.9559 19.6626 31.9559 20.2412C31.9559 20.8197 31.4882 21.2896 30.9122 21.2896H21.0796ZM12.0125 16.5334C15.1647 16.5334 17.724 19.1039 17.724 22.2701C17.724 25.4362 15.1647 28.0066 12.0125 28.0066C8.8603 28.0066 6.30108 25.4362 6.30108 22.2701C6.30108 19.1039 8.8603 16.5334 12.0125 16.5334ZM12.0125 18.6302C10.0125 18.6302 8.38864 20.2612 8.38864 22.2701C8.38864 24.2789 10.0125 25.9098 12.0125 25.9098C14.0125 25.9098 15.6364 24.2789 15.6364 22.2701C15.6364 20.2612 14.0125 18.6302 12.0125 18.6302ZM12.0125 48.1322C15.1647 48.1322 17.724 50.7027 17.724 53.8688C17.724 57.0348 15.1647 59.6054 12.0125 59.6054C8.8603 59.6054 6.30108 57.0348 6.30108 53.8688C6.30108 50.7027 8.8603 48.1322 12.0125 48.1322ZM12.0125 50.229C10.0125 50.229 8.38864 51.8599 8.38864 53.8688C8.38864 55.8777 10.0125 57.5086 12.0125 57.5086C14.0125 57.5086 15.6364 55.8777 15.6364 53.8688C15.6364 51.8599 14.0125 50.229 12.0125 50.229ZM12.0125 32.3327C15.1647 32.3327 17.724 34.9033 17.724 38.0694C17.724 41.2355 15.1647 43.806 12.0125 43.806C8.8603 43.806 6.30108 41.2355 6.30108 38.0694C6.30108 34.9033 8.8603 32.3327 12.0125 32.3327ZM12.0125 34.4295C10.0125 34.4295 8.38864 36.0605 8.38864 38.0694C8.38864 40.0782 10.0125 41.7093 12.0125 41.7093C14.0125 41.7093 15.6364 40.0782 15.6364 38.0694C15.6364 36.0605 14.0125 34.4295 12.0125 34.4295Z" fill="url(#paint0_linear_671_201)"/>
<defs>
<linearGradient id="paint0_linear_671_201" x1="-0.436013" y1="64.6541" x2="61.7805" y2="-0.392873" gradientUnits="userSpaceOnUse">
<stop stop-color="#FCC60E"/>
<stop offset="1" stop-color="#16423C"/>
</linearGradient>
</defs>
</svg>
