<svg width="59" height="67" viewBox="0 0 59 67" fill="none" xmlns="http://www.w3.org/2000/svg">
<path d="M36.121 13.1281L38.321 9.15889C38.3492 9.10803 38.367 9.05213 38.3736 8.99437C38.3801 8.93662 38.3752 8.87814 38.3591 8.82228C38.3431 8.76642 38.3161 8.71427 38.2799 8.66881C38.2437 8.62335 38.1989 8.58547 38.148 8.55733C38.0972 8.52919 38.0413 8.51135 37.9835 8.50481C37.9257 8.49828 37.8673 8.50319 37.8114 8.51925C37.7555 8.53532 37.7034 8.56223 37.6579 8.59845C37.6125 8.63467 37.5746 8.67949 37.5465 8.73035L35.3235 12.7408C33.426 11.9086 31.3765 11.479 29.3045 11.479C27.2325 11.479 25.183 11.9086 23.2854 12.7408L21.0625 8.73035C21.0057 8.62703 20.9101 8.55051 20.7969 8.51763C20.6836 8.48475 20.562 8.49821 20.4586 8.55504C20.3553 8.61187 20.2788 8.70741 20.2459 8.82066C20.213 8.9339 20.2265 9.05557 20.2833 9.15889L22.4833 13.1281C20.3907 14.1613 18.6228 15.7503 17.373 17.7212C16.1232 19.6921 15.4397 21.9689 15.3975 24.3022H43.2115C43.1688 21.9684 42.4847 19.6913 41.234 17.7203C39.9834 15.7494 38.2145 14.1606 36.121 13.1281ZM15.3952 45.5574C15.3943 45.9999 15.4807 46.4382 15.6496 46.8471C15.8184 47.2561 16.0663 47.6277 16.3791 47.9407C16.6918 48.2537 17.0633 48.5018 17.4721 48.6709C17.881 48.84 18.3192 48.9268 18.7617 48.9262H20.9915V55.8012C20.9915 56.6281 21.3199 57.4211 21.9046 58.0058C22.4893 58.5905 23.2824 58.919 24.1093 58.919C24.9362 58.919 25.7292 58.5905 26.3139 58.0058C26.8986 57.4211 27.2271 56.6281 27.2271 55.8012V48.9262H31.3842V55.8012C31.3842 56.6278 31.7125 57.4205 32.297 58.005C32.8815 58.5895 33.6742 58.9179 34.5008 58.9179C35.3274 58.9179 36.1202 58.5895 36.7046 58.005C37.2891 57.4205 37.6175 56.6278 37.6175 55.8012V48.9262H39.8496C40.2915 48.9265 40.7291 48.8397 41.1373 48.6707C41.5456 48.5018 41.9166 48.254 42.2291 47.9415C42.5415 47.6291 42.7893 47.2581 42.9583 46.8498C43.1272 46.4415 43.2141 46.0039 43.2137 45.562V25.4022H15.3929L15.3952 45.5574ZM11.1167 24.8637C10.7072 24.8637 10.3017 24.9444 9.92344 25.1011C9.54516 25.2579 9.20148 25.4877 8.91204 25.7773C8.6226 26.067 8.39308 26.4108 8.23658 26.7892C8.08009 27.1676 7.9997 27.5732 8 27.9826V40.9741C8 41.3834 8.08062 41.7887 8.23724 42.1668C8.39387 42.5449 8.62344 42.8885 8.91285 43.1779C9.20226 43.4673 9.54584 43.6969 9.92397 43.8535C10.3021 44.0102 10.7074 44.0908 11.1167 44.0908C11.526 44.0908 11.9312 44.0102 12.3094 43.8535C12.6875 43.6969 13.0311 43.4673 13.3205 43.1779C13.6099 42.8885 13.8395 42.5449 13.9961 42.1668C14.1527 41.7887 14.2333 41.3834 14.2333 40.9741V27.9849C14.2333 27.1583 13.905 26.3656 13.3205 25.7811C12.736 25.1966 11.9433 24.8683 11.1167 24.8683V24.8637ZM47.49 24.8637C47.0805 24.8637 46.6751 24.9444 46.2968 25.1011C45.9185 25.2579 45.5748 25.4877 45.2854 25.7773C44.9959 26.067 44.7664 26.4108 44.6099 26.7892C44.4534 27.1676 44.373 27.5732 44.3733 27.9826V40.9741C44.3733 41.3834 44.4539 41.7887 44.6106 42.1668C44.7672 42.5449 44.9968 42.8885 45.2862 43.1779C45.5756 43.4673 45.9192 43.6969 46.2973 43.8535C46.6754 44.0102 47.0807 44.0908 47.49 44.0908C47.8993 44.0908 48.3046 44.0102 48.6827 43.8535C49.0608 43.6969 49.4044 43.4673 49.6938 43.1779C49.9832 42.8885 50.2128 42.5449 50.3694 42.1668C50.526 41.7887 50.6067 41.3834 50.6067 40.9741V27.9849C50.6067 27.1583 50.2783 26.3656 49.6938 25.7811C49.1093 25.1966 48.3166 24.8683 47.49 24.8683V24.8637Z" fill="#FFEB00"/>
</svg>
