<svg width="25" height="25" viewBox="0 0 25 25" fill="none" xmlns="http://www.w3.org/2000/svg">
<path d="M12.5005 12.7405L20.5005 7.52851L20.1925 6.62451L12.5005 11.6245L4.80849 6.62451L4.50049 7.52851L12.5005 12.7405ZM19.5005 22.6245C18.3865 22.6245 17.4415 22.2365 16.6655 21.4605C15.8888 20.6832 15.5005 19.7378 15.5005 18.6245C15.5005 17.5112 15.8888 16.5662 16.6655 15.7895C17.4422 15.0128 18.3872 14.6245 19.5005 14.6245C20.6138 14.6245 21.5592 15.0128 22.3365 15.7895C23.1138 16.5662 23.5018 17.5112 23.5005 18.6245C23.4992 19.7378 23.1112 20.6832 22.3365 21.4605C21.5618 22.2378 20.6165 22.6258 19.5005 22.6245ZM17.1545 19.0085H21.8465V18.2395H17.1545V19.0085ZM5.11649 19.6245C4.67182 19.6245 4.29149 19.4662 3.97549 19.1495C3.65949 18.8328 3.50115 18.4532 3.50049 18.0105V7.23951C3.50049 6.79551 3.65882 6.41551 3.97549 6.09951C4.29215 5.78351 4.67215 5.62518 5.11549 5.62451H19.8855C20.3295 5.62451 20.7095 5.78284 21.0255 6.09951C21.3415 6.41618 21.4998 6.79618 21.5005 7.23951V12.9785C21.1752 12.8605 20.8458 12.7722 20.5125 12.7135C20.1792 12.6548 19.8418 12.6252 19.5005 12.6245C17.8292 12.6245 16.4115 13.2068 15.2475 14.3715C14.0828 15.5355 13.5005 16.9532 13.5005 18.6245C13.5005 18.7912 13.5062 18.9578 13.5175 19.1245C13.5288 19.2912 13.5588 19.4578 13.6075 19.6245H5.11649Z" fill="#878282"/>
</svg>
