<svg width="1071" height="1448" viewBox="0 0 1071 1448" fill="none" xmlns="http://www.w3.org/2000/svg">
<g filter="url(#filter0_d_744_405)">
<path fill-rule="evenodd" clip-rule="evenodd" d="M317 54.4478C317 39.8411 305.159 28 290.552 28H70C47.9086 28 30 45.9086 30 68V1376C30 1398.09 47.9086 1416 70 1416H1001C1023.09 1416 1041 1398.09 1041 1376V68C1041 45.9086 1023.09 28 1001 28H788.448C773.841 28 762 39.8411 762 54.4478C762 69.0545 750.159 80.8956 735.552 80.8956H343.448C328.841 80.8956 317 69.0545 317 54.4478Z" fill="white"/>
</g>
<defs>
<filter id="filter0_d_744_405" x="0" y="0" width="1071" height="1448" filterUnits="userSpaceOnUse" color-interpolation-filters="sRGB">
<feFlood flood-opacity="0" result="BackgroundImageFix"/>
<feColorMatrix in="SourceAlpha" type="matrix" values="0 0 0 0 0 0 0 0 0 0 0 0 0 0 0 0 0 0 127 0" result="hardAlpha"/>
<feOffset dy="2"/>
<feGaussianBlur stdDeviation="15"/>
<feComposite in2="hardAlpha" operator="out"/>
<feColorMatrix type="matrix" values="0 0 0 0 0 0 0 0 0 0 0 0 0 0 0 0 0 0 0.1 0"/>
<feBlend mode="normal" in2="BackgroundImageFix" result="effect1_dropShadow_744_405"/>
<feBlend mode="normal" in="SourceGraphic" in2="effect1_dropShadow_744_405" result="shape"/>
</filter>
</defs>
</svg>
