<svg width="56" height="56" viewBox="0 0 56 56" fill="none" xmlns="http://www.w3.org/2000/svg">
<rect width="56" height="56" rx="28" fill="#FF0C00" fill-opacity="0.2"/>
<path d="M29.2992 19.148L37.9332 34.102C38.0648 34.33 38.1341 34.5887 38.1341 34.852C38.1341 35.1153 38.0648 35.374 37.9332 35.602C37.8015 35.83 37.6122 36.0194 37.3842 36.151C37.1561 36.2827 36.8975 36.352 36.6342 36.352H19.3662C19.1029 36.352 18.8442 36.2827 18.6162 36.151C18.3882 36.0194 18.1988 35.83 18.0672 35.602C17.9355 35.374 17.8662 35.1153 17.8662 34.852C17.8662 34.5887 17.9355 34.33 18.0672 34.102L26.7012 19.148C27.2782 18.148 28.7212 18.148 29.2992 19.148ZM28.0002 31C27.735 31 27.4806 31.1054 27.2931 31.2929C27.1055 31.4804 27.0002 31.7348 27.0002 32C27.0002 32.2652 27.1055 32.5196 27.2931 32.7071C27.4806 32.8947 27.735 33 28.0002 33C28.2654 33 28.5197 32.8947 28.7073 32.7071C28.8948 32.5196 29.0002 32.2652 29.0002 32C29.0002 31.7348 28.8948 31.4804 28.7073 31.2929C28.5197 31.1054 28.2654 31 28.0002 31ZM28.0002 24C27.7552 24 27.5188 24.09 27.3358 24.2527C27.1528 24.4155 27.0358 24.6398 27.0072 24.883L27.0002 25V29C27.0005 29.2549 27.0981 29.5 27.273 29.6854C27.448 29.8707 27.6871 29.9822 27.9416 29.9972C28.196 30.0121 28.4466 29.9293 28.642 29.7657C28.8375 29.6022 28.9631 29.3701 28.9932 29.117L29.0002 29V25C29.0002 24.7348 28.8948 24.4804 28.7073 24.2929C28.5197 24.1054 28.2654 24 28.0002 24Z" fill="#E00A00"/>
</svg>
