<svg width="52" height="54" viewBox="0 0 52 54" fill="none" xmlns="http://www.w3.org/2000/svg">
<rect x="-0.0078125" width="52.008" height="54.0032" rx="26.004" fill="#FFC312" fill-opacity="0.2"/>
<path d="M29.4642 35.002C29.3437 35.8354 28.9271 36.5974 28.2906 37.1486C27.654 37.6998 26.8402 38.0032 25.9982 38.0032C25.1562 38.0032 24.3423 37.6998 23.7058 37.1486C23.0692 36.5974 22.6526 35.8354 22.5322 35.002H29.4642ZM25.9982 16C28.2087 15.9998 30.3323 16.8607 31.9186 18.4002C33.5049 19.9396 34.4291 22.0365 34.4952 24.246V24.501H34.4992V28.613L35.9132 32.257C35.9512 32.3557 35.9768 32.4577 35.9902 32.563L36.0002 32.72C36.0003 33.0371 35.8828 33.3429 35.6703 33.5783C35.4579 33.8137 35.1656 33.9618 34.8502 33.994L34.7202 34H17.2732C17.076 34.0002 16.8814 33.9547 16.7047 33.8673C16.528 33.7799 16.3738 33.6528 16.2543 33.496C16.1347 33.3392 16.053 33.1569 16.0155 32.9633C15.978 32.7697 15.9858 32.5701 16.0382 32.38L16.0802 32.256L17.4962 28.612V24.502C17.4959 23.3854 17.7156 22.2797 18.1428 21.2481C18.57 20.2165 19.1962 19.2791 19.9858 18.4896C20.7753 17.7001 21.7127 17.0738 22.7443 16.6466C23.7759 16.2195 24.8816 15.9997 25.9982 16Z" fill="#FFC925"/>
</svg>
