<svg width="56" height="56" viewBox="0 0 56 56" fill="none" xmlns="http://www.w3.org/2000/svg">
<rect width="56" height="56" rx="28" fill="#3D984A" fill-opacity="0.2"/>
<path d="M28.0001 19C28.0001 18.7348 28.1055 18.4804 28.293 18.2929C28.4805 18.1054 28.7349 18 29.0001 18H37.0001C37.2653 18 37.5197 18.1054 37.7072 18.2929C37.8947 18.4804 38.0001 18.7348 38.0001 19V27C38.0001 27.2652 37.8947 27.5196 37.7072 27.7071C37.5197 27.8946 37.2653 28 37.0001 28C36.7349 28 36.4805 27.8946 36.293 27.7071C36.1055 27.5196 36.0001 27.2652 36.0001 27V21.414L27.1721 30.242C27.8554 31.2757 28.1305 32.5262 27.9441 33.7512C27.7577 34.9762 27.1231 36.0884 26.1633 36.8721C25.2035 37.6557 23.9869 38.0551 22.7494 37.9928C21.5119 37.9305 20.3416 37.4108 19.4654 36.5347C18.5893 35.6585 18.0697 34.4882 18.0073 33.2507C17.945 32.0132 18.3444 30.7966 19.128 29.8368C19.9117 28.877 21.0239 28.2424 22.2489 28.056C23.4739 27.8696 24.7244 28.1447 25.7581 28.828L34.5861 20H29.0001C28.7349 20 28.4805 19.8946 28.293 19.7071C28.1055 19.5196 28.0001 19.2652 28.0001 19Z" fill="#3D984A"/>
</svg>
