<svg width="24" height="25" viewBox="0 0 24 25" fill="none" xmlns="http://www.w3.org/2000/svg">
<g clip-path="url(#clip0_750_3038)">
<path d="M7.26962 3.85902C8.24362 2.88502 9.88662 3.51902 9.99462 4.85002L10.0006 4.99002V20.749C10.0004 21.1342 9.85205 21.5046 9.58621 21.7834C9.32038 22.0622 8.95748 22.228 8.57271 22.2465C8.18794 22.2651 7.81079 22.1348 7.51942 21.8828C7.22805 21.6309 7.04479 21.2764 7.00762 20.893L7.00062 20.749V8.37002L5.56062 9.81002C5.28884 10.0828 4.92257 10.2406 4.53765 10.2508C4.15272 10.2609 3.77863 10.1227 3.49283 9.86463C3.20703 9.60658 3.03141 9.24851 3.00233 8.86456C2.97325 8.4806 3.09294 8.10017 3.33662 7.80202L3.43962 7.68802L7.26962 3.85902ZM15.5006 3.24902C15.8735 3.24904 16.233 3.38794 16.509 3.63864C16.7851 3.88934 16.9578 4.23386 16.9936 4.60502L17.0006 4.74902V17.128L18.4406 15.688C18.7124 15.4153 19.0787 15.2575 19.4636 15.2473C19.8485 15.2371 20.2226 15.3754 20.5084 15.6334C20.7942 15.8915 20.9698 16.2495 20.9989 16.6335C21.028 17.0174 20.9083 17.3979 20.6646 17.696L20.5616 17.81L16.7316 21.639C15.7576 22.613 14.1146 21.979 14.0066 20.648L14.0006 20.508V4.74902C14.0006 4.3512 14.1587 3.96967 14.44 3.68836C14.7213 3.40706 15.1028 3.24902 15.5006 3.24902Z" fill="#8F8A8A"/>
</g>
<defs>
<clipPath id="clip0_750_3038">
<rect width="24" height="24" fill="white" transform="translate(0 0.749023)"/>
</clipPath>
</defs>
</svg>
