<svg width="13" height="13" viewBox="0 0 13 13" fill="none" xmlns="http://www.w3.org/2000/svg">
<path d="M1.75029 10.0001H10.7503C10.8414 9.99977 10.9307 9.97464 11.0086 9.92736C11.0865 9.88009 11.1501 9.81247 11.1924 9.73178C11.2347 9.65108 11.2542 9.56037 11.2488 9.46941C11.2434 9.37845 11.2134 9.29068 11.1618 9.21555L6.66179 2.71555C6.47529 2.44605 6.02629 2.44605 5.83929 2.71555L1.33929 9.21555C1.2872 9.29052 1.25665 9.37834 1.25097 9.46945C1.24528 9.56056 1.26468 9.65149 1.30704 9.73236C1.34941 9.81322 1.41312 9.88093 1.49127 9.92813C1.56941 9.97532 1.659 10.0002 1.75029 10.0001Z" fill="#3D984A"/>
</svg>
