<svg width="30" height="30" viewBox="0 0 30 30" fill="none" xmlns="http://www.w3.org/2000/svg">
<path fill-rule="evenodd" clip-rule="evenodd" d="M1.90891 21.7227C0.886152 19.7045 0.299805 17.4272 0.299805 15C0.299805 12.5727 0.886152 10.2954 1.90891 8.27725C4.37705 3.3682 9.43615 0 15.2998 0C19.3498 0 22.7316 1.48635 25.3362 3.91365L21.0406 8.2091C19.4725 6.73635 17.5088 5.97269 15.2998 5.97269C11.3998 5.97269 8.08615 8.60455 6.8998 12.15C6.5998 13.05 6.4225 14.0045 6.4225 15C6.4225 15.9954 6.5998 16.95 6.8998 17.85L6.88205 17.8636H6.8998C8.08615 21.4091 11.3998 24.0409 15.2998 24.0409C17.3179 24.0409 19.0225 23.4954 20.3588 22.5954C21.9544 21.5318 23.0179 19.95 23.3725 18.0818H15.2998V12.2727H29.427C29.6043 13.2545 29.6997 14.2772 29.6997 15.3409C29.6997 19.909 28.0634 23.7545 25.2271 26.3727C22.7453 28.6636 19.3498 29.9999 15.2998 29.9999C9.43615 29.9999 4.37705 26.6318 1.90891 21.7363V21.7227Z" fill="#2E5077"/>
</svg>
