<svg width="10" height="5" viewBox="0 0 10 5" fill="none" xmlns="http://www.w3.org/2000/svg">
<path d="M0.90382 0.379482C1.01892 0.260246 1.17667 0.191606 1.34237 0.188658C1.50807 0.18571 1.66816 0.248694 1.78743 0.36376L4.93573 3.40198L7.97395 0.253683C8.08978 0.137755 8.24651 0.0719603 8.41039 0.0704686C8.57426 0.0689769 8.73216 0.131908 8.85008 0.245708C8.96801 0.359509 9.03652 0.515073 9.04086 0.678894C9.04519 0.842716 8.98502 1.00169 8.87328 1.12157L5.40112 4.71954C5.28602 4.83877 5.12827 4.90741 4.96257 4.91036C4.79687 4.91331 4.63678 4.85032 4.51751 4.73526L0.919542 1.26309C0.800306 1.14799 0.731667 0.990243 0.728719 0.824542C0.72577 0.658841 0.788754 0.498752 0.90382 0.379482Z" fill="#A6A6A6"/>
</svg>
