<svg width="40" height="40" viewBox="0 0 40 40" fill="none" xmlns="http://www.w3.org/2000/svg">
<path fill-rule="evenodd" clip-rule="evenodd" d="M3.04562 15.2234C2.69837 14.5993 2.50391 13.88 2.50391 13.1156V13.1106C2.50391 10.6946 4.4624 8.73722 6.87579 8.73722H10.067L15.8557 3.93023C15.998 3.81243 16.189 3.76231 16.3696 3.7974C16.5536 3.83249 16.7134 3.94527 16.8037 4.10818L23.4986 16.2384H24.214L18.1058 5.17584L19.606 3.93023C19.7483 3.81243 19.9393 3.76231 20.1199 3.7974C20.3039 3.83249 20.4637 3.94527 20.554 4.10818L27.2489 16.2384H27.9643L21.8561 5.17584L23.3563 3.93023C23.4986 3.81243 23.6896 3.76231 23.8702 3.7974C24.0542 3.83249 24.214 3.94527 24.3043 4.10818L26.8566 8.73722H34.3815C34.6072 8.73722 34.819 8.86002 34.9266 9.05802C35.0378 9.25852 35.0308 9.49911 34.9128 9.6921C33.4925 11.9703 33.4335 14.2485 34.9058 16.5241C35.0308 16.7171 35.0412 16.9627 34.9301 17.1632C34.8225 17.3637 34.6106 17.489 34.3815 17.489H27.9643C27.9643 17.489 26.8774 17.489 26.8704 17.489H23.1306H6.87579C5.22635 17.489 3.78873 16.5743 3.04562 15.2234ZM8.55995 9.98783H6.87579C5.15343 9.98783 3.75401 11.3863 3.75401 13.1106V13.1156C3.75401 13.3838 3.78873 13.647 3.85124 13.8951L8.55995 9.98783ZM27.5476 9.98783L30.9992 16.2384H33.3085C32.2875 14.1557 32.3188 12.0705 33.3223 9.98783H27.5476ZM35.0065 29.3662V34.4188C35.0065 34.9175 34.8086 35.3937 34.4579 35.7446C34.1071 36.0979 33.6279 36.2934 33.1314 36.2934H4.37906C3.88249 36.2934 3.40328 36.0979 3.05256 35.7446C2.70184 35.3937 2.50391 34.9175 2.50391 34.4188V15.5392C3.35814 17.0755 4.99369 18.1156 6.87579 18.1156H34.3815C34.6037 18.1156 34.819 18.0555 35.0065 17.9477V20.6143H28.131C27.1378 20.6143 26.1829 21.0103 25.478 21.7146C24.7765 22.4163 24.3807 23.3712 24.3807 24.3662V25.6168C24.3807 26.6118 24.7765 27.5642 25.478 28.2684C26.1829 28.9727 27.1378 29.3662 28.131 29.3662H35.0065ZM37.5067 21.8649V28.118C37.5067 28.4614 37.2254 28.7421 36.8817 28.7421H28.131C27.301 28.7421 26.5058 28.4138 25.9224 27.8273C25.3356 27.2409 25.0057 26.4464 25.0057 25.6168V24.3662C25.0057 23.5366 25.3356 22.7421 25.9224 22.1557C26.5058 21.5692 27.301 21.2409 28.131 21.2409H36.8817C37.2254 21.2409 37.5067 21.5191 37.5067 21.8649ZM29.3811 23.7396C28.69 23.7396 28.131 24.301 28.131 24.9902C28.131 25.682 28.69 26.2409 29.3811 26.2409C30.0721 26.2409 30.6312 25.682 30.6312 24.9902C30.6312 24.301 30.0721 23.7396 29.3811 23.7396Z" fill="url(#paint0_linear_799_1744)"/>
<defs>
<linearGradient id="paint0_linear_799_1744" x1="20.0053" y1="3.78641" x2="20.0053" y2="36.2934" gradientUnits="userSpaceOnUse">
<stop stop-color="#16423C"/>
<stop offset="1" stop-color="#B4CA2B"/>
</linearGradient>
</defs>
</svg>
