<svg width="18" height="18" viewBox="0 0 18 18" fill="none" xmlns="http://www.w3.org/2000/svg">
<path fill-rule="evenodd" clip-rule="evenodd" d="M0.522808 6.6118C0.349183 6.29977 0.251953 5.94013 0.251953 5.55793V5.55542C0.251953 4.34741 1.2312 3.36872 2.43789 3.36872H4.03351L6.92783 0.965221C6.99902 0.906324 7.09451 0.881264 7.1848 0.898808C7.27682 0.916352 7.35669 0.972743 7.40183 1.0542L10.7493 7.11932H11.107L8.05292 1.58803L8.80299 0.965221C8.87417 0.906324 8.96966 0.881264 9.05995 0.898808C9.15197 0.916352 9.23184 0.972743 9.27698 1.0542L12.6245 7.11932H12.9821L9.92807 1.58803L10.6781 0.965221C10.7493 0.906324 10.8448 0.881264 10.9351 0.898808C11.0271 0.916352 11.107 0.972743 11.1521 1.0542L12.4283 3.36872H16.1907C16.3036 3.36872 16.4095 3.43012 16.4633 3.52912C16.5189 3.62937 16.5154 3.74966 16.4564 3.84615C15.7462 4.98525 15.7167 6.12434 16.4529 7.26218C16.5154 7.35867 16.5206 7.48147 16.4651 7.58172C16.4112 7.68197 16.3053 7.74463 16.1907 7.74463H12.9821C12.9821 7.74463 12.4387 7.74463 12.4352 7.74463H10.5653H2.43789C1.61317 7.74463 0.894366 7.28724 0.522808 6.6118ZM3.27997 3.99402H2.43789C1.57671 3.99402 0.877004 4.69327 0.877004 5.55542V5.55793C0.877004 5.69201 0.894367 5.82359 0.925619 5.94765L3.27997 3.99402ZM12.7738 3.99402L14.4996 7.11932H15.6542C15.1438 6.07797 15.1594 5.03537 15.6612 3.99402H12.7738ZM16.5033 13.6832V16.2095C16.5033 16.4589 16.4043 16.697 16.2289 16.8724C16.0536 17.0491 15.814 17.1468 15.5657 17.1468H1.18953C0.941244 17.1468 0.701642 17.0491 0.526281 16.8724C0.350919 16.697 0.251953 16.4589 0.251953 16.2095V6.7697C0.679071 7.53786 1.49685 8.05791 2.43789 8.05791H16.1907C16.3018 8.05791 16.4095 8.02784 16.5033 7.97395V9.30727H13.0655C12.5689 9.30727 12.0914 9.50527 11.739 9.8574C11.3883 10.2083 11.1903 10.6857 11.1903 11.1832V11.8085C11.1903 12.306 11.3883 12.7822 11.739 13.1343C12.0914 13.4864 12.5689 13.6832 13.0655 13.6832H16.5033ZM17.7534 9.93258V13.0591C17.7534 13.2308 17.6127 13.3712 17.4408 13.3712H13.0655C12.6505 13.3712 12.2529 13.207 11.9612 12.9138C11.6678 12.6205 11.5029 12.2233 11.5029 11.8085V11.1832C11.5029 10.7684 11.6678 10.3712 11.9612 10.0779C12.2529 9.78472 12.6505 9.62055 13.0655 9.62055H17.4408C17.6127 9.62055 17.7534 9.75965 17.7534 9.93258ZM13.6905 10.8699C13.345 10.8699 13.0655 11.1506 13.0655 11.4952C13.0655 11.8411 13.345 12.1205 13.6905 12.1205C14.036 12.1205 14.3156 11.8411 14.3156 11.4952C14.3156 11.1506 14.036 10.8699 13.6905 10.8699Z" fill="#FFEB00"/>
</svg>
