<svg width="20" height="20" viewBox="0 0 20 20" fill="none" xmlns="http://www.w3.org/2000/svg">
<path fill-rule="evenodd" clip-rule="evenodd" d="M1.52281 7.61168C1.34918 7.29965 1.25195 6.94001 1.25195 6.5578V6.5553C1.25195 5.34729 2.2312 4.3686 3.43789 4.3686H5.03351L7.92783 1.9651C7.99902 1.9062 8.09451 1.88114 8.1848 1.89869C8.27682 1.91623 8.35669 1.97262 8.40183 2.05407L11.7493 8.1192H12.107L9.05292 2.5879L9.80299 1.9651C9.87417 1.9062 9.96966 1.88114 10.0599 1.89869C10.152 1.91623 10.2318 1.97262 10.277 2.05407L13.6245 8.1192H13.9821L10.9281 2.5879L11.6781 1.9651C11.7493 1.9062 11.8448 1.88114 11.9351 1.89869C12.0271 1.91623 12.107 1.97262 12.1521 2.05407L13.4283 4.3686H17.1907C17.3036 4.3686 17.4095 4.43 17.4633 4.52899C17.5189 4.62924 17.5154 4.74954 17.4564 4.84603C16.7462 5.98512 16.7167 7.12422 17.4529 8.26205C17.5154 8.35854 17.5206 8.48135 17.4651 8.5816C17.4112 8.68185 17.3053 8.7445 17.1907 8.7445H13.9821C13.9821 8.7445 13.4387 8.7445 13.4352 8.7445H11.5653H3.43789C2.61317 8.7445 1.89437 8.28712 1.52281 7.61168ZM4.27997 4.9939H3.43789C2.57671 4.9939 1.877 5.69315 1.877 6.5553V6.5578C1.877 6.69189 1.89437 6.82347 1.92562 6.94753L4.27997 4.9939ZM13.7738 4.9939L15.4996 8.1192H16.6542C16.1438 7.07785 16.1594 6.03525 16.6612 4.9939H13.7738ZM17.5033 14.6831V17.2094C17.5033 17.4587 17.4043 17.6968 17.2289 17.8723C17.0536 18.049 16.814 18.1467 16.5657 18.1467H2.18953C1.94124 18.1467 1.70164 18.049 1.52628 17.8723C1.35092 17.6968 1.25195 17.4587 1.25195 17.2094V7.76957C1.67907 8.53774 2.49685 9.05779 3.43789 9.05779H17.1907C17.3018 9.05779 17.4095 9.02771 17.5033 8.97383V10.3071H14.0655C13.5689 10.3071 13.0914 10.5051 12.739 10.8573C12.3883 11.2081 12.1903 11.6856 12.1903 12.1831V12.8084C12.1903 13.3059 12.3883 13.7821 12.739 14.1342C13.0914 14.4863 13.5689 14.6831 14.0655 14.6831H17.5033ZM18.7534 10.9325V14.059C18.7534 14.2307 18.6127 14.371 18.4408 14.371H14.0655C13.6505 14.371 13.2529 14.2069 12.9612 13.9137C12.6678 13.6204 12.5029 13.2232 12.5029 12.8084V12.1831C12.5029 11.7683 12.6678 11.3711 12.9612 11.0778C13.2529 10.7846 13.6505 10.6204 14.0655 10.6204H18.4408C18.6127 10.6204 18.7534 10.7595 18.7534 10.9325ZM14.6905 11.8698C14.345 11.8698 14.0655 12.1505 14.0655 12.4951C14.0655 12.841 14.345 13.1204 14.6905 13.1204C15.036 13.1204 15.3156 12.841 15.3156 12.4951C15.3156 12.1505 15.036 11.8698 14.6905 11.8698Z" fill="#16423C"/>
</svg>
