<svg width="25" height="24" viewBox="0 0 25 24" fill="none" xmlns="http://www.w3.org/2000/svg">
<path fill-rule="evenodd" clip-rule="evenodd" d="M18.9971 10.7499V7.99988H20.4971V10.7499H23.2471V12.2499H20.4971V14.9999H18.9971V12.2499H16.2471V10.7499H18.9971ZM8.07907 12.3499C7.34307 11.4779 6.74707 9.84988 6.74707 8.70988V6.99988C6.74707 5.93901 7.1685 4.9216 7.91864 4.17145C8.66879 3.42131 9.6862 2.99988 10.7471 2.99988C11.8079 2.99988 12.8254 3.42131 13.5755 4.17145C14.3256 4.9216 14.7471 5.93901 14.7471 6.99988V8.70988C14.7471 9.84988 14.1471 11.4829 13.4151 12.3519L13.0541 12.7799C12.4641 13.4789 12.6481 14.3679 13.4731 14.7699L19.1331 17.5319C19.7481 17.8319 20.2471 18.6249 20.2471 19.3149V20.0019C20.2465 20.2669 20.1408 20.5209 19.9531 20.708C19.7654 20.8952 19.5111 21.0001 19.2461 20.9999H2.24707C1.9822 20.9999 1.72815 20.8948 1.54067 20.7077C1.35319 20.5206 1.2476 20.2667 1.24707 20.0019V19.3149C1.24707 18.6299 1.74507 17.8319 2.36107 17.5309L8.02107 14.7689C8.84207 14.3689 9.03307 13.4809 8.44107 12.7789L8.07907 12.3499Z" fill="#2E5077"/>
</svg>
