<svg width="16" height="30" viewBox="0 0 16 30" fill="none" xmlns="http://www.w3.org/2000/svg">
<path d="M0.60643 15.978H3.89491V29.5161C3.89491 29.7834 4.11149 30 4.37878 30H9.95453C10.2218 30 10.4384 29.7834 10.4384 29.5161V16.0418H14.2188C14.4646 16.0418 14.6714 15.8573 14.6995 15.6132L15.2736 10.6291C15.2894 10.492 15.2459 10.3546 15.1542 10.2518C15.0624 10.1488 14.9309 10.0899 14.793 10.0899H10.4386V6.96561C10.4386 6.02381 10.9457 5.54623 11.9459 5.54623C12.0885 5.54623 14.793 5.54623 14.793 5.54623C15.0603 5.54623 15.2769 5.32955 15.2769 5.06235V0.487452C15.2769 0.220161 15.0603 0.00358065 14.793 0.00358065H10.8693C10.8417 0.00222581 10.7802 0 10.6896 0C10.0088 0 7.6424 0.133645 5.77311 1.85332C3.70194 3.759 3.98985 6.04074 4.05866 6.43636V10.0898H0.60643C0.339139 10.0898 0.122559 10.3064 0.122559 10.5736V15.494C0.122559 15.7613 0.339139 15.978 0.60643 15.978Z" fill="#2E5077"/>
</svg>
